<?xml version="1.0" encoding="UTF-8" standalone="no"?>
<!DOCTYPE svg PUBLIC "-//W3C//DTD SVG 1.1//EN"
 "http://www.w3.org/Graphics/SVG/1.1/DTD/svg11.dtd">
<!-- Generated by graphviz version 8.0.1 (20230327.1645)
 -->
<!-- Title: rcvsdk/ios/rcvsdk/RCVideoCanvas.h Pages: 1 -->
<svg width="314pt" height="192pt"
 viewBox="0.00 0.00 314.00 192.00" xmlns="http://www.w3.org/2000/svg" xmlns:xlink="http://www.w3.org/1999/xlink">
<g id="graph0" class="graph" transform="scale(1 1) rotate(0) translate(4 188)">
<title>rcvsdk/ios/rcvsdk/RCVideoCanvas.h</title>
<!-- Node1 -->
<g id="node1" class="node">
<title>Node1</title>
<g id="a_node1"><a xlink:title=" ">
<polygon fill="#999999" stroke="#666666" points="179,-184 0,-184 0,-165 179,-165 179,-184"/>
<text text-anchor="middle" x="89.5" y="-172" font-family="Helvetica,sans-Serif" font-size="10.00">rcvsdk/ios/rcvsdk/RCVideoCanvas.h</text>
</a>
</g>
</g>
<!-- Node2 -->
<g id="node2" class="node">
<title>Node2</title>
<g id="a_node2"><a xlink:title=" ">
<polygon fill="#e0e0e0" stroke="#999999" points="231.5,-19 107.5,-19 107.5,0 231.5,0 231.5,-19"/>
<text text-anchor="middle" x="169.5" y="-7" font-family="Helvetica,sans-Serif" font-size="10.00">Foundation/Foundation.h</text>
</a>
</g>
</g>
<!-- Node1&#45;&gt;Node2 -->
<g id="edge1" class="edge">
<title>Node1&#45;&gt;Node2</title>
<path fill="none" stroke="#63b8ff" d="M77.36,-164.75C50.75,-144.54 -8.09,-93.37 20.5,-55 38.16,-31.29 67.98,-19.72 96.32,-14.25"/>
<polygon fill="#63b8ff" stroke="#63b8ff" points="96.8,-17.55 106.08,-12.44 95.64,-10.65 96.8,-17.55"/>
</g>
<!-- Node3 -->
<g id="node3" class="node">
<title>Node3</title>
<g id="a_node3"><a xlink:title=" ">
<polygon fill="#e0e0e0" stroke="#999999" points="103,-74 30,-74 30,-55 103,-55 103,-74"/>
<text text-anchor="middle" x="66.5" y="-62" font-family="Helvetica,sans-Serif" font-size="10.00">UIKit/UIKit.h</text>
</a>
</g>
</g>
<!-- Node1&#45;&gt;Node3 -->
<g id="edge2" class="edge">
<title>Node1&#45;&gt;Node3</title>
<path fill="none" stroke="#63b8ff" d="M83.7,-164.75C78.33,-156.08 70.7,-142.23 67.5,-129 64,-114.54 63.91,-97.69 64.61,-84.98"/>
<polygon fill="#63b8ff" stroke="#63b8ff" points="68.16,-85.52 65.44,-75.28 61.18,-84.98 68.16,-85.52"/>
</g>
<!-- Node4 -->
<g id="node4" class="node">
<title>Node4</title>
<g id="a_node4"><a xlink:href="_rcv_base_video_view_8h.html" target="_top" xlink:title=" ">
<polygon fill="white" stroke="#666666" points="186.5,-129 76.5,-129 76.5,-110 186.5,-110 186.5,-129"/>
<text text-anchor="middle" x="131.5" y="-117" font-family="Helvetica,sans-Serif" font-size="10.00">RcvBaseVideoView.h</text>
</a>
</g>
</g>
<!-- Node1&#45;&gt;Node4 -->
<g id="edge3" class="edge">
<title>Node1&#45;&gt;Node4</title>
<path fill="none" stroke="#63b8ff" d="M96.44,-164.75C102.18,-157.5 110.51,-146.98 117.62,-138.02"/>
<polygon fill="#63b8ff" stroke="#63b8ff" points="120.95,-140.45 124.41,-130.44 115.46,-136.11 120.95,-140.45"/>
</g>
<!-- Node6 -->
<g id="node6" class="node">
<title>Node6</title>
<g id="a_node6"><a xlink:href="_rcv_video_canvas_8h.html" target="_top" xlink:title=" ">
<polygon fill="white" stroke="#666666" points="306,-129 205,-129 205,-110 306,-110 306,-129"/>
<text text-anchor="middle" x="255.5" y="-117" font-family="Helvetica,sans-Serif" font-size="10.00">RcvVideoCanvas.h</text>
</a>
</g>
</g>
<!-- Node1&#45;&gt;Node6 -->
<g id="edge8" class="edge">
<title>Node1&#45;&gt;Node6</title>
<path fill="none" stroke="#63b8ff" d="M117.66,-164.51C145.05,-155.76 186.86,-142.42 217.25,-132.71"/>
<polygon fill="#63b8ff" stroke="#63b8ff" points="218.02,-135.82 226.48,-129.45 215.89,-129.15 218.02,-135.82"/>
</g>
<!-- Node4&#45;&gt;Node2 -->
<g id="edge4" class="edge">
<title>Node4&#45;&gt;Node2</title>
<path fill="none" stroke="#63b8ff" d="M133.78,-109.77C137.07,-97.44 143.53,-74.26 150.5,-55 153.61,-46.41 157.5,-37.09 160.96,-29.2"/>
<polygon fill="#63b8ff" stroke="#63b8ff" points="164.52,-30.81 165.42,-20.25 158.14,-27.94 164.52,-30.81"/>
</g>
<!-- Node4&#45;&gt;Node3 -->
<g id="edge5" class="edge">
<title>Node4&#45;&gt;Node3</title>
<path fill="none" stroke="#63b8ff" d="M120.47,-109.51C110.99,-101.77 97.08,-90.43 85.75,-81.2"/>
<polygon fill="#63b8ff" stroke="#63b8ff" points="88.33,-77.96 78.36,-74.36 83.9,-83.39 88.33,-77.96"/>
</g>
<!-- Node5 -->
<g id="node5" class="node">
<title>Node5</title>
<g id="a_node5"><a xlink:href="_rcv_render_mode_8h.html" target="_top" xlink:title=" ">
<polygon fill="white" stroke="#666666" points="257.5,-74 159.5,-74 159.5,-55 257.5,-55 257.5,-74"/>
<text text-anchor="middle" x="208.5" y="-62" font-family="Helvetica,sans-Serif" font-size="10.00">RcvRenderMode.h</text>
</a>
</g>
</g>
<!-- Node4&#45;&gt;Node5 -->
<g id="edge6" class="edge">
<title>Node4&#45;&gt;Node5</title>
<path fill="none" stroke="#63b8ff" d="M144.56,-109.51C156.14,-101.54 173.26,-89.75 186.88,-80.38"/>
<polygon fill="#63b8ff" stroke="#63b8ff" points="188.38,-82.91 194.63,-74.36 184.41,-77.14 188.38,-82.91"/>
</g>
<!-- Node5&#45;&gt;Node2 -->
<g id="edge7" class="edge">
<title>Node5&#45;&gt;Node2</title>
<path fill="none" stroke="#63b8ff" d="M202.06,-54.75C196.73,-47.5 188.99,-36.98 182.39,-28.02"/>
<polygon fill="#63b8ff" stroke="#63b8ff" points="184.83,-26.42 176.08,-20.44 179.19,-30.57 184.83,-26.42"/>
</g>
<!-- Node6&#45;&gt;Node2 -->
<g id="edge10" class="edge">
<title>Node6&#45;&gt;Node2</title>
<path fill="none" stroke="#63b8ff" d="M260.71,-109.52C267.52,-96.46 277.37,-71.95 266.5,-55 256.81,-39.89 240.56,-29.84 224.1,-23.19"/>
<polygon fill="#63b8ff" stroke="#63b8ff" points="225.48,-19.6 214.88,-19.47 223.09,-26.18 225.48,-19.6"/>
</g>
<!-- Node6&#45;&gt;Node5 -->
<g id="edge9" class="edge">
<title>Node6&#45;&gt;Node5</title>
<path fill="none" stroke="#63b8ff" d="M247.74,-109.75C241.18,-102.35 231.59,-91.54 223.54,-82.45"/>
<polygon fill="#63b8ff" stroke="#63b8ff" points="226.68,-80.6 217.43,-75.44 221.45,-85.25 226.68,-80.6"/>
</g>
</g>
</svg>
