<?xml version="1.0" encoding="UTF-8" standalone="no"?>
<!DOCTYPE svg PUBLIC "-//W3C//DTD SVG 1.1//EN"
 "http://www.w3.org/Graphics/SVG/1.1/DTD/svg11.dtd">
<!-- Generated by graphviz version 8.0.1 (20230327.1645)
 -->
<!-- Title: rcvsdk/ios/rcvsdk/RCVideoView.h Pages: 1 -->
<svg width="686pt" height="192pt"
 viewBox="0.00 0.00 686.00 192.00" xmlns="http://www.w3.org/2000/svg" xmlns:xlink="http://www.w3.org/1999/xlink">
<g id="graph0" class="graph" transform="scale(1 1) rotate(0) translate(4 188)">
<title>rcvsdk/ios/rcvsdk/RCVideoView.h</title>
<!-- Node1 -->
<g id="node1" class="node">
<title>Node1</title>
<g id="a_node1"><a xlink:title=" ">
<polygon fill="#999999" stroke="#666666" points="165,-184 0,-184 0,-165 165,-165 165,-184"/>
<text text-anchor="middle" x="82.5" y="-172" font-family="Helvetica,sans-Serif" font-size="10.00">rcvsdk/ios/rcvsdk/RCVideoView.h</text>
</a>
</g>
</g>
<!-- Node2 -->
<g id="node2" class="node">
<title>Node2</title>
<g id="a_node2"><a xlink:title=" ">
<polygon fill="#e0e0e0" stroke="#999999" points="284.5,-19 160.5,-19 160.5,0 284.5,0 284.5,-19"/>
<text text-anchor="middle" x="222.5" y="-7" font-family="Helvetica,sans-Serif" font-size="10.00">Foundation/Foundation.h</text>
</a>
</g>
</g>
<!-- Node1&#45;&gt;Node2 -->
<g id="edge1" class="edge">
<title>Node1&#45;&gt;Node2</title>
<path fill="none" stroke="#63b8ff" d="M70.09,-164.67C59.6,-156.56 44.97,-143.61 36.5,-129 19.71,-100.05 1.56,-81.11 22.5,-55 38.41,-35.16 98.96,-23.6 149.31,-17.26"/>
<polygon fill="#63b8ff" stroke="#63b8ff" points="149.69,-20.62 159.2,-15.95 148.86,-13.67 149.69,-20.62"/>
</g>
<!-- Node3 -->
<g id="node3" class="node">
<title>Node3</title>
<g id="a_node3"><a xlink:title=" ">
<polygon fill="#e0e0e0" stroke="#999999" points="119,-129 46,-129 46,-110 119,-110 119,-129"/>
<text text-anchor="middle" x="82.5" y="-117" font-family="Helvetica,sans-Serif" font-size="10.00">UIKit/UIKit.h</text>
</a>
</g>
</g>
<!-- Node1&#45;&gt;Node3 -->
<g id="edge2" class="edge">
<title>Node1&#45;&gt;Node3</title>
<path fill="none" stroke="#63b8ff" d="M82.5,-164.75C82.5,-158.11 82.5,-148.73 82.5,-140.31"/>
<polygon fill="#63b8ff" stroke="#63b8ff" points="86,-140.44 82.5,-130.44 79,-140.44 86,-140.44"/>
</g>
<!-- Node4 -->
<g id="node4" class="node">
<title>Node4</title>
<g id="a_node4"><a xlink:href="_rcv_i_participant_8h.html" target="_top" xlink:title=" ">
<polygon fill="white" stroke="#666666" points="268.5,-129 176.5,-129 176.5,-110 268.5,-110 268.5,-129"/>
<text text-anchor="middle" x="222.5" y="-117" font-family="Helvetica,sans-Serif" font-size="10.00">RcvIParticipant.h</text>
</a>
</g>
</g>
<!-- Node1&#45;&gt;Node4 -->
<g id="edge3" class="edge">
<title>Node1&#45;&gt;Node4</title>
<path fill="none" stroke="#63b8ff" d="M106.25,-164.51C129.01,-155.89 163.59,-142.8 189.12,-133.14"/>
<polygon fill="#63b8ff" stroke="#63b8ff" points="189.99,-136.17 198.1,-129.36 187.51,-129.63 189.99,-136.17"/>
</g>
<!-- Node4&#45;&gt;Node2 -->
<g id="edge14" class="edge">
<title>Node4&#45;&gt;Node2</title>
<path fill="none" stroke="#63b8ff" d="M176.43,-114.07C126.58,-108.21 51.87,-95.97 34.5,-74 0.19,-30.62 82.87,-16.67 149.29,-12.31"/>
<polygon fill="#63b8ff" stroke="#63b8ff" points="149.43,-15.75 159.21,-11.66 149.02,-8.76 149.43,-15.75"/>
</g>
<!-- Node5 -->
<g id="node5" class="node">
<title>Node5</title>
<g id="a_node5"><a xlink:href="_rcv_e_echo_leak_type_8h.html" target="_top" xlink:title=" ">
<polygon fill="white" stroke="#666666" points="157.5,-74 43.5,-74 43.5,-55 157.5,-55 157.5,-74"/>
<text text-anchor="middle" x="100.5" y="-62" font-family="Helvetica,sans-Serif" font-size="10.00">RcvEEchoLeakType.h</text>
</a>
</g>
</g>
<!-- Node4&#45;&gt;Node5 -->
<g id="edge4" class="edge">
<title>Node4&#45;&gt;Node5</title>
<path fill="none" stroke="#63b8ff" d="M201.8,-109.51C182.32,-101.04 152.91,-88.27 130.78,-78.66"/>
<polygon fill="#63b8ff" stroke="#63b8ff" points="132.46,-75.13 121.89,-74.36 129.67,-81.55 132.46,-75.13"/>
</g>
<!-- Node6 -->
<g id="node6" class="node">
<title>Node6</title>
<g id="a_node6"><a xlink:href="_rcv_e_nqi_status_8h.html" target="_top" xlink:title=" ">
<polygon fill="white" stroke="#666666" points="269,-74 176,-74 176,-55 269,-55 269,-74"/>
<text text-anchor="middle" x="222.5" y="-62" font-family="Helvetica,sans-Serif" font-size="10.00">RcvENqiStatus.h</text>
</a>
</g>
</g>
<!-- Node4&#45;&gt;Node6 -->
<g id="edge6" class="edge">
<title>Node4&#45;&gt;Node6</title>
<path fill="none" stroke="#63b8ff" d="M222.5,-109.75C222.5,-103.11 222.5,-93.73 222.5,-85.31"/>
<polygon fill="#63b8ff" stroke="#63b8ff" points="226,-85.44 222.5,-75.44 219,-85.44 226,-85.44"/>
</g>
<!-- Node7 -->
<g id="node7" class="node">
<title>Node7</title>
<g id="a_node7"><a xlink:href="_rcv_e_participant_status_8h.html" target="_top" xlink:title=" ">
<polygon fill="white" stroke="#666666" points="412,-74 287,-74 287,-55 412,-55 412,-74"/>
<text text-anchor="middle" x="349.5" y="-62" font-family="Helvetica,sans-Serif" font-size="10.00">RcvEParticipantStatus.h</text>
</a>
</g>
</g>
<!-- Node4&#45;&gt;Node7 -->
<g id="edge8" class="edge">
<title>Node4&#45;&gt;Node7</title>
<path fill="none" stroke="#63b8ff" d="M244.04,-109.51C264.42,-101.01 295.22,-88.15 318.29,-78.53"/>
<polygon fill="#63b8ff" stroke="#63b8ff" points="319.39,-81.44 327.27,-74.36 316.7,-74.98 319.39,-81.44"/>
</g>
<!-- Node8 -->
<g id="node8" class="node">
<title>Node8</title>
<g id="a_node8"><a xlink:href="_rcv_e_reaction_action_8h.html" target="_top" xlink:title=" ">
<polygon fill="white" stroke="#666666" points="546.5,-74 430.5,-74 430.5,-55 546.5,-55 546.5,-74"/>
<text text-anchor="middle" x="488.5" y="-62" font-family="Helvetica,sans-Serif" font-size="10.00">RcvEReactionAction.h</text>
</a>
</g>
</g>
<!-- Node4&#45;&gt;Node8 -->
<g id="edge10" class="edge">
<title>Node4&#45;&gt;Node8</title>
<path fill="none" stroke="#63b8ff" d="M267.62,-109.51C313.24,-100.42 383.81,-86.36 432.86,-76.59"/>
<polygon fill="#63b8ff" stroke="#63b8ff" points="433.48,-79.83 442.6,-74.45 432.11,-72.97 433.48,-79.83"/>
</g>
<!-- Node9 -->
<g id="node9" class="node">
<title>Node9</title>
<g id="a_node9"><a xlink:href="_rcv_e_stream_activity_8h.html" target="_top" xlink:title=" ">
<polygon fill="white" stroke="#666666" points="678,-74 565,-74 565,-55 678,-55 678,-74"/>
<text text-anchor="middle" x="621.5" y="-62" font-family="Helvetica,sans-Serif" font-size="10.00">RcvEStreamActivity.h</text>
</a>
</g>
</g>
<!-- Node4&#45;&gt;Node9 -->
<g id="edge12" class="edge">
<title>Node4&#45;&gt;Node9</title>
<path fill="none" stroke="#63b8ff" d="M268.66,-112.37C338.84,-103.05 472.79,-85.25 553.94,-74.47"/>
<polygon fill="#63b8ff" stroke="#63b8ff" points="554.09,-77.85 563.54,-73.07 553.16,-70.91 554.09,-77.85"/>
</g>
<!-- Node5&#45;&gt;Node2 -->
<g id="edge5" class="edge">
<title>Node5&#45;&gt;Node2</title>
<path fill="none" stroke="#63b8ff" d="M121.2,-54.51C140.68,-46.04 170.09,-33.27 192.22,-23.66"/>
<polygon fill="#63b8ff" stroke="#63b8ff" points="193.33,-26.55 201.11,-19.36 190.54,-20.13 193.33,-26.55"/>
</g>
<!-- Node6&#45;&gt;Node2 -->
<g id="edge7" class="edge">
<title>Node6&#45;&gt;Node2</title>
<path fill="none" stroke="#63b8ff" d="M222.5,-54.75C222.5,-48.11 222.5,-38.73 222.5,-30.31"/>
<polygon fill="#63b8ff" stroke="#63b8ff" points="226,-30.44 222.5,-20.44 219,-30.44 226,-30.44"/>
</g>
<!-- Node7&#45;&gt;Node2 -->
<g id="edge9" class="edge">
<title>Node7&#45;&gt;Node2</title>
<path fill="none" stroke="#63b8ff" d="M327.96,-54.51C307.58,-46.01 276.78,-33.15 253.71,-23.53"/>
<polygon fill="#63b8ff" stroke="#63b8ff" points="255.3,-19.98 244.73,-19.36 252.61,-26.44 255.3,-19.98"/>
</g>
<!-- Node8&#45;&gt;Node2 -->
<g id="edge11" class="edge">
<title>Node8&#45;&gt;Node2</title>
<path fill="none" stroke="#63b8ff" d="M443.38,-54.51C397.76,-45.42 327.19,-31.36 278.14,-21.59"/>
<polygon fill="#63b8ff" stroke="#63b8ff" points="278.89,-17.97 268.4,-19.45 277.52,-24.83 278.89,-17.97"/>
</g>
<!-- Node9&#45;&gt;Node2 -->
<g id="edge13" class="edge">
<title>Node9&#45;&gt;Node2</title>
<path fill="none" stroke="#63b8ff" d="M564.76,-55.96C494.07,-46.57 373.17,-30.51 295.61,-20.21"/>
<polygon fill="#63b8ff" stroke="#63b8ff" points="296.33,-16.64 285.96,-18.8 295.41,-23.58 296.33,-16.64"/>
</g>
</g>
</svg>
