<?xml version="1.0" encoding="UTF-8" standalone="no"?>
<!DOCTYPE svg PUBLIC "-//W3C//DTD SVG 1.1//EN"
 "http://www.w3.org/Graphics/SVG/1.1/DTD/svg11.dtd">
<!-- Generated by graphviz version 8.1.0 (20230707.0739)
 -->
<!-- Title: rcvsdk/ios/rcvsdk/RCVideoCanvas.h Pages: 1 -->
<svg width="312pt" height="193pt"
 viewBox="0.00 0.00 312.38 193.00" xmlns="http://www.w3.org/2000/svg" xmlns:xlink="http://www.w3.org/1999/xlink">
<g id="graph0" class="graph" transform="scale(1 1) rotate(0) translate(4 189)">
<title>rcvsdk/ios/rcvsdk/RCVideoCanvas.h</title>
<!-- Node1 -->
<g id="Node000001" class="node">
<title>Node1</title>
<g id="a_Node000001"><a xlink:title=" ">
<polygon fill="#999999" stroke="#666666" points="178,-185 0,-185 0,-165.75 178,-165.75 178,-185"/>
<text text-anchor="middle" x="89" y="-171.5" font-family="Helvetica,sans-Serif" font-size="10.00">rcvsdk/ios/rcvsdk/RCVideoCanvas.h</text>
</a>
</g>
</g>
<!-- Node2 -->
<g id="Node000002" class="node">
<title>Node2</title>
<g id="a_Node000002"><a xlink:title=" ">
<polygon fill="#e0e0e0" stroke="#999999" points="230.62,-19.25 107.38,-19.25 107.38,0 230.62,0 230.62,-19.25"/>
<text text-anchor="middle" x="169" y="-5.75" font-family="Helvetica,sans-Serif" font-size="10.00">Foundation/Foundation.h</text>
</a>
</g>
</g>
<!-- Node1&#45;&gt;Node2 -->
<g id="edge1_Node000001_Node000002" class="edge">
<title>Node1&#45;&gt;Node2</title>
<g id="a_edge1_Node000001_Node000002"><a xlink:title=" ">
<path fill="none" stroke="#63b8ff" d="M77.12,-165.55C51.1,-145.15 -6.41,-93.56 22,-55.25 39.33,-31.88 68.57,-20.33 96.43,-14.76"/>
<polygon fill="#63b8ff" stroke="#63b8ff" points="96.77,-18.08 106.02,-12.91 95.56,-11.18 96.77,-18.08"/>
</a>
</g>
</g>
<!-- Node3 -->
<g id="Node000003" class="node">
<title>Node3</title>
<g id="a_Node000003"><a xlink:title=" ">
<polygon fill="#e0e0e0" stroke="#999999" points="103.12,-74.5 30.88,-74.5 30.88,-55.25 103.12,-55.25 103.12,-74.5"/>
<text text-anchor="middle" x="67" y="-61" font-family="Helvetica,sans-Serif" font-size="10.00">UIKit/UIKit.h</text>
</a>
</g>
</g>
<!-- Node1&#45;&gt;Node3 -->
<g id="edge2_Node000001_Node000003" class="edge">
<title>Node1&#45;&gt;Node3</title>
<g id="a_edge2_Node000001_Node000003"><a xlink:title=" ">
<path fill="none" stroke="#63b8ff" d="M82.95,-165.27C77.56,-156.57 70.06,-142.87 67,-129.75 63.6,-115.18 63.79,-98.23 64.72,-85.45"/>
<polygon fill="#63b8ff" stroke="#63b8ff" points="68.28,-85.99 65.75,-75.7 61.31,-85.32 68.28,-85.99"/>
</a>
</g>
</g>
<!-- Node4 -->
<g id="Node000004" class="node">
<title>Node4</title>
<g id="a_Node000004"><a xlink:href="_rcv_base_video_view_8h.html" target="_top" xlink:title=" ">
<polygon fill="white" stroke="#666666" points="185.88,-129.75 76.12,-129.75 76.12,-110.5 185.88,-110.5 185.88,-129.75"/>
<text text-anchor="middle" x="131" y="-116.25" font-family="Helvetica,sans-Serif" font-size="10.00">RcvBaseVideoView.h</text>
</a>
</g>
</g>
<!-- Node1&#45;&gt;Node4 -->
<g id="edge3_Node000001_Node000004" class="edge">
<title>Node1&#45;&gt;Node4</title>
<g id="a_edge3_Node000001_Node000004"><a xlink:title=" ">
<path fill="none" stroke="#63b8ff" d="M95.94,-165.58C101.68,-158.3 110.01,-147.73 117.12,-138.73"/>
<polygon fill="#63b8ff" stroke="#63b8ff" points="120.47,-141.13 123.91,-131.11 114.97,-136.79 120.47,-141.13"/>
</a>
</g>
</g>
<!-- Node6 -->
<g id="Node000006" class="node">
<title>Node6</title>
<g id="a_Node000006"><a xlink:href="_rcv_video_canvas_8h.html" target="_top" xlink:title=" ">
<polygon fill="white" stroke="#666666" points="304.38,-129.75 203.62,-129.75 203.62,-110.5 304.38,-110.5 304.38,-129.75"/>
<text text-anchor="middle" x="254" y="-116.25" font-family="Helvetica,sans-Serif" font-size="10.00">RcvVideoCanvas.h</text>
</a>
</g>
</g>
<!-- Node1&#45;&gt;Node6 -->
<g id="edge8_Node000001_Node000006" class="edge">
<title>Node1&#45;&gt;Node6</title>
<g id="a_edge8_Node000001_Node000006"><a xlink:title=" ">
<path fill="none" stroke="#63b8ff" d="M116.99,-165.34C144.13,-156.58 185.52,-143.23 215.7,-133.48"/>
<polygon fill="#63b8ff" stroke="#63b8ff" points="216.43,-136.6 224.87,-130.2 214.28,-129.94 216.43,-136.6"/>
</a>
</g>
</g>
<!-- Node4&#45;&gt;Node2 -->
<g id="edge4_Node000004_Node000002" class="edge">
<title>Node4&#45;&gt;Node2</title>
<g id="a_edge4_Node000004_Node000002"><a xlink:title=" ">
<path fill="none" stroke="#63b8ff" d="M133.27,-110.34C136.56,-97.94 143.02,-74.62 150,-55.25 153.07,-46.74 156.9,-37.52 160.32,-29.68"/>
<polygon fill="#63b8ff" stroke="#63b8ff" points="163.88,-31.29 164.76,-20.73 157.49,-28.44 163.88,-31.29"/>
</a>
</g>
</g>
<!-- Node4&#45;&gt;Node3 -->
<g id="edge5_Node000004_Node000003" class="edge">
<title>Node4&#45;&gt;Node3</title>
<g id="a_edge5_Node000004_Node000003"><a xlink:title=" ">
<path fill="none" stroke="#63b8ff" d="M120.14,-110.09C110.8,-102.32 97.11,-90.92 85.96,-81.65"/>
<polygon fill="#63b8ff" stroke="#63b8ff" points="88.62,-78.48 78.7,-74.77 84.14,-83.86 88.62,-78.48"/>
</a>
</g>
</g>
<!-- Node5 -->
<g id="Node000005" class="node">
<title>Node5</title>
<g id="a_Node000005"><a xlink:href="_rcv_render_mode_8h.html" target="_top" xlink:title=" ">
<polygon fill="white" stroke="#666666" points="256.88,-74.5 159.12,-74.5 159.12,-55.25 256.88,-55.25 256.88,-74.5"/>
<text text-anchor="middle" x="208" y="-61" font-family="Helvetica,sans-Serif" font-size="10.00">RcvRenderMode.h</text>
</a>
</g>
</g>
<!-- Node4&#45;&gt;Node5 -->
<g id="edge6_Node000004_Node000005" class="edge">
<title>Node4&#45;&gt;Node5</title>
<g id="a_edge6_Node000004_Node000005"><a xlink:title=" ">
<path fill="none" stroke="#63b8ff" d="M144.06,-110.09C155.57,-102.14 172.56,-90.39 186.13,-81"/>
<polygon fill="#63b8ff" stroke="#63b8ff" points="187.64,-83.52 193.87,-74.95 183.66,-77.76 187.64,-83.52"/>
</a>
</g>
</g>
<!-- Node5&#45;&gt;Node2 -->
<g id="edge7_Node000005_Node000002" class="edge">
<title>Node5&#45;&gt;Node2</title>
<g id="a_edge7_Node000005_Node000002"><a xlink:title=" ">
<path fill="none" stroke="#63b8ff" d="M201.56,-55.08C196.23,-47.8 188.49,-37.23 181.89,-28.23"/>
<polygon fill="#63b8ff" stroke="#63b8ff" points="184.31,-26.61 175.58,-20.61 178.67,-30.74 184.31,-26.61"/>
</a>
</g>
</g>
<!-- Node6&#45;&gt;Node2 -->
<g id="edge10_Node000006_Node000002" class="edge">
<title>Node6&#45;&gt;Node2</title>
<g id="a_edge10_Node000006_Node000002"><a xlink:title=" ">
<path fill="none" stroke="#63b8ff" d="M259.44,-110.1C266.57,-96.98 276.96,-72.35 266,-55.25 256.35,-40.19 240.2,-30.15 223.82,-23.47"/>
<polygon fill="#63b8ff" stroke="#63b8ff" points="225.23,-19.9 214.64,-19.74 222.82,-26.47 225.23,-19.9"/>
</a>
</g>
</g>
<!-- Node6&#45;&gt;Node5 -->
<g id="edge9_Node000006_Node000005" class="edge">
<title>Node6&#45;&gt;Node5</title>
<g id="a_edge9_Node000006_Node000005"><a xlink:title=" ">
<path fill="none" stroke="#63b8ff" d="M246.4,-110.33C239.98,-102.9 230.6,-92.04 222.72,-82.91"/>
<polygon fill="#63b8ff" stroke="#63b8ff" points="224.95,-81.14 215.76,-75.86 219.65,-85.71 224.95,-81.14"/>
</a>
</g>
</g>
</g>
</svg>
