<?xml version="1.0" encoding="UTF-8" standalone="no"?>
<!DOCTYPE svg PUBLIC "-//W3C//DTD SVG 1.1//EN"
 "http://www.w3.org/Graphics/SVG/1.1/DTD/svg11.dtd">
<!-- Generated by graphviz version 8.0.4 (20230421.1958)
 -->
<!-- Title: rcvsdk/ios/rcvsdk/RCVideoView.h Pages: 1 -->
<svg width="682pt" height="193pt"
 viewBox="0.00 0.00 682.25 193.00" xmlns="http://www.w3.org/2000/svg" xmlns:xlink="http://www.w3.org/1999/xlink">
<g id="graph0" class="graph" transform="scale(1 1) rotate(0) translate(4 189)">
<title>rcvsdk/ios/rcvsdk/RCVideoView.h</title>
<!-- Node1 -->
<g id="node1" class="node">
<title>Node1</title>
<g id="a_node1"><a xlink:title=" ">
<polygon fill="#999999" stroke="#666666" points="164.5,-185 0,-185 0,-165.75 164.5,-165.75 164.5,-185"/>
<text text-anchor="middle" x="82.25" y="-171.5" font-family="Helvetica,sans-Serif" font-size="10.00">rcvsdk/ios/rcvsdk/RCVideoView.h</text>
</a>
</g>
</g>
<!-- Node2 -->
<g id="node2" class="node">
<title>Node2</title>
<g id="a_node2"><a xlink:title=" ">
<polygon fill="#e0e0e0" stroke="#999999" points="283.88,-19.25 160.62,-19.25 160.62,0 283.88,0 283.88,-19.25"/>
<text text-anchor="middle" x="222.25" y="-5.75" font-family="Helvetica,sans-Serif" font-size="10.00">Foundation/Foundation.h</text>
</a>
</g>
</g>
<!-- Node1&#45;&gt;Node2 -->
<g id="edge1" class="edge">
<title>Node1&#45;&gt;Node2</title>
<path fill="none" stroke="#63b8ff" d="M70.05,-165.49C59.75,-157.34 45.42,-144.34 37.25,-129.75 20.83,-100.42 3.26,-81.5 24.25,-55.25 39.96,-35.6 99.73,-23.99 149.53,-17.56"/>
<polygon fill="#63b8ff" stroke="#63b8ff" points="149.82,-20.93 159.31,-16.23 148.96,-13.98 149.82,-20.93"/>
</g>
<!-- Node3 -->
<g id="node3" class="node">
<title>Node3</title>
<g id="a_node3"><a xlink:title=" ">
<polygon fill="#e0e0e0" stroke="#999999" points="118.38,-129.75 46.12,-129.75 46.12,-110.5 118.38,-110.5 118.38,-129.75"/>
<text text-anchor="middle" x="82.25" y="-116.25" font-family="Helvetica,sans-Serif" font-size="10.00">UIKit/UIKit.h</text>
</a>
</g>
</g>
<!-- Node1&#45;&gt;Node3 -->
<g id="edge2" class="edge">
<title>Node1&#45;&gt;Node3</title>
<path fill="none" stroke="#63b8ff" d="M82.25,-165.58C82.25,-158.92 82.25,-149.49 82.25,-141.03"/>
<polygon fill="#63b8ff" stroke="#63b8ff" points="85.75,-141.11 82.25,-131.11 78.75,-141.11 85.75,-141.11"/>
</g>
<!-- Node4 -->
<g id="node4" class="node">
<title>Node4</title>
<g id="a_node4"><a xlink:href="_rcv_i_participant_8h.html" target="_top" xlink:title=" ">
<polygon fill="white" stroke="#666666" points="268.12,-129.75 176.38,-129.75 176.38,-110.5 268.12,-110.5 268.12,-129.75"/>
<text text-anchor="middle" x="222.25" y="-116.25" font-family="Helvetica,sans-Serif" font-size="10.00">RcvIParticipant.h</text>
</a>
</g>
</g>
<!-- Node1&#45;&gt;Node4 -->
<g id="edge3" class="edge">
<title>Node1&#45;&gt;Node4</title>
<path fill="none" stroke="#63b8ff" d="M106,-165.34C128.63,-156.74 162.92,-143.69 188.41,-134"/>
<polygon fill="#63b8ff" stroke="#63b8ff" points="189.28,-137.03 197.38,-130.2 186.79,-130.49 189.28,-137.03"/>
</g>
<!-- Node4&#45;&gt;Node2 -->
<g id="edge14" class="edge">
<title>Node4&#45;&gt;Node2</title>
<path fill="none" stroke="#63b8ff" d="M175.98,-114.57C126.39,-108.63 52.47,-96.31 35.25,-74.5 1.12,-31.27 83.36,-17.14 149.43,-12.61"/>
<polygon fill="#63b8ff" stroke="#63b8ff" points="149.52,-16.05 159.29,-11.94 149.09,-9.06 149.52,-16.05"/>
</g>
<!-- Node5 -->
<g id="node5" class="node">
<title>Node5</title>
<g id="a_node5"><a xlink:href="_rcv_e_echo_leak_type_8h.html" target="_top" xlink:title=" ">
<polygon fill="white" stroke="#666666" points="158,-74.5 44.5,-74.5 44.5,-55.25 158,-55.25 158,-74.5"/>
<text text-anchor="middle" x="101.25" y="-61" font-family="Helvetica,sans-Serif" font-size="10.00">RcvEEchoLeakType.h</text>
</a>
</g>
</g>
<!-- Node4&#45;&gt;Node5 -->
<g id="edge4" class="edge">
<title>Node4&#45;&gt;Node5</title>
<path fill="none" stroke="#63b8ff" d="M201.72,-110.09C182.52,-101.64 153.58,-88.9 131.68,-79.27"/>
<polygon fill="#63b8ff" stroke="#63b8ff" points="133.44,-75.78 122.88,-74.95 130.62,-82.18 133.44,-75.78"/>
</g>
<!-- Node6 -->
<g id="node6" class="node">
<title>Node6</title>
<g id="a_node6"><a xlink:href="_rcv_e_nqi_status_8h.html" target="_top" xlink:title=" ">
<polygon fill="white" stroke="#666666" points="268.5,-74.5 176,-74.5 176,-55.25 268.5,-55.25 268.5,-74.5"/>
<text text-anchor="middle" x="222.25" y="-61" font-family="Helvetica,sans-Serif" font-size="10.00">RcvENqiStatus.h</text>
</a>
</g>
</g>
<!-- Node4&#45;&gt;Node6 -->
<g id="edge6" class="edge">
<title>Node4&#45;&gt;Node6</title>
<path fill="none" stroke="#63b8ff" d="M222.25,-110.33C222.25,-103.67 222.25,-94.24 222.25,-85.78"/>
<polygon fill="#63b8ff" stroke="#63b8ff" points="225.75,-85.86 222.25,-75.86 218.75,-85.86 225.75,-85.86"/>
</g>
<!-- Node7 -->
<g id="node7" class="node">
<title>Node7</title>
<g id="a_node7"><a xlink:href="_rcv_e_participant_status_8h.html" target="_top" xlink:title=" ">
<polygon fill="white" stroke="#666666" points="410.25,-74.5 286.25,-74.5 286.25,-55.25 410.25,-55.25 410.25,-74.5"/>
<text text-anchor="middle" x="348.25" y="-61" font-family="Helvetica,sans-Serif" font-size="10.00">RcvEParticipantStatus.h</text>
</a>
</g>
</g>
<!-- Node4&#45;&gt;Node7 -->
<g id="edge8" class="edge">
<title>Node4&#45;&gt;Node7</title>
<path fill="none" stroke="#63b8ff" d="M243.62,-110.09C263.72,-101.6 294.03,-88.79 316.87,-79.14"/>
<polygon fill="#63b8ff" stroke="#63b8ff" points="317.92,-82.07 325.77,-74.95 315.2,-75.62 317.92,-82.07"/>
</g>
<!-- Node8 -->
<g id="node8" class="node">
<title>Node8</title>
<g id="a_node8"><a xlink:href="_rcv_e_reaction_action_8h.html" target="_top" xlink:title=" ">
<polygon fill="white" stroke="#666666" points="544.12,-74.5 428.38,-74.5 428.38,-55.25 544.12,-55.25 544.12,-74.5"/>
<text text-anchor="middle" x="486.25" y="-61" font-family="Helvetica,sans-Serif" font-size="10.00">RcvEReactionAction.h</text>
</a>
</g>
</g>
<!-- Node4&#45;&gt;Node8 -->
<g id="edge10" class="edge">
<title>Node4&#45;&gt;Node8</title>
<path fill="none" stroke="#63b8ff" d="M267.33,-110.03C312.51,-100.92 382.15,-86.87 430.72,-77.08"/>
<polygon fill="#63b8ff" stroke="#63b8ff" points="431.24,-80.34 440.35,-74.93 429.86,-73.48 431.24,-80.34"/>
</g>
<!-- Node9 -->
<g id="node9" class="node">
<title>Node9</title>
<g id="a_node9"><a xlink:href="_rcv_e_stream_activity_8h.html" target="_top" xlink:title=" ">
<polygon fill="white" stroke="#666666" points="674.25,-74.5 562.25,-74.5 562.25,-55.25 674.25,-55.25 674.25,-74.5"/>
<text text-anchor="middle" x="618.25" y="-61" font-family="Helvetica,sans-Serif" font-size="10.00">RcvEStreamActivity.h</text>
</a>
</g>
</g>
<!-- Node4&#45;&gt;Node9 -->
<g id="edge12" class="edge">
<title>Node4&#45;&gt;Node9</title>
<path fill="none" stroke="#63b8ff" d="M268.45,-112.91C338.26,-103.53 470.97,-85.68 551.34,-74.87"/>
<polygon fill="#63b8ff" stroke="#63b8ff" points="551.4,-78.26 560.84,-73.46 550.47,-71.32 551.4,-78.26"/>
</g>
<!-- Node5&#45;&gt;Node2 -->
<g id="edge5" class="edge">
<title>Node5&#45;&gt;Node2</title>
<path fill="none" stroke="#63b8ff" d="M121.78,-54.84C140.98,-46.39 169.92,-33.65 191.82,-24.02"/>
<polygon fill="#63b8ff" stroke="#63b8ff" points="192.88,-26.93 200.62,-19.7 190.06,-20.53 192.88,-26.93"/>
</g>
<!-- Node6&#45;&gt;Node2 -->
<g id="edge7" class="edge">
<title>Node6&#45;&gt;Node2</title>
<path fill="none" stroke="#63b8ff" d="M222.25,-55.08C222.25,-48.42 222.25,-38.99 222.25,-30.53"/>
<polygon fill="#63b8ff" stroke="#63b8ff" points="225.75,-30.61 222.25,-20.61 218.75,-30.61 225.75,-30.61"/>
</g>
<!-- Node7&#45;&gt;Node2 -->
<g id="edge9" class="edge">
<title>Node7&#45;&gt;Node2</title>
<path fill="none" stroke="#63b8ff" d="M326.88,-54.84C306.78,-46.35 276.47,-33.54 253.63,-23.89"/>
<polygon fill="#63b8ff" stroke="#63b8ff" points="255.3,-20.37 244.73,-19.7 252.58,-26.82 255.3,-20.37"/>
</g>
<!-- Node8&#45;&gt;Node2 -->
<g id="edge11" class="edge">
<title>Node8&#45;&gt;Node2</title>
<path fill="none" stroke="#63b8ff" d="M441.17,-54.78C395.99,-45.67 326.35,-31.62 277.78,-21.83"/>
<polygon fill="#63b8ff" stroke="#63b8ff" points="278.64,-18.23 268.15,-19.68 277.26,-25.09 278.64,-18.23"/>
</g>
<!-- Node9&#45;&gt;Node2 -->
<g id="edge13" class="edge">
<title>Node9&#45;&gt;Node2</title>
<path fill="none" stroke="#63b8ff" d="M561.93,-56.3C491.78,-46.87 371.79,-30.73 294.81,-20.38"/>
<polygon fill="#63b8ff" stroke="#63b8ff" points="295.62,-16.82 285.24,-18.96 294.68,-23.76 295.62,-16.82"/>
</g>
</g>
</svg>
