<?xml version="1.0" encoding="UTF-8" standalone="no"?>
<!DOCTYPE svg PUBLIC "-//W3C//DTD SVG 1.1//EN"
 "http://www.w3.org/Graphics/SVG/1.1/DTD/svg11.dtd">
<!-- Generated by graphviz version 8.0.1 (20230327.1645)
 -->
<!-- Title: rcvsdk/ios/rcvsdk/RcvWaitingRoomMode.h Pages: 1 -->
<svg width="954pt" height="137pt"
 viewBox="0.00 0.00 954.00 137.00" xmlns="http://www.w3.org/2000/svg" xmlns:xlink="http://www.w3.org/1999/xlink">
<g id="graph0" class="graph" transform="scale(1 1) rotate(0) translate(4 133)">
<title>rcvsdk/ios/rcvsdk/RcvWaitingRoomMode.h</title>
<!-- Node1 -->
<g id="node1" class="node">
<title>Node1</title>
<g id="a_node1"><a xlink:title=" ">
<polygon fill="#999999" stroke="#666666" points="563,-129 357,-129 357,-110 563,-110 563,-129"/>
<text text-anchor="middle" x="460" y="-117" font-family="Helvetica,sans-Serif" font-size="10.00">rcvsdk/ios/rcvsdk/RcvWaitingRoomMode.h</text>
</a>
</g>
</g>
<!-- Node2 -->
<g id="node2" class="node">
<title>Node2</title>
<g id="a_node2"><a xlink:href="_rcv_instant_meeting_settings_8h.html" target="_top" xlink:title=" ">
<polygon fill="white" stroke="#666666" points="224,-74 0,-74 0,-55 224,-55 224,-74"/>
<text text-anchor="middle" x="112" y="-62" font-family="Helvetica,sans-Serif" font-size="10.00">rcvsdk/ios/rcvsdk/RcvInstantMeetingSettings.h</text>
</a>
</g>
</g>
<!-- Node1&#45;&gt;Node2 -->
<g id="edge1" class="edge">
<title>Node1&#45;&gt;Node2</title>
<path fill="none" stroke="#63b8ff" d="M390.13,-107.86C325.86,-98.07 231.62,-83.72 171.03,-74.49"/>
<polygon fill="#63b8ff" stroke="#63b8ff" points="389.55,-111.46 399.97,-109.51 390.61,-104.54 389.55,-111.46"/>
</g>
<!-- Node4 -->
<g id="node4" class="node">
<title>Node4</title>
<g id="a_node4"><a xlink:href="_rcv_meeting_bridge_info_8h.html" target="_top" xlink:title=" ">
<polygon fill="white" stroke="#666666" points="444,-74 242,-74 242,-55 444,-55 444,-74"/>
<text text-anchor="middle" x="343" y="-62" font-family="Helvetica,sans-Serif" font-size="10.00">rcvsdk/ios/rcvsdk/RcvMeetingBridgeInfo.h</text>
</a>
</g>
</g>
<!-- Node1&#45;&gt;Node4 -->
<g id="edge3" class="edge">
<title>Node1&#45;&gt;Node4</title>
<path fill="none" stroke="#63b8ff" d="M430.33,-105.06C409.08,-95.43 381.06,-82.74 362.55,-74.36"/>
<polygon fill="#63b8ff" stroke="#63b8ff" points="428.6,-108.57 439.15,-109.51 431.49,-102.19 428.6,-108.57"/>
</g>
<!-- Node5 -->
<g id="node5" class="node">
<title>Node5</title>
<g id="a_node5"><a xlink:href="_rcv_personal_meeting_settings_8h.html" target="_top" xlink:title=" ">
<polygon fill="white" stroke="#666666" points="694,-74 462,-74 462,-55 694,-55 694,-74"/>
<text text-anchor="middle" x="578" y="-62" font-family="Helvetica,sans-Serif" font-size="10.00">rcvsdk/ios/rcvsdk/RcvPersonalMeetingSettings.h</text>
</a>
</g>
</g>
<!-- Node1&#45;&gt;Node5 -->
<g id="edge5" class="edge">
<title>Node1&#45;&gt;Node5</title>
<path fill="none" stroke="#63b8ff" d="M489.92,-105.06C511.35,-95.43 539.62,-82.74 558.28,-74.36"/>
<polygon fill="#63b8ff" stroke="#63b8ff" points="488.71,-102.22 481.02,-109.51 491.57,-108.6 488.71,-102.22"/>
</g>
<!-- Node6 -->
<g id="node6" class="node">
<title>Node6</title>
<g id="a_node6"><a xlink:href="_rcv_schedule_meeting_settings_8h.html" target="_top" xlink:title=" ">
<polygon fill="white" stroke="#666666" points="946,-74 712,-74 712,-55 946,-55 946,-74"/>
<text text-anchor="middle" x="829" y="-62" font-family="Helvetica,sans-Serif" font-size="10.00">rcvsdk/ios/rcvsdk/RcvScheduleMeetingSettings.h</text>
</a>
</g>
</g>
<!-- Node1&#45;&gt;Node6 -->
<g id="edge7" class="edge">
<title>Node1&#45;&gt;Node6</title>
<path fill="none" stroke="#63b8ff" d="M533.25,-107.98C601.41,-98.19 701.9,-83.76 766.41,-74.49"/>
<polygon fill="#63b8ff" stroke="#63b8ff" points="533,-104.62 523.6,-109.51 533.99,-111.55 533,-104.62"/>
</g>
<!-- Node3 -->
<g id="node3" class="node">
<title>Node3</title>
<g id="a_node3"><a xlink:href="_rcv_s_d_k_8h.html" target="_top" xlink:title=" ">
<polygon fill="white" stroke="#666666" points="532,-19 388,-19 388,0 532,0 532,-19"/>
<text text-anchor="middle" x="460" y="-7" font-family="Helvetica,sans-Serif" font-size="10.00">rcvsdk/ios/rcvsdk/RcvSDK.h</text>
</a>
</g>
</g>
<!-- Node2&#45;&gt;Node3 -->
<g id="edge2" class="edge">
<title>Node2&#45;&gt;Node3</title>
<path fill="none" stroke="#63b8ff" d="M181.87,-52.86C246.14,-43.07 340.38,-28.72 400.97,-19.49"/>
<polygon fill="#63b8ff" stroke="#63b8ff" points="181.39,-49.54 172.03,-54.51 182.45,-56.46 181.39,-49.54"/>
</g>
<!-- Node4&#45;&gt;Node3 -->
<g id="edge4" class="edge">
<title>Node4&#45;&gt;Node3</title>
<path fill="none" stroke="#63b8ff" d="M372.67,-50.06C393.92,-40.43 421.94,-27.74 440.45,-19.36"/>
<polygon fill="#63b8ff" stroke="#63b8ff" points="371.51,-47.19 363.85,-54.51 374.4,-53.57 371.51,-47.19"/>
</g>
<!-- Node5&#45;&gt;Node3 -->
<g id="edge6" class="edge">
<title>Node5&#45;&gt;Node3</title>
<path fill="none" stroke="#63b8ff" d="M548.08,-50.06C526.65,-40.43 498.38,-27.74 479.72,-19.36"/>
<polygon fill="#63b8ff" stroke="#63b8ff" points="546.43,-53.6 556.98,-54.51 549.29,-47.22 546.43,-53.6"/>
</g>
<!-- Node6&#45;&gt;Node3 -->
<g id="edge8" class="edge">
<title>Node6&#45;&gt;Node3</title>
<path fill="none" stroke="#63b8ff" d="M755.75,-52.98C687.59,-43.19 587.1,-28.76 522.59,-19.49"/>
<polygon fill="#63b8ff" stroke="#63b8ff" points="755.01,-56.55 765.4,-54.51 756,-49.62 755.01,-56.55"/>
</g>
</g>
</svg>
