<?xml version="1.0" encoding="UTF-8" standalone="no"?>
<!DOCTYPE svg PUBLIC "-//W3C//DTD SVG 1.1//EN"
 "http://www.w3.org/Graphics/SVG/1.1/DTD/svg11.dtd">
<!-- Generated by graphviz version 8.1.0 (20230707.0739)
 -->
<!-- Title: rcvsdk/ios/rcvsdk/RcvIParticipant.h Pages: 1 -->
<svg width="676pt" height="138pt"
 viewBox="0.00 0.00 675.75 137.75" xmlns="http://www.w3.org/2000/svg" xmlns:xlink="http://www.w3.org/1999/xlink">
<g id="graph0" class="graph" transform="scale(1 1) rotate(0) translate(4 133.75)">
<title>rcvsdk/ios/rcvsdk/RcvIParticipant.h</title>
<!-- Node1 -->
<g id="Node000001" class="node">
<title>Node1</title>
<g id="a_Node000001"><a xlink:title=" ">
<polygon fill="#999999" stroke="#666666" points="364.75,-129.75 192.75,-129.75 192.75,-110.5 364.75,-110.5 364.75,-129.75"/>
<text text-anchor="middle" x="278.75" y="-116.25" font-family="Helvetica,sans-Serif" font-size="10.00">rcvsdk/ios/rcvsdk/RcvIParticipant.h</text>
</a>
</g>
</g>
<!-- Node2 -->
<g id="Node000002" class="node">
<title>Node2</title>
<g id="a_Node000002"><a xlink:href="_rcv_e_echo_leak_type_8h.html" target="_top" xlink:title=" ">
<polygon fill="white" stroke="#666666" points="113.5,-74.5 0,-74.5 0,-55.25 113.5,-55.25 113.5,-74.5"/>
<text text-anchor="middle" x="56.75" y="-61" font-family="Helvetica,sans-Serif" font-size="10.00">RcvEEchoLeakType.h</text>
</a>
</g>
</g>
<!-- Node1&#45;&gt;Node2 -->
<g id="edge1_Node000001_Node000002" class="edge">
<title>Node1&#45;&gt;Node2</title>
<g id="a_edge1_Node000001_Node000002"><a xlink:title=" ">
<path fill="none" stroke="#63b8ff" d="M240.84,-110.03C203.32,-101.03 145.76,-87.23 105,-77.45"/>
<polygon fill="#63b8ff" stroke="#63b8ff" points="106.05,-73.86 95.5,-74.93 104.41,-80.67 106.05,-73.86"/>
</a>
</g>
</g>
<!-- Node3 -->
<g id="Node000003" class="node">
<title>Node3</title>
<g id="a_Node000003"><a xlink:title=" ">
<polygon fill="#e0e0e0" stroke="#999999" points="340.38,-19.25 217.12,-19.25 217.12,0 340.38,0 340.38,-19.25"/>
<text text-anchor="middle" x="278.75" y="-5.75" font-family="Helvetica,sans-Serif" font-size="10.00">Foundation/Foundation.h</text>
</a>
</g>
</g>
<!-- Node1&#45;&gt;Node3 -->
<g id="edge11_Node000001_Node000003" class="edge">
<title>Node1&#45;&gt;Node3</title>
<g id="a_edge11_Node000001_Node000003"><a xlink:title=" ">
<path fill="none" stroke="#63b8ff" d="M215.81,-110.06C194.76,-103.7 173.45,-92.88 160.75,-74.5 142.65,-48.31 177.5,-31.88 213.92,-22.25"/>
<polygon fill="#63b8ff" stroke="#63b8ff" points="214.33,-25.51 223.2,-19.72 212.65,-18.72 214.33,-25.51"/>
</a>
</g>
</g>
<!-- Node4 -->
<g id="Node000004" class="node">
<title>Node4</title>
<g id="a_Node000004"><a xlink:href="_rcv_e_nqi_status_8h.html" target="_top" xlink:title=" ">
<polygon fill="white" stroke="#666666" points="262,-74.5 169.5,-74.5 169.5,-55.25 262,-55.25 262,-74.5"/>
<text text-anchor="middle" x="215.75" y="-61" font-family="Helvetica,sans-Serif" font-size="10.00">RcvENqiStatus.h</text>
</a>
</g>
</g>
<!-- Node1&#45;&gt;Node4 -->
<g id="edge3_Node000001_Node000004" class="edge">
<title>Node1&#45;&gt;Node4</title>
<g id="a_edge3_Node000001_Node000004"><a xlink:title=" ">
<path fill="none" stroke="#63b8ff" d="M268.06,-110.09C258.87,-102.32 245.39,-90.92 234.41,-81.65"/>
<polygon fill="#63b8ff" stroke="#63b8ff" points="237.18,-78.56 227.28,-74.77 232.66,-83.9 237.18,-78.56"/>
</a>
</g>
</g>
<!-- Node5 -->
<g id="Node000005" class="node">
<title>Node5</title>
<g id="a_Node000005"><a xlink:href="_rcv_e_participant_status_8h.html" target="_top" xlink:title=" ">
<polygon fill="white" stroke="#666666" points="403.75,-74.5 279.75,-74.5 279.75,-55.25 403.75,-55.25 403.75,-74.5"/>
<text text-anchor="middle" x="341.75" y="-61" font-family="Helvetica,sans-Serif" font-size="10.00">RcvEParticipantStatus.h</text>
</a>
</g>
</g>
<!-- Node1&#45;&gt;Node5 -->
<g id="edge5_Node000001_Node000005" class="edge">
<title>Node1&#45;&gt;Node5</title>
<g id="a_edge5_Node000001_Node000005"><a xlink:title=" ">
<path fill="none" stroke="#63b8ff" d="M289.44,-110.09C298.63,-102.32 312.11,-90.92 323.09,-81.65"/>
<polygon fill="#63b8ff" stroke="#63b8ff" points="324.84,-83.9 330.22,-74.77 320.32,-78.56 324.84,-83.9"/>
</a>
</g>
</g>
<!-- Node6 -->
<g id="Node000006" class="node">
<title>Node6</title>
<g id="a_Node000006"><a xlink:href="_rcv_e_reaction_action_8h.html" target="_top" xlink:title=" ">
<polygon fill="white" stroke="#666666" points="537.62,-74.5 421.88,-74.5 421.88,-55.25 537.62,-55.25 537.62,-74.5"/>
<text text-anchor="middle" x="479.75" y="-61" font-family="Helvetica,sans-Serif" font-size="10.00">RcvEReactionAction.h</text>
</a>
</g>
</g>
<!-- Node1&#45;&gt;Node6 -->
<g id="edge7_Node000001_Node000006" class="edge">
<title>Node1&#45;&gt;Node6</title>
<g id="a_edge7_Node000001_Node000006"><a xlink:title=" ">
<path fill="none" stroke="#63b8ff" d="M312.85,-110.09C346.49,-101.18 398.1,-87.51 435.01,-77.73"/>
<polygon fill="#63b8ff" stroke="#63b8ff" points="435.72,-80.9 444.49,-74.95 433.92,-74.13 435.72,-80.9"/>
</a>
</g>
</g>
<!-- Node7 -->
<g id="Node000007" class="node">
<title>Node7</title>
<g id="a_Node000007"><a xlink:href="_rcv_e_stream_activity_8h.html" target="_top" xlink:title=" ">
<polygon fill="white" stroke="#666666" points="667.75,-74.5 555.75,-74.5 555.75,-55.25 667.75,-55.25 667.75,-74.5"/>
<text text-anchor="middle" x="611.75" y="-61" font-family="Helvetica,sans-Serif" font-size="10.00">RcvEStreamActivity.h</text>
</a>
</g>
</g>
<!-- Node1&#45;&gt;Node7 -->
<g id="edge9_Node000001_Node000007" class="edge">
<title>Node1&#45;&gt;Node7</title>
<g id="a_edge9_Node000001_Node000007"><a xlink:title=" ">
<path fill="none" stroke="#63b8ff" d="M335.62,-110.03C393.53,-100.77 483.31,-86.41 544.66,-76.6"/>
<polygon fill="#63b8ff" stroke="#63b8ff" points="545.07,-79.92 554.4,-74.89 543.97,-73.01 545.07,-79.92"/>
</a>
</g>
</g>
<!-- Node2&#45;&gt;Node3 -->
<g id="edge2_Node000002_Node000003" class="edge">
<title>Node2&#45;&gt;Node3</title>
<g id="a_edge2_Node000002_Node000003"><a xlink:title=" ">
<path fill="none" stroke="#63b8ff" d="M94.66,-54.78C132.18,-45.78 189.74,-31.98 230.5,-22.2"/>
<polygon fill="#63b8ff" stroke="#63b8ff" points="231.09,-25.42 240,-19.68 229.45,-18.61 231.09,-25.42"/>
</a>
</g>
</g>
<!-- Node4&#45;&gt;Node3 -->
<g id="edge4_Node000004_Node000003" class="edge">
<title>Node4&#45;&gt;Node3</title>
<g id="a_edge4_Node000004_Node000003"><a xlink:title=" ">
<path fill="none" stroke="#63b8ff" d="M226.44,-54.84C235.63,-47.07 249.11,-35.67 260.09,-26.4"/>
<polygon fill="#63b8ff" stroke="#63b8ff" points="261.84,-28.65 267.22,-19.52 257.32,-23.31 261.84,-28.65"/>
</a>
</g>
</g>
<!-- Node5&#45;&gt;Node3 -->
<g id="edge6_Node000005_Node000003" class="edge">
<title>Node5&#45;&gt;Node3</title>
<g id="a_edge6_Node000005_Node000003"><a xlink:title=" ">
<path fill="none" stroke="#63b8ff" d="M331.06,-54.84C321.87,-47.07 308.39,-35.67 297.41,-26.4"/>
<polygon fill="#63b8ff" stroke="#63b8ff" points="300.18,-23.31 290.28,-19.52 295.66,-28.65 300.18,-23.31"/>
</a>
</g>
</g>
<!-- Node6&#45;&gt;Node3 -->
<g id="edge8_Node000006_Node000003" class="edge">
<title>Node6&#45;&gt;Node3</title>
<g id="a_edge8_Node000006_Node000003"><a xlink:title=" ">
<path fill="none" stroke="#63b8ff" d="M445.65,-54.84C412.01,-45.93 360.4,-32.26 323.49,-22.48"/>
<polygon fill="#63b8ff" stroke="#63b8ff" points="324.58,-18.88 314.01,-19.7 322.78,-25.65 324.58,-18.88"/>
</a>
</g>
</g>
<!-- Node7&#45;&gt;Node3 -->
<g id="edge10_Node000007_Node000003" class="edge">
<title>Node7&#45;&gt;Node3</title>
<g id="a_edge10_Node000007_Node000003"><a xlink:title=" ">
<path fill="none" stroke="#63b8ff" d="M555.26,-54.84C497.58,-45.62 408.02,-31.3 346.55,-21.47"/>
<polygon fill="#63b8ff" stroke="#63b8ff" points="347.22,-17.87 336.8,-19.75 346.12,-24.78 347.22,-17.87"/>
</a>
</g>
</g>
</g>
</svg>
