<?xml version="1.0" encoding="UTF-8" standalone="no"?>
<!DOCTYPE svg PUBLIC "-//W3C//DTD SVG 1.1//EN"
 "http://www.w3.org/Graphics/SVG/1.1/DTD/svg11.dtd">
<!-- Generated by graphviz version 8.0.4 (20230421.1958)
 -->
<!-- Title: rcvsdk/ios/rcvsdk/RcvPlayTonesMode.h Pages: 1 -->
<svg width="269pt" height="138pt"
 viewBox="0.00 0.00 268.75 137.75" xmlns="http://www.w3.org/2000/svg" xmlns:xlink="http://www.w3.org/1999/xlink">
<g id="graph0" class="graph" transform="scale(1 1) rotate(0) translate(4 133.75)">
<title>rcvsdk/ios/rcvsdk/RcvPlayTonesMode.h</title>
<!-- Node1 -->
<g id="node1" class="node">
<title>Node1</title>
<g id="a_node1"><a xlink:title=" ">
<polygon fill="#999999" stroke="#666666" points="260.75,-129.75 68.5,-129.75 68.5,-110.5 260.75,-110.5 260.75,-129.75"/>
<text text-anchor="middle" x="164.62" y="-116.25" font-family="Helvetica,sans-Serif" font-size="10.00">rcvsdk/ios/rcvsdk/RcvPlayTonesMode.h</text>
</a>
</g>
</g>
<!-- Node2 -->
<g id="node2" class="node">
<title>Node2</title>
<g id="a_node2"><a xlink:href="_rcv_meeting_bridge_info_8h.html" target="_top" xlink:title=" ">
<polygon fill="white" stroke="#666666" points="201.25,-74.5 0,-74.5 0,-55.25 201.25,-55.25 201.25,-74.5"/>
<text text-anchor="middle" x="100.62" y="-61" font-family="Helvetica,sans-Serif" font-size="10.00">rcvsdk/ios/rcvsdk/RcvMeetingBridgeInfo.h</text>
</a>
</g>
</g>
<!-- Node1&#45;&gt;Node2 -->
<g id="edge1" class="edge">
<title>Node1&#45;&gt;Node2</title>
<path fill="none" stroke="#63b8ff" d="M145.47,-103.19C134.3,-93.89 120.61,-82.51 111.32,-74.77"/>
<polygon fill="#63b8ff" stroke="#63b8ff" points="142.84,-106.39 152.77,-110.09 147.32,-101.01 142.84,-106.39"/>
</g>
<!-- Node3 -->
<g id="node3" class="node">
<title>Node3</title>
<g id="a_node3"><a xlink:href="_rcv_s_d_k_8h.html" target="_top" xlink:title=" ">
<polygon fill="white" stroke="#666666" points="236.38,-19.25 92.88,-19.25 92.88,0 236.38,0 236.38,-19.25"/>
<text text-anchor="middle" x="164.62" y="-5.75" font-family="Helvetica,sans-Serif" font-size="10.00">rcvsdk/ios/rcvsdk/RcvSDK.h</text>
</a>
</g>
</g>
<!-- Node1&#45;&gt;Node3 -->
<g id="edge3" class="edge">
<title>Node1&#45;&gt;Node3</title>
<path fill="none" stroke="#63b8ff" d="M187.27,-103.58C196.33,-95.98 205.76,-85.99 210.62,-74.5 219.84,-52.73 195.59,-31.21 178.9,-19.55"/>
<polygon fill="#63b8ff" stroke="#63b8ff" points="185.61,-101.21 179.85,-110.1 189.9,-106.74 185.61,-101.21"/>
</g>
<!-- Node2&#45;&gt;Node3 -->
<g id="edge2" class="edge">
<title>Node2&#45;&gt;Node3</title>
<path fill="none" stroke="#63b8ff" d="M119.78,-47.94C130.95,-38.64 144.64,-27.26 153.93,-19.52"/>
<polygon fill="#63b8ff" stroke="#63b8ff" points="117.93,-45.76 112.48,-54.84 122.41,-51.14 117.93,-45.76"/>
</g>
</g>
</svg>
