<?xml version="1.0" encoding="UTF-8" standalone="no"?>
<!DOCTYPE svg PUBLIC "-//W3C//DTD SVG 1.1//EN"
 "http://www.w3.org/Graphics/SVG/1.1/DTD/svg11.dtd">
<!-- Generated by graphviz version 8.0.4 (20230421.1958)
 -->
<!-- Title: rcvsdk/ios/rcvsdk/RcvEngineEventHandler.h Pages: 1 -->
<svg width="219pt" height="138pt"
 viewBox="0.00 0.00 219.00 137.75" xmlns="http://www.w3.org/2000/svg" xmlns:xlink="http://www.w3.org/1999/xlink">
<g id="graph0" class="graph" transform="scale(1 1) rotate(0) translate(4 133.75)">
<title>rcvsdk/ios/rcvsdk/RcvEngineEventHandler.h</title>
<!-- Node1 -->
<g id="node1" class="node">
<title>Node1</title>
<g id="a_node1"><a xlink:title=" ">
<polygon fill="#999999" stroke="#666666" points="211,-129.75 0,-129.75 0,-110.5 211,-110.5 211,-129.75"/>
<text text-anchor="middle" x="105.5" y="-116.25" font-family="Helvetica,sans-Serif" font-size="10.00">rcvsdk/ios/rcvsdk/RcvEngineEventHandler.h</text>
</a>
</g>
</g>
<!-- Node2 -->
<g id="node2" class="node">
<title>Node2</title>
<g id="a_node2"><a xlink:href="_rcv_leave_reason_8h.html" target="_top" xlink:title=" ">
<polygon fill="white" stroke="#666666" points="117.62,-74.5 15.38,-74.5 15.38,-55.25 117.62,-55.25 117.62,-74.5"/>
<text text-anchor="middle" x="66.5" y="-61" font-family="Helvetica,sans-Serif" font-size="10.00">RcvLeaveReason.h</text>
</a>
</g>
</g>
<!-- Node1&#45;&gt;Node2 -->
<g id="edge1" class="edge">
<title>Node1&#45;&gt;Node2</title>
<path fill="none" stroke="#63b8ff" d="M99.06,-110.33C93.73,-103.05 85.99,-92.48 79.39,-83.48"/>
<polygon fill="#63b8ff" stroke="#63b8ff" points="81.81,-81.86 73.08,-75.86 76.17,-85.99 81.81,-81.86"/>
</g>
<!-- Node3 -->
<g id="node3" class="node">
<title>Node3</title>
<g id="a_node3"><a xlink:title=" ">
<polygon fill="#e0e0e0" stroke="#999999" points="167.12,-19.25 43.88,-19.25 43.88,0 167.12,0 167.12,-19.25"/>
<text text-anchor="middle" x="105.5" y="-5.75" font-family="Helvetica,sans-Serif" font-size="10.00">Foundation/Foundation.h</text>
</a>
</g>
</g>
<!-- Node1&#45;&gt;Node3 -->
<g id="edge3" class="edge">
<title>Node1&#45;&gt;Node3</title>
<path fill="none" stroke="#63b8ff" d="M111.08,-110.32C116.24,-101.61 123.55,-87.7 126.5,-74.5 130,-58.84 123.68,-41.57 117.08,-28.94"/>
<polygon fill="#63b8ff" stroke="#63b8ff" points="119.71,-27.49 111.68,-20.57 113.64,-30.98 119.71,-27.49"/>
</g>
<!-- Node2&#45;&gt;Node3 -->
<g id="edge2" class="edge">
<title>Node2&#45;&gt;Node3</title>
<path fill="none" stroke="#63b8ff" d="M72.94,-55.08C78.27,-47.8 86.01,-37.23 92.61,-28.23"/>
<polygon fill="#63b8ff" stroke="#63b8ff" points="95.83,-30.74 98.92,-20.61 90.19,-26.61 95.83,-30.74"/>
</g>
</g>
</svg>
