<?xml version="1.0" encoding="UTF-8" standalone="no"?>
<!DOCTYPE svg PUBLIC "-//W3C//DTD SVG 1.1//EN"
 "http://www.w3.org/Graphics/SVG/1.1/DTD/svg11.dtd">
<!-- Generated by graphviz version 8.0.1 (20230327.1645)
 -->
<!-- Title: rcvsdk/ios/rcvsdk/RcvMeetingBridgeInfo.h Pages: 1 -->
<svg width="695pt" height="137pt"
 viewBox="0.00 0.00 694.50 137.00" xmlns="http://www.w3.org/2000/svg" xmlns:xlink="http://www.w3.org/1999/xlink">
<g id="graph0" class="graph" transform="scale(1 1) rotate(0) translate(4 133)">
<title>rcvsdk/ios/rcvsdk/RcvMeetingBridgeInfo.h</title>
<!-- Node1 -->
<g id="node1" class="node">
<title>Node1</title>
<g id="a_node1"><a xlink:title=" ">
<polygon fill="#999999" stroke="#666666" points="377,-129 175,-129 175,-110 377,-110 377,-129"/>
<text text-anchor="middle" x="276" y="-117" font-family="Helvetica,sans-Serif" font-size="10.00">rcvsdk/ios/rcvsdk/RcvMeetingBridgeInfo.h</text>
</a>
</g>
</g>
<!-- Node2 -->
<g id="node2" class="node">
<title>Node2</title>
<g id="a_node2"><a xlink:href="_rcv_meeting_type_8h.html" target="_top" xlink:title=" ">
<polygon fill="white" stroke="#666666" points="98,-74 0,-74 0,-55 98,-55 98,-74"/>
<text text-anchor="middle" x="49" y="-62" font-family="Helvetica,sans-Serif" font-size="10.00">RcvMeetingType.h</text>
</a>
</g>
</g>
<!-- Node1&#45;&gt;Node2 -->
<g id="edge1" class="edge">
<title>Node1&#45;&gt;Node2</title>
<path fill="none" stroke="#63b8ff" d="M237.49,-109.51C198.98,-100.52 139.61,-86.65 97.81,-76.9"/>
<polygon fill="#63b8ff" stroke="#63b8ff" points="98.85,-73.31 88.32,-74.45 97.26,-80.13 98.85,-73.31"/>
</g>
<!-- Node3 -->
<g id="node3" class="node">
<title>Node3</title>
<g id="a_node3"><a xlink:title=" ">
<polygon fill="#e0e0e0" stroke="#999999" points="338,-19 214,-19 214,0 338,0 338,-19"/>
<text text-anchor="middle" x="276" y="-7" font-family="Helvetica,sans-Serif" font-size="10.00">Foundation/Foundation.h</text>
</a>
</g>
</g>
<!-- Node1&#45;&gt;Node3 -->
<g id="edge11" class="edge">
<title>Node1&#45;&gt;Node3</title>
<path fill="none" stroke="#63b8ff" d="M200.47,-109.54C179.08,-103.11 158.08,-92.26 145,-74 125.07,-46.18 162.87,-30.03 202.9,-20.98"/>
<polygon fill="#63b8ff" stroke="#63b8ff" points="203.59,-24.2 212.65,-18.72 202.15,-17.35 203.59,-24.2"/>
</g>
<!-- Node4 -->
<g id="node4" class="node">
<title>Node4</title>
<g id="a_node4"><a xlink:href="_rcv_play_tones_mode_8h.html" target="_top" xlink:title=" ">
<polygon fill="white" stroke="#666666" points="267.5,-74 154.5,-74 154.5,-55 267.5,-55 267.5,-74"/>
<text text-anchor="middle" x="211" y="-62" font-family="Helvetica,sans-Serif" font-size="10.00">RcvPlayTonesMode.h</text>
</a>
</g>
</g>
<!-- Node1&#45;&gt;Node4 -->
<g id="edge3" class="edge">
<title>Node1&#45;&gt;Node4</title>
<path fill="none" stroke="#63b8ff" d="M264.97,-109.51C255.49,-101.77 241.58,-90.43 230.25,-81.2"/>
<polygon fill="#63b8ff" stroke="#63b8ff" points="232.83,-77.96 222.86,-74.36 228.4,-83.39 232.83,-77.96"/>
</g>
<!-- Node5 -->
<g id="node5" class="node">
<title>Node5</title>
<g id="a_node5"><a xlink:href="_rcv_recording_mode_8h.html" target="_top" xlink:title=" ">
<polygon fill="white" stroke="#666666" points="396.5,-74 285.5,-74 285.5,-55 396.5,-55 396.5,-74"/>
<text text-anchor="middle" x="341" y="-62" font-family="Helvetica,sans-Serif" font-size="10.00">RcvRecordingMode.h</text>
</a>
</g>
</g>
<!-- Node1&#45;&gt;Node5 -->
<g id="edge5" class="edge">
<title>Node1&#45;&gt;Node5</title>
<path fill="none" stroke="#63b8ff" d="M287.03,-109.51C296.51,-101.77 310.42,-90.43 321.75,-81.2"/>
<polygon fill="#63b8ff" stroke="#63b8ff" points="323.6,-83.39 329.14,-74.36 319.17,-77.96 323.6,-83.39"/>
</g>
<!-- Node6 -->
<g id="node6" class="node">
<title>Node6</title>
<g id="a_node6"><a xlink:href="_rcv_transcriptions_mode_8h.html" target="_top" xlink:title=" ">
<polygon fill="white" stroke="#666666" points="543,-74 415,-74 415,-55 543,-55 543,-74"/>
<text text-anchor="middle" x="479" y="-62" font-family="Helvetica,sans-Serif" font-size="10.00">RcvTranscriptionsMode.h</text>
</a>
</g>
</g>
<!-- Node1&#45;&gt;Node6 -->
<g id="edge7" class="edge">
<title>Node1&#45;&gt;Node6</title>
<path fill="none" stroke="#63b8ff" d="M310.44,-109.51C344.51,-100.61 396.85,-86.95 434.16,-77.21"/>
<polygon fill="#63b8ff" stroke="#63b8ff" points="434.94,-80.36 443.73,-74.45 433.17,-73.59 434.94,-80.36"/>
</g>
<!-- Node7 -->
<g id="node7" class="node">
<title>Node7</title>
<g id="a_node7"><a xlink:href="_rcv_waiting_room_mode_8h.html" target="_top" xlink:title=" ">
<polygon fill="white" stroke="#666666" points="686.5,-74 561.5,-74 561.5,-55 686.5,-55 686.5,-74"/>
<text text-anchor="middle" x="624" y="-62" font-family="Helvetica,sans-Serif" font-size="10.00">RcvWaitingRoomMode.h</text>
</a>
</g>
</g>
<!-- Node1&#45;&gt;Node7 -->
<g id="edge9" class="edge">
<title>Node1&#45;&gt;Node7</title>
<path fill="none" stroke="#63b8ff" d="M335.03,-109.51C395.62,-100.28 489.86,-85.93 554.13,-76.14"/>
<polygon fill="#63b8ff" stroke="#63b8ff" points="554.61,-79.46 563.97,-74.49 553.56,-72.54 554.61,-79.46"/>
</g>
<!-- Node2&#45;&gt;Node3 -->
<g id="edge2" class="edge">
<title>Node2&#45;&gt;Node3</title>
<path fill="none" stroke="#63b8ff" d="M87.51,-54.51C126.02,-45.52 185.39,-31.65 227.19,-21.9"/>
<polygon fill="#63b8ff" stroke="#63b8ff" points="227.74,-25.13 236.68,-19.45 226.15,-18.31 227.74,-25.13"/>
</g>
<!-- Node4&#45;&gt;Node3 -->
<g id="edge4" class="edge">
<title>Node4&#45;&gt;Node3</title>
<path fill="none" stroke="#63b8ff" d="M222.03,-54.51C231.51,-46.77 245.42,-35.43 256.75,-26.2"/>
<polygon fill="#63b8ff" stroke="#63b8ff" points="258.6,-28.39 264.14,-19.36 254.17,-22.96 258.6,-28.39"/>
</g>
<!-- Node5&#45;&gt;Node3 -->
<g id="edge6" class="edge">
<title>Node5&#45;&gt;Node3</title>
<path fill="none" stroke="#63b8ff" d="M329.97,-54.51C320.49,-46.77 306.58,-35.43 295.25,-26.2"/>
<polygon fill="#63b8ff" stroke="#63b8ff" points="297.83,-22.96 287.86,-19.36 293.4,-28.39 297.83,-22.96"/>
</g>
<!-- Node6&#45;&gt;Node3 -->
<g id="edge8" class="edge">
<title>Node6&#45;&gt;Node3</title>
<path fill="none" stroke="#63b8ff" d="M444.56,-54.51C410.49,-45.61 358.15,-31.95 320.84,-22.21"/>
<polygon fill="#63b8ff" stroke="#63b8ff" points="321.83,-18.59 311.27,-19.45 320.06,-25.36 321.83,-18.59"/>
</g>
<!-- Node7&#45;&gt;Node3 -->
<g id="edge10" class="edge">
<title>Node7&#45;&gt;Node3</title>
<path fill="none" stroke="#63b8ff" d="M564.97,-54.51C504.38,-45.28 410.14,-30.93 345.87,-21.14"/>
<polygon fill="#63b8ff" stroke="#63b8ff" points="346.44,-17.54 336.03,-19.49 345.39,-24.46 346.44,-17.54"/>
</g>
</g>
</svg>
