<?xml version="1.0" encoding="UTF-8" standalone="no"?>
<!DOCTYPE svg PUBLIC "-//W3C//DTD SVG 1.1//EN"
 "http://www.w3.org/Graphics/SVG/1.1/DTD/svg11.dtd">
<!-- Generated by graphviz version 7.1.0 (20230121.1956)
 -->
<!-- Title: rcvsdk/ios/rcvsdk/RcvPersonalMeetingSettings.h Pages: 1 -->
<svg width="336pt" height="137pt"
 viewBox="0.00 0.00 335.50 137.00" xmlns="http://www.w3.org/2000/svg" xmlns:xlink="http://www.w3.org/1999/xlink">
<g id="graph0" class="graph" transform="scale(1 1) rotate(0) translate(4 133)">
<title>rcvsdk/ios/rcvsdk/RcvPersonalMeetingSettings.h</title>
<!-- Node1 -->
<g id="node1" class="node">
<title>Node1</title>
<g id="a_node1"><a xlink:title=" ">
<polygon fill="#999999" stroke="#666666" points="290,-129 58,-129 58,-110 290,-110 290,-129"/>
<text text-anchor="middle" x="174" y="-117" font-family="Helvetica,sans-Serif" font-size="10.00">rcvsdk/ios/rcvsdk/RcvPersonalMeetingSettings.h</text>
</a>
</g>
</g>
<!-- Node2 -->
<g id="node2" class="node">
<title>Node2</title>
<g id="a_node2"><a xlink:href="_rcv_only_auth_user_join_mode_8h.html" target="_top" xlink:title=" ">
<polygon fill="white" stroke="#666666" points="146,-74 0,-74 0,-55 146,-55 146,-74"/>
<text text-anchor="middle" x="73" y="-62" font-family="Helvetica,sans-Serif" font-size="10.00">RcvOnlyAuthUserJoinMode.h</text>
</a>
</g>
</g>
<!-- Node1&#45;&gt;Node2 -->
<g id="edge1" class="edge">
<title>Node1&#45;&gt;Node2</title>
<path fill="none" stroke="#63b8ff" d="M156.87,-109.51C141.25,-101.31 117.92,-89.07 99.83,-79.58"/>
<polygon fill="#63b8ff" stroke="#63b8ff" points="101.7,-76.61 91.22,-75.06 98.45,-82.81 101.7,-76.61"/>
</g>
<!-- Node3 -->
<g id="node3" class="node">
<title>Node3</title>
<g id="a_node3"><a xlink:title=" ">
<polygon fill="#e0e0e0" stroke="#999999" points="236,-19 112,-19 112,0 236,0 236,-19"/>
<text text-anchor="middle" x="174" y="-7" font-family="Helvetica,sans-Serif" font-size="10.00">Foundation/Foundation.h</text>
</a>
</g>
</g>
<!-- Node1&#45;&gt;Node3 -->
<g id="edge5" class="edge">
<title>Node1&#45;&gt;Node3</title>
<path fill="none" stroke="#63b8ff" d="M174,-109.66C174,-92.57 174,-54.61 174,-30.92"/>
<polygon fill="#63b8ff" stroke="#63b8ff" points="177.5,-30.97 174,-20.97 170.5,-30.97 177.5,-30.97"/>
</g>
<!-- Node4 -->
<g id="node4" class="node">
<title>Node4</title>
<g id="a_node4"><a xlink:href="_rcv_waiting_room_mode_8h.html" target="_top" xlink:title=" ">
<polygon fill="white" stroke="#666666" points="327.5,-74 202.5,-74 202.5,-55 327.5,-55 327.5,-74"/>
<text text-anchor="middle" x="265" y="-62" font-family="Helvetica,sans-Serif" font-size="10.00">RcvWaitingRoomMode.h</text>
</a>
</g>
</g>
<!-- Node1&#45;&gt;Node4 -->
<g id="edge3" class="edge">
<title>Node1&#45;&gt;Node4</title>
<path fill="none" stroke="#63b8ff" d="M189.44,-109.51C203.25,-101.47 223.75,-89.53 239.91,-80.11"/>
<polygon fill="#63b8ff" stroke="#63b8ff" points="241.6,-83.18 248.48,-75.12 238.08,-77.13 241.6,-83.18"/>
</g>
<!-- Node2&#45;&gt;Node3 -->
<g id="edge2" class="edge">
<title>Node2&#45;&gt;Node3</title>
<path fill="none" stroke="#63b8ff" d="M90.13,-54.51C105.75,-46.31 129.08,-34.07 147.17,-24.58"/>
<polygon fill="#63b8ff" stroke="#63b8ff" points="148.55,-27.81 155.78,-20.06 145.3,-21.61 148.55,-27.81"/>
</g>
<!-- Node4&#45;&gt;Node3 -->
<g id="edge4" class="edge">
<title>Node4&#45;&gt;Node3</title>
<path fill="none" stroke="#63b8ff" d="M249.56,-54.51C235.75,-46.47 215.25,-34.53 199.09,-25.11"/>
<polygon fill="#63b8ff" stroke="#63b8ff" points="200.92,-22.13 190.52,-20.12 197.4,-28.18 200.92,-22.13"/>
</g>
</g>
</svg>
