<?xml version="1.0" encoding="UTF-8" standalone="no"?>
<!DOCTYPE svg PUBLIC "-//W3C//DTD SVG 1.1//EN"
 "http://www.w3.org/Graphics/SVG/1.1/DTD/svg11.dtd">
<!-- Generated by graphviz version 8.0.1 (20230327.1645)
 -->
<!-- Title: rcvsdk/ios/rcvsdk/RcvMeetingState.h Pages: 1 -->
<svg width="480pt" height="137pt"
 viewBox="0.00 0.00 479.50 137.00" xmlns="http://www.w3.org/2000/svg" xmlns:xlink="http://www.w3.org/1999/xlink">
<g id="graph0" class="graph" transform="scale(1 1) rotate(0) translate(4 133)">
<title>rcvsdk/ios/rcvsdk/RcvMeetingState.h</title>
<!-- Node1 -->
<g id="node1" class="node">
<title>Node1</title>
<g id="a_node1"><a xlink:title=" ">
<polygon fill="#999999" stroke="#666666" points="318,-129 137,-129 137,-110 318,-110 318,-129"/>
<text text-anchor="middle" x="227.5" y="-117" font-family="Helvetica,sans-Serif" font-size="10.00">rcvsdk/ios/rcvsdk/RcvMeetingState.h</text>
</a>
</g>
</g>
<!-- Node2 -->
<g id="node2" class="node">
<title>Node2</title>
<g id="a_node2"><a xlink:href="_rcv_meeting_controller_8h.html" target="_top" xlink:title=" ">
<polygon fill="white" stroke="#666666" points="199,-74 0,-74 0,-55 199,-55 199,-74"/>
<text text-anchor="middle" x="99.5" y="-62" font-family="Helvetica,sans-Serif" font-size="10.00">rcvsdk/ios/rcvsdk/RcvMeetingController.h</text>
</a>
</g>
</g>
<!-- Node1&#45;&gt;Node2 -->
<g id="edge1" class="edge">
<title>Node1&#45;&gt;Node2</title>
<path fill="none" stroke="#63b8ff" d="M195.68,-105.32C172.35,-95.67 141.32,-82.82 120.89,-74.36"/>
<polygon fill="#63b8ff" stroke="#63b8ff" points="194.21,-108.92 204.79,-109.51 196.89,-102.45 194.21,-108.92"/>
</g>
<!-- Node3 -->
<g id="node3" class="node">
<title>Node3</title>
<g id="a_node3"><a xlink:href="_rcv_s_d_k_8h.html" target="_top" xlink:title=" ">
<polygon fill="white" stroke="#666666" points="299.5,-19 155.5,-19 155.5,0 299.5,0 299.5,-19"/>
<text text-anchor="middle" x="227.5" y="-7" font-family="Helvetica,sans-Serif" font-size="10.00">rcvsdk/ios/rcvsdk/RcvSDK.h</text>
</a>
</g>
</g>
<!-- Node1&#45;&gt;Node3 -->
<g id="edge5" class="edge">
<title>Node1&#45;&gt;Node3</title>
<path fill="none" stroke="#63b8ff" d="M227.5,-98.9C227.5,-75.33 227.5,-36.81 227.5,-19.46"/>
<polygon fill="#63b8ff" stroke="#63b8ff" points="224,-98.66 227.5,-108.66 231,-98.66 224,-98.66"/>
</g>
<!-- Node4 -->
<g id="node4" class="node">
<title>Node4</title>
<g id="a_node4"><a xlink:href="_rcv_meeting_event_handler_8h.html" target="_top" xlink:title=" ">
<polygon fill="white" stroke="#666666" points="471.5,-74 255.5,-74 255.5,-55 471.5,-55 471.5,-74"/>
<text text-anchor="middle" x="363.5" y="-62" font-family="Helvetica,sans-Serif" font-size="10.00">rcvsdk/ios/rcvsdk/RcvMeetingEventHandler.h</text>
</a>
</g>
</g>
<!-- Node1&#45;&gt;Node4 -->
<g id="edge3" class="edge">
<title>Node1&#45;&gt;Node4</title>
<path fill="none" stroke="#63b8ff" d="M260.64,-105.58C285.5,-95.9 318.87,-82.89 340.77,-74.36"/>
<polygon fill="#63b8ff" stroke="#63b8ff" points="259.62,-102.62 251.57,-109.51 262.16,-109.14 259.62,-102.62"/>
</g>
<!-- Node2&#45;&gt;Node3 -->
<g id="edge2" class="edge">
<title>Node2&#45;&gt;Node3</title>
<path fill="none" stroke="#63b8ff" d="M131.32,-50.32C154.65,-40.67 185.68,-27.82 206.11,-19.36"/>
<polygon fill="#63b8ff" stroke="#63b8ff" points="130.11,-47.45 122.21,-54.51 132.79,-53.92 130.11,-47.45"/>
</g>
<!-- Node4&#45;&gt;Node3 -->
<g id="edge4" class="edge">
<title>Node4&#45;&gt;Node3</title>
<path fill="none" stroke="#63b8ff" d="M330.36,-50.58C305.5,-40.9 272.13,-27.89 250.23,-19.36"/>
<polygon fill="#63b8ff" stroke="#63b8ff" points="328.84,-54.14 339.43,-54.51 331.38,-47.62 328.84,-54.14"/>
</g>
</g>
</svg>
