<?xml version="1.0" encoding="UTF-8" standalone="no"?>
<!DOCTYPE svg PUBLIC "-//W3C//DTD SVG 1.1//EN"
 "http://www.w3.org/Graphics/SVG/1.1/DTD/svg11.dtd">
<!-- Generated by graphviz version 8.0.4 (20230421.1958)
 -->
<!-- Title: rcvsdk/ios/rcvsdk/RcvMeetingEventHandler.h Pages: 1 -->
<!--zoomable 138 -->
<svg id="main" version="1.1" xmlns="http://www.w3.org/2000/svg" xmlns:xlink="http://www.w3.org/1999/xlink" xml:space="preserve" onload="init(evt)">
<style type="text/css"><![CDATA[
.edge:hover path { stroke: red; }
.edge:hover polygon { stroke: red; fill: red; }
]]></style>
<script type="text/javascript"><![CDATA[
var edges = document.getElementsByTagName('g');
if (edges && edges.length) {
  for (var i=0;i<edges.length;i++) {
    if (edges[i].id.substr(0,4)=='edge') {
      edges[i].setAttribute('class','edge');
    }
  }
}
]]></script>
        <defs>
                <circle id="rim" cx="0" cy="0" r="7"/>
                <circle id="rim2" cx="0" cy="0" r="3.5"/>
                <g id="zoomPlus">
                        <use xlink:href="#rim" fill="#404040">
                                <set attributeName="fill" to="#808080" begin="zoomplus.mouseover" end="zoomplus.mouseout"/>
                        </use>
                        <path d="M-4,0h8M0,-4v8" fill="none" stroke="white" stroke-width="1.5" pointer-events="none"/>
                </g>
                <g id="zoomMin">
                        <use xlink:href="#rim" fill="#404040">
                                <set attributeName="fill" to="#808080" begin="zoomminus.mouseover" end="zoomminus.mouseout"/>
                        </use>
                        <path d="M-4,0h8" fill="none" stroke="white" stroke-width="1.5" pointer-events="none"/>
                </g>
                <g id="dirArrow">
                        <path fill="none" stroke="white" stroke-width="1.5" d="M0,-3.0v7 M-2.5,-0.5L0,-3.0L2.5,-0.5"/>
                </g>
               <g id="resetDef">
                       <use xlink:href="#rim2" fill="#404040">
                               <set attributeName="fill" to="#808080" begin="reset.mouseover" end="reset.mouseout"/>
                       </use>
               </g>
        </defs>

<script type="text/javascript">
var viewWidth = 1173;
var viewHeight = 138;
var sectionId = 'dynsection-0';
</script>
<script xlink:href="svgpan.js"/>
<svg id="graph" class="graph">
<g id="viewport">
<title>rcvsdk/ios/rcvsdk/RcvMeetingEventHandler.h</title>
<!-- Node1 -->
<g id="node1" class="node">
<title>Node1</title>
<g id="a_node1"><a xlink:title=" ">
<polygon fill="#999999" stroke="#666666" points="653.38,-129.75 437.88,-129.75 437.88,-110.5 653.38,-110.5 653.38,-129.75"/>
<text text-anchor="middle" x="545.62" y="-116.25" font-family="Helvetica,sans-Serif" font-size="10.00">rcvsdk/ios/rcvsdk/RcvMeetingEventHandler.h</text>
</a>
</g>
</g>
<!-- Node2 -->
<g id="node2" class="node">
<title>Node2</title>
<g id="a_node2"><a xlink:href="_rcv_closed_captions_state_8h.html" target="_top" xlink:title=" ">
<polygon fill="white" stroke="#666666" points="135.25,-74.5 0,-74.5 0,-55.25 135.25,-55.25 135.25,-74.5"/>
<text text-anchor="middle" x="67.62" y="-61" font-family="Helvetica,sans-Serif" font-size="10.00">RcvClosedCaptionsState.h</text>
</a>
</g>
</g>
<!-- Node1&#45;&gt;Node2 -->
<g id="edge1" class="edge">
<title>Node1&#45;&gt;Node2</title>
<path fill="none" stroke="#63b8ff" d="M463.73,-110C374.86,-100.1 233.96,-84.41 146.36,-74.65"/>
<polygon fill="#63b8ff" stroke="#63b8ff" points="147,-71.09 136.68,-73.46 146.23,-78.04 147,-71.09"/>
</g>
<!-- Node3 -->
<g id="node3" class="node">
<title>Node3</title>
<g id="a_node3"><a xlink:title=" ">
<polygon fill="#e0e0e0" stroke="#999999" points="607.25,-19.25 484,-19.25 484,0 607.25,0 607.25,-19.25"/>
<text text-anchor="middle" x="545.62" y="-5.75" font-family="Helvetica,sans-Serif" font-size="10.00">Foundation/Foundation.h</text>
</a>
</g>
</g>
<!-- Node1&#45;&gt;Node3 -->
<g id="edge15" class="edge">
<title>Node1&#45;&gt;Node3</title>
<path fill="none" stroke="#63b8ff" d="M437.4,-113C336.61,-106.16 199.43,-93.49 182.62,-74.5 142.9,-29.59 355.85,-16.2 472.84,-12.25"/>
<polygon fill="#63b8ff" stroke="#63b8ff" points="472.62,-15.73 482.5,-11.91 472.4,-8.73 472.62,-15.73"/>
</g>
<!-- Node4 -->
<g id="node4" class="node">
<title>Node4</title>
<g id="a_node4"><a xlink:href="_rcv_end_to_end_encryption_state_8h.html" target="_top" xlink:title=" ">
<polygon fill="white" stroke="#666666" points="349.12,-74.5 192.12,-74.5 192.12,-55.25 349.12,-55.25 349.12,-74.5"/>
<text text-anchor="middle" x="270.62" y="-61" font-family="Helvetica,sans-Serif" font-size="10.00">RcvEndToEndEncryptionState.h</text>
</a>
</g>
</g>
<!-- Node1&#45;&gt;Node4 -->
<g id="edge3" class="edge">
<title>Node1&#45;&gt;Node4</title>
<path fill="none" stroke="#63b8ff" d="M498.66,-110.03C451.5,-100.9 378.75,-86.81 328.15,-77.01"/>
<polygon fill="#63b8ff" stroke="#63b8ff" points="328.88,-73.4 318.39,-74.93 327.55,-80.27 328.88,-73.4"/>
</g>
<!-- Node5 -->
<g id="node5" class="node">
<title>Node5</title>
<g id="a_node5"><a xlink:href="_rcv_live_transcription_data_type_8h.html" target="_top" xlink:title=" ">
<polygon fill="white" stroke="#666666" points="525.88,-74.5 367.38,-74.5 367.38,-55.25 525.88,-55.25 525.88,-74.5"/>
<text text-anchor="middle" x="446.62" y="-61" font-family="Helvetica,sans-Serif" font-size="10.00">RcvLiveTranscriptionDataType.h</text>
</a>
</g>
</g>
<!-- Node1&#45;&gt;Node5 -->
<g id="edge5" class="edge">
<title>Node1&#45;&gt;Node5</title>
<path fill="none" stroke="#63b8ff" d="M528.83,-110.09C513.47,-101.83 490.51,-89.48 472.75,-79.93"/>
<polygon fill="#63b8ff" stroke="#63b8ff" points="474.97,-76.61 464.5,-74.95 471.65,-82.77 474.97,-76.61"/>
</g>
<!-- Node6 -->
<g id="node6" class="node">
<title>Node6</title>
<g id="a_node6"><a xlink:href="_rcv_live_transcription_update_history_type_8h.html" target="_top" xlink:title=" ">
<polygon fill="white" stroke="#666666" points="744.88,-74.5 544.38,-74.5 544.38,-55.25 744.88,-55.25 744.88,-74.5"/>
<text text-anchor="middle" x="644.62" y="-61" font-family="Helvetica,sans-Serif" font-size="10.00">RcvLiveTranscriptionUpdateHistoryType.h</text>
</a>
</g>
</g>
<!-- Node1&#45;&gt;Node6 -->
<g id="edge7" class="edge">
<title>Node1&#45;&gt;Node6</title>
<path fill="none" stroke="#63b8ff" d="M562.42,-110.09C577.78,-101.83 600.74,-89.48 618.5,-79.93"/>
<polygon fill="#63b8ff" stroke="#63b8ff" points="619.6,-82.77 626.75,-74.95 616.28,-76.61 619.6,-82.77"/>
</g>
<!-- Node7 -->
<g id="node7" class="node">
<title>Node7</title>
<g id="a_node7"><a xlink:href="_rcv_meeting_api_execute_result_8h.html" target="_top" xlink:title=" ">
<polygon fill="white" stroke="#666666" points="918.38,-74.5 762.88,-74.5 762.88,-55.25 918.38,-55.25 918.38,-74.5"/>
<text text-anchor="middle" x="840.62" y="-61" font-family="Helvetica,sans-Serif" font-size="10.00">RcvMeetingApiExecuteResult.h</text>
</a>
</g>
</g>
<!-- Node1&#45;&gt;Node7 -->
<g id="edge9" class="edge">
<title>Node1&#45;&gt;Node7</title>
<path fill="none" stroke="#63b8ff" d="M596,-110.03C646.91,-100.84 725.61,-86.64 779.93,-76.83"/>
<polygon fill="#63b8ff" stroke="#63b8ff" points="780.24,-80.15 789.46,-74.93 778.99,-73.26 780.24,-80.15"/>
</g>
<!-- Node8 -->
<g id="node8" class="node">
<title>Node8</title>
<g id="a_node8"><a xlink:href="_rcv_meeting_state_8h.html" target="_top" xlink:title=" ">
<polygon fill="white" stroke="#666666" points="1036.62,-74.5 936.62,-74.5 936.62,-55.25 1036.62,-55.25 1036.62,-74.5"/>
<text text-anchor="middle" x="986.62" y="-61" font-family="Helvetica,sans-Serif" font-size="10.00">RcvMeetingState.h</text>
</a>
</g>
</g>
<!-- Node1&#45;&gt;Node8 -->
<g id="edge11" class="edge">
<title>Node1&#45;&gt;Node8</title>
<path fill="none" stroke="#63b8ff" d="M629.55,-110.03C704.51,-101.74 817.6,-88.83 925.65,-74.73"/>
<polygon fill="#63b8ff" stroke="#63b8ff" points="925.97,-78.08 935.43,-73.31 925.06,-71.14 925.97,-78.08"/>
</g>
<!-- Node9 -->
<g id="node9" class="node">
<title>Node9</title>
<g id="a_node9"><a xlink:href="_rcv_recording_state_8h.html" target="_top" xlink:title=" ">
<polygon fill="white" stroke="#666666" points="1164.5,-74.5 1054.75,-74.5 1054.75,-55.25 1164.5,-55.25 1164.5,-74.5"/>
<text text-anchor="middle" x="1109.62" y="-61" font-family="Helvetica,sans-Serif" font-size="10.00">RcvRecordingState.h</text>
</a>
</g>
</g>
<!-- Node1&#45;&gt;Node9 -->
<g id="edge13" class="edge">
<title>Node1&#45;&gt;Node9</title>
<path fill="none" stroke="#63b8ff" d="M653.54,-110.9C752.43,-103.04 903.15,-90.25 1043.94,-74.64"/>
<polygon fill="#63b8ff" stroke="#63b8ff" points="1043.94,-78.05 1053.49,-73.47 1043.16,-71.1 1043.94,-78.05"/>
</g>
<!-- Node2&#45;&gt;Node3 -->
<g id="edge2" class="edge">
<title>Node2&#45;&gt;Node3</title>
<path fill="none" stroke="#63b8ff" d="M135.6,-56.3C224.89,-46.36 381.06,-28.96 472.73,-18.75"/>
<polygon fill="#63b8ff" stroke="#63b8ff" points="473.03,-22.12 482.58,-17.54 472.25,-15.17 473.03,-22.12"/>
</g>
<!-- Node4&#45;&gt;Node3 -->
<g id="edge4" class="edge">
<title>Node4&#45;&gt;Node3</title>
<path fill="none" stroke="#63b8ff" d="M317.59,-54.78C364.75,-45.65 437.5,-31.56 488.1,-21.76"/>
<polygon fill="#63b8ff" stroke="#63b8ff" points="488.7,-25.02 497.86,-19.68 487.37,-18.15 488.7,-25.02"/>
</g>
<!-- Node5&#45;&gt;Node3 -->
<g id="edge6" class="edge">
<title>Node5&#45;&gt;Node3</title>
<path fill="none" stroke="#63b8ff" d="M463.42,-54.84C478.78,-46.58 501.74,-34.23 519.5,-24.68"/>
<polygon fill="#63b8ff" stroke="#63b8ff" points="520.6,-27.52 527.75,-19.7 517.28,-21.36 520.6,-27.52"/>
</g>
<!-- Node6&#45;&gt;Node3 -->
<g id="edge8" class="edge">
<title>Node6&#45;&gt;Node3</title>
<path fill="none" stroke="#63b8ff" d="M627.83,-54.84C612.47,-46.58 589.51,-34.23 571.75,-24.68"/>
<polygon fill="#63b8ff" stroke="#63b8ff" points="573.97,-21.36 563.5,-19.7 570.65,-27.52 573.97,-21.36"/>
</g>
<!-- Node7&#45;&gt;Node3 -->
<g id="edge10" class="edge">
<title>Node7&#45;&gt;Node3</title>
<path fill="none" stroke="#63b8ff" d="M790.25,-54.78C739.34,-45.59 660.64,-31.39 606.32,-21.58"/>
<polygon fill="#63b8ff" stroke="#63b8ff" points="607.26,-18.01 596.79,-19.68 606.01,-24.9 607.26,-18.01"/>
</g>
<!-- Node8&#45;&gt;Node3 -->
<g id="edge12" class="edge">
<title>Node8&#45;&gt;Node3</title>
<path fill="none" stroke="#63b8ff" d="M936.43,-56.44C933.45,-56.03 930.5,-55.63 927.62,-55.25 819.98,-41.1 694.97,-26.92 618.08,-18.46"/>
<polygon fill="#63b8ff" stroke="#63b8ff" points="618.88,-14.92 608.56,-17.3 618.11,-21.87 618.88,-14.92"/>
</g>
<!-- Node9&#45;&gt;Node3 -->
<g id="edge14" class="edge">
<title>Node9&#45;&gt;Node3</title>
<path fill="none" stroke="#63b8ff" d="M1054.49,-56.28C1051.49,-55.92 1048.52,-55.57 1045.62,-55.25 894.05,-38.28 716.05,-23.66 618.59,-16.1"/>
<polygon fill="#63b8ff" stroke="#63b8ff" points="618.92,-12.54 608.68,-15.26 618.39,-19.52 618.92,-12.54"/>
</g>
</g>
</svg>
        <g id="navigator" transform="translate(0 0)" fill="#404254">
                <rect fill="#f2f5e9" fill-opacity="0.5" stroke="#606060" stroke-width=".5" x="0" y="0" width="60" height="60"/>
                <use id="zoomplus" xlink:href="#zoomPlus" x="17" y="9" onmousedown="handleZoom(evt,'in')"/>
                <use id="zoomminus" xlink:href="#zoomMin" x="42" y="9" onmousedown="handleZoom(evt,'out')"/>
                <use id="reset" xlink:href="#resetDef" x="30" y="36" onmousedown="handleReset()"/>
                <g id="arrowUp" xlink:href="#dirArrow" transform="translate(30 24)" onmousedown="handlePan(0,-1)">
                  <use xlink:href="#rim" fill="#404040">
                        <set attributeName="fill" to="#808080" begin="arrowUp.mouseover" end="arrowUp.mouseout"/>
                  </use>
                  <path fill="none" stroke="white" stroke-width="1.5" d="M0,-3.0v7 M-2.5,-0.5L0,-3.0L2.5,-0.5"/>
                </g>
                <g id="arrowRight" xlink:href="#dirArrow" transform="rotate(90) translate(36 -43)" onmousedown="handlePan(1,0)">
                  <use xlink:href="#rim" fill="#404040">
                        <set attributeName="fill" to="#808080" begin="arrowRight.mouseover" end="arrowRight.mouseout"/>
                  </use>
                  <path fill="none" stroke="white" stroke-width="1.5" d="M0,-3.0v7 M-2.5,-0.5L0,-3.0L2.5,-0.5"/>
                </g>
                <g id="arrowDown" xlink:href="#dirArrow" transform="rotate(180) translate(-30 -48)" onmousedown="handlePan(0,1)">
                  <use xlink:href="#rim" fill="#404040">
                        <set attributeName="fill" to="#808080" begin="arrowDown.mouseover" end="arrowDown.mouseout"/>
                  </use>
                  <path fill="none" stroke="white" stroke-width="1.5" d="M0,-3.0v7 M-2.5,-0.5L0,-3.0L2.5,-0.5"/>
                </g>
                <g id="arrowLeft" xlink:href="#dirArrow" transform="rotate(270) translate(-36 17)" onmousedown="handlePan(-1,0)">
                  <use xlink:href="#rim" fill="#404040">
                        <set attributeName="fill" to="#808080" begin="arrowLeft.mouseover" end="arrowLeft.mouseout"/>
                  </use>
                  <path fill="none" stroke="white" stroke-width="1.5" d="M0,-3.0v7 M-2.5,-0.5L0,-3.0L2.5,-0.5"/>
                </g>
        </g>
        <svg viewBox="0 0 15 15" width="100%" height="30px" preserveAspectRatio="xMaxYMin meet">
         <g id="arrow_out" transform="scale(0.3 0.3)">
          <a xlink:href="_rcv_meeting_event_handler_8h__incl_org.svg" target="_base">
           <rect id="button" ry="5" rx="5" y="6" x="6" height="38" width="38"
                fill="#f2f5e9" fill-opacity="0.5" stroke="#606060" stroke-width="1.0"/>
           <path id="arrow"
             d="M 11.500037,31.436501 C 11.940474,20.09759 22.043105,11.32322 32.158766,21.979434 L 37.068811,17.246167 C 37.068811,17.246167 37.088388,32 37.088388,32 L 22.160133,31.978069 C 22.160133,31.978069 26.997745,27.140456 26.997745,27.140456 C 18.528582,18.264221 13.291696,25.230495 11.500037,31.436501 z"
             style="fill:#404040;"/>
          </a>
         </g>
        </svg>
</svg>
