<?xml version="1.0" encoding="UTF-8" standalone="no"?>
<!DOCTYPE svg PUBLIC "-//W3C//DTD SVG 1.1//EN"
 "http://www.w3.org/Graphics/SVG/1.1/DTD/svg11.dtd">
<!-- Generated by graphviz version 8.0.5 (20230430.1635)
 -->
<!-- Title: rcvsdk/ios/rcvsdk/RcvEEchoLeakType.h Pages: 1 -->
<svg width="242pt" height="193pt"
 viewBox="0.00 0.00 242.12 193.00" xmlns="http://www.w3.org/2000/svg" xmlns:xlink="http://www.w3.org/1999/xlink">
<g id="graph0" class="graph" transform="scale(1 1) rotate(0) translate(4 189)">
<title>rcvsdk/ios/rcvsdk/RcvEEchoLeakType.h</title>
<!-- Node1 -->
<g id="Node000001" class="node">
<title>Node1</title>
<g id="a_Node000001"><a xlink:title=" ">
<polygon fill="#999999" stroke="#666666" points="234.12,-185 40.38,-185 40.38,-165.75 234.12,-165.75 234.12,-185"/>
<text text-anchor="middle" x="137.25" y="-171.5" font-family="Helvetica,sans-Serif" font-size="10.00">rcvsdk/ios/rcvsdk/RcvEEchoLeakType.h</text>
</a>
</g>
</g>
<!-- Node2 -->
<g id="Node000002" class="node">
<title>Node2</title>
<g id="a_Node000002"><a xlink:href="_rcv_i_participant_8h.html" target="_top" xlink:title=" ">
<polygon fill="white" stroke="#666666" points="223.25,-129.75 51.25,-129.75 51.25,-110.5 223.25,-110.5 223.25,-129.75"/>
<text text-anchor="middle" x="137.25" y="-116.25" font-family="Helvetica,sans-Serif" font-size="10.00">rcvsdk/ios/rcvsdk/RcvIParticipant.h</text>
</a>
</g>
</g>
<!-- Node1&#45;&gt;Node2 -->
<g id="edge1_Node000001_Node000002" class="edge">
<title>Node1&#45;&gt;Node2</title>
<g id="a_edge1_Node000001_Node000002"><a xlink:title=" ">
<path fill="none" stroke="#63b8ff" d="M137.25,-154.71C137.25,-146.27 137.25,-136.83 137.25,-130.11"/>
<polygon fill="#63b8ff" stroke="#63b8ff" points="133.75,-154.58 137.25,-164.58 140.75,-154.58 133.75,-154.58"/>
</a>
</g>
</g>
<!-- Node3 -->
<g id="Node000003" class="node">
<title>Node3</title>
<g id="a_Node000003"><a xlink:href="_r_c_video_view_8h.html" target="_top" xlink:title=" ">
<polygon fill="white" stroke="#666666" points="164.5,-74.5 0,-74.5 0,-55.25 164.5,-55.25 164.5,-74.5"/>
<text text-anchor="middle" x="82.25" y="-61" font-family="Helvetica,sans-Serif" font-size="10.00">rcvsdk/ios/rcvsdk/RCVideoView.h</text>
</a>
</g>
</g>
<!-- Node2&#45;&gt;Node3 -->
<g id="edge2_Node000002_Node000003" class="edge">
<title>Node2&#45;&gt;Node3</title>
<g id="a_edge2_Node000002_Node000003"><a xlink:title=" ">
<path fill="none" stroke="#63b8ff" d="M120.48,-102.88C110.97,-93.68 99.43,-82.5 91.53,-74.86"/>
<polygon fill="#63b8ff" stroke="#63b8ff" points="117.55,-104.89 127.17,-109.33 122.42,-99.86 117.55,-104.89"/>
</a>
</g>
</g>
<!-- Node4 -->
<g id="Node000004" class="node">
<title>Node4</title>
<g id="a_Node000004"><a xlink:href="_rcv_s_d_k_8h.html" target="_top" xlink:title=" ">
<polygon fill="white" stroke="#666666" points="209,-19.25 65.5,-19.25 65.5,0 209,0 209,-19.25"/>
<text text-anchor="middle" x="137.25" y="-5.75" font-family="Helvetica,sans-Serif" font-size="10.00">rcvsdk/ios/rcvsdk/RcvSDK.h</text>
</a>
</g>
</g>
<!-- Node2&#45;&gt;Node4 -->
<g id="edge4_Node000002_Node000004" class="edge">
<title>Node2&#45;&gt;Node4</title>
<g id="a_edge4_Node000002_Node000004"><a xlink:title=" ">
<path fill="none" stroke="#63b8ff" d="M155.16,-102.55C162.23,-94.8 169.55,-84.98 173.25,-74.5 180.62,-53.61 161.34,-31.61 148.23,-19.66"/>
<polygon fill="#63b8ff" stroke="#63b8ff" points="153.27,-99.49 148.75,-109.08 158.26,-104.4 153.27,-99.49"/>
</a>
</g>
</g>
<!-- Node3&#45;&gt;Node4 -->
<g id="edge3_Node000003_Node000004" class="edge">
<title>Node3&#45;&gt;Node4</title>
<g id="a_edge3_Node000003_Node000004"><a xlink:title=" ">
<path fill="none" stroke="#63b8ff" d="M99.02,-47.63C108.53,-38.43 120.07,-27.25 127.97,-19.61"/>
<polygon fill="#63b8ff" stroke="#63b8ff" points="97.08,-44.61 92.33,-54.08 101.95,-49.64 97.08,-44.61"/>
</a>
</g>
</g>
</g>
</svg>
