<?xml version="1.0" encoding="UTF-8" standalone="no"?>
<!DOCTYPE svg PUBLIC "-//W3C//DTD SVG 1.1//EN"
 "http://www.w3.org/Graphics/SVG/1.1/DTD/svg11.dtd">
<!-- Generated by graphviz version 8.0.4 (20230421.1958)
 -->
<!-- Title: rcvsdk/ios/rcvsdk/RcvEngineEventHandler.h Pages: 1 -->
<svg width="242pt" height="138pt"
 viewBox="0.00 0.00 241.75 137.75" xmlns="http://www.w3.org/2000/svg" xmlns:xlink="http://www.w3.org/1999/xlink">
<g id="graph0" class="graph" transform="scale(1 1) rotate(0) translate(4 133.75)">
<title>rcvsdk/ios/rcvsdk/RcvEngineEventHandler.h</title>
<!-- Node1 -->
<g id="node1" class="node">
<title>Node1</title>
<g id="a_node1"><a xlink:title=" ">
<polygon fill="#999999" stroke="#666666" points="233.75,-129.75 22.75,-129.75 22.75,-110.5 233.75,-110.5 233.75,-129.75"/>
<text text-anchor="middle" x="128.25" y="-116.25" font-family="Helvetica,sans-Serif" font-size="10.00">rcvsdk/ios/rcvsdk/RcvEngineEventHandler.h</text>
</a>
</g>
</g>
<!-- Node2 -->
<g id="node2" class="node">
<title>Node2</title>
<g id="a_node2"><a xlink:href="_rcv_engine_8h.html" target="_top" xlink:title=" ">
<polygon fill="white" stroke="#666666" points="152.5,-74.5 0,-74.5 0,-55.25 152.5,-55.25 152.5,-74.5"/>
<text text-anchor="middle" x="76.25" y="-61" font-family="Helvetica,sans-Serif" font-size="10.00">rcvsdk/ios/rcvsdk/RcvEngine.h</text>
</a>
</g>
</g>
<!-- Node1&#45;&gt;Node2 -->
<g id="edge1" class="edge">
<title>Node1&#45;&gt;Node2</title>
<path fill="none" stroke="#63b8ff" d="M112.12,-102.6C103.18,-93.45 92.41,-82.43 85.02,-74.86"/>
<polygon fill="#63b8ff" stroke="#63b8ff" points="109.17,-104.62 118.66,-109.33 114.18,-99.73 109.17,-104.62"/>
</g>
<!-- Node3 -->
<g id="node3" class="node">
<title>Node3</title>
<g id="a_node3"><a xlink:href="_rcv_s_d_k_8h.html" target="_top" xlink:title=" ">
<polygon fill="white" stroke="#666666" points="200,-19.25 56.5,-19.25 56.5,0 200,0 200,-19.25"/>
<text text-anchor="middle" x="128.25" y="-5.75" font-family="Helvetica,sans-Serif" font-size="10.00">rcvsdk/ios/rcvsdk/RcvSDK.h</text>
</a>
</g>
</g>
<!-- Node1&#45;&gt;Node3 -->
<g id="edge3" class="edge">
<title>Node1&#45;&gt;Node3</title>
<path fill="none" stroke="#63b8ff" d="M144.85,-102.1C151.29,-94.34 157.91,-84.63 161.25,-74.5 168.05,-53.87 150.36,-31.78 138.33,-19.74"/>
<polygon fill="#63b8ff" stroke="#63b8ff" points="142.64,-99.44 138.58,-109.23 147.86,-104.11 142.64,-99.44"/>
</g>
<!-- Node2&#45;&gt;Node3 -->
<g id="edge2" class="edge">
<title>Node2&#45;&gt;Node3</title>
<path fill="none" stroke="#63b8ff" d="M92.38,-47.35C101.32,-38.2 112.09,-27.18 119.48,-19.61"/>
<polygon fill="#63b8ff" stroke="#63b8ff" points="90.32,-44.48 85.84,-54.08 95.33,-49.37 90.32,-44.48"/>
</g>
</g>
</svg>
