<?xml version="1.0" encoding="UTF-8" standalone="no"?>
<!DOCTYPE svg PUBLIC "-//W3C//DTD SVG 1.1//EN"
 "http://www.w3.org/Graphics/SVG/1.1/DTD/svg11.dtd">
<!-- Generated by graphviz version 8.0.1 (20230327.1645)
 -->
<!-- Title: rcvsdk/ios/rcvsdk/RcvNqiState.h Pages: 1 -->
<svg width="280pt" height="137pt"
 viewBox="0.00 0.00 280.00 137.00" xmlns="http://www.w3.org/2000/svg" xmlns:xlink="http://www.w3.org/1999/xlink">
<g id="graph0" class="graph" transform="scale(1 1) rotate(0) translate(4 133)">
<title>rcvsdk/ios/rcvsdk/RcvNqiState.h</title>
<!-- Node1 -->
<g id="node1" class="node">
<title>Node1</title>
<g id="a_node1"><a xlink:title=" ">
<polygon fill="#999999" stroke="#666666" points="272,-129 111,-129 111,-110 272,-110 272,-129"/>
<text text-anchor="middle" x="191.5" y="-117" font-family="Helvetica,sans-Serif" font-size="10.00">rcvsdk/ios/rcvsdk/RcvNqiState.h</text>
</a>
</g>
</g>
<!-- Node2 -->
<g id="node2" class="node">
<title>Node2</title>
<g id="a_node2"><a xlink:href="_rcv_meeting_user_event_handler_8h.html" target="_top" xlink:title=" ">
<polygon fill="white" stroke="#666666" points="237,-74 0,-74 0,-55 237,-55 237,-74"/>
<text text-anchor="middle" x="118.5" y="-62" font-family="Helvetica,sans-Serif" font-size="10.00">rcvsdk/ios/rcvsdk/RcvMeetingUserEventHandler.h</text>
</a>
</g>
</g>
<!-- Node1&#45;&gt;Node2 -->
<g id="edge1" class="edge">
<title>Node1&#45;&gt;Node2</title>
<path fill="none" stroke="#63b8ff" d="M170.41,-103.19C157.53,-93.84 141.51,-82.21 130.7,-74.36"/>
<polygon fill="#63b8ff" stroke="#63b8ff" points="167.97,-106.47 178.12,-109.51 172.08,-100.8 167.97,-106.47"/>
</g>
<!-- Node3 -->
<g id="node3" class="node">
<title>Node3</title>
<g id="a_node3"><a xlink:href="_rcv_s_d_k_8h.html" target="_top" xlink:title=" ">
<polygon fill="white" stroke="#666666" points="263.5,-19 119.5,-19 119.5,0 263.5,0 263.5,-19"/>
<text text-anchor="middle" x="191.5" y="-7" font-family="Helvetica,sans-Serif" font-size="10.00">rcvsdk/ios/rcvsdk/RcvSDK.h</text>
</a>
</g>
</g>
<!-- Node1&#45;&gt;Node3 -->
<g id="edge3" class="edge">
<title>Node1&#45;&gt;Node3</title>
<path fill="none" stroke="#63b8ff" d="M218.69,-103.76C229.43,-96.37 240.61,-86.35 246.5,-74 257.24,-51.49 229.09,-30.72 209.22,-19.41"/>
<polygon fill="#63b8ff" stroke="#63b8ff" points="217.08,-101.27 210.5,-109.57 220.82,-107.18 217.08,-101.27"/>
</g>
<!-- Node2&#45;&gt;Node3 -->
<g id="edge2" class="edge">
<title>Node2&#45;&gt;Node3</title>
<path fill="none" stroke="#63b8ff" d="M139.59,-48.19C152.47,-38.84 168.49,-27.21 179.3,-19.36"/>
<polygon fill="#63b8ff" stroke="#63b8ff" points="137.92,-45.8 131.88,-54.51 142.03,-51.47 137.92,-45.8"/>
</g>
</g>
</svg>
