<?xml version="1.0" encoding="UTF-8" standalone="no"?>
<!DOCTYPE svg PUBLIC "-//W3C//DTD SVG 1.1//EN"
 "http://www.w3.org/Graphics/SVG/1.1/DTD/svg11.dtd">
<!-- Generated by graphviz version 8.0.5 (20230430.1635)
 -->
<!-- Title: rcvsdk/ios/rcvsdk/RcvSharingEventHandler.h Pages: 1 -->
<svg width="388pt" height="138pt"
 viewBox="0.00 0.00 387.75 137.75" xmlns="http://www.w3.org/2000/svg" xmlns:xlink="http://www.w3.org/1999/xlink">

<svg id="main" version="1.1" xmlns="http://www.w3.org/2000/svg" xmlns:xlink="http://www.w3.org/1999/xlink" xml:space="preserve" onload="init(evt)">
<style type="text/css"><![CDATA[
.node, .edge {opacity: 0.7;}
.node.selected, .edge.selected {opacity: 1;}
.edge:hover path { stroke: red; }
.edge:hover polygon { stroke: red; fill: red; }
]]></style>
<script type="application/ecmascript" xlink:href="svg.min.js"/>
<svg id="graph" class="graph">
<g id="graph0" class="graph" transform="scale(1 1) rotate(0) translate(4 133.75)">
<title>rcvsdk/ios/rcvsdk/RcvSharingEventHandler.h</title>
<!-- Node1 -->
<g id="Node000001" class="node">
<title>Node1</title>
<g id="a_Node000001"><a xlink:title=" ">
<polygon fill="#999999" stroke="#666666" points="284.62,-129.75 70.62,-129.75 70.62,-110.5 284.62,-110.5 284.62,-129.75"/>
<text text-anchor="middle" x="177.62" y="-116.25" font-family="Helvetica,sans-Serif" font-size="10.00">rcvsdk/ios/rcvsdk/RcvSharingEventHandler.h</text>
</a>
</g>
</g>
<!-- Node2 -->
<g id="Node000002" class="node">
<title>Node2</title>
<g id="a_Node000002"><a xlink:href="_rcv_sharing_settings_8h.html" target="_top" xlink:title=" ">
<polygon fill="white" stroke="#666666" points="111.25,-74.5 0,-74.5 0,-55.25 111.25,-55.25 111.25,-74.5"/>
<text text-anchor="middle" x="55.62" y="-61" font-family="Helvetica,sans-Serif" font-size="10.00">RcvSharingSettings.h</text>
</a>
</g>
</g>
<!-- Node1&#45;&gt;Node2 -->
<g id="edge1_Node000001_Node000002" class="edge">
<title>Node1&#45;&gt;Node2</title>
<g id="a_edge1_Node000001_Node000002"><a xlink:title=" ">
<path fill="none" stroke="#63b8ff" d="M156.93,-110.09C137.56,-101.64 108.38,-88.9 86.31,-79.27"/>
<polygon fill="#63b8ff" stroke="#63b8ff" points="87.99,-75.75 77.42,-74.95 85.19,-82.16 87.99,-75.75"/>
</a>
</g>
</g>
<!-- Node3 -->
<g id="Node000003" class="node">
<title>Node3</title>
<g id="a_Node000003"><a xlink:title=" ">
<polygon fill="#e0e0e0" stroke="#999999" points="239.25,-19.25 116,-19.25 116,0 239.25,0 239.25,-19.25"/>
<text text-anchor="middle" x="177.62" y="-5.75" font-family="Helvetica,sans-Serif" font-size="10.00">Foundation/Foundation.h</text>
</a>
</g>
</g>
<!-- Node1&#45;&gt;Node3 -->
<g id="edge7_Node000001_Node000003" class="edge">
<title>Node1&#45;&gt;Node3</title>
<g id="a_edge7_Node000001_Node000003"><a xlink:title=" ">
<path fill="none" stroke="#63b8ff" d="M172.03,-110.16C165.06,-97.91 154.55,-75.2 158.62,-55.25 160.43,-46.39 164.07,-37.11 167.68,-29.32"/>
<polygon fill="#63b8ff" stroke="#63b8ff" points="171.24,-31.02 172.57,-20.51 164.98,-27.89 171.24,-31.02"/>
</a>
</g>
</g>
<!-- Node4 -->
<g id="Node000004" class="node">
<title>Node4</title>
<g id="a_Node000004"><a xlink:href="_rcv_sharing_state_8h.html" target="_top" xlink:title=" ">
<polygon fill="white" stroke="#666666" points="265.88,-74.5 167.38,-74.5 167.38,-55.25 265.88,-55.25 265.88,-74.5"/>
<text text-anchor="middle" x="216.62" y="-61" font-family="Helvetica,sans-Serif" font-size="10.00">RcvSharingState.h</text>
</a>
</g>
</g>
<!-- Node1&#45;&gt;Node4 -->
<g id="edge3_Node000001_Node000004" class="edge">
<title>Node1&#45;&gt;Node4</title>
<g id="a_edge3_Node000001_Node000004"><a xlink:title=" ">
<path fill="none" stroke="#63b8ff" d="M184.07,-110.33C189.4,-103.05 197.14,-92.48 203.73,-83.48"/>
<polygon fill="#63b8ff" stroke="#63b8ff" points="206.96,-85.99 210.05,-75.86 201.31,-81.86 206.96,-85.99"/>
</a>
</g>
</g>
<!-- Node5 -->
<g id="Node000005" class="node">
<title>Node5</title>
<g id="a_Node000005"><a xlink:href="_rcv_sharing_type_8h.html" target="_top" xlink:title=" ">
<polygon fill="white" stroke="#666666" points="379.75,-74.5 283.5,-74.5 283.5,-55.25 379.75,-55.25 379.75,-74.5"/>
<text text-anchor="middle" x="331.62" y="-61" font-family="Helvetica,sans-Serif" font-size="10.00">RcvSharingType.h</text>
</a>
</g>
</g>
<!-- Node1&#45;&gt;Node5 -->
<g id="edge5_Node000001_Node000005" class="edge">
<title>Node1&#45;&gt;Node5</title>
<g id="a_edge5_Node000001_Node000005"><a xlink:title=" ">
<path fill="none" stroke="#63b8ff" d="M203.75,-110.09C228.86,-101.41 267.04,-88.21 295.14,-78.49"/>
<polygon fill="#63b8ff" stroke="#63b8ff" points="296.07,-81.53 304.37,-74.95 293.78,-74.91 296.07,-81.53"/>
</a>
</g>
</g>
<!-- Node2&#45;&gt;Node3 -->
<g id="edge2_Node000002_Node000003" class="edge">
<title>Node2&#45;&gt;Node3</title>
<g id="a_edge2_Node000002_Node000003"><a xlink:title=" ">
<path fill="none" stroke="#63b8ff" d="M76.32,-54.84C95.69,-46.39 124.87,-33.65 146.94,-24.02"/>
<polygon fill="#63b8ff" stroke="#63b8ff" points="148.06,-26.91 155.83,-19.7 145.26,-20.5 148.06,-26.91"/>
</a>
</g>
</g>
<!-- Node4&#45;&gt;Node3 -->
<g id="edge4_Node000004_Node000003" class="edge">
<title>Node4&#45;&gt;Node3</title>
<g id="a_edge4_Node000004_Node000003"><a xlink:title=" ">
<path fill="none" stroke="#63b8ff" d="M210.18,-55.08C204.85,-47.8 197.11,-37.23 190.52,-28.23"/>
<polygon fill="#63b8ff" stroke="#63b8ff" points="192.94,-26.61 184.2,-20.61 187.29,-30.74 192.94,-26.61"/>
</a>
</g>
</g>
<!-- Node5&#45;&gt;Node3 -->
<g id="edge6_Node000005_Node000003" class="edge">
<title>Node5&#45;&gt;Node3</title>
<g id="a_edge6_Node000005_Node000003"><a xlink:title=" ">
<path fill="none" stroke="#63b8ff" d="M305.5,-54.84C280.39,-46.16 242.21,-32.96 214.11,-23.24"/>
<polygon fill="#63b8ff" stroke="#63b8ff" points="215.47,-19.66 204.88,-19.7 213.18,-26.28 215.47,-19.66"/>
</a>
</g>
</g>
</g>
</svg>
</svg>

<style type='text/css'>
<![CDATA[
[data-mouse-over-selected='false'] { opacity: 0.7; }
[data-mouse-over-selected='true']  { opacity: 1.0; }
]]>
</style>
<script type="application/ecmascript"><![CDATA[
document.addEventListener('DOMContentLoaded', (event) => {
  highlightEdges();
  highlightAdjacentNodes();
});
]]></script>
</svg>
