<?xml version="1.0" encoding="UTF-8" standalone="no"?>
<!DOCTYPE svg PUBLIC "-//W3C//DTD SVG 1.1//EN"
 "http://www.w3.org/Graphics/SVG/1.1/DTD/svg11.dtd">
<!-- Generated by graphviz version 8.1.0 (20230707.0739)
 -->
<!-- Title: rcvsdk/ios/rcvsdk/RcvAudioEventHandler.h Pages: 1 -->
<svg width="452pt" height="138pt"
 viewBox="0.00 0.00 451.62 137.75" xmlns="http://www.w3.org/2000/svg" xmlns:xlink="http://www.w3.org/1999/xlink">
<g id="graph0" class="graph" transform="scale(1 1) rotate(0) translate(4 133.75)">
<title>rcvsdk/ios/rcvsdk/RcvAudioEventHandler.h</title>
<!-- Node1 -->
<g id="Node000001" class="node">
<title>Node1</title>
<g id="a_Node000001"><a xlink:title=" ">
<polygon fill="#999999" stroke="#666666" points="286,-129.75 80.25,-129.75 80.25,-110.5 286,-110.5 286,-129.75"/>
<text text-anchor="middle" x="183.12" y="-116.25" font-family="Helvetica,sans-Serif" font-size="10.00">rcvsdk/ios/rcvsdk/RcvAudioEventHandler.h</text>
</a>
</g>
</g>
<!-- Node2 -->
<g id="Node000002" class="node">
<title>Node2</title>
<g id="a_Node000002"><a xlink:href="_rcv_audio_route_type_8h.html" target="_top" xlink:title=" ">
<polygon fill="white" stroke="#666666" points="114.25,-74.5 0,-74.5 0,-55.25 114.25,-55.25 114.25,-74.5"/>
<text text-anchor="middle" x="57.12" y="-61" font-family="Helvetica,sans-Serif" font-size="10.00">RcvAudioRouteType.h</text>
</a>
</g>
</g>
<!-- Node1&#45;&gt;Node2 -->
<g id="edge1_Node000001_Node000002" class="edge">
<title>Node1&#45;&gt;Node2</title>
<g id="a_edge1_Node000001_Node000002"><a xlink:title=" ">
<path fill="none" stroke="#63b8ff" d="M161.75,-110.09C141.66,-101.6 111.34,-88.79 88.51,-79.14"/>
<polygon fill="#63b8ff" stroke="#63b8ff" points="90.18,-75.62 79.6,-74.95 87.45,-82.07 90.18,-75.62"/>
</a>
</g>
</g>
<!-- Node3 -->
<g id="Node000003" class="node">
<title>Node3</title>
<g id="a_Node000003"><a xlink:title=" ">
<polygon fill="#e0e0e0" stroke="#999999" points="244.75,-19.25 121.5,-19.25 121.5,0 244.75,0 244.75,-19.25"/>
<text text-anchor="middle" x="183.12" y="-5.75" font-family="Helvetica,sans-Serif" font-size="10.00">Foundation/Foundation.h</text>
</a>
</g>
</g>
<!-- Node1&#45;&gt;Node3 -->
<g id="edge7_Node000001_Node000003" class="edge">
<title>Node1&#45;&gt;Node3</title>
<g id="a_edge7_Node000001_Node000003"><a xlink:title=" ">
<path fill="none" stroke="#63b8ff" d="M177.08,-110.02C171.68,-101.32 164.18,-87.62 161.12,-74.5 157.46,-58.79 164.08,-41.53 170.99,-28.92"/>
<polygon fill="#63b8ff" stroke="#63b8ff" points="174.48,-30.92 176.65,-20.55 168.48,-27.3 174.48,-30.92"/>
</a>
</g>
</g>
<!-- Node4 -->
<g id="Node000004" class="node">
<title>Node4</title>
<g id="a_Node000004"><a xlink:href="_rcv_local_audio_error_8h.html" target="_top" xlink:title=" ">
<polygon fill="white" stroke="#666666" points="280.38,-74.5 169.88,-74.5 169.88,-55.25 280.38,-55.25 280.38,-74.5"/>
<text text-anchor="middle" x="225.12" y="-61" font-family="Helvetica,sans-Serif" font-size="10.00">RcvLocalAudioError.h</text>
</a>
</g>
</g>
<!-- Node1&#45;&gt;Node4 -->
<g id="edge3_Node000001_Node000004" class="edge">
<title>Node1&#45;&gt;Node4</title>
<g id="a_edge3_Node000001_Node000004"><a xlink:title=" ">
<path fill="none" stroke="#63b8ff" d="M190.06,-110.33C195.8,-103.05 204.14,-92.48 211.24,-83.48"/>
<polygon fill="#63b8ff" stroke="#63b8ff" points="214.59,-85.88 218.04,-75.86 209.1,-81.54 214.59,-85.88"/>
</a>
</g>
</g>
<!-- Node5 -->
<g id="Node000005" class="node">
<title>Node5</title>
<g id="a_Node000005"><a xlink:href="_rcv_local_audio_stream_state_8h.html" target="_top" xlink:title=" ">
<polygon fill="white" stroke="#666666" points="443.62,-74.5 298.62,-74.5 298.62,-55.25 443.62,-55.25 443.62,-74.5"/>
<text text-anchor="middle" x="371.12" y="-61" font-family="Helvetica,sans-Serif" font-size="10.00">RcvLocalAudioStreamState.h</text>
</a>
</g>
</g>
<!-- Node1&#45;&gt;Node5 -->
<g id="edge5_Node000001_Node000005" class="edge">
<title>Node1&#45;&gt;Node5</title>
<g id="a_edge5_Node000001_Node000005"><a xlink:title=" ">
<path fill="none" stroke="#63b8ff" d="M215.02,-110.09C246.35,-101.22 294.34,-87.62 328.84,-77.85"/>
<polygon fill="#63b8ff" stroke="#63b8ff" points="329.41,-81.05 338.08,-74.95 327.5,-74.31 329.41,-81.05"/>
</a>
</g>
</g>
<!-- Node2&#45;&gt;Node3 -->
<g id="edge2_Node000002_Node000003" class="edge">
<title>Node2&#45;&gt;Node3</title>
<g id="a_edge2_Node000002_Node000003"><a xlink:title=" ">
<path fill="none" stroke="#63b8ff" d="M78.5,-54.84C98.59,-46.35 128.91,-33.54 151.74,-23.89"/>
<polygon fill="#63b8ff" stroke="#63b8ff" points="152.8,-26.82 160.65,-19.7 150.07,-20.37 152.8,-26.82"/>
</a>
</g>
</g>
<!-- Node4&#45;&gt;Node3 -->
<g id="edge4_Node000004_Node000003" class="edge">
<title>Node4&#45;&gt;Node3</title>
<g id="a_edge4_Node000004_Node000003"><a xlink:title=" ">
<path fill="none" stroke="#63b8ff" d="M218.19,-55.08C212.45,-47.8 204.11,-37.23 197.01,-28.23"/>
<polygon fill="#63b8ff" stroke="#63b8ff" points="199.15,-26.29 190.21,-20.61 193.66,-30.63 199.15,-26.29"/>
</a>
</g>
</g>
<!-- Node5&#45;&gt;Node3 -->
<g id="edge6_Node000005_Node000003" class="edge">
<title>Node5&#45;&gt;Node3</title>
<g id="a_edge6_Node000005_Node000003"><a xlink:title=" ">
<path fill="none" stroke="#63b8ff" d="M339.23,-54.84C307.9,-45.97 259.91,-32.37 225.41,-22.6"/>
<polygon fill="#63b8ff" stroke="#63b8ff" points="226.75,-19.06 216.17,-19.7 224.84,-25.8 226.75,-19.06"/>
</a>
</g>
</g>
</g>
</svg>
