<?xml version="1.0" encoding="UTF-8" standalone="no"?>
<!DOCTYPE svg PUBLIC "-//W3C//DTD SVG 1.1//EN"
 "http://www.w3.org/Graphics/SVG/1.1/DTD/svg11.dtd">
<!-- Generated by graphviz version 8.0.4 (20230421.1958)
 -->
<!-- Title: rcvsdk/ios/rcvsdk/RcvLocalAudioStreamState.h Pages: 1 -->
<svg width="458pt" height="138pt"
 viewBox="0.00 0.00 458.12 137.75" xmlns="http://www.w3.org/2000/svg" xmlns:xlink="http://www.w3.org/1999/xlink">
<g id="graph0" class="graph" transform="scale(1 1) rotate(0) translate(4 133.75)">
<title>rcvsdk/ios/rcvsdk/RcvLocalAudioStreamState.h</title>
<!-- Node1 -->
<g id="node1" class="node">
<title>Node1</title>
<g id="a_node1"><a xlink:title=" ">
<polygon fill="#999999" stroke="#666666" points="328.88,-129.75 103.62,-129.75 103.62,-110.5 328.88,-110.5 328.88,-129.75"/>
<text text-anchor="middle" x="216.25" y="-116.25" font-family="Helvetica,sans-Serif" font-size="10.00">rcvsdk/ios/rcvsdk/RcvLocalAudioStreamState.h</text>
</a>
</g>
</g>
<!-- Node2 -->
<g id="node2" class="node">
<title>Node2</title>
<g id="a_node2"><a xlink:href="_rcv_audio_controller_8h.html" target="_top" xlink:title=" ">
<polygon fill="white" stroke="#666666" points="188.5,-74.5 0,-74.5 0,-55.25 188.5,-55.25 188.5,-74.5"/>
<text text-anchor="middle" x="94.25" y="-61" font-family="Helvetica,sans-Serif" font-size="10.00">rcvsdk/ios/rcvsdk/RcvAudioController.h</text>
</a>
</g>
</g>
<!-- Node1&#45;&gt;Node2 -->
<g id="edge1" class="edge">
<title>Node1&#45;&gt;Node2</title>
<path fill="none" stroke="#63b8ff" d="M185.68,-105.78C163.63,-96.16 134.45,-83.42 115.05,-74.95"/>
<polygon fill="#63b8ff" stroke="#63b8ff" points="183.99,-109.3 194.55,-110.09 186.79,-102.88 183.99,-109.3"/>
</g>
<!-- Node3 -->
<g id="node3" class="node">
<title>Node3</title>
<g id="a_node3"><a xlink:href="_rcv_s_d_k_8h.html" target="_top" xlink:title=" ">
<polygon fill="white" stroke="#666666" points="288,-19.25 144.5,-19.25 144.5,0 288,0 288,-19.25"/>
<text text-anchor="middle" x="216.25" y="-5.75" font-family="Helvetica,sans-Serif" font-size="10.00">rcvsdk/ios/rcvsdk/RcvSDK.h</text>
</a>
</g>
</g>
<!-- Node1&#45;&gt;Node3 -->
<g id="edge5" class="edge">
<title>Node1&#45;&gt;Node3</title>
<path fill="none" stroke="#63b8ff" d="M216.25,-99.43C216.25,-75.76 216.25,-37.05 216.25,-19.63"/>
<polygon fill="#63b8ff" stroke="#63b8ff" points="212.75,-99.25 216.25,-109.25 219.75,-99.25 212.75,-99.25"/>
</g>
<!-- Node4 -->
<g id="node4" class="node">
<title>Node4</title>
<g id="a_node4"><a xlink:href="_rcv_audio_event_handler_8h.html" target="_top" xlink:title=" ">
<polygon fill="white" stroke="#666666" points="450.12,-74.5 244.38,-74.5 244.38,-55.25 450.12,-55.25 450.12,-74.5"/>
<text text-anchor="middle" x="347.25" y="-61" font-family="Helvetica,sans-Serif" font-size="10.00">rcvsdk/ios/rcvsdk/RcvAudioEventHandler.h</text>
</a>
</g>
</g>
<!-- Node1&#45;&gt;Node4 -->
<g id="edge3" class="edge">
<title>Node1&#45;&gt;Node4</title>
<path fill="none" stroke="#63b8ff" d="M248.43,-106.04C272.18,-96.39 303.9,-83.5 324.92,-74.95"/>
<polygon fill="#63b8ff" stroke="#63b8ff" points="247.42,-103.08 239.47,-110.09 250.05,-109.57 247.42,-103.08"/>
</g>
<!-- Node2&#45;&gt;Node3 -->
<g id="edge2" class="edge">
<title>Node2&#45;&gt;Node3</title>
<path fill="none" stroke="#63b8ff" d="M124.82,-50.53C146.87,-40.91 176.05,-28.17 195.45,-19.7"/>
<polygon fill="#63b8ff" stroke="#63b8ff" points="123.71,-47.63 115.95,-54.84 126.51,-54.05 123.71,-47.63"/>
</g>
<!-- Node4&#45;&gt;Node3 -->
<g id="edge4" class="edge">
<title>Node4&#45;&gt;Node3</title>
<path fill="none" stroke="#63b8ff" d="M315.07,-50.79C291.32,-41.14 259.6,-28.25 238.58,-19.7"/>
<polygon fill="#63b8ff" stroke="#63b8ff" points="313.45,-54.32 324.03,-54.84 316.08,-47.83 313.45,-54.32"/>
</g>
</g>
</svg>
