<?xml version="1.0" encoding="UTF-8" standalone="no"?>
<!DOCTYPE svg PUBLIC "-//W3C//DTD SVG 1.1//EN"
 "http://www.w3.org/Graphics/SVG/1.1/DTD/svg11.dtd">
<!-- Generated by graphviz version 8.0.4 (20230421.1958)
 -->
<!-- Title: rcvsdk/ios/rcvsdk/RcvClosedCaptionsState.h Pages: 1 -->
<svg width="514pt" height="138pt"
 viewBox="0.00 0.00 513.50 137.75" xmlns="http://www.w3.org/2000/svg" xmlns:xlink="http://www.w3.org/1999/xlink">
<g id="graph0" class="graph" transform="scale(1 1) rotate(0) translate(4 133.75)">
<title>rcvsdk/ios/rcvsdk/RcvClosedCaptionsState.h</title>
<!-- Node1 -->
<g id="node1" class="node">
<title>Node1</title>
<g id="a_node1"><a xlink:title=" ">
<polygon fill="#999999" stroke="#666666" points="369.5,-129.75 154,-129.75 154,-110.5 369.5,-110.5 369.5,-129.75"/>
<text text-anchor="middle" x="261.75" y="-116.25" font-family="Helvetica,sans-Serif" font-size="10.00">rcvsdk/ios/rcvsdk/RcvClosedCaptionsState.h</text>
</a>
</g>
</g>
<!-- Node2 -->
<g id="node2" class="node">
<title>Node2</title>
<g id="a_node2"><a xlink:href="_rcv_closed_captions_controller_8h.html" target="_top" xlink:title=" ">
<polygon fill="white" stroke="#666666" points="233.5,-74.5 0,-74.5 0,-55.25 233.5,-55.25 233.5,-74.5"/>
<text text-anchor="middle" x="116.75" y="-61" font-family="Helvetica,sans-Serif" font-size="10.00">rcvsdk/ios/rcvsdk/RcvClosedCaptionsController.h</text>
</a>
</g>
</g>
<!-- Node1&#45;&gt;Node2 -->
<g id="edge1" class="edge">
<title>Node1&#45;&gt;Node2</title>
<path fill="none" stroke="#63b8ff" d="M226.83,-106.3C200.47,-96.62 164.94,-83.57 141.47,-74.95"/>
<polygon fill="#63b8ff" stroke="#63b8ff" points="225.56,-109.93 236.15,-110.09 227.97,-103.36 225.56,-109.93"/>
</g>
<!-- Node3 -->
<g id="node3" class="node">
<title>Node3</title>
<g id="a_node3"><a xlink:href="_rcv_s_d_k_8h.html" target="_top" xlink:title=" ">
<polygon fill="white" stroke="#666666" points="333.5,-19.25 190,-19.25 190,0 333.5,0 333.5,-19.25"/>
<text text-anchor="middle" x="261.75" y="-5.75" font-family="Helvetica,sans-Serif" font-size="10.00">rcvsdk/ios/rcvsdk/RcvSDK.h</text>
</a>
</g>
</g>
<!-- Node1&#45;&gt;Node3 -->
<g id="edge5" class="edge">
<title>Node1&#45;&gt;Node3</title>
<path fill="none" stroke="#63b8ff" d="M261.75,-99.43C261.75,-75.76 261.75,-37.05 261.75,-19.63"/>
<polygon fill="#63b8ff" stroke="#63b8ff" points="258.25,-99.25 261.75,-109.25 265.25,-99.25 258.25,-99.25"/>
</g>
<!-- Node4 -->
<g id="node4" class="node">
<title>Node4</title>
<g id="a_node4"><a xlink:href="_rcv_meeting_event_handler_8h.html" target="_top" xlink:title=" ">
<polygon fill="white" stroke="#666666" points="505.5,-74.5 290,-74.5 290,-55.25 505.5,-55.25 505.5,-74.5"/>
<text text-anchor="middle" x="397.75" y="-61" font-family="Helvetica,sans-Serif" font-size="10.00">rcvsdk/ios/rcvsdk/RcvMeetingEventHandler.h</text>
</a>
</g>
</g>
<!-- Node1&#45;&gt;Node4 -->
<g id="edge3" class="edge">
<title>Node1&#45;&gt;Node4</title>
<path fill="none" stroke="#63b8ff" d="M294.83,-106.17C319.52,-96.5 352.65,-83.54 374.57,-74.95"/>
<polygon fill="#63b8ff" stroke="#63b8ff" points="293.86,-103.19 285.82,-110.09 296.41,-109.7 293.86,-103.19"/>
</g>
<!-- Node2&#45;&gt;Node3 -->
<g id="edge2" class="edge">
<title>Node2&#45;&gt;Node3</title>
<path fill="none" stroke="#63b8ff" d="M151.67,-51.05C178.03,-41.37 213.56,-28.32 237.03,-19.7"/>
<polygon fill="#63b8ff" stroke="#63b8ff" points="150.53,-48.11 142.35,-54.84 152.94,-54.68 150.53,-48.11"/>
</g>
<!-- Node4&#45;&gt;Node3 -->
<g id="edge4" class="edge">
<title>Node4&#45;&gt;Node3</title>
<path fill="none" stroke="#63b8ff" d="M364.67,-50.92C339.98,-41.25 306.85,-28.29 284.93,-19.7"/>
<polygon fill="#63b8ff" stroke="#63b8ff" points="363.09,-54.45 373.68,-54.84 365.64,-47.94 363.09,-54.45"/>
</g>
</g>
</svg>
