<?xml version="1.0" encoding="UTF-8" standalone="no"?>
<!DOCTYPE svg PUBLIC "-//W3C//DTD SVG 1.1//EN"
 "http://www.w3.org/Graphics/SVG/1.1/DTD/svg11.dtd">
<!-- Generated by graphviz version 8.0.4 (20230421.1958)
 -->
<!-- Title: rcvsdk/ios/rcvsdk/RcvEndToEndEncryptionState.h Pages: 1 -->
<svg width="478pt" height="138pt"
 viewBox="0.00 0.00 477.88 137.75" xmlns="http://www.w3.org/2000/svg" xmlns:xlink="http://www.w3.org/1999/xlink">
<g id="graph0" class="graph" transform="scale(1 1) rotate(0) translate(4 133.75)">
<title>rcvsdk/ios/rcvsdk/RcvEndToEndEncryptionState.h</title>
<!-- Node1 -->
<g id="node1" class="node">
<title>Node1</title>
<g id="a_node1"><a xlink:title=" ">
<polygon fill="#999999" stroke="#666666" points="344.75,-129.75 107.5,-129.75 107.5,-110.5 344.75,-110.5 344.75,-129.75"/>
<text text-anchor="middle" x="226.12" y="-116.25" font-family="Helvetica,sans-Serif" font-size="10.00">rcvsdk/ios/rcvsdk/RcvEndToEndEncryptionState.h</text>
</a>
</g>
</g>
<!-- Node2 -->
<g id="node2" class="node">
<title>Node2</title>
<g id="a_node2"><a xlink:href="_rcv_meeting_controller_8h.html" target="_top" xlink:title=" ">
<polygon fill="white" stroke="#666666" points="198.25,-74.5 0,-74.5 0,-55.25 198.25,-55.25 198.25,-74.5"/>
<text text-anchor="middle" x="99.12" y="-61" font-family="Helvetica,sans-Serif" font-size="10.00">rcvsdk/ios/rcvsdk/RcvMeetingController.h</text>
</a>
</g>
</g>
<!-- Node1&#45;&gt;Node2 -->
<g id="edge1" class="edge">
<title>Node1&#45;&gt;Node2</title>
<path fill="none" stroke="#63b8ff" d="M194.62,-105.91C171.62,-96.27 141.06,-83.46 120.77,-74.95"/>
<polygon fill="#63b8ff" stroke="#63b8ff" points="193.01,-109.45 203.58,-110.09 195.71,-103 193.01,-109.45"/>
</g>
<!-- Node3 -->
<g id="node3" class="node">
<title>Node3</title>
<g id="a_node3"><a xlink:href="_rcv_s_d_k_8h.html" target="_top" xlink:title=" ">
<polygon fill="white" stroke="#666666" points="297.88,-19.25 154.38,-19.25 154.38,0 297.88,0 297.88,-19.25"/>
<text text-anchor="middle" x="226.12" y="-5.75" font-family="Helvetica,sans-Serif" font-size="10.00">rcvsdk/ios/rcvsdk/RcvSDK.h</text>
</a>
</g>
</g>
<!-- Node1&#45;&gt;Node3 -->
<g id="edge5" class="edge">
<title>Node1&#45;&gt;Node3</title>
<path fill="none" stroke="#63b8ff" d="M226.12,-99.43C226.12,-75.76 226.12,-37.05 226.12,-19.63"/>
<polygon fill="#63b8ff" stroke="#63b8ff" points="222.63,-99.25 226.12,-109.25 229.63,-99.25 222.63,-99.25"/>
</g>
<!-- Node4 -->
<g id="node4" class="node">
<title>Node4</title>
<g id="a_node4"><a xlink:href="_rcv_meeting_event_handler_8h.html" target="_top" xlink:title=" ">
<polygon fill="white" stroke="#666666" points="469.88,-74.5 254.38,-74.5 254.38,-55.25 469.88,-55.25 469.88,-74.5"/>
<text text-anchor="middle" x="362.12" y="-61" font-family="Helvetica,sans-Serif" font-size="10.00">rcvsdk/ios/rcvsdk/RcvMeetingEventHandler.h</text>
</a>
</g>
</g>
<!-- Node1&#45;&gt;Node4 -->
<g id="edge3" class="edge">
<title>Node1&#45;&gt;Node4</title>
<path fill="none" stroke="#63b8ff" d="M259.2,-106.17C283.9,-96.5 317.02,-83.54 338.94,-74.95"/>
<polygon fill="#63b8ff" stroke="#63b8ff" points="258.23,-103.19 250.2,-110.09 260.78,-109.7 258.23,-103.19"/>
</g>
<!-- Node2&#45;&gt;Node3 -->
<g id="edge2" class="edge">
<title>Node2&#45;&gt;Node3</title>
<path fill="none" stroke="#63b8ff" d="M130.63,-50.66C153.63,-41.02 184.19,-28.21 204.48,-19.7"/>
<polygon fill="#63b8ff" stroke="#63b8ff" points="129.54,-47.75 121.67,-54.84 132.24,-54.2 129.54,-47.75"/>
</g>
<!-- Node4&#45;&gt;Node3 -->
<g id="edge4" class="edge">
<title>Node4&#45;&gt;Node3</title>
<path fill="none" stroke="#63b8ff" d="M329.05,-50.92C304.35,-41.25 271.23,-28.29 249.31,-19.7"/>
<polygon fill="#63b8ff" stroke="#63b8ff" points="327.47,-54.45 338.05,-54.84 330.02,-47.94 327.47,-54.45"/>
</g>
</g>
</svg>
