<?xml version="1.0" encoding="UTF-8" standalone="no"?>
<!DOCTYPE svg PUBLIC "-//W3C//DTD SVG 1.1//EN"
 "http://www.w3.org/Graphics/SVG/1.1/DTD/svg11.dtd">
<!-- Generated by graphviz version 8.1.0 (20230707.0739)
 -->
<!-- Title: rcvsdk/ios/rcvsdk/RcvSampleBufferVideoView.h Pages: 1 -->
<svg width="284pt" height="193pt"
 viewBox="0.00 0.00 284.25 193.00" xmlns="http://www.w3.org/2000/svg" xmlns:xlink="http://www.w3.org/1999/xlink">

<svg id="main" version="1.1" xmlns="http://www.w3.org/2000/svg" xmlns:xlink="http://www.w3.org/1999/xlink" xml:space="preserve" onload="init(evt)">
<style type="text/css"><![CDATA[
.node, .edge {opacity: 0.7;}
.node.selected, .edge.selected {opacity: 1;}
.edge:hover path { stroke: red; }
.edge:hover polygon { stroke: red; fill: red; }
]]></style>
<script type="application/ecmascript" xlink:href="svg.min.js"/>
<svg id="graph" class="graph">
<g id="graph0" class="graph" transform="scale(1 1) rotate(0) translate(4 189)">
<title>rcvsdk/ios/rcvsdk/RcvSampleBufferVideoView.h</title>
<!-- Node1 -->
<g id="Node000001" class="node">
<title>Node1</title>
<g id="a_Node000001"><a xlink:title=" ">
<polygon fill="#999999" stroke="#666666" points="226.75,-185 0,-185 0,-165.75 226.75,-165.75 226.75,-185"/>
<text text-anchor="middle" x="113.38" y="-171.5" font-family="Helvetica,sans-Serif" font-size="10.00">rcvsdk/ios/rcvsdk/RcvSampleBufferVideoView.h</text>
</a>
</g>
</g>
<!-- Node2 -->
<g id="Node000002" class="node">
<title>Node2</title>
<g id="a_Node000002"><a xlink:title=" ">
<polygon fill="#e0e0e0" stroke="#999999" points="117.5,-74.5 45.25,-74.5 45.25,-55.25 117.5,-55.25 117.5,-74.5"/>
<text text-anchor="middle" x="81.38" y="-61" font-family="Helvetica,sans-Serif" font-size="10.00">UIKit/UIKit.h</text>
</a>
</g>
</g>
<!-- Node1&#45;&gt;Node2 -->
<g id="edge1_Node000001_Node000002" class="edge">
<title>Node1&#45;&gt;Node2</title>
<g id="a_edge1_Node000001_Node000002"><a xlink:title=" ">
<path fill="none" stroke="#63b8ff" d="M107.98,-165.48C102.91,-156.71 95.49,-142.76 91.38,-129.75 86.8,-115.32 84.27,-98.36 82.9,-85.54"/>
<polygon fill="#63b8ff" stroke="#63b8ff" points="86.31,-85.39 81.91,-75.75 79.34,-86.02 86.31,-85.39"/>
</a>
</g>
</g>
<!-- Node3 -->
<g id="Node000003" class="node">
<title>Node3</title>
<g id="a_Node000003"><a xlink:href="_rcv_base_video_view_8h.html" target="_top" xlink:title=" ">
<polygon fill="white" stroke="#666666" points="210.25,-129.75 100.5,-129.75 100.5,-110.5 210.25,-110.5 210.25,-129.75"/>
<text text-anchor="middle" x="155.38" y="-116.25" font-family="Helvetica,sans-Serif" font-size="10.00">RcvBaseVideoView.h</text>
</a>
</g>
</g>
<!-- Node1&#45;&gt;Node3 -->
<g id="edge2_Node000001_Node000003" class="edge">
<title>Node1&#45;&gt;Node3</title>
<g id="a_edge2_Node000001_Node000003"><a xlink:title=" ">
<path fill="none" stroke="#63b8ff" d="M120.31,-165.58C126.05,-158.3 134.39,-147.73 141.49,-138.73"/>
<polygon fill="#63b8ff" stroke="#63b8ff" points="144.84,-141.13 148.29,-131.11 139.35,-136.79 144.84,-141.13"/>
</a>
</g>
</g>
<!-- Node3&#45;&gt;Node2 -->
<g id="edge4_Node000003_Node000002" class="edge">
<title>Node3&#45;&gt;Node2</title>
<g id="a_edge4_Node000003_Node000002"><a xlink:title=" ">
<path fill="none" stroke="#63b8ff" d="M142.82,-110.09C131.81,-102.16 115.56,-90.47 102.53,-81.1"/>
<polygon fill="#63b8ff" stroke="#63b8ff" points="104.9,-77.77 94.74,-74.77 100.82,-83.46 104.9,-77.77"/>
</a>
</g>
</g>
<!-- Node4 -->
<g id="Node000004" class="node">
<title>Node4</title>
<g id="a_Node000004"><a xlink:title=" ">
<polygon fill="#e0e0e0" stroke="#999999" points="250,-19.25 126.75,-19.25 126.75,0 250,0 250,-19.25"/>
<text text-anchor="middle" x="188.38" y="-5.75" font-family="Helvetica,sans-Serif" font-size="10.00">Foundation/Foundation.h</text>
</a>
</g>
</g>
<!-- Node3&#45;&gt;Node4 -->
<g id="edge3_Node000003_Node000004" class="edge">
<title>Node3&#45;&gt;Node4</title>
<g id="a_edge3_Node000003_Node000004"><a xlink:title=" ">
<path fill="none" stroke="#63b8ff" d="M156.77,-110.31C158.86,-97.86 163.23,-74.5 169.38,-55.25 172.13,-46.64 175.91,-37.4 179.38,-29.57"/>
<polygon fill="#63b8ff" stroke="#63b8ff" points="182.94,-31.21 183.93,-20.67 176.58,-28.29 182.94,-31.21"/>
</a>
</g>
</g>
<!-- Node5 -->
<g id="Node000005" class="node">
<title>Node5</title>
<g id="a_Node000005"><a xlink:href="_rcv_render_mode_8h.html" target="_top" xlink:title=" ">
<polygon fill="white" stroke="#666666" points="276.25,-74.5 178.5,-74.5 178.5,-55.25 276.25,-55.25 276.25,-74.5"/>
<text text-anchor="middle" x="227.38" y="-61" font-family="Helvetica,sans-Serif" font-size="10.00">RcvRenderMode.h</text>
</a>
</g>
</g>
<!-- Node3&#45;&gt;Node5 -->
<g id="edge5_Node000003_Node000005" class="edge">
<title>Node3&#45;&gt;Node5</title>
<g id="a_edge5_Node000003_Node000005"><a xlink:title=" ">
<path fill="none" stroke="#63b8ff" d="M167.59,-110.09C178.31,-102.16 194.12,-90.47 206.79,-81.1"/>
<polygon fill="#63b8ff" stroke="#63b8ff" points="208.38,-83.54 214.34,-74.77 204.22,-77.91 208.38,-83.54"/>
</a>
</g>
</g>
<!-- Node5&#45;&gt;Node4 -->
<g id="edge6_Node000005_Node000004" class="edge">
<title>Node5&#45;&gt;Node4</title>
<g id="a_edge6_Node000005_Node000004"><a xlink:title=" ">
<path fill="none" stroke="#63b8ff" d="M220.93,-55.08C215.6,-47.8 207.86,-37.23 201.27,-28.23"/>
<polygon fill="#63b8ff" stroke="#63b8ff" points="203.69,-26.61 194.95,-20.61 198.04,-30.74 203.69,-26.61"/>
</a>
</g>
</g>
</g>
</svg>
</svg>

<style type='text/css'>
<![CDATA[
[data-mouse-over-selected='false'] { opacity: 0.7; }
[data-mouse-over-selected='true']  { opacity: 1.0; }
]]>
</style>
<script type="application/ecmascript"><![CDATA[
document.addEventListener('DOMContentLoaded', (event) => {
  highlightEdges();
  highlightAdjacentNodes();
});
]]></script>
</svg>
