<?xml version="1.0" encoding="UTF-8" standalone="no"?>
<!DOCTYPE svg PUBLIC "-//W3C//DTD SVG 1.1//EN"
 "http://www.w3.org/Graphics/SVG/1.1/DTD/svg11.dtd">
<!-- Generated by graphviz version 8.1.0 (20230707.0739)
 -->
<!-- Title: rcvsdk/ios/rcvsdk/RcvWaitingRoomMode.h Pages: 1 -->
<svg width="950pt" height="138pt"
 viewBox="0.00 0.00 950.25 137.75" xmlns="http://www.w3.org/2000/svg" xmlns:xlink="http://www.w3.org/1999/xlink">
<g id="graph0" class="graph" transform="scale(1 1) rotate(0) translate(4 133.75)">
<title>rcvsdk/ios/rcvsdk/RcvWaitingRoomMode.h</title>
<!-- Node1 -->
<g id="Node000001" class="node">
<title>Node1</title>
<g id="a_Node000001"><a xlink:title=" ">
<polygon fill="#999999" stroke="#666666" points="561,-129.75 356,-129.75 356,-110.5 561,-110.5 561,-129.75"/>
<text text-anchor="middle" x="458.5" y="-116.25" font-family="Helvetica,sans-Serif" font-size="10.00">rcvsdk/ios/rcvsdk/RcvWaitingRoomMode.h</text>
</a>
</g>
</g>
<!-- Node2 -->
<g id="Node000002" class="node">
<title>Node2</title>
<g id="a_Node000002"><a xlink:href="_rcv_instant_meeting_settings_8h.html" target="_top" xlink:title=" ">
<polygon fill="white" stroke="#666666" points="223,-74.5 0,-74.5 0,-55.25 223,-55.25 223,-74.5"/>
<text text-anchor="middle" x="111.5" y="-61" font-family="Helvetica,sans-Serif" font-size="10.00">rcvsdk/ios/rcvsdk/RcvInstantMeetingSettings.h</text>
</a>
</g>
</g>
<!-- Node1&#45;&gt;Node2 -->
<g id="edge1_Node000001_Node000002" class="edge">
<title>Node1&#45;&gt;Node2</title>
<g id="a_edge1_Node000001_Node000002"><a xlink:title=" ">
<path fill="none" stroke="#63b8ff" d="M388.46,-108.38C324.54,-98.57 231.11,-84.23 170.8,-74.98"/>
<polygon fill="#63b8ff" stroke="#63b8ff" points="387.83,-111.97 398.24,-110.03 388.89,-105.06 387.83,-111.97"/>
</a>
</g>
</g>
<!-- Node4 -->
<g id="Node000004" class="node">
<title>Node4</title>
<g id="a_Node000004"><a xlink:href="_rcv_meeting_bridge_info_8h.html" target="_top" xlink:title=" ">
<polygon fill="white" stroke="#666666" points="442.12,-74.5 240.88,-74.5 240.88,-55.25 442.12,-55.25 442.12,-74.5"/>
<text text-anchor="middle" x="341.5" y="-61" font-family="Helvetica,sans-Serif" font-size="10.00">rcvsdk/ios/rcvsdk/RcvMeetingBridgeInfo.h</text>
</a>
</g>
</g>
<!-- Node1&#45;&gt;Node4 -->
<g id="edge3_Node000001_Node000004" class="edge">
<title>Node1&#45;&gt;Node4</title>
<g id="a_edge3_Node000001_Node000004"><a xlink:title=" ">
<path fill="none" stroke="#63b8ff" d="M428.9,-105.65C407.78,-96.04 379.97,-83.38 361.44,-74.95"/>
<polygon fill="#63b8ff" stroke="#63b8ff" points="427.1,-109.13 437.65,-110.09 430,-102.76 427.1,-109.13"/>
</a>
</g>
</g>
<!-- Node5 -->
<g id="Node000005" class="node">
<title>Node5</title>
<g id="a_Node000005"><a xlink:href="_rcv_personal_meeting_settings_8h.html" target="_top" xlink:title=" ">
<polygon fill="white" stroke="#666666" points="691.12,-74.5 459.88,-74.5 459.88,-55.25 691.12,-55.25 691.12,-74.5"/>
<text text-anchor="middle" x="575.5" y="-61" font-family="Helvetica,sans-Serif" font-size="10.00">rcvsdk/ios/rcvsdk/RcvPersonalMeetingSettings.h</text>
</a>
</g>
</g>
<!-- Node1&#45;&gt;Node5 -->
<g id="edge5_Node000001_Node000005" class="edge">
<title>Node1&#45;&gt;Node5</title>
<g id="a_edge5_Node000001_Node000005"><a xlink:title=" ">
<path fill="none" stroke="#63b8ff" d="M488.1,-105.65C509.22,-96.04 537.03,-83.38 555.56,-74.95"/>
<polygon fill="#63b8ff" stroke="#63b8ff" points="487,-102.76 479.35,-110.09 489.9,-109.13 487,-102.76"/>
</a>
</g>
</g>
<!-- Node6 -->
<g id="Node000006" class="node">
<title>Node6</title>
<g id="a_Node000006"><a xlink:href="_rcv_schedule_meeting_settings_8h.html" target="_top" xlink:title=" ">
<polygon fill="white" stroke="#666666" points="942.25,-74.5 708.75,-74.5 708.75,-55.25 942.25,-55.25 942.25,-74.5"/>
<text text-anchor="middle" x="825.5" y="-61" font-family="Helvetica,sans-Serif" font-size="10.00">rcvsdk/ios/rcvsdk/RcvScheduleMeetingSettings.h</text>
</a>
</g>
</g>
<!-- Node1&#45;&gt;Node6 -->
<g id="edge7_Node000001_Node000006" class="edge">
<title>Node1&#45;&gt;Node6</title>
<g id="a_edge7_Node000001_Node000006"><a xlink:title=" ">
<path fill="none" stroke="#63b8ff" d="M531.74,-108.5C599.36,-98.69 698.73,-84.27 762.78,-74.98"/>
<polygon fill="#63b8ff" stroke="#63b8ff" points="531.57,-105.13 522.17,-110.03 532.57,-112.06 531.57,-105.13"/>
</a>
</g>
</g>
<!-- Node3 -->
<g id="Node000003" class="node">
<title>Node3</title>
<g id="a_Node000003"><a xlink:href="_rcv_s_d_k_8h.html" target="_top" xlink:title=" ">
<polygon fill="white" stroke="#666666" points="530.25,-19.25 386.75,-19.25 386.75,0 530.25,0 530.25,-19.25"/>
<text text-anchor="middle" x="458.5" y="-5.75" font-family="Helvetica,sans-Serif" font-size="10.00">rcvsdk/ios/rcvsdk/RcvSDK.h</text>
</a>
</g>
</g>
<!-- Node2&#45;&gt;Node3 -->
<g id="edge2_Node000002_Node000003" class="edge">
<title>Node2&#45;&gt;Node3</title>
<g id="a_edge2_Node000002_Node000003"><a xlink:title=" ">
<path fill="none" stroke="#63b8ff" d="M181.54,-53.13C245.46,-43.32 338.89,-28.98 399.2,-19.73"/>
<polygon fill="#63b8ff" stroke="#63b8ff" points="181.11,-49.81 171.76,-54.78 182.17,-56.72 181.11,-49.81"/>
</a>
</g>
</g>
<!-- Node4&#45;&gt;Node3 -->
<g id="edge4_Node000004_Node000003" class="edge">
<title>Node4&#45;&gt;Node3</title>
<g id="a_edge4_Node000004_Node000003"><a xlink:title=" ">
<path fill="none" stroke="#63b8ff" d="M371.1,-50.4C392.22,-40.79 420.03,-28.13 438.56,-19.7"/>
<polygon fill="#63b8ff" stroke="#63b8ff" points="370,-47.51 362.35,-54.84 372.9,-53.88 370,-47.51"/>
</a>
</g>
</g>
<!-- Node5&#45;&gt;Node3 -->
<g id="edge6_Node000005_Node000003" class="edge">
<title>Node5&#45;&gt;Node3</title>
<g id="a_edge6_Node000005_Node000003"><a xlink:title=" ">
<path fill="none" stroke="#63b8ff" d="M545.9,-50.4C524.78,-40.79 496.97,-28.13 478.44,-19.7"/>
<polygon fill="#63b8ff" stroke="#63b8ff" points="544.1,-53.88 554.65,-54.84 547,-47.51 544.1,-53.88"/>
</a>
</g>
</g>
<!-- Node6&#45;&gt;Node3 -->
<g id="edge8_Node000006_Node000003" class="edge">
<title>Node6&#45;&gt;Node3</title>
<g id="a_edge8_Node000006_Node000003"><a xlink:title=" ">
<path fill="none" stroke="#63b8ff" d="M752.26,-53.25C684.64,-43.44 585.27,-29.02 521.22,-19.73"/>
<polygon fill="#63b8ff" stroke="#63b8ff" points="751.43,-56.81 761.83,-54.78 752.43,-49.88 751.43,-56.81"/>
</a>
</g>
</g>
</g>
</svg>
