<?xml version="1.0" encoding="UTF-8" standalone="no"?>
<!DOCTYPE svg PUBLIC "-//W3C//DTD SVG 1.1//EN"
 "http://www.w3.org/Graphics/SVG/1.1/DTD/svg11.dtd">
<!-- Generated by graphviz version 8.0.4 (20230421.1958)
 -->
<!-- Title: rcvsdk/ios/rcvsdk/RcvMeetingApiExecuteResult.h Pages: 1 -->
<svg width="302pt" height="138pt"
 viewBox="0.00 0.00 301.62 137.75" xmlns="http://www.w3.org/2000/svg" xmlns:xlink="http://www.w3.org/1999/xlink">
<g id="graph0" class="graph" transform="scale(1 1) rotate(0) translate(4 133.75)">
<title>rcvsdk/ios/rcvsdk/RcvMeetingApiExecuteResult.h</title>
<!-- Node1 -->
<g id="node1" class="node">
<title>Node1</title>
<g id="a_node1"><a xlink:title=" ">
<polygon fill="#999999" stroke="#666666" points="293.62,-129.75 57.88,-129.75 57.88,-110.5 293.62,-110.5 293.62,-129.75"/>
<text text-anchor="middle" x="175.75" y="-116.25" font-family="Helvetica,sans-Serif" font-size="10.00">rcvsdk/ios/rcvsdk/RcvMeetingApiExecuteResult.h</text>
</a>
</g>
</g>
<!-- Node2 -->
<g id="node2" class="node">
<title>Node2</title>
<g id="a_node2"><a xlink:href="_rcv_meeting_event_handler_8h.html" target="_top" xlink:title=" ">
<polygon fill="white" stroke="#666666" points="215.5,-74.5 0,-74.5 0,-55.25 215.5,-55.25 215.5,-74.5"/>
<text text-anchor="middle" x="107.75" y="-61" font-family="Helvetica,sans-Serif" font-size="10.00">rcvsdk/ios/rcvsdk/RcvMeetingEventHandler.h</text>
</a>
</g>
</g>
<!-- Node1&#45;&gt;Node2 -->
<g id="edge1" class="edge">
<title>Node1&#45;&gt;Node2</title>
<path fill="none" stroke="#63b8ff" d="M155.75,-103.47C143.82,-94.12 129.09,-82.58 119.11,-74.77"/>
<polygon fill="#63b8ff" stroke="#63b8ff" points="153.18,-106.68 163.21,-110.09 157.5,-101.17 153.18,-106.68"/>
</g>
<!-- Node3 -->
<g id="node3" class="node">
<title>Node3</title>
<g id="a_node3"><a xlink:href="_rcv_s_d_k_8h.html" target="_top" xlink:title=" ">
<polygon fill="white" stroke="#666666" points="247.5,-19.25 104,-19.25 104,0 247.5,0 247.5,-19.25"/>
<text text-anchor="middle" x="175.75" y="-5.75" font-family="Helvetica,sans-Serif" font-size="10.00">rcvsdk/ios/rcvsdk/RcvSDK.h</text>
</a>
</g>
</g>
<!-- Node1&#45;&gt;Node3 -->
<g id="edge3" class="edge">
<title>Node1&#45;&gt;Node3</title>
<path fill="none" stroke="#63b8ff" d="M199.54,-104.1C209.28,-96.54 219.48,-86.43 224.75,-74.5 234.47,-52.51 209.01,-31.24 191.25,-19.64"/>
<polygon fill="#63b8ff" stroke="#63b8ff" points="197.96,-101.64 191.88,-110.32 202.05,-107.33 197.96,-101.64"/>
</g>
<!-- Node2&#45;&gt;Node3 -->
<g id="edge2" class="edge">
<title>Node2&#45;&gt;Node3</title>
<path fill="none" stroke="#63b8ff" d="M127.75,-48.22C139.68,-38.87 154.41,-27.33 164.39,-19.52"/>
<polygon fill="#63b8ff" stroke="#63b8ff" points="126,-45.92 120.29,-54.84 130.32,-51.43 126,-45.92"/>
</g>
</g>
</svg>
