<?xml version="1.0" encoding="UTF-8" standalone="no"?>
<!DOCTYPE svg PUBLIC "-//W3C//DTD SVG 1.1//EN"
 "http://www.w3.org/Graphics/SVG/1.1/DTD/svg11.dtd">
<!-- Generated by graphviz version 8.0.1 (20230327.1645)
 -->
<!-- Title: rcvsdk/ios/rcvsdk/RcvRenderMode.h Pages: 1 -->
<svg width="1050pt" height="192pt"
 viewBox="0.00 0.00 1049.81 192.00" xmlns="http://www.w3.org/2000/svg" xmlns:xlink="http://www.w3.org/1999/xlink">
<g id="graph0" class="graph" transform="scale(1 1) rotate(0) translate(4 188)">
<title>rcvsdk/ios/rcvsdk/RcvRenderMode.h</title>
<!-- Node1 -->
<g id="node1" class="node">
<title>Node1</title>
<g id="a_node1"><a xlink:title=" ">
<polygon fill="#999999" stroke="#666666" points="643.81,-184 464.81,-184 464.81,-165 643.81,-165 643.81,-184"/>
<text text-anchor="middle" x="554.31" y="-172" font-family="Helvetica,sans-Serif" font-size="10.00">rcvsdk/ios/rcvsdk/RcvRenderMode.h</text>
</a>
</g>
</g>
<!-- Node2 -->
<g id="node2" class="node">
<title>Node2</title>
<g id="a_node2"><a xlink:href="_rcv_base_video_view_8h.html" target="_top" xlink:title=" ">
<polygon fill="white" stroke="#666666" points="539.81,-129 348.81,-129 348.81,-110 539.81,-110 539.81,-129"/>
<text text-anchor="middle" x="444.31" y="-117" font-family="Helvetica,sans-Serif" font-size="10.00">rcvsdk/ios/rcvsdk/RcvBaseVideoView.h</text>
</a>
</g>
</g>
<!-- Node1&#45;&gt;Node2 -->
<g id="edge1" class="edge">
<title>Node1&#45;&gt;Node2</title>
<path fill="none" stroke="#63b8ff" d="M525.88,-159.8C505.96,-150.2 479.94,-137.66 462.7,-129.36"/>
<polygon fill="#63b8ff" stroke="#63b8ff" points="524.13,-163.32 534.65,-164.51 527.17,-157.02 524.13,-163.32"/>
</g>
<!-- Node8 -->
<g id="node8" class="node">
<title>Node8</title>
<g id="a_node8"><a xlink:href="_rcv_video_canvas_8h.html" target="_top" xlink:title=" ">
<polygon fill="white" stroke="#666666" points="872.31,-129 690.31,-129 690.31,-110 872.31,-110 872.31,-129"/>
<text text-anchor="middle" x="781.31" y="-117" font-family="Helvetica,sans-Serif" font-size="10.00">rcvsdk/ios/rcvsdk/RcvVideoCanvas.h</text>
</a>
</g>
</g>
<!-- Node1&#45;&gt;Node8 -->
<g id="edge11" class="edge">
<title>Node1&#45;&gt;Node8</title>
<path fill="none" stroke="#63b8ff" d="M603.33,-162.06C645.19,-152.28 704.55,-138.42 743,-129.45"/>
<polygon fill="#63b8ff" stroke="#63b8ff" points="602.76,-158.83 593.82,-164.51 604.36,-165.64 602.76,-158.83"/>
</g>
<!-- Node3 -->
<g id="node3" class="node">
<title>Node3</title>
<g id="a_node3"><a xlink:href="_r_c_video_canvas_8h.html" target="_top" xlink:title=" ">
<polygon fill="white" stroke="#666666" points="870.81,-74 691.81,-74 691.81,-55 870.81,-55 870.81,-74"/>
<text text-anchor="middle" x="781.31" y="-62" font-family="Helvetica,sans-Serif" font-size="10.00">rcvsdk/ios/rcvsdk/RCVideoCanvas.h</text>
</a>
</g>
</g>
<!-- Node2&#45;&gt;Node3 -->
<g id="edge2" class="edge">
<title>Node2&#45;&gt;Node3</title>
<path fill="none" stroke="#63b8ff" d="M511.98,-107.86C574.22,-98.07 665.48,-83.72 724.15,-74.49"/>
<polygon fill="#63b8ff" stroke="#63b8ff" points="511.82,-104.5 502.48,-109.51 512.9,-111.41 511.82,-104.5"/>
</g>
<!-- Node4 -->
<g id="node4" class="node">
<title>Node4</title>
<g id="a_node4"><a xlink:href="_rcv_s_d_k_8h.html" target="_top" xlink:title=" ">
<polygon fill="white" stroke="#666666" points="515.31,-19 371.31,-19 371.31,0 515.31,0 515.31,-19"/>
<text text-anchor="middle" x="443.31" y="-7" font-family="Helvetica,sans-Serif" font-size="10.00">rcvsdk/ios/rcvsdk/RcvSDK.h</text>
</a>
</g>
</g>
<!-- Node2&#45;&gt;Node4 -->
<g id="edge8" class="edge">
<title>Node2&#45;&gt;Node4</title>
<path fill="none" stroke="#63b8ff" d="M337.64,-115.01C215.15,-109.88 28.15,-98.17 6.31,-74 -43.64,-18.72 234.2,-10.78 370.85,-10.16"/>
<polygon fill="#63b8ff" stroke="#63b8ff" points="337.42,-118.55 347.55,-115.46 337.7,-111.55 337.42,-118.55"/>
</g>
<!-- Node5 -->
<g id="node5" class="node">
<title>Node5</title>
<g id="a_node5"><a xlink:href="_rcv_metal_video_view_8h.html" target="_top" xlink:title=" ">
<polygon fill="white" stroke="#666666" points="207.31,-74 15.31,-74 15.31,-55 207.31,-55 207.31,-74"/>
<text text-anchor="middle" x="111.31" y="-62" font-family="Helvetica,sans-Serif" font-size="10.00">rcvsdk/ios/rcvsdk/RcvMetalVideoView.h</text>
</a>
</g>
</g>
<!-- Node2&#45;&gt;Node5 -->
<g id="edge4" class="edge">
<title>Node2&#45;&gt;Node5</title>
<path fill="none" stroke="#63b8ff" d="M377.07,-107.8C315.58,-98.01 225.66,-83.7 167.8,-74.49"/>
<polygon fill="#63b8ff" stroke="#63b8ff" points="376.4,-111.39 386.83,-109.51 377.5,-104.48 376.4,-111.39"/>
</g>
<!-- Node6 -->
<g id="node6" class="node">
<title>Node6</title>
<g id="a_node6"><a xlink:href="_rcv_open_g_l_video_view_8h.html" target="_top" xlink:title=" ">
<polygon fill="white" stroke="#666666" points="428.81,-74 225.81,-74 225.81,-55 428.81,-55 428.81,-74"/>
<text text-anchor="middle" x="327.31" y="-62" font-family="Helvetica,sans-Serif" font-size="10.00">rcvsdk/ios/rcvsdk/RcvOpenGLVideoView.h</text>
</a>
</g>
</g>
<!-- Node2&#45;&gt;Node6 -->
<g id="edge6" class="edge">
<title>Node2&#45;&gt;Node6</title>
<path fill="none" stroke="#63b8ff" d="M414.65,-105.06C393.4,-95.43 365.37,-82.74 346.87,-74.36"/>
<polygon fill="#63b8ff" stroke="#63b8ff" points="412.91,-108.57 423.47,-109.51 415.8,-102.19 412.91,-108.57"/>
</g>
<!-- Node7 -->
<g id="node7" class="node">
<title>Node7</title>
<g id="a_node7"><a xlink:href="_rcv_sample_buffer_video_view_8h.html" target="_top" xlink:title=" ">
<polygon fill="white" stroke="#666666" points="673.81,-74 446.81,-74 446.81,-55 673.81,-55 673.81,-74"/>
<text text-anchor="middle" x="560.31" y="-62" font-family="Helvetica,sans-Serif" font-size="10.00">rcvsdk/ios/rcvsdk/RcvSampleBufferVideoView.h</text>
</a>
</g>
</g>
<!-- Node2&#45;&gt;Node7 -->
<g id="edge9" class="edge">
<title>Node2&#45;&gt;Node7</title>
<path fill="none" stroke="#63b8ff" d="M473.73,-105.06C494.8,-95.43 522.58,-82.74 540.93,-74.36"/>
<polygon fill="#63b8ff" stroke="#63b8ff" points="472.63,-102.17 464.99,-109.51 475.54,-108.54 472.63,-102.17"/>
</g>
<!-- Node3&#45;&gt;Node4 -->
<g id="edge3" class="edge">
<title>Node3&#45;&gt;Node4</title>
<path fill="none" stroke="#63b8ff" d="M713.45,-52.86C651.03,-43.07 559.49,-28.72 500.65,-19.49"/>
<polygon fill="#63b8ff" stroke="#63b8ff" points="712.56,-56.42 722.98,-54.51 713.64,-49.5 712.56,-56.42"/>
</g>
<!-- Node5&#45;&gt;Node4 -->
<g id="edge5" class="edge">
<title>Node5&#45;&gt;Node4</title>
<path fill="none" stroke="#63b8ff" d="M178.36,-52.8C239.66,-43.01 329.32,-28.7 387,-19.49"/>
<polygon fill="#63b8ff" stroke="#63b8ff" points="177.96,-49.48 168.63,-54.51 179.06,-56.39 177.96,-49.48"/>
</g>
<!-- Node6&#45;&gt;Node4 -->
<g id="edge7" class="edge">
<title>Node6&#45;&gt;Node4</title>
<path fill="none" stroke="#63b8ff" d="M356.73,-50.06C377.8,-40.43 405.58,-27.74 423.93,-19.36"/>
<polygon fill="#63b8ff" stroke="#63b8ff" points="355.63,-47.17 347.99,-54.51 358.54,-53.54 355.63,-47.17"/>
</g>
<!-- Node7&#45;&gt;Node4 -->
<g id="edge10" class="edge">
<title>Node7&#45;&gt;Node4</title>
<path fill="none" stroke="#63b8ff" d="M530.65,-50.06C509.4,-40.43 481.37,-27.74 462.87,-19.36"/>
<polygon fill="#63b8ff" stroke="#63b8ff" points="528.91,-53.57 539.47,-54.51 531.8,-47.19 528.91,-53.57"/>
</g>
<!-- Node8&#45;&gt;Node3 -->
<g id="edge12" class="edge">
<title>Node8&#45;&gt;Node3</title>
<path fill="none" stroke="#63b8ff" d="M781.31,-98.93C781.31,-90.53 781.31,-81.13 781.31,-74.44"/>
<polygon fill="#63b8ff" stroke="#63b8ff" points="777.81,-98.75 781.31,-108.75 784.81,-98.75 777.81,-98.75"/>
</g>
<!-- Node9 -->
<g id="node9" class="node">
<title>Node9</title>
<g id="a_node9"><a xlink:href="_rcv_engine_8h.html" target="_top" xlink:title=" ">
<polygon fill="white" stroke="#666666" points="1041.81,-74 888.81,-74 888.81,-55 1041.81,-55 1041.81,-74"/>
<text text-anchor="middle" x="965.31" y="-62" font-family="Helvetica,sans-Serif" font-size="10.00">rcvsdk/ios/rcvsdk/RcvEngine.h</text>
</a>
</g>
</g>
<!-- Node8&#45;&gt;Node9 -->
<g id="edge13" class="edge">
<title>Node8&#45;&gt;Node9</title>
<path fill="none" stroke="#63b8ff" d="M823,-106.49C856.8,-96.76 903.69,-83.25 934.26,-74.45"/>
<polygon fill="#63b8ff" stroke="#63b8ff" points="822.17,-103.38 813.53,-109.51 824.11,-110.1 822.17,-103.38"/>
</g>
<!-- Node9&#45;&gt;Node4 -->
<g id="edge14" class="edge">
<title>Node9&#45;&gt;Node4</title>
<path fill="none" stroke="#63b8ff" d="M877.72,-54.61C776.08,-44.29 610.35,-27.46 515.69,-17.85"/>
<polygon fill="#63b8ff" stroke="#63b8ff" points="877.27,-58.18 887.57,-55.71 877.98,-51.22 877.27,-58.18"/>
</g>
</g>
</svg>
