<?xml version="1.0" encoding="UTF-8" standalone="no"?>
<!DOCTYPE svg PUBLIC "-//W3C//DTD SVG 1.1//EN"
 "http://www.w3.org/Graphics/SVG/1.1/DTD/svg11.dtd">
<!-- Generated by graphviz version 8.1.0 (20230707.0739)
 -->
<!-- Title: rcvsdk/ios/rcvsdk/RcvBaseVideoView.h Pages: 1 -->
<svg width="899pt" height="138pt"
 viewBox="0.00 0.00 899.38 137.75" xmlns="http://www.w3.org/2000/svg" xmlns:xlink="http://www.w3.org/1999/xlink">
<g id="graph0" class="graph" transform="scale(1 1) rotate(0) translate(4 133.75)">
<title>rcvsdk/ios/rcvsdk/RcvBaseVideoView.h</title>
<!-- Node1 -->
<g id="Node000001" class="node">
<title>Node1</title>
<g id="a_Node000001"><a xlink:title=" ">
<polygon fill="#999999" stroke="#666666" points="425,-129.75 235,-129.75 235,-110.5 425,-110.5 425,-129.75"/>
<text text-anchor="middle" x="330" y="-116.25" font-family="Helvetica,sans-Serif" font-size="10.00">rcvsdk/ios/rcvsdk/RcvBaseVideoView.h</text>
</a>
</g>
</g>
<!-- Node2 -->
<g id="Node000002" class="node">
<title>Node2</title>
<g id="a_Node000002"><a xlink:href="_r_c_video_canvas_8h.html" target="_top" xlink:title=" ">
<polygon fill="white" stroke="#666666" points="178,-74.5 0,-74.5 0,-55.25 178,-55.25 178,-74.5"/>
<text text-anchor="middle" x="89" y="-61" font-family="Helvetica,sans-Serif" font-size="10.00">rcvsdk/ios/rcvsdk/RCVideoCanvas.h</text>
</a>
</g>
</g>
<!-- Node1&#45;&gt;Node2 -->
<g id="edge1_Node000001_Node000002" class="edge">
<title>Node1&#45;&gt;Node2</title>
<g id="a_edge1_Node000001_Node000002"><a xlink:title=" ">
<path fill="none" stroke="#63b8ff" d="M278.28,-107.7C233.94,-97.9 170.91,-83.97 129.99,-74.93"/>
<polygon fill="#63b8ff" stroke="#63b8ff" points="277.32,-111.29 287.84,-110.03 278.84,-104.46 277.32,-111.29"/>
</a>
</g>
</g>
<!-- Node3 -->
<g id="Node000003" class="node">
<title>Node3</title>
<g id="a_Node000003"><a xlink:href="_rcv_s_d_k_8h.html" target="_top" xlink:title=" ">
<polygon fill="white" stroke="#666666" points="401.75,-19.25 258.25,-19.25 258.25,0 401.75,0 401.75,-19.25"/>
<text text-anchor="middle" x="330" y="-5.75" font-family="Helvetica,sans-Serif" font-size="10.00">rcvsdk/ios/rcvsdk/RcvSDK.h</text>
</a>
</g>
</g>
<!-- Node1&#45;&gt;Node3 -->
<g id="edge7_Node000001_Node000003" class="edge">
<title>Node1&#45;&gt;Node3</title>
<g id="a_edge7_Node000001_Node000003"><a xlink:title=" ">
<path fill="none" stroke="#63b8ff" d="M268.75,-106.53C251.72,-99.91 235.14,-89.83 225,-74.5 206.75,-46.92 249.09,-29.32 285.34,-19.73"/>
<polygon fill="#63b8ff" stroke="#63b8ff" points="267.18,-110.04 277.78,-110.04 269.5,-103.43 267.18,-110.04"/>
</a>
</g>
</g>
<!-- Node4 -->
<g id="Node000004" class="node">
<title>Node4</title>
<g id="a_Node000004"><a xlink:href="_rcv_metal_video_view_8h.html" target="_top" xlink:title=" ">
<polygon fill="white" stroke="#666666" points="425.75,-74.5 234.25,-74.5 234.25,-55.25 425.75,-55.25 425.75,-74.5"/>
<text text-anchor="middle" x="330" y="-61" font-family="Helvetica,sans-Serif" font-size="10.00">rcvsdk/ios/rcvsdk/RcvMetalVideoView.h</text>
</a>
</g>
</g>
<!-- Node1&#45;&gt;Node4 -->
<g id="edge3_Node000001_Node000004" class="edge">
<title>Node1&#45;&gt;Node4</title>
<g id="a_edge3_Node000001_Node000004"><a xlink:title=" ">
<path fill="none" stroke="#63b8ff" d="M330,-99.46C330,-91.02 330,-81.58 330,-74.86"/>
<polygon fill="#63b8ff" stroke="#63b8ff" points="326.5,-99.33 330,-109.33 333.5,-99.33 326.5,-99.33"/>
</a>
</g>
</g>
<!-- Node5 -->
<g id="Node000005" class="node">
<title>Node5</title>
<g id="a_Node000005"><a xlink:href="_rcv_open_g_l_video_view_8h.html" target="_top" xlink:title=" ">
<polygon fill="white" stroke="#666666" points="646.38,-74.5 443.62,-74.5 443.62,-55.25 646.38,-55.25 646.38,-74.5"/>
<text text-anchor="middle" x="545" y="-61" font-family="Helvetica,sans-Serif" font-size="10.00">rcvsdk/ios/rcvsdk/RcvOpenGLVideoView.h</text>
</a>
</g>
</g>
<!-- Node1&#45;&gt;Node5 -->
<g id="edge5_Node000001_Node000005" class="edge">
<title>Node1&#45;&gt;Node5</title>
<g id="a_edge5_Node000001_Node000005"><a xlink:title=" ">
<path fill="none" stroke="#63b8ff" d="M376.9,-107.51C416.38,-97.73 472.07,-83.94 508.35,-74.95"/>
<polygon fill="#63b8ff" stroke="#63b8ff" points="376.34,-104.29 367.47,-110.09 378.02,-111.09 376.34,-104.29"/>
</a>
</g>
</g>
<!-- Node6 -->
<g id="Node000006" class="node">
<title>Node6</title>
<g id="a_Node000006"><a xlink:href="_rcv_sample_buffer_video_view_8h.html" target="_top" xlink:title=" ">
<polygon fill="white" stroke="#666666" points="891.38,-74.5 664.62,-74.5 664.62,-55.25 891.38,-55.25 891.38,-74.5"/>
<text text-anchor="middle" x="778" y="-61" font-family="Helvetica,sans-Serif" font-size="10.00">rcvsdk/ios/rcvsdk/RcvSampleBufferVideoView.h</text>
</a>
</g>
</g>
<!-- Node1&#45;&gt;Node6 -->
<g id="edge8_Node000001_Node000006" class="edge">
<title>Node1&#45;&gt;Node6</title>
<g id="a_edge8_Node000001_Node000006"><a xlink:title=" ">
<path fill="none" stroke="#63b8ff" d="M417.64,-108.71C500.24,-98.89 622.78,-84.32 701.53,-74.96"/>
<polygon fill="#63b8ff" stroke="#63b8ff" points="417.28,-105.35 407.76,-110 418.1,-112.3 417.28,-105.35"/>
</a>
</g>
</g>
<!-- Node2&#45;&gt;Node3 -->
<g id="edge2_Node000002_Node000003" class="edge">
<title>Node2&#45;&gt;Node3</title>
<g id="a_edge2_Node000002_Node000003"><a xlink:title=" ">
<path fill="none" stroke="#63b8ff" d="M140.72,-52.45C185.06,-42.65 248.09,-28.72 289.01,-19.68"/>
<polygon fill="#63b8ff" stroke="#63b8ff" points="140.16,-49.21 131.16,-54.78 141.68,-56.04 140.16,-49.21"/>
</a>
</g>
</g>
<!-- Node4&#45;&gt;Node3 -->
<g id="edge4_Node000004_Node000003" class="edge">
<title>Node4&#45;&gt;Node3</title>
<g id="a_edge4_Node000004_Node000003"><a xlink:title=" ">
<path fill="none" stroke="#63b8ff" d="M330,-44.21C330,-35.77 330,-26.33 330,-19.61"/>
<polygon fill="#63b8ff" stroke="#63b8ff" points="326.5,-44.08 330,-54.08 333.5,-44.08 326.5,-44.08"/>
</a>
</g>
</g>
<!-- Node5&#45;&gt;Node3 -->
<g id="edge6_Node000005_Node000003" class="edge">
<title>Node5&#45;&gt;Node3</title>
<g id="a_edge6_Node000005_Node000003"><a xlink:title=" ">
<path fill="none" stroke="#63b8ff" d="M498.1,-52.26C458.62,-42.48 402.93,-28.69 366.65,-19.7"/>
<polygon fill="#63b8ff" stroke="#63b8ff" points="496.98,-55.84 507.53,-54.84 498.66,-49.04 496.98,-55.84"/>
</a>
</g>
</g>
<!-- Node6&#45;&gt;Node3 -->
<g id="edge9_Node000006_Node000003" class="edge">
<title>Node6&#45;&gt;Node3</title>
<g id="a_edge9_Node000006_Node000003"><a xlink:title=" ">
<path fill="none" stroke="#63b8ff" d="M690.42,-53.46C606.24,-43.46 480.56,-28.52 402.03,-19.19"/>
<polygon fill="#63b8ff" stroke="#63b8ff" points="689.9,-57.05 700.24,-54.75 690.72,-50.1 689.9,-57.05"/>
</a>
</g>
</g>
</g>
</svg>
