<?xml version="1.0" encoding="UTF-8" standalone="no"?>
<!DOCTYPE svg PUBLIC "-//W3C//DTD SVG 1.1//EN"
 "http://www.w3.org/Graphics/SVG/1.1/DTD/svg11.dtd">
<!-- Generated by graphviz version 8.0.1 (20230327.1645)
 -->
<!-- Title: rcvsdk/ios/rcvsdk/RcvIParticipant.h Pages: 1 -->
<svg width="681pt" height="137pt"
 viewBox="0.00 0.00 680.50 137.00" xmlns="http://www.w3.org/2000/svg" xmlns:xlink="http://www.w3.org/1999/xlink">
<g id="graph0" class="graph" transform="scale(1 1) rotate(0) translate(4 133)">
<title>rcvsdk/ios/rcvsdk/RcvIParticipant.h</title>
<!-- Node1 -->
<g id="node1" class="node">
<title>Node1</title>
<g id="a_node1"><a xlink:title=" ">
<polygon fill="#999999" stroke="#666666" points="366.5,-129 193.5,-129 193.5,-110 366.5,-110 366.5,-129"/>
<text text-anchor="middle" x="280" y="-117" font-family="Helvetica,sans-Serif" font-size="10.00">rcvsdk/ios/rcvsdk/RcvIParticipant.h</text>
</a>
</g>
</g>
<!-- Node2 -->
<g id="node2" class="node">
<title>Node2</title>
<g id="a_node2"><a xlink:href="_rcv_e_echo_leak_type_8h.html" target="_top" xlink:title=" ">
<polygon fill="white" stroke="#666666" points="114,-74 0,-74 0,-55 114,-55 114,-74"/>
<text text-anchor="middle" x="57" y="-62" font-family="Helvetica,sans-Serif" font-size="10.00">RcvEEchoLeakType.h</text>
</a>
</g>
</g>
<!-- Node1&#45;&gt;Node2 -->
<g id="edge1" class="edge">
<title>Node1&#45;&gt;Node2</title>
<path fill="none" stroke="#63b8ff" d="M242.17,-109.51C204.41,-100.54 146.26,-86.71 105.21,-76.96"/>
<polygon fill="#63b8ff" stroke="#63b8ff" points="106.18,-73.35 95.64,-74.45 104.56,-80.16 106.18,-73.35"/>
</g>
<!-- Node3 -->
<g id="node3" class="node">
<title>Node3</title>
<g id="a_node3"><a xlink:title=" ">
<polygon fill="#e0e0e0" stroke="#999999" points="342,-19 218,-19 218,0 342,0 342,-19"/>
<text text-anchor="middle" x="280" y="-7" font-family="Helvetica,sans-Serif" font-size="10.00">Foundation/Foundation.h</text>
</a>
</g>
</g>
<!-- Node1&#45;&gt;Node3 -->
<g id="edge11" class="edge">
<title>Node1&#45;&gt;Node3</title>
<path fill="none" stroke="#63b8ff" d="M216.23,-109.54C195.11,-103.2 173.76,-92.4 161,-74 142.82,-47.79 177.67,-31.5 214.26,-21.99"/>
<polygon fill="#63b8ff" stroke="#63b8ff" points="214.7,-25.24 223.59,-19.48 213.05,-18.44 214.7,-25.24"/>
</g>
<!-- Node4 -->
<g id="node4" class="node">
<title>Node4</title>
<g id="a_node4"><a xlink:href="_rcv_e_nqi_status_8h.html" target="_top" xlink:title=" ">
<polygon fill="white" stroke="#666666" points="263.5,-74 170.5,-74 170.5,-55 263.5,-55 263.5,-74"/>
<text text-anchor="middle" x="217" y="-62" font-family="Helvetica,sans-Serif" font-size="10.00">RcvENqiStatus.h</text>
</a>
</g>
</g>
<!-- Node1&#45;&gt;Node4 -->
<g id="edge3" class="edge">
<title>Node1&#45;&gt;Node4</title>
<path fill="none" stroke="#63b8ff" d="M269.31,-109.51C260.12,-101.77 246.64,-90.43 235.66,-81.2"/>
<polygon fill="#63b8ff" stroke="#63b8ff" points="238.43,-78.12 228.53,-74.36 233.93,-83.47 238.43,-78.12"/>
</g>
<!-- Node5 -->
<g id="node5" class="node">
<title>Node5</title>
<g id="a_node5"><a xlink:href="_rcv_e_participant_status_8h.html" target="_top" xlink:title=" ">
<polygon fill="white" stroke="#666666" points="406.5,-74 281.5,-74 281.5,-55 406.5,-55 406.5,-74"/>
<text text-anchor="middle" x="344" y="-62" font-family="Helvetica,sans-Serif" font-size="10.00">RcvEParticipantStatus.h</text>
</a>
</g>
</g>
<!-- Node1&#45;&gt;Node5 -->
<g id="edge5" class="edge">
<title>Node1&#45;&gt;Node5</title>
<path fill="none" stroke="#63b8ff" d="M290.86,-109.51C300.2,-101.77 313.89,-90.43 325.04,-81.2"/>
<polygon fill="#63b8ff" stroke="#63b8ff" points="326.83,-83.43 332.3,-74.36 322.37,-78.04 326.83,-83.43"/>
</g>
<!-- Node6 -->
<g id="node6" class="node">
<title>Node6</title>
<g id="a_node6"><a xlink:href="_rcv_e_reaction_action_8h.html" target="_top" xlink:title=" ">
<polygon fill="white" stroke="#666666" points="541,-74 425,-74 425,-55 541,-55 541,-74"/>
<text text-anchor="middle" x="483" y="-62" font-family="Helvetica,sans-Serif" font-size="10.00">RcvEReactionAction.h</text>
</a>
</g>
</g>
<!-- Node1&#45;&gt;Node6 -->
<g id="edge7" class="edge">
<title>Node1&#45;&gt;Node6</title>
<path fill="none" stroke="#63b8ff" d="M314.44,-109.51C348.51,-100.61 400.85,-86.95 438.16,-77.21"/>
<polygon fill="#63b8ff" stroke="#63b8ff" points="438.94,-80.36 447.73,-74.45 437.17,-73.59 438.94,-80.36"/>
</g>
<!-- Node7 -->
<g id="node7" class="node">
<title>Node7</title>
<g id="a_node7"><a xlink:href="_rcv_e_stream_activity_8h.html" target="_top" xlink:title=" ">
<polygon fill="white" stroke="#666666" points="672.5,-74 559.5,-74 559.5,-55 672.5,-55 672.5,-74"/>
<text text-anchor="middle" x="616" y="-62" font-family="Helvetica,sans-Serif" font-size="10.00">RcvEStreamActivity.h</text>
</a>
</g>
</g>
<!-- Node1&#45;&gt;Node7 -->
<g id="edge9" class="edge">
<title>Node1&#45;&gt;Node7</title>
<path fill="none" stroke="#63b8ff" d="M337,-109.51C395.37,-100.3 486.11,-85.99 548.15,-76.2"/>
<polygon fill="#63b8ff" stroke="#63b8ff" points="548.67,-79.51 558,-74.49 547.58,-72.59 548.67,-79.51"/>
</g>
<!-- Node2&#45;&gt;Node3 -->
<g id="edge2" class="edge">
<title>Node2&#45;&gt;Node3</title>
<path fill="none" stroke="#63b8ff" d="M94.83,-54.51C132.59,-45.54 190.74,-31.71 231.79,-21.96"/>
<polygon fill="#63b8ff" stroke="#63b8ff" points="232.44,-25.16 241.36,-19.45 230.82,-18.35 232.44,-25.16"/>
</g>
<!-- Node4&#45;&gt;Node3 -->
<g id="edge4" class="edge">
<title>Node4&#45;&gt;Node3</title>
<path fill="none" stroke="#63b8ff" d="M227.69,-54.51C236.88,-46.77 250.36,-35.43 261.34,-26.2"/>
<polygon fill="#63b8ff" stroke="#63b8ff" points="263.07,-28.47 268.47,-19.36 258.57,-23.12 263.07,-28.47"/>
</g>
<!-- Node5&#45;&gt;Node3 -->
<g id="edge6" class="edge">
<title>Node5&#45;&gt;Node3</title>
<path fill="none" stroke="#63b8ff" d="M333.14,-54.51C323.8,-46.77 310.11,-35.43 298.96,-26.2"/>
<polygon fill="#63b8ff" stroke="#63b8ff" points="301.63,-23.04 291.7,-19.36 297.17,-28.43 301.63,-23.04"/>
</g>
<!-- Node6&#45;&gt;Node3 -->
<g id="edge8" class="edge">
<title>Node6&#45;&gt;Node3</title>
<path fill="none" stroke="#63b8ff" d="M448.56,-54.51C414.49,-45.61 362.15,-31.95 324.84,-22.21"/>
<polygon fill="#63b8ff" stroke="#63b8ff" points="325.83,-18.59 315.27,-19.45 324.06,-25.36 325.83,-18.59"/>
</g>
<!-- Node7&#45;&gt;Node3 -->
<g id="edge10" class="edge">
<title>Node7&#45;&gt;Node3</title>
<path fill="none" stroke="#63b8ff" d="M559,-54.51C500.63,-45.3 409.89,-30.99 347.85,-21.2"/>
<polygon fill="#63b8ff" stroke="#63b8ff" points="348.42,-17.59 338,-19.49 347.33,-24.51 348.42,-17.59"/>
</g>
</g>
</svg>
