<?xml version="1.0" encoding="UTF-8" standalone="no"?>
<!DOCTYPE svg PUBLIC "-//W3C//DTD SVG 1.1//EN"
 "http://www.w3.org/Graphics/SVG/1.1/DTD/svg11.dtd">
<!-- Generated by graphviz version 8.0.5 (20230430.1635)
 -->
<!-- Title: rcvsdk/ios/rcvsdk/RcvChatPrivilege.h Pages: 1 -->
<svg width="277pt" height="138pt"
 viewBox="0.00 0.00 277.12 137.75" xmlns="http://www.w3.org/2000/svg" xmlns:xlink="http://www.w3.org/1999/xlink">
<g id="graph0" class="graph" transform="scale(1 1) rotate(0) translate(4 133.75)">
<title>rcvsdk/ios/rcvsdk/RcvChatPrivilege.h</title>
<!-- Node1 -->
<g id="Node000001" class="node">
<title>Node1</title>
<g id="a_Node000001"><a xlink:title=" ">
<polygon fill="#999999" stroke="#666666" points="269.12,-129.75 88.12,-129.75 88.12,-110.5 269.12,-110.5 269.12,-129.75"/>
<text text-anchor="middle" x="178.62" y="-116.25" font-family="Helvetica,sans-Serif" font-size="10.00">rcvsdk/ios/rcvsdk/RcvChatPrivilege.h</text>
</a>
</g>
</g>
<!-- Node2 -->
<g id="Node000002" class="node">
<title>Node2</title>
<g id="a_Node000002"><a xlink:href="_rcv_meeting_chat_controller_8h.html" target="_top" xlink:title=" ">
<polygon fill="white" stroke="#666666" points="219.25,-74.5 0,-74.5 0,-55.25 219.25,-55.25 219.25,-74.5"/>
<text text-anchor="middle" x="109.62" y="-61" font-family="Helvetica,sans-Serif" font-size="10.00">rcvsdk/ios/rcvsdk/RcvMeetingChatController.h</text>
</a>
</g>
</g>
<!-- Node1&#45;&gt;Node2 -->
<g id="edge1_Node000001_Node000002" class="edge">
<title>Node1&#45;&gt;Node2</title>
<g id="a_edge1_Node000001_Node000002"><a xlink:title=" ">
<path fill="none" stroke="#63b8ff" d="M158.34,-103.47C146.22,-94.12 131.27,-82.58 121.16,-74.77"/>
<polygon fill="#63b8ff" stroke="#63b8ff" points="155.87,-106.75 165.92,-110.09 160.14,-101.21 155.87,-106.75"/>
</a>
</g>
</g>
<!-- Node3 -->
<g id="Node000003" class="node">
<title>Node3</title>
<g id="a_Node000003"><a xlink:href="_rcv_s_d_k_8h.html" target="_top" xlink:title=" ">
<polygon fill="white" stroke="#666666" points="250.38,-19.25 106.88,-19.25 106.88,0 250.38,0 250.38,-19.25"/>
<text text-anchor="middle" x="178.62" y="-5.75" font-family="Helvetica,sans-Serif" font-size="10.00">rcvsdk/ios/rcvsdk/RcvSDK.h</text>
</a>
</g>
</g>
<!-- Node1&#45;&gt;Node3 -->
<g id="edge3_Node000001_Node000003" class="edge">
<title>Node1&#45;&gt;Node3</title>
<g id="a_edge3_Node000001_Node000003"><a xlink:title=" ">
<path fill="none" stroke="#63b8ff" d="M203.29,-103.9C213.1,-96.38 223.31,-86.37 228.62,-74.5 238.53,-52.39 212.55,-31.16 194.44,-19.6"/>
<polygon fill="#63b8ff" stroke="#63b8ff" points="201.69,-101.45 195.54,-110.08 205.73,-107.16 201.69,-101.45"/>
</a>
</g>
</g>
<!-- Node2&#45;&gt;Node3 -->
<g id="edge2_Node000002_Node000003" class="edge">
<title>Node2&#45;&gt;Node3</title>
<g id="a_edge2_Node000002_Node000003"><a xlink:title=" ">
<path fill="none" stroke="#63b8ff" d="M129.91,-48.22C142.03,-38.87 156.98,-27.33 167.09,-19.52"/>
<polygon fill="#63b8ff" stroke="#63b8ff" points="128.11,-45.96 122.33,-54.84 132.38,-51.5 128.11,-45.96"/>
</a>
</g>
</g>
</g>
</svg>
