<?xml version="1.0" encoding="UTF-8" standalone="no"?>
<!DOCTYPE svg PUBLIC "-//W3C//DTD SVG 1.1//EN"
 "http://www.w3.org/Graphics/SVG/1.1/DTD/svg11.dtd">
<!-- Generated by graphviz version 8.0.5 (20230430.1635)
 -->
<!-- Title: rcvsdk/ios/rcvsdk/RcvVideoCanvas.h Pages: 1 -->
<svg width="189pt" height="138pt"
 viewBox="0.00 0.00 189.00 137.75" xmlns="http://www.w3.org/2000/svg" xmlns:xlink="http://www.w3.org/1999/xlink">

<svg id="main" version="1.1" xmlns="http://www.w3.org/2000/svg" xmlns:xlink="http://www.w3.org/1999/xlink" xml:space="preserve" onload="init(evt)">
<style type="text/css"><![CDATA[
.node, .edge {opacity: 0.7;}
.node.selected, .edge.selected {opacity: 1;}
.edge:hover path { stroke: red; }
.edge:hover polygon { stroke: red; fill: red; }
]]></style>
<script type="application/ecmascript" xlink:href="svg.min.js"/>
<svg id="graph" class="graph">
<g id="graph0" class="graph" transform="scale(1 1) rotate(0) translate(4 133.75)">
<title>rcvsdk/ios/rcvsdk/RcvVideoCanvas.h</title>
<!-- Node1 -->
<g id="Node000001" class="node">
<title>Node1</title>
<g id="a_Node000001"><a xlink:title=" ">
<polygon fill="#999999" stroke="#666666" points="181,-129.75 0,-129.75 0,-110.5 181,-110.5 181,-129.75"/>
<text text-anchor="middle" x="90.5" y="-116.25" font-family="Helvetica,sans-Serif" font-size="10.00">rcvsdk/ios/rcvsdk/RcvVideoCanvas.h</text>
</a>
</g>
</g>
<!-- Node2 -->
<g id="Node000002" class="node">
<title>Node2</title>
<g id="a_Node000002"><a xlink:href="_rcv_render_mode_8h.html" target="_top" xlink:title=" ">
<polygon fill="white" stroke="#666666" points="101.38,-74.5 3.62,-74.5 3.62,-55.25 101.38,-55.25 101.38,-74.5"/>
<text text-anchor="middle" x="52.5" y="-61" font-family="Helvetica,sans-Serif" font-size="10.00">RcvRenderMode.h</text>
</a>
</g>
</g>
<!-- Node1&#45;&gt;Node2 -->
<g id="edge1_Node000001_Node000002" class="edge">
<title>Node1&#45;&gt;Node2</title>
<g id="a_edge1_Node000001_Node000002"><a xlink:title=" ">
<path fill="none" stroke="#63b8ff" d="M84.23,-110.33C79.09,-103.13 71.65,-92.71 65.26,-83.76"/>
<polygon fill="#63b8ff" stroke="#63b8ff" points="67.57,-81.97 58.91,-75.86 61.87,-86.03 67.57,-81.97"/>
</a>
</g>
</g>
<!-- Node3 -->
<g id="Node000003" class="node">
<title>Node3</title>
<g id="a_Node000003"><a xlink:title=" ">
<polygon fill="#e0e0e0" stroke="#999999" points="152.12,-19.25 28.88,-19.25 28.88,0 152.12,0 152.12,-19.25"/>
<text text-anchor="middle" x="90.5" y="-5.75" font-family="Helvetica,sans-Serif" font-size="10.00">Foundation/Foundation.h</text>
</a>
</g>
</g>
<!-- Node1&#45;&gt;Node3 -->
<g id="edge3_Node000001_Node000003" class="edge">
<title>Node1&#45;&gt;Node3</title>
<g id="a_edge3_Node000001_Node000003"><a xlink:title=" ">
<path fill="none" stroke="#63b8ff" d="M96.39,-110.17C103.72,-97.94 114.78,-75.25 110.5,-55.25 108.57,-46.23 104.68,-36.83 100.84,-29"/>
<polygon fill="#63b8ff" stroke="#63b8ff" points="103.57,-27.69 95.82,-20.47 97.38,-30.95 103.57,-27.69"/>
</a>
</g>
</g>
<!-- Node2&#45;&gt;Node3 -->
<g id="edge2_Node000002_Node000003" class="edge">
<title>Node2&#45;&gt;Node3</title>
<g id="a_edge2_Node000002_Node000003"><a xlink:title=" ">
<path fill="none" stroke="#63b8ff" d="M58.77,-55.08C63.91,-47.88 71.35,-37.46 77.74,-28.51"/>
<polygon fill="#63b8ff" stroke="#63b8ff" points="81.13,-30.78 84.09,-20.61 75.43,-26.72 81.13,-30.78"/>
</a>
</g>
</g>
</g>
</svg>
</svg>

<style type='text/css'>
<![CDATA[
[data-mouse-over-selected='false'] { opacity: 0.7; }
[data-mouse-over-selected='true']  { opacity: 1.0; }
]]>
</style>
<script type="application/ecmascript"><![CDATA[
document.addEventListener('DOMContentLoaded', (event) => {
  highlightEdges();
  highlightAdjacentNodes();
});
]]></script>
</svg>
