<?xml version="1.0" encoding="UTF-8" standalone="no"?>
<!DOCTYPE svg PUBLIC "-//W3C//DTD SVG 1.1//EN"
 "http://www.w3.org/Graphics/SVG/1.1/DTD/svg11.dtd">
<!-- Generated by graphviz version 8.0.1 (20230327.1645)
 -->
<!-- Title: rcvsdk/ios/rcvsdk/RcvAudioController.h Pages: 1 -->
<svg width="226pt" height="137pt"
 viewBox="0.00 0.00 225.50 137.00" xmlns="http://www.w3.org/2000/svg" xmlns:xlink="http://www.w3.org/1999/xlink">
<g id="graph0" class="graph" transform="scale(1 1) rotate(0) translate(4 133)">
<title>rcvsdk/ios/rcvsdk/RcvAudioController.h</title>
<!-- Node1 -->
<g id="node1" class="node">
<title>Node1</title>
<g id="a_node1"><a xlink:title=" ">
<polygon fill="#999999" stroke="#666666" points="217.5,-129 28.5,-129 28.5,-110 217.5,-110 217.5,-129"/>
<text text-anchor="middle" x="123" y="-117" font-family="Helvetica,sans-Serif" font-size="10.00">rcvsdk/ios/rcvsdk/RcvAudioController.h</text>
</a>
</g>
</g>
<!-- Node2 -->
<g id="node2" class="node">
<title>Node2</title>
<g id="a_node2"><a xlink:href="_rcv_local_audio_stream_state_8h.html" target="_top" xlink:title=" ">
<polygon fill="white" stroke="#666666" points="146,-74 0,-74 0,-55 146,-55 146,-74"/>
<text text-anchor="middle" x="73" y="-62" font-family="Helvetica,sans-Serif" font-size="10.00">RcvLocalAudioStreamState.h</text>
</a>
</g>
</g>
<!-- Node1&#45;&gt;Node2 -->
<g id="edge1" class="edge">
<title>Node1&#45;&gt;Node2</title>
<path fill="none" stroke="#63b8ff" d="M114.74,-109.75C107.69,-102.27 97.35,-91.32 88.73,-82.17"/>
<polygon fill="#63b8ff" stroke="#63b8ff" points="91.84,-80.31 82.44,-75.44 86.75,-85.12 91.84,-80.31"/>
</g>
<!-- Node3 -->
<g id="node3" class="node">
<title>Node3</title>
<g id="a_node3"><a xlink:title=" ">
<polygon fill="#e0e0e0" stroke="#999999" points="185,-19 61,-19 61,0 185,0 185,-19"/>
<text text-anchor="middle" x="123" y="-7" font-family="Helvetica,sans-Serif" font-size="10.00">Foundation/Foundation.h</text>
</a>
</g>
</g>
<!-- Node1&#45;&gt;Node3 -->
<g id="edge3" class="edge">
<title>Node1&#45;&gt;Node3</title>
<path fill="none" stroke="#63b8ff" d="M132.05,-109.58C139.84,-101.22 150.51,-87.95 155,-74 160.36,-57.36 150,-39.7 139.67,-27.23"/>
<polygon fill="#63b8ff" stroke="#63b8ff" points="142.68,-25.24 133.37,-20.17 137.48,-29.93 142.68,-25.24"/>
</g>
<!-- Node2&#45;&gt;Node3 -->
<g id="edge2" class="edge">
<title>Node2&#45;&gt;Node3</title>
<path fill="none" stroke="#63b8ff" d="M81.26,-54.75C88.31,-47.27 98.65,-36.32 107.27,-27.17"/>
<polygon fill="#63b8ff" stroke="#63b8ff" points="109.25,-30.12 113.56,-20.44 104.16,-25.31 109.25,-30.12"/>
</g>
</g>
</svg>
