<?xml version="1.0" encoding="UTF-8" standalone="no"?>
<!DOCTYPE svg PUBLIC "-//W3C//DTD SVG 1.1//EN"
 "http://www.w3.org/Graphics/SVG/1.1/DTD/svg11.dtd">
<!-- Generated by graphviz version 8.0.4 (20230421.1958)
 -->
<!-- Title: rcvsdk/ios/rcvsdk/RcvSharingSettings.h Pages: 1 -->
<svg width="222pt" height="138pt"
 viewBox="0.00 0.00 222.00 137.75" xmlns="http://www.w3.org/2000/svg" xmlns:xlink="http://www.w3.org/1999/xlink">
<g id="graph0" class="graph" transform="scale(1 1) rotate(0) translate(4 133.75)">
<title>rcvsdk/ios/rcvsdk/RcvSharingSettings.h</title>
<!-- Node1 -->
<g id="node1" class="node">
<title>Node1</title>
<g id="a_node1"><a xlink:title=" ">
<polygon fill="#999999" stroke="#666666" points="202.75,-129.75 11.25,-129.75 11.25,-110.5 202.75,-110.5 202.75,-129.75"/>
<text text-anchor="middle" x="107" y="-116.25" font-family="Helvetica,sans-Serif" font-size="10.00">rcvsdk/ios/rcvsdk/RcvSharingSettings.h</text>
</a>
</g>
</g>
<!-- Node2 -->
<g id="node2" class="node">
<title>Node2</title>
<g id="a_node2"><a xlink:href="_rcv_sharing_event_handler_8h.html" target="_top" xlink:title=" ">
<polygon fill="white" stroke="#666666" points="214,-74.5 0,-74.5 0,-55.25 214,-55.25 214,-74.5"/>
<text text-anchor="middle" x="107" y="-61" font-family="Helvetica,sans-Serif" font-size="10.00">rcvsdk/ios/rcvsdk/RcvSharingEventHandler.h</text>
</a>
</g>
</g>
<!-- Node1&#45;&gt;Node2 -->
<g id="edge1" class="edge">
<title>Node1&#45;&gt;Node2</title>
<path fill="none" stroke="#63b8ff" d="M107,-99.46C107,-91.02 107,-81.58 107,-74.86"/>
<polygon fill="#63b8ff" stroke="#63b8ff" points="103.5,-99.33 107,-109.33 110.5,-99.33 103.5,-99.33"/>
</g>
<!-- Node3 -->
<g id="node3" class="node">
<title>Node3</title>
<g id="a_node3"><a xlink:href="_rcv_s_d_k_8h.html" target="_top" xlink:title=" ">
<polygon fill="white" stroke="#666666" points="178.75,-19.25 35.25,-19.25 35.25,0 178.75,0 178.75,-19.25"/>
<text text-anchor="middle" x="107" y="-5.75" font-family="Helvetica,sans-Serif" font-size="10.00">rcvsdk/ios/rcvsdk/RcvSDK.h</text>
</a>
</g>
</g>
<!-- Node2&#45;&gt;Node3 -->
<g id="edge2" class="edge">
<title>Node2&#45;&gt;Node3</title>
<path fill="none" stroke="#63b8ff" d="M107,-44.21C107,-35.77 107,-26.33 107,-19.61"/>
<polygon fill="#63b8ff" stroke="#63b8ff" points="103.5,-44.08 107,-54.08 110.5,-44.08 103.5,-44.08"/>
</g>
</g>
</svg>
