<?xml version="1.0" encoding="UTF-8" standalone="no"?>
<!DOCTYPE svg PUBLIC "-//W3C//DTD SVG 1.1//EN"
 "http://www.w3.org/Graphics/SVG/1.1/DTD/svg11.dtd">
<!-- Generated by graphviz version 8.0.1 (20230327.1645)
 -->
<!-- Title: rcvsdk/ios/rcvsdk/RcvMeetingEventHandler.h Pages: 1 -->
<!--zoomable 137 -->
<svg id="main" version="1.1" xmlns="http://www.w3.org/2000/svg" xmlns:xlink="http://www.w3.org/1999/xlink" xml:space="preserve" onload="init(evt)">
<style type="text/css"><![CDATA[
.edge:hover path { stroke: red; }
.edge:hover polygon { stroke: red; fill: red; }
]]></style>
<script type="text/javascript"><![CDATA[
var edges = document.getElementsByTagName('g');
if (edges && edges.length) {
  for (var i=0;i<edges.length;i++) {
    if (edges[i].id.substr(0,4)=='edge') {
      edges[i].setAttribute('class','edge');
    }
  }
}
]]></script>
        <defs>
                <circle id="rim" cx="0" cy="0" r="7"/>
                <circle id="rim2" cx="0" cy="0" r="3.5"/>
                <g id="zoomPlus">
                        <use xlink:href="#rim" fill="#404040">
                                <set attributeName="fill" to="#808080" begin="zoomplus.mouseover" end="zoomplus.mouseout"/>
                        </use>
                        <path d="M-4,0h8M0,-4v8" fill="none" stroke="white" stroke-width="1.5" pointer-events="none"/>
                </g>
                <g id="zoomMin">
                        <use xlink:href="#rim" fill="#404040">
                                <set attributeName="fill" to="#808080" begin="zoomminus.mouseover" end="zoomminus.mouseout"/>
                        </use>
                        <path d="M-4,0h8" fill="none" stroke="white" stroke-width="1.5" pointer-events="none"/>
                </g>
                <g id="dirArrow">
                        <path fill="none" stroke="white" stroke-width="1.5" d="M0,-3.0v7 M-2.5,-0.5L0,-3.0L2.5,-0.5"/>
                </g>
               <g id="resetDef">
                       <use xlink:href="#rim2" fill="#404040">
                               <set attributeName="fill" to="#808080" begin="reset.mouseover" end="reset.mouseout"/>
                       </use>
               </g>
        </defs>

<script type="text/javascript">
var viewWidth = 1177;
var viewHeight = 137;
var sectionId = 'dynsection-0';
</script>
<script xlink:href="svgpan.js"/>
<svg id="graph" class="graph">
<g id="viewport">
<title>rcvsdk/ios/rcvsdk/RcvMeetingEventHandler.h</title>
<!-- Node1 -->
<g id="node1" class="node">
<title>Node1</title>
<g id="a_node1"><a xlink:title=" ">
<polygon fill="#999999" stroke="#666666" points="655,-129 439,-129 439,-110 655,-110 655,-129"/>
<text text-anchor="middle" x="547" y="-117" font-family="Helvetica,sans-Serif" font-size="10.00">rcvsdk/ios/rcvsdk/RcvMeetingEventHandler.h</text>
</a>
</g>
</g>
<!-- Node2 -->
<g id="node2" class="node">
<title>Node2</title>
<g id="a_node2"><a xlink:href="_rcv_closed_captions_state_8h.html" target="_top" xlink:title=" ">
<polygon fill="white" stroke="#666666" points="136,-74 0,-74 0,-55 136,-55 136,-74"/>
<text text-anchor="middle" x="68" y="-62" font-family="Helvetica,sans-Serif" font-size="10.00">RcvClosedCaptionsState.h</text>
</a>
</g>
</g>
<!-- Node1&#45;&gt;Node2 -->
<g id="edge1" class="edge">
<title>Node1&#45;&gt;Node2</title>
<path fill="none" stroke="#63b8ff" d="M465.74,-109.51C376.83,-99.67 235.26,-84.01 147.18,-74.26"/>
<polygon fill="#63b8ff" stroke="#63b8ff" points="147.77,-70.69 137.44,-73.07 147,-77.65 147.77,-70.69"/>
</g>
<!-- Node3 -->
<g id="node3" class="node">
<title>Node3</title>
<g id="a_node3"><a xlink:title=" ">
<polygon fill="#e0e0e0" stroke="#999999" points="609,-19 485,-19 485,0 609,0 609,-19"/>
<text text-anchor="middle" x="547" y="-7" font-family="Helvetica,sans-Serif" font-size="10.00">Foundation/Foundation.h</text>
</a>
</g>
</g>
<!-- Node1&#45;&gt;Node3 -->
<g id="edge15" class="edge">
<title>Node1&#45;&gt;Node3</title>
<path fill="none" stroke="#63b8ff" d="M438.95,-112.46C337.85,-105.68 199.88,-93.07 183,-74 143.16,-28.99 356.7,-15.85 474.01,-12.04"/>
<polygon fill="#63b8ff" stroke="#63b8ff" points="473.82,-15.52 483.71,-11.71 473.6,-8.52 473.82,-15.52"/>
</g>
<!-- Node4 -->
<g id="node4" class="node">
<title>Node4</title>
<g id="a_node4"><a xlink:href="_rcv_end_to_end_encryption_state_8h.html" target="_top" xlink:title=" ">
<polygon fill="white" stroke="#666666" points="350,-74 192,-74 192,-55 350,-55 350,-74"/>
<text text-anchor="middle" x="271" y="-62" font-family="Helvetica,sans-Serif" font-size="10.00">RcvEndToEndEncryptionState.h</text>
</a>
</g>
</g>
<!-- Node1&#45;&gt;Node4 -->
<g id="edge3" class="edge">
<title>Node1&#45;&gt;Node4</title>
<path fill="none" stroke="#63b8ff" d="M500.18,-109.51C452.65,-100.38 379.01,-86.24 328.09,-76.46"/>
<polygon fill="#63b8ff" stroke="#63b8ff" points="329.07,-72.89 318.59,-74.45 327.75,-79.77 329.07,-72.89"/>
</g>
<!-- Node5 -->
<g id="node5" class="node">
<title>Node5</title>
<g id="a_node5"><a xlink:href="_rcv_live_transcription_data_type_8h.html" target="_top" xlink:title=" ">
<polygon fill="white" stroke="#666666" points="527.5,-74 368.5,-74 368.5,-55 527.5,-55 527.5,-74"/>
<text text-anchor="middle" x="448" y="-62" font-family="Helvetica,sans-Serif" font-size="10.00">RcvLiveTranscriptionDataType.h</text>
</a>
</g>
</g>
<!-- Node1&#45;&gt;Node5 -->
<g id="edge5" class="edge">
<title>Node1&#45;&gt;Node5</title>
<path fill="none" stroke="#63b8ff" d="M530.21,-109.51C514.75,-101.24 491.6,-88.84 473.8,-79.31"/>
<polygon fill="#63b8ff" stroke="#63b8ff" points="476.01,-75.99 465.55,-74.36 472.71,-82.16 476.01,-75.99"/>
</g>
<!-- Node6 -->
<g id="node6" class="node">
<title>Node6</title>
<g id="a_node6"><a xlink:href="_rcv_live_transcription_update_history_type_8h.html" target="_top" xlink:title=" ">
<polygon fill="white" stroke="#666666" points="746.5,-74 545.5,-74 545.5,-55 746.5,-55 746.5,-74"/>
<text text-anchor="middle" x="646" y="-62" font-family="Helvetica,sans-Serif" font-size="10.00">RcvLiveTranscriptionUpdateHistoryType.h</text>
</a>
</g>
</g>
<!-- Node1&#45;&gt;Node6 -->
<g id="edge7" class="edge">
<title>Node1&#45;&gt;Node6</title>
<path fill="none" stroke="#63b8ff" d="M563.79,-109.51C579.25,-101.24 602.4,-88.84 620.2,-79.31"/>
<polygon fill="#63b8ff" stroke="#63b8ff" points="621.29,-82.16 628.45,-74.36 617.99,-75.99 621.29,-82.16"/>
</g>
<!-- Node7 -->
<g id="node7" class="node">
<title>Node7</title>
<g id="a_node7"><a xlink:href="_rcv_meeting_api_execute_result_8h.html" target="_top" xlink:title=" ">
<polygon fill="white" stroke="#666666" points="921,-74 765,-74 765,-55 921,-55 921,-74"/>
<text text-anchor="middle" x="843" y="-62" font-family="Helvetica,sans-Serif" font-size="10.00">RcvMeetingApiExecuteResult.h</text>
</a>
</g>
</g>
<!-- Node1&#45;&gt;Node7 -->
<g id="edge9" class="edge">
<title>Node1&#45;&gt;Node7</title>
<path fill="none" stroke="#63b8ff" d="M597.21,-109.51C648.4,-100.34 727.82,-86.12 782.46,-76.34"/>
<polygon fill="#63b8ff" stroke="#63b8ff" points="782.81,-79.65 792.04,-74.45 781.58,-72.76 782.81,-79.65"/>
</g>
<!-- Node8 -->
<g id="node8" class="node">
<title>Node8</title>
<g id="a_node8"><a xlink:href="_rcv_meeting_state_8h.html" target="_top" xlink:title=" ">
<polygon fill="white" stroke="#666666" points="1040.5,-74 939.5,-74 939.5,-55 1040.5,-55 1040.5,-74"/>
<text text-anchor="middle" x="990" y="-62" font-family="Helvetica,sans-Serif" font-size="10.00">RcvMeetingState.h</text>
</a>
</g>
</g>
<!-- Node1&#45;&gt;Node8 -->
<g id="edge11" class="edge">
<title>Node1&#45;&gt;Node8</title>
<path fill="none" stroke="#63b8ff" d="M629.63,-109.5C704.82,-101.18 819.18,-88.17 928.69,-74.14"/>
<polygon fill="#63b8ff" stroke="#63b8ff" points="928.8,-77.52 938.27,-72.78 927.91,-70.58 928.8,-77.52"/>
</g>
<!-- Node9 -->
<g id="node9" class="node">
<title>Node9</title>
<g id="a_node9"><a xlink:href="_rcv_recording_state_8h.html" target="_top" xlink:title=" ">
<polygon fill="white" stroke="#666666" points="1169,-74 1059,-74 1059,-55 1169,-55 1169,-74"/>
<text text-anchor="middle" x="1114" y="-62" font-family="Helvetica,sans-Serif" font-size="10.00">RcvRecordingState.h</text>
</a>
</g>
</g>
<!-- Node1&#45;&gt;Node9 -->
<g id="edge13" class="edge">
<title>Node1&#45;&gt;Node9</title>
<path fill="none" stroke="#63b8ff" d="M655.07,-110.32C754.53,-102.47 906.43,-89.68 1047.91,-74.19"/>
<polygon fill="#63b8ff" stroke="#63b8ff" points="1047.96,-77.59 1057.52,-73.02 1047.19,-70.64 1047.96,-77.59"/>
</g>
<!-- Node2&#45;&gt;Node3 -->
<g id="edge2" class="edge">
<title>Node2&#45;&gt;Node3</title>
<path fill="none" stroke="#63b8ff" d="M136.37,-55.93C225.8,-46.04 381.84,-28.77 473.65,-18.62"/>
<polygon fill="#63b8ff" stroke="#63b8ff" points="473.97,-21.99 483.52,-17.41 473.2,-15.03 473.97,-21.99"/>
</g>
<!-- Node4&#45;&gt;Node3 -->
<g id="edge4" class="edge">
<title>Node4&#45;&gt;Node3</title>
<path fill="none" stroke="#63b8ff" d="M317.82,-54.51C365.35,-45.38 438.99,-31.24 489.91,-21.46"/>
<polygon fill="#63b8ff" stroke="#63b8ff" points="490.25,-24.77 499.41,-19.45 488.93,-17.89 490.25,-24.77"/>
</g>
<!-- Node5&#45;&gt;Node3 -->
<g id="edge6" class="edge">
<title>Node5&#45;&gt;Node3</title>
<path fill="none" stroke="#63b8ff" d="M464.79,-54.51C480.25,-46.24 503.4,-33.84 521.2,-24.31"/>
<polygon fill="#63b8ff" stroke="#63b8ff" points="522.29,-27.16 529.45,-19.36 518.99,-20.99 522.29,-27.16"/>
</g>
<!-- Node6&#45;&gt;Node3 -->
<g id="edge8" class="edge">
<title>Node6&#45;&gt;Node3</title>
<path fill="none" stroke="#63b8ff" d="M629.21,-54.51C613.75,-46.24 590.6,-33.84 572.8,-24.31"/>
<polygon fill="#63b8ff" stroke="#63b8ff" points="575.01,-20.99 564.55,-19.36 571.71,-27.16 575.01,-20.99"/>
</g>
<!-- Node7&#45;&gt;Node3 -->
<g id="edge10" class="edge">
<title>Node7&#45;&gt;Node3</title>
<path fill="none" stroke="#63b8ff" d="M792.79,-54.51C741.6,-45.34 662.18,-31.12 607.54,-21.34"/>
<polygon fill="#63b8ff" stroke="#63b8ff" points="608.42,-17.76 597.96,-19.45 607.19,-24.65 608.42,-17.76"/>
</g>
<!-- Node8&#45;&gt;Node3 -->
<g id="edge12" class="edge">
<title>Node8&#45;&gt;Node3</title>
<path fill="none" stroke="#63b8ff" d="M939.27,-56.22C936.14,-55.8 933.03,-55.39 930,-55 822.21,-41.1 697.08,-26.93 619.97,-18.43"/>
<polygon fill="#63b8ff" stroke="#63b8ff" points="620.74,-14.88 610.42,-17.27 619.97,-21.84 620.74,-14.88"/>
</g>
<!-- Node9&#45;&gt;Node3 -->
<g id="edge14" class="edge">
<title>Node9&#45;&gt;Node3</title>
<path fill="none" stroke="#63b8ff" d="M1058.52,-55.98C1055.64,-55.64 1052.79,-55.31 1050,-55 897.35,-38.12 718.08,-23.5 620.1,-15.96"/>
<polygon fill="#63b8ff" stroke="#63b8ff" points="620.67,-12.41 610.43,-15.14 620.13,-19.39 620.67,-12.41"/>
</g>
</g>
</svg>
        <g id="navigator" transform="translate(0 0)" fill="#404254">
                <rect fill="#f2f5e9" fill-opacity="0.5" stroke="#606060" stroke-width=".5" x="0" y="0" width="60" height="60"/>
                <use id="zoomplus" xlink:href="#zoomPlus" x="17" y="9" onmousedown="handleZoom(evt,'in')"/>
                <use id="zoomminus" xlink:href="#zoomMin" x="42" y="9" onmousedown="handleZoom(evt,'out')"/>
                <use id="reset" xlink:href="#resetDef" x="30" y="36" onmousedown="handleReset()"/>
                <g id="arrowUp" xlink:href="#dirArrow" transform="translate(30 24)" onmousedown="handlePan(0,-1)">
                  <use xlink:href="#rim" fill="#404040">
                        <set attributeName="fill" to="#808080" begin="arrowUp.mouseover" end="arrowUp.mouseout"/>
                  </use>
                  <path fill="none" stroke="white" stroke-width="1.5" d="M0,-3.0v7 M-2.5,-0.5L0,-3.0L2.5,-0.5"/>
                </g>
                <g id="arrowRight" xlink:href="#dirArrow" transform="rotate(90) translate(36 -43)" onmousedown="handlePan(1,0)">
                  <use xlink:href="#rim" fill="#404040">
                        <set attributeName="fill" to="#808080" begin="arrowRight.mouseover" end="arrowRight.mouseout"/>
                  </use>
                  <path fill="none" stroke="white" stroke-width="1.5" d="M0,-3.0v7 M-2.5,-0.5L0,-3.0L2.5,-0.5"/>
                </g>
                <g id="arrowDown" xlink:href="#dirArrow" transform="rotate(180) translate(-30 -48)" onmousedown="handlePan(0,1)">
                  <use xlink:href="#rim" fill="#404040">
                        <set attributeName="fill" to="#808080" begin="arrowDown.mouseover" end="arrowDown.mouseout"/>
                  </use>
                  <path fill="none" stroke="white" stroke-width="1.5" d="M0,-3.0v7 M-2.5,-0.5L0,-3.0L2.5,-0.5"/>
                </g>
                <g id="arrowLeft" xlink:href="#dirArrow" transform="rotate(270) translate(-36 17)" onmousedown="handlePan(-1,0)">
                  <use xlink:href="#rim" fill="#404040">
                        <set attributeName="fill" to="#808080" begin="arrowLeft.mouseover" end="arrowLeft.mouseout"/>
                  </use>
                  <path fill="none" stroke="white" stroke-width="1.5" d="M0,-3.0v7 M-2.5,-0.5L0,-3.0L2.5,-0.5"/>
                </g>
        </g>
        <svg viewBox="0 0 15 15" width="100%" height="30px" preserveAspectRatio="xMaxYMin meet">
         <g id="arrow_out" transform="scale(0.3 0.3)">
          <a xlink:href="_rcv_meeting_event_handler_8h__incl_org.svg" target="_base">
           <rect id="button" ry="5" rx="5" y="6" x="6" height="38" width="38"
                fill="#f2f5e9" fill-opacity="0.5" stroke="#606060" stroke-width="1.0"/>
           <path id="arrow"
             d="M 11.500037,31.436501 C 11.940474,20.09759 22.043105,11.32322 32.158766,21.979434 L 37.068811,17.246167 C 37.068811,17.246167 37.088388,32 37.088388,32 L 22.160133,31.978069 C 22.160133,31.978069 26.997745,27.140456 26.997745,27.140456 C 18.528582,18.264221 13.291696,25.230495 11.500037,31.436501 z"
             style="fill:#404040;"/>
          </a>
         </g>
        </svg>
</svg>
