<?xml version="1.0" encoding="UTF-8" standalone="no"?>
<!DOCTYPE svg PUBLIC "-//W3C//DTD SVG 1.1//EN"
 "http://www.w3.org/Graphics/SVG/1.1/DTD/svg11.dtd">
<!-- Generated by graphviz version 8.0.1 (20230327.1645)
 -->
<!-- Title: rcvsdk/ios/rcvsdk/RcvSampleBufferVideoView.h Pages: 1 -->
<svg width="285pt" height="192pt"
 viewBox="0.00 0.00 284.50 192.00" xmlns="http://www.w3.org/2000/svg" xmlns:xlink="http://www.w3.org/1999/xlink">
<g id="graph0" class="graph" transform="scale(1 1) rotate(0) translate(4 188)">
<title>rcvsdk/ios/rcvsdk/RcvSampleBufferVideoView.h</title>
<!-- Node1 -->
<g id="node1" class="node">
<title>Node1</title>
<g id="a_node1"><a xlink:title=" ">
<polygon fill="#999999" stroke="#666666" points="227,-184 0,-184 0,-165 227,-165 227,-184"/>
<text text-anchor="middle" x="113.5" y="-172" font-family="Helvetica,sans-Serif" font-size="10.00">rcvsdk/ios/rcvsdk/RcvSampleBufferVideoView.h</text>
</a>
</g>
</g>
<!-- Node2 -->
<g id="node2" class="node">
<title>Node2</title>
<g id="a_node2"><a xlink:title=" ">
<polygon fill="#e0e0e0" stroke="#999999" points="118,-74 45,-74 45,-55 118,-55 118,-74"/>
<text text-anchor="middle" x="81.5" y="-62" font-family="Helvetica,sans-Serif" font-size="10.00">UIKit/UIKit.h</text>
</a>
</g>
</g>
<!-- Node1&#45;&gt;Node2 -->
<g id="edge1" class="edge">
<title>Node1&#45;&gt;Node2</title>
<path fill="none" stroke="#63b8ff" d="M108.11,-164.63C103.04,-155.89 95.62,-141.98 91.5,-129 86.94,-114.65 84.41,-97.8 83.04,-85.06"/>
<polygon fill="#63b8ff" stroke="#63b8ff" points="86.45,-84.96 82.04,-75.32 79.48,-85.6 86.45,-84.96"/>
</g>
<!-- Node3 -->
<g id="node3" class="node">
<title>Node3</title>
<g id="a_node3"><a xlink:href="_rcv_base_video_view_8h.html" target="_top" xlink:title=" ">
<polygon fill="white" stroke="#666666" points="210.5,-129 100.5,-129 100.5,-110 210.5,-110 210.5,-129"/>
<text text-anchor="middle" x="155.5" y="-117" font-family="Helvetica,sans-Serif" font-size="10.00">RcvBaseVideoView.h</text>
</a>
</g>
</g>
<!-- Node1&#45;&gt;Node3 -->
<g id="edge2" class="edge">
<title>Node1&#45;&gt;Node3</title>
<path fill="none" stroke="#63b8ff" d="M120.44,-164.75C126.18,-157.5 134.51,-146.98 141.62,-138.02"/>
<polygon fill="#63b8ff" stroke="#63b8ff" points="144.95,-140.45 148.41,-130.44 139.46,-136.11 144.95,-140.45"/>
</g>
<!-- Node3&#45;&gt;Node2 -->
<g id="edge4" class="edge">
<title>Node3&#45;&gt;Node2</title>
<path fill="none" stroke="#63b8ff" d="M142.95,-109.51C131.93,-101.62 115.68,-89.98 102.66,-80.65"/>
<polygon fill="#63b8ff" stroke="#63b8ff" points="105.04,-77.34 94.87,-74.36 100.96,-83.03 105.04,-77.34"/>
</g>
<!-- Node4 -->
<g id="node4" class="node">
<title>Node4</title>
<g id="a_node4"><a xlink:title=" ">
<polygon fill="#e0e0e0" stroke="#999999" points="250.5,-19 126.5,-19 126.5,0 250.5,0 250.5,-19"/>
<text text-anchor="middle" x="188.5" y="-7" font-family="Helvetica,sans-Serif" font-size="10.00">Foundation/Foundation.h</text>
</a>
</g>
</g>
<!-- Node3&#45;&gt;Node4 -->
<g id="edge3" class="edge">
<title>Node3&#45;&gt;Node4</title>
<path fill="none" stroke="#63b8ff" d="M156.9,-109.74C158.99,-97.36 163.36,-74.14 169.5,-55 172.29,-46.3 176.14,-36.96 179.64,-29.1"/>
<polygon fill="#63b8ff" stroke="#63b8ff" points="183.21,-30.73 184.22,-20.18 176.85,-27.79 183.21,-30.73"/>
</g>
<!-- Node5 -->
<g id="node5" class="node">
<title>Node5</title>
<g id="a_node5"><a xlink:href="_rcv_render_mode_8h.html" target="_top" xlink:title=" ">
<polygon fill="white" stroke="#666666" points="276.5,-74 178.5,-74 178.5,-55 276.5,-55 276.5,-74"/>
<text text-anchor="middle" x="227.5" y="-62" font-family="Helvetica,sans-Serif" font-size="10.00">RcvRenderMode.h</text>
</a>
</g>
</g>
<!-- Node3&#45;&gt;Node5 -->
<g id="edge5" class="edge">
<title>Node3&#45;&gt;Node5</title>
<path fill="none" stroke="#63b8ff" d="M167.71,-109.51C178.43,-101.62 194.24,-89.98 206.91,-80.65"/>
<polygon fill="#63b8ff" stroke="#63b8ff" points="208.49,-83.1 214.47,-74.36 204.34,-77.47 208.49,-83.1"/>
</g>
<!-- Node5&#45;&gt;Node4 -->
<g id="edge6" class="edge">
<title>Node5&#45;&gt;Node4</title>
<path fill="none" stroke="#63b8ff" d="M221.06,-54.75C215.73,-47.5 207.99,-36.98 201.39,-28.02"/>
<polygon fill="#63b8ff" stroke="#63b8ff" points="203.83,-26.42 195.08,-20.44 198.19,-30.57 203.83,-26.42"/>
</g>
</g>
</svg>
