<?xml version="1.0" encoding="UTF-8" standalone="no"?>
<!DOCTYPE svg PUBLIC "-//W3C//DTD SVG 1.1//EN"
 "http://www.w3.org/Graphics/SVG/1.1/DTD/svg11.dtd">
<!-- Generated by graphviz version 8.0.5 (20230430.1635)
 -->
<!-- Title: rcvsdk/ios/rcvsdk/RcvLeaveReason.h Pages: 1 -->
<svg width="281pt" height="193pt"
 viewBox="0.00 0.00 281.25 193.00" xmlns="http://www.w3.org/2000/svg" xmlns:xlink="http://www.w3.org/1999/xlink">
<g id="graph0" class="graph" transform="scale(1 1) rotate(0) translate(4 189)">
<title>rcvsdk/ios/rcvsdk/RcvLeaveReason.h</title>
<!-- Node1 -->
<g id="Node000001" class="node">
<title>Node1</title>
<g id="a_Node000001"><a xlink:title=" ">
<polygon fill="#999999" stroke="#666666" points="263.75,-185 81.25,-185 81.25,-165.75 263.75,-165.75 263.75,-185"/>
<text text-anchor="middle" x="172.5" y="-171.5" font-family="Helvetica,sans-Serif" font-size="10.00">rcvsdk/ios/rcvsdk/RcvLeaveReason.h</text>
</a>
</g>
</g>
<!-- Node2 -->
<g id="Node000002" class="node">
<title>Node2</title>
<g id="a_Node000002"><a xlink:href="_rcv_engine_event_handler_8h.html" target="_top" xlink:title=" ">
<polygon fill="white" stroke="#666666" points="211,-129.75 0,-129.75 0,-110.5 211,-110.5 211,-129.75"/>
<text text-anchor="middle" x="105.5" y="-116.25" font-family="Helvetica,sans-Serif" font-size="10.00">rcvsdk/ios/rcvsdk/RcvEngineEventHandler.h</text>
</a>
</g>
</g>
<!-- Node1&#45;&gt;Node2 -->
<g id="edge1_Node000001_Node000002" class="edge">
<title>Node1&#45;&gt;Node2</title>
<g id="a_edge1_Node000001_Node000002"><a xlink:title=" ">
<path fill="none" stroke="#63b8ff" d="M152.8,-158.72C141.04,-149.37 126.52,-137.83 116.7,-130.02"/>
<polygon fill="#63b8ff" stroke="#63b8ff" points="150.13,-161.86 160.13,-165.34 154.48,-156.38 150.13,-161.86"/>
</a>
</g>
</g>
<!-- Node4 -->
<g id="Node000004" class="node">
<title>Node4</title>
<g id="a_Node000004"><a xlink:href="_rcv_s_d_k_8h.html" target="_top" xlink:title=" ">
<polygon fill="white" stroke="#666666" points="273.25,-19.25 129.75,-19.25 129.75,0 273.25,0 273.25,-19.25"/>
<text text-anchor="middle" x="201.5" y="-5.75" font-family="Helvetica,sans-Serif" font-size="10.00">rcvsdk/ios/rcvsdk/RcvSDK.h</text>
</a>
</g>
</g>
<!-- Node1&#45;&gt;Node4 -->
<g id="edge5_Node000001_Node000004" class="edge">
<title>Node1&#45;&gt;Node4</title>
<g id="a_edge5_Node000001_Node000004"><a xlink:title=" ">
<path fill="none" stroke="#63b8ff" d="M195.62,-158.92C204.88,-151.35 214.52,-141.35 219.5,-129.75 236.01,-91.31 215.74,-40.23 206.08,-19.71"/>
<polygon fill="#63b8ff" stroke="#63b8ff" points="193.9,-156.6 188.03,-165.42 198.12,-162.18 193.9,-156.6"/>
</a>
</g>
</g>
<!-- Node3 -->
<g id="Node000003" class="node">
<title>Node3</title>
<g id="a_Node000003"><a xlink:href="_rcv_engine_8h.html" target="_top" xlink:title=" ">
<polygon fill="white" stroke="#666666" points="173.75,-74.5 21.25,-74.5 21.25,-55.25 173.75,-55.25 173.75,-74.5"/>
<text text-anchor="middle" x="97.5" y="-61" font-family="Helvetica,sans-Serif" font-size="10.00">rcvsdk/ios/rcvsdk/RcvEngine.h</text>
</a>
</g>
</g>
<!-- Node2&#45;&gt;Node3 -->
<g id="edge2_Node000002_Node000003" class="edge">
<title>Node2&#45;&gt;Node3</title>
<g id="a_edge2_Node000002_Node000003"><a xlink:title=" ">
<path fill="none" stroke="#63b8ff" d="M102.55,-99.46C101.28,-91.02 99.86,-81.58 98.85,-74.86"/>
<polygon fill="#63b8ff" stroke="#63b8ff" points="99.23,-99.96 104.18,-109.33 106.15,-98.92 99.23,-99.96"/>
</a>
</g>
</g>
<!-- Node2&#45;&gt;Node4 -->
<g id="edge4_Node000002_Node000004" class="edge">
<title>Node2&#45;&gt;Node4</title>
<g id="a_edge4_Node000002_Node000004"><a xlink:title=" ">
<path fill="none" stroke="#63b8ff" d="M140.97,-105.58C155.68,-98.36 171.78,-88.11 182.5,-74.5 195.53,-57.96 199.64,-32.65 200.92,-19.41"/>
<polygon fill="#63b8ff" stroke="#63b8ff" points="139.72,-102.75 132.09,-110.1 142.64,-109.12 139.72,-102.75"/>
</a>
</g>
</g>
<!-- Node3&#45;&gt;Node4 -->
<g id="edge3_Node000003_Node000004" class="edge">
<title>Node3&#45;&gt;Node4</title>
<g id="a_edge3_Node000003_Node000004"><a xlink:title=" ">
<path fill="none" stroke="#63b8ff" d="M124.84,-49.87C143.48,-40.33 167.61,-27.98 183.77,-19.7"/>
<polygon fill="#63b8ff" stroke="#63b8ff" points="123.45,-47.17 116.14,-54.84 126.64,-53.4 123.45,-47.17"/>
</a>
</g>
</g>
</g>
</svg>
