<?xml version="1.0" encoding="UTF-8" standalone="no"?>
<!DOCTYPE svg PUBLIC "-//W3C//DTD SVG 1.1//EN"
 "http://www.w3.org/Graphics/SVG/1.1/DTD/svg11.dtd">
<!-- Generated by graphviz version 8.0.1 (20230327.1645)
 -->
<!-- Title: rcvsdk/ios/rcvsdk/RcvAudioEventHandler.h Pages: 1 -->
<svg width="456pt" height="137pt"
 viewBox="0.00 0.00 455.50 137.00" xmlns="http://www.w3.org/2000/svg" xmlns:xlink="http://www.w3.org/1999/xlink">
<g id="graph0" class="graph" transform="scale(1 1) rotate(0) translate(4 133)">
<title>rcvsdk/ios/rcvsdk/RcvAudioEventHandler.h</title>
<!-- Node1 -->
<g id="node1" class="node">
<title>Node1</title>
<g id="a_node1"><a xlink:title=" ">
<polygon fill="#999999" stroke="#666666" points="288.5,-129 82.5,-129 82.5,-110 288.5,-110 288.5,-129"/>
<text text-anchor="middle" x="185.5" y="-117" font-family="Helvetica,sans-Serif" font-size="10.00">rcvsdk/ios/rcvsdk/RcvAudioEventHandler.h</text>
</a>
</g>
</g>
<!-- Node2 -->
<g id="node2" class="node">
<title>Node2</title>
<g id="a_node2"><a xlink:href="_rcv_audio_route_type_8h.html" target="_top" xlink:title=" ">
<polygon fill="white" stroke="#666666" points="115,-74 0,-74 0,-55 115,-55 115,-74"/>
<text text-anchor="middle" x="57.5" y="-62" font-family="Helvetica,sans-Serif" font-size="10.00">RcvAudioRouteType.h</text>
</a>
</g>
</g>
<!-- Node1&#45;&gt;Node2 -->
<g id="edge1" class="edge">
<title>Node1&#45;&gt;Node2</title>
<path fill="none" stroke="#63b8ff" d="M163.79,-109.51C143.25,-101.01 112.2,-88.15 88.96,-78.53"/>
<polygon fill="#63b8ff" stroke="#63b8ff" points="90.47,-74.95 79.89,-74.36 87.79,-81.42 90.47,-74.95"/>
</g>
<!-- Node3 -->
<g id="node3" class="node">
<title>Node3</title>
<g id="a_node3"><a xlink:title=" ">
<polygon fill="#e0e0e0" stroke="#999999" points="247.5,-19 123.5,-19 123.5,0 247.5,0 247.5,-19"/>
<text text-anchor="middle" x="185.5" y="-7" font-family="Helvetica,sans-Serif" font-size="10.00">Foundation/Foundation.h</text>
</a>
</g>
</g>
<!-- Node1&#45;&gt;Node3 -->
<g id="edge7" class="edge">
<title>Node1&#45;&gt;Node3</title>
<path fill="none" stroke="#63b8ff" d="M179.4,-109.8C173.75,-101.17 165.75,-87.35 162.5,-74 158.65,-58.18 165.75,-40.83 173.05,-28.28"/>
<polygon fill="#63b8ff" stroke="#63b8ff" points="176.31,-30.67 178.74,-20.35 170.41,-26.9 176.31,-30.67"/>
</g>
<!-- Node4 -->
<g id="node4" class="node">
<title>Node4</title>
<g id="a_node4"><a xlink:href="_rcv_local_audio_error_8h.html" target="_top" xlink:title=" ">
<polygon fill="white" stroke="#666666" points="283,-74 172,-74 172,-55 283,-55 283,-74"/>
<text text-anchor="middle" x="227.5" y="-62" font-family="Helvetica,sans-Serif" font-size="10.00">RcvLocalAudioError.h</text>
</a>
</g>
</g>
<!-- Node1&#45;&gt;Node4 -->
<g id="edge3" class="edge">
<title>Node1&#45;&gt;Node4</title>
<path fill="none" stroke="#63b8ff" d="M192.44,-109.75C198.18,-102.5 206.51,-91.98 213.62,-83.02"/>
<polygon fill="#63b8ff" stroke="#63b8ff" points="216.95,-85.45 220.41,-75.44 211.46,-81.11 216.95,-85.45"/>
</g>
<!-- Node5 -->
<g id="node5" class="node">
<title>Node5</title>
<g id="a_node5"><a xlink:href="_rcv_local_audio_stream_state_8h.html" target="_top" xlink:title=" ">
<polygon fill="white" stroke="#666666" points="447.5,-74 301.5,-74 301.5,-55 447.5,-55 447.5,-74"/>
<text text-anchor="middle" x="374.5" y="-62" font-family="Helvetica,sans-Serif" font-size="10.00">RcvLocalAudioStreamState.h</text>
</a>
</g>
</g>
<!-- Node1&#45;&gt;Node5 -->
<g id="edge5" class="edge">
<title>Node1&#45;&gt;Node5</title>
<path fill="none" stroke="#63b8ff" d="M217.56,-109.51C249.15,-100.65 297.6,-87.07 332.3,-77.33"/>
<polygon fill="#63b8ff" stroke="#63b8ff" points="332.91,-80.52 341.6,-74.45 331.02,-73.78 332.91,-80.52"/>
</g>
<!-- Node2&#45;&gt;Node3 -->
<g id="edge2" class="edge">
<title>Node2&#45;&gt;Node3</title>
<path fill="none" stroke="#63b8ff" d="M79.21,-54.51C99.75,-46.01 130.8,-33.15 154.04,-23.53"/>
<polygon fill="#63b8ff" stroke="#63b8ff" points="155.21,-26.42 163.11,-19.36 152.53,-19.95 155.21,-26.42"/>
</g>
<!-- Node4&#45;&gt;Node3 -->
<g id="edge4" class="edge">
<title>Node4&#45;&gt;Node3</title>
<path fill="none" stroke="#63b8ff" d="M220.56,-54.75C214.82,-47.5 206.49,-36.98 199.38,-28.02"/>
<polygon fill="#63b8ff" stroke="#63b8ff" points="201.54,-26.11 192.59,-20.44 196.05,-30.45 201.54,-26.11"/>
</g>
<!-- Node5&#45;&gt;Node3 -->
<g id="edge6" class="edge">
<title>Node5&#45;&gt;Node3</title>
<path fill="none" stroke="#63b8ff" d="M342.44,-54.51C310.85,-45.65 262.4,-32.07 227.7,-22.33"/>
<polygon fill="#63b8ff" stroke="#63b8ff" points="228.98,-18.78 218.4,-19.45 227.09,-25.52 228.98,-18.78"/>
</g>
</g>
</svg>
