<?xml version="1.0" encoding="UTF-8" standalone="no"?>
<!DOCTYPE svg PUBLIC "-//W3C//DTD SVG 1.1//EN"
 "http://www.w3.org/Graphics/SVG/1.1/DTD/svg11.dtd">
<!-- Generated by graphviz version 8.0.1 (20230327.1645)
 -->
<!-- Title: rcvsdk/ios/rcvsdk/RcvPersonalMeetingSettings.h Pages: 1 -->
<svg width="336pt" height="137pt"
 viewBox="0.00 0.00 335.50 137.00" xmlns="http://www.w3.org/2000/svg" xmlns:xlink="http://www.w3.org/1999/xlink">
<g id="graph0" class="graph" transform="scale(1 1) rotate(0) translate(4 133)">
<title>rcvsdk/ios/rcvsdk/RcvPersonalMeetingSettings.h</title>
<!-- Node1 -->
<g id="node1" class="node">
<title>Node1</title>
<g id="a_node1"><a xlink:title=" ">
<polygon fill="#999999" stroke="#666666" points="290,-129 58,-129 58,-110 290,-110 290,-129"/>
<text text-anchor="middle" x="174" y="-117" font-family="Helvetica,sans-Serif" font-size="10.00">rcvsdk/ios/rcvsdk/RcvPersonalMeetingSettings.h</text>
</a>
</g>
</g>
<!-- Node2 -->
<g id="node2" class="node">
<title>Node2</title>
<g id="a_node2"><a xlink:href="_rcv_only_auth_user_join_mode_8h.html" target="_top" xlink:title=" ">
<polygon fill="white" stroke="#666666" points="146,-74 0,-74 0,-55 146,-55 146,-74"/>
<text text-anchor="middle" x="73" y="-62" font-family="Helvetica,sans-Serif" font-size="10.00">RcvOnlyAuthUserJoinMode.h</text>
</a>
</g>
</g>
<!-- Node1&#45;&gt;Node2 -->
<g id="edge1" class="edge">
<title>Node1&#45;&gt;Node2</title>
<path fill="none" stroke="#63b8ff" d="M156.87,-109.51C141.17,-101.27 117.7,-88.96 99.58,-79.45"/>
<polygon fill="#63b8ff" stroke="#63b8ff" points="101.36,-75.91 90.88,-74.36 98.11,-82.1 101.36,-75.91"/>
</g>
<!-- Node3 -->
<g id="node3" class="node">
<title>Node3</title>
<g id="a_node3"><a xlink:title=" ">
<polygon fill="#e0e0e0" stroke="#999999" points="236,-19 112,-19 112,0 236,0 236,-19"/>
<text text-anchor="middle" x="174" y="-7" font-family="Helvetica,sans-Serif" font-size="10.00">Foundation/Foundation.h</text>
</a>
</g>
</g>
<!-- Node1&#45;&gt;Node3 -->
<g id="edge5" class="edge">
<title>Node1&#45;&gt;Node3</title>
<path fill="none" stroke="#63b8ff" d="M174,-109.66C174,-92.42 174,-53.9 174,-30.27"/>
<polygon fill="#63b8ff" stroke="#63b8ff" points="177.5,-30.46 174,-20.46 170.5,-30.46 177.5,-30.46"/>
</g>
<!-- Node4 -->
<g id="node4" class="node">
<title>Node4</title>
<g id="a_node4"><a xlink:href="_rcv_waiting_room_mode_8h.html" target="_top" xlink:title=" ">
<polygon fill="white" stroke="#666666" points="327.5,-74 202.5,-74 202.5,-55 327.5,-55 327.5,-74"/>
<text text-anchor="middle" x="265" y="-62" font-family="Helvetica,sans-Serif" font-size="10.00">RcvWaitingRoomMode.h</text>
</a>
</g>
</g>
<!-- Node1&#45;&gt;Node4 -->
<g id="edge3" class="edge">
<title>Node1&#45;&gt;Node4</title>
<path fill="none" stroke="#63b8ff" d="M189.44,-109.51C203.38,-101.39 224.14,-89.3 240.37,-79.85"/>
<polygon fill="#63b8ff" stroke="#63b8ff" points="241.91,-82.42 248.79,-74.36 238.39,-76.37 241.91,-82.42"/>
</g>
<!-- Node2&#45;&gt;Node3 -->
<g id="edge2" class="edge">
<title>Node2&#45;&gt;Node3</title>
<path fill="none" stroke="#63b8ff" d="M90.13,-54.51C105.83,-46.27 129.3,-33.96 147.42,-24.45"/>
<polygon fill="#63b8ff" stroke="#63b8ff" points="148.89,-27.1 156.12,-19.36 145.64,-20.91 148.89,-27.1"/>
</g>
<!-- Node4&#45;&gt;Node3 -->
<g id="edge4" class="edge">
<title>Node4&#45;&gt;Node3</title>
<path fill="none" stroke="#63b8ff" d="M249.56,-54.51C235.62,-46.39 214.86,-34.3 198.63,-24.85"/>
<polygon fill="#63b8ff" stroke="#63b8ff" points="200.61,-21.37 190.21,-19.36 197.09,-27.42 200.61,-21.37"/>
</g>
</g>
</svg>
