<?xml version="1.0" encoding="UTF-8" standalone="no"?>
<!DOCTYPE svg PUBLIC "-//W3C//DTD SVG 1.1//EN"
 "http://www.w3.org/Graphics/SVG/1.1/DTD/svg11.dtd">
<!-- Generated by graphviz version 8.0.4 (20230421.1958)
 -->
<!-- Title: rcvsdk/ios/rcvsdk/RcvEngine.h Pages: 1 -->
<!--zoomable 193 -->
<svg id="main" version="1.1" xmlns="http://www.w3.org/2000/svg" xmlns:xlink="http://www.w3.org/1999/xlink" xml:space="preserve" onload="init(evt)">
<style type="text/css"><![CDATA[
.edge:hover path { stroke: red; }
.edge:hover polygon { stroke: red; fill: red; }
]]></style>
<script type="text/javascript"><![CDATA[
var edges = document.getElementsByTagName('g');
if (edges && edges.length) {
  for (var i=0;i<edges.length;i++) {
    if (edges[i].id.substr(0,4)=='edge') {
      edges[i].setAttribute('class','edge');
    }
  }
}
]]></script>
        <defs>
                <circle id="rim" cx="0" cy="0" r="7"/>
                <circle id="rim2" cx="0" cy="0" r="3.5"/>
                <g id="zoomPlus">
                        <use xlink:href="#rim" fill="#404040">
                                <set attributeName="fill" to="#808080" begin="zoomplus.mouseover" end="zoomplus.mouseout"/>
                        </use>
                        <path d="M-4,0h8M0,-4v8" fill="none" stroke="white" stroke-width="1.5" pointer-events="none"/>
                </g>
                <g id="zoomMin">
                        <use xlink:href="#rim" fill="#404040">
                                <set attributeName="fill" to="#808080" begin="zoomminus.mouseover" end="zoomminus.mouseout"/>
                        </use>
                        <path d="M-4,0h8" fill="none" stroke="white" stroke-width="1.5" pointer-events="none"/>
                </g>
                <g id="dirArrow">
                        <path fill="none" stroke="white" stroke-width="1.5" d="M0,-3.0v7 M-2.5,-0.5L0,-3.0L2.5,-0.5"/>
                </g>
               <g id="resetDef">
                       <use xlink:href="#rim2" fill="#404040">
                               <set attributeName="fill" to="#808080" begin="reset.mouseover" end="reset.mouseout"/>
                       </use>
               </g>
        </defs>

<script type="text/javascript">
var viewWidth = 617;
var viewHeight = 193;
var sectionId = 'dynsection-0';
</script>
<script xlink:href="svgpan.js"/>
<svg id="graph" class="graph">
<g id="viewport">
<title>rcvsdk/ios/rcvsdk/RcvEngine.h</title>
<!-- Node1 -->
<g id="node1" class="node">
<title>Node1</title>
<g id="a_node1"><a xlink:title=" ">
<polygon fill="#999999" stroke="#666666" points="316.04,-185 163.54,-185 163.54,-165.75 316.04,-165.75 316.04,-185"/>
<text text-anchor="middle" x="239.79" y="-171.5" font-family="Helvetica,sans-Serif" font-size="10.00">rcvsdk/ios/rcvsdk/RcvEngine.h</text>
</a>
</g>
</g>
<!-- Node2 -->
<g id="node2" class="node">
<title>Node2</title>
<g id="a_node2"><a xlink:title=" ">
<polygon fill="#e0e0e0" stroke="#999999" points="338.42,-19.25 215.17,-19.25 215.17,0 338.42,0 338.42,-19.25"/>
<text text-anchor="middle" x="276.79" y="-5.75" font-family="Helvetica,sans-Serif" font-size="10.00">Foundation/Foundation.h</text>
</a>
</g>
</g>
<!-- Node1&#45;&gt;Node2 -->
<g id="edge1" class="edge">
<title>Node1&#45;&gt;Node2</title>
<path fill="none" stroke="#63b8ff" d="M177.36,-165.28C93.32,-150.49 -40.05,-116.55 11.79,-55.25 35.99,-26.63 134.18,-16.36 203.97,-12.68"/>
<polygon fill="#63b8ff" stroke="#63b8ff" points="204.09,-16.13 213.91,-12.14 203.75,-9.13 204.09,-16.13"/>
</g>
<!-- Node3 -->
<g id="node3" class="node">
<title>Node3</title>
<g id="a_node3"><a xlink:href="_rcv_audio_processor_8h.html" target="_top" xlink:title=" ">
<polygon fill="white" stroke="#666666" points="131.04,-74.5 20.54,-74.5 20.54,-55.25 131.04,-55.25 131.04,-74.5"/>
<text text-anchor="middle" x="75.79" y="-61" font-family="Helvetica,sans-Serif" font-size="10.00">RcvAudioProcessor.h</text>
</a>
</g>
</g>
<!-- Node1&#45;&gt;Node3 -->
<g id="edge2" class="edge">
<title>Node1&#45;&gt;Node3</title>
<path fill="none" stroke="#63b8ff" d="M167.96,-165.31C143.06,-158.95 116.68,-148.13 97.79,-129.75 85.71,-117.99 80.26,-99.3 77.8,-85.17"/>
<polygon fill="#63b8ff" stroke="#63b8ff" points="81.18,-85.05 76.36,-75.62 74.25,-86 81.18,-85.05"/>
</g>
<!-- Node4 -->
<g id="node4" class="node">
<title>Node4</title>
<g id="a_node4"><a xlink:href="_rcv_engine_event_handler_8h.html" target="_top" xlink:title=" ">
<polygon fill="white" stroke="#666666" points="237.17,-129.75 106.42,-129.75 106.42,-110.5 237.17,-110.5 237.17,-129.75"/>
<text text-anchor="middle" x="171.79" y="-116.25" font-family="Helvetica,sans-Serif" font-size="10.00">RcvEngineEventHandler.h</text>
</a>
</g>
</g>
<!-- Node1&#45;&gt;Node4 -->
<g id="edge4" class="edge">
<title>Node1&#45;&gt;Node4</title>
<path fill="none" stroke="#63b8ff" d="M228.26,-165.34C218.23,-157.49 203.49,-145.95 191.58,-136.62"/>
<polygon fill="#63b8ff" stroke="#63b8ff" points="194.19,-133.43 184.16,-130.02 189.87,-138.95 194.19,-133.43"/>
</g>
<!-- Node6 -->
<g id="node6" class="node">
<title>Node6</title>
<g id="a_node6"><a xlink:href="_rcv_error_code_type_8h.html" target="_top" xlink:title=" ">
<polygon fill="white" stroke="#666666" points="362.54,-129.75 255.04,-129.75 255.04,-110.5 362.54,-110.5 362.54,-129.75"/>
<text text-anchor="middle" x="308.79" y="-116.25" font-family="Helvetica,sans-Serif" font-size="10.00">RcvErrorCodeType.h</text>
</a>
</g>
</g>
<!-- Node1&#45;&gt;Node6 -->
<g id="edge8" class="edge">
<title>Node1&#45;&gt;Node6</title>
<path fill="none" stroke="#63b8ff" d="M251.5,-165.34C261.67,-157.49 276.63,-145.95 288.71,-136.62"/>
<polygon fill="#63b8ff" stroke="#63b8ff" points="290.48,-138.91 296.26,-130.02 286.2,-133.36 290.48,-138.91"/>
</g>
<!-- Node7 -->
<g id="node7" class="node">
<title>Node7</title>
<g id="a_node7"><a xlink:href="_rcv_video_canvas_8h.html" target="_top" xlink:title=" ">
<polygon fill="white" stroke="#666666" points="481.17,-129.75 380.42,-129.75 380.42,-110.5 481.17,-110.5 481.17,-129.75"/>
<text text-anchor="middle" x="430.79" y="-116.25" font-family="Helvetica,sans-Serif" font-size="10.00">RcvVideoCanvas.h</text>
</a>
</g>
</g>
<!-- Node1&#45;&gt;Node7 -->
<g id="edge10" class="edge">
<title>Node1&#45;&gt;Node7</title>
<path fill="none" stroke="#63b8ff" d="M272.19,-165.34C304.02,-156.47 352.78,-142.87 387.83,-133.1"/>
<polygon fill="#63b8ff" stroke="#63b8ff" points="388.54,-136.26 397.23,-130.2 386.66,-129.52 388.54,-136.26"/>
</g>
<!-- Node9 -->
<g id="node9" class="node">
<title>Node9</title>
<g id="a_node9"><a xlink:href="_rcv_video_processor_8h.html" target="_top" xlink:title=" ">
<polygon fill="white" stroke="#666666" points="609.04,-74.5 498.54,-74.5 498.54,-55.25 609.04,-55.25 609.04,-74.5"/>
<text text-anchor="middle" x="553.79" y="-61" font-family="Helvetica,sans-Serif" font-size="10.00">RcvVideoProcessor.h</text>
</a>
</g>
</g>
<!-- Node1&#45;&gt;Node9 -->
<g id="edge14" class="edge">
<title>Node1&#45;&gt;Node9</title>
<path fill="none" stroke="#63b8ff" d="M316.35,-172.55C367.9,-168.57 436.03,-157.77 489.79,-129.75 511.03,-118.68 529.69,-98.11 541.29,-83.31"/>
<polygon fill="#63b8ff" stroke="#63b8ff" points="544.65,-85.66 547.86,-75.56 539.06,-81.46 544.65,-85.66"/>
</g>
<!-- Node3&#45;&gt;Node2 -->
<g id="edge3" class="edge">
<title>Node3&#45;&gt;Node2</title>
<path fill="none" stroke="#63b8ff" d="M109.89,-54.84C143.53,-45.93 195.14,-32.26 232.05,-22.48"/>
<polygon fill="#63b8ff" stroke="#63b8ff" points="232.76,-25.65 241.53,-19.7 230.96,-18.88 232.76,-25.65"/>
</g>
<!-- Node4&#45;&gt;Node2 -->
<g id="edge7" class="edge">
<title>Node4&#45;&gt;Node2</title>
<path fill="none" stroke="#63b8ff" d="M170.05,-110.33C167.94,-97.07 166,-71.74 177.79,-55.25 188.65,-40.06 205.93,-29.94 223.03,-23.24"/>
<polygon fill="#63b8ff" stroke="#63b8ff" points="223.78,-26.34 232.03,-19.69 221.44,-19.74 223.78,-26.34"/>
</g>
<!-- Node5 -->
<g id="node5" class="node">
<title>Node5</title>
<g id="a_node5"><a xlink:href="_rcv_leave_reason_8h.html" target="_top" xlink:title=" ">
<polygon fill="white" stroke="#666666" points="288.92,-74.5 186.67,-74.5 186.67,-55.25 288.92,-55.25 288.92,-74.5"/>
<text text-anchor="middle" x="237.79" y="-61" font-family="Helvetica,sans-Serif" font-size="10.00">RcvLeaveReason.h</text>
</a>
</g>
</g>
<!-- Node4&#45;&gt;Node5 -->
<g id="edge5" class="edge">
<title>Node4&#45;&gt;Node5</title>
<path fill="none" stroke="#63b8ff" d="M182.99,-110.09C192.62,-102.32 206.74,-90.92 218.24,-81.65"/>
<polygon fill="#63b8ff" stroke="#63b8ff" points="220.18,-83.78 225.76,-74.77 215.78,-78.33 220.18,-83.78"/>
</g>
<!-- Node5&#45;&gt;Node2 -->
<g id="edge6" class="edge">
<title>Node5&#45;&gt;Node2</title>
<path fill="none" stroke="#63b8ff" d="M244.23,-55.08C249.56,-47.8 257.3,-37.23 263.9,-28.23"/>
<polygon fill="#63b8ff" stroke="#63b8ff" points="267.13,-30.74 270.21,-20.61 261.48,-26.61 267.13,-30.74"/>
</g>
<!-- Node6&#45;&gt;Node2 -->
<g id="edge9" class="edge">
<title>Node6&#45;&gt;Node2</title>
<path fill="none" stroke="#63b8ff" d="M308.03,-110.27C306.78,-97.77 303.81,-74.35 297.79,-55.25 295,-46.38 290.79,-37 286.88,-29.14"/>
<polygon fill="#63b8ff" stroke="#63b8ff" points="289.61,-27.81 281.88,-20.56 283.4,-31.05 289.61,-27.81"/>
</g>
<!-- Node7&#45;&gt;Node2 -->
<g id="edge13" class="edge">
<title>Node7&#45;&gt;Node2</title>
<path fill="none" stroke="#63b8ff" d="M417.93,-110.06C391.48,-91.43 330.76,-48.65 298.25,-25.75"/>
<polygon fill="#63b8ff" stroke="#63b8ff" points="300.7,-22.49 290.51,-19.59 296.67,-28.21 300.7,-22.49"/>
</g>
<!-- Node8 -->
<g id="node8" class="node">
<title>Node8</title>
<g id="a_node8"><a xlink:href="_rcv_render_mode_8h.html" target="_top" xlink:title=" ">
<polygon fill="white" stroke="#666666" points="480.67,-74.5 382.92,-74.5 382.92,-55.25 480.67,-55.25 480.67,-74.5"/>
<text text-anchor="middle" x="431.79" y="-61" font-family="Helvetica,sans-Serif" font-size="10.00">RcvRenderMode.h</text>
</a>
</g>
</g>
<!-- Node7&#45;&gt;Node8 -->
<g id="edge11" class="edge">
<title>Node7&#45;&gt;Node8</title>
<path fill="none" stroke="#63b8ff" d="M430.96,-110.33C431.08,-103.67 431.26,-94.24 431.42,-85.78"/>
<polygon fill="#63b8ff" stroke="#63b8ff" points="434.93,-85.92 431.62,-75.86 427.93,-85.79 434.93,-85.92"/>
</g>
<!-- Node8&#45;&gt;Node2 -->
<g id="edge12" class="edge">
<title>Node8&#45;&gt;Node2</title>
<path fill="none" stroke="#63b8ff" d="M405.5,-54.84C380.22,-46.16 341.8,-32.96 313.51,-23.24"/>
<polygon fill="#63b8ff" stroke="#63b8ff" points="314.81,-19.64 304.21,-19.7 312.53,-26.26 314.81,-19.64"/>
</g>
<!-- Node9&#45;&gt;Node2 -->
<g id="edge15" class="edge">
<title>Node9&#45;&gt;Node2</title>
<path fill="none" stroke="#63b8ff" d="M506.49,-54.78C458.88,-45.63 385.4,-31.5 334.42,-21.7"/>
<polygon fill="#63b8ff" stroke="#63b8ff" points="335.38,-18.13 324.9,-19.68 334.06,-25.01 335.38,-18.13"/>
</g>
</g>
</svg>
        <g id="navigator" transform="translate(0 0)" fill="#404254">
                <rect fill="#f2f5e9" fill-opacity="0.5" stroke="#606060" stroke-width=".5" x="0" y="0" width="60" height="60"/>
                <use id="zoomplus" xlink:href="#zoomPlus" x="17" y="9" onmousedown="handleZoom(evt,'in')"/>
                <use id="zoomminus" xlink:href="#zoomMin" x="42" y="9" onmousedown="handleZoom(evt,'out')"/>
                <use id="reset" xlink:href="#resetDef" x="30" y="36" onmousedown="handleReset()"/>
                <g id="arrowUp" xlink:href="#dirArrow" transform="translate(30 24)" onmousedown="handlePan(0,-1)">
                  <use xlink:href="#rim" fill="#404040">
                        <set attributeName="fill" to="#808080" begin="arrowUp.mouseover" end="arrowUp.mouseout"/>
                  </use>
                  <path fill="none" stroke="white" stroke-width="1.5" d="M0,-3.0v7 M-2.5,-0.5L0,-3.0L2.5,-0.5"/>
                </g>
                <g id="arrowRight" xlink:href="#dirArrow" transform="rotate(90) translate(36 -43)" onmousedown="handlePan(1,0)">
                  <use xlink:href="#rim" fill="#404040">
                        <set attributeName="fill" to="#808080" begin="arrowRight.mouseover" end="arrowRight.mouseout"/>
                  </use>
                  <path fill="none" stroke="white" stroke-width="1.5" d="M0,-3.0v7 M-2.5,-0.5L0,-3.0L2.5,-0.5"/>
                </g>
                <g id="arrowDown" xlink:href="#dirArrow" transform="rotate(180) translate(-30 -48)" onmousedown="handlePan(0,1)">
                  <use xlink:href="#rim" fill="#404040">
                        <set attributeName="fill" to="#808080" begin="arrowDown.mouseover" end="arrowDown.mouseout"/>
                  </use>
                  <path fill="none" stroke="white" stroke-width="1.5" d="M0,-3.0v7 M-2.5,-0.5L0,-3.0L2.5,-0.5"/>
                </g>
                <g id="arrowLeft" xlink:href="#dirArrow" transform="rotate(270) translate(-36 17)" onmousedown="handlePan(-1,0)">
                  <use xlink:href="#rim" fill="#404040">
                        <set attributeName="fill" to="#808080" begin="arrowLeft.mouseover" end="arrowLeft.mouseout"/>
                  </use>
                  <path fill="none" stroke="white" stroke-width="1.5" d="M0,-3.0v7 M-2.5,-0.5L0,-3.0L2.5,-0.5"/>
                </g>
        </g>
        <svg viewBox="0 0 15 15" width="100%" height="30px" preserveAspectRatio="xMaxYMin meet">
         <g id="arrow_out" transform="scale(0.3 0.3)">
          <a xlink:href="_rcv_engine_8h__incl_org.svg" target="_base">
           <rect id="button" ry="5" rx="5" y="6" x="6" height="38" width="38"
                fill="#f2f5e9" fill-opacity="0.5" stroke="#606060" stroke-width="1.0"/>
           <path id="arrow"
             d="M 11.500037,31.436501 C 11.940474,20.09759 22.043105,11.32322 32.158766,21.979434 L 37.068811,17.246167 C 37.068811,17.246167 37.088388,32 37.088388,32 L 22.160133,31.978069 C 22.160133,31.978069 26.997745,27.140456 26.997745,27.140456 C 18.528582,18.264221 13.291696,25.230495 11.500037,31.436501 z"
             style="fill:#404040;"/>
          </a>
         </g>
        </svg>
</svg>
