<?xml version="1.0" encoding="UTF-8" standalone="no"?>
<!DOCTYPE svg PUBLIC "-//W3C//DTD SVG 1.1//EN"
 "http://www.w3.org/Graphics/SVG/1.1/DTD/svg11.dtd">
<!-- Generated by graphviz version 8.0.5 (20230430.1635)
 -->
<!-- Title: rcvsdk/ios/RcvReplayKitExtension/RcvRPScreenShareService.h Pages: 1 -->
<svg width="309pt" height="83pt"
 viewBox="0.00 0.00 309.00 82.50" xmlns="http://www.w3.org/2000/svg" xmlns:xlink="http://www.w3.org/1999/xlink">
<g id="graph0" class="graph" transform="scale(1 1) rotate(0) translate(4 78.5)">
<title>rcvsdk/ios/RcvReplayKitExtension/RcvRPScreenShareService.h</title>
<!-- Node1 -->
<g id="Node000001" class="node">
<title>Node1</title>
<g id="a_Node000001"><a xlink:title=" ">
<polygon fill="#999999" stroke="#666666" points="301,-74.5 0,-74.5 0,-55.25 301,-55.25 301,-74.5"/>
<text text-anchor="middle" x="150.5" y="-61" font-family="Helvetica,sans-Serif" font-size="10.00">rcvsdk/ios/RcvReplayKitExtension/RcvRPScreenShareService.h</text>
</a>
</g>
</g>
<!-- Node2 -->
<g id="Node000002" class="node">
<title>Node2</title>
<g id="a_Node000002"><a xlink:title=" ">
<polygon fill="#e0e0e0" stroke="#999999" points="144.12,-19.25 20.88,-19.25 20.88,0 144.12,0 144.12,-19.25"/>
<text text-anchor="middle" x="82.5" y="-5.75" font-family="Helvetica,sans-Serif" font-size="10.00">Foundation/Foundation.h</text>
</a>
</g>
</g>
<!-- Node1&#45;&gt;Node2 -->
<g id="edge1_Node000001_Node000002" class="edge">
<title>Node1&#45;&gt;Node2</title>
<g id="a_edge1_Node000001_Node000002"><a xlink:title=" ">
<path fill="none" stroke="#63b8ff" d="M138.96,-54.84C128.94,-46.99 114.2,-35.45 102.29,-26.12"/>
<polygon fill="#63b8ff" stroke="#63b8ff" points="104.9,-22.93 94.86,-19.52 100.58,-28.45 104.9,-22.93"/>
</a>
</g>
</g>
<!-- Node3 -->
<g id="Node000003" class="node">
<title>Node3</title>
<g id="a_Node000003"><a xlink:title=" ">
<polygon fill="#e0e0e0" stroke="#999999" points="274.88,-19.25 162.12,-19.25 162.12,0 274.88,0 274.88,-19.25"/>
<text text-anchor="middle" x="218.5" y="-5.75" font-family="Helvetica,sans-Serif" font-size="10.00">ReplayKit/ReplayKit.h</text>
</a>
</g>
</g>
<!-- Node1&#45;&gt;Node3 -->
<g id="edge2_Node000001_Node000003" class="edge">
<title>Node1&#45;&gt;Node3</title>
<g id="a_edge2_Node000001_Node000003"><a xlink:title=" ">
<path fill="none" stroke="#63b8ff" d="M162.04,-54.84C172.06,-46.99 186.8,-35.45 198.71,-26.12"/>
<polygon fill="#63b8ff" stroke="#63b8ff" points="200.42,-28.45 206.14,-19.52 196.1,-22.93 200.42,-28.45"/>
</a>
</g>
</g>
</g>
</svg>
