<?xml version="1.0" encoding="UTF-8" standalone="no"?>
<!DOCTYPE svg PUBLIC "-//W3C//DTD SVG 1.1//EN"
 "http://www.w3.org/Graphics/SVG/1.1/DTD/svg11.dtd">
<!-- Generated by graphviz version 8.0.4 (20230421.1958)
 -->
<!-- Title: rcvsdk/ios/rcvsdk/RcvMeetingChatController.h Pages: 1 -->
<svg width="227pt" height="138pt"
 viewBox="0.00 0.00 227.25 137.75" xmlns="http://www.w3.org/2000/svg" xmlns:xlink="http://www.w3.org/1999/xlink">
<g id="graph0" class="graph" transform="scale(1 1) rotate(0) translate(4 133.75)">
<title>rcvsdk/ios/rcvsdk/RcvMeetingChatController.h</title>
<!-- Node1 -->
<g id="node1" class="node">
<title>Node1</title>
<g id="a_node1"><a xlink:title=" ">
<polygon fill="#999999" stroke="#666666" points="219.25,-129.75 0,-129.75 0,-110.5 219.25,-110.5 219.25,-129.75"/>
<text text-anchor="middle" x="109.62" y="-116.25" font-family="Helvetica,sans-Serif" font-size="10.00">rcvsdk/ios/rcvsdk/RcvMeetingChatController.h</text>
</a>
</g>
</g>
<!-- Node2 -->
<g id="node2" class="node">
<title>Node2</title>
<g id="a_node2"><a xlink:href="_rcv_chat_privilege_8h.html" target="_top" xlink:title=" ">
<polygon fill="white" stroke="#666666" points="121,-74.5 20.25,-74.5 20.25,-55.25 121,-55.25 121,-74.5"/>
<text text-anchor="middle" x="70.62" y="-61" font-family="Helvetica,sans-Serif" font-size="10.00">RcvChatPrivilege.h</text>
</a>
</g>
</g>
<!-- Node1&#45;&gt;Node2 -->
<g id="edge1" class="edge">
<title>Node1&#45;&gt;Node2</title>
<path fill="none" stroke="#63b8ff" d="M103.18,-110.33C97.85,-103.05 90.11,-92.48 83.52,-83.48"/>
<polygon fill="#63b8ff" stroke="#63b8ff" points="85.94,-81.86 77.2,-75.86 80.29,-85.99 85.94,-81.86"/>
</g>
<!-- Node3 -->
<g id="node3" class="node">
<title>Node3</title>
<g id="a_node3"><a xlink:title=" ">
<polygon fill="#e0e0e0" stroke="#999999" points="171.25,-19.25 48,-19.25 48,0 171.25,0 171.25,-19.25"/>
<text text-anchor="middle" x="109.62" y="-5.75" font-family="Helvetica,sans-Serif" font-size="10.00">Foundation/Foundation.h</text>
</a>
</g>
</g>
<!-- Node1&#45;&gt;Node3 -->
<g id="edge3" class="edge">
<title>Node1&#45;&gt;Node3</title>
<path fill="none" stroke="#63b8ff" d="M115.52,-110.17C122.84,-97.94 133.9,-75.25 129.62,-55.25 127.7,-46.23 123.8,-36.83 119.96,-29"/>
<polygon fill="#63b8ff" stroke="#63b8ff" points="122.7,-27.69 114.94,-20.47 116.51,-30.95 122.7,-27.69"/>
</g>
<!-- Node2&#45;&gt;Node3 -->
<g id="edge2" class="edge">
<title>Node2&#45;&gt;Node3</title>
<path fill="none" stroke="#63b8ff" d="M77.07,-55.08C82.4,-47.8 90.14,-37.23 96.73,-28.23"/>
<polygon fill="#63b8ff" stroke="#63b8ff" points="99.96,-30.74 103.05,-20.61 94.31,-26.61 99.96,-30.74"/>
</g>
</g>
</svg>
