<?xml version="1.0" encoding="UTF-8" standalone="no"?>
<!DOCTYPE svg PUBLIC "-//W3C//DTD SVG 1.1//EN"
 "http://www.w3.org/Graphics/SVG/1.1/DTD/svg11.dtd">
<!-- Generated by graphviz version 8.0.4 (20230421.1958)
 -->
<!-- Title: rcvsdk/ios/rcvsdk/RcvOauthOptions.h Pages: 1 -->
<svg width="191pt" height="138pt"
 viewBox="0.00 0.00 190.50 137.75" xmlns="http://www.w3.org/2000/svg" xmlns:xlink="http://www.w3.org/1999/xlink">
<g id="graph0" class="graph" transform="scale(1 1) rotate(0) translate(4 133.75)">
<title>rcvsdk/ios/rcvsdk/RcvOauthOptions.h</title>
<!-- Node1 -->
<g id="node1" class="node">
<title>Node1</title>
<g id="a_node1"><a xlink:title=" ">
<polygon fill="#999999" stroke="#666666" points="182.5,-129.75 0,-129.75 0,-110.5 182.5,-110.5 182.5,-129.75"/>
<text text-anchor="middle" x="91.25" y="-116.25" font-family="Helvetica,sans-Serif" font-size="10.00">rcvsdk/ios/rcvsdk/RcvOauthOptions.h</text>
</a>
</g>
</g>
<!-- Node2 -->
<g id="node2" class="node">
<title>Node2</title>
<g id="a_node2"><a xlink:href="_rcv_grant_type_8h.html" target="_top" xlink:title=" ">
<polygon fill="white" stroke="#666666" points="98.88,-74.5 11.62,-74.5 11.62,-55.25 98.88,-55.25 98.88,-74.5"/>
<text text-anchor="middle" x="55.25" y="-61" font-family="Helvetica,sans-Serif" font-size="10.00">RcvGrantType.h</text>
</a>
</g>
</g>
<!-- Node1&#45;&gt;Node2 -->
<g id="edge1" class="edge">
<title>Node1&#45;&gt;Node2</title>
<path fill="none" stroke="#63b8ff" d="M85.31,-110.33C80.44,-103.13 73.39,-92.71 67.34,-83.76"/>
<polygon fill="#63b8ff" stroke="#63b8ff" points="69.82,-82.18 61.32,-75.86 64.03,-86.1 69.82,-82.18"/>
</g>
<!-- Node3 -->
<g id="node3" class="node">
<title>Node3</title>
<g id="a_node3"><a xlink:title=" ">
<polygon fill="#e0e0e0" stroke="#999999" points="152.88,-19.25 29.62,-19.25 29.62,0 152.88,0 152.88,-19.25"/>
<text text-anchor="middle" x="91.25" y="-5.75" font-family="Helvetica,sans-Serif" font-size="10.00">Foundation/Foundation.h</text>
</a>
</g>
</g>
<!-- Node1&#45;&gt;Node3 -->
<g id="edge3" class="edge">
<title>Node1&#45;&gt;Node3</title>
<path fill="none" stroke="#63b8ff" d="M95.77,-110.18C99.96,-101.36 105.88,-87.38 108.25,-74.5 111.08,-59.14 106.09,-42.05 100.8,-29.42"/>
<polygon fill="#63b8ff" stroke="#63b8ff" points="103.64,-28.22 96.26,-20.62 97.29,-31.17 103.64,-28.22"/>
</g>
<!-- Node2&#45;&gt;Node3 -->
<g id="edge2" class="edge">
<title>Node2&#45;&gt;Node3</title>
<path fill="none" stroke="#63b8ff" d="M61.19,-55.08C66.06,-47.88 73.11,-37.46 79.16,-28.51"/>
<polygon fill="#63b8ff" stroke="#63b8ff" points="82.47,-30.85 85.18,-20.61 76.68,-26.93 82.47,-30.85"/>
</g>
</g>
</svg>
