<?xml version="1.0" encoding="UTF-8" standalone="no"?>
<!DOCTYPE svg PUBLIC "-//W3C//DTD SVG 1.1//EN"
 "http://www.w3.org/Graphics/SVG/1.1/DTD/svg11.dtd">
<!-- Generated by graphviz version 8.0.5 (20230430.1635)
 -->
<!-- Title: rcvsdk/ios/rcvsdk/RcvVideoController.h Pages: 1 -->
<svg width="223pt" height="138pt"
 viewBox="0.00 0.00 222.62 137.75" xmlns="http://www.w3.org/2000/svg" xmlns:xlink="http://www.w3.org/1999/xlink">
<g id="graph0" class="graph" transform="scale(1 1) rotate(0) translate(4 133.75)">
<title>rcvsdk/ios/rcvsdk/RcvVideoController.h</title>
<!-- Node1 -->
<g id="Node000001" class="node">
<title>Node1</title>
<g id="a_Node000001"><a xlink:title=" ">
<polygon fill="#999999" stroke="#666666" points="214.62,-129.75 26.12,-129.75 26.12,-110.5 214.62,-110.5 214.62,-129.75"/>
<text text-anchor="middle" x="120.38" y="-116.25" font-family="Helvetica,sans-Serif" font-size="10.00">rcvsdk/ios/rcvsdk/RcvVideoController.h</text>
</a>
</g>
</g>
<!-- Node2 -->
<g id="Node000002" class="node">
<title>Node2</title>
<g id="a_Node000002"><a xlink:href="_rcv_virtual_background_type_8h.html" target="_top" xlink:title=" ">
<polygon fill="white" stroke="#666666" points="142.75,-74.5 0,-74.5 0,-55.25 142.75,-55.25 142.75,-74.5"/>
<text text-anchor="middle" x="71.38" y="-61" font-family="Helvetica,sans-Serif" font-size="10.00">RcvVirtualBackgroundType.h</text>
</a>
</g>
</g>
<!-- Node1&#45;&gt;Node2 -->
<g id="edge1_Node000001_Node000002" class="edge">
<title>Node1&#45;&gt;Node2</title>
<g id="a_edge1_Node000001_Node000002"><a xlink:title=" ">
<path fill="none" stroke="#63b8ff" d="M112.28,-110.33C105.44,-102.9 95.45,-92.04 87.05,-82.91"/>
<polygon fill="#63b8ff" stroke="#63b8ff" points="89.99,-80.85 80.64,-75.86 84.84,-85.59 89.99,-80.85"/>
</a>
</g>
</g>
<!-- Node3 -->
<g id="Node000003" class="node">
<title>Node3</title>
<g id="a_Node000003"><a xlink:title=" ">
<polygon fill="#e0e0e0" stroke="#999999" points="182,-19.25 58.75,-19.25 58.75,0 182,0 182,-19.25"/>
<text text-anchor="middle" x="120.38" y="-5.75" font-family="Helvetica,sans-Serif" font-size="10.00">Foundation/Foundation.h</text>
</a>
</g>
</g>
<!-- Node1&#45;&gt;Node3 -->
<g id="edge3_Node000001_Node000003" class="edge">
<title>Node1&#45;&gt;Node3</title>
<g id="a_edge3_Node000001_Node000003"><a xlink:title=" ">
<path fill="none" stroke="#63b8ff" d="M129.15,-110.12C136.7,-101.7 147.03,-88.36 151.38,-74.5 156.59,-57.84 146.55,-40.06 136.53,-27.51"/>
<polygon fill="#63b8ff" stroke="#63b8ff" points="138.67,-25.63 129.46,-20.37 133.38,-30.22 138.67,-25.63"/>
</a>
</g>
</g>
<!-- Node2&#45;&gt;Node3 -->
<g id="edge2_Node000002_Node000003" class="edge">
<title>Node2&#45;&gt;Node3</title>
<g id="a_edge2_Node000002_Node000003"><a xlink:title=" ">
<path fill="none" stroke="#63b8ff" d="M79.47,-55.08C86.31,-47.65 96.3,-36.79 104.7,-27.66"/>
<polygon fill="#63b8ff" stroke="#63b8ff" points="106.91,-30.34 111.11,-20.61 101.76,-25.6 106.91,-30.34"/>
</a>
</g>
</g>
</g>
</svg>
