<?xml version="1.0" encoding="UTF-8" standalone="no"?>
<!DOCTYPE svg PUBLIC "-//W3C//DTD SVG 1.1//EN"
 "http://www.w3.org/Graphics/SVG/1.1/DTD/svg11.dtd">
<!-- Generated by graphviz version 8.1.0 (20230707.0739)
 -->
<!-- Title: rcvsdk/ios/rcvsdk/RcvOpenGLVideoView.h Pages: 1 -->
<svg width="272pt" height="193pt"
 viewBox="0.00 0.00 272.25 193.00" xmlns="http://www.w3.org/2000/svg" xmlns:xlink="http://www.w3.org/1999/xlink">
<g id="graph0" class="graph" transform="scale(1 1) rotate(0) translate(4 189)">
<title>rcvsdk/ios/rcvsdk/RcvOpenGLVideoView.h</title>
<!-- Node1 -->
<g id="Node000001" class="node">
<title>Node1</title>
<g id="a_Node000001"><a xlink:title=" ">
<polygon fill="#999999" stroke="#666666" points="202.75,-185 0,-185 0,-165.75 202.75,-165.75 202.75,-185"/>
<text text-anchor="middle" x="101.38" y="-171.5" font-family="Helvetica,sans-Serif" font-size="10.00">rcvsdk/ios/rcvsdk/RcvOpenGLVideoView.h</text>
</a>
</g>
</g>
<!-- Node2 -->
<g id="Node000002" class="node">
<title>Node2</title>
<g id="a_Node000002"><a xlink:title=" ">
<polygon fill="#e0e0e0" stroke="#999999" points="105.5,-74.5 33.25,-74.5 33.25,-55.25 105.5,-55.25 105.5,-74.5"/>
<text text-anchor="middle" x="69.38" y="-61" font-family="Helvetica,sans-Serif" font-size="10.00">UIKit/UIKit.h</text>
</a>
</g>
</g>
<!-- Node1&#45;&gt;Node2 -->
<g id="edge1_Node000001_Node000002" class="edge">
<title>Node1&#45;&gt;Node2</title>
<g id="a_edge1_Node000001_Node000002"><a xlink:title=" ">
<path fill="none" stroke="#63b8ff" d="M95.98,-165.48C90.91,-156.71 83.49,-142.76 79.38,-129.75 74.8,-115.32 72.27,-98.36 70.9,-85.54"/>
<polygon fill="#63b8ff" stroke="#63b8ff" points="74.31,-85.39 69.91,-75.75 67.34,-86.02 74.31,-85.39"/>
</a>
</g>
</g>
<!-- Node3 -->
<g id="Node000003" class="node">
<title>Node3</title>
<g id="a_Node000003"><a xlink:href="_rcv_base_video_view_8h.html" target="_top" xlink:title=" ">
<polygon fill="white" stroke="#666666" points="198.25,-129.75 88.5,-129.75 88.5,-110.5 198.25,-110.5 198.25,-129.75"/>
<text text-anchor="middle" x="143.38" y="-116.25" font-family="Helvetica,sans-Serif" font-size="10.00">RcvBaseVideoView.h</text>
</a>
</g>
</g>
<!-- Node1&#45;&gt;Node3 -->
<g id="edge2_Node000001_Node000003" class="edge">
<title>Node1&#45;&gt;Node3</title>
<g id="a_edge2_Node000001_Node000003"><a xlink:title=" ">
<path fill="none" stroke="#63b8ff" d="M108.31,-165.58C114.05,-158.3 122.39,-147.73 129.49,-138.73"/>
<polygon fill="#63b8ff" stroke="#63b8ff" points="132.84,-141.13 136.29,-131.11 127.35,-136.79 132.84,-141.13"/>
</a>
</g>
</g>
<!-- Node3&#45;&gt;Node2 -->
<g id="edge4_Node000003_Node000002" class="edge">
<title>Node3&#45;&gt;Node2</title>
<g id="a_edge4_Node000003_Node000002"><a xlink:title=" ">
<path fill="none" stroke="#63b8ff" d="M130.82,-110.09C119.81,-102.16 103.56,-90.47 90.53,-81.1"/>
<polygon fill="#63b8ff" stroke="#63b8ff" points="92.9,-77.77 82.74,-74.77 88.82,-83.46 92.9,-77.77"/>
</a>
</g>
</g>
<!-- Node4 -->
<g id="Node000004" class="node">
<title>Node4</title>
<g id="a_Node000004"><a xlink:title=" ">
<polygon fill="#e0e0e0" stroke="#999999" points="238,-19.25 114.75,-19.25 114.75,0 238,0 238,-19.25"/>
<text text-anchor="middle" x="176.38" y="-5.75" font-family="Helvetica,sans-Serif" font-size="10.00">Foundation/Foundation.h</text>
</a>
</g>
</g>
<!-- Node3&#45;&gt;Node4 -->
<g id="edge3_Node000003_Node000004" class="edge">
<title>Node3&#45;&gt;Node4</title>
<g id="a_edge3_Node000003_Node000004"><a xlink:title=" ">
<path fill="none" stroke="#63b8ff" d="M144.77,-110.31C146.86,-97.86 151.23,-74.5 157.38,-55.25 160.13,-46.64 163.91,-37.4 167.38,-29.57"/>
<polygon fill="#63b8ff" stroke="#63b8ff" points="170.94,-31.21 171.93,-20.67 164.58,-28.29 170.94,-31.21"/>
</a>
</g>
</g>
<!-- Node5 -->
<g id="Node000005" class="node">
<title>Node5</title>
<g id="a_Node000005"><a xlink:href="_rcv_render_mode_8h.html" target="_top" xlink:title=" ">
<polygon fill="white" stroke="#666666" points="264.25,-74.5 166.5,-74.5 166.5,-55.25 264.25,-55.25 264.25,-74.5"/>
<text text-anchor="middle" x="215.38" y="-61" font-family="Helvetica,sans-Serif" font-size="10.00">RcvRenderMode.h</text>
</a>
</g>
</g>
<!-- Node3&#45;&gt;Node5 -->
<g id="edge5_Node000003_Node000005" class="edge">
<title>Node3&#45;&gt;Node5</title>
<g id="a_edge5_Node000003_Node000005"><a xlink:title=" ">
<path fill="none" stroke="#63b8ff" d="M155.59,-110.09C166.31,-102.16 182.12,-90.47 194.79,-81.1"/>
<polygon fill="#63b8ff" stroke="#63b8ff" points="196.38,-83.54 202.34,-74.77 192.22,-77.91 196.38,-83.54"/>
</a>
</g>
</g>
<!-- Node5&#45;&gt;Node4 -->
<g id="edge6_Node000005_Node000004" class="edge">
<title>Node5&#45;&gt;Node4</title>
<g id="a_edge6_Node000005_Node000004"><a xlink:title=" ">
<path fill="none" stroke="#63b8ff" d="M208.93,-55.08C203.6,-47.8 195.86,-37.23 189.27,-28.23"/>
<polygon fill="#63b8ff" stroke="#63b8ff" points="191.69,-26.61 182.95,-20.61 186.04,-30.74 191.69,-26.61"/>
</a>
</g>
</g>
</g>
</svg>
