<?xml version="1.0" encoding="UTF-8" standalone="no"?>
<!DOCTYPE svg PUBLIC "-//W3C//DTD SVG 1.1//EN"
 "http://www.w3.org/Graphics/SVG/1.1/DTD/svg11.dtd">
<!-- Generated by graphviz version 8.0.1 (20230327.1645)
 -->
<!-- Title: rcvsdk/ios/rcvsdk/RcvMetalVideoView.h Pages: 1 -->
<svg width="313pt" height="192pt"
 viewBox="0.00 0.00 313.00 192.00" xmlns="http://www.w3.org/2000/svg" xmlns:xlink="http://www.w3.org/1999/xlink">
<g id="graph0" class="graph" transform="scale(1 1) rotate(0) translate(4 188)">
<title>rcvsdk/ios/rcvsdk/RcvMetalVideoView.h</title>
<!-- Node1 -->
<g id="node1" class="node">
<title>Node1</title>
<g id="a_node1"><a xlink:title=" ">
<polygon fill="#999999" stroke="#666666" points="192,-184 0,-184 0,-165 192,-165 192,-184"/>
<text text-anchor="middle" x="96" y="-172" font-family="Helvetica,sans-Serif" font-size="10.00">rcvsdk/ios/rcvsdk/RcvMetalVideoView.h</text>
</a>
</g>
</g>
<!-- Node2 -->
<g id="node2" class="node">
<title>Node2</title>
<g id="a_node2"><a xlink:title=" ">
<polygon fill="#e0e0e0" stroke="#999999" points="241,-19 117,-19 117,0 241,0 241,-19"/>
<text text-anchor="middle" x="179" y="-7" font-family="Helvetica,sans-Serif" font-size="10.00">Foundation/Foundation.h</text>
</a>
</g>
</g>
<!-- Node1&#45;&gt;Node2 -->
<g id="edge1" class="edge">
<title>Node1&#45;&gt;Node2</title>
<path fill="none" stroke="#63b8ff" d="M89.59,-164.63C75.34,-143.7 44.07,-90.37 68,-55 78.41,-39.62 95.09,-29.55 112.4,-22.97"/>
<polygon fill="#63b8ff" stroke="#63b8ff" points="113.28,-26.02 121.61,-19.48 111.02,-19.4 113.28,-26.02"/>
</g>
<!-- Node3 -->
<g id="node3" class="node">
<title>Node3</title>
<g id="a_node3"><a xlink:title=" ">
<polygon fill="#e0e0e0" stroke="#999999" points="150.5,-74 77.5,-74 77.5,-55 150.5,-55 150.5,-74"/>
<text text-anchor="middle" x="114" y="-62" font-family="Helvetica,sans-Serif" font-size="10.00">UIKit/UIKit.h</text>
</a>
</g>
</g>
<!-- Node1&#45;&gt;Node3 -->
<g id="edge2" class="edge">
<title>Node1&#45;&gt;Node3</title>
<path fill="none" stroke="#63b8ff" d="M97.47,-164.66C100.35,-147.42 106.77,-108.9 110.7,-85.27"/>
<polygon fill="#63b8ff" stroke="#63b8ff" points="114.31,-85.9 112.51,-75.46 107.41,-84.75 114.31,-85.9"/>
</g>
<!-- Node4 -->
<g id="node4" class="node">
<title>Node4</title>
<g id="a_node4"><a xlink:href="_rcv_base_video_view_8h.html" target="_top" xlink:title=" ">
<polygon fill="white" stroke="#666666" points="234,-129 124,-129 124,-110 234,-110 234,-129"/>
<text text-anchor="middle" x="179" y="-117" font-family="Helvetica,sans-Serif" font-size="10.00">RcvBaseVideoView.h</text>
</a>
</g>
</g>
<!-- Node1&#45;&gt;Node4 -->
<g id="edge3" class="edge">
<title>Node1&#45;&gt;Node4</title>
<path fill="none" stroke="#63b8ff" d="M110.08,-164.51C122.68,-156.47 141.37,-144.53 156.11,-135.11"/>
<polygon fill="#63b8ff" stroke="#63b8ff" points="157.58,-137.69 164.13,-129.36 153.82,-131.79 157.58,-137.69"/>
</g>
<!-- Node4&#45;&gt;Node2 -->
<g id="edge4" class="edge">
<title>Node4&#45;&gt;Node2</title>
<path fill="none" stroke="#63b8ff" d="M179,-109.66C179,-92.42 179,-53.9 179,-30.27"/>
<polygon fill="#63b8ff" stroke="#63b8ff" points="182.5,-30.46 179,-20.46 175.5,-30.46 182.5,-30.46"/>
</g>
<!-- Node4&#45;&gt;Node3 -->
<g id="edge5" class="edge">
<title>Node4&#45;&gt;Node3</title>
<path fill="none" stroke="#63b8ff" d="M167.97,-109.51C158.49,-101.77 144.58,-90.43 133.25,-81.2"/>
<polygon fill="#63b8ff" stroke="#63b8ff" points="135.83,-77.96 125.86,-74.36 131.4,-83.39 135.83,-77.96"/>
</g>
<!-- Node5 -->
<g id="node5" class="node">
<title>Node5</title>
<g id="a_node5"><a xlink:href="_rcv_render_mode_8h.html" target="_top" xlink:title=" ">
<polygon fill="white" stroke="#666666" points="305,-74 207,-74 207,-55 305,-55 305,-74"/>
<text text-anchor="middle" x="256" y="-62" font-family="Helvetica,sans-Serif" font-size="10.00">RcvRenderMode.h</text>
</a>
</g>
</g>
<!-- Node4&#45;&gt;Node5 -->
<g id="edge6" class="edge">
<title>Node4&#45;&gt;Node5</title>
<path fill="none" stroke="#63b8ff" d="M192.06,-109.51C203.64,-101.54 220.76,-89.75 234.38,-80.38"/>
<polygon fill="#63b8ff" stroke="#63b8ff" points="235.88,-82.91 242.13,-74.36 231.91,-77.14 235.88,-82.91"/>
</g>
<!-- Node5&#45;&gt;Node2 -->
<g id="edge7" class="edge">
<title>Node5&#45;&gt;Node2</title>
<path fill="none" stroke="#63b8ff" d="M242.94,-54.51C231.36,-46.54 214.24,-34.75 200.62,-25.38"/>
<polygon fill="#63b8ff" stroke="#63b8ff" points="203.09,-22.14 192.87,-19.36 199.12,-27.91 203.09,-22.14"/>
</g>
</g>
</svg>
