<?xml version="1.0" encoding="UTF-8" standalone="no"?>
<!DOCTYPE svg PUBLIC "-//W3C//DTD SVG 1.1//EN"
 "http://www.w3.org/Graphics/SVG/1.1/DTD/svg11.dtd">
<!-- Generated by graphviz version 8.0.4 (20230421.1958)
 -->
<!-- Title: rcvsdk/ios/rcvsdk/RcvChatType.h Pages: 1 -->
<svg width="226pt" height="138pt"
 viewBox="0.00 0.00 225.75 137.75" xmlns="http://www.w3.org/2000/svg" xmlns:xlink="http://www.w3.org/1999/xlink">
<g id="graph0" class="graph" transform="scale(1 1) rotate(0) translate(4 133.75)">
<title>rcvsdk/ios/rcvsdk/RcvChatType.h</title>
<!-- Node1 -->
<g id="node1" class="node">
<title>Node1</title>
<g id="a_node1"><a xlink:title=" ">
<polygon fill="#999999" stroke="#666666" points="191.12,-129.75 26.62,-129.75 26.62,-110.5 191.12,-110.5 191.12,-129.75"/>
<text text-anchor="middle" x="108.88" y="-116.25" font-family="Helvetica,sans-Serif" font-size="10.00">rcvsdk/ios/rcvsdk/RcvChatType.h</text>
</a>
</g>
</g>
<!-- Node2 -->
<g id="node2" class="node">
<title>Node2</title>
<g id="a_node2"><a xlink:href="_rcv_meeting_chat_message_8h.html" target="_top" xlink:title=" ">
<polygon fill="white" stroke="#666666" points="217.75,-74.5 0,-74.5 0,-55.25 217.75,-55.25 217.75,-74.5"/>
<text text-anchor="middle" x="108.88" y="-61" font-family="Helvetica,sans-Serif" font-size="10.00">rcvsdk/ios/rcvsdk/RcvMeetingChatMessage.h</text>
</a>
</g>
</g>
<!-- Node1&#45;&gt;Node2 -->
<g id="edge1" class="edge">
<title>Node1&#45;&gt;Node2</title>
<path fill="none" stroke="#63b8ff" d="M108.88,-99.46C108.88,-91.02 108.88,-81.58 108.88,-74.86"/>
<polygon fill="#63b8ff" stroke="#63b8ff" points="105.38,-99.33 108.88,-109.33 112.38,-99.33 105.38,-99.33"/>
</g>
<!-- Node3 -->
<g id="node3" class="node">
<title>Node3</title>
<g id="a_node3"><a xlink:href="_rcv_s_d_k_8h.html" target="_top" xlink:title=" ">
<polygon fill="white" stroke="#666666" points="180.62,-19.25 37.12,-19.25 37.12,0 180.62,0 180.62,-19.25"/>
<text text-anchor="middle" x="108.88" y="-5.75" font-family="Helvetica,sans-Serif" font-size="10.00">rcvsdk/ios/rcvsdk/RcvSDK.h</text>
</a>
</g>
</g>
<!-- Node2&#45;&gt;Node3 -->
<g id="edge2" class="edge">
<title>Node2&#45;&gt;Node3</title>
<path fill="none" stroke="#63b8ff" d="M108.88,-44.21C108.88,-35.77 108.88,-26.33 108.88,-19.61"/>
<polygon fill="#63b8ff" stroke="#63b8ff" points="105.38,-44.08 108.88,-54.08 112.38,-44.08 105.38,-44.08"/>
</g>
</g>
</svg>
