<?xml version="1.0" encoding="UTF-8" standalone="no"?>
<!DOCTYPE svg PUBLIC "-//W3C//DTD SVG 1.1//EN"
 "http://www.w3.org/Graphics/SVG/1.1/DTD/svg11.dtd">
<!-- Generated by graphviz version 8.1.0 (20230707.0739)
 -->
<!-- Title: rcvsdk/ios/rcvsdk/RcvMeetingUserEventHandler.h Pages: 1 -->
<svg width="270pt" height="138pt"
 viewBox="0.00 0.00 270.12 137.75" xmlns="http://www.w3.org/2000/svg" xmlns:xlink="http://www.w3.org/1999/xlink">
<g id="graph0" class="graph" transform="scale(1 1) rotate(0) translate(4 133.75)">
<title>rcvsdk/ios/rcvsdk/RcvMeetingUserEventHandler.h</title>
<!-- Node1 -->
<g id="Node000001" class="node">
<title>Node1</title>
<g id="a_Node000001"><a xlink:title=" ">
<polygon fill="#999999" stroke="#666666" points="262.12,-129.75 25.62,-129.75 25.62,-110.5 262.12,-110.5 262.12,-129.75"/>
<text text-anchor="middle" x="143.88" y="-116.25" font-family="Helvetica,sans-Serif" font-size="10.00">rcvsdk/ios/rcvsdk/RcvMeetingUserEventHandler.h</text>
</a>
</g>
</g>
<!-- Node2 -->
<g id="Node000002" class="node">
<title>Node2</title>
<g id="a_Node000002"><a xlink:href="_rcv_call_phone_status_8h.html" target="_top" xlink:title=" ">
<polygon fill="white" stroke="#666666" points="115.75,-74.5 0,-74.5 0,-55.25 115.75,-55.25 115.75,-74.5"/>
<text text-anchor="middle" x="57.88" y="-61" font-family="Helvetica,sans-Serif" font-size="10.00">RcvCallPhoneStatus.h</text>
</a>
</g>
</g>
<!-- Node1&#45;&gt;Node2 -->
<g id="edge1_Node000001_Node000002" class="edge">
<title>Node1&#45;&gt;Node2</title>
<g id="a_edge1_Node000001_Node000002"><a xlink:title=" ">
<path fill="none" stroke="#63b8ff" d="M129.29,-110.09C116.31,-102.06 97.1,-90.16 81.86,-80.73"/>
<polygon fill="#63b8ff" stroke="#63b8ff" points="83.88,-77.24 73.54,-74.95 80.19,-83.19 83.88,-77.24"/>
</a>
</g>
</g>
<!-- Node3 -->
<g id="Node000003" class="node">
<title>Node3</title>
<g id="a_Node000003"><a xlink:title=" ">
<polygon fill="#e0e0e0" stroke="#999999" points="205.5,-19.25 82.25,-19.25 82.25,0 205.5,0 205.5,-19.25"/>
<text text-anchor="middle" x="143.88" y="-5.75" font-family="Helvetica,sans-Serif" font-size="10.00">Foundation/Foundation.h</text>
</a>
</g>
</g>
<!-- Node1&#45;&gt;Node3 -->
<g id="edge5_Node000001_Node000003" class="edge">
<title>Node1&#45;&gt;Node3</title>
<g id="a_edge5_Node000001_Node000003"><a xlink:title=" ">
<path fill="none" stroke="#63b8ff" d="M143.88,-110.25C143.88,-92.92 143.88,-54.23 143.88,-30.49"/>
<polygon fill="#63b8ff" stroke="#63b8ff" points="147.38,-30.63 143.88,-20.63 140.38,-30.63 147.38,-30.63"/>
</a>
</g>
</g>
<!-- Node4 -->
<g id="Node000004" class="node">
<title>Node4</title>
<g id="a_Node000004"><a xlink:href="_rcv_nqi_state_8h.html" target="_top" xlink:title=" ">
<polygon fill="white" stroke="#666666" points="252.12,-74.5 171.62,-74.5 171.62,-55.25 252.12,-55.25 252.12,-74.5"/>
<text text-anchor="middle" x="211.88" y="-61" font-family="Helvetica,sans-Serif" font-size="10.00">RcvNqiState.h</text>
</a>
</g>
</g>
<!-- Node1&#45;&gt;Node4 -->
<g id="edge3_Node000001_Node000004" class="edge">
<title>Node1&#45;&gt;Node4</title>
<g id="a_edge3_Node000001_Node000004"><a xlink:title=" ">
<path fill="none" stroke="#63b8ff" d="M155.41,-110.09C165.44,-102.24 180.18,-90.7 192.08,-81.37"/>
<polygon fill="#63b8ff" stroke="#63b8ff" points="193.79,-83.7 199.51,-74.77 189.48,-78.18 193.79,-83.7"/>
</a>
</g>
</g>
<!-- Node2&#45;&gt;Node3 -->
<g id="edge2_Node000002_Node000003" class="edge">
<title>Node2&#45;&gt;Node3</title>
<g id="a_edge2_Node000002_Node000003"><a xlink:title=" ">
<path fill="none" stroke="#63b8ff" d="M72.46,-54.84C85.44,-46.81 104.65,-34.91 119.89,-25.48"/>
<polygon fill="#63b8ff" stroke="#63b8ff" points="121.56,-27.94 128.21,-19.7 117.87,-21.99 121.56,-27.94"/>
</a>
</g>
</g>
<!-- Node4&#45;&gt;Node3 -->
<g id="edge4_Node000004_Node000003" class="edge">
<title>Node4&#45;&gt;Node3</title>
<g id="a_edge4_Node000004_Node000003"><a xlink:title=" ">
<path fill="none" stroke="#63b8ff" d="M200.34,-54.84C190.31,-46.99 175.57,-35.45 163.67,-26.12"/>
<polygon fill="#63b8ff" stroke="#63b8ff" points="166.27,-22.93 156.24,-19.52 161.96,-28.45 166.27,-22.93"/>
</a>
</g>
</g>
</g>
</svg>
