<?xml version="1.0" encoding="UTF-8" standalone="no"?>
<!DOCTYPE svg PUBLIC "-//W3C//DTD SVG 1.1//EN"
 "http://www.w3.org/Graphics/SVG/1.1/DTD/svg11.dtd">
<!-- Generated by graphviz version 8.0.4 (20230421.1958)
 -->
<!-- Title: rcvsdk/ios/rcvsdk/RcvEJoinMeetingType.h Pages: 1 -->
<svg width="211pt" height="138pt"
 viewBox="0.00 0.00 210.75 137.75" xmlns="http://www.w3.org/2000/svg" xmlns:xlink="http://www.w3.org/1999/xlink">
<g id="graph0" class="graph" transform="scale(1 1) rotate(0) translate(4 133.75)">
<title>rcvsdk/ios/rcvsdk/RcvEJoinMeetingType.h</title>
<!-- Node1 -->
<g id="node1" class="node">
<title>Node1</title>
<g id="a_node1"><a xlink:title=" ">
<polygon fill="#999999" stroke="#666666" points="202.75,-129.75 0,-129.75 0,-110.5 202.75,-110.5 202.75,-129.75"/>
<text text-anchor="middle" x="101.38" y="-116.25" font-family="Helvetica,sans-Serif" font-size="10.00">rcvsdk/ios/rcvsdk/RcvEJoinMeetingType.h</text>
</a>
</g>
</g>
<!-- Node2 -->
<g id="node2" class="node">
<title>Node2</title>
<g id="a_node2"><a xlink:href="_rcv_meeting_options_8h.html" target="_top" xlink:title=" ">
<polygon fill="white" stroke="#666666" points="196.75,-74.5 6,-74.5 6,-55.25 196.75,-55.25 196.75,-74.5"/>
<text text-anchor="middle" x="101.38" y="-61" font-family="Helvetica,sans-Serif" font-size="10.00">rcvsdk/ios/rcvsdk/RcvMeetingOptions.h</text>
</a>
</g>
</g>
<!-- Node1&#45;&gt;Node2 -->
<g id="edge1" class="edge">
<title>Node1&#45;&gt;Node2</title>
<path fill="none" stroke="#63b8ff" d="M101.38,-99.46C101.38,-91.02 101.38,-81.58 101.38,-74.86"/>
<polygon fill="#63b8ff" stroke="#63b8ff" points="97.88,-99.33 101.38,-109.33 104.88,-99.33 97.88,-99.33"/>
</g>
<!-- Node3 -->
<g id="node3" class="node">
<title>Node3</title>
<g id="a_node3"><a xlink:href="_rcv_s_d_k_8h.html" target="_top" xlink:title=" ">
<polygon fill="white" stroke="#666666" points="173.12,-19.25 29.62,-19.25 29.62,0 173.12,0 173.12,-19.25"/>
<text text-anchor="middle" x="101.38" y="-5.75" font-family="Helvetica,sans-Serif" font-size="10.00">rcvsdk/ios/rcvsdk/RcvSDK.h</text>
</a>
</g>
</g>
<!-- Node2&#45;&gt;Node3 -->
<g id="edge2" class="edge">
<title>Node2&#45;&gt;Node3</title>
<path fill="none" stroke="#63b8ff" d="M101.38,-44.21C101.38,-35.77 101.38,-26.33 101.38,-19.61"/>
<polygon fill="#63b8ff" stroke="#63b8ff" points="97.88,-44.08 101.38,-54.08 104.88,-44.08 97.88,-44.08"/>
</g>
</g>
</svg>
