<?xml version="1.0" encoding="UTF-8" standalone="no"?>
<!DOCTYPE svg PUBLIC "-//W3C//DTD SVG 1.1//EN"
 "http://www.w3.org/Graphics/SVG/1.1/DTD/svg11.dtd">
<!-- Generated by graphviz version 8.1.0 (20230707.0739)
 -->
<!-- Title: rcvsdk/ios/rcvsdk/RcvLocalAudioError.h Pages: 1 -->
<svg width="271pt" height="138pt"
 viewBox="0.00 0.00 271.25 137.75" xmlns="http://www.w3.org/2000/svg" xmlns:xlink="http://www.w3.org/1999/xlink">
<g id="graph0" class="graph" transform="scale(1 1) rotate(0) translate(4 133.75)">
<title>rcvsdk/ios/rcvsdk/RcvLocalAudioError.h</title>
<!-- Node1 -->
<g id="Node000001" class="node">
<title>Node1</title>
<g id="a_Node000001"><a xlink:title=" ">
<polygon fill="#999999" stroke="#666666" points="263.25,-129.75 72.5,-129.75 72.5,-110.5 263.25,-110.5 263.25,-129.75"/>
<text text-anchor="middle" x="167.88" y="-116.25" font-family="Helvetica,sans-Serif" font-size="10.00">rcvsdk/ios/rcvsdk/RcvLocalAudioError.h</text>
</a>
</g>
</g>
<!-- Node2 -->
<g id="Node000002" class="node">
<title>Node2</title>
<g id="a_Node000002"><a xlink:href="_rcv_audio_event_handler_8h.html" target="_top" xlink:title=" ">
<polygon fill="white" stroke="#666666" points="205.75,-74.5 0,-74.5 0,-55.25 205.75,-55.25 205.75,-74.5"/>
<text text-anchor="middle" x="102.88" y="-61" font-family="Helvetica,sans-Serif" font-size="10.00">rcvsdk/ios/rcvsdk/RcvAudioEventHandler.h</text>
</a>
</g>
</g>
<!-- Node1&#45;&gt;Node2 -->
<g id="edge1_Node000001_Node000002" class="edge">
<title>Node1&#45;&gt;Node2</title>
<g id="a_edge1_Node000001_Node000002"><a xlink:title=" ">
<path fill="none" stroke="#63b8ff" d="M148.43,-103.19C137.07,-93.89 123.18,-82.51 113.74,-74.77"/>
<polygon fill="#63b8ff" stroke="#63b8ff" points="145.89,-106.46 155.85,-110.09 150.33,-101.05 145.89,-106.46"/>
</a>
</g>
</g>
<!-- Node3 -->
<g id="Node000003" class="node">
<title>Node3</title>
<g id="a_Node000003"><a xlink:href="_rcv_s_d_k_8h.html" target="_top" xlink:title=" ">
<polygon fill="white" stroke="#666666" points="239.62,-19.25 96.12,-19.25 96.12,0 239.62,0 239.62,-19.25"/>
<text text-anchor="middle" x="167.88" y="-5.75" font-family="Helvetica,sans-Serif" font-size="10.00">rcvsdk/ios/rcvsdk/RcvSDK.h</text>
</a>
</g>
</g>
<!-- Node1&#45;&gt;Node3 -->
<g id="edge3_Node000001_Node000003" class="edge">
<title>Node1&#45;&gt;Node3</title>
<g id="a_edge3_Node000001_Node000003"><a xlink:title=" ">
<path fill="none" stroke="#63b8ff" d="M191,-103.67C200.26,-96.1 209.9,-86.1 214.88,-74.5 224.22,-52.74 199.79,-31.39 182.75,-19.72"/>
<polygon fill="#63b8ff" stroke="#63b8ff" points="189.27,-101.35 183.4,-110.17 193.49,-106.93 189.27,-101.35"/>
</a>
</g>
</g>
<!-- Node2&#45;&gt;Node3 -->
<g id="edge2_Node000002_Node000003" class="edge">
<title>Node2&#45;&gt;Node3</title>
<g id="a_edge2_Node000002_Node000003"><a xlink:title=" ">
<path fill="none" stroke="#63b8ff" d="M122.32,-47.94C133.68,-38.64 147.57,-27.26 157.01,-19.52"/>
<polygon fill="#63b8ff" stroke="#63b8ff" points="120.42,-45.8 114.9,-54.84 124.86,-51.21 120.42,-45.8"/>
</a>
</g>
</g>
</g>
</svg>
