<?xml version="1.0" encoding="UTF-8" standalone="no"?>
<!DOCTYPE svg PUBLIC "-//W3C//DTD SVG 1.1//EN"
 "http://www.w3.org/Graphics/SVG/1.1/DTD/svg11.dtd">
<!-- Generated by graphviz version 8.1.0 (20230707.0739)
 -->
<!-- Title: rcvsdk/ios/rcvsdk/RcvMeetingBridgeInfo.h Pages: 1 -->
<!--zoomable 138 -->

<svg id="main" version="1.1" xmlns="http://www.w3.org/2000/svg" xmlns:xlink="http://www.w3.org/1999/xlink" xml:space="preserve" onload="init(evt)">
<style type="text/css"><![CDATA[
.node, .edge {opacity: 0.7;}
.node.selected, .edge.selected {opacity: 1;}
.edge:hover path { stroke: red; }
.edge:hover polygon { stroke: red; fill: red; }
]]></style>

<defs>
  <circle id="rim" cx="0" cy="0" r="7"/>
  <circle id="rim2" cx="0" cy="0" r="3.5"/>
  <g id="zoomPlus">
    <use xlink:href="#rim" fill="#404040"><set attributeName="fill" to="#808080" begin="zoomplus.mouseover" end="zoomplus.mouseout"/></use>
    <path d="M-4,0h8M0,-4v8" fill="none" stroke="white" stroke-width="1.5" pointer-events="none"/>
  </g>
  <g id="zoomMin">
    <use xlink:href="#rim" fill="#404040"><set attributeName="fill" to="#808080" begin="zoomminus.mouseover" end="zoomminus.mouseout"/></use>
    <path d="M-4,0h8" fill="none" stroke="white" stroke-width="1.5" pointer-events="none"/>
  </g>
  <g id="arrowUp" transform="translate(30 24)">
    <use xlink:href="#rim"/>
    <path pointer-events="none" fill="none" stroke="white" stroke-width="1.5" d="M0,-3.0v7 M-2.5,-0.5L0,-3.0L2.5,-0.5"/>
  </g>
  <g id="arrowRight" transform="rotate(90) translate(36 -43)">
    <use xlink:href="#rim"/>
    <path pointer-events="none" fill="none" stroke="white" stroke-width="1.5" d="M0,-3.0v7 M-2.5,-0.5L0,-3.0L2.5,-0.5"/>
  </g>
  <g id="arrowDown" transform="rotate(180) translate(-30 -48)">
    <use xlink:href="#rim"/>
    <path pointer-events="none" fill="none" stroke="white" stroke-width="1.5" d="M0,-3.0v7 M-2.5,-0.5L0,-3.0L2.5,-0.5"/>
  </g>
  <g id="arrowLeft" transform="rotate(270) translate(-36 17)">
    <use xlink:href="#rim"/>
    <path pointer-events="none" fill="none" stroke="white" stroke-width="1.5" d="M0,-3.0v7 M-2.5,-0.5L0,-3.0L2.5,-0.5"/>
  </g>
  <g id="resetDef">
    <use xlink:href="#rim2" fill="#404040"><set attributeName="fill" to="#808080" begin="reset.mouseover" end="reset.mouseout"/></use>
  </g>
</defs>
<script type="application/ecmascript">
var viewWidth = 690;
var viewHeight = 138;
var sectionId = 'dynsection-0';
</script>
<script type="application/ecmascript" xlink:href="svg.min.js"/>
<svg id="graph" class="graph">
<g id="viewport">
<title>rcvsdk/ios/rcvsdk/RcvMeetingBridgeInfo.h</title>
<!-- Node1 -->
<g id="Node000001" class="node">
<title>Node1</title>
<g id="a_Node000001"><a xlink:title=" ">
<polygon fill="#999999" stroke="#666666" points="374.5,-129.75 173.25,-129.75 173.25,-110.5 374.5,-110.5 374.5,-129.75"/>
<text text-anchor="middle" x="273.88" y="-116.25" font-family="Helvetica,sans-Serif" font-size="10.00">rcvsdk/ios/rcvsdk/RcvMeetingBridgeInfo.h</text>
</a>
</g>
</g>
<!-- Node2 -->
<g id="Node000002" class="node">
<title>Node2</title>
<g id="a_Node000002"><a xlink:href="_rcv_meeting_type_8h.html" target="_top" xlink:title=" ">
<polygon fill="white" stroke="#666666" points="97.75,-74.5 0,-74.5 0,-55.25 97.75,-55.25 97.75,-74.5"/>
<text text-anchor="middle" x="48.88" y="-61" font-family="Helvetica,sans-Serif" font-size="10.00">RcvMeetingType.h</text>
</a>
</g>
</g>
<!-- Node1&#45;&gt;Node2 -->
<g id="edge1_Node000001_Node000002" class="edge">
<title>Node1&#45;&gt;Node2</title>
<g id="a_edge1_Node000001_Node000002"><a xlink:title=" ">
<path fill="none" stroke="#63b8ff" d="M235.45,-110.03C197.43,-101.03 139.09,-87.23 97.78,-77.45"/>
<polygon fill="#63b8ff" stroke="#63b8ff" points="98.68,-73.83 88.14,-74.93 97.06,-80.64 98.68,-73.83"/>
</a>
</g>
</g>
<!-- Node3 -->
<g id="Node000003" class="node">
<title>Node3</title>
<g id="a_Node000003"><a xlink:title=" ">
<polygon fill="#e0e0e0" stroke="#999999" points="335.5,-19.25 212.25,-19.25 212.25,0 335.5,0 335.5,-19.25"/>
<text text-anchor="middle" x="273.88" y="-5.75" font-family="Helvetica,sans-Serif" font-size="10.00">Foundation/Foundation.h</text>
</a>
</g>
</g>
<!-- Node1&#45;&gt;Node3 -->
<g id="edge11_Node000001_Node000003" class="edge">
<title>Node1&#45;&gt;Node3</title>
<g id="a_edge11_Node000001_Node000003"><a xlink:title=" ">
<path fill="none" stroke="#63b8ff" d="M200.14,-110.03C178.84,-103.6 157.87,-92.74 144.88,-74.5 125.31,-47.03 162.22,-30.77 201.49,-21.54"/>
<polygon fill="#63b8ff" stroke="#63b8ff" points="202.02,-24.79 211.04,-19.23 200.52,-17.95 202.02,-24.79"/>
</a>
</g>
</g>
<!-- Node4 -->
<g id="Node000004" class="node">
<title>Node4</title>
<g id="a_Node000004"><a xlink:href="_rcv_play_tones_mode_8h.html" target="_top" xlink:title=" ">
<polygon fill="white" stroke="#666666" points="265.88,-74.5 153.88,-74.5 153.88,-55.25 265.88,-55.25 265.88,-74.5"/>
<text text-anchor="middle" x="209.88" y="-61" font-family="Helvetica,sans-Serif" font-size="10.00">RcvPlayTonesMode.h</text>
</a>
</g>
</g>
<!-- Node1&#45;&gt;Node4 -->
<g id="edge3_Node000001_Node000004" class="edge">
<title>Node1&#45;&gt;Node4</title>
<g id="a_edge3_Node000001_Node000004"><a xlink:title=" ">
<path fill="none" stroke="#63b8ff" d="M263.02,-110.09C253.68,-102.32 239.98,-90.92 228.83,-81.65"/>
<polygon fill="#63b8ff" stroke="#63b8ff" points="231.5,-78.48 221.57,-74.77 227.02,-83.86 231.5,-78.48"/>
</a>
</g>
</g>
<!-- Node5 -->
<g id="Node000005" class="node">
<title>Node5</title>
<g id="a_Node000005"><a xlink:href="_rcv_recording_mode_8h.html" target="_top" xlink:title=" ">
<polygon fill="white" stroke="#666666" points="394.12,-74.5 283.62,-74.5 283.62,-55.25 394.12,-55.25 394.12,-74.5"/>
<text text-anchor="middle" x="338.88" y="-61" font-family="Helvetica,sans-Serif" font-size="10.00">RcvRecordingMode.h</text>
</a>
</g>
</g>
<!-- Node1&#45;&gt;Node5 -->
<g id="edge5_Node000001_Node000005" class="edge">
<title>Node1&#45;&gt;Node5</title>
<g id="a_edge5_Node000001_Node000005"><a xlink:title=" ">
<path fill="none" stroke="#63b8ff" d="M284.9,-110.09C294.39,-102.32 308.3,-90.92 319.62,-81.65"/>
<polygon fill="#63b8ff" stroke="#63b8ff" points="321.49,-83.82 327.01,-74.77 317.06,-78.4 321.49,-83.82"/>
</a>
</g>
</g>
<!-- Node6 -->
<g id="Node000006" class="node">
<title>Node6</title>
<g id="a_Node000006"><a xlink:href="_rcv_transcriptions_mode_8h.html" target="_top" xlink:title=" ">
<polygon fill="white" stroke="#666666" points="539.75,-74.5 412,-74.5 412,-55.25 539.75,-55.25 539.75,-74.5"/>
<text text-anchor="middle" x="475.88" y="-61" font-family="Helvetica,sans-Serif" font-size="10.00">RcvTranscriptionsMode.h</text>
</a>
</g>
</g>
<!-- Node1&#45;&gt;Node6 -->
<g id="edge7_Node000001_Node000006" class="edge">
<title>Node1&#45;&gt;Node6</title>
<g id="a_edge7_Node000001_Node000006"><a xlink:title=" ">
<path fill="none" stroke="#63b8ff" d="M308.14,-110.09C341.95,-101.18 393.81,-87.51 430.92,-77.73"/>
<polygon fill="#63b8ff" stroke="#63b8ff" points="431.66,-80.89 440.44,-74.95 429.88,-74.12 431.66,-80.89"/>
</a>
</g>
</g>
<!-- Node7 -->
<g id="Node000007" class="node">
<title>Node7</title>
<g id="a_Node000007"><a xlink:href="_rcv_waiting_room_mode_8h.html" target="_top" xlink:title=" ">
<polygon fill="white" stroke="#666666" points="682.25,-74.5 557.5,-74.5 557.5,-55.25 682.25,-55.25 682.25,-74.5"/>
<text text-anchor="middle" x="619.88" y="-61" font-family="Helvetica,sans-Serif" font-size="10.00">RcvWaitingRoomMode.h</text>
</a>
</g>
</g>
<!-- Node1&#45;&gt;Node7 -->
<g id="edge9_Node000001_Node000007" class="edge">
<title>Node1&#45;&gt;Node7</title>
<g id="a_edge9_Node000001_Node000007"><a xlink:title=" ">
<path fill="none" stroke="#63b8ff" d="M332.96,-110.03C393.08,-100.78 486.24,-86.44 549.99,-76.63"/>
<polygon fill="#63b8ff" stroke="#63b8ff" points="550.39,-79.96 559.74,-74.98 549.33,-73.04 550.39,-79.96"/>
</a>
</g>
</g>
<!-- Node2&#45;&gt;Node3 -->
<g id="edge2_Node000002_Node000003" class="edge">
<title>Node2&#45;&gt;Node3</title>
<g id="a_edge2_Node000002_Node000003"><a xlink:title=" ">
<path fill="none" stroke="#63b8ff" d="M87.3,-54.78C125.32,-45.78 183.66,-31.98 224.97,-22.2"/>
<polygon fill="#63b8ff" stroke="#63b8ff" points="225.69,-25.39 234.61,-19.68 224.07,-18.58 225.69,-25.39"/>
</a>
</g>
</g>
<!-- Node4&#45;&gt;Node3 -->
<g id="edge4_Node000004_Node000003" class="edge">
<title>Node4&#45;&gt;Node3</title>
<g id="a_edge4_Node000004_Node000003"><a xlink:title=" ">
<path fill="none" stroke="#63b8ff" d="M220.73,-54.84C230.07,-47.07 243.77,-35.67 254.92,-26.4"/>
<polygon fill="#63b8ff" stroke="#63b8ff" points="256.73,-28.61 262.18,-19.52 252.25,-23.23 256.73,-28.61"/>
</a>
</g>
</g>
<!-- Node5&#45;&gt;Node3 -->
<g id="edge6_Node000005_Node000003" class="edge">
<title>Node5&#45;&gt;Node3</title>
<g id="a_edge6_Node000005_Node000003"><a xlink:title=" ">
<path fill="none" stroke="#63b8ff" d="M327.85,-54.84C318.36,-47.07 304.45,-35.67 293.13,-26.4"/>
<polygon fill="#63b8ff" stroke="#63b8ff" points="295.69,-23.15 285.74,-19.52 291.26,-28.57 295.69,-23.15"/>
</a>
</g>
</g>
<!-- Node6&#45;&gt;Node3 -->
<g id="edge8_Node000006_Node000003" class="edge">
<title>Node6&#45;&gt;Node3</title>
<g id="a_edge8_Node000006_Node000003"><a xlink:title=" ">
<path fill="none" stroke="#63b8ff" d="M441.61,-54.84C407.8,-45.93 355.94,-32.26 318.83,-22.48"/>
<polygon fill="#63b8ff" stroke="#63b8ff" points="319.87,-18.87 309.31,-19.7 318.09,-25.64 319.87,-18.87"/>
</a>
</g>
</g>
<!-- Node7&#45;&gt;Node3 -->
<g id="edge10_Node000007_Node000003" class="edge">
<title>Node7&#45;&gt;Node3</title>
<g id="a_edge10_Node000007_Node000003"><a xlink:title=" ">
<path fill="none" stroke="#63b8ff" d="M560.79,-54.78C500.67,-45.53 407.51,-31.19 343.76,-21.38"/>
<polygon fill="#63b8ff" stroke="#63b8ff" points="344.42,-17.79 334.01,-19.73 343.36,-24.71 344.42,-17.79"/>
</a>
</g>
</g>
</g>
</svg>

<g id="navigator" transform="translate(0 0)" fill="#404254">
  <rect fill="#f2f5e9" fill-opacity="0.5" stroke="#606060" stroke-width=".5" x="0" y="0" width="60" height="60"/>
  <use id="zoomplus" xlink:href="#zoomPlus" x="17" y="9" onmousedown="handleZoom(evt,'in')"/>
  <use id="zoomminus" xlink:href="#zoomMin" x="42" y="9" onmousedown="handleZoom(evt,'out')"/>
  <use id="reset" xlink:href="#resetDef" x="30" y="36" onmousedown="handleReset()"/>
   <use id="arrowup" xlink:href="#arrowUp" x="0" y="0" onmousedown="handlePan(0,-1)"/>
  <use id="arrowright" xlink:href="#arrowRight" x="0" y="0" onmousedown="handlePan(1,0)"/>
  <use id="arrowdown" xlink:href="#arrowDown" x="0" y="0" onmousedown="handlePan(0,1)"/>
  <use id="arrowleft" xlink:href="#arrowLeft" x="0" y="0" onmousedown="handlePan(-1,0)"/>
</g>
<svg viewBox="0 0 15 15" width="100%" height="30px" preserveAspectRatio="xMaxYMin meet">
 <g id="arrow_out" transform="scale(0.3 0.3)">
  <a xlink:href="_rcv_meeting_bridge_info_8h__incl_org.svg" target="_base">
   <rect id="button" ry="5" rx="5" y="6" x="6" height="38" width="38"
        fill="#f2f5e9" fill-opacity="0.5" stroke="#606060" stroke-width="1.0"/>
   <path id="arrow"
     d="M 11.500037,31.436501 C 11.940474,20.09759 22.043105,11.32322 32.158766,21.979434 L 37.068811,17.246167 C 37.068811,17.246167 37.088388,32 37.088388,32 L 22.160133,31.978069 C 22.160133,31.978069 26.997745,27.140456 26.997745,27.140456 C 18.528582,18.264221 13.291696,25.230495 11.500037,31.436501 z"
     style="fill:#404040;"/>
  </a>
 </g>
</svg>

<style type='text/css'>
<![CDATA[
[data-mouse-over-selected='false'] { opacity: 0.7; }
[data-mouse-over-selected='true']  { opacity: 1.0; }
]]>
</style>
<script type="application/ecmascript"><![CDATA[
document.addEventListener('DOMContentLoaded', (event) => {
  highlightEdges();
  highlightAdjacentNodes();
});
]]></script>
</svg>
