<?xml version="1.0" encoding="UTF-8" standalone="no"?>
<!DOCTYPE svg PUBLIC "-//W3C//DTD SVG 1.1//EN"
 "http://www.w3.org/Graphics/SVG/1.1/DTD/svg11.dtd">
<!-- Generated by graphviz version 8.1.0 (20230707.0739)
 -->
<!-- Title: rcvsdk/ios/rcvsdk/RcvMetalVideoView.h Pages: 1 -->
<svg width="313pt" height="193pt"
 viewBox="0.00 0.00 312.62 193.00" xmlns="http://www.w3.org/2000/svg" xmlns:xlink="http://www.w3.org/1999/xlink">
<g id="graph0" class="graph" transform="scale(1 1) rotate(0) translate(4 189)">
<title>rcvsdk/ios/rcvsdk/RcvMetalVideoView.h</title>
<!-- Node1 -->
<g id="Node000001" class="node">
<title>Node1</title>
<g id="a_Node000001"><a xlink:title=" ">
<polygon fill="#999999" stroke="#666666" points="191.5,-185 0,-185 0,-165.75 191.5,-165.75 191.5,-185"/>
<text text-anchor="middle" x="95.75" y="-171.5" font-family="Helvetica,sans-Serif" font-size="10.00">rcvsdk/ios/rcvsdk/RcvMetalVideoView.h</text>
</a>
</g>
</g>
<!-- Node2 -->
<g id="Node000002" class="node">
<title>Node2</title>
<g id="a_Node000002"><a xlink:title=" ">
<polygon fill="#e0e0e0" stroke="#999999" points="240.38,-19.25 117.12,-19.25 117.12,0 240.38,0 240.38,-19.25"/>
<text text-anchor="middle" x="178.75" y="-5.75" font-family="Helvetica,sans-Serif" font-size="10.00">Foundation/Foundation.h</text>
</a>
</g>
</g>
<!-- Node1&#45;&gt;Node2 -->
<g id="edge1_Node000001_Node000002" class="edge">
<title>Node1&#45;&gt;Node2</title>
<g id="a_edge1_Node000001_Node000002"><a xlink:title=" ">
<path fill="none" stroke="#63b8ff" d="M89.59,-165.45C75.89,-144.4 45.92,-90.75 69.75,-55.25 80.04,-39.92 96.63,-29.85 113.79,-23.24"/>
<polygon fill="#63b8ff" stroke="#63b8ff" points="114.62,-26.32 122.92,-19.74 112.33,-19.7 114.62,-26.32"/>
</a>
</g>
</g>
<!-- Node3 -->
<g id="Node000003" class="node">
<title>Node3</title>
<g id="a_Node000003"><a xlink:title=" ">
<polygon fill="#e0e0e0" stroke="#999999" points="150.88,-74.5 78.62,-74.5 78.62,-55.25 150.88,-55.25 150.88,-74.5"/>
<text text-anchor="middle" x="114.75" y="-61" font-family="Helvetica,sans-Serif" font-size="10.00">UIKit/UIKit.h</text>
</a>
</g>
</g>
<!-- Node1&#45;&gt;Node3 -->
<g id="edge2_Node000001_Node000003" class="edge">
<title>Node1&#45;&gt;Node3</title>
<g id="a_edge2_Node000001_Node000003"><a xlink:title=" ">
<path fill="none" stroke="#63b8ff" d="M97.3,-165.5C100.35,-148.09 107.18,-109.12 111.33,-85.41"/>
<polygon fill="#63b8ff" stroke="#63b8ff" points="114.9,-86.33 113.17,-75.88 108,-85.12 114.9,-86.33"/>
</a>
</g>
</g>
<!-- Node4 -->
<g id="Node000004" class="node">
<title>Node4</title>
<g id="a_Node000004"><a xlink:href="_rcv_base_video_view_8h.html" target="_top" xlink:title=" ">
<polygon fill="white" stroke="#666666" points="233.62,-129.75 123.88,-129.75 123.88,-110.5 233.62,-110.5 233.62,-129.75"/>
<text text-anchor="middle" x="178.75" y="-116.25" font-family="Helvetica,sans-Serif" font-size="10.00">RcvBaseVideoView.h</text>
</a>
</g>
</g>
<!-- Node1&#45;&gt;Node4 -->
<g id="edge3_Node000001_Node000004" class="edge">
<title>Node1&#45;&gt;Node4</title>
<g id="a_edge3_Node000001_Node000004"><a xlink:title=" ">
<path fill="none" stroke="#63b8ff" d="M109.83,-165.34C122.35,-157.31 140.9,-145.41 155.6,-135.98"/>
<polygon fill="#63b8ff" stroke="#63b8ff" points="157.07,-138.55 163.6,-130.2 153.29,-132.66 157.07,-138.55"/>
</a>
</g>
</g>
<!-- Node4&#45;&gt;Node2 -->
<g id="edge4_Node000004_Node000002" class="edge">
<title>Node4&#45;&gt;Node2</title>
<g id="a_edge4_Node000004_Node000002"><a xlink:title=" ">
<path fill="none" stroke="#63b8ff" d="M178.75,-110.25C178.75,-92.92 178.75,-54.23 178.75,-30.49"/>
<polygon fill="#63b8ff" stroke="#63b8ff" points="182.25,-30.63 178.75,-20.63 175.25,-30.63 182.25,-30.63"/>
</a>
</g>
</g>
<!-- Node4&#45;&gt;Node3 -->
<g id="edge5_Node000004_Node000003" class="edge">
<title>Node4&#45;&gt;Node3</title>
<g id="a_edge5_Node000004_Node000003"><a xlink:title=" ">
<path fill="none" stroke="#63b8ff" d="M167.89,-110.09C158.55,-102.32 144.86,-90.92 133.71,-81.65"/>
<polygon fill="#63b8ff" stroke="#63b8ff" points="136.37,-78.48 126.45,-74.77 131.89,-83.86 136.37,-78.48"/>
</a>
</g>
</g>
<!-- Node5 -->
<g id="Node000005" class="node">
<title>Node5</title>
<g id="a_Node000005"><a xlink:href="_rcv_render_mode_8h.html" target="_top" xlink:title=" ">
<polygon fill="white" stroke="#666666" points="304.62,-74.5 206.88,-74.5 206.88,-55.25 304.62,-55.25 304.62,-74.5"/>
<text text-anchor="middle" x="255.75" y="-61" font-family="Helvetica,sans-Serif" font-size="10.00">RcvRenderMode.h</text>
</a>
</g>
</g>
<!-- Node4&#45;&gt;Node5 -->
<g id="edge6_Node000004_Node000005" class="edge">
<title>Node4&#45;&gt;Node5</title>
<g id="a_edge6_Node000004_Node000005"><a xlink:title=" ">
<path fill="none" stroke="#63b8ff" d="M191.81,-110.09C203.32,-102.14 220.31,-90.39 233.88,-81"/>
<polygon fill="#63b8ff" stroke="#63b8ff" points="235.39,-83.52 241.62,-74.95 231.41,-77.76 235.39,-83.52"/>
</a>
</g>
</g>
<!-- Node5&#45;&gt;Node2 -->
<g id="edge7_Node000005_Node000002" class="edge">
<title>Node5&#45;&gt;Node2</title>
<g id="a_edge7_Node000005_Node000002"><a xlink:title=" ">
<path fill="none" stroke="#63b8ff" d="M242.69,-54.84C231.18,-46.89 214.19,-35.14 200.62,-25.75"/>
<polygon fill="#63b8ff" stroke="#63b8ff" points="203.09,-22.51 192.88,-19.7 199.11,-28.27 203.09,-22.51"/>
</a>
</g>
</g>
</g>
</svg>
