<?xml version="1.0" encoding="UTF-8" standalone="no"?>
<!DOCTYPE svg PUBLIC "-//W3C//DTD SVG 1.1//EN"
 "http://www.w3.org/Graphics/SVG/1.1/DTD/svg11.dtd">
<!-- Generated by graphviz version 8.0.4 (20230421.1958)
 -->
<!-- Title: rcvsdk/ios/rcvsdk/RcvOnlyAuthUserJoinMode.h Pages: 1 -->
<svg width="731pt" height="138pt"
 viewBox="0.00 0.00 731.25 137.75" xmlns="http://www.w3.org/2000/svg" xmlns:xlink="http://www.w3.org/1999/xlink">
<g id="graph0" class="graph" transform="scale(1 1) rotate(0) translate(4 133.75)">
<title>rcvsdk/ios/rcvsdk/RcvOnlyAuthUserJoinMode.h</title>
<!-- Node1 -->
<g id="node1" class="node">
<title>Node1</title>
<g id="a_node1"><a xlink:title=" ">
<polygon fill="#999999" stroke="#666666" points="469.5,-129.75 243.5,-129.75 243.5,-110.5 469.5,-110.5 469.5,-129.75"/>
<text text-anchor="middle" x="356.5" y="-116.25" font-family="Helvetica,sans-Serif" font-size="10.00">rcvsdk/ios/rcvsdk/RcvOnlyAuthUserJoinMode.h</text>
</a>
</g>
</g>
<!-- Node2 -->
<g id="node2" class="node">
<title>Node2</title>
<g id="a_node2"><a xlink:href="_rcv_instant_meeting_settings_8h.html" target="_top" xlink:title=" ">
<polygon fill="white" stroke="#666666" points="223,-74.5 0,-74.5 0,-55.25 223,-55.25 223,-74.5"/>
<text text-anchor="middle" x="111.5" y="-61" font-family="Helvetica,sans-Serif" font-size="10.00">rcvsdk/ios/rcvsdk/RcvInstantMeetingSettings.h</text>
</a>
</g>
</g>
<!-- Node1&#45;&gt;Node2 -->
<g id="edge1" class="edge">
<title>Node1&#45;&gt;Node2</title>
<path fill="none" stroke="#63b8ff" d="M303.92,-107.7C258.84,-97.9 194.77,-83.97 153.17,-74.93"/>
<polygon fill="#63b8ff" stroke="#63b8ff" points="303.15,-111.33 313.66,-110.03 304.63,-104.49 303.15,-111.33"/>
</g>
<!-- Node4 -->
<g id="node4" class="node">
<title>Node4</title>
<g id="a_node4"><a xlink:href="_rcv_personal_meeting_settings_8h.html" target="_top" xlink:title=" ">
<polygon fill="white" stroke="#666666" points="472.12,-74.5 240.88,-74.5 240.88,-55.25 472.12,-55.25 472.12,-74.5"/>
<text text-anchor="middle" x="356.5" y="-61" font-family="Helvetica,sans-Serif" font-size="10.00">rcvsdk/ios/rcvsdk/RcvPersonalMeetingSettings.h</text>
</a>
</g>
</g>
<!-- Node1&#45;&gt;Node4 -->
<g id="edge3" class="edge">
<title>Node1&#45;&gt;Node4</title>
<path fill="none" stroke="#63b8ff" d="M356.5,-99.46C356.5,-91.02 356.5,-81.58 356.5,-74.86"/>
<polygon fill="#63b8ff" stroke="#63b8ff" points="353,-99.33 356.5,-109.33 360,-99.33 353,-99.33"/>
</g>
<!-- Node5 -->
<g id="node5" class="node">
<title>Node5</title>
<g id="a_node5"><a xlink:href="_rcv_schedule_meeting_settings_8h.html" target="_top" xlink:title=" ">
<polygon fill="white" stroke="#666666" points="723.25,-74.5 489.75,-74.5 489.75,-55.25 723.25,-55.25 723.25,-74.5"/>
<text text-anchor="middle" x="606.5" y="-61" font-family="Helvetica,sans-Serif" font-size="10.00">rcvsdk/ios/rcvsdk/RcvScheduleMeetingSettings.h</text>
</a>
</g>
</g>
<!-- Node1&#45;&gt;Node5 -->
<g id="edge5" class="edge">
<title>Node1&#45;&gt;Node5</title>
<path fill="none" stroke="#63b8ff" d="M409.86,-107.76C455.87,-97.96 521.44,-83.99 563.98,-74.93"/>
<polygon fill="#63b8ff" stroke="#63b8ff" points="409.24,-104.52 400.19,-110.03 410.7,-111.37 409.24,-104.52"/>
</g>
<!-- Node3 -->
<g id="node3" class="node">
<title>Node3</title>
<g id="a_node3"><a xlink:href="_rcv_s_d_k_8h.html" target="_top" xlink:title=" ">
<polygon fill="white" stroke="#666666" points="428.25,-19.25 284.75,-19.25 284.75,0 428.25,0 428.25,-19.25"/>
<text text-anchor="middle" x="356.5" y="-5.75" font-family="Helvetica,sans-Serif" font-size="10.00">rcvsdk/ios/rcvsdk/RcvSDK.h</text>
</a>
</g>
</g>
<!-- Node2&#45;&gt;Node3 -->
<g id="edge2" class="edge">
<title>Node2&#45;&gt;Node3</title>
<path fill="none" stroke="#63b8ff" d="M164.08,-52.45C209.16,-42.65 273.23,-28.72 314.83,-19.68"/>
<polygon fill="#63b8ff" stroke="#63b8ff" points="163.37,-49.24 154.34,-54.78 164.85,-56.08 163.37,-49.24"/>
</g>
<!-- Node4&#45;&gt;Node3 -->
<g id="edge4" class="edge">
<title>Node4&#45;&gt;Node3</title>
<path fill="none" stroke="#63b8ff" d="M356.5,-44.21C356.5,-35.77 356.5,-26.33 356.5,-19.61"/>
<polygon fill="#63b8ff" stroke="#63b8ff" points="353,-44.08 356.5,-54.08 360,-44.08 353,-44.08"/>
</g>
<!-- Node5&#45;&gt;Node3 -->
<g id="edge6" class="edge">
<title>Node5&#45;&gt;Node3</title>
<path fill="none" stroke="#63b8ff" d="M553.14,-52.51C507.13,-42.71 441.56,-28.74 399.02,-19.68"/>
<polygon fill="#63b8ff" stroke="#63b8ff" points="552.3,-56.12 562.81,-54.78 553.76,-49.27 552.3,-56.12"/>
</g>
</g>
</svg>
