<?xml version="1.0" encoding="UTF-8" standalone="no"?>
<!DOCTYPE svg PUBLIC "-//W3C//DTD SVG 1.1//EN"
 "http://www.w3.org/Graphics/SVG/1.1/DTD/svg11.dtd">
<!-- Generated by graphviz version 8.0.1 (20230327.1645)
 -->
<!-- Title: rcvsdk/ios/rcvsdk/RcvOauthOptions.h Pages: 1 -->
<svg width="191pt" height="137pt"
 viewBox="0.00 0.00 191.00 137.00" xmlns="http://www.w3.org/2000/svg" xmlns:xlink="http://www.w3.org/1999/xlink">
<g id="graph0" class="graph" transform="scale(1 1) rotate(0) translate(4 133)">
<title>rcvsdk/ios/rcvsdk/RcvOauthOptions.h</title>
<!-- Node1 -->
<g id="node1" class="node">
<title>Node1</title>
<g id="a_node1"><a xlink:title=" ">
<polygon fill="#999999" stroke="#666666" points="183,-129 0,-129 0,-110 183,-110 183,-129"/>
<text text-anchor="middle" x="91.5" y="-117" font-family="Helvetica,sans-Serif" font-size="10.00">rcvsdk/ios/rcvsdk/RcvOauthOptions.h</text>
</a>
</g>
</g>
<!-- Node2 -->
<g id="node2" class="node">
<title>Node2</title>
<g id="a_node2"><a xlink:href="_rcv_grant_type_8h.html" target="_top" xlink:title=" ">
<polygon fill="white" stroke="#666666" points="99.5,-74 11.5,-74 11.5,-55 99.5,-55 99.5,-74"/>
<text text-anchor="middle" x="55.5" y="-62" font-family="Helvetica,sans-Serif" font-size="10.00">RcvGrantType.h</text>
</a>
</g>
</g>
<!-- Node1&#45;&gt;Node2 -->
<g id="edge1" class="edge">
<title>Node1&#45;&gt;Node2</title>
<path fill="none" stroke="#63b8ff" d="M85.56,-109.75C80.69,-102.58 73.64,-92.2 67.59,-83.3"/>
<polygon fill="#63b8ff" stroke="#63b8ff" points="70.09,-81.75 61.57,-75.44 64.3,-85.68 70.09,-81.75"/>
</g>
<!-- Node3 -->
<g id="node3" class="node">
<title>Node3</title>
<g id="a_node3"><a xlink:title=" ">
<polygon fill="#e0e0e0" stroke="#999999" points="153.5,-19 29.5,-19 29.5,0 153.5,0 153.5,-19"/>
<text text-anchor="middle" x="91.5" y="-7" font-family="Helvetica,sans-Serif" font-size="10.00">Foundation/Foundation.h</text>
</a>
</g>
</g>
<!-- Node1&#45;&gt;Node3 -->
<g id="edge3" class="edge">
<title>Node1&#45;&gt;Node3</title>
<path fill="none" stroke="#63b8ff" d="M96.02,-109.58C100.21,-100.79 106.13,-86.85 108.5,-74 111.32,-58.72 106.33,-41.74 101.05,-29.18"/>
<polygon fill="#63b8ff" stroke="#63b8ff" points="103.9,-28.03 96.51,-20.44 97.56,-30.98 103.9,-28.03"/>
</g>
<!-- Node2&#45;&gt;Node3 -->
<g id="edge2" class="edge">
<title>Node2&#45;&gt;Node3</title>
<path fill="none" stroke="#63b8ff" d="M61.44,-54.75C66.31,-47.58 73.36,-37.2 79.41,-28.3"/>
<polygon fill="#63b8ff" stroke="#63b8ff" points="82.7,-30.68 85.43,-20.44 76.91,-26.75 82.7,-30.68"/>
</g>
</g>
</svg>
