<?xml version="1.0" encoding="UTF-8" standalone="no"?>
<!DOCTYPE svg PUBLIC "-//W3C//DTD SVG 1.1//EN"
 "http://www.w3.org/Graphics/SVG/1.1/DTD/svg11.dtd">
<!-- Generated by graphviz version 8.0.4 (20230421.1958)
 -->
<!-- Title: rcvsdk/ios/rcvsdk/RcvVideoCanvas.h Pages: 1 -->
<svg width="356pt" height="138pt"
 viewBox="0.00 0.00 356.25 137.75" xmlns="http://www.w3.org/2000/svg" xmlns:xlink="http://www.w3.org/1999/xlink">
<g id="graph0" class="graph" transform="scale(1 1) rotate(0) translate(4 133.75)">
<title>rcvsdk/ios/rcvsdk/RcvVideoCanvas.h</title>
<!-- Node1 -->
<g id="node1" class="node">
<title>Node1</title>
<g id="a_node1"><a xlink:title=" ">
<polygon fill="#999999" stroke="#666666" points="270.5,-129.75 89.5,-129.75 89.5,-110.5 270.5,-110.5 270.5,-129.75"/>
<text text-anchor="middle" x="180" y="-116.25" font-family="Helvetica,sans-Serif" font-size="10.00">rcvsdk/ios/rcvsdk/RcvVideoCanvas.h</text>
</a>
</g>
</g>
<!-- Node2 -->
<g id="node2" class="node">
<title>Node2</title>
<g id="a_node2"><a xlink:href="_r_c_video_canvas_8h.html" target="_top" xlink:title=" ">
<polygon fill="white" stroke="#666666" points="178,-74.5 0,-74.5 0,-55.25 178,-55.25 178,-74.5"/>
<text text-anchor="middle" x="89" y="-61" font-family="Helvetica,sans-Serif" font-size="10.00">rcvsdk/ios/rcvsdk/RCVideoCanvas.h</text>
</a>
</g>
</g>
<!-- Node1&#45;&gt;Node2 -->
<g id="edge1" class="edge">
<title>Node1&#45;&gt;Node2</title>
<path fill="none" stroke="#63b8ff" d="M155.16,-104.59C138.99,-95.13 118.39,-83.08 104.51,-74.95"/>
<polygon fill="#63b8ff" stroke="#63b8ff" points="153.16,-108.06 163.56,-110.09 156.7,-102.02 153.16,-108.06"/>
</g>
<!-- Node4 -->
<g id="node4" class="node">
<title>Node4</title>
<g id="a_node4"><a xlink:href="_rcv_engine_8h.html" target="_top" xlink:title=" ">
<polygon fill="white" stroke="#666666" points="348.25,-74.5 195.75,-74.5 195.75,-55.25 348.25,-55.25 348.25,-74.5"/>
<text text-anchor="middle" x="272" y="-61" font-family="Helvetica,sans-Serif" font-size="10.00">rcvsdk/ios/rcvsdk/RcvEngine.h</text>
</a>
</g>
</g>
<!-- Node1&#45;&gt;Node4 -->
<g id="edge3" class="edge">
<title>Node1&#45;&gt;Node4</title>
<path fill="none" stroke="#63b8ff" d="M205.11,-104.59C221.46,-95.13 242.28,-83.08 256.32,-74.95"/>
<polygon fill="#63b8ff" stroke="#63b8ff" points="203.51,-102.05 196.61,-110.09 207.01,-108.11 203.51,-102.05"/>
</g>
<!-- Node3 -->
<g id="node3" class="node">
<title>Node3</title>
<g id="a_node3"><a xlink:href="_rcv_s_d_k_8h.html" target="_top" xlink:title=" ">
<polygon fill="white" stroke="#666666" points="251.75,-19.25 108.25,-19.25 108.25,0 251.75,0 251.75,-19.25"/>
<text text-anchor="middle" x="180" y="-5.75" font-family="Helvetica,sans-Serif" font-size="10.00">rcvsdk/ios/rcvsdk/RcvSDK.h</text>
</a>
</g>
</g>
<!-- Node2&#45;&gt;Node3 -->
<g id="edge2" class="edge">
<title>Node2&#45;&gt;Node3</title>
<path fill="none" stroke="#63b8ff" d="M113.84,-49.34C130.01,-39.88 150.61,-27.83 164.49,-19.7"/>
<polygon fill="#63b8ff" stroke="#63b8ff" points="112.3,-46.77 105.44,-54.84 115.84,-52.81 112.3,-46.77"/>
</g>
<!-- Node4&#45;&gt;Node3 -->
<g id="edge4" class="edge">
<title>Node4&#45;&gt;Node3</title>
<path fill="none" stroke="#63b8ff" d="M246.89,-49.34C230.54,-39.88 209.72,-27.83 195.68,-19.7"/>
<polygon fill="#63b8ff" stroke="#63b8ff" points="244.99,-52.86 255.39,-54.84 248.49,-46.8 244.99,-52.86"/>
</g>
</g>
</svg>
