<?xml version="1.0" encoding="UTF-8" standalone="no"?>
<!DOCTYPE svg PUBLIC "-//W3C//DTD SVG 1.1//EN"
 "http://www.w3.org/Graphics/SVG/1.1/DTD/svg11.dtd">
<!-- Generated by graphviz version 8.0.4 (20230421.1958)
 -->
<!-- Title: rcvsdk/ios/rcvsdk/RcvInstantMeetingSettings.h Pages: 1 -->
<svg width="334pt" height="138pt"
 viewBox="0.00 0.00 334.25 137.75" xmlns="http://www.w3.org/2000/svg" xmlns:xlink="http://www.w3.org/1999/xlink">
<g id="graph0" class="graph" transform="scale(1 1) rotate(0) translate(4 133.75)">
<title>rcvsdk/ios/rcvsdk/RcvInstantMeetingSettings.h</title>
<!-- Node1 -->
<g id="node1" class="node">
<title>Node1</title>
<g id="a_node1"><a xlink:title=" ">
<polygon fill="#999999" stroke="#666666" points="285.38,-129.75 62.38,-129.75 62.38,-110.5 285.38,-110.5 285.38,-129.75"/>
<text text-anchor="middle" x="173.88" y="-116.25" font-family="Helvetica,sans-Serif" font-size="10.00">rcvsdk/ios/rcvsdk/RcvInstantMeetingSettings.h</text>
</a>
</g>
</g>
<!-- Node2 -->
<g id="node2" class="node">
<title>Node2</title>
<g id="a_node2"><a xlink:href="_rcv_only_auth_user_join_mode_8h.html" target="_top" xlink:title=" ">
<polygon fill="white" stroke="#666666" points="145.75,-74.5 0,-74.5 0,-55.25 145.75,-55.25 145.75,-74.5"/>
<text text-anchor="middle" x="72.88" y="-61" font-family="Helvetica,sans-Serif" font-size="10.00">RcvOnlyAuthUserJoinMode.h</text>
</a>
</g>
</g>
<!-- Node1&#45;&gt;Node2 -->
<g id="edge1" class="edge">
<title>Node1&#45;&gt;Node2</title>
<path fill="none" stroke="#63b8ff" d="M156.74,-110.09C141.14,-101.87 117.86,-89.59 99.78,-80.06"/>
<polygon fill="#63b8ff" stroke="#63b8ff" points="101.57,-76.52 91.09,-74.95 98.31,-82.71 101.57,-76.52"/>
</g>
<!-- Node3 -->
<g id="node3" class="node">
<title>Node3</title>
<g id="a_node3"><a xlink:title=" ">
<polygon fill="#e0e0e0" stroke="#999999" points="235.5,-19.25 112.25,-19.25 112.25,0 235.5,0 235.5,-19.25"/>
<text text-anchor="middle" x="173.88" y="-5.75" font-family="Helvetica,sans-Serif" font-size="10.00">Foundation/Foundation.h</text>
</a>
</g>
</g>
<!-- Node1&#45;&gt;Node3 -->
<g id="edge5" class="edge">
<title>Node1&#45;&gt;Node3</title>
<path fill="none" stroke="#63b8ff" d="M173.88,-110.25C173.88,-92.92 173.88,-54.23 173.88,-30.49"/>
<polygon fill="#63b8ff" stroke="#63b8ff" points="177.38,-30.63 173.88,-20.63 170.38,-30.63 177.38,-30.63"/>
</g>
<!-- Node4 -->
<g id="node4" class="node">
<title>Node4</title>
<g id="a_node4"><a xlink:href="_rcv_waiting_room_mode_8h.html" target="_top" xlink:title=" ">
<polygon fill="white" stroke="#666666" points="326.25,-74.5 201.5,-74.5 201.5,-55.25 326.25,-55.25 326.25,-74.5"/>
<text text-anchor="middle" x="263.88" y="-61" font-family="Helvetica,sans-Serif" font-size="10.00">RcvWaitingRoomMode.h</text>
</a>
</g>
</g>
<!-- Node1&#45;&gt;Node4 -->
<g id="edge3" class="edge">
<title>Node1&#45;&gt;Node4</title>
<path fill="none" stroke="#63b8ff" d="M189.14,-110.09C202.85,-101.98 223.21,-89.93 239.22,-80.46"/>
<polygon fill="#63b8ff" stroke="#63b8ff" points="240.71,-83.06 247.53,-74.95 237.14,-77.03 240.71,-83.06"/>
</g>
<!-- Node2&#45;&gt;Node3 -->
<g id="edge2" class="edge">
<title>Node2&#45;&gt;Node3</title>
<path fill="none" stroke="#63b8ff" d="M90.01,-54.84C105.61,-46.62 128.89,-34.34 146.97,-24.81"/>
<polygon fill="#63b8ff" stroke="#63b8ff" points="148.44,-27.46 155.66,-19.7 145.18,-21.27 148.44,-27.46"/>
</g>
<!-- Node4&#45;&gt;Node3 -->
<g id="edge4" class="edge">
<title>Node4&#45;&gt;Node3</title>
<path fill="none" stroke="#63b8ff" d="M248.61,-54.84C234.9,-46.73 214.54,-34.68 198.53,-25.21"/>
<polygon fill="#63b8ff" stroke="#63b8ff" points="200.61,-21.78 190.22,-19.7 197.04,-27.81 200.61,-21.78"/>
</g>
</g>
</svg>
