<?xml version="1.0" encoding="UTF-8" standalone="no"?>
<!DOCTYPE svg PUBLIC "-//W3C//DTD SVG 1.1//EN"
 "http://www.w3.org/Graphics/SVG/1.1/DTD/svg11.dtd">
<!-- Generated by graphviz version 8.0.4 (20230421.1958)
 -->
<!-- Title: rcvsdk/ios/rcvsdk/RcvRenderMode.h Pages: 1 -->
<svg width="1047pt" height="193pt"
 viewBox="0.00 0.00 1046.55 193.00" xmlns="http://www.w3.org/2000/svg" xmlns:xlink="http://www.w3.org/1999/xlink">
<g id="graph0" class="graph" transform="scale(1 1) rotate(0) translate(4 189)">
<title>rcvsdk/ios/rcvsdk/RcvRenderMode.h</title>
<!-- Node1 -->
<g id="node1" class="node">
<title>Node1</title>
<g id="a_node1"><a xlink:title=" ">
<polygon fill="#999999" stroke="#666666" points="642.3,-185 464.3,-185 464.3,-165.75 642.3,-165.75 642.3,-185"/>
<text text-anchor="middle" x="553.3" y="-171.5" font-family="Helvetica,sans-Serif" font-size="10.00">rcvsdk/ios/rcvsdk/RcvRenderMode.h</text>
</a>
</g>
</g>
<!-- Node2 -->
<g id="node2" class="node">
<title>Node2</title>
<g id="a_node2"><a xlink:href="_rcv_base_video_view_8h.html" target="_top" xlink:title=" ">
<polygon fill="white" stroke="#666666" points="538.3,-129.75 348.3,-129.75 348.3,-110.5 538.3,-110.5 538.3,-129.75"/>
<text text-anchor="middle" x="443.3" y="-116.25" font-family="Helvetica,sans-Serif" font-size="10.00">rcvsdk/ios/rcvsdk/RcvBaseVideoView.h</text>
</a>
</g>
</g>
<!-- Node1&#45;&gt;Node2 -->
<g id="edge1" class="edge">
<title>Node1&#45;&gt;Node2</title>
<path fill="none" stroke="#63b8ff" d="M524.92,-160.64C505.14,-151.06 479.31,-138.56 462.05,-130.2"/>
<polygon fill="#63b8ff" stroke="#63b8ff" points="523.11,-164.13 533.64,-165.34 526.16,-157.83 523.11,-164.13"/>
</g>
<!-- Node8 -->
<g id="node8" class="node">
<title>Node8</title>
<g id="a_node8"><a xlink:href="_rcv_video_canvas_8h.html" target="_top" xlink:title=" ">
<polygon fill="white" stroke="#666666" points="869.8,-129.75 688.8,-129.75 688.8,-110.5 869.8,-110.5 869.8,-129.75"/>
<text text-anchor="middle" x="779.3" y="-116.25" font-family="Helvetica,sans-Serif" font-size="10.00">rcvsdk/ios/rcvsdk/RcvVideoCanvas.h</text>
</a>
</g>
</g>
<!-- Node1&#45;&gt;Node8 -->
<g id="edge11" class="edge">
<title>Node1&#45;&gt;Node8</title>
<path fill="none" stroke="#63b8ff" d="M602.59,-162.76C644.13,-152.97 702.73,-139.17 740.86,-130.18"/>
<polygon fill="#63b8ff" stroke="#63b8ff" points="601.82,-159.58 592.89,-165.28 603.43,-166.39 601.82,-159.58"/>
</g>
<!-- Node3 -->
<g id="node3" class="node">
<title>Node3</title>
<g id="a_node3"><a xlink:href="_r_c_video_canvas_8h.html" target="_top" xlink:title=" ">
<polygon fill="white" stroke="#666666" points="868.3,-74.5 690.3,-74.5 690.3,-55.25 868.3,-55.25 868.3,-74.5"/>
<text text-anchor="middle" x="779.3" y="-61" font-family="Helvetica,sans-Serif" font-size="10.00">rcvsdk/ios/rcvsdk/RCVideoCanvas.h</text>
</a>
</g>
</g>
<!-- Node2&#45;&gt;Node3 -->
<g id="edge2" class="edge">
<title>Node2&#45;&gt;Node3</title>
<path fill="none" stroke="#63b8ff" d="M511.5,-108.32C573.39,-98.51 663.6,-84.21 721.88,-74.98"/>
<polygon fill="#63b8ff" stroke="#63b8ff" points="511.01,-105.01 501.68,-110.03 512.1,-111.92 511.01,-105.01"/>
</g>
<!-- Node4 -->
<g id="node4" class="node">
<title>Node4</title>
<g id="a_node4"><a xlink:href="_rcv_s_d_k_8h.html" target="_top" xlink:title=" ">
<polygon fill="white" stroke="#666666" points="514.05,-19.25 370.55,-19.25 370.55,0 514.05,0 514.05,-19.25"/>
<text text-anchor="middle" x="442.3" y="-5.75" font-family="Helvetica,sans-Serif" font-size="10.00">rcvsdk/ios/rcvsdk/RcvSDK.h</text>
</a>
</g>
</g>
<!-- Node2&#45;&gt;Node4 -->
<g id="edge8" class="edge">
<title>Node2&#45;&gt;Node4</title>
<path fill="none" stroke="#63b8ff" d="M337.13,-115.6C214.92,-110.42 28.1,-98.64 6.3,-74.5 -43.56,-19.28 234.02,-11.1 370.27,-10.35"/>
<polygon fill="#63b8ff" stroke="#63b8ff" points="336.88,-119.13 347.01,-116.05 337.17,-112.14 336.88,-119.13"/>
</g>
<!-- Node5 -->
<g id="node5" class="node">
<title>Node5</title>
<g id="a_node5"><a xlink:href="_rcv_metal_video_view_8h.html" target="_top" xlink:title=" ">
<polygon fill="white" stroke="#666666" points="207.05,-74.5 15.55,-74.5 15.55,-55.25 207.05,-55.25 207.05,-74.5"/>
<text text-anchor="middle" x="111.3" y="-61" font-family="Helvetica,sans-Serif" font-size="10.00">rcvsdk/ios/rcvsdk/RcvMetalVideoView.h</text>
</a>
</g>
</g>
<!-- Node2&#45;&gt;Node5 -->
<g id="edge4" class="edge">
<title>Node2&#45;&gt;Node5</title>
<path fill="none" stroke="#63b8ff" d="M375.91,-108.32C314.76,-98.51 225.62,-84.21 168.04,-74.98"/>
<polygon fill="#63b8ff" stroke="#63b8ff" points="375.18,-111.9 385.6,-110.03 376.28,-104.99 375.18,-111.9"/>
</g>
<!-- Node6 -->
<g id="node6" class="node">
<title>Node6</title>
<g id="a_node6"><a xlink:href="_rcv_open_g_l_video_view_8h.html" target="_top" xlink:title=" ">
<polygon fill="white" stroke="#666666" points="427.67,-74.5 224.92,-74.5 224.92,-55.25 427.67,-55.25 427.67,-74.5"/>
<text text-anchor="middle" x="326.3" y="-61" font-family="Helvetica,sans-Serif" font-size="10.00">rcvsdk/ios/rcvsdk/RcvOpenGLVideoView.h</text>
</a>
</g>
</g>
<!-- Node2&#45;&gt;Node6 -->
<g id="edge6" class="edge">
<title>Node2&#45;&gt;Node6</title>
<path fill="none" stroke="#63b8ff" d="M413.7,-105.65C392.58,-96.04 364.77,-83.38 346.24,-74.95"/>
<polygon fill="#63b8ff" stroke="#63b8ff" points="411.9,-109.13 422.45,-110.09 414.8,-102.76 411.9,-109.13"/>
</g>
<!-- Node7 -->
<g id="node7" class="node">
<title>Node7</title>
<g id="a_node7"><a xlink:href="_rcv_sample_buffer_video_view_8h.html" target="_top" xlink:title=" ">
<polygon fill="white" stroke="#666666" points="672.67,-74.5 445.92,-74.5 445.92,-55.25 672.67,-55.25 672.67,-74.5"/>
<text text-anchor="middle" x="559.3" y="-61" font-family="Helvetica,sans-Serif" font-size="10.00">rcvsdk/ios/rcvsdk/RcvSampleBufferVideoView.h</text>
</a>
</g>
</g>
<!-- Node2&#45;&gt;Node7 -->
<g id="edge9" class="edge">
<title>Node2&#45;&gt;Node7</title>
<path fill="none" stroke="#63b8ff" d="M472.94,-105.52C493.83,-95.93 521.24,-83.34 539.53,-74.95"/>
<polygon fill="#63b8ff" stroke="#63b8ff" points="471.61,-102.74 463.98,-110.09 474.53,-109.1 471.61,-102.74"/>
</g>
<!-- Node3&#45;&gt;Node4 -->
<g id="edge3" class="edge">
<title>Node3&#45;&gt;Node4</title>
<path fill="none" stroke="#63b8ff" d="M710.89,-53.07C648.83,-43.26 558.34,-28.96 499.89,-19.73"/>
<polygon fill="#63b8ff" stroke="#63b8ff" points="710.33,-56.68 720.75,-54.78 711.42,-49.76 710.33,-56.68"/>
</g>
<!-- Node5&#45;&gt;Node4 -->
<g id="edge5" class="edge">
<title>Node5&#45;&gt;Node4</title>
<path fill="none" stroke="#63b8ff" d="M178.49,-53.07C239.45,-43.26 328.32,-28.96 385.73,-19.73"/>
<polygon fill="#63b8ff" stroke="#63b8ff" points="178.14,-49.74 168.82,-54.78 179.25,-56.65 178.14,-49.74"/>
</g>
<!-- Node6&#45;&gt;Node4 -->
<g id="edge7" class="edge">
<title>Node6&#45;&gt;Node4</title>
<path fill="none" stroke="#63b8ff" d="M355.94,-50.27C376.83,-40.68 404.24,-28.09 422.53,-19.7"/>
<polygon fill="#63b8ff" stroke="#63b8ff" points="354.61,-47.49 346.98,-54.84 357.53,-53.85 354.61,-47.49"/>
</g>
<!-- Node7&#45;&gt;Node4 -->
<g id="edge10" class="edge">
<title>Node7&#45;&gt;Node4</title>
<path fill="none" stroke="#63b8ff" d="M529.7,-50.4C508.58,-40.79 480.77,-28.13 462.24,-19.7"/>
<polygon fill="#63b8ff" stroke="#63b8ff" points="527.9,-53.88 538.45,-54.84 530.8,-47.51 527.9,-53.88"/>
</g>
<!-- Node8&#45;&gt;Node3 -->
<g id="edge12" class="edge">
<title>Node8&#45;&gt;Node3</title>
<path fill="none" stroke="#63b8ff" d="M779.3,-99.46C779.3,-91.02 779.3,-81.58 779.3,-74.86"/>
<polygon fill="#63b8ff" stroke="#63b8ff" points="775.8,-99.33 779.3,-109.33 782.8,-99.33 775.8,-99.33"/>
</g>
<!-- Node9 -->
<g id="node9" class="node">
<title>Node9</title>
<g id="a_node9"><a xlink:href="_rcv_engine_8h.html" target="_top" xlink:title=" ">
<polygon fill="white" stroke="#666666" points="1038.55,-74.5 886.05,-74.5 886.05,-55.25 1038.55,-55.25 1038.55,-74.5"/>
<text text-anchor="middle" x="962.3" y="-61" font-family="Helvetica,sans-Serif" font-size="10.00">rcvsdk/ios/rcvsdk/RcvEngine.h</text>
</a>
</g>
</g>
<!-- Node8&#45;&gt;Node9 -->
<g id="edge13" class="edge">
<title>Node8&#45;&gt;Node9</title>
<path fill="none" stroke="#63b8ff" d="M820.73,-107.07C854.24,-97.32 900.68,-83.8 931.1,-74.95"/>
<polygon fill="#63b8ff" stroke="#63b8ff" points="819.97,-103.94 811.34,-110.09 821.92,-110.66 819.97,-103.94"/>
</g>
<!-- Node9&#45;&gt;Node4 -->
<g id="edge14" class="edge">
<title>Node9&#45;&gt;Node4</title>
<path fill="none" stroke="#63b8ff" d="M874.76,-54.91C773.45,-44.54 608.51,-27.65 514.31,-18"/>
<polygon fill="#63b8ff" stroke="#63b8ff" points="874.27,-58.48 884.57,-56.02 874.98,-51.52 874.27,-58.48"/>
</g>
</g>
</svg>
