<?xml version="1.0" encoding="UTF-8" standalone="no"?>
<!DOCTYPE svg PUBLIC "-//W3C//DTD SVG 1.1//EN"
 "http://www.w3.org/Graphics/SVG/1.1/DTD/svg11.dtd">
<!-- Generated by graphviz version 8.0.1 (20230327.1645)
 -->
<!-- Title: rcvsdk/ios/rcvsdk/RcvSharingEventHandler.h Pages: 1 -->
<svg width="391pt" height="137pt"
 viewBox="0.00 0.00 390.50 137.00" xmlns="http://www.w3.org/2000/svg" xmlns:xlink="http://www.w3.org/1999/xlink">
<g id="graph0" class="graph" transform="scale(1 1) rotate(0) translate(4 133)">
<title>rcvsdk/ios/rcvsdk/RcvSharingEventHandler.h</title>
<!-- Node1 -->
<g id="node1" class="node">
<title>Node1</title>
<g id="a_node1"><a xlink:title=" ">
<polygon fill="#999999" stroke="#666666" points="286.5,-129 71.5,-129 71.5,-110 286.5,-110 286.5,-129"/>
<text text-anchor="middle" x="179" y="-117" font-family="Helvetica,sans-Serif" font-size="10.00">rcvsdk/ios/rcvsdk/RcvSharingEventHandler.h</text>
</a>
</g>
</g>
<!-- Node2 -->
<g id="node2" class="node">
<title>Node2</title>
<g id="a_node2"><a xlink:href="_rcv_sharing_settings_8h.html" target="_top" xlink:title=" ">
<polygon fill="white" stroke="#666666" points="112,-74 0,-74 0,-55 112,-55 112,-74"/>
<text text-anchor="middle" x="56" y="-62" font-family="Helvetica,sans-Serif" font-size="10.00">RcvSharingSettings.h</text>
</a>
</g>
</g>
<!-- Node1&#45;&gt;Node2 -->
<g id="edge1" class="edge">
<title>Node1&#45;&gt;Node2</title>
<path fill="none" stroke="#63b8ff" d="M158.13,-109.51C138.49,-101.04 108.83,-88.27 86.53,-78.66"/>
<polygon fill="#63b8ff" stroke="#63b8ff" points="88.13,-75.1 77.56,-74.36 85.36,-81.53 88.13,-75.1"/>
</g>
<!-- Node3 -->
<g id="node3" class="node">
<title>Node3</title>
<g id="a_node3"><a xlink:title=" ">
<polygon fill="#e0e0e0" stroke="#999999" points="241,-19 117,-19 117,0 241,0 241,-19"/>
<text text-anchor="middle" x="179" y="-7" font-family="Helvetica,sans-Serif" font-size="10.00">Foundation/Foundation.h</text>
</a>
</g>
</g>
<!-- Node1&#45;&gt;Node3 -->
<g id="edge7" class="edge">
<title>Node1&#45;&gt;Node3</title>
<path fill="none" stroke="#63b8ff" d="M173.11,-109.6C165.79,-97.45 154.74,-74.89 159,-55 160.93,-46 164.82,-36.63 168.66,-28.82"/>
<polygon fill="#63b8ff" stroke="#63b8ff" points="172.11,-30.79 173.68,-20.32 165.92,-27.52 172.11,-30.79"/>
</g>
<!-- Node4 -->
<g id="node4" class="node">
<title>Node4</title>
<g id="a_node4"><a xlink:href="_rcv_sharing_state_8h.html" target="_top" xlink:title=" ">
<polygon fill="white" stroke="#666666" points="267.5,-74 168.5,-74 168.5,-55 267.5,-55 267.5,-74"/>
<text text-anchor="middle" x="218" y="-62" font-family="Helvetica,sans-Serif" font-size="10.00">RcvSharingState.h</text>
</a>
</g>
</g>
<!-- Node1&#45;&gt;Node4 -->
<g id="edge3" class="edge">
<title>Node1&#45;&gt;Node4</title>
<path fill="none" stroke="#63b8ff" d="M185.44,-109.75C190.77,-102.5 198.51,-91.98 205.11,-83.02"/>
<polygon fill="#63b8ff" stroke="#63b8ff" points="208.31,-85.57 211.42,-75.44 202.67,-81.42 208.31,-85.57"/>
</g>
<!-- Node5 -->
<g id="node5" class="node">
<title>Node5</title>
<g id="a_node5"><a xlink:href="_rcv_sharing_type_8h.html" target="_top" xlink:title=" ">
<polygon fill="white" stroke="#666666" points="382.5,-74 285.5,-74 285.5,-55 382.5,-55 382.5,-74"/>
<text text-anchor="middle" x="334" y="-62" font-family="Helvetica,sans-Serif" font-size="10.00">RcvSharingType.h</text>
</a>
</g>
</g>
<!-- Node1&#45;&gt;Node5 -->
<g id="edge5" class="edge">
<title>Node1&#45;&gt;Node5</title>
<path fill="none" stroke="#63b8ff" d="M205.29,-109.51C230.64,-100.84 269.23,-87.65 297.54,-77.97"/>
<polygon fill="#63b8ff" stroke="#63b8ff" points="298.51,-80.99 306.84,-74.45 296.24,-74.37 298.51,-80.99"/>
</g>
<!-- Node2&#45;&gt;Node3 -->
<g id="edge2" class="edge">
<title>Node2&#45;&gt;Node3</title>
<path fill="none" stroke="#63b8ff" d="M76.87,-54.51C96.51,-46.04 126.17,-33.27 148.47,-23.66"/>
<polygon fill="#63b8ff" stroke="#63b8ff" points="149.64,-26.53 157.44,-19.36 146.87,-20.1 149.64,-26.53"/>
</g>
<!-- Node4&#45;&gt;Node3 -->
<g id="edge4" class="edge">
<title>Node4&#45;&gt;Node3</title>
<path fill="none" stroke="#63b8ff" d="M211.56,-54.75C206.23,-47.5 198.49,-36.98 191.89,-28.02"/>
<polygon fill="#63b8ff" stroke="#63b8ff" points="194.33,-26.42 185.58,-20.44 188.69,-30.57 194.33,-26.42"/>
</g>
<!-- Node5&#45;&gt;Node3 -->
<g id="edge6" class="edge">
<title>Node5&#45;&gt;Node3</title>
<path fill="none" stroke="#63b8ff" d="M307.71,-54.51C282.36,-45.84 243.77,-32.65 215.46,-22.97"/>
<polygon fill="#63b8ff" stroke="#63b8ff" points="216.76,-19.37 206.16,-19.45 214.49,-25.99 216.76,-19.37"/>
</g>
</g>
</svg>
