<?xml version="1.0" encoding="UTF-8" standalone="no"?>
<!DOCTYPE svg PUBLIC "-//W3C//DTD SVG 1.1//EN"
 "http://www.w3.org/Graphics/SVG/1.1/DTD/svg11.dtd">
<!-- Generated by graphviz version 8.1.0 (20230707.0739)
 -->
<!-- Title: rcvsdk/ios/rcvsdk/RcvMeetingOptions.h Pages: 1 -->
<svg width="209pt" height="138pt"
 viewBox="0.00 0.00 208.62 137.75" xmlns="http://www.w3.org/2000/svg" xmlns:xlink="http://www.w3.org/1999/xlink">
<g id="graph0" class="graph" transform="scale(1 1) rotate(0) translate(4 133.75)">
<title>rcvsdk/ios/rcvsdk/RcvMeetingOptions.h</title>
<!-- Node1 -->
<g id="Node000001" class="node">
<title>Node1</title>
<g id="a_Node000001"><a xlink:title=" ">
<polygon fill="#999999" stroke="#666666" points="200.62,-129.75 9.88,-129.75 9.88,-110.5 200.62,-110.5 200.62,-129.75"/>
<text text-anchor="middle" x="105.25" y="-116.25" font-family="Helvetica,sans-Serif" font-size="10.00">rcvsdk/ios/rcvsdk/RcvMeetingOptions.h</text>
</a>
</g>
</g>
<!-- Node2 -->
<g id="Node000002" class="node">
<title>Node2</title>
<g id="a_Node000002"><a xlink:href="_rcv_e_join_meeting_type_8h.html" target="_top" xlink:title=" ">
<polygon fill="white" stroke="#666666" points="122.5,-74.5 0,-74.5 0,-55.25 122.5,-55.25 122.5,-74.5"/>
<text text-anchor="middle" x="61.25" y="-61" font-family="Helvetica,sans-Serif" font-size="10.00">RcvEJoinMeetingType.h</text>
</a>
</g>
</g>
<!-- Node1&#45;&gt;Node2 -->
<g id="edge1_Node000001_Node000002" class="edge">
<title>Node1&#45;&gt;Node2</title>
<g id="a_edge1_Node000001_Node000002"><a xlink:title=" ">
<path fill="none" stroke="#63b8ff" d="M97.98,-110.33C91.91,-102.98 83.05,-92.26 75.56,-83.19"/>
<polygon fill="#63b8ff" stroke="#63b8ff" points="77.74,-81.34 68.67,-75.86 72.35,-85.8 77.74,-81.34"/>
</a>
</g>
</g>
<!-- Node3 -->
<g id="Node000003" class="node">
<title>Node3</title>
<g id="a_Node000003"><a xlink:title=" ">
<polygon fill="#e0e0e0" stroke="#999999" points="166.88,-19.25 43.62,-19.25 43.62,0 166.88,0 166.88,-19.25"/>
<text text-anchor="middle" x="105.25" y="-5.75" font-family="Helvetica,sans-Serif" font-size="10.00">Foundation/Foundation.h</text>
</a>
</g>
</g>
<!-- Node1&#45;&gt;Node3 -->
<g id="edge3_Node000001_Node000003" class="edge">
<title>Node1&#45;&gt;Node3</title>
<g id="a_edge3_Node000001_Node000003"><a xlink:title=" ">
<path fill="none" stroke="#63b8ff" d="M112.38,-110.2C118.75,-101.62 127.6,-88 131.25,-74.5 135.63,-58.29 127.41,-40.67 119.07,-28.05"/>
<polygon fill="#63b8ff" stroke="#63b8ff" points="121.58,-26.54 112.89,-20.48 115.9,-30.64 121.58,-26.54"/>
</a>
</g>
</g>
<!-- Node2&#45;&gt;Node3 -->
<g id="edge2_Node000002_Node000003" class="edge">
<title>Node2&#45;&gt;Node3</title>
<g id="a_edge2_Node000002_Node000003"><a xlink:title=" ">
<path fill="none" stroke="#63b8ff" d="M68.52,-55.08C74.59,-47.73 83.45,-37.01 90.94,-27.94"/>
<polygon fill="#63b8ff" stroke="#63b8ff" points="94.15,-30.55 97.83,-20.61 88.76,-26.09 94.15,-30.55"/>
</a>
</g>
</g>
</g>
</svg>
