<?xml version="1.0" encoding="UTF-8" standalone="no"?>
<!DOCTYPE svg PUBLIC "-//W3C//DTD SVG 1.1//EN"
 "http://www.w3.org/Graphics/SVG/1.1/DTD/svg11.dtd">
<!-- Generated by graphviz version 8.0.1 (20230327.1645)
 -->
<!-- Title: rcvsdk/ios/rcvsdk/RcvOnlyAuthUserJoinMode.h Pages: 1 -->
<svg width="734pt" height="137pt"
 viewBox="0.00 0.00 734.00 137.00" xmlns="http://www.w3.org/2000/svg" xmlns:xlink="http://www.w3.org/1999/xlink">
<g id="graph0" class="graph" transform="scale(1 1) rotate(0) translate(4 133)">
<title>rcvsdk/ios/rcvsdk/RcvOnlyAuthUserJoinMode.h</title>
<!-- Node1 -->
<g id="node1" class="node">
<title>Node1</title>
<g id="a_node1"><a xlink:title=" ">
<polygon fill="#999999" stroke="#666666" points="471.5,-129 244.5,-129 244.5,-110 471.5,-110 471.5,-129"/>
<text text-anchor="middle" x="358" y="-117" font-family="Helvetica,sans-Serif" font-size="10.00">rcvsdk/ios/rcvsdk/RcvOnlyAuthUserJoinMode.h</text>
</a>
</g>
</g>
<!-- Node2 -->
<g id="node2" class="node">
<title>Node2</title>
<g id="a_node2"><a xlink:href="_rcv_instant_meeting_settings_8h.html" target="_top" xlink:title=" ">
<polygon fill="white" stroke="#666666" points="224,-74 0,-74 0,-55 224,-55 224,-74"/>
<text text-anchor="middle" x="112" y="-62" font-family="Helvetica,sans-Serif" font-size="10.00">rcvsdk/ios/rcvsdk/RcvInstantMeetingSettings.h</text>
</a>
</g>
</g>
<!-- Node1&#45;&gt;Node2 -->
<g id="edge1" class="edge">
<title>Node1&#45;&gt;Node2</title>
<path fill="none" stroke="#63b8ff" d="M305.75,-107.24C260.34,-97.46 195.45,-83.48 153.52,-74.45"/>
<polygon fill="#63b8ff" stroke="#63b8ff" points="304.76,-110.82 315.27,-109.51 306.23,-103.98 304.76,-110.82"/>
</g>
<!-- Node4 -->
<g id="node4" class="node">
<title>Node4</title>
<g id="a_node4"><a xlink:href="_rcv_personal_meeting_settings_8h.html" target="_top" xlink:title=" ">
<polygon fill="white" stroke="#666666" points="474,-74 242,-74 242,-55 474,-55 474,-74"/>
<text text-anchor="middle" x="358" y="-62" font-family="Helvetica,sans-Serif" font-size="10.00">rcvsdk/ios/rcvsdk/RcvPersonalMeetingSettings.h</text>
</a>
</g>
</g>
<!-- Node1&#45;&gt;Node4 -->
<g id="edge3" class="edge">
<title>Node1&#45;&gt;Node4</title>
<path fill="none" stroke="#63b8ff" d="M358,-98.93C358,-90.53 358,-81.13 358,-74.44"/>
<polygon fill="#63b8ff" stroke="#63b8ff" points="354.5,-98.75 358,-108.75 361.5,-98.75 354.5,-98.75"/>
</g>
<!-- Node5 -->
<g id="node5" class="node">
<title>Node5</title>
<g id="a_node5"><a xlink:href="_rcv_schedule_meeting_settings_8h.html" target="_top" xlink:title=" ">
<polygon fill="white" stroke="#666666" points="726,-74 492,-74 492,-55 726,-55 726,-74"/>
<text text-anchor="middle" x="609" y="-62" font-family="Helvetica,sans-Serif" font-size="10.00">rcvsdk/ios/rcvsdk/RcvScheduleMeetingSettings.h</text>
</a>
</g>
</g>
<!-- Node1&#45;&gt;Node5 -->
<g id="edge5" class="edge">
<title>Node1&#45;&gt;Node5</title>
<path fill="none" stroke="#63b8ff" d="M411.31,-107.24C457.64,-97.46 523.85,-83.48 566.63,-74.45"/>
<polygon fill="#63b8ff" stroke="#63b8ff" points="410.64,-104.02 401.58,-109.51 412.09,-110.87 410.64,-104.02"/>
</g>
<!-- Node3 -->
<g id="node3" class="node">
<title>Node3</title>
<g id="a_node3"><a xlink:href="_rcv_s_d_k_8h.html" target="_top" xlink:title=" ">
<polygon fill="white" stroke="#666666" points="430,-19 286,-19 286,0 430,0 430,-19"/>
<text text-anchor="middle" x="358" y="-7" font-family="Helvetica,sans-Serif" font-size="10.00">rcvsdk/ios/rcvsdk/RcvSDK.h</text>
</a>
</g>
</g>
<!-- Node2&#45;&gt;Node3 -->
<g id="edge2" class="edge">
<title>Node2&#45;&gt;Node3</title>
<path fill="none" stroke="#63b8ff" d="M164.25,-52.24C209.66,-42.46 274.55,-28.48 316.48,-19.45"/>
<polygon fill="#63b8ff" stroke="#63b8ff" points="163.77,-48.98 154.73,-54.51 165.24,-55.82 163.77,-48.98"/>
</g>
<!-- Node4&#45;&gt;Node3 -->
<g id="edge4" class="edge">
<title>Node4&#45;&gt;Node3</title>
<path fill="none" stroke="#63b8ff" d="M358,-43.93C358,-35.53 358,-26.13 358,-19.44"/>
<polygon fill="#63b8ff" stroke="#63b8ff" points="354.5,-43.75 358,-53.75 361.5,-43.75 354.5,-43.75"/>
</g>
<!-- Node5&#45;&gt;Node3 -->
<g id="edge6" class="edge">
<title>Node5&#45;&gt;Node3</title>
<path fill="none" stroke="#63b8ff" d="M555.69,-52.24C509.36,-42.46 443.15,-28.48 400.37,-19.45"/>
<polygon fill="#63b8ff" stroke="#63b8ff" points="554.91,-55.87 565.42,-54.51 556.36,-49.02 554.91,-55.87"/>
</g>
</g>
</svg>
