<?xml version="1.0" encoding="UTF-8" standalone="no"?>
<!DOCTYPE svg PUBLIC "-//W3C//DTD SVG 1.1//EN"
 "http://www.w3.org/Graphics/SVG/1.1/DTD/svg11.dtd">
<!-- Generated by graphviz version 8.0.4 (20230421.1958)
 -->
<!-- Title: rcvsdk/ios/rcvsdk/RcvGrantType.h Pages: 1 -->
<svg width="191pt" height="138pt"
 viewBox="0.00 0.00 190.50 137.75" xmlns="http://www.w3.org/2000/svg" xmlns:xlink="http://www.w3.org/1999/xlink">
<g id="graph0" class="graph" transform="scale(1 1) rotate(0) translate(4 133.75)">
<title>rcvsdk/ios/rcvsdk/RcvGrantType.h</title>
<!-- Node1 -->
<g id="node1" class="node">
<title>Node1</title>
<g id="a_node1"><a xlink:title=" ">
<polygon fill="#999999" stroke="#666666" points="175,-129.75 7.5,-129.75 7.5,-110.5 175,-110.5 175,-129.75"/>
<text text-anchor="middle" x="91.25" y="-116.25" font-family="Helvetica,sans-Serif" font-size="10.00">rcvsdk/ios/rcvsdk/RcvGrantType.h</text>
</a>
</g>
</g>
<!-- Node2 -->
<g id="node2" class="node">
<title>Node2</title>
<g id="a_node2"><a xlink:href="_rcv_oauth_options_8h.html" target="_top" xlink:title=" ">
<polygon fill="white" stroke="#666666" points="182.5,-74.5 0,-74.5 0,-55.25 182.5,-55.25 182.5,-74.5"/>
<text text-anchor="middle" x="91.25" y="-61" font-family="Helvetica,sans-Serif" font-size="10.00">rcvsdk/ios/rcvsdk/RcvOauthOptions.h</text>
</a>
</g>
</g>
<!-- Node1&#45;&gt;Node2 -->
<g id="edge1" class="edge">
<title>Node1&#45;&gt;Node2</title>
<path fill="none" stroke="#63b8ff" d="M91.25,-99.46C91.25,-91.02 91.25,-81.58 91.25,-74.86"/>
<polygon fill="#63b8ff" stroke="#63b8ff" points="87.75,-99.33 91.25,-109.33 94.75,-99.33 87.75,-99.33"/>
</g>
<!-- Node3 -->
<g id="node3" class="node">
<title>Node3</title>
<g id="a_node3"><a xlink:href="_rcv_s_d_k_8h.html" target="_top" xlink:title=" ">
<polygon fill="white" stroke="#666666" points="163,-19.25 19.5,-19.25 19.5,0 163,0 163,-19.25"/>
<text text-anchor="middle" x="91.25" y="-5.75" font-family="Helvetica,sans-Serif" font-size="10.00">rcvsdk/ios/rcvsdk/RcvSDK.h</text>
</a>
</g>
</g>
<!-- Node2&#45;&gt;Node3 -->
<g id="edge2" class="edge">
<title>Node2&#45;&gt;Node3</title>
<path fill="none" stroke="#63b8ff" d="M91.25,-44.21C91.25,-35.77 91.25,-26.33 91.25,-19.61"/>
<polygon fill="#63b8ff" stroke="#63b8ff" points="87.75,-44.08 91.25,-54.08 94.75,-44.08 87.75,-44.08"/>
</g>
</g>
</svg>
