<?xml version="1.0" encoding="UTF-8" standalone="no"?>
<!DOCTYPE svg PUBLIC "-//W3C//DTD SVG 1.1//EN"
 "http://www.w3.org/Graphics/SVG/1.1/DTD/svg11.dtd">
<!-- Generated by graphviz version 8.0.1 (20230327.1645)
 -->
<!-- Title: rcvsdk/ios/rcvsdk/RcvEngine.h Pages: 1 -->
<!--zoomable 192 -->
<svg id="main" version="1.1" xmlns="http://www.w3.org/2000/svg" xmlns:xlink="http://www.w3.org/1999/xlink" xml:space="preserve" onload="init(evt)">
<style type="text/css"><![CDATA[
.edge:hover path { stroke: red; }
.edge:hover polygon { stroke: red; fill: red; }
]]></style>
<script type="text/javascript"><![CDATA[
var edges = document.getElementsByTagName('g');
if (edges && edges.length) {
  for (var i=0;i<edges.length;i++) {
    if (edges[i].id.substr(0,4)=='edge') {
      edges[i].setAttribute('class','edge');
    }
  }
}
]]></script>
        <defs>
                <circle id="rim" cx="0" cy="0" r="7"/>
                <circle id="rim2" cx="0" cy="0" r="3.5"/>
                <g id="zoomPlus">
                        <use xlink:href="#rim" fill="#404040">
                                <set attributeName="fill" to="#808080" begin="zoomplus.mouseover" end="zoomplus.mouseout"/>
                        </use>
                        <path d="M-4,0h8M0,-4v8" fill="none" stroke="white" stroke-width="1.5" pointer-events="none"/>
                </g>
                <g id="zoomMin">
                        <use xlink:href="#rim" fill="#404040">
                                <set attributeName="fill" to="#808080" begin="zoomminus.mouseover" end="zoomminus.mouseout"/>
                        </use>
                        <path d="M-4,0h8" fill="none" stroke="white" stroke-width="1.5" pointer-events="none"/>
                </g>
                <g id="dirArrow">
                        <path fill="none" stroke="white" stroke-width="1.5" d="M0,-3.0v7 M-2.5,-0.5L0,-3.0L2.5,-0.5"/>
                </g>
               <g id="resetDef">
                       <use xlink:href="#rim2" fill="#404040">
                               <set attributeName="fill" to="#808080" begin="reset.mouseover" end="reset.mouseout"/>
                       </use>
               </g>
        </defs>

<script type="text/javascript">
var viewWidth = 622;
var viewHeight = 192;
var sectionId = 'dynsection-0';
</script>
<script xlink:href="svgpan.js"/>
<svg id="graph" class="graph">
<g id="viewport">
<title>rcvsdk/ios/rcvsdk/RcvEngine.h</title>
<!-- Node1 -->
<g id="node1" class="node">
<title>Node1</title>
<g id="a_node1"><a xlink:title=" ">
<polygon fill="#999999" stroke="#666666" points="319.4,-184 166.4,-184 166.4,-165 319.4,-165 319.4,-184"/>
<text text-anchor="middle" x="242.9" y="-172" font-family="Helvetica,sans-Serif" font-size="10.00">rcvsdk/ios/rcvsdk/RcvEngine.h</text>
</a>
</g>
</g>
<!-- Node2 -->
<g id="node2" class="node">
<title>Node2</title>
<g id="a_node2"><a xlink:title=" ">
<polygon fill="#e0e0e0" stroke="#999999" points="342.9,-19 218.9,-19 218.9,0 342.9,0 342.9,-19"/>
<text text-anchor="middle" x="280.9" y="-7" font-family="Helvetica,sans-Serif" font-size="10.00">Foundation/Foundation.h</text>
</a>
</g>
</g>
<!-- Node1&#45;&gt;Node2 -->
<g id="edge1" class="edge">
<title>Node1&#45;&gt;Node2</title>
<path fill="none" stroke="#63b8ff" d="M178.97,-164.55C93.82,-150.04 -40.36,-116.62 11.9,-55 36.58,-25.9 136.87,-15.8 207.74,-12.32"/>
<polygon fill="#63b8ff" stroke="#63b8ff" points="207.58,-15.78 217.41,-11.83 207.26,-8.79 207.58,-15.78"/>
</g>
<!-- Node3 -->
<g id="node3" class="node">
<title>Node3</title>
<g id="a_node3"><a xlink:href="_rcv_audio_processor_8h.html" target="_top" xlink:title=" ">
<polygon fill="white" stroke="#666666" points="132.4,-74 21.4,-74 21.4,-55 132.4,-55 132.4,-74"/>
<text text-anchor="middle" x="76.9" y="-62" font-family="Helvetica,sans-Serif" font-size="10.00">RcvAudioProcessor.h</text>
</a>
</g>
</g>
<!-- Node1&#45;&gt;Node3 -->
<g id="edge2" class="edge">
<title>Node1&#45;&gt;Node3</title>
<path fill="none" stroke="#63b8ff" d="M171.1,-164.54C145.94,-158.21 119.17,-147.41 99.9,-129 87.71,-117.36 81.96,-98.77 79.26,-84.7"/>
<polygon fill="#63b8ff" stroke="#63b8ff" points="82.62,-84.55 77.63,-75.21 75.71,-85.63 82.62,-84.55"/>
</g>
<!-- Node4 -->
<g id="node4" class="node">
<title>Node4</title>
<g id="a_node4"><a xlink:href="_rcv_engine_event_handler_8h.html" target="_top" xlink:title=" ">
<polygon fill="white" stroke="#666666" points="239.4,-129 108.4,-129 108.4,-110 239.4,-110 239.4,-129"/>
<text text-anchor="middle" x="173.9" y="-117" font-family="Helvetica,sans-Serif" font-size="10.00">RcvEngineEventHandler.h</text>
</a>
</g>
</g>
<!-- Node1&#45;&gt;Node4 -->
<g id="edge4" class="edge">
<title>Node1&#45;&gt;Node4</title>
<path fill="none" stroke="#63b8ff" d="M231.2,-164.51C221.02,-156.7 206.07,-145.21 193.98,-135.93"/>
<polygon fill="#63b8ff" stroke="#63b8ff" points="196.5,-132.67 186.43,-129.36 192.23,-138.23 196.5,-132.67"/>
</g>
<!-- Node6 -->
<g id="node6" class="node">
<title>Node6</title>
<g id="a_node6"><a xlink:href="_rcv_error_code_type_8h.html" target="_top" xlink:title=" ">
<polygon fill="white" stroke="#666666" points="365.9,-129 257.9,-129 257.9,-110 365.9,-110 365.9,-129"/>
<text text-anchor="middle" x="311.9" y="-117" font-family="Helvetica,sans-Serif" font-size="10.00">RcvErrorCodeType.h</text>
</a>
</g>
</g>
<!-- Node1&#45;&gt;Node6 -->
<g id="edge8" class="edge">
<title>Node1&#45;&gt;Node6</title>
<path fill="none" stroke="#63b8ff" d="M254.61,-164.51C264.78,-156.7 279.74,-145.21 291.82,-135.93"/>
<polygon fill="#63b8ff" stroke="#63b8ff" points="293.57,-138.23 299.37,-129.36 289.31,-132.67 293.57,-138.23"/>
</g>
<!-- Node7 -->
<g id="node7" class="node">
<title>Node7</title>
<g id="a_node7"><a xlink:href="_rcv_video_canvas_8h.html" target="_top" xlink:title=" ">
<polygon fill="white" stroke="#666666" points="485.4,-129 384.4,-129 384.4,-110 485.4,-110 485.4,-129"/>
<text text-anchor="middle" x="434.9" y="-117" font-family="Helvetica,sans-Serif" font-size="10.00">RcvVideoCanvas.h</text>
</a>
</g>
</g>
<!-- Node1&#45;&gt;Node7 -->
<g id="edge10" class="edge">
<title>Node1&#45;&gt;Node7</title>
<path fill="none" stroke="#63b8ff" d="M275.47,-164.51C307.56,-155.65 356.78,-142.07 392.03,-132.33"/>
<polygon fill="#63b8ff" stroke="#63b8ff" points="392.78,-135.48 401.49,-129.45 390.92,-128.73 392.78,-135.48"/>
</g>
<!-- Node9 -->
<g id="node9" class="node">
<title>Node9</title>
<g id="a_node9"><a xlink:href="_rcv_video_processor_8h.html" target="_top" xlink:title=" ">
<polygon fill="white" stroke="#666666" points="614.4,-74 503.4,-74 503.4,-55 614.4,-55 614.4,-74"/>
<text text-anchor="middle" x="558.9" y="-62" font-family="Helvetica,sans-Serif" font-size="10.00">RcvVideoProcessor.h</text>
</a>
</g>
</g>
<!-- Node1&#45;&gt;Node9 -->
<g id="edge14" class="edge">
<title>Node1&#45;&gt;Node9</title>
<path fill="none" stroke="#63b8ff" d="M319.75,-171.81C371.74,-167.9 440.57,-157.16 494.9,-129 516.1,-118.01 534.77,-97.56 546.39,-82.84"/>
<polygon fill="#63b8ff" stroke="#63b8ff" points="549.72,-85.23 552.96,-75.14 544.14,-81.01 549.72,-85.23"/>
</g>
<!-- Node3&#45;&gt;Node2 -->
<g id="edge3" class="edge">
<title>Node3&#45;&gt;Node2</title>
<path fill="none" stroke="#63b8ff" d="M111.51,-54.51C145.75,-45.61 198.35,-31.95 235.84,-22.21"/>
<polygon fill="#63b8ff" stroke="#63b8ff" points="236.67,-25.35 245.47,-19.45 234.91,-18.57 236.67,-25.35"/>
</g>
<!-- Node4&#45;&gt;Node2 -->
<g id="edge7" class="edge">
<title>Node4&#45;&gt;Node2</title>
<path fill="none" stroke="#63b8ff" d="M172.33,-109.74C170.48,-96.52 168.99,-71.3 180.9,-55 192.01,-39.8 209.49,-29.7 226.75,-23.03"/>
<polygon fill="#63b8ff" stroke="#63b8ff" points="227.57,-26.1 235.84,-19.49 225.25,-19.5 227.57,-26.1"/>
</g>
<!-- Node5 -->
<g id="node5" class="node">
<title>Node5</title>
<g id="a_node5"><a xlink:href="_rcv_leave_reason_8h.html" target="_top" xlink:title=" ">
<polygon fill="white" stroke="#666666" points="292.4,-74 189.4,-74 189.4,-55 292.4,-55 292.4,-74"/>
<text text-anchor="middle" x="240.9" y="-62" font-family="Helvetica,sans-Serif" font-size="10.00">RcvLeaveReason.h</text>
</a>
</g>
</g>
<!-- Node4&#45;&gt;Node5 -->
<g id="edge5" class="edge">
<title>Node4&#45;&gt;Node5</title>
<path fill="none" stroke="#63b8ff" d="M185.27,-109.51C195.14,-101.7 209.67,-90.21 221.4,-80.93"/>
<polygon fill="#63b8ff" stroke="#63b8ff" points="223.03,-83.31 228.7,-74.36 218.69,-77.82 223.03,-83.31"/>
</g>
<!-- Node5&#45;&gt;Node2 -->
<g id="edge6" class="edge">
<title>Node5&#45;&gt;Node2</title>
<path fill="none" stroke="#63b8ff" d="M247.51,-54.75C252.97,-47.5 260.91,-36.98 267.68,-28.02"/>
<polygon fill="#63b8ff" stroke="#63b8ff" points="270.92,-30.53 274.15,-20.44 265.33,-26.32 270.92,-30.53"/>
</g>
<!-- Node6&#45;&gt;Node2 -->
<g id="edge9" class="edge">
<title>Node6&#45;&gt;Node2</title>
<path fill="none" stroke="#63b8ff" d="M311.31,-109.7C310.3,-97.27 307.74,-73.99 301.9,-55 299.17,-46.13 294.98,-36.78 291.05,-28.95"/>
<polygon fill="#63b8ff" stroke="#63b8ff" points="293.79,-27.62 286.03,-20.4 287.59,-30.88 293.79,-27.62"/>
</g>
<!-- Node7&#45;&gt;Node2 -->
<g id="edge13" class="edge">
<title>Node7&#45;&gt;Node2</title>
<path fill="none" stroke="#63b8ff" d="M422.3,-109.66C396.02,-91.23 335.09,-48.5 302.45,-25.62"/>
<polygon fill="#63b8ff" stroke="#63b8ff" points="304.87,-22.34 294.68,-19.46 300.86,-28.07 304.87,-22.34"/>
</g>
<!-- Node8 -->
<g id="node8" class="node">
<title>Node8</title>
<g id="a_node8"><a xlink:href="_rcv_render_mode_8h.html" target="_top" xlink:title=" ">
<polygon fill="white" stroke="#666666" points="484.9,-74 386.9,-74 386.9,-55 484.9,-55 484.9,-74"/>
<text text-anchor="middle" x="435.9" y="-62" font-family="Helvetica,sans-Serif" font-size="10.00">RcvRenderMode.h</text>
</a>
</g>
</g>
<!-- Node7&#45;&gt;Node8 -->
<g id="edge11" class="edge">
<title>Node7&#45;&gt;Node8</title>
<path fill="none" stroke="#63b8ff" d="M435.07,-109.75C435.19,-103.11 435.37,-93.73 435.53,-85.31"/>
<polygon fill="#63b8ff" stroke="#63b8ff" points="439.04,-85.51 435.73,-75.44 432.04,-85.37 439.04,-85.51"/>
</g>
<!-- Node8&#45;&gt;Node2 -->
<g id="edge12" class="edge">
<title>Node8&#45;&gt;Node2</title>
<path fill="none" stroke="#63b8ff" d="M409.61,-54.51C384.26,-45.84 345.68,-32.65 317.36,-22.97"/>
<polygon fill="#63b8ff" stroke="#63b8ff" points="318.66,-19.37 308.06,-19.45 316.39,-25.99 318.66,-19.37"/>
</g>
<!-- Node9&#45;&gt;Node2 -->
<g id="edge15" class="edge">
<title>Node9&#45;&gt;Node2</title>
<path fill="none" stroke="#63b8ff" d="M511.74,-54.51C463.87,-45.38 389.7,-31.24 338.41,-21.46"/>
<polygon fill="#63b8ff" stroke="#63b8ff" points="339.31,-17.88 328.83,-19.45 337.99,-24.76 339.31,-17.88"/>
</g>
</g>
</svg>
        <g id="navigator" transform="translate(0 0)" fill="#404254">
                <rect fill="#f2f5e9" fill-opacity="0.5" stroke="#606060" stroke-width=".5" x="0" y="0" width="60" height="60"/>
                <use id="zoomplus" xlink:href="#zoomPlus" x="17" y="9" onmousedown="handleZoom(evt,'in')"/>
                <use id="zoomminus" xlink:href="#zoomMin" x="42" y="9" onmousedown="handleZoom(evt,'out')"/>
                <use id="reset" xlink:href="#resetDef" x="30" y="36" onmousedown="handleReset()"/>
                <g id="arrowUp" xlink:href="#dirArrow" transform="translate(30 24)" onmousedown="handlePan(0,-1)">
                  <use xlink:href="#rim" fill="#404040">
                        <set attributeName="fill" to="#808080" begin="arrowUp.mouseover" end="arrowUp.mouseout"/>
                  </use>
                  <path fill="none" stroke="white" stroke-width="1.5" d="M0,-3.0v7 M-2.5,-0.5L0,-3.0L2.5,-0.5"/>
                </g>
                <g id="arrowRight" xlink:href="#dirArrow" transform="rotate(90) translate(36 -43)" onmousedown="handlePan(1,0)">
                  <use xlink:href="#rim" fill="#404040">
                        <set attributeName="fill" to="#808080" begin="arrowRight.mouseover" end="arrowRight.mouseout"/>
                  </use>
                  <path fill="none" stroke="white" stroke-width="1.5" d="M0,-3.0v7 M-2.5,-0.5L0,-3.0L2.5,-0.5"/>
                </g>
                <g id="arrowDown" xlink:href="#dirArrow" transform="rotate(180) translate(-30 -48)" onmousedown="handlePan(0,1)">
                  <use xlink:href="#rim" fill="#404040">
                        <set attributeName="fill" to="#808080" begin="arrowDown.mouseover" end="arrowDown.mouseout"/>
                  </use>
                  <path fill="none" stroke="white" stroke-width="1.5" d="M0,-3.0v7 M-2.5,-0.5L0,-3.0L2.5,-0.5"/>
                </g>
                <g id="arrowLeft" xlink:href="#dirArrow" transform="rotate(270) translate(-36 17)" onmousedown="handlePan(-1,0)">
                  <use xlink:href="#rim" fill="#404040">
                        <set attributeName="fill" to="#808080" begin="arrowLeft.mouseover" end="arrowLeft.mouseout"/>
                  </use>
                  <path fill="none" stroke="white" stroke-width="1.5" d="M0,-3.0v7 M-2.5,-0.5L0,-3.0L2.5,-0.5"/>
                </g>
        </g>
        <svg viewBox="0 0 15 15" width="100%" height="30px" preserveAspectRatio="xMaxYMin meet">
         <g id="arrow_out" transform="scale(0.3 0.3)">
          <a xlink:href="_rcv_engine_8h__incl_org.svg" target="_base">
           <rect id="button" ry="5" rx="5" y="6" x="6" height="38" width="38"
                fill="#f2f5e9" fill-opacity="0.5" stroke="#606060" stroke-width="1.0"/>
           <path id="arrow"
             d="M 11.500037,31.436501 C 11.940474,20.09759 22.043105,11.32322 32.158766,21.979434 L 37.068811,17.246167 C 37.068811,17.246167 37.088388,32 37.088388,32 L 22.160133,31.978069 C 22.160133,31.978069 26.997745,27.140456 26.997745,27.140456 C 18.528582,18.264221 13.291696,25.230495 11.500037,31.436501 z"
             style="fill:#404040;"/>
          </a>
         </g>
        </svg>
</svg>
