<?xml version="1.0" encoding="UTF-8" standalone="no"?>
<!DOCTYPE svg PUBLIC "-//W3C//DTD SVG 1.1//EN"
 "http://www.w3.org/Graphics/SVG/1.1/DTD/svg11.dtd">
<!-- Generated by graphviz version 7.1.0 (20230121.1956)
 -->
<!-- Title: rcvsdk/ios/rcvsdk/RcvMeetingEventHandler.h Pages: 1 -->
<svg width="1177pt" height="137pt"
 viewBox="0.00 0.00 1177.00 137.00" xmlns="http://www.w3.org/2000/svg" xmlns:xlink="http://www.w3.org/1999/xlink">
<g id="graph0" class="graph" transform="scale(1 1) rotate(0) translate(4 133)">
<title>rcvsdk/ios/rcvsdk/RcvMeetingEventHandler.h</title>
<!-- Node1 -->
<g id="node1" class="node">
<title>Node1</title>
<g id="a_node1"><a xlink:title=" ">
<polygon fill="#999999" stroke="#666666" points="655,-129 439,-129 439,-110 655,-110 655,-129"/>
<text text-anchor="middle" x="547" y="-117" font-family="Helvetica,sans-Serif" font-size="10.00">rcvsdk/ios/rcvsdk/RcvMeetingEventHandler.h</text>
</a>
</g>
</g>
<!-- Node2 -->
<g id="node2" class="node">
<title>Node2</title>
<g id="a_node2"><a xlink:href="_rcv_closed_captions_state_8h.html" target="_top" xlink:title=" ">
<polygon fill="white" stroke="#666666" points="136,-74 0,-74 0,-55 136,-55 136,-74"/>
<text text-anchor="middle" x="68" y="-62" font-family="Helvetica,sans-Serif" font-size="10.00">RcvClosedCaptionsState.h</text>
</a>
</g>
</g>
<!-- Node1&#45;&gt;Node2 -->
<g id="edge1" class="edge">
<title>Node1&#45;&gt;Node2</title>
<path fill="none" stroke="#63b8ff" d="M465.74,-109.51C377.01,-99.69 235.83,-84.07 147.71,-74.32"/>
<polygon fill="#63b8ff" stroke="#63b8ff" points="148.27,-70.86 137.95,-73.24 147.5,-77.82 148.27,-70.86"/>
</g>
<!-- Node3 -->
<g id="node3" class="node">
<title>Node3</title>
<g id="a_node3"><a xlink:title=" ">
<polygon fill="#e0e0e0" stroke="#999999" points="609,-19 485,-19 485,0 609,0 609,-19"/>
<text text-anchor="middle" x="547" y="-7" font-family="Helvetica,sans-Serif" font-size="10.00">Foundation/Foundation.h</text>
</a>
</g>
</g>
<!-- Node1&#45;&gt;Node3 -->
<g id="edge15" class="edge">
<title>Node1&#45;&gt;Node3</title>
<path fill="none" stroke="#63b8ff" d="M438.95,-112.46C337.85,-105.68 199.88,-93.07 183,-74 143.24,-29.08 355.84,-15.9 473.3,-12.06"/>
<polygon fill="#63b8ff" stroke="#63b8ff" points="473.31,-15.56 483.19,-11.76 473.09,-8.57 473.31,-15.56"/>
</g>
<!-- Node4 -->
<g id="node4" class="node">
<title>Node4</title>
<g id="a_node4"><a xlink:href="_rcv_end_to_end_encryption_state_8h.html" target="_top" xlink:title=" ">
<polygon fill="white" stroke="#666666" points="350,-74 192,-74 192,-55 350,-55 350,-74"/>
<text text-anchor="middle" x="271" y="-62" font-family="Helvetica,sans-Serif" font-size="10.00">RcvEndToEndEncryptionState.h</text>
</a>
</g>
</g>
<!-- Node1&#45;&gt;Node4 -->
<g id="edge3" class="edge">
<title>Node1&#45;&gt;Node4</title>
<path fill="none" stroke="#63b8ff" d="M500.18,-109.51C452.85,-100.42 379.63,-86.36 328.73,-76.59"/>
<polygon fill="#63b8ff" stroke="#63b8ff" points="329.55,-73.18 319.07,-74.73 328.23,-80.05 329.55,-73.18"/>
</g>
<!-- Node5 -->
<g id="node5" class="node">
<title>Node5</title>
<g id="a_node5"><a xlink:href="_rcv_live_transcription_data_type_8h.html" target="_top" xlink:title=" ">
<polygon fill="white" stroke="#666666" points="527.5,-74 368.5,-74 368.5,-55 527.5,-55 527.5,-74"/>
<text text-anchor="middle" x="448" y="-62" font-family="Helvetica,sans-Serif" font-size="10.00">RcvLiveTranscriptionDataType.h</text>
</a>
</g>
</g>
<!-- Node1&#45;&gt;Node5 -->
<g id="edge5" class="edge">
<title>Node1&#45;&gt;Node5</title>
<path fill="none" stroke="#63b8ff" d="M530.21,-109.51C514.9,-101.31 492.03,-89.07 474.3,-79.58"/>
<polygon fill="#63b8ff" stroke="#63b8ff" points="476.35,-76.71 465.88,-75.07 473.04,-82.88 476.35,-76.71"/>
</g>
<!-- Node6 -->
<g id="node6" class="node">
<title>Node6</title>
<g id="a_node6"><a xlink:href="_rcv_live_transcription_update_history_type_8h.html" target="_top" xlink:title=" ">
<polygon fill="white" stroke="#666666" points="746.5,-74 545.5,-74 545.5,-55 746.5,-55 746.5,-74"/>
<text text-anchor="middle" x="646" y="-62" font-family="Helvetica,sans-Serif" font-size="10.00">RcvLiveTranscriptionUpdateHistoryType.h</text>
</a>
</g>
</g>
<!-- Node1&#45;&gt;Node6 -->
<g id="edge7" class="edge">
<title>Node1&#45;&gt;Node6</title>
<path fill="none" stroke="#63b8ff" d="M563.79,-109.51C579.1,-101.31 601.97,-89.07 619.7,-79.58"/>
<polygon fill="#63b8ff" stroke="#63b8ff" points="620.96,-82.88 628.12,-75.07 617.65,-76.71 620.96,-82.88"/>
</g>
<!-- Node7 -->
<g id="node7" class="node">
<title>Node7</title>
<g id="a_node7"><a xlink:href="_rcv_meeting_api_execute_result_8h.html" target="_top" xlink:title=" ">
<polygon fill="white" stroke="#666666" points="921,-74 765,-74 765,-55 921,-55 921,-74"/>
<text text-anchor="middle" x="843" y="-62" font-family="Helvetica,sans-Serif" font-size="10.00">RcvMeetingApiExecuteResult.h</text>
</a>
</g>
</g>
<!-- Node1&#45;&gt;Node7 -->
<g id="edge9" class="edge">
<title>Node1&#45;&gt;Node7</title>
<path fill="none" stroke="#63b8ff" d="M597.21,-109.51C648.18,-100.38 727.16,-86.24 781.77,-76.46"/>
<polygon fill="#63b8ff" stroke="#63b8ff" points="782.32,-79.92 791.55,-74.71 781.09,-73.03 782.32,-79.92"/>
</g>
<!-- Node8 -->
<g id="node8" class="node">
<title>Node8</title>
<g id="a_node8"><a xlink:href="_rcv_meeting_state_8h.html" target="_top" xlink:title=" ">
<polygon fill="white" stroke="#666666" points="1040.5,-74 939.5,-74 939.5,-55 1040.5,-55 1040.5,-74"/>
<text text-anchor="middle" x="990" y="-62" font-family="Helvetica,sans-Serif" font-size="10.00">RcvMeetingState.h</text>
</a>
</g>
</g>
<!-- Node1&#45;&gt;Node8 -->
<g id="edge11" class="edge">
<title>Node1&#45;&gt;Node8</title>
<path fill="none" stroke="#63b8ff" d="M629.63,-109.5C704.67,-101.2 818.72,-88.23 928.03,-74.22"/>
<polygon fill="#63b8ff" stroke="#63b8ff" points="928.3,-77.72 937.77,-72.97 927.41,-70.77 928.3,-77.72"/>
</g>
<!-- Node9 -->
<g id="node9" class="node">
<title>Node9</title>
<g id="a_node9"><a xlink:href="_rcv_recording_state_8h.html" target="_top" xlink:title=" ">
<polygon fill="white" stroke="#666666" points="1169,-74 1059,-74 1059,-55 1169,-55 1169,-74"/>
<text text-anchor="middle" x="1114" y="-62" font-family="Helvetica,sans-Serif" font-size="10.00">RcvRecordingState.h</text>
</a>
</g>
</g>
<!-- Node1&#45;&gt;Node9 -->
<g id="edge13" class="edge">
<title>Node1&#45;&gt;Node9</title>
<path fill="none" stroke="#63b8ff" d="M655.07,-110.32C754.43,-102.47 906.13,-89.7 1047.49,-74.23"/>
<polygon fill="#63b8ff" stroke="#63b8ff" points="1047.45,-77.76 1057.01,-73.19 1046.69,-70.8 1047.45,-77.76"/>
</g>
<!-- Node2&#45;&gt;Node3 -->
<g id="edge2" class="edge">
<title>Node2&#45;&gt;Node3</title>
<path fill="none" stroke="#63b8ff" d="M136.37,-55.93C225.61,-46.06 381.2,-28.84 473.09,-18.68"/>
<polygon fill="#63b8ff" stroke="#63b8ff" points="473.46,-22.16 483.02,-17.58 472.69,-15.2 473.46,-22.16"/>
</g>
<!-- Node4&#45;&gt;Node3 -->
<g id="edge4" class="edge">
<title>Node4&#45;&gt;Node3</title>
<path fill="none" stroke="#63b8ff" d="M317.82,-54.51C365.15,-45.42 438.37,-31.36 489.27,-21.59"/>
<polygon fill="#63b8ff" stroke="#63b8ff" points="489.77,-25.05 498.93,-19.73 488.45,-18.18 489.77,-25.05"/>
</g>
<!-- Node5&#45;&gt;Node3 -->
<g id="edge6" class="edge">
<title>Node5&#45;&gt;Node3</title>
<path fill="none" stroke="#63b8ff" d="M464.79,-54.51C480.1,-46.31 502.97,-34.07 520.7,-24.58"/>
<polygon fill="#63b8ff" stroke="#63b8ff" points="521.96,-27.88 529.12,-20.07 518.65,-21.71 521.96,-27.88"/>
</g>
<!-- Node6&#45;&gt;Node3 -->
<g id="edge8" class="edge">
<title>Node6&#45;&gt;Node3</title>
<path fill="none" stroke="#63b8ff" d="M629.21,-54.51C613.9,-46.31 591.03,-34.07 573.3,-24.58"/>
<polygon fill="#63b8ff" stroke="#63b8ff" points="575.35,-21.71 564.88,-20.07 572.04,-27.88 575.35,-21.71"/>
</g>
<!-- Node7&#45;&gt;Node3 -->
<g id="edge10" class="edge">
<title>Node7&#45;&gt;Node3</title>
<path fill="none" stroke="#63b8ff" d="M792.79,-54.51C741.82,-45.38 662.84,-31.24 608.23,-21.46"/>
<polygon fill="#63b8ff" stroke="#63b8ff" points="608.91,-18.03 598.45,-19.71 607.68,-24.92 608.91,-18.03"/>
</g>
<!-- Node8&#45;&gt;Node3 -->
<g id="edge12" class="edge">
<title>Node8&#45;&gt;Node3</title>
<path fill="none" stroke="#63b8ff" d="M939.27,-56.22C936.14,-55.8 933.03,-55.39 930,-55 822.43,-41.13 697.59,-26.99 620.45,-18.48"/>
<polygon fill="#63b8ff" stroke="#63b8ff" points="621.24,-15.05 610.92,-17.43 620.48,-22.01 621.24,-15.05"/>
</g>
<!-- Node9&#45;&gt;Node3 -->
<g id="edge14" class="edge">
<title>Node9&#45;&gt;Node3</title>
<path fill="none" stroke="#63b8ff" d="M1058.52,-55.98C1055.64,-55.64 1052.79,-55.31 1050,-55 897.66,-38.15 718.8,-23.56 620.7,-16"/>
<polygon fill="#63b8ff" stroke="#63b8ff" points="621.18,-12.53 610.94,-15.25 620.64,-19.51 621.18,-12.53"/>
</g>
</g>
</svg>
