<?xml version="1.0" encoding="UTF-8" standalone="no"?>
<!DOCTYPE svg PUBLIC "-//W3C//DTD SVG 1.1//EN"
 "http://www.w3.org/Graphics/SVG/1.1/DTD/svg11.dtd">
<!-- Generated by graphviz version 8.1.0 (20230707.0739)
 -->
<!-- Title: rcvsdk/ios/rcvsdk/RcvAudioController.h Pages: 1 -->
<svg width="225pt" height="138pt"
 viewBox="0.00 0.00 224.75 137.75" xmlns="http://www.w3.org/2000/svg" xmlns:xlink="http://www.w3.org/1999/xlink">

<svg id="main" version="1.1" xmlns="http://www.w3.org/2000/svg" xmlns:xlink="http://www.w3.org/1999/xlink" xml:space="preserve" onload="init(evt)">
<style type="text/css"><![CDATA[
.node, .edge {opacity: 0.7;}
.node.selected, .edge.selected {opacity: 1;}
.edge:hover path { stroke: red; }
.edge:hover polygon { stroke: red; fill: red; }
]]></style>
<script type="application/ecmascript" xlink:href="svg.min.js"/>
<svg id="graph" class="graph">
<g id="graph0" class="graph" transform="scale(1 1) rotate(0) translate(4 133.75)">
<title>rcvsdk/ios/rcvsdk/RcvAudioController.h</title>
<!-- Node1 -->
<g id="Node000001" class="node">
<title>Node1</title>
<g id="a_Node000001"><a xlink:title=" ">
<polygon fill="#999999" stroke="#666666" points="216.75,-129.75 28.25,-129.75 28.25,-110.5 216.75,-110.5 216.75,-129.75"/>
<text text-anchor="middle" x="122.5" y="-116.25" font-family="Helvetica,sans-Serif" font-size="10.00">rcvsdk/ios/rcvsdk/RcvAudioController.h</text>
</a>
</g>
</g>
<!-- Node2 -->
<g id="Node000002" class="node">
<title>Node2</title>
<g id="a_Node000002"><a xlink:href="_rcv_local_audio_stream_state_8h.html" target="_top" xlink:title=" ">
<polygon fill="white" stroke="#666666" points="145,-74.5 0,-74.5 0,-55.25 145,-55.25 145,-74.5"/>
<text text-anchor="middle" x="72.5" y="-61" font-family="Helvetica,sans-Serif" font-size="10.00">RcvLocalAudioStreamState.h</text>
</a>
</g>
</g>
<!-- Node1&#45;&gt;Node2 -->
<g id="edge1_Node000001_Node000002" class="edge">
<title>Node1&#45;&gt;Node2</title>
<g id="a_edge1_Node000001_Node000002"><a xlink:title=" ">
<path fill="none" stroke="#63b8ff" d="M114.24,-110.33C107.19,-102.82 96.85,-91.81 88.23,-82.63"/>
<polygon fill="#63b8ff" stroke="#63b8ff" points="91.33,-80.75 81.94,-75.86 86.23,-85.55 91.33,-80.75"/>
</a>
</g>
</g>
<!-- Node3 -->
<g id="Node000003" class="node">
<title>Node3</title>
<g id="a_Node000003"><a xlink:title=" ">
<polygon fill="#e0e0e0" stroke="#999999" points="184.12,-19.25 60.88,-19.25 60.88,0 184.12,0 184.12,-19.25"/>
<text text-anchor="middle" x="122.5" y="-5.75" font-family="Helvetica,sans-Serif" font-size="10.00">Foundation/Foundation.h</text>
</a>
</g>
</g>
<!-- Node1&#45;&gt;Node3 -->
<g id="edge3_Node000001_Node000003" class="edge">
<title>Node1&#45;&gt;Node3</title>
<g id="a_edge3_Node000001_Node000003"><a xlink:title=" ">
<path fill="none" stroke="#63b8ff" d="M131.55,-110.17C139.34,-101.79 150.01,-88.48 154.5,-74.5 159.88,-57.78 149.51,-40.01 139.17,-27.47"/>
<polygon fill="#63b8ff" stroke="#63b8ff" points="142.17,-25.45 132.88,-20.35 136.96,-30.13 142.17,-25.45"/>
</a>
</g>
</g>
<!-- Node2&#45;&gt;Node3 -->
<g id="edge2_Node000002_Node000003" class="edge">
<title>Node2&#45;&gt;Node3</title>
<g id="a_edge2_Node000002_Node000003"><a xlink:title=" ">
<path fill="none" stroke="#63b8ff" d="M80.76,-55.08C87.81,-47.57 98.15,-36.56 106.77,-27.38"/>
<polygon fill="#63b8ff" stroke="#63b8ff" points="108.77,-30.3 113.06,-20.61 103.67,-25.5 108.77,-30.3"/>
</a>
</g>
</g>
</g>
</svg>
</svg>

<style type='text/css'>
<![CDATA[
[data-mouse-over-selected='false'] { opacity: 0.7; }
[data-mouse-over-selected='true']  { opacity: 1.0; }
]]>
</style>
<script type="application/ecmascript"><![CDATA[
document.addEventListener('DOMContentLoaded', (event) => {
  highlightEdges();
  highlightAdjacentNodes();
});
]]></script>
</svg>
