<?xml version="1.0" encoding="UTF-8" standalone="no"?>
<!DOCTYPE svg PUBLIC "-//W3C//DTD SVG 1.1//EN"
 "http://www.w3.org/Graphics/SVG/1.1/DTD/svg11.dtd">
<!-- Generated by graphviz version 8.0.4 (20230421.1958)
 -->
<!-- Title: rcvsdk/ios/rcvsdk/RcvMeetingUserEventHandler.h Pages: 1 -->
<svg width="245pt" height="138pt"
 viewBox="0.00 0.00 244.50 137.75" xmlns="http://www.w3.org/2000/svg" xmlns:xlink="http://www.w3.org/1999/xlink">
<g id="graph0" class="graph" transform="scale(1 1) rotate(0) translate(4 133.75)">
<title>rcvsdk/ios/rcvsdk/RcvMeetingUserEventHandler.h</title>
<!-- Node1 -->
<g id="node1" class="node">
<title>Node1</title>
<g id="a_node1"><a xlink:title=" ">
<polygon fill="#999999" stroke="#666666" points="236.5,-129.75 0,-129.75 0,-110.5 236.5,-110.5 236.5,-129.75"/>
<text text-anchor="middle" x="118.25" y="-116.25" font-family="Helvetica,sans-Serif" font-size="10.00">rcvsdk/ios/rcvsdk/RcvMeetingUserEventHandler.h</text>
</a>
</g>
</g>
<!-- Node2 -->
<g id="node2" class="node">
<title>Node2</title>
<g id="a_node2"><a xlink:href="_rcv_nqi_state_8h.html" target="_top" xlink:title=" ">
<polygon fill="white" stroke="#666666" points="124.5,-74.5 44,-74.5 44,-55.25 124.5,-55.25 124.5,-74.5"/>
<text text-anchor="middle" x="84.25" y="-61" font-family="Helvetica,sans-Serif" font-size="10.00">RcvNqiState.h</text>
</a>
</g>
</g>
<!-- Node1&#45;&gt;Node2 -->
<g id="edge1" class="edge">
<title>Node1&#45;&gt;Node2</title>
<path fill="none" stroke="#63b8ff" d="M112.64,-110.33C108.09,-103.21 101.52,-92.93 95.85,-84.05"/>
<polygon fill="#63b8ff" stroke="#63b8ff" points="98.32,-82.4 89.99,-75.86 92.42,-86.17 98.32,-82.4"/>
</g>
<!-- Node3 -->
<g id="node3" class="node">
<title>Node3</title>
<g id="a_node3"><a xlink:title=" ">
<polygon fill="#e0e0e0" stroke="#999999" points="179.88,-19.25 56.62,-19.25 56.62,0 179.88,0 179.88,-19.25"/>
<text text-anchor="middle" x="118.25" y="-5.75" font-family="Helvetica,sans-Serif" font-size="10.00">Foundation/Foundation.h</text>
</a>
</g>
</g>
<!-- Node1&#45;&gt;Node3 -->
<g id="edge3" class="edge">
<title>Node1&#45;&gt;Node3</title>
<path fill="none" stroke="#63b8ff" d="M122.25,-110.12C125.94,-101.26 131.17,-87.24 133.25,-74.5 135.75,-59.2 131.35,-42.11 126.68,-29.46"/>
<polygon fill="#63b8ff" stroke="#63b8ff" points="129.7,-28.58 122.68,-20.64 123.22,-31.22 129.7,-28.58"/>
</g>
<!-- Node2&#45;&gt;Node3 -->
<g id="edge2" class="edge">
<title>Node2&#45;&gt;Node3</title>
<path fill="none" stroke="#63b8ff" d="M89.86,-55.08C94.41,-47.96 100.98,-37.68 106.65,-28.8"/>
<polygon fill="#63b8ff" stroke="#63b8ff" points="110.08,-30.92 112.51,-20.61 104.18,-27.15 110.08,-30.92"/>
</g>
</g>
</svg>
