<?xml version="1.0" encoding="UTF-8" standalone="no"?>
<!DOCTYPE svg PUBLIC "-//W3C//DTD SVG 1.1//EN"
 "http://www.w3.org/Graphics/SVG/1.1/DTD/svg11.dtd">
<!-- Generated by graphviz version 8.1.0 (20230707.0739)
 -->
<!-- Title: rcvsdk/ios/rcvsdk/RcvMeetingChatMessage.h Pages: 1 -->
<svg width="226pt" height="138pt"
 viewBox="0.00 0.00 225.75 137.75" xmlns="http://www.w3.org/2000/svg" xmlns:xlink="http://www.w3.org/1999/xlink">
<g id="graph0" class="graph" transform="scale(1 1) rotate(0) translate(4 133.75)">
<title>rcvsdk/ios/rcvsdk/RcvMeetingChatMessage.h</title>
<!-- Node1 -->
<g id="Node000001" class="node">
<title>Node1</title>
<g id="a_Node000001"><a xlink:title=" ">
<polygon fill="#999999" stroke="#666666" points="217.75,-129.75 0,-129.75 0,-110.5 217.75,-110.5 217.75,-129.75"/>
<text text-anchor="middle" x="108.88" y="-116.25" font-family="Helvetica,sans-Serif" font-size="10.00">rcvsdk/ios/rcvsdk/RcvMeetingChatMessage.h</text>
</a>
</g>
</g>
<!-- Node2 -->
<g id="Node000002" class="node">
<title>Node2</title>
<g id="a_Node000002"><a xlink:href="_rcv_chat_type_8h.html" target="_top" xlink:title=" ">
<polygon fill="white" stroke="#666666" points="116,-74.5 31.75,-74.5 31.75,-55.25 116,-55.25 116,-74.5"/>
<text text-anchor="middle" x="73.88" y="-61" font-family="Helvetica,sans-Serif" font-size="10.00">RcvChatType.h</text>
</a>
</g>
</g>
<!-- Node1&#45;&gt;Node2 -->
<g id="edge1_Node000001_Node000002" class="edge">
<title>Node1&#45;&gt;Node2</title>
<g id="a_edge1_Node000001_Node000002"><a xlink:title=" ">
<path fill="none" stroke="#63b8ff" d="M103.1,-110.33C98.41,-103.21 91.66,-92.93 85.82,-84.05"/>
<polygon fill="#63b8ff" stroke="#63b8ff" points="88.2,-82.29 79.78,-75.86 82.35,-86.14 88.2,-82.29"/>
</a>
</g>
</g>
<!-- Node3 -->
<g id="Node000003" class="node">
<title>Node3</title>
<g id="a_Node000003"><a xlink:title=" ">
<polygon fill="#e0e0e0" stroke="#999999" points="170.5,-19.25 47.25,-19.25 47.25,0 170.5,0 170.5,-19.25"/>
<text text-anchor="middle" x="108.88" y="-5.75" font-family="Helvetica,sans-Serif" font-size="10.00">Foundation/Foundation.h</text>
</a>
</g>
</g>
<!-- Node1&#45;&gt;Node3 -->
<g id="edge3_Node000001_Node000003" class="edge">
<title>Node1&#45;&gt;Node3</title>
<g id="a_edge3_Node000001_Node000003"><a xlink:title=" ">
<path fill="none" stroke="#63b8ff" d="M113.6,-110.12C119.47,-97.83 128.32,-75.07 124.88,-55.25 123.38,-46.64 120.37,-37.5 117.36,-29.75"/>
<polygon fill="#63b8ff" stroke="#63b8ff" points="120.21,-28.49 113.13,-20.6 113.75,-31.18 120.21,-28.49"/>
</a>
</g>
</g>
<!-- Node2&#45;&gt;Node3 -->
<g id="edge2_Node000002_Node000003" class="edge">
<title>Node2&#45;&gt;Node3</title>
<g id="a_edge2_Node000002_Node000003"><a xlink:title=" ">
<path fill="none" stroke="#63b8ff" d="M79.65,-55.08C84.34,-47.96 91.09,-37.68 96.93,-28.8"/>
<polygon fill="#63b8ff" stroke="#63b8ff" points="100.4,-30.89 102.97,-20.61 94.55,-27.04 100.4,-30.89"/>
</a>
</g>
</g>
</g>
</svg>
