<?xml version="1.0" encoding="UTF-8" standalone="no"?>
<!DOCTYPE svg PUBLIC "-//W3C//DTD SVG 1.1//EN"
 "http://www.w3.org/Graphics/SVG/1.1/DTD/svg11.dtd">
<!-- Generated by graphviz version 8.0.5 (20230430.1635)
 -->
<!-- Title: rcvsdk/ios/rcvsdk/RcvMeetingEventHandler.h Pages: 1 -->
<svg width="954pt" height="138pt"
 viewBox="0.00 0.00 953.50 137.75" xmlns="http://www.w3.org/2000/svg" xmlns:xlink="http://www.w3.org/1999/xlink">
<g id="graph0" class="graph" transform="scale(1 1) rotate(0) translate(4 133.75)">
<title>rcvsdk/ios/rcvsdk/RcvMeetingEventHandler.h</title>
<!-- Node1 -->
<g id="Node000001" class="node">
<title>Node1</title>
<g id="a_Node000001"><a xlink:title=" ">
<polygon fill="#999999" stroke="#666666" points="554.38,-129.75 338.88,-129.75 338.88,-110.5 554.38,-110.5 554.38,-129.75"/>
<text text-anchor="middle" x="446.62" y="-116.25" font-family="Helvetica,sans-Serif" font-size="10.00">rcvsdk/ios/rcvsdk/RcvMeetingEventHandler.h</text>
</a>
</g>
</g>
<!-- Node2 -->
<g id="Node000002" class="node">
<title>Node2</title>
<g id="a_Node000002"><a xlink:href="_rcv_closed_captions_state_8h.html" target="_top" xlink:title=" ">
<polygon fill="white" stroke="#666666" points="135.25,-74.5 0,-74.5 0,-55.25 135.25,-55.25 135.25,-74.5"/>
<text text-anchor="middle" x="67.62" y="-61" font-family="Helvetica,sans-Serif" font-size="10.00">RcvClosedCaptionsState.h</text>
</a>
</g>
</g>
<!-- Node1&#45;&gt;Node2 -->
<g id="edge1_Node000001_Node000002" class="edge">
<title>Node1&#45;&gt;Node2</title>
<g id="a_edge1_Node000001_Node000002"><a xlink:title=" ">
<path fill="none" stroke="#63b8ff" d="M381.9,-110.03C315.64,-100.72 212.74,-86.26 142.88,-76.45"/>
<polygon fill="#63b8ff" stroke="#63b8ff" points="143.79,-72.9 133.4,-74.98 142.81,-79.83 143.79,-72.9"/>
</a>
</g>
</g>
<!-- Node3 -->
<g id="Node000003" class="node">
<title>Node3</title>
<g id="a_Node000003"><a xlink:title=" ">
<polygon fill="#e0e0e0" stroke="#999999" points="508.25,-19.25 385,-19.25 385,0 508.25,0 508.25,-19.25"/>
<text text-anchor="middle" x="446.62" y="-5.75" font-family="Helvetica,sans-Serif" font-size="10.00">Foundation/Foundation.h</text>
</a>
</g>
</g>
<!-- Node1&#45;&gt;Node3 -->
<g id="edge13_Node000001_Node000003" class="edge">
<title>Node1&#45;&gt;Node3</title>
<g id="a_edge13_Node000001_Node000003"><a xlink:title=" ">
<path fill="none" stroke="#63b8ff" d="M338.66,-114.67C274.92,-109.52 202.84,-98.42 182.62,-74.5 177.1,-67.97 177.1,-61.78 182.62,-55.25 206.69,-26.77 304.26,-16.46 373.76,-12.73"/>
<polygon fill="#63b8ff" stroke="#63b8ff" points="373.85,-16.18 383.66,-12.19 373.5,-9.19 373.85,-16.18"/>
</a>
</g>
</g>
<!-- Node4 -->
<g id="Node000004" class="node">
<title>Node4</title>
<g id="a_Node000004"><a xlink:href="_rcv_end_to_end_encryption_state_8h.html" target="_top" xlink:title=" ">
<polygon fill="white" stroke="#666666" points="349.12,-74.5 192.12,-74.5 192.12,-55.25 349.12,-55.25 349.12,-74.5"/>
<text text-anchor="middle" x="270.62" y="-61" font-family="Helvetica,sans-Serif" font-size="10.00">RcvEndToEndEncryptionState.h</text>
</a>
</g>
</g>
<!-- Node1&#45;&gt;Node4 -->
<g id="edge3_Node000001_Node000004" class="edge">
<title>Node1&#45;&gt;Node4</title>
<g id="a_edge3_Node000001_Node000004"><a xlink:title=" ">
<path fill="none" stroke="#63b8ff" d="M416.77,-110.09C387.69,-101.29 343.28,-87.86 311.05,-78.11"/>
<polygon fill="#63b8ff" stroke="#63b8ff" points="312.21,-74.5 301.63,-74.95 310.19,-81.2 312.21,-74.5"/>
</a>
</g>
</g>
<!-- Node5 -->
<g id="Node000005" class="node">
<title>Node5</title>
<g id="a_Node000005"><a xlink:href="_rcv_live_transcription_data_type_8h.html" target="_top" xlink:title=" ">
<polygon fill="white" stroke="#666666" points="525.88,-74.5 367.38,-74.5 367.38,-55.25 525.88,-55.25 525.88,-74.5"/>
<text text-anchor="middle" x="446.62" y="-61" font-family="Helvetica,sans-Serif" font-size="10.00">RcvLiveTranscriptionDataType.h</text>
</a>
</g>
</g>
<!-- Node1&#45;&gt;Node5 -->
<g id="edge5_Node000001_Node000005" class="edge">
<title>Node1&#45;&gt;Node5</title>
<g id="a_edge5_Node000001_Node000005"><a xlink:title=" ">
<path fill="none" stroke="#63b8ff" d="M446.62,-110.33C446.62,-103.67 446.62,-94.24 446.62,-85.78"/>
<polygon fill="#63b8ff" stroke="#63b8ff" points="450.13,-85.86 446.62,-75.86 443.13,-85.86 450.13,-85.86"/>
</a>
</g>
</g>
<!-- Node6 -->
<g id="Node000006" class="node">
<title>Node6</title>
<g id="a_Node000006"><a xlink:href="_rcv_meeting_api_execute_result_8h.html" target="_top" xlink:title=" ">
<polygon fill="white" stroke="#666666" points="699.38,-74.5 543.88,-74.5 543.88,-55.25 699.38,-55.25 699.38,-74.5"/>
<text text-anchor="middle" x="621.62" y="-61" font-family="Helvetica,sans-Serif" font-size="10.00">RcvMeetingApiExecuteResult.h</text>
</a>
</g>
</g>
<!-- Node1&#45;&gt;Node6 -->
<g id="edge7_Node000001_Node000006" class="edge">
<title>Node1&#45;&gt;Node6</title>
<g id="a_edge7_Node000001_Node000006"><a xlink:title=" ">
<path fill="none" stroke="#63b8ff" d="M476.31,-110.09C505.22,-101.29 549.38,-87.86 581.43,-78.11"/>
<polygon fill="#63b8ff" stroke="#63b8ff" points="582.24,-81.21 590.79,-74.95 580.21,-74.52 582.24,-81.21"/>
</a>
</g>
</g>
<!-- Node7 -->
<g id="Node000007" class="node">
<title>Node7</title>
<g id="a_Node000007"><a xlink:href="_rcv_meeting_state_8h.html" target="_top" xlink:title=" ">
<polygon fill="white" stroke="#666666" points="817.62,-74.5 717.62,-74.5 717.62,-55.25 817.62,-55.25 817.62,-74.5"/>
<text text-anchor="middle" x="767.62" y="-61" font-family="Helvetica,sans-Serif" font-size="10.00">RcvMeetingState.h</text>
</a>
</g>
</g>
<!-- Node1&#45;&gt;Node7 -->
<g id="edge9_Node000001_Node000007" class="edge">
<title>Node1&#45;&gt;Node7</title>
<g id="a_edge9_Node000001_Node000007"><a xlink:title=" ">
<path fill="none" stroke="#63b8ff" d="M501.44,-110.03C558.42,-100.58 647.39,-85.82 706.57,-76"/>
<polygon fill="#63b8ff" stroke="#63b8ff" points="706.97,-79.32 716.26,-74.23 705.83,-72.41 706.97,-79.32"/>
</a>
</g>
</g>
<!-- Node8 -->
<g id="Node000008" class="node">
<title>Node8</title>
<g id="a_Node000008"><a xlink:href="_rcv_recording_state_8h.html" target="_top" xlink:title=" ">
<polygon fill="white" stroke="#666666" points="945.5,-74.5 835.75,-74.5 835.75,-55.25 945.5,-55.25 945.5,-74.5"/>
<text text-anchor="middle" x="890.62" y="-61" font-family="Helvetica,sans-Serif" font-size="10.00">RcvRecordingState.h</text>
</a>
</g>
</g>
<!-- Node1&#45;&gt;Node8 -->
<g id="edge11_Node000001_Node000008" class="edge">
<title>Node1&#45;&gt;Node8</title>
<g id="a_edge11_Node000001_Node000008"><a xlink:title=" ">
<path fill="none" stroke="#63b8ff" d="M527.47,-110.04C601.96,-101.57 715.86,-88.39 824.63,-74.73"/>
<polygon fill="#63b8ff" stroke="#63b8ff" points="824.99,-78.09 834.47,-73.37 824.12,-71.14 824.99,-78.09"/>
</a>
</g>
</g>
<!-- Node2&#45;&gt;Node3 -->
<g id="edge2_Node000002_Node000003" class="edge">
<title>Node2&#45;&gt;Node3</title>
<g id="a_edge2_Node000002_Node000003"><a xlink:title=" ">
<path fill="none" stroke="#63b8ff" d="M132.35,-54.78C199.51,-45.34 304.33,-30.62 374.21,-20.8"/>
<polygon fill="#63b8ff" stroke="#63b8ff" points="374.27,-24.18 383.69,-19.33 373.3,-17.25 374.27,-24.18"/>
</a>
</g>
</g>
<!-- Node4&#45;&gt;Node3 -->
<g id="edge4_Node000004_Node000003" class="edge">
<title>Node4&#45;&gt;Node3</title>
<g id="a_edge4_Node000004_Node000003"><a xlink:title=" ">
<path fill="none" stroke="#63b8ff" d="M300.48,-54.84C329.56,-46.04 373.97,-32.61 406.2,-22.86"/>
<polygon fill="#63b8ff" stroke="#63b8ff" points="407.06,-25.95 415.62,-19.7 405.04,-19.25 407.06,-25.95"/>
</a>
</g>
</g>
<!-- Node5&#45;&gt;Node3 -->
<g id="edge6_Node000005_Node000003" class="edge">
<title>Node5&#45;&gt;Node3</title>
<g id="a_edge6_Node000005_Node000003"><a xlink:title=" ">
<path fill="none" stroke="#63b8ff" d="M446.62,-55.08C446.62,-48.42 446.62,-38.99 446.62,-30.53"/>
<polygon fill="#63b8ff" stroke="#63b8ff" points="450.13,-30.61 446.62,-20.61 443.13,-30.61 450.13,-30.61"/>
</a>
</g>
</g>
<!-- Node6&#45;&gt;Node3 -->
<g id="edge8_Node000006_Node000003" class="edge">
<title>Node6&#45;&gt;Node3</title>
<g id="a_edge8_Node000006_Node000003"><a xlink:title=" ">
<path fill="none" stroke="#63b8ff" d="M591.94,-54.84C563.03,-46.04 518.87,-32.61 486.82,-22.86"/>
<polygon fill="#63b8ff" stroke="#63b8ff" points="488.04,-19.27 477.46,-19.7 486.01,-25.96 488.04,-19.27"/>
</a>
</g>
</g>
<!-- Node7&#45;&gt;Node3 -->
<g id="edge10_Node000007_Node000003" class="edge">
<title>Node7&#45;&gt;Node3</title>
<g id="a_edge10_Node000007_Node000003"><a xlink:title=" ">
<path fill="none" stroke="#63b8ff" d="M717.47,-55.55C662.16,-46.38 572.97,-31.58 512.16,-21.5"/>
<polygon fill="#63b8ff" stroke="#63b8ff" points="512.97,-17.92 502.53,-19.73 511.83,-24.82 512.97,-17.92"/>
</a>
</g>
</g>
<!-- Node8&#45;&gt;Node3 -->
<g id="edge12_Node000008_Node000003" class="edge">
<title>Node8&#45;&gt;Node3</title>
<g id="a_edge12_Node000008_Node000003"><a xlink:title=" ">
<path fill="none" stroke="#63b8ff" d="M835.47,-56.38C832.48,-55.99 829.52,-55.61 826.62,-55.25 719.62,-41.76 595.49,-27.43 519,-18.75"/>
<polygon fill="#63b8ff" stroke="#63b8ff" points="519.86,-15.21 509.53,-17.57 519.08,-22.17 519.86,-15.21"/>
</a>
</g>
</g>
</g>
</svg>
