<?xml version="1.0" encoding="UTF-8" standalone="no"?>
<!DOCTYPE svg PUBLIC "-//W3C//DTD SVG 1.1//EN"
 "http://www.w3.org/Graphics/SVG/1.1/DTD/svg11.dtd">
<!-- Generated by graphviz version 8.1.0 (20230707.0739)
 -->
<!-- Title: rcvsdk/ios/rcvsdk/RcvClosedCaptionsController.h Pages: 1 -->
<svg width="242pt" height="138pt"
 viewBox="0.00 0.00 241.50 137.75" xmlns="http://www.w3.org/2000/svg" xmlns:xlink="http://www.w3.org/1999/xlink">
<g id="graph0" class="graph" transform="scale(1 1) rotate(0) translate(4 133.75)">
<title>rcvsdk/ios/rcvsdk/RcvClosedCaptionsController.h</title>
<!-- Node1 -->
<g id="Node000001" class="node">
<title>Node1</title>
<g id="a_Node000001"><a xlink:title=" ">
<polygon fill="#999999" stroke="#666666" points="233.5,-129.75 0,-129.75 0,-110.5 233.5,-110.5 233.5,-129.75"/>
<text text-anchor="middle" x="116.75" y="-116.25" font-family="Helvetica,sans-Serif" font-size="10.00">rcvsdk/ios/rcvsdk/RcvClosedCaptionsController.h</text>
</a>
</g>
</g>
<!-- Node2 -->
<g id="Node000002" class="node">
<title>Node2</title>
<g id="a_Node000002"><a xlink:href="_rcv_closed_captions_state_8h.html" target="_top" xlink:title=" ">
<polygon fill="white" stroke="#666666" points="136.38,-74.5 1.13,-74.5 1.13,-55.25 136.38,-55.25 136.38,-74.5"/>
<text text-anchor="middle" x="68.75" y="-61" font-family="Helvetica,sans-Serif" font-size="10.00">RcvClosedCaptionsState.h</text>
</a>
</g>
</g>
<!-- Node1&#45;&gt;Node2 -->
<g id="edge1_Node000001_Node000002" class="edge">
<title>Node1&#45;&gt;Node2</title>
<g id="a_edge1_Node000001_Node000002"><a xlink:title=" ">
<path fill="none" stroke="#63b8ff" d="M108.82,-110.33C102.12,-102.9 92.33,-92.04 84.11,-82.91"/>
<polygon fill="#63b8ff" stroke="#63b8ff" points="87.14,-80.94 77.85,-75.86 81.94,-85.63 87.14,-80.94"/>
</a>
</g>
</g>
<!-- Node3 -->
<g id="Node000003" class="node">
<title>Node3</title>
<g id="a_Node000003"><a xlink:title=" ">
<polygon fill="#e0e0e0" stroke="#999999" points="178.38,-19.25 55.13,-19.25 55.13,0 178.38,0 178.38,-19.25"/>
<text text-anchor="middle" x="116.75" y="-5.75" font-family="Helvetica,sans-Serif" font-size="10.00">Foundation/Foundation.h</text>
</a>
</g>
</g>
<!-- Node1&#45;&gt;Node3 -->
<g id="edge3_Node000001_Node000003" class="edge">
<title>Node1&#45;&gt;Node3</title>
<g id="a_edge3_Node000001_Node000003"><a xlink:title=" ">
<path fill="none" stroke="#63b8ff" d="M124.97,-110.01C132.03,-101.52 141.71,-88.14 145.75,-74.5 150.6,-58.12 141.44,-40.52 132.15,-27.95"/>
<polygon fill="#63b8ff" stroke="#63b8ff" points="134.27,-26 125.26,-20.42 128.82,-30.4 134.27,-26"/>
</a>
</g>
</g>
<!-- Node2&#45;&gt;Node3 -->
<g id="edge2_Node000002_Node000003" class="edge">
<title>Node2&#45;&gt;Node3</title>
<g id="a_edge2_Node000002_Node000003"><a xlink:title=" ">
<path fill="none" stroke="#63b8ff" d="M76.68,-55.08C83.38,-47.65 93.17,-36.79 101.39,-27.66"/>
<polygon fill="#63b8ff" stroke="#63b8ff" points="103.56,-30.38 107.65,-20.61 98.36,-25.69 103.56,-30.38"/>
</a>
</g>
</g>
</g>
</svg>
