<?xml version="1.0" encoding="UTF-8" standalone="no"?>
<!DOCTYPE svg PUBLIC "-//W3C//DTD SVG 1.1//EN"
 "http://www.w3.org/Graphics/SVG/1.1/DTD/svg11.dtd">
<!-- Generated by graphviz version 7.1.0 (20230121.1956)
 -->
<!-- Title: rcvsdk/ios/rcvsdk/RcvOnlyAuthUserJoinMode.h Pages: 1 -->
<svg width="734pt" height="137pt"
 viewBox="0.00 0.00 734.00 137.00" xmlns="http://www.w3.org/2000/svg" xmlns:xlink="http://www.w3.org/1999/xlink">
<g id="graph0" class="graph" transform="scale(1 1) rotate(0) translate(4 133)">
<title>rcvsdk/ios/rcvsdk/RcvOnlyAuthUserJoinMode.h</title>
<!-- Node1 -->
<g id="node1" class="node">
<title>Node1</title>
<g id="a_node1"><a xlink:title=" ">
<polygon fill="#999999" stroke="#666666" points="471.5,-129 244.5,-129 244.5,-110 471.5,-110 471.5,-129"/>
<text text-anchor="middle" x="358" y="-117" font-family="Helvetica,sans-Serif" font-size="10.00">rcvsdk/ios/rcvsdk/RcvOnlyAuthUserJoinMode.h</text>
</a>
</g>
</g>
<!-- Node2 -->
<g id="node2" class="node">
<title>Node2</title>
<g id="a_node2"><a xlink:href="_rcv_instant_meeting_settings_8h.html" target="_top" xlink:title=" ">
<polygon fill="white" stroke="#666666" points="224,-74 0,-74 0,-55 224,-55 224,-74"/>
<text text-anchor="middle" x="112" y="-62" font-family="Helvetica,sans-Serif" font-size="10.00">rcvsdk/ios/rcvsdk/RcvInstantMeetingSettings.h</text>
</a>
</g>
</g>
<!-- Node1&#45;&gt;Node2 -->
<g id="edge1" class="edge">
<title>Node1&#45;&gt;Node2</title>
<path fill="none" stroke="#63b8ff" d="M305.17,-107.12C259.8,-97.34 195.28,-83.44 153.52,-74.45"/>
<polygon fill="#63b8ff" stroke="#63b8ff" points="304.28,-110.51 314.79,-109.19 305.75,-103.66 304.28,-110.51"/>
</g>
<!-- Node4 -->
<g id="node4" class="node">
<title>Node4</title>
<g id="a_node4"><a xlink:href="_rcv_personal_meeting_settings_8h.html" target="_top" xlink:title=" ">
<polygon fill="white" stroke="#666666" points="474,-74 242,-74 242,-55 474,-55 474,-74"/>
<text text-anchor="middle" x="358" y="-62" font-family="Helvetica,sans-Serif" font-size="10.00">rcvsdk/ios/rcvsdk/RcvPersonalMeetingSettings.h</text>
</a>
</g>
</g>
<!-- Node1&#45;&gt;Node4 -->
<g id="edge3" class="edge">
<title>Node1&#45;&gt;Node4</title>
<path fill="none" stroke="#63b8ff" d="M358,-98.35C358,-90.1 358,-80.97 358,-74.44"/>
<polygon fill="#63b8ff" stroke="#63b8ff" points="354.5,-98.23 358,-108.23 361.5,-98.23 354.5,-98.23"/>
</g>
<!-- Node5 -->
<g id="node5" class="node">
<title>Node5</title>
<g id="a_node5"><a xlink:href="_rcv_schedule_meeting_settings_8h.html" target="_top" xlink:title=" ">
<polygon fill="white" stroke="#666666" points="726,-74 492,-74 492,-55 726,-55 726,-74"/>
<text text-anchor="middle" x="609" y="-62" font-family="Helvetica,sans-Serif" font-size="10.00">rcvsdk/ios/rcvsdk/RcvScheduleMeetingSettings.h</text>
</a>
</g>
</g>
<!-- Node1&#45;&gt;Node5 -->
<g id="edge5" class="edge">
<title>Node1&#45;&gt;Node5</title>
<path fill="none" stroke="#63b8ff" d="M411.61,-107.18C457.92,-97.4 523.94,-83.46 566.63,-74.45"/>
<polygon fill="#63b8ff" stroke="#63b8ff" points="411.12,-103.71 402.06,-109.2 412.57,-110.55 411.12,-103.71"/>
</g>
<!-- Node3 -->
<g id="node3" class="node">
<title>Node3</title>
<g id="a_node3"><a xlink:href="_rcv_s_d_k_8h.html" target="_top" xlink:title=" ">
<polygon fill="white" stroke="#666666" points="430,-19 286,-19 286,0 430,0 430,-19"/>
<text text-anchor="middle" x="358" y="-7" font-family="Helvetica,sans-Serif" font-size="10.00">rcvsdk/ios/rcvsdk/RcvSDK.h</text>
</a>
</g>
</g>
<!-- Node2&#45;&gt;Node3 -->
<g id="edge2" class="edge">
<title>Node2&#45;&gt;Node3</title>
<path fill="none" stroke="#63b8ff" d="M164.83,-52.12C210.2,-42.34 274.72,-28.44 316.48,-19.45"/>
<polygon fill="#63b8ff" stroke="#63b8ff" points="164.25,-48.66 155.21,-54.19 165.72,-55.51 164.25,-48.66"/>
</g>
<!-- Node4&#45;&gt;Node3 -->
<g id="edge4" class="edge">
<title>Node4&#45;&gt;Node3</title>
<path fill="none" stroke="#63b8ff" d="M358,-43.35C358,-35.1 358,-25.97 358,-19.44"/>
<polygon fill="#63b8ff" stroke="#63b8ff" points="354.5,-43.23 358,-53.23 361.5,-43.23 354.5,-43.23"/>
</g>
<!-- Node5&#45;&gt;Node3 -->
<g id="edge6" class="edge">
<title>Node5&#45;&gt;Node3</title>
<path fill="none" stroke="#63b8ff" d="M555.39,-52.18C509.08,-42.4 443.06,-28.46 400.37,-19.45"/>
<polygon fill="#63b8ff" stroke="#63b8ff" points="554.43,-55.55 564.94,-54.2 555.88,-48.71 554.43,-55.55"/>
</g>
</g>
</svg>
