<?xml version="1.0" encoding="UTF-8" standalone="no"?>
<!DOCTYPE svg PUBLIC "-//W3C//DTD SVG 1.1//EN"
 "http://www.w3.org/Graphics/SVG/1.1/DTD/svg11.dtd">
<!-- Generated by graphviz version 8.0.5 (20230430.1635)
 -->
<!-- Title: rcvsdk/ios/rcvsdk/RcvRecordingController.h Pages: 1 -->
<svg width="216pt" height="138pt"
 viewBox="0.00 0.00 216.00 137.75" xmlns="http://www.w3.org/2000/svg" xmlns:xlink="http://www.w3.org/1999/xlink">
<g id="graph0" class="graph" transform="scale(1 1) rotate(0) translate(4 133.75)">
<title>rcvsdk/ios/rcvsdk/RcvRecordingController.h</title>
<!-- Node1 -->
<g id="Node000001" class="node">
<title>Node1</title>
<g id="a_Node000001"><a xlink:title=" ">
<polygon fill="#999999" stroke="#666666" points="208,-129.75 0,-129.75 0,-110.5 208,-110.5 208,-129.75"/>
<text text-anchor="middle" x="104" y="-116.25" font-family="Helvetica,sans-Serif" font-size="10.00">rcvsdk/ios/rcvsdk/RcvRecordingController.h</text>
</a>
</g>
</g>
<!-- Node2 -->
<g id="Node000002" class="node">
<title>Node2</title>
<g id="a_Node000002"><a xlink:href="_rcv_recording_state_8h.html" target="_top" xlink:title=" ">
<polygon fill="white" stroke="#666666" points="117.88,-74.5 8.12,-74.5 8.12,-55.25 117.88,-55.25 117.88,-74.5"/>
<text text-anchor="middle" x="63" y="-61" font-family="Helvetica,sans-Serif" font-size="10.00">RcvRecordingState.h</text>
</a>
</g>
</g>
<!-- Node1&#45;&gt;Node2 -->
<g id="edge1_Node000001_Node000002" class="edge">
<title>Node1&#45;&gt;Node2</title>
<g id="a_edge1_Node000001_Node000002"><a xlink:title=" ">
<path fill="none" stroke="#63b8ff" d="M97.23,-110.33C91.63,-103.05 83.49,-92.48 76.55,-83.48"/>
<polygon fill="#63b8ff" stroke="#63b8ff" points="78.79,-81.65 69.92,-75.86 73.24,-85.92 78.79,-81.65"/>
</a>
</g>
</g>
<!-- Node3 -->
<g id="Node000003" class="node">
<title>Node3</title>
<g id="a_Node000003"><a xlink:title=" ">
<polygon fill="#e0e0e0" stroke="#999999" points="165.62,-19.25 42.38,-19.25 42.38,0 165.62,0 165.62,-19.25"/>
<text text-anchor="middle" x="104" y="-5.75" font-family="Helvetica,sans-Serif" font-size="10.00">Foundation/Foundation.h</text>
</a>
</g>
</g>
<!-- Node1&#45;&gt;Node3 -->
<g id="edge3_Node000001_Node000003" class="edge">
<title>Node1&#45;&gt;Node3</title>
<g id="a_edge3_Node000001_Node000003"><a xlink:title=" ">
<path fill="none" stroke="#63b8ff" d="M110.32,-110.07C115.96,-101.39 123.8,-87.71 127,-74.5 130.86,-58.59 123.76,-41.15 116.46,-28.51"/>
<polygon fill="#63b8ff" stroke="#63b8ff" points="119.08,-27.1 110.77,-20.53 113.17,-30.85 119.08,-27.1"/>
</a>
</g>
</g>
<!-- Node2&#45;&gt;Node3 -->
<g id="edge2_Node000002_Node000003" class="edge">
<title>Node2&#45;&gt;Node3</title>
<g id="a_edge2_Node000002_Node000003"><a xlink:title=" ">
<path fill="none" stroke="#63b8ff" d="M69.77,-55.08C75.37,-47.8 83.51,-37.23 90.45,-28.23"/>
<polygon fill="#63b8ff" stroke="#63b8ff" points="93.76,-30.67 97.08,-20.61 88.21,-26.4 93.76,-30.67"/>
</a>
</g>
</g>
</g>
</svg>
