<?xml version="1.0" encoding="UTF-8" standalone="no"?>
<!DOCTYPE svg PUBLIC "-//W3C//DTD SVG 1.1//EN"
 "http://www.w3.org/Graphics/SVG/1.1/DTD/svg11.dtd">
<!-- Generated by graphviz version 8.0.1 (20230327.1645)
 -->
<!-- Title: rcvsdk/ios/rcvsdk/RcvOpenGLVideoView.h Pages: 1 -->
<svg width="273pt" height="192pt"
 viewBox="0.00 0.00 272.50 192.00" xmlns="http://www.w3.org/2000/svg" xmlns:xlink="http://www.w3.org/1999/xlink">
<g id="graph0" class="graph" transform="scale(1 1) rotate(0) translate(4 188)">
<title>rcvsdk/ios/rcvsdk/RcvOpenGLVideoView.h</title>
<!-- Node1 -->
<g id="node1" class="node">
<title>Node1</title>
<g id="a_node1"><a xlink:title=" ">
<polygon fill="#999999" stroke="#666666" points="203,-184 0,-184 0,-165 203,-165 203,-184"/>
<text text-anchor="middle" x="101.5" y="-172" font-family="Helvetica,sans-Serif" font-size="10.00">rcvsdk/ios/rcvsdk/RcvOpenGLVideoView.h</text>
</a>
</g>
</g>
<!-- Node2 -->
<g id="node2" class="node">
<title>Node2</title>
<g id="a_node2"><a xlink:title=" ">
<polygon fill="#e0e0e0" stroke="#999999" points="106,-74 33,-74 33,-55 106,-55 106,-74"/>
<text text-anchor="middle" x="69.5" y="-62" font-family="Helvetica,sans-Serif" font-size="10.00">UIKit/UIKit.h</text>
</a>
</g>
</g>
<!-- Node1&#45;&gt;Node2 -->
<g id="edge1" class="edge">
<title>Node1&#45;&gt;Node2</title>
<path fill="none" stroke="#63b8ff" d="M96.11,-164.63C91.04,-155.89 83.62,-141.98 79.5,-129 74.94,-114.65 72.41,-97.8 71.04,-85.06"/>
<polygon fill="#63b8ff" stroke="#63b8ff" points="74.45,-84.96 70.04,-75.32 67.48,-85.6 74.45,-84.96"/>
</g>
<!-- Node3 -->
<g id="node3" class="node">
<title>Node3</title>
<g id="a_node3"><a xlink:href="_rcv_base_video_view_8h.html" target="_top" xlink:title=" ">
<polygon fill="white" stroke="#666666" points="198.5,-129 88.5,-129 88.5,-110 198.5,-110 198.5,-129"/>
<text text-anchor="middle" x="143.5" y="-117" font-family="Helvetica,sans-Serif" font-size="10.00">RcvBaseVideoView.h</text>
</a>
</g>
</g>
<!-- Node1&#45;&gt;Node3 -->
<g id="edge2" class="edge">
<title>Node1&#45;&gt;Node3</title>
<path fill="none" stroke="#63b8ff" d="M108.44,-164.75C114.18,-157.5 122.51,-146.98 129.62,-138.02"/>
<polygon fill="#63b8ff" stroke="#63b8ff" points="132.95,-140.45 136.41,-130.44 127.46,-136.11 132.95,-140.45"/>
</g>
<!-- Node3&#45;&gt;Node2 -->
<g id="edge4" class="edge">
<title>Node3&#45;&gt;Node2</title>
<path fill="none" stroke="#63b8ff" d="M130.95,-109.51C119.93,-101.62 103.68,-89.98 90.66,-80.65"/>
<polygon fill="#63b8ff" stroke="#63b8ff" points="93.04,-77.34 82.87,-74.36 88.96,-83.03 93.04,-77.34"/>
</g>
<!-- Node4 -->
<g id="node4" class="node">
<title>Node4</title>
<g id="a_node4"><a xlink:title=" ">
<polygon fill="#e0e0e0" stroke="#999999" points="238.5,-19 114.5,-19 114.5,0 238.5,0 238.5,-19"/>
<text text-anchor="middle" x="176.5" y="-7" font-family="Helvetica,sans-Serif" font-size="10.00">Foundation/Foundation.h</text>
</a>
</g>
</g>
<!-- Node3&#45;&gt;Node4 -->
<g id="edge3" class="edge">
<title>Node3&#45;&gt;Node4</title>
<path fill="none" stroke="#63b8ff" d="M144.9,-109.74C146.99,-97.36 151.36,-74.14 157.5,-55 160.29,-46.3 164.14,-36.96 167.64,-29.1"/>
<polygon fill="#63b8ff" stroke="#63b8ff" points="171.21,-30.73 172.22,-20.18 164.85,-27.79 171.21,-30.73"/>
</g>
<!-- Node5 -->
<g id="node5" class="node">
<title>Node5</title>
<g id="a_node5"><a xlink:href="_rcv_render_mode_8h.html" target="_top" xlink:title=" ">
<polygon fill="white" stroke="#666666" points="264.5,-74 166.5,-74 166.5,-55 264.5,-55 264.5,-74"/>
<text text-anchor="middle" x="215.5" y="-62" font-family="Helvetica,sans-Serif" font-size="10.00">RcvRenderMode.h</text>
</a>
</g>
</g>
<!-- Node3&#45;&gt;Node5 -->
<g id="edge5" class="edge">
<title>Node3&#45;&gt;Node5</title>
<path fill="none" stroke="#63b8ff" d="M155.71,-109.51C166.43,-101.62 182.24,-89.98 194.91,-80.65"/>
<polygon fill="#63b8ff" stroke="#63b8ff" points="196.49,-83.1 202.47,-74.36 192.34,-77.47 196.49,-83.1"/>
</g>
<!-- Node5&#45;&gt;Node4 -->
<g id="edge6" class="edge">
<title>Node5&#45;&gt;Node4</title>
<path fill="none" stroke="#63b8ff" d="M209.06,-54.75C203.73,-47.5 195.99,-36.98 189.39,-28.02"/>
<polygon fill="#63b8ff" stroke="#63b8ff" points="191.83,-26.42 183.08,-20.44 186.19,-30.57 191.83,-26.42"/>
</g>
</g>
</svg>
