<?xml version="1.0" encoding="UTF-8" standalone="no"?>
<!DOCTYPE svg PUBLIC "-//W3C//DTD SVG 1.1//EN"
 "http://www.w3.org/Graphics/SVG/1.1/DTD/svg11.dtd">
<!-- Generated by graphviz version 8.0.1 (20230327.1645)
 -->
<!-- Title: rcvsdk/ios/rcvsdk/RcvBaseVideoView.h Pages: 1 -->
<svg width="902pt" height="137pt"
 viewBox="0.00 0.00 902.00 137.00" xmlns="http://www.w3.org/2000/svg" xmlns:xlink="http://www.w3.org/1999/xlink">
<g id="graph0" class="graph" transform="scale(1 1) rotate(0) translate(4 133)">
<title>rcvsdk/ios/rcvsdk/RcvBaseVideoView.h</title>
<!-- Node1 -->
<g id="node1" class="node">
<title>Node1</title>
<g id="a_node1"><a xlink:title=" ">
<polygon fill="#999999" stroke="#666666" points="427,-129 236,-129 236,-110 427,-110 427,-129"/>
<text text-anchor="middle" x="331.5" y="-117" font-family="Helvetica,sans-Serif" font-size="10.00">rcvsdk/ios/rcvsdk/RcvBaseVideoView.h</text>
</a>
</g>
</g>
<!-- Node2 -->
<g id="node2" class="node">
<title>Node2</title>
<g id="a_node2"><a xlink:href="_r_c_video_canvas_8h.html" target="_top" xlink:title=" ">
<polygon fill="white" stroke="#666666" points="179,-74 0,-74 0,-55 179,-55 179,-74"/>
<text text-anchor="middle" x="89.5" y="-62" font-family="Helvetica,sans-Serif" font-size="10.00">rcvsdk/ios/rcvsdk/RCVideoCanvas.h</text>
</a>
</g>
</g>
<!-- Node1&#45;&gt;Node2 -->
<g id="edge1" class="edge">
<title>Node1&#45;&gt;Node2</title>
<path fill="none" stroke="#63b8ff" d="M279.81,-107.18C235.16,-97.4 171.51,-83.46 130.35,-74.45"/>
<polygon fill="#63b8ff" stroke="#63b8ff" points="278.93,-110.79 289.45,-109.51 280.43,-103.95 278.93,-110.79"/>
</g>
<!-- Node3 -->
<g id="node3" class="node">
<title>Node3</title>
<g id="a_node3"><a xlink:href="_rcv_s_d_k_8h.html" target="_top" xlink:title=" ">
<polygon fill="white" stroke="#666666" points="403.5,-19 259.5,-19 259.5,0 403.5,0 403.5,-19"/>
<text text-anchor="middle" x="331.5" y="-7" font-family="Helvetica,sans-Serif" font-size="10.00">rcvsdk/ios/rcvsdk/RcvSDK.h</text>
</a>
</g>
</g>
<!-- Node1&#45;&gt;Node3 -->
<g id="edge7" class="edge">
<title>Node1&#45;&gt;Node3</title>
<path fill="none" stroke="#63b8ff" d="M270.48,-106.07C253.38,-99.47 236.69,-89.39 226.5,-74 208.27,-46.47 250.61,-29 286.85,-19.5"/>
<polygon fill="#63b8ff" stroke="#63b8ff" points="268.96,-109.59 279.56,-109.56 271.26,-102.98 268.96,-109.59"/>
</g>
<!-- Node4 -->
<g id="node4" class="node">
<title>Node4</title>
<g id="a_node4"><a xlink:href="_rcv_metal_video_view_8h.html" target="_top" xlink:title=" ">
<polygon fill="white" stroke="#666666" points="427.5,-74 235.5,-74 235.5,-55 427.5,-55 427.5,-74"/>
<text text-anchor="middle" x="331.5" y="-62" font-family="Helvetica,sans-Serif" font-size="10.00">rcvsdk/ios/rcvsdk/RcvMetalVideoView.h</text>
</a>
</g>
</g>
<!-- Node1&#45;&gt;Node4 -->
<g id="edge3" class="edge">
<title>Node1&#45;&gt;Node4</title>
<path fill="none" stroke="#63b8ff" d="M331.5,-98.93C331.5,-90.53 331.5,-81.13 331.5,-74.44"/>
<polygon fill="#63b8ff" stroke="#63b8ff" points="328,-98.75 331.5,-108.75 335,-98.75 328,-98.75"/>
</g>
<!-- Node5 -->
<g id="node5" class="node">
<title>Node5</title>
<g id="a_node5"><a xlink:href="_rcv_open_g_l_video_view_8h.html" target="_top" xlink:title=" ">
<polygon fill="white" stroke="#666666" points="649,-74 446,-74 446,-55 649,-55 649,-74"/>
<text text-anchor="middle" x="547.5" y="-62" font-family="Helvetica,sans-Serif" font-size="10.00">rcvsdk/ios/rcvsdk/RcvOpenGLVideoView.h</text>
</a>
</g>
</g>
<!-- Node1&#45;&gt;Node5 -->
<g id="edge5" class="edge">
<title>Node1&#45;&gt;Node5</title>
<path fill="none" stroke="#63b8ff" d="M378.65,-106.93C418.45,-97.17 474.61,-83.38 511.04,-74.45"/>
<polygon fill="#63b8ff" stroke="#63b8ff" points="378.02,-103.73 369.14,-109.51 379.69,-110.53 378.02,-103.73"/>
</g>
<!-- Node6 -->
<g id="node6" class="node">
<title>Node6</title>
<g id="a_node6"><a xlink:href="_rcv_sample_buffer_video_view_8h.html" target="_top" xlink:title=" ">
<polygon fill="white" stroke="#666666" points="894,-74 667,-74 667,-55 894,-55 894,-74"/>
<text text-anchor="middle" x="780.5" y="-62" font-family="Helvetica,sans-Serif" font-size="10.00">rcvsdk/ios/rcvsdk/RcvSampleBufferVideoView.h</text>
</a>
</g>
</g>
<!-- Node1&#45;&gt;Node6 -->
<g id="edge8" class="edge">
<title>Node1&#45;&gt;Node6</title>
<path fill="none" stroke="#63b8ff" d="M418.59,-108.22C501.55,-98.43 625.2,-83.83 704.34,-74.49"/>
<polygon fill="#63b8ff" stroke="#63b8ff" points="418.19,-104.86 408.67,-109.51 419.01,-111.81 418.19,-104.86"/>
</g>
<!-- Node2&#45;&gt;Node3 -->
<g id="edge2" class="edge">
<title>Node2&#45;&gt;Node3</title>
<path fill="none" stroke="#63b8ff" d="M141.19,-52.18C185.84,-42.4 249.49,-28.46 290.65,-19.45"/>
<polygon fill="#63b8ff" stroke="#63b8ff" points="140.57,-48.95 131.55,-54.51 142.07,-55.79 140.57,-48.95"/>
</g>
<!-- Node4&#45;&gt;Node3 -->
<g id="edge4" class="edge">
<title>Node4&#45;&gt;Node3</title>
<path fill="none" stroke="#63b8ff" d="M331.5,-43.93C331.5,-35.53 331.5,-26.13 331.5,-19.44"/>
<polygon fill="#63b8ff" stroke="#63b8ff" points="328,-43.75 331.5,-53.75 335,-43.75 328,-43.75"/>
</g>
<!-- Node5&#45;&gt;Node3 -->
<g id="edge6" class="edge">
<title>Node5&#45;&gt;Node3</title>
<path fill="none" stroke="#63b8ff" d="M500.35,-51.93C460.55,-42.17 404.39,-28.38 367.96,-19.45"/>
<polygon fill="#63b8ff" stroke="#63b8ff" points="499.31,-55.53 509.86,-54.51 500.98,-48.73 499.31,-55.53"/>
</g>
<!-- Node6&#45;&gt;Node3 -->
<g id="edge9" class="edge">
<title>Node6&#45;&gt;Node3</title>
<path fill="none" stroke="#63b8ff" d="M693.5,-53.23C609.23,-43.28 482.91,-28.37 403.95,-19.05"/>
<polygon fill="#63b8ff" stroke="#63b8ff" points="692.99,-56.81 703.33,-54.51 693.81,-49.86 692.99,-56.81"/>
</g>
</g>
</svg>
