<?xml version="1.0" encoding="UTF-8" standalone="no"?>
<!DOCTYPE svg PUBLIC "-//W3C//DTD SVG 1.1//EN"
 "http://www.w3.org/Graphics/SVG/1.1/DTD/svg11.dtd">
<!-- Generated by graphviz version 7.0.5 (20221223.1930)
 -->
<!-- Title: Graphical Class Hierarchy Pages: 1 -->
<svg width="295pt" height="878pt"
 viewBox="0.00 0.00 295.00 878.00" xmlns="http://www.w3.org/2000/svg" xmlns:xlink="http://www.w3.org/1999/xlink">
<g id="graph0" class="graph" transform="scale(1 1) rotate(0) translate(4 874)">
<title>Graphical Class Hierarchy</title>
<!-- Node0 -->
<g id="node1" class="node">
<title>Node0</title>
<g id="a_node1"><a xlink:title=" ">
<polygon fill="#e0e0e0" stroke="#999999" points="82,-444 23,-444 23,-425 82,-425 82,-444"/>
<text text-anchor="middle" x="52.5" y="-432" font-family="Helvetica,sans-Serif" font-size="10.00">NSObject</text>
</a>
</g>
</g>
<!-- Node1 -->
<g id="node2" class="node">
<title>Node1</title>
<g id="a_node2"><a xlink:href="interface_r_c_video_canvas.html" target="_top" xlink:title=" ">
<polygon fill="white" stroke="#666666" points="259,-870 169,-870 169,-851 259,-851 259,-870"/>
<text text-anchor="middle" x="214" y="-858" font-family="Helvetica,sans-Serif" font-size="10.00">RCVideoCanvas</text>
</a>
</g>
</g>
<!-- Node0&#45;&gt;Node1 -->
<g id="edge1" class="edge">
<title>Node0&#45;&gt;Node1</title>
<path fill="none" stroke="#63b8ff" d="M55.13,-455.65C61.39,-531.14 86.26,-785.88 141,-842.5 148.34,-850.1 158.37,-854.67 168.61,-857.38"/>
<polygon fill="#63b8ff" stroke="#63b8ff" points="58.64,-455.61 54.35,-445.93 51.66,-456.17 58.64,-455.61"/>
</g>
<!-- Node3 -->
<g id="node3" class="node">
<title>Node3</title>
<g id="a_node3"><a xlink:href="interface_rcv_annotation_view.html" target="_top" xlink:title=" ">
<polygon fill="white" stroke="#666666" points="265.5,-833 162.5,-833 162.5,-814 265.5,-814 265.5,-833"/>
<text text-anchor="middle" x="214" y="-821" font-family="Helvetica,sans-Serif" font-size="10.00">RcvAnnotationView</text>
</a>
</g>
</g>
<!-- Node0&#45;&gt;Node3 -->
<g id="edge2" class="edge">
<title>Node0&#45;&gt;Node3</title>
<path fill="none" stroke="#63b8ff" d="M55.64,-455.45C63.27,-526.02 91.34,-753.54 141,-804.5 146.86,-810.52 154.39,-814.7 162.36,-817.6"/>
<polygon fill="#63b8ff" stroke="#63b8ff" points="59.14,-455.26 54.61,-445.68 52.18,-455.99 59.14,-455.26"/>
</g>
<!-- Node4 -->
<g id="node4" class="node">
<title>Node4</title>
<g id="a_node4"><a xlink:href="interface_rcv_audio_controller.html" target="_top" xlink:title=" ">
<polygon fill="white" stroke="#666666" points="264.5,-796 163.5,-796 163.5,-777 264.5,-777 264.5,-796"/>
<text text-anchor="middle" x="214" y="-784" font-family="Helvetica,sans-Serif" font-size="10.00">RcvAudioController</text>
</a>
</g>
</g>
<!-- Node0&#45;&gt;Node4 -->
<g id="edge3" class="edge">
<title>Node0&#45;&gt;Node4</title>
<path fill="none" stroke="#63b8ff" d="M56.23,-455.46C65.23,-521.31 95.95,-722.4 141,-767.5 147.12,-773.63 154.97,-777.85 163.22,-780.74"/>
<polygon fill="#63b8ff" stroke="#63b8ff" points="59.72,-455.12 54.93,-445.67 52.78,-456.05 59.72,-455.12"/>
</g>
<!-- Node5 -->
<g id="node5" class="node">
<title>Node5</title>
<g id="a_node5"><a xlink:href="interface_rcv_audio_device_manager.html" target="_top" xlink:title=" ">
<polygon fill="white" stroke="#666666" points="278,-759 150,-759 150,-740 278,-740 278,-759"/>
<text text-anchor="middle" x="214" y="-747" font-family="Helvetica,sans-Serif" font-size="10.00">RcvAudioDeviceManager</text>
</a>
</g>
</g>
<!-- Node0&#45;&gt;Node5 -->
<g id="edge4" class="edge">
<title>Node0&#45;&gt;Node5</title>
<path fill="none" stroke="#63b8ff" d="M53.15,-455.88C53.48,-510.07 62.15,-653.94 141,-730.5 144.8,-734.19 149.23,-737.19 154,-739.62"/>
<polygon fill="#63b8ff" stroke="#63b8ff" points="56.65,-455.92 53.2,-445.9 49.65,-455.89 56.65,-455.92"/>
</g>
<!-- Node6 -->
<g id="node6" class="node">
<title>Node6</title>
<g id="a_node6"><a xlink:href="interface_rcv_closed_captions_controller.html" target="_top" xlink:title=" ">
<polygon fill="white" stroke="#666666" points="287,-722 141,-722 141,-703 287,-703 287,-722"/>
<text text-anchor="middle" x="214" y="-710" font-family="Helvetica,sans-Serif" font-size="10.00">RcvClosedCaptionsController</text>
</a>
</g>
</g>
<!-- Node0&#45;&gt;Node6 -->
<g id="edge5" class="edge">
<title>Node0&#45;&gt;Node6</title>
<path fill="none" stroke="#63b8ff" d="M54.21,-455.84C57.04,-505.24 71.12,-628.21 141,-693.5 144.97,-697.21 149.57,-700.21 154.5,-702.64"/>
<polygon fill="#63b8ff" stroke="#63b8ff" points="57.71,-455.8 53.76,-445.97 50.72,-456.12 57.71,-455.8"/>
</g>
<!-- Node7 -->
<g id="node7" class="node">
<title>Node7</title>
<g id="a_node7"><a xlink:href="interface_rcv_closed_captions_data.html" target="_top" xlink:title=" ">
<polygon fill="white" stroke="#666666" points="276.5,-685 151.5,-685 151.5,-666 276.5,-666 276.5,-685"/>
<text text-anchor="middle" x="214" y="-673" font-family="Helvetica,sans-Serif" font-size="10.00">RcvClosedCaptionsData</text>
</a>
</g>
</g>
<!-- Node0&#45;&gt;Node7 -->
<g id="edge6" class="edge">
<title>Node0&#45;&gt;Node7</title>
<path fill="none" stroke="#63b8ff" d="M55.54,-455.46C60.97,-499.52 79.85,-602.14 141,-656.5 145.15,-660.19 149.95,-663.18 155.04,-665.6"/>
<polygon fill="#63b8ff" stroke="#63b8ff" points="59.04,-455.29 54.46,-445.73 52.08,-456.06 59.04,-455.29"/>
</g>
<!-- Node8 -->
<g id="node8" class="node">
<title>Node8</title>
<g id="a_node8"><a xlink:href="interface_rcv_engine.html" target="_top" xlink:title=" ">
<polygon fill="white" stroke="#666666" points="246.5,-648 181.5,-648 181.5,-629 246.5,-629 246.5,-648"/>
<text text-anchor="middle" x="214" y="-636" font-family="Helvetica,sans-Serif" font-size="10.00">RcvEngine</text>
</a>
</g>
</g>
<!-- Node0&#45;&gt;Node8 -->
<g id="edge7" class="edge">
<title>Node0&#45;&gt;Node8</title>
<path fill="none" stroke="#63b8ff" d="M57.36,-455.36C65.6,-493.82 88.6,-575.94 141,-619.5 152.23,-628.84 167.58,-633.63 181.22,-636.08"/>
<polygon fill="#63b8ff" stroke="#63b8ff" points="60.84,-454.91 55.45,-445.79 53.98,-456.29 60.84,-454.91"/>
</g>
<!-- Node9 -->
<g id="node9" class="node">
<title>Node9</title>
<g id="a_node9"><a xlink:href="interface_rcv_i_participant.html" target="_top" xlink:title=" ">
<polygon fill="white" stroke="#666666" points="256,-611 172,-611 172,-592 256,-592 256,-611"/>
<text text-anchor="middle" x="214" y="-599" font-family="Helvetica,sans-Serif" font-size="10.00">RcvIParticipant</text>
</a>
</g>
</g>
<!-- Node0&#45;&gt;Node9 -->
<g id="edge8" class="edge">
<title>Node0&#45;&gt;Node9</title>
<path fill="none" stroke="#63b8ff" d="M59.9,-454.95C71.03,-487.11 97.09,-549.3 141,-582.5 149.87,-589.21 160.9,-593.55 171.65,-596.36"/>
<polygon fill="#63b8ff" stroke="#63b8ff" points="63.28,-454.05 56.83,-445.65 56.64,-456.24 63.28,-454.05"/>
</g>
<!-- Node10 -->
<g id="node10" class="node">
<title>Node10</title>
<g id="a_node10"><a xlink:href="interface_rcv_instant_meeting_settings.html" target="_top" xlink:title=" ">
<polygon fill="white" stroke="#666666" points="281.5,-574 146.5,-574 146.5,-555 281.5,-555 281.5,-574"/>
<text text-anchor="middle" x="214" y="-562" font-family="Helvetica,sans-Serif" font-size="10.00">RcvInstantMeetingSettings</text>
</a>
</g>
</g>
<!-- Node0&#45;&gt;Node10 -->
<g id="edge9" class="edge">
<title>Node0&#45;&gt;Node10</title>
<path fill="none" stroke="#63b8ff" d="M63.64,-454.07C77.64,-479.11 105.26,-522.05 141,-545.5 146.62,-549.19 152.93,-552.16 159.41,-554.56"/>
<polygon fill="#63b8ff" stroke="#63b8ff" points="66.89,-452.71 59.06,-445.58 60.73,-456.04 66.89,-452.71"/>
</g>
<!-- Node11 -->
<g id="node11" class="node">
<title>Node11</title>
<g id="a_node11"><a xlink:href="interface_rcv_meeting_bridge_info.html" target="_top" xlink:title=" ">
<polygon fill="white" stroke="#666666" points="270.5,-537 157.5,-537 157.5,-518 270.5,-518 270.5,-537"/>
<text text-anchor="middle" x="214" y="-525" font-family="Helvetica,sans-Serif" font-size="10.00">RcvMeetingBridgeInfo</text>
</a>
</g>
</g>
<!-- Node0&#45;&gt;Node11 -->
<g id="edge10" class="edge">
<title>Node0&#45;&gt;Node11</title>
<path fill="none" stroke="#63b8ff" d="M70.04,-452.5C86.48,-469.34 113.2,-494.03 141,-508.5 147.99,-512.14 155.74,-515.13 163.49,-517.56"/>
<polygon fill="#63b8ff" stroke="#63b8ff" points="72.9,-450.42 63.47,-445.59 67.83,-455.25 72.9,-450.42"/>
</g>
<!-- Node12 -->
<g id="node12" class="node">
<title>Node12</title>
<g id="a_node12"><a xlink:href="interface_rcv_meeting_chat_controller.html" target="_top" xlink:title=" ">
<polygon fill="white" stroke="#666666" points="280,-500 148,-500 148,-481 280,-481 280,-500"/>
<text text-anchor="middle" x="214" y="-488" font-family="Helvetica,sans-Serif" font-size="10.00">RcvMeetingChatController</text>
</a>
</g>
</g>
<!-- Node0&#45;&gt;Node12 -->
<g id="edge11" class="edge">
<title>Node0&#45;&gt;Node12</title>
<path fill="none" stroke="#63b8ff" d="M84.91,-449.06C101.39,-456.37 122.05,-465.03 141,-471.5 150.67,-474.8 161.22,-477.87 171.2,-480.54"/>
<polygon fill="#63b8ff" stroke="#63b8ff" points="86.68,-446.02 76.13,-445.11 83.81,-452.4 86.68,-446.02"/>
</g>
<!-- Node13 -->
<g id="node13" class="node">
<title>Node13</title>
<g id="a_node13"><a xlink:href="interface_rcv_meeting_chat_message.html" target="_top" xlink:title=" ">
<polygon fill="white" stroke="#666666" points="279,-463 149,-463 149,-444 279,-444 279,-463"/>
<text text-anchor="middle" x="214" y="-451" font-family="Helvetica,sans-Serif" font-size="10.00">RcvMeetingChatMessage</text>
</a>
</g>
</g>
<!-- Node0&#45;&gt;Node13 -->
<g id="edge12" class="edge">
<title>Node0&#45;&gt;Node13</title>
<path fill="none" stroke="#63b8ff" d="M93.39,-439.25C110.1,-441.24 129.94,-443.61 148.62,-445.83"/>
<polygon fill="#63b8ff" stroke="#63b8ff" points="94.23,-435.83 83.89,-438.12 93.4,-442.78 94.23,-435.83"/>
</g>
<!-- Node14 -->
<g id="node14" class="node">
<title>Node14</title>
<g id="a_node14"><a xlink:href="interface_rcv_meeting_context_controller.html" target="_top" xlink:title=" ">
<polygon fill="white" stroke="#666666" points="287,-426 141,-426 141,-407 287,-407 287,-426"/>
<text text-anchor="middle" x="214" y="-414" font-family="Helvetica,sans-Serif" font-size="10.00">RcvMeetingContextController</text>
</a>
</g>
</g>
<!-- Node0&#45;&gt;Node14 -->
<g id="edge13" class="edge">
<title>Node0&#45;&gt;Node14</title>
<path fill="none" stroke="#63b8ff" d="M93.75,-429.96C107.98,-428.35 124.45,-426.49 140.53,-424.68"/>
<polygon fill="#63b8ff" stroke="#63b8ff" points="93.43,-426.47 83.89,-431.07 94.22,-433.43 93.43,-426.47"/>
</g>
<!-- Node15 -->
<g id="node15" class="node">
<title>Node15</title>
<g id="a_node15"><a xlink:href="interface_rcv_meeting_controller.html" target="_top" xlink:title=" ">
<polygon fill="white" stroke="#666666" points="269.5,-389 158.5,-389 158.5,-370 269.5,-370 269.5,-389"/>
<text text-anchor="middle" x="214" y="-377" font-family="Helvetica,sans-Serif" font-size="10.00">RcvMeetingController</text>
</a>
</g>
</g>
<!-- Node0&#45;&gt;Node15 -->
<g id="edge14" class="edge">
<title>Node0&#45;&gt;Node15</title>
<path fill="none" stroke="#63b8ff" d="M84.55,-419.98C101.07,-412.61 121.88,-403.89 141,-397.5 149.8,-394.56 159.34,-391.85 168.52,-389.47"/>
<polygon fill="#63b8ff" stroke="#63b8ff" points="83.41,-416.66 75.74,-423.97 86.3,-423.03 83.41,-416.66"/>
</g>
<!-- Node16 -->
<g id="node16" class="node">
<title>Node16</title>
<g id="a_node16"><a xlink:href="interface_rcv_meeting_options.html" target="_top" xlink:title=" ">
<polygon fill="white" stroke="#666666" points="265.5,-352 162.5,-352 162.5,-333 265.5,-333 265.5,-352"/>
<text text-anchor="middle" x="214" y="-340" font-family="Helvetica,sans-Serif" font-size="10.00">RcvMeetingOptions</text>
</a>
</g>
</g>
<!-- Node0&#45;&gt;Node16 -->
<g id="edge15" class="edge">
<title>Node0&#45;&gt;Node16</title>
<path fill="none" stroke="#63b8ff" d="M69.73,-416.7C86.12,-399.79 112.95,-374.87 141,-360.5 147.65,-357.09 154.98,-354.3 162.35,-352.03"/>
<polygon fill="#63b8ff" stroke="#63b8ff" points="67.52,-413.94 63.2,-423.61 72.61,-418.74 67.52,-413.94"/>
</g>
<!-- Node17 -->
<g id="node17" class="node">
<title>Node17</title>
<g id="a_node17"><a xlink:href="interface_rcv_meeting_user_controller.html" target="_top" xlink:title=" ">
<polygon fill="white" stroke="#666666" points="280,-315 148,-315 148,-296 280,-296 280,-315"/>
<text text-anchor="middle" x="214" y="-303" font-family="Helvetica,sans-Serif" font-size="10.00">RcvMeetingUserController</text>
</a>
</g>
</g>
<!-- Node0&#45;&gt;Node17 -->
<g id="edge16" class="edge">
<title>Node0&#45;&gt;Node17</title>
<path fill="none" stroke="#63b8ff" d="M63.59,-414.86C77.54,-389.74 105.1,-346.72 141,-323.5 145.98,-320.28 151.49,-317.64 157.19,-315.47"/>
<polygon fill="#63b8ff" stroke="#63b8ff" points="60.67,-412.91 59.03,-423.38 66.84,-416.22 60.67,-412.91"/>
</g>
<!-- Node18 -->
<g id="node18" class="node">
<title>Node18</title>
<g id="a_node18"><a xlink:href="interface_rcv_oauth_options.html" target="_top" xlink:title=" ">
<polygon fill="white" stroke="#666666" points="261.5,-278 166.5,-278 166.5,-259 261.5,-259 261.5,-278"/>
<text text-anchor="middle" x="214" y="-266" font-family="Helvetica,sans-Serif" font-size="10.00">RcvOauthOptions</text>
</a>
</g>
</g>
<!-- Node0&#45;&gt;Node18 -->
<g id="edge17" class="edge">
<title>Node0&#45;&gt;Node18</title>
<path fill="none" stroke="#63b8ff" d="M59.85,-413.99C70.91,-381.72 96.87,-319.42 141,-286.5 148.33,-281.03 157.14,-277.21 166.03,-274.54"/>
<polygon fill="#63b8ff" stroke="#63b8ff" points="56.58,-412.73 56.8,-423.32 63.23,-414.9 56.58,-412.73"/>
</g>
<!-- Node19 -->
<g id="node19" class="node">
<title>Node19</title>
<g id="a_node19"><a xlink:href="interface_rcv_personal_meeting_settings.html" target="_top" xlink:title=" ">
<polygon fill="white" stroke="#666666" points="285.5,-241 142.5,-241 142.5,-222 285.5,-222 285.5,-241"/>
<text text-anchor="middle" x="214" y="-229" font-family="Helvetica,sans-Serif" font-size="10.00">RcvPersonalMeetingSettings</text>
</a>
</g>
</g>
<!-- Node0&#45;&gt;Node19 -->
<g id="edge18" class="edge">
<title>Node0&#45;&gt;Node19</title>
<path fill="none" stroke="#63b8ff" d="M57.31,-413.58C65.46,-375.01 88.32,-292.71 141,-249.5 144.98,-246.23 149.48,-243.54 154.23,-241.34"/>
<polygon fill="#63b8ff" stroke="#63b8ff" points="53.92,-412.68 55.42,-423.17 60.79,-414.04 53.92,-412.68"/>
</g>
<!-- Node20 -->
<g id="node20" class="node">
<title>Node20</title>
<g id="a_node20"><a xlink:href="interface_rcv_recording_controller.html" target="_top" xlink:title=" ">
<polygon fill="white" stroke="#666666" points="274.5,-204 153.5,-204 153.5,-185 274.5,-185 274.5,-204"/>
<text text-anchor="middle" x="214" y="-192" font-family="Helvetica,sans-Serif" font-size="10.00">RcvRecordingController</text>
</a>
</g>
</g>
<!-- Node0&#45;&gt;Node20 -->
<g id="edge19" class="edge">
<title>Node0&#45;&gt;Node20</title>
<path fill="none" stroke="#63b8ff" d="M55.48,-413.48C60.81,-369.3 79.5,-266.46 141,-212.5 144.68,-209.27 148.85,-206.6 153.3,-204.4"/>
<polygon fill="#63b8ff" stroke="#63b8ff" points="52.02,-412.92 54.43,-423.24 58.98,-413.67 52.02,-412.92"/>
</g>
<!-- Node21 -->
<g id="node21" class="node">
<title>Node21</title>
<g id="a_node21"><a xlink:href="interface_rcv_schedule_meeting_settings.html" target="_top" xlink:title=" ">
<polygon fill="white" stroke="#666666" points="287,-167 141,-167 141,-148 287,-148 287,-167"/>
<text text-anchor="middle" x="214" y="-155" font-family="Helvetica,sans-Serif" font-size="10.00">RcvScheduleMeetingSettings</text>
</a>
</g>
</g>
<!-- Node0&#45;&gt;Node21 -->
<g id="edge20" class="edge">
<title>Node0&#45;&gt;Node21</title>
<path fill="none" stroke="#63b8ff" d="M54.15,-413.09C56.86,-363.56 70.7,-240.34 141,-175.5 144.5,-172.27 148.5,-169.59 152.77,-167.38"/>
<polygon fill="#63b8ff" stroke="#63b8ff" points="50.66,-412.86 53.72,-423 57.65,-413.16 50.66,-412.86"/>
</g>
<!-- Node22 -->
<g id="node22" class="node">
<title>Node22</title>
<g id="a_node22"><a xlink:href="interface_rcv_screen_share_service.html" target="_top" xlink:title=" ">
<polygon fill="white" stroke="#666666" points="276,-130 152,-130 152,-111 276,-111 276,-130"/>
<text text-anchor="middle" x="214" y="-118" font-family="Helvetica,sans-Serif" font-size="10.00">RcvScreenShareService</text>
</a>
</g>
</g>
<!-- Node0&#45;&gt;Node22 -->
<g id="edge21" class="edge">
<title>Node0&#45;&gt;Node22</title>
<path fill="none" stroke="#63b8ff" d="M53.09,-413.4C53.25,-359.33 61.49,-214.71 141,-138.5 144.35,-135.29 148.18,-132.63 152.29,-130.42"/>
<polygon fill="#63b8ff" stroke="#63b8ff" points="49.59,-413.09 53.16,-423.07 56.59,-413.04 49.59,-413.09"/>
</g>
<!-- Node23 -->
<g id="node23" class="node">
<title>Node23</title>
<g id="a_node23"><a xlink:href="interface_rcv_sharing_controller.html" target="_top" xlink:title=" ">
<polygon fill="white" stroke="#666666" points="269,-93 159,-93 159,-74 269,-74 269,-93"/>
<text text-anchor="middle" x="214" y="-81" font-family="Helvetica,sans-Serif" font-size="10.00">RcvSharingController</text>
</a>
</g>
</g>
<!-- Node0&#45;&gt;Node23 -->
<g id="edge22" class="edge">
<title>Node0&#45;&gt;Node23</title>
<path fill="none" stroke="#63b8ff" d="M56.21,-413.52C65.13,-347.59 95.66,-146.3 141,-101.5 145.95,-96.61 152.01,-92.98 158.5,-90.3"/>
<polygon fill="#63b8ff" stroke="#63b8ff" points="52.75,-412.94 54.91,-423.31 59.69,-413.86 52.75,-412.94"/>
</g>
<!-- Node24 -->
<g id="node24" class="node">
<title>Node24</title>
<g id="a_node24"><a xlink:href="interface_rcv_video_controller.html" target="_top" xlink:title=" ">
<polygon fill="white" stroke="#666666" points="264.5,-56 163.5,-56 163.5,-37 264.5,-37 264.5,-56"/>
<text text-anchor="middle" x="214" y="-44" font-family="Helvetica,sans-Serif" font-size="10.00">RcvVideoController</text>
</a>
</g>
</g>
<!-- Node0&#45;&gt;Node24 -->
<g id="edge23" class="edge">
<title>Node0&#45;&gt;Node24</title>
<path fill="none" stroke="#63b8ff" d="M55.62,-413.53C63.16,-342.88 91.01,-115.13 141,-64.5 147.07,-58.36 154.89,-54.2 163.13,-51.4"/>
<polygon fill="#63b8ff" stroke="#63b8ff" points="52.15,-413 54.6,-423.31 59.11,-413.73 52.15,-413"/>
</g>
<!-- Node25 -->
<g id="node25" class="node">
<title>Node25</title>
<g id="a_node25"><a xlink:href="interface_rcv_video_device_manager.html" target="_top" xlink:title=" ">
<polygon fill="white" stroke="#666666" points="278,-19 150,-19 150,0 278,0 278,-19"/>
<text text-anchor="middle" x="214" y="-7" font-family="Helvetica,sans-Serif" font-size="10.00">RcvVideoDeviceManager</text>
</a>
</g>
</g>
<!-- Node0&#45;&gt;Node25 -->
<g id="edge24" class="edge">
<title>Node0&#45;&gt;Node25</title>
<path fill="none" stroke="#63b8ff" d="M55.14,-413.41C61.42,-338.1 86.37,-83.97 141,-27.5 144.14,-24.26 147.76,-21.57 151.68,-19.34"/>
<polygon fill="#63b8ff" stroke="#63b8ff" points="51.67,-412.85 54.36,-423.1 58.65,-413.41 51.67,-412.85"/>
</g>
<!-- Node2 -->
<g id="node26" class="node">
<title>Node2</title>
<g id="a_node26"><a xlink:href="protocol_rcv_video_canvas-p.html" target="_top" xlink:title=" ">
<polygon fill="white" stroke="#666666" points="105,-870 0,-870 0,-851 105,-851 105,-870"/>
<text text-anchor="middle" x="52.5" y="-858" font-family="Helvetica,sans-Serif" font-size="10.00">&lt;RcvVideoCanvas&gt;</text>
</a>
</g>
</g>
<!-- Node2&#45;&gt;Node1 -->
<g id="edge25" class="edge">
<title>Node2&#45;&gt;Node1</title>
<path fill="none" stroke="#63b8ff" d="M116.55,-860.5C134,-860.5 152.57,-860.5 168.7,-860.5"/>
<polygon fill="#63b8ff" stroke="#63b8ff" points="116.8,-857 106.8,-860.5 116.8,-864 116.8,-857"/>
</g>
</g>
</svg>
