<?xml version="1.0" encoding="UTF-8" standalone="no"?>
<!DOCTYPE svg PUBLIC "-//W3C//DTD SVG 1.1//EN"
 "http://www.w3.org/Graphics/SVG/1.1/DTD/svg11.dtd">
<!-- Generated by graphviz version 8.0.1 (20230327.1645)
 -->
<!-- Title: Graphical Class Hierarchy Pages: 1 -->
<svg width="305pt" height="1026pt"
 viewBox="0.00 0.00 305.00 1026.00" xmlns="http://www.w3.org/2000/svg" xmlns:xlink="http://www.w3.org/1999/xlink">
<g id="graph0" class="graph" transform="scale(1 1) rotate(0) translate(4 1022)">
<title>Graphical Class Hierarchy</title>
<!-- Node0 -->
<g id="node1" class="node">
<title>Node0</title>
<g id="a_node1"><a xlink:title=" ">
<polygon fill="#e0e0e0" stroke="#999999" points="82,-518 23,-518 23,-499 82,-499 82,-518"/>
<text text-anchor="middle" x="52.5" y="-506" font-family="Helvetica,sans-Serif" font-size="10.00">NSObject</text>
</a>
</g>
</g>
<!-- Node1 -->
<g id="node2" class="node">
<title>Node1</title>
<g id="a_node2"><a xlink:href="interface_r_c_video_canvas.html" target="_top" xlink:title=" ">
<polygon fill="white" stroke="#666666" points="264,-1018 174,-1018 174,-999 264,-999 264,-1018"/>
<text text-anchor="middle" x="219" y="-1006" font-family="Helvetica,sans-Serif" font-size="10.00">RCVideoCanvas</text>
</a>
</g>
</g>
<!-- Node0&#45;&gt;Node1 -->
<g id="edge1" class="edge">
<title>Node0&#45;&gt;Node1</title>
<path fill="none" stroke="#63b8ff" d="M54.32,-529.08C58.06,-612.25 76.19,-922.36 141,-990.5 149.52,-999.45 161.56,-1004.34 173.6,-1006.9"/>
<polygon fill="#63b8ff" stroke="#63b8ff" points="57.78,-528.97 53.85,-519.13 50.78,-529.27 57.78,-528.97"/>
</g>
<!-- Node3 -->
<g id="node3" class="node">
<title>Node3</title>
<g id="a_node3"><a xlink:href="interface_rcv_annotation_view.html" target="_top" xlink:title=" ">
<polygon fill="white" stroke="#666666" points="270.5,-981 167.5,-981 167.5,-962 270.5,-962 270.5,-981"/>
<text text-anchor="middle" x="219" y="-969" font-family="Helvetica,sans-Serif" font-size="10.00">RcvAnnotationView</text>
</a>
</g>
</g>
<!-- Node0&#45;&gt;Node3 -->
<g id="edge2" class="edge">
<title>Node0&#45;&gt;Node3</title>
<path fill="none" stroke="#63b8ff" d="M54.72,-529.45C59.75,-608.88 81.55,-890.17 141,-952.5 148.03,-959.87 157.43,-964.57 167.25,-967.52"/>
<polygon fill="#63b8ff" stroke="#63b8ff" points="58.15,-529.27 54.05,-519.5 51.16,-529.69 58.15,-529.27"/>
</g>
<!-- Node4 -->
<g id="node4" class="node">
<title>Node4</title>
<g id="a_node4"><a xlink:href="interface_rcv_audio_controller.html" target="_top" xlink:title=" ">
<polygon fill="white" stroke="#666666" points="269.5,-944 168.5,-944 168.5,-925 269.5,-925 269.5,-944"/>
<text text-anchor="middle" x="219" y="-932" font-family="Helvetica,sans-Serif" font-size="10.00">RcvAudioController</text>
</a>
</g>
</g>
<!-- Node0&#45;&gt;Node4 -->
<g id="edge3" class="edge">
<title>Node0&#45;&gt;Node4</title>
<path fill="none" stroke="#63b8ff" d="M55.1,-529.14C61.29,-603.88 86.17,-858.99 141,-915.5 148.29,-923.01 158.03,-927.74 168.14,-930.67"/>
<polygon fill="#63b8ff" stroke="#63b8ff" points="58.52,-529.08 54.23,-519.4 51.55,-529.64 58.52,-529.08"/>
</g>
<!-- Node5 -->
<g id="node5" class="node">
<title>Node5</title>
<g id="a_node5"><a xlink:href="interface_rcv_audio_device_manager.html" target="_top" xlink:title=" ">
<polygon fill="white" stroke="#666666" points="283,-907 155,-907 155,-888 283,-888 283,-907"/>
<text text-anchor="middle" x="219" y="-895" font-family="Helvetica,sans-Serif" font-size="10.00">RcvAudioDeviceManager</text>
</a>
</g>
</g>
<!-- Node0&#45;&gt;Node5 -->
<g id="edge4" class="edge">
<title>Node0&#45;&gt;Node5</title>
<path fill="none" stroke="#63b8ff" d="M55.56,-529.04C63.02,-599.2 90.83,-827.84 141,-878.5 144.97,-882.51 149.65,-885.72 154.7,-888.29"/>
<polygon fill="#63b8ff" stroke="#63b8ff" points="58.95,-528.77 54.44,-519.19 51.99,-529.49 58.95,-528.77"/>
</g>
<!-- Node6 -->
<g id="node6" class="node">
<title>Node6</title>
<g id="a_node6"><a xlink:href="interface_rcv_closed_captions_controller.html" target="_top" xlink:title=" ">
<polygon fill="white" stroke="#666666" points="292,-870 146,-870 146,-851 292,-851 292,-870"/>
<text text-anchor="middle" x="219" y="-858" font-family="Helvetica,sans-Serif" font-size="10.00">RcvClosedCaptionsController</text>
</a>
</g>
</g>
<!-- Node0&#45;&gt;Node6 -->
<g id="edge5" class="edge">
<title>Node0&#45;&gt;Node6</title>
<path fill="none" stroke="#63b8ff" d="M56.15,-529.08C64.98,-594.59 95.49,-796.67 141,-841.5 144.73,-845.17 149.04,-848.17 153.7,-850.62"/>
<polygon fill="#63b8ff" stroke="#63b8ff" points="59.49,-528.64 54.71,-519.19 52.55,-529.56 59.49,-528.64"/>
</g>
<!-- Node7 -->
<g id="node7" class="node">
<title>Node7</title>
<g id="a_node7"><a xlink:href="interface_rcv_closed_captions_data.html" target="_top" xlink:title=" ">
<polygon fill="white" stroke="#666666" points="281.5,-833 156.5,-833 156.5,-814 281.5,-814 281.5,-833"/>
<text text-anchor="middle" x="219" y="-821" font-family="Helvetica,sans-Serif" font-size="10.00">RcvClosedCaptionsData</text>
</a>
</g>
</g>
<!-- Node0&#45;&gt;Node7 -->
<g id="edge6" class="edge">
<title>Node0&#45;&gt;Node7</title>
<path fill="none" stroke="#63b8ff" d="M53.08,-529.27C53.17,-583.1 61.2,-728.25 141,-804.5 145.38,-808.69 150.53,-811.99 156.05,-814.6"/>
<polygon fill="#63b8ff" stroke="#63b8ff" points="56.58,-529.46 53.17,-519.43 49.58,-529.4 56.58,-529.46"/>
</g>
<!-- Node8 -->
<g id="node8" class="node">
<title>Node8</title>
<g id="a_node8"><a xlink:href="interface_rcv_engine.html" target="_top" xlink:title=" ">
<polygon fill="white" stroke="#666666" points="251.5,-796 186.5,-796 186.5,-777 251.5,-777 251.5,-796"/>
<text text-anchor="middle" x="219" y="-784" font-family="Helvetica,sans-Serif" font-size="10.00">RcvEngine</text>
</a>
</g>
</g>
<!-- Node0&#45;&gt;Node8 -->
<g id="edge7" class="edge">
<title>Node0&#45;&gt;Node8</title>
<path fill="none" stroke="#63b8ff" d="M54.1,-529.29C56.7,-578.43 70.3,-702.5 141,-767.5 153.16,-778.68 170.84,-783.56 186.19,-785.58"/>
<polygon fill="#63b8ff" stroke="#63b8ff" points="57.57,-529.34 53.65,-519.49 50.57,-529.63 57.57,-529.34"/>
</g>
<!-- Node9 -->
<g id="node9" class="node">
<title>Node9</title>
<g id="a_node9"><a xlink:href="interface_rcv_i_participant.html" target="_top" xlink:title=" ">
<polygon fill="white" stroke="#666666" points="261,-759 177,-759 177,-740 261,-740 261,-759"/>
<text text-anchor="middle" x="219" y="-747" font-family="Helvetica,sans-Serif" font-size="10.00">RcvIParticipant</text>
</a>
</g>
</g>
<!-- Node0&#45;&gt;Node9 -->
<g id="edge8" class="edge">
<title>Node0&#45;&gt;Node9</title>
<path fill="none" stroke="#63b8ff" d="M55.4,-528.97C60.61,-572.86 79.15,-676.4 141,-730.5 150.85,-739.11 163.99,-743.95 176.62,-746.63"/>
<polygon fill="#63b8ff" stroke="#63b8ff" points="58.8,-528.84 54.26,-519.27 51.84,-529.58 58.8,-528.84"/>
</g>
<!-- Node10 -->
<g id="node10" class="node">
<title>Node10</title>
<g id="a_node10"><a xlink:href="interface_rcv_instant_meeting_settings.html" target="_top" xlink:title=" ">
<polygon fill="white" stroke="#666666" points="286.5,-722 151.5,-722 151.5,-703 286.5,-703 286.5,-722"/>
<text text-anchor="middle" x="219" y="-710" font-family="Helvetica,sans-Serif" font-size="10.00">RcvInstantMeetingSettings</text>
</a>
</g>
</g>
<!-- Node0&#45;&gt;Node10 -->
<g id="edge9" class="edge">
<title>Node0&#45;&gt;Node10</title>
<path fill="none" stroke="#63b8ff" d="M57.19,-528.94C65.23,-567.32 88.02,-650.18 141,-693.5 145.48,-697.16 150.56,-700.13 155.92,-702.54"/>
<polygon fill="#63b8ff" stroke="#63b8ff" points="60.48,-528.49 55.12,-519.35 53.61,-529.84 60.48,-528.49"/>
</g>
<!-- Node11 -->
<g id="node11" class="node">
<title>Node11</title>
<g id="a_node11"><a xlink:href="interface_rcv_live_transcription_data.html" target="_top" xlink:title=" ">
<polygon fill="white" stroke="#666666" points="284,-685 154,-685 154,-666 284,-666 284,-685"/>
<text text-anchor="middle" x="219" y="-673" font-family="Helvetica,sans-Serif" font-size="10.00">RcvLiveTranscriptionData</text>
</a>
</g>
</g>
<!-- Node0&#45;&gt;Node11 -->
<g id="edge10" class="edge">
<title>Node0&#45;&gt;Node11</title>
<path fill="none" stroke="#63b8ff" d="M59.69,-528.6C70.65,-560.76 96.63,-623.5 141,-656.5 145.97,-660.2 151.58,-663.18 157.43,-665.59"/>
<polygon fill="#63b8ff" stroke="#63b8ff" points="62.74,-527.68 56.32,-519.25 56.09,-529.84 62.74,-527.68"/>
</g>
<!-- Node12 -->
<g id="node12" class="node">
<title>Node12</title>
<g id="a_node12"><a xlink:href="interface_rcv_live_transcription_phrase_id.html" target="_top" xlink:title=" ">
<polygon fill="white" stroke="#666666" points="293,-648 145,-648 145,-629 293,-629 293,-648"/>
<text text-anchor="middle" x="219" y="-636" font-family="Helvetica,sans-Serif" font-size="10.00">RcvLiveTranscriptionPhraseId</text>
</a>
</g>
</g>
<!-- Node0&#45;&gt;Node12 -->
<g id="edge11" class="edge">
<title>Node0&#45;&gt;Node12</title>
<path fill="none" stroke="#63b8ff" d="M63.4,-527.82C77.27,-552.91 104.91,-596.23 141,-619.5 146.79,-623.23 153.25,-626.23 159.91,-628.64"/>
<polygon fill="#63b8ff" stroke="#63b8ff" points="66.11,-526.46 58.31,-519.29 59.93,-529.76 66.11,-526.46"/>
</g>
<!-- Node13 -->
<g id="node13" class="node">
<title>Node13</title>
<g id="a_node13"><a xlink:href="interface_rcv_live_transcription_setting.html" target="_top" xlink:title=" ">
<polygon fill="white" stroke="#666666" points="289,-611 149,-611 149,-592 289,-592 289,-611"/>
<text text-anchor="middle" x="219" y="-599" font-family="Helvetica,sans-Serif" font-size="10.00">RcvLiveTranscriptionSetting</text>
</a>
</g>
</g>
<!-- Node0&#45;&gt;Node13 -->
<g id="edge12" class="edge">
<title>Node0&#45;&gt;Node13</title>
<path fill="none" stroke="#63b8ff" d="M69.27,-525.86C85.61,-542.79 112.68,-568.04 141,-582.5 148.24,-586.19 156.23,-589.19 164.24,-591.62"/>
<polygon fill="#63b8ff" stroke="#63b8ff" points="72.56,-524.18 63.16,-519.3 67.46,-528.98 72.56,-524.18"/>
</g>
<!-- Node14 -->
<g id="node14" class="node">
<title>Node14</title>
<g id="a_node14"><a xlink:href="interface_rcv_live_transcriptions_controller.html" target="_top" xlink:title=" ">
<polygon fill="white" stroke="#666666" points="297,-574 141,-574 141,-555 297,-555 297,-574"/>
<text text-anchor="middle" x="219" y="-562" font-family="Helvetica,sans-Serif" font-size="10.00">RcvLiveTranscriptionsController</text>
</a>
</g>
</g>
<!-- Node0&#45;&gt;Node14 -->
<g id="edge13" class="edge">
<title>Node0&#45;&gt;Node14</title>
<path fill="none" stroke="#63b8ff" d="M84.07,-522.83C100.66,-530.25 121.69,-539.08 141,-545.5 151.06,-548.85 162.04,-551.9 172.46,-554.53"/>
<polygon fill="#63b8ff" stroke="#63b8ff" points="85.91,-519.37 75.36,-518.42 83.02,-525.74 85.91,-519.37"/>
</g>
<!-- Node15 -->
<g id="node15" class="node">
<title>Node15</title>
<g id="a_node15"><a xlink:href="interface_rcv_meeting_bridge_info.html" target="_top" xlink:title=" ">
<polygon fill="white" stroke="#666666" points="275.5,-537 162.5,-537 162.5,-518 275.5,-518 275.5,-537"/>
<text text-anchor="middle" x="219" y="-525" font-family="Helvetica,sans-Serif" font-size="10.00">RcvMeetingBridgeInfo</text>
</a>
</g>
</g>
<!-- Node0&#45;&gt;Node15 -->
<g id="edge14" class="edge">
<title>Node0&#45;&gt;Node15</title>
<path fill="none" stroke="#63b8ff" d="M93.08,-513.07C113.76,-515.46 139.41,-518.42 162.09,-521.04"/>
<polygon fill="#63b8ff" stroke="#63b8ff" points="93.49,-509.48 83.15,-511.81 92.69,-516.43 93.49,-509.48"/>
</g>
<!-- Node16 -->
<g id="node16" class="node">
<title>Node16</title>
<g id="a_node16"><a xlink:href="interface_rcv_meeting_chat_controller.html" target="_top" xlink:title=" ">
<polygon fill="white" stroke="#666666" points="285,-500 153,-500 153,-481 285,-481 285,-500"/>
<text text-anchor="middle" x="219" y="-488" font-family="Helvetica,sans-Serif" font-size="10.00">RcvMeetingChatController</text>
</a>
</g>
</g>
<!-- Node0&#45;&gt;Node16 -->
<g id="edge15" class="edge">
<title>Node0&#45;&gt;Node16</title>
<path fill="none" stroke="#63b8ff" d="M93.06,-504.17C110.97,-502.21 132.62,-499.84 152.84,-497.63"/>
<polygon fill="#63b8ff" stroke="#63b8ff" points="92.71,-500.8 83.15,-505.36 93.48,-507.76 92.71,-500.8"/>
</g>
<!-- Node17 -->
<g id="node17" class="node">
<title>Node17</title>
<g id="a_node17"><a xlink:href="interface_rcv_meeting_chat_message.html" target="_top" xlink:title=" ">
<polygon fill="white" stroke="#666666" points="284,-463 154,-463 154,-444 284,-444 284,-463"/>
<text text-anchor="middle" x="219" y="-451" font-family="Helvetica,sans-Serif" font-size="10.00">RcvMeetingChatMessage</text>
</a>
</g>
</g>
<!-- Node0&#45;&gt;Node17 -->
<g id="edge16" class="edge">
<title>Node0&#45;&gt;Node17</title>
<path fill="none" stroke="#63b8ff" d="M84.04,-494.07C100.62,-486.62 121.65,-477.8 141,-471.5 150.14,-468.52 160.04,-465.83 169.59,-463.49"/>
<polygon fill="#63b8ff" stroke="#63b8ff" points="82.98,-491.17 75.33,-498.5 85.88,-497.53 82.98,-491.17"/>
</g>
<!-- Node18 -->
<g id="node18" class="node">
<title>Node18</title>
<g id="a_node18"><a xlink:href="interface_rcv_meeting_context_controller.html" target="_top" xlink:title=" ">
<polygon fill="white" stroke="#666666" points="292,-426 146,-426 146,-407 292,-407 292,-426"/>
<text text-anchor="middle" x="219" y="-414" font-family="Helvetica,sans-Serif" font-size="10.00">RcvMeetingContextController</text>
</a>
</g>
</g>
<!-- Node0&#45;&gt;Node18 -->
<g id="edge17" class="edge">
<title>Node0&#45;&gt;Node18</title>
<path fill="none" stroke="#63b8ff" d="M69.23,-491.07C85.54,-474.08 112.59,-448.78 141,-434.5 147.38,-431.29 154.34,-428.65 161.39,-426.47"/>
<polygon fill="#63b8ff" stroke="#63b8ff" points="67.41,-487.96 63.13,-497.66 72.52,-492.75 67.41,-487.96"/>
</g>
<!-- Node19 -->
<g id="node19" class="node">
<title>Node19</title>
<g id="a_node19"><a xlink:href="interface_rcv_meeting_controller.html" target="_top" xlink:title=" ">
<polygon fill="white" stroke="#666666" points="274.5,-389 163.5,-389 163.5,-370 274.5,-370 274.5,-389"/>
<text text-anchor="middle" x="219" y="-377" font-family="Helvetica,sans-Serif" font-size="10.00">RcvMeetingController</text>
</a>
</g>
</g>
<!-- Node0&#45;&gt;Node19 -->
<g id="edge18" class="edge">
<title>Node0&#45;&gt;Node19</title>
<path fill="none" stroke="#63b8ff" d="M63.35,-489.12C77.18,-463.95 104.76,-420.54 141,-397.5 147.72,-393.23 155.35,-389.97 163.12,-387.48"/>
<polygon fill="#63b8ff" stroke="#63b8ff" points="59.88,-487.2 58.28,-497.67 66.06,-490.48 59.88,-487.2"/>
</g>
<!-- Node20 -->
<g id="node20" class="node">
<title>Node20</title>
<g id="a_node20"><a xlink:href="interface_rcv_meeting_options.html" target="_top" xlink:title=" ">
<polygon fill="white" stroke="#666666" points="270.5,-352 167.5,-352 167.5,-333 270.5,-333 270.5,-352"/>
<text text-anchor="middle" x="219" y="-340" font-family="Helvetica,sans-Serif" font-size="10.00">RcvMeetingOptions</text>
</a>
</g>
</g>
<!-- Node0&#45;&gt;Node20 -->
<g id="edge19" class="edge">
<title>Node0&#45;&gt;Node20</title>
<path fill="none" stroke="#63b8ff" d="M59.64,-488.33C70.54,-456.09 96.43,-393.22 141,-360.5 148.75,-354.81 158.01,-350.89 167.39,-348.19"/>
<polygon fill="#63b8ff" stroke="#63b8ff" points="56.03,-487.13 56.3,-497.72 62.69,-489.27 56.03,-487.13"/>
</g>
<!-- Node21 -->
<g id="node21" class="node">
<title>Node21</title>
<g id="a_node21"><a xlink:href="interface_rcv_meeting_user_controller.html" target="_top" xlink:title=" ">
<polygon fill="white" stroke="#666666" points="285,-315 153,-315 153,-296 285,-296 285,-315"/>
<text text-anchor="middle" x="219" y="-303" font-family="Helvetica,sans-Serif" font-size="10.00">RcvMeetingUserController</text>
</a>
</g>
</g>
<!-- Node0&#45;&gt;Node21 -->
<g id="edge20" class="edge">
<title>Node0&#45;&gt;Node21</title>
<path fill="none" stroke="#63b8ff" d="M57.14,-488C65.1,-449.52 87.76,-366.5 141,-323.5 144.95,-320.31 149.37,-317.66 154.04,-315.47"/>
<polygon fill="#63b8ff" stroke="#63b8ff" points="53.55,-487.14 55.09,-497.62 60.43,-488.46 53.55,-487.14"/>
</g>
<!-- Node22 -->
<g id="node22" class="node">
<title>Node22</title>
<g id="a_node22"><a xlink:href="interface_rcv_oauth_options.html" target="_top" xlink:title=" ">
<polygon fill="white" stroke="#666666" points="266.5,-278 171.5,-278 171.5,-259 266.5,-259 266.5,-278"/>
<text text-anchor="middle" x="219" y="-266" font-family="Helvetica,sans-Serif" font-size="10.00">RcvOauthOptions</text>
</a>
</g>
</g>
<!-- Node0&#45;&gt;Node22 -->
<g id="edge21" class="edge">
<title>Node0&#45;&gt;Node22</title>
<path fill="none" stroke="#63b8ff" d="M55.35,-487.97C60.47,-443.97 78.82,-340.22 141,-286.5 149.41,-279.23 160.21,-274.76 171.04,-272.04"/>
<polygon fill="#63b8ff" stroke="#63b8ff" points="51.79,-487.4 54.24,-497.7 58.75,-488.12 51.79,-487.4"/>
</g>
<!-- Node23 -->
<g id="node23" class="node">
<title>Node23</title>
<g id="a_node23"><a xlink:href="interface_rcv_personal_meeting_settings.html" target="_top" xlink:title=" ">
<polygon fill="white" stroke="#666666" points="290.5,-241 147.5,-241 147.5,-222 290.5,-222 290.5,-241"/>
<text text-anchor="middle" x="219" y="-229" font-family="Helvetica,sans-Serif" font-size="10.00">RcvPersonalMeetingSettings</text>
</a>
</g>
</g>
<!-- Node0&#45;&gt;Node23 -->
<g id="edge22" class="edge">
<title>Node0&#45;&gt;Node23</title>
<path fill="none" stroke="#63b8ff" d="M54.03,-487.99C56.47,-438.95 69.74,-314.22 141,-249.5 144.56,-246.27 148.58,-243.59 152.88,-241.36"/>
<polygon fill="#63b8ff" stroke="#63b8ff" points="50.51,-487.61 53.62,-497.74 57.5,-487.88 50.51,-487.61"/>
</g>
<!-- Node24 -->
<g id="node24" class="node">
<title>Node24</title>
<g id="a_node24"><a xlink:href="interface_rcv_recording_controller.html" target="_top" xlink:title=" ">
<polygon fill="white" stroke="#666666" points="279.5,-204 158.5,-204 158.5,-185 279.5,-185 279.5,-204"/>
<text text-anchor="middle" x="219" y="-192" font-family="Helvetica,sans-Serif" font-size="10.00">RcvRecordingController</text>
</a>
</g>
</g>
<!-- Node0&#45;&gt;Node24 -->
<g id="edge23" class="edge">
<title>Node0&#45;&gt;Node24</title>
<path fill="none" stroke="#63b8ff" d="M53.02,-487.67C52.99,-433.7 60.74,-288.25 141,-212.5 145.99,-207.79 151.97,-204.23 158.36,-201.56"/>
<polygon fill="#63b8ff" stroke="#63b8ff" points="49.53,-487.58 53.14,-497.54 56.53,-487.51 49.53,-487.58"/>
</g>
<!-- Node25 -->
<g id="node25" class="node">
<title>Node25</title>
<g id="a_node25"><a xlink:href="interface_rcv_schedule_meeting_settings.html" target="_top" xlink:title=" ">
<polygon fill="white" stroke="#666666" points="292,-167 146,-167 146,-148 292,-148 292,-167"/>
<text text-anchor="middle" x="219" y="-155" font-family="Helvetica,sans-Serif" font-size="10.00">RcvScheduleMeetingSettings</text>
</a>
</g>
</g>
<!-- Node0&#45;&gt;Node25 -->
<g id="edge24" class="edge">
<title>Node0&#45;&gt;Node25</title>
<path fill="none" stroke="#63b8ff" d="M56.12,-487.9C64.89,-422.31 95.22,-220.05 141,-175.5 144.25,-172.34 147.94,-169.7 151.9,-167.49"/>
<polygon fill="#63b8ff" stroke="#63b8ff" points="52.53,-487.43 54.7,-497.8 59.47,-488.34 52.53,-487.43"/>
</g>
<!-- Node26 -->
<g id="node26" class="node">
<title>Node26</title>
<g id="a_node26"><a xlink:href="interface_rcv_screen_share_service.html" target="_top" xlink:title=" ">
<polygon fill="white" stroke="#666666" points="281,-130 157,-130 157,-111 281,-111 281,-130"/>
<text text-anchor="middle" x="219" y="-118" font-family="Helvetica,sans-Serif" font-size="10.00">RcvScreenShareService</text>
</a>
</g>
</g>
<!-- Node0&#45;&gt;Node26 -->
<g id="edge25" class="edge">
<title>Node0&#45;&gt;Node26</title>
<path fill="none" stroke="#63b8ff" d="M55.54,-487.94C62.93,-417.7 90.52,-188.85 141,-138.5 145.47,-134.04 150.82,-130.6 156.59,-127.96"/>
<polygon fill="#63b8ff" stroke="#63b8ff" points="51.97,-487.5 54.43,-497.8 58.93,-488.21 51.97,-487.5"/>
</g>
<!-- Node27 -->
<g id="node27" class="node">
<title>Node27</title>
<g id="a_node27"><a xlink:href="interface_rcv_sharing_controller.html" target="_top" xlink:title=" ">
<polygon fill="white" stroke="#666666" points="274,-93 164,-93 164,-74 274,-74 274,-93"/>
<text text-anchor="middle" x="219" y="-81" font-family="Helvetica,sans-Serif" font-size="10.00">RcvSharingController</text>
</a>
</g>
</g>
<!-- Node0&#45;&gt;Node27 -->
<g id="edge26" class="edge">
<title>Node0&#45;&gt;Node27</title>
<path fill="none" stroke="#63b8ff" d="M55.07,-487.84C61.19,-413.02 85.83,-157.67 141,-101.5 147.25,-95.13 155.3,-90.84 163.81,-87.98"/>
<polygon fill="#63b8ff" stroke="#63b8ff" points="51.52,-487.35 54.22,-497.59 58.5,-487.9 51.52,-487.35"/>
</g>
<!-- Node28 -->
<g id="node28" class="node">
<title>Node28</title>
<g id="a_node28"><a xlink:href="interface_rcv_video_controller.html" target="_top" xlink:title=" ">
<polygon fill="white" stroke="#666666" points="269.5,-56 168.5,-56 168.5,-37 269.5,-37 269.5,-56"/>
<text text-anchor="middle" x="219" y="-44" font-family="Helvetica,sans-Serif" font-size="10.00">RcvVideoController</text>
</a>
</g>
</g>
<!-- Node0&#45;&gt;Node28 -->
<g id="edge27" class="edge">
<title>Node0&#45;&gt;Node28</title>
<path fill="none" stroke="#63b8ff" d="M54.66,-488.04C59.55,-409.23 81.04,-126.6 141,-64.5 148.25,-56.99 157.98,-52.36 168.08,-49.55"/>
<polygon fill="#63b8ff" stroke="#63b8ff" points="51.12,-487.69 54.02,-497.88 58.1,-488.1 51.12,-487.69"/>
</g>
<!-- Node29 -->
<g id="node29" class="node">
<title>Node29</title>
<g id="a_node29"><a xlink:href="interface_rcv_video_device_manager.html" target="_top" xlink:title=" ">
<polygon fill="white" stroke="#666666" points="283,-19 155,-19 155,0 283,0 283,-19"/>
<text text-anchor="middle" x="219" y="-7" font-family="Helvetica,sans-Serif" font-size="10.00">RcvVideoDeviceManager</text>
</a>
</g>
</g>
<!-- Node0&#45;&gt;Node29 -->
<g id="edge28" class="edge">
<title>Node0&#45;&gt;Node29</title>
<path fill="none" stroke="#63b8ff" d="M54.33,-487.96C58.09,-404.96 76.31,-95.49 141,-27.5 144.88,-23.42 149.49,-20.19 154.5,-17.63"/>
<polygon fill="#63b8ff" stroke="#63b8ff" points="50.79,-487.75 53.86,-497.89 57.78,-488.05 50.79,-487.75"/>
</g>
<!-- Node2 -->
<g id="node30" class="node">
<title>Node2</title>
<g id="a_node30"><a xlink:href="protocol_rcv_video_canvas-p.html" target="_top" xlink:title=" ">
<polygon fill="white" stroke="#666666" points="105,-1018 0,-1018 0,-999 105,-999 105,-1018"/>
<text text-anchor="middle" x="52.5" y="-1006" font-family="Helvetica,sans-Serif" font-size="10.00">&lt;RcvVideoCanvas&gt;</text>
</a>
</g>
</g>
<!-- Node2&#45;&gt;Node1 -->
<g id="edge29" class="edge">
<title>Node2&#45;&gt;Node1</title>
<path fill="none" stroke="#63b8ff" d="M115.88,-1008.5C135.06,-1008.5 155.79,-1008.5 173.52,-1008.5"/>
<polygon fill="#63b8ff" stroke="#63b8ff" points="116.1,-1005 106.1,-1008.5 116.1,-1012 116.1,-1005"/>
</g>
</g>
</svg>
