<?xml version="1.0" encoding="UTF-8" standalone="no"?>
<!DOCTYPE svg PUBLIC "-//W3C//DTD SVG 1.1//EN"
 "http://www.w3.org/Graphics/SVG/1.1/DTD/svg11.dtd">
<!-- Generated by graphviz version 8.0.4 (20230421.1958)
 -->
<!-- Title: Graphical Class Hierarchy Pages: 1 -->
<svg width="304pt" height="1026pt"
 viewBox="0.00 0.00 304.00 1026.25" xmlns="http://www.w3.org/2000/svg" xmlns:xlink="http://www.w3.org/1999/xlink">
<g id="graph0" class="graph" transform="scale(1 1) rotate(0) translate(4 1022.25)">
<title>Graphical Class Hierarchy</title>
<!-- Node0 -->
<g id="node1" class="node">
<title>Node0</title>
<g id="a_node1"><a xlink:title=" ">
<polygon fill="#e0e0e0" stroke="#999999" points="81.62,-518.25 22.88,-518.25 22.88,-499 81.62,-499 81.62,-518.25"/>
<text text-anchor="middle" x="52.25" y="-504.75" font-family="Helvetica,sans-Serif" font-size="10.00">NSObject</text>
</a>
</g>
</g>
<!-- Node1 -->
<g id="node2" class="node">
<title>Node1</title>
<g id="a_node2"><a xlink:href="interface_r_c_video_canvas.html" target="_top" xlink:title=" ">
<polygon fill="white" stroke="#666666" points="263,-1018.25 173.5,-1018.25 173.5,-999 263,-999 263,-1018.25"/>
<text text-anchor="middle" x="218.25" y="-1004.75" font-family="Helvetica,sans-Serif" font-size="10.00">RCVideoCanvas</text>
</a>
</g>
</g>
<!-- Node0&#45;&gt;Node1 -->
<g id="edge1" class="edge">
<title>Node0&#45;&gt;Node1</title>
<path fill="none" stroke="#63b8ff" d="M54.07,-529.48C57.8,-613.07 75.81,-922.53 140.5,-990.62 149.08,-999.65 161.26,-1004.54 173.39,-1007.08"/>
<polygon fill="#63b8ff" stroke="#63b8ff" points="57.53,-529.5 53.62,-519.65 50.54,-529.79 57.53,-529.5"/>
</g>
<!-- Node3 -->
<g id="node3" class="node">
<title>Node3</title>
<g id="a_node3"><a xlink:href="interface_rcv_annotation_view.html" target="_top" xlink:title=" ">
<polygon fill="white" stroke="#666666" points="269.38,-981.25 167.12,-981.25 167.12,-962 269.38,-962 269.38,-981.25"/>
<text text-anchor="middle" x="218.25" y="-967.75" font-family="Helvetica,sans-Serif" font-size="10.00">RcvAnnotationView</text>
</a>
</g>
</g>
<!-- Node0&#45;&gt;Node3 -->
<g id="edge2" class="edge">
<title>Node0&#45;&gt;Node3</title>
<path fill="none" stroke="#63b8ff" d="M54.39,-529.15C59.21,-608.17 80.48,-891.35 140.5,-953.62 147.53,-960.92 156.91,-965.5 166.69,-968.32"/>
<polygon fill="#63b8ff" stroke="#63b8ff" points="57.86,-529.43 53.78,-519.65 50.87,-529.84 57.86,-529.43"/>
</g>
<!-- Node4 -->
<g id="node4" class="node">
<title>Node4</title>
<g id="a_node4"><a xlink:href="interface_rcv_audio_controller.html" target="_top" xlink:title=" ">
<polygon fill="white" stroke="#666666" points="268.62,-944.25 167.88,-944.25 167.88,-925 268.62,-925 268.62,-944.25"/>
<text text-anchor="middle" x="218.25" y="-930.75" font-family="Helvetica,sans-Serif" font-size="10.00">RcvAudioController</text>
</a>
</g>
</g>
<!-- Node0&#45;&gt;Node4 -->
<g id="edge3" class="edge">
<title>Node0&#45;&gt;Node4</title>
<path fill="none" stroke="#63b8ff" d="M54.8,-529.33C60.85,-604.33 85.26,-860.28 140.5,-916.62 147.78,-924.05 157.5,-928.66 167.58,-931.46"/>
<polygon fill="#63b8ff" stroke="#63b8ff" points="58.23,-529.25 53.96,-519.56 51.25,-529.8 58.23,-529.25"/>
</g>
<!-- Node5 -->
<g id="node5" class="node">
<title>Node5</title>
<g id="a_node5"><a xlink:href="interface_rcv_audio_device_manager.html" target="_top" xlink:title=" ">
<polygon fill="white" stroke="#666666" points="281.75,-907.25 154.75,-907.25 154.75,-888 281.75,-888 281.75,-907.25"/>
<text text-anchor="middle" x="218.25" y="-893.75" font-family="Helvetica,sans-Serif" font-size="10.00">RcvAudioDeviceManager</text>
</a>
</g>
</g>
<!-- Node0&#45;&gt;Node5 -->
<g id="edge4" class="edge">
<title>Node0&#45;&gt;Node5</title>
<path fill="none" stroke="#63b8ff" d="M55.27,-529.26C62.59,-599.71 89.95,-829.11 140.5,-879.62 144.57,-883.69 149.36,-886.9 154.54,-889.44"/>
<polygon fill="#63b8ff" stroke="#63b8ff" points="58.69,-529.3 54.2,-519.7 51.73,-530 58.69,-529.3"/>
</g>
<!-- Node6 -->
<g id="node6" class="node">
<title>Node6</title>
<g id="a_node6"><a xlink:href="interface_rcv_closed_captions_controller.html" target="_top" xlink:title=" ">
<polygon fill="white" stroke="#666666" points="291.12,-870.25 145.38,-870.25 145.38,-851 291.12,-851 291.12,-870.25"/>
<text text-anchor="middle" x="218.25" y="-856.75" font-family="Helvetica,sans-Serif" font-size="10.00">RcvClosedCaptionsController</text>
</a>
</g>
</g>
<!-- Node0&#45;&gt;Node6 -->
<g id="edge5" class="edge">
<title>Node0&#45;&gt;Node6</title>
<path fill="none" stroke="#63b8ff" d="M55.85,-529.31C64.55,-595.11 94.65,-797.92 140.5,-842.62 143.73,-845.78 147.41,-848.42 151.36,-850.62"/>
<polygon fill="#63b8ff" stroke="#63b8ff" points="59.23,-529.15 54.48,-519.68 52.29,-530.05 59.23,-529.15"/>
</g>
<!-- Node7 -->
<g id="node7" class="node">
<title>Node7</title>
<g id="a_node7"><a xlink:href="interface_rcv_closed_captions_data.html" target="_top" xlink:title=" ">
<polygon fill="white" stroke="#666666" points="280.62,-833.25 155.88,-833.25 155.88,-814 280.62,-814 280.62,-833.25"/>
<text text-anchor="middle" x="218.25" y="-819.75" font-family="Helvetica,sans-Serif" font-size="10.00">RcvClosedCaptionsData</text>
</a>
</g>
</g>
<!-- Node0&#45;&gt;Node7 -->
<g id="edge6" class="edge">
<title>Node0&#45;&gt;Node7</title>
<path fill="none" stroke="#63b8ff" d="M52.73,-529.51C52.59,-583.65 60.1,-729.56 140.5,-805.62 144.87,-809.76 150.01,-813.01 155.52,-815.55"/>
<polygon fill="#63b8ff" stroke="#63b8ff" points="56.24,-529.66 52.87,-519.61 49.24,-529.56 56.24,-529.66"/>
</g>
<!-- Node8 -->
<g id="node8" class="node">
<title>Node8</title>
<g id="a_node8"><a xlink:href="interface_rcv_engine.html" target="_top" xlink:title=" ">
<polygon fill="white" stroke="#666666" points="250.25,-796.25 186.25,-796.25 186.25,-777 250.25,-777 250.25,-796.25"/>
<text text-anchor="middle" x="218.25" y="-782.75" font-family="Helvetica,sans-Serif" font-size="10.00">RcvEngine</text>
</a>
</g>
</g>
<!-- Node0&#45;&gt;Node8 -->
<g id="edge7" class="edge">
<title>Node0&#45;&gt;Node8</title>
<path fill="none" stroke="#63b8ff" d="M53.75,-529.55C56.13,-578.99 69.27,-703.75 140.5,-768.62 152.74,-779.78 170.56,-784.41 185.94,-786.19"/>
<polygon fill="#63b8ff" stroke="#63b8ff" points="57.22,-529.55 53.35,-519.68 50.22,-529.81 57.22,-529.55"/>
</g>
<!-- Node9 -->
<g id="node9" class="node">
<title>Node9</title>
<g id="a_node9"><a xlink:href="interface_rcv_i_participant.html" target="_top" xlink:title=" ">
<polygon fill="white" stroke="#666666" points="260,-759.25 176.5,-759.25 176.5,-740 260,-740 260,-759.25"/>
<text text-anchor="middle" x="218.25" y="-745.75" font-family="Helvetica,sans-Serif" font-size="10.00">RcvIParticipant</text>
</a>
</g>
</g>
<!-- Node0&#45;&gt;Node9 -->
<g id="edge8" class="edge">
<title>Node0&#45;&gt;Node9</title>
<path fill="none" stroke="#63b8ff" d="M55.05,-529.24C60.06,-573.43 78.19,-677.62 140.5,-731.62 150.33,-740.14 163.43,-744.81 176.02,-747.33"/>
<polygon fill="#63b8ff" stroke="#63b8ff" points="58.45,-529.06 53.96,-519.46 51.48,-529.76 58.45,-529.06"/>
</g>
<!-- Node10 -->
<g id="node10" class="node">
<title>Node10</title>
<g id="a_node10"><a xlink:href="interface_rcv_instant_meeting_settings.html" target="_top" xlink:title=" ">
<polygon fill="white" stroke="#666666" points="285.5,-722.25 151,-722.25 151,-703 285.5,-703 285.5,-722.25"/>
<text text-anchor="middle" x="218.25" y="-708.75" font-family="Helvetica,sans-Serif" font-size="10.00">RcvInstantMeetingSettings</text>
</a>
</g>
</g>
<!-- Node0&#45;&gt;Node10 -->
<g id="edge9" class="edge">
<title>Node0&#45;&gt;Node10</title>
<path fill="none" stroke="#63b8ff" d="M56.83,-529.23C64.68,-567.9 87.13,-651.36 140.5,-694.62 144.43,-697.81 148.83,-700.46 153.48,-702.65"/>
<polygon fill="#63b8ff" stroke="#63b8ff" points="60.11,-528.73 54.81,-519.56 53.23,-530.03 60.11,-528.73"/>
</g>
<!-- Node11 -->
<g id="node11" class="node">
<title>Node11</title>
<g id="a_node11"><a xlink:href="interface_rcv_live_transcription_data.html" target="_top" xlink:title=" ">
<polygon fill="white" stroke="#666666" points="282.88,-685.25 153.62,-685.25 153.62,-666 282.88,-666 282.88,-685.25"/>
<text text-anchor="middle" x="218.25" y="-671.75" font-family="Helvetica,sans-Serif" font-size="10.00">RcvLiveTranscriptionData</text>
</a>
</g>
</g>
<!-- Node0&#45;&gt;Node11 -->
<g id="edge10" class="edge">
<title>Node0&#45;&gt;Node11</title>
<path fill="none" stroke="#63b8ff" d="M59.32,-528.92C70.11,-561.38 95.82,-624.65 140.5,-657.62 144.79,-660.79 149.56,-663.42 154.56,-665.58"/>
<polygon fill="#63b8ff" stroke="#63b8ff" points="62.37,-527.95 56.01,-519.47 55.69,-530.06 62.37,-527.95"/>
</g>
<!-- Node12 -->
<g id="node12" class="node">
<title>Node12</title>
<g id="a_node12"><a xlink:href="interface_rcv_live_transcription_phrase_id.html" target="_top" xlink:title=" ">
<polygon fill="white" stroke="#666666" points="291.88,-648.25 144.62,-648.25 144.62,-629 291.88,-629 291.88,-648.25"/>
<text text-anchor="middle" x="218.25" y="-634.75" font-family="Helvetica,sans-Serif" font-size="10.00">RcvLiveTranscriptionPhraseId</text>
</a>
</g>
</g>
<!-- Node0&#45;&gt;Node12 -->
<g id="edge11" class="edge">
<title>Node0&#45;&gt;Node12</title>
<path fill="none" stroke="#63b8ff" d="M63.02,-528.18C76.74,-553.57 104.18,-597.36 140.5,-620.62 145.46,-623.8 150.91,-626.41 156.56,-628.57"/>
<polygon fill="#63b8ff" stroke="#63b8ff" points="65.72,-526.79 57.99,-519.54 59.51,-530.03 65.72,-526.79"/>
</g>
<!-- Node13 -->
<g id="node13" class="node">
<title>Node13</title>
<g id="a_node13"><a xlink:href="interface_rcv_live_transcription_setting.html" target="_top" xlink:title=" ">
<polygon fill="white" stroke="#666666" points="287.75,-611.25 148.75,-611.25 148.75,-592 287.75,-592 287.75,-611.25"/>
<text text-anchor="middle" x="218.25" y="-597.75" font-family="Helvetica,sans-Serif" font-size="10.00">RcvLiveTranscriptionSetting</text>
</a>
</g>
</g>
<!-- Node0&#45;&gt;Node13 -->
<g id="edge12" class="edge">
<title>Node0&#45;&gt;Node13</title>
<path fill="none" stroke="#63b8ff" d="M68.88,-526.3C85.1,-543.52 112.04,-569.16 140.5,-583.62 146.72,-586.79 153.51,-589.4 160.4,-591.57"/>
<polygon fill="#63b8ff" stroke="#63b8ff" points="72.16,-524.61 62.82,-519.61 67.01,-529.34 72.16,-524.61"/>
</g>
<!-- Node14 -->
<g id="node14" class="node">
<title>Node14</title>
<g id="a_node14"><a xlink:href="interface_rcv_live_transcriptions_controller.html" target="_top" xlink:title=" ">
<polygon fill="white" stroke="#666666" points="296,-574.25 140.5,-574.25 140.5,-555 296,-555 296,-574.25"/>
<text text-anchor="middle" x="218.25" y="-560.75" font-family="Helvetica,sans-Serif" font-size="10.00">RcvLiveTranscriptionsController</text>
</a>
</g>
</g>
<!-- Node0&#45;&gt;Node14 -->
<g id="edge13" class="edge">
<title>Node0&#45;&gt;Node14</title>
<path fill="none" stroke="#63b8ff" d="M82.99,-523.17C99.62,-530.9 120.89,-540.12 140.5,-546.62 149.33,-549.56 158.89,-552.2 168.16,-554.5"/>
<polygon fill="#63b8ff" stroke="#63b8ff" points="84.83,-519.7 74.29,-518.59 81.84,-526.03 84.83,-519.7"/>
</g>
<!-- Node15 -->
<g id="node15" class="node">
<title>Node15</title>
<g id="a_node15"><a xlink:href="interface_rcv_meeting_bridge_info.html" target="_top" xlink:title=" ">
<polygon fill="white" stroke="#666666" points="274.62,-537.25 161.88,-537.25 161.88,-518 274.62,-518 274.62,-537.25"/>
<text text-anchor="middle" x="218.25" y="-523.75" font-family="Helvetica,sans-Serif" font-size="10.00">RcvMeetingBridgeInfo</text>
</a>
</g>
</g>
<!-- Node0&#45;&gt;Node15 -->
<g id="edge14" class="edge">
<title>Node0&#45;&gt;Node15</title>
<path fill="none" stroke="#63b8ff" d="M92.71,-513.2C113.33,-515.58 138.9,-518.55 161.51,-521.17"/>
<polygon fill="#63b8ff" stroke="#63b8ff" points="93.15,-509.61 82.82,-511.93 92.35,-516.56 93.15,-509.61"/>
</g>
<!-- Node16 -->
<g id="node16" class="node">
<title>Node16</title>
<g id="a_node16"><a xlink:href="interface_rcv_meeting_chat_controller.html" target="_top" xlink:title=" ">
<polygon fill="white" stroke="#666666" points="284,-500.25 152.5,-500.25 152.5,-481 284,-481 284,-500.25"/>
<text text-anchor="middle" x="218.25" y="-486.75" font-family="Helvetica,sans-Serif" font-size="10.00">RcvMeetingChatController</text>
</a>
</g>
</g>
<!-- Node0&#45;&gt;Node16 -->
<g id="edge15" class="edge">
<title>Node0&#45;&gt;Node16</title>
<path fill="none" stroke="#63b8ff" d="M92.69,-504.3C110.55,-502.34 132.13,-499.97 152.29,-497.76"/>
<polygon fill="#63b8ff" stroke="#63b8ff" points="92.38,-500.92 82.82,-505.49 93.14,-507.88 92.38,-500.92"/>
</g>
<!-- Node17 -->
<g id="node17" class="node">
<title>Node17</title>
<g id="a_node17"><a xlink:href="interface_rcv_meeting_chat_message.html" target="_top" xlink:title=" ">
<polygon fill="white" stroke="#666666" points="282.88,-463.25 153.62,-463.25 153.62,-444 282.88,-444 282.88,-463.25"/>
<text text-anchor="middle" x="218.25" y="-449.75" font-family="Helvetica,sans-Serif" font-size="10.00">RcvMeetingChatMessage</text>
</a>
</g>
</g>
<!-- Node0&#45;&gt;Node17 -->
<g id="edge16" class="edge">
<title>Node0&#45;&gt;Node17</title>
<path fill="none" stroke="#63b8ff" d="M83.7,-494.2C100.24,-486.75 121.2,-477.93 140.5,-471.62 149.48,-468.69 159.19,-466.03 168.59,-463.71"/>
<polygon fill="#63b8ff" stroke="#63b8ff" points="82.66,-491.28 75.02,-498.63 85.57,-497.65 82.66,-491.28"/>
</g>
<!-- Node18 -->
<g id="node18" class="node">
<title>Node18</title>
<g id="a_node18"><a xlink:href="interface_rcv_meeting_context_controller.html" target="_top" xlink:title=" ">
<polygon fill="white" stroke="#666666" points="290.75,-426.25 145.75,-426.25 145.75,-407 290.75,-407 290.75,-426.25"/>
<text text-anchor="middle" x="218.25" y="-412.75" font-family="Helvetica,sans-Serif" font-size="10.00">RcvMeetingContextController</text>
</a>
</g>
</g>
<!-- Node0&#45;&gt;Node18 -->
<g id="edge17" class="edge">
<title>Node0&#45;&gt;Node18</title>
<path fill="none" stroke="#63b8ff" d="M69.2,-490.92C85.48,-473.94 112.3,-448.84 140.5,-434.62 146.73,-431.48 153.53,-428.88 160.42,-426.72"/>
<polygon fill="#63b8ff" stroke="#63b8ff" points="67.36,-487.83 63.09,-497.52 72.48,-492.61 67.36,-487.83"/>
</g>
<!-- Node19 -->
<g id="node19" class="node">
<title>Node19</title>
<g id="a_node19"><a xlink:href="interface_rcv_meeting_controller.html" target="_top" xlink:title=" ">
<polygon fill="white" stroke="#666666" points="273.5,-389.25 163,-389.25 163,-370 273.5,-370 273.5,-389.25"/>
<text text-anchor="middle" x="218.25" y="-375.75" font-family="Helvetica,sans-Serif" font-size="10.00">RcvMeetingController</text>
</a>
</g>
</g>
<!-- Node0&#45;&gt;Node19 -->
<g id="edge18" class="edge">
<title>Node0&#45;&gt;Node19</title>
<path fill="none" stroke="#63b8ff" d="M63.06,-489.24C76.84,-464.09 104.33,-420.68 140.5,-397.62 147.19,-393.36 154.79,-390.1 162.55,-387.61"/>
<polygon fill="#63b8ff" stroke="#63b8ff" points="59.59,-487.32 58.01,-497.8 65.78,-490.59 59.59,-487.32"/>
</g>
<!-- Node20 -->
<g id="node20" class="node">
<title>Node20</title>
<g id="a_node20"><a xlink:href="interface_rcv_meeting_options.html" target="_top" xlink:title=" ">
<polygon fill="white" stroke="#666666" points="269.38,-352.25 167.12,-352.25 167.12,-333 269.38,-333 269.38,-352.25"/>
<text text-anchor="middle" x="218.25" y="-338.75" font-family="Helvetica,sans-Serif" font-size="10.00">RcvMeetingOptions</text>
</a>
</g>
</g>
<!-- Node0&#45;&gt;Node20 -->
<g id="edge19" class="edge">
<title>Node0&#45;&gt;Node20</title>
<path fill="none" stroke="#63b8ff" d="M59.36,-488.46C70.21,-456.22 95.99,-393.37 140.5,-360.62 148.22,-354.95 157.45,-351.03 166.8,-348.33"/>
<polygon fill="#63b8ff" stroke="#63b8ff" points="55.75,-487.25 56.03,-497.84 62.42,-489.39 55.75,-487.25"/>
</g>
<!-- Node21 -->
<g id="node21" class="node">
<title>Node21</title>
<g id="a_node21"><a xlink:href="interface_rcv_meeting_user_controller.html" target="_top" xlink:title=" ">
<polygon fill="white" stroke="#666666" points="284,-315.25 152.5,-315.25 152.5,-296 284,-296 284,-315.25"/>
<text text-anchor="middle" x="218.25" y="-301.75" font-family="Helvetica,sans-Serif" font-size="10.00">RcvMeetingUserController</text>
</a>
</g>
</g>
<!-- Node0&#45;&gt;Node21 -->
<g id="edge20" class="edge">
<title>Node0&#45;&gt;Node21</title>
<path fill="none" stroke="#63b8ff" d="M56.87,-488.13C64.77,-449.66 87.32,-366.65 140.5,-323.62 144.44,-320.44 148.84,-317.8 153.49,-315.61"/>
<polygon fill="#63b8ff" stroke="#63b8ff" points="53.28,-487.27 54.83,-497.75 60.15,-488.59 53.28,-487.27"/>
</g>
<!-- Node22 -->
<g id="node22" class="node">
<title>Node22</title>
<g id="a_node22"><a xlink:href="interface_rcv_oauth_options.html" target="_top" xlink:title=" ">
<polygon fill="white" stroke="#666666" points="265.25,-278.25 171.25,-278.25 171.25,-259 265.25,-259 265.25,-278.25"/>
<text text-anchor="middle" x="218.25" y="-264.75" font-family="Helvetica,sans-Serif" font-size="10.00">RcvOauthOptions</text>
</a>
</g>
</g>
<!-- Node0&#45;&gt;Node22 -->
<g id="edge21" class="edge">
<title>Node0&#45;&gt;Node22</title>
<path fill="none" stroke="#63b8ff" d="M55.08,-488.1C60.15,-444.11 78.39,-340.37 140.5,-286.62 148.99,-279.28 159.91,-274.8 170.84,-272.09"/>
<polygon fill="#63b8ff" stroke="#63b8ff" points="51.52,-487.53 53.98,-497.83 58.48,-488.24 51.52,-487.53"/>
</g>
<!-- Node23 -->
<g id="node23" class="node">
<title>Node23</title>
<g id="a_node23"><a xlink:href="interface_rcv_personal_meeting_settings.html" target="_top" xlink:title=" ">
<polygon fill="white" stroke="#666666" points="289.62,-241.25 146.88,-241.25 146.88,-222 289.62,-222 289.62,-241.25"/>
<text text-anchor="middle" x="218.25" y="-227.75" font-family="Helvetica,sans-Serif" font-size="10.00">RcvPersonalMeetingSettings</text>
</a>
</g>
</g>
<!-- Node0&#45;&gt;Node23 -->
<g id="edge22" class="edge">
<title>Node0&#45;&gt;Node23</title>
<path fill="none" stroke="#63b8ff" d="M53.78,-487.78C56.22,-438.52 69.48,-314.23 140.5,-249.62 143.94,-246.49 147.82,-243.88 151.97,-241.69"/>
<polygon fill="#63b8ff" stroke="#63b8ff" points="50.25,-487.48 53.37,-497.61 57.25,-487.75 50.25,-487.48"/>
</g>
<!-- Node24 -->
<g id="node24" class="node">
<title>Node24</title>
<g id="a_node24"><a xlink:href="interface_rcv_recording_controller.html" target="_top" xlink:title=" ">
<polygon fill="white" stroke="#666666" points="278.38,-204.25 158.12,-204.25 158.12,-185 278.38,-185 278.38,-204.25"/>
<text text-anchor="middle" x="218.25" y="-190.75" font-family="Helvetica,sans-Serif" font-size="10.00">RcvRecordingController</text>
</a>
</g>
</g>
<!-- Node0&#45;&gt;Node24 -->
<g id="edge23" class="edge">
<title>Node0&#45;&gt;Node24</title>
<path fill="none" stroke="#63b8ff" d="M52.76,-487.8C52.68,-433.85 60.31,-288.42 140.5,-212.62 145.47,-207.92 151.43,-204.37 157.8,-201.7"/>
<polygon fill="#63b8ff" stroke="#63b8ff" points="49.27,-487.71 52.88,-497.67 56.27,-487.63 49.27,-487.71"/>
</g>
<!-- Node25 -->
<g id="node25" class="node">
<title>Node25</title>
<g id="a_node25"><a xlink:href="interface_rcv_schedule_meeting_settings.html" target="_top" xlink:title=" ">
<polygon fill="white" stroke="#666666" points="290.75,-167.25 145.75,-167.25 145.75,-148 290.75,-148 290.75,-167.25"/>
<text text-anchor="middle" x="218.25" y="-153.75" font-family="Helvetica,sans-Serif" font-size="10.00">RcvScheduleMeetingSettings</text>
</a>
</g>
</g>
<!-- Node0&#45;&gt;Node25 -->
<g id="edge24" class="edge">
<title>Node0&#45;&gt;Node25</title>
<path fill="none" stroke="#63b8ff" d="M55.86,-488C64.59,-422.4 94.77,-220.19 140.5,-175.62 143.73,-172.47 147.41,-169.83 151.36,-167.63"/>
<polygon fill="#63b8ff" stroke="#63b8ff" points="52.3,-487.23 54.48,-497.6 59.25,-488.13 52.3,-487.23"/>
</g>
<!-- Node26 -->
<g id="node26" class="node">
<title>Node26</title>
<g id="a_node26"><a xlink:href="interface_rcv_screen_share_service.html" target="_top" xlink:title=" ">
<polygon fill="white" stroke="#666666" points="279.88,-130.25 156.62,-130.25 156.62,-111 279.88,-111 279.88,-130.25"/>
<text text-anchor="middle" x="218.25" y="-116.75" font-family="Helvetica,sans-Serif" font-size="10.00">RcvScreenShareService</text>
</a>
</g>
</g>
<!-- Node0&#45;&gt;Node26 -->
<g id="edge25" class="edge">
<title>Node0&#45;&gt;Node26</title>
<path fill="none" stroke="#63b8ff" d="M55.28,-488.04C62.62,-417.78 90.07,-189 140.5,-138.62 145.05,-134.08 150.52,-130.6 156.41,-127.94"/>
<polygon fill="#63b8ff" stroke="#63b8ff" points="51.74,-487.27 54.21,-497.58 58.7,-487.98 51.74,-487.27"/>
</g>
<!-- Node27 -->
<g id="node27" class="node">
<title>Node27</title>
<g id="a_node27"><a xlink:href="interface_rcv_sharing_controller.html" target="_top" xlink:title=" ">
<polygon fill="white" stroke="#666666" points="272.75,-93.25 163.75,-93.25 163.75,-74 272.75,-74 272.75,-93.25"/>
<text text-anchor="middle" x="218.25" y="-79.75" font-family="Helvetica,sans-Serif" font-size="10.00">RcvSharingController</text>
</a>
</g>
</g>
<!-- Node0&#45;&gt;Node27 -->
<g id="edge26" class="edge">
<title>Node0&#45;&gt;Node27</title>
<path fill="none" stroke="#63b8ff" d="M54.81,-487.97C60.88,-413.16 85.37,-157.82 140.5,-101.62 146.83,-95.18 154.99,-90.86 163.63,-88"/>
<polygon fill="#63b8ff" stroke="#63b8ff" points="51.26,-487.48 53.97,-497.72 58.24,-488.02 51.26,-487.48"/>
</g>
<!-- Node28 -->
<g id="node28" class="node">
<title>Node28</title>
<g id="a_node28"><a xlink:href="interface_rcv_video_controller.html" target="_top" xlink:title=" ">
<polygon fill="white" stroke="#666666" points="268.62,-56.25 167.88,-56.25 167.88,-37 268.62,-37 268.62,-56.25"/>
<text text-anchor="middle" x="218.25" y="-42.75" font-family="Helvetica,sans-Serif" font-size="10.00">RcvVideoController</text>
</a>
</g>
</g>
<!-- Node0&#45;&gt;Node28 -->
<g id="edge27" class="edge">
<title>Node0&#45;&gt;Node28</title>
<path fill="none" stroke="#63b8ff" d="M54.43,-487.66C59.34,-408.15 80.72,-126.62 140.5,-64.62 147.72,-57.14 157.42,-52.51 167.49,-49.7"/>
<polygon fill="#63b8ff" stroke="#63b8ff" points="50.88,-487.43 53.78,-497.62 57.87,-487.84 50.88,-487.43"/>
</g>
<!-- Node29 -->
<g id="node29" class="node">
<title>Node29</title>
<g id="a_node29"><a xlink:href="interface_rcv_video_device_manager.html" target="_top" xlink:title=" ">
<polygon fill="white" stroke="#666666" points="281.75,-19.25 154.75,-19.25 154.75,0 281.75,0 281.75,-19.25"/>
<text text-anchor="middle" x="218.25" y="-5.75" font-family="Helvetica,sans-Serif" font-size="10.00">RcvVideoDeviceManager</text>
</a>
</g>
</g>
<!-- Node0&#45;&gt;Node29 -->
<g id="edge28" class="edge">
<title>Node0&#45;&gt;Node29</title>
<path fill="none" stroke="#63b8ff" d="M54.08,-487.81C57.83,-404.4 75.93,-95.57 140.5,-27.62 144.46,-23.46 149.19,-20.17 154.32,-17.6"/>
<polygon fill="#63b8ff" stroke="#63b8ff" points="50.55,-487.48 53.62,-497.62 57.54,-487.77 50.55,-487.48"/>
</g>
<!-- Node2 -->
<g id="node30" class="node">
<title>Node2</title>
<g id="a_node30"><a xlink:href="protocol_rcv_video_canvas-p.html" target="_top" xlink:title=" ">
<polygon fill="white" stroke="#666666" points="104.5,-1018.25 0,-1018.25 0,-999 104.5,-999 104.5,-1018.25"/>
<text text-anchor="middle" x="52.25" y="-1004.75" font-family="Helvetica,sans-Serif" font-size="10.00">&lt;RcvVideoCanvas&gt;</text>
</a>
</g>
</g>
<!-- Node2&#45;&gt;Node1 -->
<g id="edge29" class="edge">
<title>Node2&#45;&gt;Node1</title>
<path fill="none" stroke="#63b8ff" d="M115.48,-1008.62C134.7,-1008.62 155.45,-1008.62 173.17,-1008.62"/>
<polygon fill="#63b8ff" stroke="#63b8ff" points="115.69,-1005.13 105.69,-1008.62 115.69,-1012.13 115.69,-1005.13"/>
</g>
</g>
</svg>
