<?xml version="1.0" encoding="UTF-8" standalone="no"?>
<!DOCTYPE svg PUBLIC "-//W3C//DTD SVG 1.1//EN"
 "http://www.w3.org/Graphics/SVG/1.1/DTD/svg11.dtd">
<!-- Generated by graphviz version 8.1.0 (20230707.0739)
 -->
<!-- Title: Graphical Class Hierarchy Pages: 1 -->
<svg width="457pt" height="101pt"
 viewBox="0.00 0.00 457.25 101.25" xmlns="http://www.w3.org/2000/svg" xmlns:xlink="http://www.w3.org/1999/xlink">
<g id="graph0" class="graph" transform="scale(1 1) rotate(0) translate(4 97.25)">
<title>Graphical Class Hierarchy</title>
<!-- Node0 -->
<g id="Node000000" class="node">
<title>Node0</title>
<g id="a_Node000000"><a xlink:title=" ">
<polygon fill="#e0e0e0" stroke="#999999" points="134.5,-56.25 0,-56.25 0,-37 134.5,-37 134.5,-56.25"/>
<text text-anchor="middle" x="67.25" y="-42.75" font-family="Helvetica,sans-Serif" font-size="10.00">&lt;RTCVideoViewDelegate&gt;</text>
</a>
</g>
</g>
<!-- Node1 -->
<g id="Node000001" class="node">
<title>Node1</title>
<g id="a_Node000001"><a xlink:href="interface_rcv_base_video_view.html" target="_top" xlink:title=" ">
<polygon fill="white" stroke="#666666" points="273.5,-56.25 170.5,-56.25 170.5,-37 273.5,-37 273.5,-56.25"/>
<text text-anchor="middle" x="222" y="-42.75" font-family="Helvetica,sans-Serif" font-size="10.00">RcvBaseVideoView</text>
</a>
</g>
</g>
<!-- Node0&#45;&gt;Node1 -->
<g id="edge7_Node000000_Node000001" class="edge">
<title>Node0&#45;&gt;Node1</title>
<g id="a_edge7_Node000000_Node000001"><a xlink:title=" ">
<path fill="none" stroke="#63b8ff" d="M145.74,-46.62C154.07,-46.62 162.39,-46.62 170.29,-46.62"/>
<polygon fill="#63b8ff" stroke="#63b8ff" points="145.8,-43.13 135.8,-46.62 145.8,-50.13 145.8,-43.13"/>
</a>
</g>
</g>
<!-- Node2 -->
<g id="Node000002" class="node">
<title>Node2</title>
<g id="a_Node000002"><a xlink:href="interface_rcv_metal_video_view.html" target="_top" xlink:title=" ">
<polygon fill="white" stroke="#666666" points="431.62,-93.25 327.12,-93.25 327.12,-74 431.62,-74 431.62,-93.25"/>
<text text-anchor="middle" x="379.38" y="-79.75" font-family="Helvetica,sans-Serif" font-size="10.00">RcvMetalVideoView</text>
</a>
</g>
</g>
<!-- Node1&#45;&gt;Node2 -->
<g id="edge8_Node000001_Node000002" class="edge">
<title>Node1&#45;&gt;Node2</title>
<g id="a_edge8_Node000001_Node000002"><a xlink:title=" ">
<path fill="none" stroke="#63b8ff" d="M276.05,-59.26C295.6,-63.91 317.48,-69.12 335.97,-73.53"/>
<polygon fill="#63b8ff" stroke="#63b8ff" points="277,-55.65 266.46,-56.74 275.37,-62.46 277,-55.65"/>
</a>
</g>
</g>
<!-- Node3 -->
<g id="Node000003" class="node">
<title>Node3</title>
<g id="a_Node000003"><a xlink:href="interface_rcv_open_g_l_video_view.html" target="_top" xlink:title=" ">
<polygon fill="white" stroke="#666666" points="437.25,-56.25 321.5,-56.25 321.5,-37 437.25,-37 437.25,-56.25"/>
<text text-anchor="middle" x="379.38" y="-42.75" font-family="Helvetica,sans-Serif" font-size="10.00">RcvOpenGLVideoView</text>
</a>
</g>
</g>
<!-- Node1&#45;&gt;Node3 -->
<g id="edge9_Node000001_Node000003" class="edge">
<title>Node1&#45;&gt;Node3</title>
<g id="a_edge9_Node000001_Node000003"><a xlink:title=" ">
<path fill="none" stroke="#63b8ff" d="M284.74,-46.62C296.76,-46.62 309.33,-46.62 321.2,-46.62"/>
<polygon fill="#63b8ff" stroke="#63b8ff" points="284.88,-43.13 274.88,-46.62 284.88,-50.13 284.88,-43.13"/>
</a>
</g>
</g>
<!-- Node4 -->
<g id="Node000004" class="node">
<title>Node4</title>
<g id="a_Node000004"><a xlink:href="interface_rcv_sample_buffer_video_view.html" target="_top" xlink:title=" ">
<polygon fill="white" stroke="#666666" points="449.25,-19.25 309.5,-19.25 309.5,0 449.25,0 449.25,-19.25"/>
<text text-anchor="middle" x="379.38" y="-5.75" font-family="Helvetica,sans-Serif" font-size="10.00">RcvSampleBufferVideoView</text>
</a>
</g>
</g>
<!-- Node1&#45;&gt;Node4 -->
<g id="edge10_Node000001_Node000004" class="edge">
<title>Node1&#45;&gt;Node4</title>
<g id="a_edge10_Node000001_Node000004"><a xlink:title=" ">
<path fill="none" stroke="#63b8ff" d="M276.05,-33.99C295.6,-29.34 317.48,-24.13 335.97,-19.72"/>
<polygon fill="#63b8ff" stroke="#63b8ff" points="275.37,-30.79 266.46,-36.51 277,-37.6 275.37,-30.79"/>
</a>
</g>
</g>
<!-- Node5 -->
<g id="Node000005" class="node">
<title>Node5</title>
<g id="a_Node000005"><a xlink:title=" ">
<polygon fill="#e0e0e0" stroke="#999999" points="91.38,-19.25 43.12,-19.25 43.12,0 91.38,0 91.38,-19.25"/>
<text text-anchor="middle" x="67.25" y="-5.75" font-family="Helvetica,sans-Serif" font-size="10.00">UIView</text>
</a>
</g>
</g>
<!-- Node5&#45;&gt;Node1 -->
<g id="edge12_Node000005_Node000001" class="edge">
<title>Node5&#45;&gt;Node1</title>
<g id="a_edge12_Node000005_Node000001"><a xlink:title=" ">
<path fill="none" stroke="#63b8ff" d="M102.3,-17.87C125.04,-23.38 155.1,-30.66 179.28,-36.52"/>
<polygon fill="#63b8ff" stroke="#63b8ff" points="103.33,-14.28 92.78,-15.33 101.68,-21.08 103.33,-14.28"/>
</a>
</g>
</g>
<!-- Node6 -->
<g id="Node000006" class="node">
<title>Node6</title>
<g id="a_Node000006"><a xlink:href="interface_r_c_video_view.html" target="_top" xlink:title=" ">
<polygon fill="white" stroke="#666666" points="260.75,-19.25 183.25,-19.25 183.25,0 260.75,0 260.75,-19.25"/>
<text text-anchor="middle" x="222" y="-5.75" font-family="Helvetica,sans-Serif" font-size="10.00">RCVideoView</text>
</a>
</g>
</g>
<!-- Node5&#45;&gt;Node6 -->
<g id="edge11_Node000005_Node000006" class="edge">
<title>Node5&#45;&gt;Node6</title>
<g id="a_edge11_Node000005_Node000006"><a xlink:title=" ">
<path fill="none" stroke="#63b8ff" d="M102.46,-9.62C126.33,-9.62 158.19,-9.62 182.87,-9.62"/>
<polygon fill="#63b8ff" stroke="#63b8ff" points="102.78,-6.13 92.78,-9.62 102.78,-13.13 102.78,-6.13"/>
</a>
</g>
</g>
</g>
</svg>
