<?xml version="1.0" encoding="UTF-8" standalone="no"?>
<!DOCTYPE svg PUBLIC "-//W3C//DTD SVG 1.1//EN"
 "http://www.w3.org/Graphics/SVG/1.1/DTD/svg11.dtd">
<!-- Generated by graphviz version 7.1.0 (20230121.1956)
 -->
<!-- Title: Graphical Class Hierarchy Pages: 1 -->
<svg width="290pt" height="212pt"
 viewBox="0.00 0.00 290.00 212.00" xmlns="http://www.w3.org/2000/svg" xmlns:xlink="http://www.w3.org/1999/xlink">
<g id="graph0" class="graph" transform="scale(1 1) rotate(0) translate(4 208)">
<title>Graphical Class Hierarchy</title>
<!-- Node0 -->
<g id="node1" class="node">
<title>Node0</title>
<g id="a_node1"><a xlink:title=" ">
<polygon fill="#e0e0e0" stroke="#999999" points="71,-111 0,-111 0,-92 71,-92 71,-111"/>
<text text-anchor="middle" x="35.5" y="-99" font-family="Helvetica,sans-Serif" font-size="10.00">&lt;NSObject&gt;</text>
</a>
</g>
</g>
<!-- Node1 -->
<g id="node2" class="node">
<title>Node1</title>
<g id="a_node2"><a xlink:href="protocol_r_c_v_i_video_canvas_delage-p.html" target="_top" xlink:title=" ">
<polygon fill="white" stroke="#666666" points="266,-204 123,-204 123,-185 266,-185 266,-204"/>
<text text-anchor="middle" x="194.5" y="-192" font-family="Helvetica,sans-Serif" font-size="10.00">&lt;RCVIVideoCanvasDelage&gt;</text>
</a>
</g>
</g>
<!-- Node0&#45;&gt;Node1 -->
<g id="edge1" class="edge">
<title>Node0&#45;&gt;Node1</title>
<path fill="none" stroke="#63b8ff" d="M49.16,-120.55C61.73,-137.9 82.63,-162.84 107,-176.5 112.75,-179.72 119.02,-182.37 125.45,-184.55"/>
<polygon fill="#63b8ff" stroke="#63b8ff" points="52.2,-118.8 43.62,-112.59 46.46,-122.8 52.2,-118.8"/>
</g>
<!-- Node2 -->
<g id="node3" class="node">
<title>Node2</title>
<g id="a_node3"><a xlink:href="protocol_rcv_annotation_edit_delegate-p.html" target="_top" xlink:title=" ">
<polygon fill="white" stroke="#666666" points="269,-167 120,-167 120,-148 269,-148 269,-167"/>
<text text-anchor="middle" x="194.5" y="-155" font-family="Helvetica,sans-Serif" font-size="10.00">&lt;RcvAnnotationEditDelegate&gt;</text>
</a>
</g>
</g>
<!-- Node0&#45;&gt;Node2 -->
<g id="edge2" class="edge">
<title>Node0&#45;&gt;Node2</title>
<path fill="none" stroke="#63b8ff" d="M61.54,-117.3C74.66,-124.97 91.23,-133.75 107,-139.5 115.65,-142.65 124.99,-145.32 134.23,-147.55"/>
<polygon fill="#63b8ff" stroke="#63b8ff" points="63.52,-114.4 53.15,-112.24 59.91,-120.4 63.52,-114.4"/>
</g>
<!-- Node3 -->
<g id="node4" class="node">
<title>Node3</title>
<g id="a_node4"><a xlink:href="protocol_rcv_annotation_edit_view-p.html" target="_top" xlink:title=" ">
<polygon fill="white" stroke="#666666" points="260.5,-130 128.5,-130 128.5,-111 260.5,-111 260.5,-130"/>
<text text-anchor="middle" x="194.5" y="-118" font-family="Helvetica,sans-Serif" font-size="10.00">&lt;RcvAnnotationEditView&gt;</text>
</a>
</g>
</g>
<!-- Node0&#45;&gt;Node3 -->
<g id="edge3" class="edge">
<title>Node0&#45;&gt;Node3</title>
<path fill="none" stroke="#63b8ff" d="M82.39,-107.05C96.69,-108.78 112.75,-110.73 128.12,-112.59"/>
<polygon fill="#63b8ff" stroke="#63b8ff" points="83.19,-103.63 72.85,-105.9 82.35,-110.57 83.19,-103.63"/>
</g>
<!-- Node4 -->
<g id="node5" class="node">
<title>Node4</title>
<g id="a_node5"><a xlink:href="protocol_rcv_annotation_view_delegate-p.html" target="_top" xlink:title=" ">
<polygon fill="white" stroke="#666666" points="271.5,-93 117.5,-93 117.5,-74 271.5,-74 271.5,-93"/>
<text text-anchor="middle" x="194.5" y="-81" font-family="Helvetica,sans-Serif" font-size="10.00">&lt;RcvAnnotationViewDelegate&gt;</text>
</a>
</g>
</g>
<!-- Node0&#45;&gt;Node4 -->
<g id="edge4" class="edge">
<title>Node0&#45;&gt;Node4</title>
<path fill="none" stroke="#63b8ff" d="M82.71,-96.2C93.59,-94.95 105.48,-93.59 117.3,-92.24"/>
<polygon fill="#63b8ff" stroke="#63b8ff" points="82.38,-92.72 72.85,-97.33 83.18,-99.67 82.38,-92.72"/>
</g>
<!-- Node5 -->
<g id="node6" class="node">
<title>Node5</title>
<g id="a_node6"><a xlink:href="protocol_rcv_custom_video_view_delegate-p.html" target="_top" xlink:title=" ">
<polygon fill="white" stroke="#666666" points="278,-56 111,-56 111,-37 278,-37 278,-56"/>
<text text-anchor="middle" x="194.5" y="-44" font-family="Helvetica,sans-Serif" font-size="10.00">&lt;RcvCustomVideoViewDelegate&gt;</text>
</a>
</g>
</g>
<!-- Node0&#45;&gt;Node5 -->
<g id="edge5" class="edge">
<title>Node0&#45;&gt;Node5</title>
<path fill="none" stroke="#63b8ff" d="M62.71,-86.09C75.68,-78.99 91.79,-70.95 107,-65.5 116.84,-61.97 127.56,-58.98 137.99,-56.48"/>
<polygon fill="#63b8ff" stroke="#63b8ff" points="61.37,-82.82 54.37,-90.77 64.8,-88.92 61.37,-82.82"/>
</g>
<!-- Node6 -->
<g id="node7" class="node">
<title>Node6</title>
<g id="a_node7"><a xlink:href="protocol_rcv_screen_share_service_delegate-p.html" target="_top" xlink:title=" ">
<polygon fill="white" stroke="#666666" points="282,-19 107,-19 107,0 282,0 282,-19"/>
<text text-anchor="middle" x="194.5" y="-7" font-family="Helvetica,sans-Serif" font-size="10.00">&lt;RcvScreenShareServiceDelegate&gt;</text>
</a>
</g>
</g>
<!-- Node0&#45;&gt;Node6 -->
<g id="edge6" class="edge">
<title>Node0&#45;&gt;Node6</title>
<path fill="none" stroke="#63b8ff" d="M49.51,-82.76C62.21,-65.92 83.08,-41.86 107,-28.5 113.58,-24.83 120.81,-21.86 128.19,-19.47"/>
<polygon fill="#63b8ff" stroke="#63b8ff" points="46.95,-80.32 43.9,-90.47 52.61,-84.44 46.95,-80.32"/>
</g>
</g>
</svg>
