<?xml version="1.0" encoding="UTF-8" standalone="no"?>
<!DOCTYPE svg PUBLIC "-//W3C//DTD SVG 1.1//EN"
 "http://www.w3.org/Graphics/SVG/1.1/DTD/svg11.dtd">
<!-- Generated by graphviz version 8.0.5 (20230430.1635)
 -->
<!-- Title: Graphical Class Hierarchy Pages: 1 -->
<svg width="304pt" height="989pt"
 viewBox="0.00 0.00 304.00 989.25" xmlns="http://www.w3.org/2000/svg" xmlns:xlink="http://www.w3.org/1999/xlink">
<g id="graph0" class="graph" transform="scale(1 1) rotate(0) translate(4 985.25)">
<title>Graphical Class Hierarchy</title>
<!-- Node0 -->
<g id="Node000000" class="node">
<title>Node0</title>
<g id="a_Node000000"><a xlink:title=" ">
<polygon fill="#e0e0e0" stroke="#999999" points="81.62,-500.25 22.88,-500.25 22.88,-481 81.62,-481 81.62,-500.25"/>
<text text-anchor="middle" x="52.25" y="-486.75" font-family="Helvetica,sans-Serif" font-size="10.00">NSObject</text>
</a>
</g>
</g>
<!-- Node1 -->
<g id="Node000001" class="node">
<title>Node1</title>
<g id="a_Node000001"><a xlink:href="interface_r_c_video_canvas.html" target="_top" xlink:title=" ">
<polygon fill="white" stroke="#666666" points="263,-981.25 173.5,-981.25 173.5,-962 263,-962 263,-981.25"/>
<text text-anchor="middle" x="218.25" y="-967.75" font-family="Helvetica,sans-Serif" font-size="10.00">RCVideoCanvas</text>
</a>
</g>
</g>
<!-- Node0&#45;&gt;Node1 -->
<g id="edge13_Node000000_Node000001" class="edge">
<title>Node0&#45;&gt;Node1</title>
<g id="a_edge13_Node000000_Node000001"><a xlink:title=" ">
<path fill="none" stroke="#63b8ff" d="M54.24,-511.44C58.53,-592.88 78.24,-888.56 140.5,-953.62 149.02,-962.52 161.03,-967.39 173.03,-969.96"/>
<polygon fill="#63b8ff" stroke="#63b8ff" points="57.69,-511.47 53.7,-501.66 50.7,-511.82 57.69,-511.47"/>
</a>
</g>
</g>
<!-- Node3 -->
<g id="Node000003" class="node">
<title>Node3</title>
<g id="a_Node000003"><a xlink:href="interface_rcv_annotation_view.html" target="_top" xlink:title=" ">
<polygon fill="white" stroke="#666666" points="269.38,-944.25 167.12,-944.25 167.12,-925 269.38,-925 269.38,-944.25"/>
<text text-anchor="middle" x="218.25" y="-930.75" font-family="Helvetica,sans-Serif" font-size="10.00">RcvAnnotationView</text>
</a>
</g>
</g>
<!-- Node0&#45;&gt;Node3 -->
<g id="edge14_Node000000_Node000003" class="edge">
<title>Node0&#45;&gt;Node3</title>
<g id="a_edge14_Node000000_Node000003"><a xlink:title=" ">
<path fill="none" stroke="#63b8ff" d="M54.6,-511.25C60.04,-588.24 82.93,-857.4 140.5,-916.62 147.56,-923.89 156.95,-928.45 166.74,-931.28"/>
<polygon fill="#63b8ff" stroke="#63b8ff" points="58.04,-511.34 53.87,-501.61 51.06,-511.82 58.04,-511.34"/>
</a>
</g>
</g>
<!-- Node4 -->
<g id="Node000004" class="node">
<title>Node4</title>
<g id="a_Node000004"><a xlink:href="interface_rcv_audio_controller.html" target="_top" xlink:title=" ">
<polygon fill="white" stroke="#666666" points="268.62,-907.25 167.88,-907.25 167.88,-888 268.62,-888 268.62,-907.25"/>
<text text-anchor="middle" x="218.25" y="-893.75" font-family="Helvetica,sans-Serif" font-size="10.00">RcvAudioController</text>
</a>
</g>
</g>
<!-- Node0&#45;&gt;Node4 -->
<g id="edge15_Node000000_Node000004" class="edge">
<title>Node0&#45;&gt;Node4</title>
<g id="a_edge15_Node000000_Node000004"><a xlink:title=" ">
<path fill="none" stroke="#63b8ff" d="M55.03,-511.29C61.72,-583.98 87.67,-826.28 140.5,-879.62 147.82,-887.02 157.56,-891.6 167.63,-894.4"/>
<polygon fill="#63b8ff" stroke="#63b8ff" points="58.44,-511.1 54.06,-501.45 51.47,-511.72 58.44,-511.1"/>
</a>
</g>
</g>
<!-- Node5 -->
<g id="Node000005" class="node">
<title>Node5</title>
<g id="a_Node000005"><a xlink:href="interface_rcv_audio_device_manager.html" target="_top" xlink:title=" ">
<polygon fill="white" stroke="#666666" points="281.75,-870.25 154.75,-870.25 154.75,-851 281.75,-851 281.75,-870.25"/>
<text text-anchor="middle" x="218.25" y="-856.75" font-family="Helvetica,sans-Serif" font-size="10.00">RcvAudioDeviceManager</text>
</a>
</g>
</g>
<!-- Node0&#45;&gt;Node5 -->
<g id="edge16_Node000000_Node000005" class="edge">
<title>Node0&#45;&gt;Node5</title>
<g id="a_edge16_Node000000_Node000005"><a xlink:title=" ">
<path fill="none" stroke="#63b8ff" d="M55.53,-511.08C63.51,-578.94 92.32,-795.05 140.5,-842.62 144.59,-846.66 149.4,-849.86 154.59,-852.39"/>
<polygon fill="#63b8ff" stroke="#63b8ff" points="58.94,-511.06 54.32,-501.53 51.98,-511.86 58.94,-511.06"/>
</a>
</g>
</g>
<!-- Node6 -->
<g id="Node000006" class="node">
<title>Node6</title>
<g id="a_Node000006"><a xlink:href="interface_rcv_closed_captions_controller.html" target="_top" xlink:title=" ">
<polygon fill="white" stroke="#666666" points="291.12,-833.25 145.38,-833.25 145.38,-814 291.12,-814 291.12,-833.25"/>
<text text-anchor="middle" x="218.25" y="-819.75" font-family="Helvetica,sans-Serif" font-size="10.00">RcvClosedCaptionsController</text>
</a>
</g>
</g>
<!-- Node0&#45;&gt;Node6 -->
<g id="edge17_Node000000_Node000006" class="edge">
<title>Node0&#45;&gt;Node6</title>
<g id="a_edge17_Node000000_Node000006"><a xlink:title=" ">
<path fill="none" stroke="#63b8ff" d="M56.15,-510.95C65.52,-573.87 96.97,-763.79 140.5,-805.62 143.76,-808.75 147.45,-811.38 151.41,-813.57"/>
<polygon fill="#63b8ff" stroke="#63b8ff" points="59.52,-510.82 54.61,-501.44 52.59,-511.84 59.52,-510.82"/>
</a>
</g>
</g>
<!-- Node7 -->
<g id="Node000007" class="node">
<title>Node7</title>
<g id="a_Node000007"><a xlink:href="interface_rcv_closed_captions_data.html" target="_top" xlink:title=" ">
<polygon fill="white" stroke="#666666" points="280.62,-796.25 155.88,-796.25 155.88,-777 280.62,-777 280.62,-796.25"/>
<text text-anchor="middle" x="218.25" y="-782.75" font-family="Helvetica,sans-Serif" font-size="10.00">RcvClosedCaptionsData</text>
</a>
</g>
</g>
<!-- Node0&#45;&gt;Node7 -->
<g id="edge18_Node000000_Node000007" class="edge">
<title>Node0&#45;&gt;Node7</title>
<g id="a_edge18_Node000000_Node000007"><a xlink:title=" ">
<path fill="none" stroke="#63b8ff" d="M53.22,-511.23C54.32,-562.77 64.67,-698.19 140.5,-768.62 144.91,-772.72 150.08,-775.94 155.6,-778.47"/>
<polygon fill="#63b8ff" stroke="#63b8ff" points="56.71,-511.49 53.1,-501.53 49.71,-511.56 56.71,-511.49"/>
</a>
</g>
</g>
<!-- Node8 -->
<g id="Node000008" class="node">
<title>Node8</title>
<g id="a_Node000008"><a xlink:href="interface_rcv_engine.html" target="_top" xlink:title=" ">
<polygon fill="white" stroke="#666666" points="250.25,-759.25 186.25,-759.25 186.25,-740 250.25,-740 250.25,-759.25"/>
<text text-anchor="middle" x="218.25" y="-745.75" font-family="Helvetica,sans-Serif" font-size="10.00">RcvEngine</text>
</a>
</g>
</g>
<!-- Node0&#45;&gt;Node8 -->
<g id="edge19_Node000000_Node000008" class="edge">
<title>Node0&#45;&gt;Node8</title>
<g id="a_edge19_Node000000_Node000008"><a xlink:title=" ">
<path fill="none" stroke="#63b8ff" d="M54.4,-511.6C58.13,-558.52 73.96,-672.45 140.5,-731.62 152.87,-742.63 170.7,-747.25 186.05,-749.07"/>
<polygon fill="#63b8ff" stroke="#63b8ff" points="57.83,-511.46 53.66,-501.72 50.84,-511.93 57.83,-511.46"/>
</a>
</g>
</g>
<!-- Node9 -->
<g id="Node000009" class="node">
<title>Node9</title>
<g id="a_Node000009"><a xlink:href="interface_rcv_i_participant.html" target="_top" xlink:title=" ">
<polygon fill="white" stroke="#666666" points="260,-722.25 176.5,-722.25 176.5,-703 260,-703 260,-722.25"/>
<text text-anchor="middle" x="218.25" y="-708.75" font-family="Helvetica,sans-Serif" font-size="10.00">RcvIParticipant</text>
</a>
</g>
</g>
<!-- Node0&#45;&gt;Node9 -->
<g id="edge20_Node000000_Node000009" class="edge">
<title>Node0&#45;&gt;Node9</title>
<g id="a_edge20_Node000000_Node000009"><a xlink:title=" ">
<path fill="none" stroke="#63b8ff" d="M55.88,-511.19C62.32,-552.59 82.78,-646.15 140.5,-694.62 150.46,-702.99 163.59,-707.62 176.18,-710.14"/>
<polygon fill="#63b8ff" stroke="#63b8ff" points="59.24,-510.95 54.37,-501.55 52.31,-511.94 59.24,-510.95"/>
</a>
</g>
</g>
<!-- Node10 -->
<g id="Node000010" class="node">
<title>Node10</title>
<g id="a_Node000010"><a xlink:href="interface_rcv_instant_meeting_settings.html" target="_top" xlink:title=" ">
<polygon fill="white" stroke="#666666" points="285.5,-685.25 151,-685.25 151,-666 285.5,-666 285.5,-685.25"/>
<text text-anchor="middle" x="218.25" y="-671.75" font-family="Helvetica,sans-Serif" font-size="10.00">RcvInstantMeetingSettings</text>
</a>
</g>
</g>
<!-- Node0&#45;&gt;Node10 -->
<g id="edge21_Node000000_Node000010" class="edge">
<title>Node0&#45;&gt;Node10</title>
<g id="a_edge21_Node000000_Node000010"><a xlink:title=" ">
<path fill="none" stroke="#63b8ff" d="M57.93,-510.85C67.23,-546.32 91.51,-619.61 140.5,-657.62 144.61,-660.81 149.19,-663.45 154.01,-665.63"/>
<polygon fill="#63b8ff" stroke="#63b8ff" points="61.14,-510.23 55.34,-501.37 54.34,-511.92 61.14,-510.23"/>
</a>
</g>
</g>
<!-- Node11 -->
<g id="Node000011" class="node">
<title>Node11</title>
<g id="a_Node000011"><a xlink:href="interface_rcv_live_transcription_data.html" target="_top" xlink:title=" ">
<polygon fill="white" stroke="#666666" points="282.88,-648.25 153.62,-648.25 153.62,-629 282.88,-629 282.88,-648.25"/>
<text text-anchor="middle" x="218.25" y="-634.75" font-family="Helvetica,sans-Serif" font-size="10.00">RcvLiveTranscriptionData</text>
</a>
</g>
</g>
<!-- Node0&#45;&gt;Node11 -->
<g id="edge22_Node000000_Node000011" class="edge">
<title>Node0&#45;&gt;Node11</title>
<g id="a_edge22_Node000000_Node000011"><a xlink:title=" ">
<path fill="none" stroke="#63b8ff" d="M61.09,-510.79C73.44,-539.78 100.24,-592.78 140.5,-620.62 145.12,-623.82 150.22,-626.45 155.54,-628.62"/>
<polygon fill="#63b8ff" stroke="#63b8ff" points="63.97,-509.57 56.94,-501.63 57.49,-512.21 63.97,-509.57"/>
</a>
</g>
</g>
<!-- Node12 -->
<g id="Node000012" class="node">
<title>Node12</title>
<g id="a_Node000012"><a xlink:href="interface_rcv_live_transcription_setting.html" target="_top" xlink:title=" ">
<polygon fill="white" stroke="#666666" points="287.75,-611.25 148.75,-611.25 148.75,-592 287.75,-592 287.75,-611.25"/>
<text text-anchor="middle" x="218.25" y="-597.75" font-family="Helvetica,sans-Serif" font-size="10.00">RcvLiveTranscriptionSetting</text>
</a>
</g>
</g>
<!-- Node0&#45;&gt;Node12 -->
<g id="edge23_Node000000_Node000012" class="edge">
<title>Node0&#45;&gt;Node12</title>
<g id="a_edge23_Node000000_Node000012"><a xlink:title=" ">
<path fill="none" stroke="#63b8ff" d="M65.61,-509.35C80.71,-530.69 108.25,-564.99 140.5,-583.62 145.95,-586.77 151.92,-589.37 158.05,-591.52"/>
<polygon fill="#63b8ff" stroke="#63b8ff" points="68.12,-507.83 59.58,-501.57 62.35,-511.79 68.12,-507.83"/>
</a>
</g>
</g>
<!-- Node13 -->
<g id="Node000013" class="node">
<title>Node13</title>
<g id="a_Node000013"><a xlink:href="interface_rcv_live_transcriptions_controller.html" target="_top" xlink:title=" ">
<polygon fill="white" stroke="#666666" points="296,-574.25 140.5,-574.25 140.5,-555 296,-555 296,-574.25"/>
<text text-anchor="middle" x="218.25" y="-560.75" font-family="Helvetica,sans-Serif" font-size="10.00">RcvLiveTranscriptionsController</text>
</a>
</g>
</g>
<!-- Node0&#45;&gt;Node13 -->
<g id="edge24_Node000000_Node000013" class="edge">
<title>Node0&#45;&gt;Node13</title>
<g id="a_edge24_Node000000_Node000013"><a xlink:title=" ">
<path fill="none" stroke="#63b8ff" d="M74.34,-507.09C91.34,-519.61 116.31,-536.38 140.5,-546.62 147.81,-549.72 155.75,-552.34 163.65,-554.53"/>
<polygon fill="#63b8ff" stroke="#63b8ff" points="76.87,-503.86 66.77,-500.64 72.66,-509.45 76.87,-503.86"/>
</a>
</g>
</g>
<!-- Node14 -->
<g id="Node000014" class="node">
<title>Node14</title>
<g id="a_Node000014"><a xlink:href="interface_rcv_meeting_bridge_info.html" target="_top" xlink:title=" ">
<polygon fill="white" stroke="#666666" points="274.62,-537.25 161.88,-537.25 161.88,-518 274.62,-518 274.62,-537.25"/>
<text text-anchor="middle" x="218.25" y="-523.75" font-family="Helvetica,sans-Serif" font-size="10.00">RcvMeetingBridgeInfo</text>
</a>
</g>
</g>
<!-- Node0&#45;&gt;Node14 -->
<g id="edge25_Node000000_Node000014" class="edge">
<title>Node0&#45;&gt;Node14</title>
<g id="a_edge25_Node000000_Node000014"><a xlink:title=" ">
<path fill="none" stroke="#63b8ff" d="M92.38,-499.45C116.52,-504.9 147.55,-511.9 172.65,-517.56"/>
<polygon fill="#63b8ff" stroke="#63b8ff" points="93.34,-495.86 82.82,-497.07 91.8,-502.68 93.34,-495.86"/>
</a>
</g>
</g>
<!-- Node15 -->
<g id="Node000015" class="node">
<title>Node15</title>
<g id="a_Node000015"><a xlink:href="interface_rcv_meeting_chat_controller.html" target="_top" xlink:title=" ">
<polygon fill="white" stroke="#666666" points="284,-500.25 152.5,-500.25 152.5,-481 284,-481 284,-500.25"/>
<text text-anchor="middle" x="218.25" y="-486.75" font-family="Helvetica,sans-Serif" font-size="10.00">RcvMeetingChatController</text>
</a>
</g>
</g>
<!-- Node0&#45;&gt;Node15 -->
<g id="edge26_Node000000_Node000015" class="edge">
<title>Node0&#45;&gt;Node15</title>
<g id="a_edge26_Node000000_Node000015"><a xlink:title=" ">
<path fill="none" stroke="#63b8ff" d="M92.69,-490.62C110.55,-490.62 132.13,-490.62 152.29,-490.62"/>
<polygon fill="#63b8ff" stroke="#63b8ff" points="92.82,-487.13 82.82,-490.62 92.82,-494.13 92.82,-487.13"/>
</a>
</g>
</g>
<!-- Node16 -->
<g id="Node000016" class="node">
<title>Node16</title>
<g id="a_Node000016"><a xlink:href="interface_rcv_meeting_chat_message.html" target="_top" xlink:title=" ">
<polygon fill="white" stroke="#666666" points="282.88,-463.25 153.62,-463.25 153.62,-444 282.88,-444 282.88,-463.25"/>
<text text-anchor="middle" x="218.25" y="-449.75" font-family="Helvetica,sans-Serif" font-size="10.00">RcvMeetingChatMessage</text>
</a>
</g>
</g>
<!-- Node0&#45;&gt;Node16 -->
<g id="edge27_Node000000_Node000016" class="edge">
<title>Node0&#45;&gt;Node16</title>
<g id="a_edge27_Node000000_Node000016"><a xlink:title=" ">
<path fill="none" stroke="#63b8ff" d="M92.38,-481.8C116.52,-476.35 147.55,-469.35 172.65,-463.69"/>
<polygon fill="#63b8ff" stroke="#63b8ff" points="91.8,-478.57 82.82,-484.18 93.34,-485.39 91.8,-478.57"/>
</a>
</g>
</g>
<!-- Node17 -->
<g id="Node000017" class="node">
<title>Node17</title>
<g id="a_Node000017"><a xlink:href="interface_rcv_meeting_context_controller.html" target="_top" xlink:title=" ">
<polygon fill="white" stroke="#666666" points="290.75,-426.25 145.75,-426.25 145.75,-407 290.75,-407 290.75,-426.25"/>
<text text-anchor="middle" x="218.25" y="-412.75" font-family="Helvetica,sans-Serif" font-size="10.00">RcvMeetingContextController</text>
</a>
</g>
</g>
<!-- Node0&#45;&gt;Node17 -->
<g id="edge28_Node000000_Node000017" class="edge">
<title>Node0&#45;&gt;Node17</title>
<g id="a_edge28_Node000000_Node000017"><a xlink:title=" ">
<path fill="none" stroke="#63b8ff" d="M74.34,-474.16C91.34,-461.64 116.31,-444.87 140.5,-434.62 147.81,-431.53 155.75,-428.91 163.65,-426.72"/>
<polygon fill="#63b8ff" stroke="#63b8ff" points="72.66,-471.8 66.77,-480.61 76.87,-477.39 72.66,-471.8"/>
</a>
</g>
</g>
<!-- Node18 -->
<g id="Node000018" class="node">
<title>Node18</title>
<g id="a_Node000018"><a xlink:href="interface_rcv_meeting_controller.html" target="_top" xlink:title=" ">
<polygon fill="white" stroke="#666666" points="273.5,-389.25 163,-389.25 163,-370 273.5,-370 273.5,-389.25"/>
<text text-anchor="middle" x="218.25" y="-375.75" font-family="Helvetica,sans-Serif" font-size="10.00">RcvMeetingController</text>
</a>
</g>
</g>
<!-- Node0&#45;&gt;Node18 -->
<g id="edge29_Node000000_Node000018" class="edge">
<title>Node0&#45;&gt;Node18</title>
<g id="a_edge29_Node000000_Node000018"><a xlink:title=" ">
<path fill="none" stroke="#63b8ff" d="M65.61,-471.9C80.71,-450.56 108.25,-416.26 140.5,-397.62 147.37,-393.65 155.07,-390.56 162.87,-388.15"/>
<polygon fill="#63b8ff" stroke="#63b8ff" points="62.35,-469.46 59.58,-479.68 68.12,-473.42 62.35,-469.46"/>
</a>
</g>
</g>
<!-- Node19 -->
<g id="Node000019" class="node">
<title>Node19</title>
<g id="a_Node000019"><a xlink:href="interface_rcv_meeting_options.html" target="_top" xlink:title=" ">
<polygon fill="white" stroke="#666666" points="269.38,-352.25 167.12,-352.25 167.12,-333 269.38,-333 269.38,-352.25"/>
<text text-anchor="middle" x="218.25" y="-338.75" font-family="Helvetica,sans-Serif" font-size="10.00">RcvMeetingOptions</text>
</a>
</g>
</g>
<!-- Node0&#45;&gt;Node19 -->
<g id="edge30_Node000000_Node000019" class="edge">
<title>Node0&#45;&gt;Node19</title>
<g id="a_edge30_Node000000_Node000019"><a xlink:title=" ">
<path fill="none" stroke="#63b8ff" d="M61.09,-470.46C73.44,-441.47 100.24,-388.47 140.5,-360.62 148.27,-355.25 157.42,-351.47 166.65,-348.81"/>
<polygon fill="#63b8ff" stroke="#63b8ff" points="57.49,-469.04 56.94,-479.62 63.97,-471.68 57.49,-469.04"/>
</a>
</g>
</g>
<!-- Node20 -->
<g id="Node000020" class="node">
<title>Node20</title>
<g id="a_Node000020"><a xlink:href="interface_rcv_meeting_user_controller.html" target="_top" xlink:title=" ">
<polygon fill="white" stroke="#666666" points="284,-315.25 152.5,-315.25 152.5,-296 284,-296 284,-315.25"/>
<text text-anchor="middle" x="218.25" y="-301.75" font-family="Helvetica,sans-Serif" font-size="10.00">RcvMeetingUserController</text>
</a>
</g>
</g>
<!-- Node0&#45;&gt;Node20 -->
<g id="edge31_Node000000_Node000020" class="edge">
<title>Node0&#45;&gt;Node20</title>
<g id="a_edge31_Node000000_Node000020"><a xlink:title=" ">
<path fill="none" stroke="#63b8ff" d="M57.93,-470.4C67.23,-434.93 91.51,-361.64 140.5,-323.62 144.61,-320.44 149.19,-317.8 154.01,-315.62"/>
<polygon fill="#63b8ff" stroke="#63b8ff" points="54.34,-469.33 55.34,-479.88 61.14,-471.02 54.34,-469.33"/>
</a>
</g>
</g>
<!-- Node21 -->
<g id="Node000021" class="node">
<title>Node21</title>
<g id="a_Node000021"><a xlink:href="interface_rcv_oauth_options.html" target="_top" xlink:title=" ">
<polygon fill="white" stroke="#666666" points="265.25,-278.25 171.25,-278.25 171.25,-259 265.25,-259 265.25,-278.25"/>
<text text-anchor="middle" x="218.25" y="-264.75" font-family="Helvetica,sans-Serif" font-size="10.00">RcvOauthOptions</text>
</a>
</g>
</g>
<!-- Node0&#45;&gt;Node21 -->
<g id="edge32_Node000000_Node000021" class="edge">
<title>Node0&#45;&gt;Node21</title>
<g id="a_edge32_Node000000_Node000021"><a xlink:title=" ">
<path fill="none" stroke="#63b8ff" d="M55.88,-470.06C62.32,-428.66 82.78,-335.1 140.5,-286.62 149.09,-279.41 160.06,-274.97 170.99,-272.27"/>
<polygon fill="#63b8ff" stroke="#63b8ff" points="52.31,-469.31 54.37,-479.7 59.24,-470.3 52.31,-469.31"/>
</a>
</g>
</g>
<!-- Node22 -->
<g id="Node000022" class="node">
<title>Node22</title>
<g id="a_Node000022"><a xlink:href="interface_rcv_personal_meeting_settings.html" target="_top" xlink:title=" ">
<polygon fill="white" stroke="#666666" points="289.62,-241.25 146.88,-241.25 146.88,-222 289.62,-222 289.62,-241.25"/>
<text text-anchor="middle" x="218.25" y="-227.75" font-family="Helvetica,sans-Serif" font-size="10.00">RcvPersonalMeetingSettings</text>
</a>
</g>
</g>
<!-- Node0&#45;&gt;Node22 -->
<g id="edge33_Node000000_Node000022" class="edge">
<title>Node0&#45;&gt;Node22</title>
<g id="a_edge33_Node000000_Node000022"><a xlink:title=" ">
<path fill="none" stroke="#63b8ff" d="M54.4,-469.65C58.13,-422.73 73.96,-308.8 140.5,-249.62 144.08,-246.44 148.11,-243.79 152.41,-241.59"/>
<polygon fill="#63b8ff" stroke="#63b8ff" points="50.84,-469.32 53.66,-479.53 57.83,-469.79 50.84,-469.32"/>
</a>
</g>
</g>
<!-- Node23 -->
<g id="Node000023" class="node">
<title>Node23</title>
<g id="a_Node000023"><a xlink:href="interface_rcv_recording_controller.html" target="_top" xlink:title=" ">
<polygon fill="white" stroke="#666666" points="278.38,-204.25 158.12,-204.25 158.12,-185 278.38,-185 278.38,-204.25"/>
<text text-anchor="middle" x="218.25" y="-190.75" font-family="Helvetica,sans-Serif" font-size="10.00">RcvRecordingController</text>
</a>
</g>
</g>
<!-- Node0&#45;&gt;Node23 -->
<g id="edge34_Node000000_Node000023" class="edge">
<title>Node0&#45;&gt;Node23</title>
<g id="a_edge34_Node000000_Node000023"><a xlink:title=" ">
<path fill="none" stroke="#63b8ff" d="M53.22,-470.02C54.32,-418.48 64.67,-283.06 140.5,-212.62 145.51,-207.97 151.5,-204.44 157.88,-201.79"/>
<polygon fill="#63b8ff" stroke="#63b8ff" points="49.71,-469.69 53.1,-479.72 56.71,-469.76 49.71,-469.69"/>
</a>
</g>
</g>
<!-- Node24 -->
<g id="Node000024" class="node">
<title>Node24</title>
<g id="a_Node000024"><a xlink:href="interface_rcv_schedule_meeting_settings.html" target="_top" xlink:title=" ">
<polygon fill="white" stroke="#666666" points="290.75,-167.25 145.75,-167.25 145.75,-148 290.75,-148 290.75,-167.25"/>
<text text-anchor="middle" x="218.25" y="-153.75" font-family="Helvetica,sans-Serif" font-size="10.00">RcvScheduleMeetingSettings</text>
</a>
</g>
</g>
<!-- Node0&#45;&gt;Node24 -->
<g id="edge35_Node000000_Node000024" class="edge">
<title>Node0&#45;&gt;Node24</title>
<g id="a_edge35_Node000000_Node000024"><a xlink:title=" ">
<path fill="none" stroke="#63b8ff" d="M56.15,-470.3C65.52,-407.38 96.97,-217.46 140.5,-175.62 143.76,-172.5 147.45,-169.87 151.41,-167.68"/>
<polygon fill="#63b8ff" stroke="#63b8ff" points="52.59,-469.41 54.61,-479.81 59.52,-470.43 52.59,-469.41"/>
</a>
</g>
</g>
<!-- Node25 -->
<g id="Node000025" class="node">
<title>Node25</title>
<g id="a_Node000025"><a xlink:href="interface_rcv_screen_share_service.html" target="_top" xlink:title=" ">
<polygon fill="white" stroke="#666666" points="279.88,-130.25 156.62,-130.25 156.62,-111 279.88,-111 279.88,-130.25"/>
<text text-anchor="middle" x="218.25" y="-116.75" font-family="Helvetica,sans-Serif" font-size="10.00">RcvScreenShareService</text>
</a>
</g>
</g>
<!-- Node0&#45;&gt;Node25 -->
<g id="edge36_Node000000_Node000025" class="edge">
<title>Node0&#45;&gt;Node25</title>
<g id="a_edge36_Node000000_Node000025"><a xlink:title=" ">
<path fill="none" stroke="#63b8ff" d="M55.53,-470.17C63.51,-402.31 92.32,-186.2 140.5,-138.62 145.08,-134.11 150.56,-130.64 156.46,-127.99"/>
<polygon fill="#63b8ff" stroke="#63b8ff" points="51.98,-469.39 54.32,-479.72 58.94,-470.19 51.98,-469.39"/>
</a>
</g>
</g>
<!-- Node26 -->
<g id="Node000026" class="node">
<title>Node26</title>
<g id="a_Node000026"><a xlink:href="interface_rcv_sharing_controller.html" target="_top" xlink:title=" ">
<polygon fill="white" stroke="#666666" points="272.75,-93.25 163.75,-93.25 163.75,-74 272.75,-74 272.75,-93.25"/>
<text text-anchor="middle" x="218.25" y="-79.75" font-family="Helvetica,sans-Serif" font-size="10.00">RcvSharingController</text>
</a>
</g>
</g>
<!-- Node0&#45;&gt;Node26 -->
<g id="edge37_Node000000_Node000026" class="edge">
<title>Node0&#45;&gt;Node26</title>
<g id="a_edge37_Node000000_Node000026"><a xlink:title=" ">
<path fill="none" stroke="#63b8ff" d="M55.03,-469.96C61.72,-397.27 87.67,-154.97 140.5,-101.62 146.76,-95.3 154.79,-91.03 163.28,-88.18"/>
<polygon fill="#63b8ff" stroke="#63b8ff" points="51.47,-469.53 54.06,-479.8 58.44,-470.15 51.47,-469.53"/>
</a>
</g>
</g>
<!-- Node27 -->
<g id="Node000027" class="node">
<title>Node27</title>
<g id="a_Node000027"><a xlink:href="interface_rcv_video_controller.html" target="_top" xlink:title=" ">
<polygon fill="white" stroke="#666666" points="268.62,-56.25 167.88,-56.25 167.88,-37 268.62,-37 268.62,-56.25"/>
<text text-anchor="middle" x="218.25" y="-42.75" font-family="Helvetica,sans-Serif" font-size="10.00">RcvVideoController</text>
</a>
</g>
</g>
<!-- Node0&#45;&gt;Node27 -->
<g id="edge38_Node000000_Node000027" class="edge">
<title>Node0&#45;&gt;Node27</title>
<g id="a_edge38_Node000000_Node000027"><a xlink:title=" ">
<path fill="none" stroke="#63b8ff" d="M54.6,-470C60.04,-393.01 82.93,-123.85 140.5,-64.62 147.75,-57.17 157.46,-52.55 167.53,-49.75"/>
<polygon fill="#63b8ff" stroke="#63b8ff" points="51.06,-469.43 53.87,-479.64 58.04,-469.91 51.06,-469.43"/>
</a>
</g>
</g>
<!-- Node28 -->
<g id="Node000028" class="node">
<title>Node28</title>
<g id="a_Node000028"><a xlink:href="interface_rcv_video_device_manager.html" target="_top" xlink:title=" ">
<polygon fill="white" stroke="#666666" points="281.75,-19.25 154.75,-19.25 154.75,0 281.75,0 281.75,-19.25"/>
<text text-anchor="middle" x="218.25" y="-5.75" font-family="Helvetica,sans-Serif" font-size="10.00">RcvVideoDeviceManager</text>
</a>
</g>
</g>
<!-- Node0&#45;&gt;Node28 -->
<g id="edge39_Node000000_Node000028" class="edge">
<title>Node0&#45;&gt;Node28</title>
<g id="a_edge39_Node000000_Node000028"><a xlink:title=" ">
<path fill="none" stroke="#63b8ff" d="M54.24,-469.81C58.53,-388.37 78.24,-92.69 140.5,-27.62 144.47,-23.47 149.21,-20.2 154.35,-17.62"/>
<polygon fill="#63b8ff" stroke="#63b8ff" points="50.7,-469.43 53.7,-479.59 57.69,-469.78 50.7,-469.43"/>
</a>
</g>
</g>
<!-- Node2 -->
<g id="Node000002" class="node">
<title>Node2</title>
<g id="a_Node000002"><a xlink:href="protocol_rcv_video_canvas-p.html" target="_top" xlink:title=" ">
<polygon fill="white" stroke="#666666" points="104.5,-981.25 0,-981.25 0,-962 104.5,-962 104.5,-981.25"/>
<text text-anchor="middle" x="52.25" y="-967.75" font-family="Helvetica,sans-Serif" font-size="10.00">&lt;RcvVideoCanvas&gt;</text>
</a>
</g>
</g>
<!-- Node2&#45;&gt;Node1 -->
<g id="edge40_Node000002_Node000001" class="edge">
<title>Node2&#45;&gt;Node1</title>
<g id="a_edge40_Node000002_Node000001"><a xlink:title=" ">
<path fill="none" stroke="#63b8ff" d="M115.48,-971.62C134.7,-971.62 155.45,-971.62 173.17,-971.62"/>
<polygon fill="#63b8ff" stroke="#63b8ff" points="115.69,-968.13 105.69,-971.62 115.69,-975.13 115.69,-968.13"/>
</a>
</g>
</g>
</g>
</svg>
