<?xml version="1.0" encoding="UTF-8" standalone="no"?>
<!DOCTYPE svg PUBLIC "-//W3C//DTD SVG 1.1//EN"
 "http://www.w3.org/Graphics/SVG/1.1/DTD/svg11.dtd">
<!-- Generated by graphviz version 7.1.0 (20230121.1956)
 -->
<!-- Title: Graphical Class Hierarchy Pages: 1 -->
<svg width="305pt" height="1026pt"
 viewBox="0.00 0.00 305.00 1026.00" xmlns="http://www.w3.org/2000/svg" xmlns:xlink="http://www.w3.org/1999/xlink">
<g id="graph0" class="graph" transform="scale(1 1) rotate(0) translate(4 1022)">
<title>Graphical Class Hierarchy</title>
<!-- Node0 -->
<g id="node1" class="node">
<title>Node0</title>
<g id="a_node1"><a xlink:title=" ">
<polygon fill="#e0e0e0" stroke="#999999" points="82,-518 23,-518 23,-499 82,-499 82,-518"/>
<text text-anchor="middle" x="52.5" y="-506" font-family="Helvetica,sans-Serif" font-size="10.00">NSObject</text>
</a>
</g>
</g>
<!-- Node1 -->
<g id="node2" class="node">
<title>Node1</title>
<g id="a_node2"><a xlink:href="interface_r_c_video_canvas.html" target="_top" xlink:title=" ">
<polygon fill="white" stroke="#666666" points="264,-1018 174,-1018 174,-999 264,-999 264,-1018"/>
<text text-anchor="middle" x="219" y="-1006" font-family="Helvetica,sans-Serif" font-size="10.00">RCVideoCanvas</text>
</a>
</g>
</g>
<!-- Node0&#45;&gt;Node1 -->
<g id="edge1" class="edge">
<title>Node0&#45;&gt;Node1</title>
<path fill="none" stroke="#63b8ff" d="M54.34,-529.6C58.13,-613.53 76.32,-922.5 141,-990.5 149.52,-999.45 161.56,-1004.34 173.6,-1006.9"/>
<polygon fill="#63b8ff" stroke="#63b8ff" points="57.84,-529.48 53.92,-519.64 50.85,-529.78 57.84,-529.48"/>
</g>
<!-- Node3 -->
<g id="node3" class="node">
<title>Node3</title>
<g id="a_node3"><a xlink:href="interface_rcv_annotation_view.html" target="_top" xlink:title=" ">
<polygon fill="white" stroke="#666666" points="270.5,-981 167.5,-981 167.5,-962 270.5,-962 270.5,-981"/>
<text text-anchor="middle" x="219" y="-969" font-family="Helvetica,sans-Serif" font-size="10.00">RcvAnnotationView</text>
</a>
</g>
</g>
<!-- Node0&#45;&gt;Node3 -->
<g id="edge2" class="edge">
<title>Node0&#45;&gt;Node3</title>
<path fill="none" stroke="#63b8ff" d="M54.75,-529.94C59.84,-610.04 81.67,-890.3 141,-952.5 148.03,-959.87 157.43,-964.57 167.25,-967.52"/>
<polygon fill="#63b8ff" stroke="#63b8ff" points="58.24,-529.78 54.14,-520.01 51.26,-530.2 58.24,-529.78"/>
</g>
<!-- Node4 -->
<g id="node4" class="node">
<title>Node4</title>
<g id="a_node4"><a xlink:href="interface_rcv_audio_controller.html" target="_top" xlink:title=" ">
<polygon fill="white" stroke="#666666" points="269.5,-944 168.5,-944 168.5,-925 269.5,-925 269.5,-944"/>
<text text-anchor="middle" x="219" y="-932" font-family="Helvetica,sans-Serif" font-size="10.00">RcvAudioController</text>
</a>
</g>
</g>
<!-- Node0&#45;&gt;Node4 -->
<g id="edge3" class="edge">
<title>Node0&#45;&gt;Node4</title>
<path fill="none" stroke="#63b8ff" d="M55.13,-529.6C61.39,-604.93 86.29,-859.11 141,-915.5 148.29,-923.01 158.03,-927.74 168.14,-930.67"/>
<polygon fill="#63b8ff" stroke="#63b8ff" points="58.65,-529.59 54.35,-519.9 51.67,-530.15 58.65,-529.59"/>
</g>
<!-- Node5 -->
<g id="node5" class="node">
<title>Node5</title>
<g id="a_node5"><a xlink:href="interface_rcv_audio_device_manager.html" target="_top" xlink:title=" ">
<polygon fill="white" stroke="#666666" points="283,-907 155,-907 155,-888 283,-888 283,-907"/>
<text text-anchor="middle" x="219" y="-895" font-family="Helvetica,sans-Serif" font-size="10.00">RcvAudioDeviceManager</text>
</a>
</g>
</g>
<!-- Node0&#45;&gt;Node5 -->
<g id="edge4" class="edge">
<title>Node0&#45;&gt;Node5</title>
<path fill="none" stroke="#63b8ff" d="M55.61,-529.48C63.14,-600.15 90.93,-827.95 141,-878.5 144.97,-882.51 149.65,-885.72 154.7,-888.29"/>
<polygon fill="#63b8ff" stroke="#63b8ff" points="59.11,-529.28 54.6,-519.69 52.15,-530 59.11,-529.28"/>
</g>
<!-- Node6 -->
<g id="node6" class="node">
<title>Node6</title>
<g id="a_node6"><a xlink:href="interface_rcv_closed_captions_controller.html" target="_top" xlink:title=" ">
<polygon fill="white" stroke="#666666" points="292,-870 146,-870 146,-851 292,-851 292,-870"/>
<text text-anchor="middle" x="219" y="-858" font-family="Helvetica,sans-Serif" font-size="10.00">RcvClosedCaptionsController</text>
</a>
</g>
</g>
<!-- Node0&#45;&gt;Node6 -->
<g id="edge5" class="edge">
<title>Node0&#45;&gt;Node6</title>
<path fill="none" stroke="#63b8ff" d="M56.2,-529.49C65.11,-595.43 95.59,-796.77 141,-841.5 144.73,-845.17 149.04,-848.17 153.7,-850.62"/>
<polygon fill="#63b8ff" stroke="#63b8ff" points="59.69,-529.14 54.91,-519.69 52.75,-530.06 59.69,-529.14"/>
</g>
<!-- Node7 -->
<g id="node7" class="node">
<title>Node7</title>
<g id="a_node7"><a xlink:href="interface_rcv_closed_captions_data.html" target="_top" xlink:title=" ">
<polygon fill="white" stroke="#666666" points="281.5,-833 156.5,-833 156.5,-814 281.5,-814 281.5,-833"/>
<text text-anchor="middle" x="219" y="-821" font-family="Helvetica,sans-Serif" font-size="10.00">RcvClosedCaptionsData</text>
</a>
</g>
</g>
<!-- Node0&#45;&gt;Node7 -->
<g id="edge6" class="edge">
<title>Node0&#45;&gt;Node7</title>
<path fill="none" stroke="#63b8ff" d="M53.08,-529.61C53.2,-583.72 61.37,-728.42 141,-804.5 145.38,-808.69 150.53,-811.99 156.05,-814.6"/>
<polygon fill="#63b8ff" stroke="#63b8ff" points="56.57,-529.97 53.16,-519.94 49.57,-529.91 56.57,-529.97"/>
</g>
<!-- Node8 -->
<g id="node8" class="node">
<title>Node8</title>
<g id="a_node8"><a xlink:href="interface_rcv_engine.html" target="_top" xlink:title=" ">
<polygon fill="white" stroke="#666666" points="251.5,-796 186.5,-796 186.5,-777 251.5,-777 251.5,-796"/>
<text text-anchor="middle" x="219" y="-784" font-family="Helvetica,sans-Serif" font-size="10.00">RcvEngine</text>
</a>
</g>
</g>
<!-- Node0&#45;&gt;Node8 -->
<g id="edge7" class="edge">
<title>Node0&#45;&gt;Node8</title>
<path fill="none" stroke="#63b8ff" d="M54.14,-529.92C56.82,-579.49 70.6,-702.77 141,-767.5 153.16,-778.68 170.84,-783.56 186.19,-785.58"/>
<polygon fill="#63b8ff" stroke="#63b8ff" points="57.64,-529.85 53.72,-520.01 50.64,-530.15 57.64,-529.85"/>
</g>
<!-- Node9 -->
<g id="node9" class="node">
<title>Node9</title>
<g id="a_node9"><a xlink:href="interface_rcv_i_participant.html" target="_top" xlink:title=" ">
<polygon fill="white" stroke="#666666" points="261,-759 177,-759 177,-740 261,-740 261,-759"/>
<text text-anchor="middle" x="219" y="-747" font-family="Helvetica,sans-Serif" font-size="10.00">RcvIParticipant</text>
</a>
</g>
</g>
<!-- Node0&#45;&gt;Node9 -->
<g id="edge8" class="edge">
<title>Node0&#45;&gt;Node9</title>
<path fill="none" stroke="#63b8ff" d="M55.47,-529.54C60.77,-573.75 79.41,-676.63 141,-730.5 150.85,-739.11 163.99,-743.95 176.62,-746.63"/>
<polygon fill="#63b8ff" stroke="#63b8ff" points="58.97,-529.34 54.42,-519.77 52.01,-530.09 58.97,-529.34"/>
</g>
<!-- Node10 -->
<g id="node10" class="node">
<title>Node10</title>
<g id="a_node10"><a xlink:href="interface_rcv_instant_meeting_settings.html" target="_top" xlink:title=" ">
<polygon fill="white" stroke="#666666" points="286.5,-722 151.5,-722 151.5,-703 286.5,-703 286.5,-722"/>
<text text-anchor="middle" x="219" y="-710" font-family="Helvetica,sans-Serif" font-size="10.00">RcvInstantMeetingSettings</text>
</a>
</g>
</g>
<!-- Node0&#45;&gt;Node10 -->
<g id="edge9" class="edge">
<title>Node0&#45;&gt;Node10</title>
<path fill="none" stroke="#63b8ff" d="M57.3,-529.44C65.43,-568.03 88.25,-650.37 141,-693.5 145.48,-697.16 150.56,-700.13 155.92,-702.54"/>
<polygon fill="#63b8ff" stroke="#63b8ff" points="60.77,-528.97 55.41,-519.84 53.9,-530.32 60.77,-528.97"/>
</g>
<!-- Node11 -->
<g id="node11" class="node">
<title>Node11</title>
<g id="a_node11"><a xlink:href="interface_rcv_live_transcription_data.html" target="_top" xlink:title=" ">
<polygon fill="white" stroke="#666666" points="284,-685 154,-685 154,-666 284,-666 284,-685"/>
<text text-anchor="middle" x="219" y="-673" font-family="Helvetica,sans-Serif" font-size="10.00">RcvLiveTranscriptionData</text>
</a>
</g>
</g>
<!-- Node0&#45;&gt;Node11 -->
<g id="edge10" class="edge">
<title>Node0&#45;&gt;Node11</title>
<path fill="none" stroke="#63b8ff" d="M59.83,-529.03C70.88,-561.31 96.82,-623.65 141,-656.5 145.97,-660.2 151.58,-663.18 157.43,-665.59"/>
<polygon fill="#63b8ff" stroke="#63b8ff" points="63.22,-528.11 56.79,-519.69 56.56,-530.28 63.22,-528.11"/>
</g>
<!-- Node12 -->
<g id="node12" class="node">
<title>Node12</title>
<g id="a_node12"><a xlink:href="interface_rcv_live_transcription_phrase_id.html" target="_top" xlink:title=" ">
<polygon fill="white" stroke="#666666" points="293,-648 145,-648 145,-629 293,-629 293,-648"/>
<text text-anchor="middle" x="219" y="-636" font-family="Helvetica,sans-Serif" font-size="10.00">RcvLiveTranscriptionPhraseId</text>
</a>
</g>
</g>
<!-- Node0&#45;&gt;Node12 -->
<g id="edge11" class="edge">
<title>Node0&#45;&gt;Node12</title>
<path fill="none" stroke="#63b8ff" d="M63.58,-528.15C77.52,-553.29 105.07,-596.34 141,-619.5 146.79,-623.23 153.25,-626.23 159.91,-628.64"/>
<polygon fill="#63b8ff" stroke="#63b8ff" points="66.82,-526.8 59.02,-519.63 60.65,-530.1 66.82,-526.8"/>
</g>
<!-- Node13 -->
<g id="node13" class="node">
<title>Node13</title>
<g id="a_node13"><a xlink:href="interface_rcv_live_transcription_setting.html" target="_top" xlink:title=" ">
<polygon fill="white" stroke="#666666" points="289,-611 149,-611 149,-592 289,-592 289,-611"/>
<text text-anchor="middle" x="219" y="-599" font-family="Helvetica,sans-Serif" font-size="10.00">RcvLiveTranscriptionSetting</text>
</a>
</g>
</g>
<!-- Node0&#45;&gt;Node13 -->
<g id="edge12" class="edge">
<title>Node0&#45;&gt;Node13</title>
<path fill="none" stroke="#63b8ff" d="M69.72,-526.32C86.1,-543.25 112.93,-568.17 141,-582.5 148.24,-586.19 156.23,-589.19 164.24,-591.62"/>
<polygon fill="#63b8ff" stroke="#63b8ff" points="72.6,-524.28 63.19,-519.4 67.51,-529.08 72.6,-524.28"/>
</g>
<!-- Node14 -->
<g id="node14" class="node">
<title>Node14</title>
<g id="a_node14"><a xlink:href="interface_rcv_live_transcriptions_controller.html" target="_top" xlink:title=" ">
<polygon fill="white" stroke="#666666" points="297,-574 141,-574 141,-555 297,-555 297,-574"/>
<text text-anchor="middle" x="219" y="-562" font-family="Helvetica,sans-Serif" font-size="10.00">RcvLiveTranscriptionsController</text>
</a>
</g>
</g>
<!-- Node0&#45;&gt;Node14 -->
<g id="edge13" class="edge">
<title>Node0&#45;&gt;Node14</title>
<path fill="none" stroke="#63b8ff" d="M84.54,-523.04C101.06,-530.42 121.87,-539.14 141,-545.5 151.06,-548.85 162.04,-551.9 172.46,-554.53"/>
<polygon fill="#63b8ff" stroke="#63b8ff" points="86.29,-519.99 75.74,-519.05 83.4,-526.37 86.29,-519.99"/>
</g>
<!-- Node15 -->
<g id="node15" class="node">
<title>Node15</title>
<g id="a_node15"><a xlink:href="interface_rcv_meeting_bridge_info.html" target="_top" xlink:title=" ">
<polygon fill="white" stroke="#666666" points="275.5,-537 162.5,-537 162.5,-518 275.5,-518 275.5,-537"/>
<text text-anchor="middle" x="219" y="-525" font-family="Helvetica,sans-Serif" font-size="10.00">RcvMeetingBridgeInfo</text>
</a>
</g>
</g>
<!-- Node0&#45;&gt;Node15 -->
<g id="edge14" class="edge">
<title>Node0&#45;&gt;Node15</title>
<path fill="none" stroke="#63b8ff" d="M93.37,-513.1C114,-515.49 139.52,-518.44 162.09,-521.04"/>
<polygon fill="#63b8ff" stroke="#63b8ff" points="93.99,-509.65 83.66,-511.98 93.19,-516.61 93.99,-509.65"/>
</g>
<!-- Node16 -->
<g id="node16" class="node">
<title>Node16</title>
<g id="a_node16"><a xlink:href="interface_rcv_meeting_chat_controller.html" target="_top" xlink:title=" ">
<polygon fill="white" stroke="#666666" points="285,-500 153,-500 153,-481 285,-481 285,-500"/>
<text text-anchor="middle" x="219" y="-488" font-family="Helvetica,sans-Serif" font-size="10.00">RcvMeetingChatController</text>
</a>
</g>
</g>
<!-- Node0&#45;&gt;Node16 -->
<g id="edge15" class="edge">
<title>Node0&#45;&gt;Node16</title>
<path fill="none" stroke="#63b8ff" d="M93.57,-504.12C111.38,-502.17 132.82,-499.82 152.84,-497.63"/>
<polygon fill="#63b8ff" stroke="#63b8ff" points="93.22,-500.63 83.66,-505.2 93.98,-507.59 93.22,-500.63"/>
</g>
<!-- Node17 -->
<g id="node17" class="node">
<title>Node17</title>
<g id="a_node17"><a xlink:href="interface_rcv_meeting_chat_message.html" target="_top" xlink:title=" ">
<polygon fill="white" stroke="#666666" points="284,-463 154,-463 154,-444 284,-444 284,-463"/>
<text text-anchor="middle" x="219" y="-451" font-family="Helvetica,sans-Serif" font-size="10.00">RcvMeetingChatMessage</text>
</a>
</g>
</g>
<!-- Node0&#45;&gt;Node17 -->
<g id="edge16" class="edge">
<title>Node0&#45;&gt;Node17</title>
<path fill="none" stroke="#63b8ff" d="M84.51,-493.86C101.02,-486.46 121.83,-477.74 141,-471.5 150.14,-468.52 160.04,-465.83 169.59,-463.49"/>
<polygon fill="#63b8ff" stroke="#63b8ff" points="83.36,-490.54 75.71,-497.87 86.26,-496.91 83.36,-490.54"/>
</g>
<!-- Node18 -->
<g id="node18" class="node">
<title>Node18</title>
<g id="a_node18"><a xlink:href="interface_rcv_meeting_context_controller.html" target="_top" xlink:title=" ">
<polygon fill="white" stroke="#666666" points="292,-426 146,-426 146,-407 292,-407 292,-426"/>
<text text-anchor="middle" x="219" y="-414" font-family="Helvetica,sans-Serif" font-size="10.00">RcvMeetingContextController</text>
</a>
</g>
</g>
<!-- Node0&#45;&gt;Node18 -->
<g id="edge17" class="edge">
<title>Node0&#45;&gt;Node18</title>
<path fill="none" stroke="#63b8ff" d="M69.68,-490.6C86.03,-473.62 112.85,-448.65 141,-434.5 147.38,-431.29 154.34,-428.65 161.39,-426.47"/>
<polygon fill="#63b8ff" stroke="#63b8ff" points="67.45,-487.86 63.17,-497.55 72.56,-492.65 67.45,-487.86"/>
</g>
<!-- Node19 -->
<g id="node19" class="node">
<title>Node19</title>
<g id="a_node19"><a xlink:href="interface_rcv_meeting_controller.html" target="_top" xlink:title=" ">
<polygon fill="white" stroke="#666666" points="274.5,-389 163.5,-389 163.5,-370 274.5,-370 274.5,-389"/>
<text text-anchor="middle" x="219" y="-377" font-family="Helvetica,sans-Serif" font-size="10.00">RcvMeetingController</text>
</a>
</g>
</g>
<!-- Node0&#45;&gt;Node19 -->
<g id="edge18" class="edge">
<title>Node0&#45;&gt;Node19</title>
<path fill="none" stroke="#63b8ff" d="M63.54,-488.78C77.43,-463.57 104.93,-420.44 141,-397.5 147.72,-393.23 155.35,-389.97 163.12,-387.48"/>
<polygon fill="#63b8ff" stroke="#63b8ff" points="60.59,-486.86 58.99,-497.33 66.78,-490.14 60.59,-486.86"/>
</g>
<!-- Node20 -->
<g id="node20" class="node">
<title>Node20</title>
<g id="a_node20"><a xlink:href="interface_rcv_meeting_options.html" target="_top" xlink:title=" ">
<polygon fill="white" stroke="#666666" points="270.5,-352 167.5,-352 167.5,-333 270.5,-333 270.5,-352"/>
<text text-anchor="middle" x="219" y="-340" font-family="Helvetica,sans-Serif" font-size="10.00">RcvMeetingOptions</text>
</a>
</g>
</g>
<!-- Node0&#45;&gt;Node20 -->
<g id="edge19" class="edge">
<title>Node0&#45;&gt;Node20</title>
<path fill="none" stroke="#63b8ff" d="M59.79,-487.91C70.77,-455.54 96.62,-393.08 141,-360.5 148.75,-354.81 158.01,-350.89 167.39,-348.19"/>
<polygon fill="#63b8ff" stroke="#63b8ff" points="56.5,-486.68 56.76,-497.28 63.16,-488.84 56.5,-486.68"/>
</g>
<!-- Node21 -->
<g id="node21" class="node">
<title>Node21</title>
<g id="a_node21"><a xlink:href="interface_rcv_meeting_user_controller.html" target="_top" xlink:title=" ">
<polygon fill="white" stroke="#666666" points="285,-315 153,-315 153,-296 285,-296 285,-315"/>
<text text-anchor="middle" x="219" y="-303" font-family="Helvetica,sans-Serif" font-size="10.00">RcvMeetingUserController</text>
</a>
</g>
</g>
<!-- Node0&#45;&gt;Node21 -->
<g id="edge20" class="edge">
<title>Node0&#45;&gt;Node21</title>
<path fill="none" stroke="#63b8ff" d="M57.25,-487.5C65.3,-448.8 87.99,-366.31 141,-323.5 144.95,-320.31 149.37,-317.66 154.04,-315.47"/>
<polygon fill="#63b8ff" stroke="#63b8ff" points="53.85,-486.65 55.38,-497.13 60.72,-487.98 53.85,-486.65"/>
</g>
<!-- Node22 -->
<g id="node22" class="node">
<title>Node22</title>
<g id="a_node22"><a xlink:href="interface_rcv_oauth_options.html" target="_top" xlink:title=" ">
<polygon fill="white" stroke="#666666" points="266.5,-278 171.5,-278 171.5,-259 266.5,-259 266.5,-278"/>
<text text-anchor="middle" x="219" y="-266" font-family="Helvetica,sans-Serif" font-size="10.00">RcvOauthOptions</text>
</a>
</g>
</g>
<!-- Node0&#45;&gt;Node22 -->
<g id="edge21" class="edge">
<title>Node0&#45;&gt;Node22</title>
<path fill="none" stroke="#63b8ff" d="M55.42,-487.4C60.62,-443.08 79.08,-339.99 141,-286.5 149.41,-279.23 160.21,-274.76 171.04,-272.04"/>
<polygon fill="#63b8ff" stroke="#63b8ff" points="51.95,-486.89 54.39,-497.2 58.92,-487.62 51.95,-486.89"/>
</g>
<!-- Node23 -->
<g id="node23" class="node">
<title>Node23</title>
<g id="a_node23"><a xlink:href="interface_rcv_personal_meeting_settings.html" target="_top" xlink:title=" ">
<polygon fill="white" stroke="#666666" points="290.5,-241 147.5,-241 147.5,-222 290.5,-222 290.5,-241"/>
<text text-anchor="middle" x="219" y="-229" font-family="Helvetica,sans-Serif" font-size="10.00">RcvPersonalMeetingSettings</text>
</a>
</g>
</g>
<!-- Node0&#45;&gt;Node23 -->
<g id="edge22" class="edge">
<title>Node0&#45;&gt;Node23</title>
<path fill="none" stroke="#63b8ff" d="M54.07,-487.36C56.59,-437.89 70.04,-313.94 141,-249.5 144.56,-246.27 148.58,-243.59 152.88,-241.36"/>
<polygon fill="#63b8ff" stroke="#63b8ff" points="50.57,-487.1 53.68,-497.23 57.57,-487.37 50.57,-487.1"/>
</g>
<!-- Node24 -->
<g id="node24" class="node">
<title>Node24</title>
<g id="a_node24"><a xlink:href="interface_rcv_recording_controller.html" target="_top" xlink:title=" ">
<polygon fill="white" stroke="#666666" points="279.5,-204 158.5,-204 158.5,-185 279.5,-185 279.5,-204"/>
<text text-anchor="middle" x="219" y="-192" font-family="Helvetica,sans-Serif" font-size="10.00">RcvRecordingController</text>
</a>
</g>
</g>
<!-- Node0&#45;&gt;Node24 -->
<g id="edge23" class="edge">
<title>Node0&#45;&gt;Node24</title>
<path fill="none" stroke="#63b8ff" d="M53.02,-487.33C53.02,-433.09 60.91,-288.09 141,-212.5 145.99,-207.79 151.97,-204.23 158.36,-201.56"/>
<polygon fill="#63b8ff" stroke="#63b8ff" points="49.52,-487.07 53.13,-497.03 56.52,-486.99 49.52,-487.07"/>
</g>
<!-- Node25 -->
<g id="node25" class="node">
<title>Node25</title>
<g id="a_node25"><a xlink:href="interface_rcv_schedule_meeting_settings.html" target="_top" xlink:title=" ">
<polygon fill="white" stroke="#666666" points="292,-167 146,-167 146,-148 292,-148 292,-167"/>
<text text-anchor="middle" x="219" y="-155" font-family="Helvetica,sans-Serif" font-size="10.00">RcvScheduleMeetingSettings</text>
</a>
</g>
</g>
<!-- Node0&#45;&gt;Node25 -->
<g id="edge24" class="edge">
<title>Node0&#45;&gt;Node25</title>
<path fill="none" stroke="#63b8ff" d="M56.18,-487.49C65.02,-421.47 95.31,-219.95 141,-175.5 144.25,-172.34 147.94,-169.7 151.9,-167.49"/>
<polygon fill="#63b8ff" stroke="#63b8ff" points="52.72,-486.93 54.9,-497.3 59.66,-487.84 52.72,-486.93"/>
</g>
<!-- Node26 -->
<g id="node26" class="node">
<title>Node26</title>
<g id="a_node26"><a xlink:href="interface_rcv_screen_share_service.html" target="_top" xlink:title=" ">
<polygon fill="white" stroke="#666666" points="281,-130 157,-130 157,-111 281,-111 281,-130"/>
<text text-anchor="middle" x="219" y="-118" font-family="Helvetica,sans-Serif" font-size="10.00">RcvScreenShareService</text>
</a>
</g>
</g>
<!-- Node0&#45;&gt;Node26 -->
<g id="edge25" class="edge">
<title>Node0&#45;&gt;Node26</title>
<path fill="none" stroke="#63b8ff" d="M55.59,-487.5C63.04,-416.76 90.62,-188.75 141,-138.5 145.47,-134.04 150.82,-130.6 156.59,-127.96"/>
<polygon fill="#63b8ff" stroke="#63b8ff" points="52.12,-486.99 54.58,-497.3 59.08,-487.71 52.12,-486.99"/>
</g>
<!-- Node27 -->
<g id="node27" class="node">
<title>Node27</title>
<g id="a_node27"><a xlink:href="interface_rcv_sharing_controller.html" target="_top" xlink:title=" ">
<polygon fill="white" stroke="#666666" points="274,-93 164,-93 164,-74 274,-74 274,-93"/>
<text text-anchor="middle" x="219" y="-81" font-family="Helvetica,sans-Serif" font-size="10.00">RcvSharingController</text>
</a>
</g>
</g>
<!-- Node0&#45;&gt;Node27 -->
<g id="edge26" class="edge">
<title>Node0&#45;&gt;Node27</title>
<path fill="none" stroke="#63b8ff" d="M55.11,-487.38C61.29,-411.97 85.94,-157.55 141,-101.5 147.25,-95.13 155.3,-90.84 163.81,-87.98"/>
<polygon fill="#63b8ff" stroke="#63b8ff" points="51.64,-486.84 54.34,-497.08 58.62,-487.39 51.64,-486.84"/>
</g>
<!-- Node28 -->
<g id="node28" class="node">
<title>Node28</title>
<g id="a_node28"><a xlink:href="interface_rcv_video_controller.html" target="_top" xlink:title=" ">
<polygon fill="white" stroke="#666666" points="269.5,-56 168.5,-56 168.5,-37 269.5,-37 269.5,-56"/>
<text text-anchor="middle" x="219" y="-44" font-family="Helvetica,sans-Serif" font-size="10.00">RcvVideoController</text>
</a>
</g>
</g>
<!-- Node0&#45;&gt;Node28 -->
<g id="edge27" class="edge">
<title>Node0&#45;&gt;Node28</title>
<path fill="none" stroke="#63b8ff" d="M54.69,-487.55C59.63,-408.07 81.16,-126.47 141,-64.5 148.25,-56.99 157.98,-52.36 168.08,-49.55"/>
<polygon fill="#63b8ff" stroke="#63b8ff" points="51.21,-487.17 54.11,-497.37 58.19,-487.59 51.21,-487.17"/>
</g>
<!-- Node29 -->
<g id="node29" class="node">
<title>Node29</title>
<g id="a_node29"><a xlink:href="interface_rcv_video_device_manager.html" target="_top" xlink:title=" ">
<polygon fill="white" stroke="#666666" points="283,-19 155,-19 155,0 283,0 283,-19"/>
<text text-anchor="middle" x="219" y="-7" font-family="Helvetica,sans-Serif" font-size="10.00">RcvVideoDeviceManager</text>
</a>
</g>
</g>
<!-- Node0&#45;&gt;Node29 -->
<g id="edge28" class="edge">
<title>Node0&#45;&gt;Node29</title>
<path fill="none" stroke="#63b8ff" d="M54.35,-487.45C58.16,-403.69 76.44,-95.35 141,-27.5 144.88,-23.42 149.49,-20.19 154.5,-17.63"/>
<polygon fill="#63b8ff" stroke="#63b8ff" points="50.86,-487.24 53.92,-497.38 57.85,-487.54 50.86,-487.24"/>
</g>
<!-- Node2 -->
<g id="node30" class="node">
<title>Node2</title>
<g id="a_node30"><a xlink:href="protocol_rcv_video_canvas-p.html" target="_top" xlink:title=" ">
<polygon fill="white" stroke="#666666" points="105,-1018 0,-1018 0,-999 105,-999 105,-1018"/>
<text text-anchor="middle" x="52.5" y="-1006" font-family="Helvetica,sans-Serif" font-size="10.00">&lt;RcvVideoCanvas&gt;</text>
</a>
</g>
</g>
<!-- Node2&#45;&gt;Node1 -->
<g id="edge29" class="edge">
<title>Node2&#45;&gt;Node1</title>
<path fill="none" stroke="#63b8ff" d="M116.41,-1008.5C135.45,-1008.5 155.95,-1008.5 173.52,-1008.5"/>
<polygon fill="#63b8ff" stroke="#63b8ff" points="116.61,-1005 106.61,-1008.5 116.61,-1012 116.61,-1005"/>
</g>
</g>
</svg>
