<?xml version="1.0" encoding="UTF-8" standalone="no"?>
<!DOCTYPE svg PUBLIC "-//W3C//DTD SVG 1.1//EN"
 "http://www.w3.org/Graphics/SVG/1.1/DTD/svg11.dtd">
<!-- Generated by graphviz version 8.0.4 (20230421.1958)
 -->
<!-- Title: Graphical Class Hierarchy Pages: 1 -->
<svg width="289pt" height="212pt"
 viewBox="0.00 0.00 289.00 212.25" xmlns="http://www.w3.org/2000/svg" xmlns:xlink="http://www.w3.org/1999/xlink">
<g id="graph0" class="graph" transform="scale(1 1) rotate(0) translate(4 208.25)">
<title>Graphical Class Hierarchy</title>
<!-- Node0 -->
<g id="node1" class="node">
<title>Node0</title>
<g id="a_node1"><a xlink:title=" ">
<polygon fill="#e0e0e0" stroke="#999999" points="70.75,-111.25 0,-111.25 0,-92 70.75,-92 70.75,-111.25"/>
<text text-anchor="middle" x="35.38" y="-97.75" font-family="Helvetica,sans-Serif" font-size="10.00">&lt;NSObject&gt;</text>
</a>
</g>
</g>
<!-- Node1 -->
<g id="node2" class="node">
<title>Node1</title>
<g id="a_node2"><a xlink:href="protocol_r_c_v_i_video_canvas_delage-p.html" target="_top" xlink:title=" ">
<polygon fill="white" stroke="#666666" points="264.88,-204.25 122.88,-204.25 122.88,-185 264.88,-185 264.88,-204.25"/>
<text text-anchor="middle" x="193.88" y="-190.75" font-family="Helvetica,sans-Serif" font-size="10.00">&lt;RCVIVideoCanvasDelage&gt;</text>
</a>
</g>
</g>
<!-- Node0&#45;&gt;Node1 -->
<g id="edge1" class="edge">
<title>Node0&#45;&gt;Node1</title>
<path fill="none" stroke="#63b8ff" d="M48.86,-120.46C61.39,-137.82 82.32,-162.91 106.75,-176.62 112.34,-179.77 118.42,-182.36 124.67,-184.5"/>
<polygon fill="#63b8ff" stroke="#63b8ff" points="51.37,-118.95 42.79,-112.73 45.62,-122.94 51.37,-118.95"/>
</g>
<!-- Node2 -->
<g id="node3" class="node">
<title>Node2</title>
<g id="a_node3"><a xlink:href="protocol_rcv_annotation_edit_delegate-p.html" target="_top" xlink:title=" ">
<polygon fill="white" stroke="#666666" points="268.25,-167.25 119.5,-167.25 119.5,-148 268.25,-148 268.25,-167.25"/>
<text text-anchor="middle" x="193.88" y="-153.75" font-family="Helvetica,sans-Serif" font-size="10.00">&lt;RcvAnnotationEditDelegate&gt;</text>
</a>
</g>
</g>
<!-- Node0&#45;&gt;Node2 -->
<g id="edge2" class="edge">
<title>Node0&#45;&gt;Node2</title>
<path fill="none" stroke="#63b8ff" d="M60.98,-117.19C74.13,-124.92 90.85,-133.81 106.75,-139.62 115.21,-142.72 124.35,-145.34 133.4,-147.55"/>
<polygon fill="#63b8ff" stroke="#63b8ff" points="63.06,-113.76 52.7,-111.59 59.45,-119.75 63.06,-113.76"/>
</g>
<!-- Node3 -->
<g id="node4" class="node">
<title>Node3</title>
<g id="a_node4"><a xlink:href="protocol_rcv_annotation_edit_view-p.html" target="_top" xlink:title=" ">
<polygon fill="white" stroke="#666666" points="259.62,-130.25 128.12,-130.25 128.12,-111 259.62,-111 259.62,-130.25"/>
<text text-anchor="middle" x="193.88" y="-116.75" font-family="Helvetica,sans-Serif" font-size="10.00">&lt;RcvAnnotationEditView&gt;</text>
</a>
</g>
</g>
<!-- Node0&#45;&gt;Node3 -->
<g id="edge3" class="edge">
<title>Node0&#45;&gt;Node3</title>
<path fill="none" stroke="#63b8ff" d="M81.7,-107.13C96.06,-108.87 112.23,-110.83 127.7,-112.71"/>
<polygon fill="#63b8ff" stroke="#63b8ff" points="82.46,-103.57 72.11,-105.84 81.61,-110.52 82.46,-103.57"/>
</g>
<!-- Node4 -->
<g id="node5" class="node">
<title>Node4</title>
<g id="a_node5"><a xlink:href="protocol_rcv_annotation_view_delegate-p.html" target="_top" xlink:title=" ">
<polygon fill="white" stroke="#666666" points="270.5,-93.25 117.25,-93.25 117.25,-74 270.5,-74 270.5,-93.25"/>
<text text-anchor="middle" x="193.88" y="-79.75" font-family="Helvetica,sans-Serif" font-size="10.00">&lt;RcvAnnotationViewDelegate&gt;</text>
</a>
</g>
</g>
<!-- Node0&#45;&gt;Node4 -->
<g id="edge4" class="edge">
<title>Node0&#45;&gt;Node4</title>
<path fill="none" stroke="#63b8ff" d="M81.75,-96.41C92.78,-95.14 104.88,-93.75 116.91,-92.36"/>
<polygon fill="#63b8ff" stroke="#63b8ff" points="81.64,-93.01 72.11,-97.63 82.44,-99.96 81.64,-93.01"/>
</g>
<!-- Node5 -->
<g id="node6" class="node">
<title>Node5</title>
<g id="a_node6"><a xlink:href="protocol_rcv_custom_video_view_delegate-p.html" target="_top" xlink:title=" ">
<polygon fill="white" stroke="#666666" points="276.88,-56.25 110.88,-56.25 110.88,-37 276.88,-37 276.88,-56.25"/>
<text text-anchor="middle" x="193.88" y="-42.75" font-family="Helvetica,sans-Serif" font-size="10.00">&lt;RcvCustomVideoViewDelegate&gt;</text>
</a>
</g>
</g>
<!-- Node0&#45;&gt;Node5 -->
<g id="edge5" class="edge">
<title>Node0&#45;&gt;Node5</title>
<path fill="none" stroke="#63b8ff" d="M61.55,-86.2C74.63,-78.75 91.12,-70.24 106.75,-64.62 115.38,-61.53 124.69,-58.89 133.89,-56.67"/>
<polygon fill="#63b8ff" stroke="#63b8ff" points="60.15,-83.55 53.28,-91.62 63.68,-89.59 60.15,-83.55"/>
</g>
<!-- Node6 -->
<g id="node7" class="node">
<title>Node6</title>
<g id="a_node7"><a xlink:href="protocol_rcv_screen_share_service_delegate-p.html" target="_top" xlink:title=" ">
<polygon fill="white" stroke="#666666" points="281,-19.25 106.75,-19.25 106.75,0 281,0 281,-19.25"/>
<text text-anchor="middle" x="193.88" y="-5.75" font-family="Helvetica,sans-Serif" font-size="10.00">&lt;RcvScreenShareServiceDelegate&gt;</text>
</a>
</g>
</g>
<!-- Node0&#45;&gt;Node6 -->
<g id="edge6" class="edge">
<title>Node0&#45;&gt;Node6</title>
<path fill="none" stroke="#63b8ff" d="M48.91,-83.04C61.49,-65.91 82.44,-41.17 106.75,-27.62 112.49,-24.43 118.73,-21.8 125.14,-19.63"/>
<polygon fill="#63b8ff" stroke="#63b8ff" points="45.74,-80.47 42.82,-90.65 51.45,-84.51 45.74,-80.47"/>
</g>
</g>
</svg>
