<?xml version="1.0" encoding="UTF-8" standalone="no"?>
<!DOCTYPE svg PUBLIC "-//W3C//DTD SVG 1.1//EN"
 "http://www.w3.org/Graphics/SVG/1.1/DTD/svg11.dtd">
<!-- Generated by graphviz version 8.0.1 (20230327.1645)
 -->
<!-- Title: Graphical Class Hierarchy Pages: 1 -->
<svg width="290pt" height="212pt"
 viewBox="0.00 0.00 290.00 212.00" xmlns="http://www.w3.org/2000/svg" xmlns:xlink="http://www.w3.org/1999/xlink">
<g id="graph0" class="graph" transform="scale(1 1) rotate(0) translate(4 208)">
<title>Graphical Class Hierarchy</title>
<!-- Node0 -->
<g id="node1" class="node">
<title>Node0</title>
<g id="a_node1"><a xlink:title=" ">
<polygon fill="#e0e0e0" stroke="#999999" points="71,-111 0,-111 0,-92 71,-92 71,-111"/>
<text text-anchor="middle" x="35.5" y="-99" font-family="Helvetica,sans-Serif" font-size="10.00">&lt;NSObject&gt;</text>
</a>
</g>
</g>
<!-- Node1 -->
<g id="node2" class="node">
<title>Node1</title>
<g id="a_node2"><a xlink:href="protocol_r_c_v_i_video_canvas_delage-p.html" target="_top" xlink:title=" ">
<polygon fill="white" stroke="#666666" points="266,-204 123,-204 123,-185 266,-185 266,-204"/>
<text text-anchor="middle" x="194.5" y="-192" font-family="Helvetica,sans-Serif" font-size="10.00">&lt;RCVIVideoCanvasDelage&gt;</text>
</a>
</g>
</g>
<!-- Node0&#45;&gt;Node1 -->
<g id="edge1" class="edge">
<title>Node0&#45;&gt;Node1</title>
<path fill="none" stroke="#63b8ff" d="M48.81,-120.06C61.34,-137.43 82.4,-162.72 107,-176.5 112.75,-179.72 119.02,-182.37 125.45,-184.55"/>
<polygon fill="#63b8ff" stroke="#63b8ff" points="51.33,-118.56 42.75,-112.35 45.58,-122.56 51.33,-118.56"/>
</g>
<!-- Node2 -->
<g id="node3" class="node">
<title>Node2</title>
<g id="a_node3"><a xlink:href="protocol_rcv_annotation_edit_delegate-p.html" target="_top" xlink:title=" ">
<polygon fill="white" stroke="#666666" points="269,-167 120,-167 120,-148 269,-148 269,-167"/>
<text text-anchor="middle" x="194.5" y="-155" font-family="Helvetica,sans-Serif" font-size="10.00">&lt;RcvAnnotationEditDelegate&gt;</text>
</a>
</g>
</g>
<!-- Node0&#45;&gt;Node2 -->
<g id="edge2" class="edge">
<title>Node0&#45;&gt;Node2</title>
<path fill="none" stroke="#63b8ff" d="M61.15,-117.07C74.33,-124.8 91.07,-133.69 107,-139.5 115.65,-142.65 124.99,-145.32 134.23,-147.55"/>
<polygon fill="#63b8ff" stroke="#63b8ff" points="63.22,-113.63 52.85,-111.46 59.61,-119.62 63.22,-113.63"/>
</g>
<!-- Node3 -->
<g id="node4" class="node">
<title>Node3</title>
<g id="a_node4"><a xlink:href="protocol_rcv_annotation_edit_view-p.html" target="_top" xlink:title=" ">
<polygon fill="white" stroke="#666666" points="260.5,-130 128.5,-130 128.5,-111 260.5,-111 260.5,-130"/>
<text text-anchor="middle" x="194.5" y="-118" font-family="Helvetica,sans-Serif" font-size="10.00">&lt;RcvAnnotationEditView&gt;</text>
</a>
</g>
</g>
<!-- Node0&#45;&gt;Node3 -->
<g id="edge3" class="edge">
<title>Node0&#45;&gt;Node3</title>
<path fill="none" stroke="#63b8ff" d="M81.97,-107C96.37,-108.75 112.6,-110.71 128.12,-112.59"/>
<polygon fill="#63b8ff" stroke="#63b8ff" points="82.69,-103.44 72.34,-105.72 81.85,-110.39 82.69,-103.44"/>
</g>
<!-- Node4 -->
<g id="node5" class="node">
<title>Node4</title>
<g id="a_node5"><a xlink:href="protocol_rcv_annotation_view_delegate-p.html" target="_top" xlink:title=" ">
<polygon fill="white" stroke="#666666" points="271.5,-93 117.5,-93 117.5,-74 271.5,-74 271.5,-93"/>
<text text-anchor="middle" x="194.5" y="-81" font-family="Helvetica,sans-Serif" font-size="10.00">&lt;RcvAnnotationViewDelegate&gt;</text>
</a>
</g>
</g>
<!-- Node0&#45;&gt;Node4 -->
<g id="edge4" class="edge">
<title>Node0&#45;&gt;Node4</title>
<path fill="none" stroke="#63b8ff" d="M82.02,-96.28C93.09,-95.01 105.23,-93.62 117.3,-92.24"/>
<polygon fill="#63b8ff" stroke="#63b8ff" points="81.88,-92.89 72.34,-97.51 82.68,-99.84 81.88,-92.89"/>
</g>
<!-- Node5 -->
<g id="node6" class="node">
<title>Node5</title>
<g id="a_node6"><a xlink:href="protocol_rcv_custom_video_view_delegate-p.html" target="_top" xlink:title=" ">
<polygon fill="white" stroke="#666666" points="278,-56 111,-56 111,-37 278,-37 278,-56"/>
<text text-anchor="middle" x="194.5" y="-44" font-family="Helvetica,sans-Serif" font-size="10.00">&lt;RcvCustomVideoViewDelegate&gt;</text>
</a>
</g>
</g>
<!-- Node0&#45;&gt;Node5 -->
<g id="edge5" class="edge">
<title>Node0&#45;&gt;Node5</title>
<path fill="none" stroke="#63b8ff" d="M62.32,-86.3C75.36,-79.15 91.64,-71.01 107,-65.5 116.84,-61.97 127.56,-58.98 137.99,-56.48"/>
<polygon fill="#63b8ff" stroke="#63b8ff" points="61.05,-83.56 54.05,-91.51 64.48,-89.66 61.05,-83.56"/>
</g>
<!-- Node6 -->
<g id="node7" class="node">
<title>Node6</title>
<g id="a_node7"><a xlink:href="protocol_rcv_screen_share_service_delegate-p.html" target="_top" xlink:title=" ">
<polygon fill="white" stroke="#666666" points="282,-19 107,-19 107,0 282,0 282,-19"/>
<text text-anchor="middle" x="194.5" y="-7" font-family="Helvetica,sans-Serif" font-size="10.00">&lt;RcvScreenShareServiceDelegate&gt;</text>
</a>
</g>
</g>
<!-- Node0&#45;&gt;Node6 -->
<g id="edge6" class="edge">
<title>Node0&#45;&gt;Node6</title>
<path fill="none" stroke="#63b8ff" d="M49.16,-83.23C61.82,-66.37 82.86,-41.99 107,-28.5 113.58,-24.83 120.81,-21.86 128.19,-19.47"/>
<polygon fill="#63b8ff" stroke="#63b8ff" points="46.05,-80.55 43.01,-90.7 51.72,-84.66 46.05,-80.55"/>
</g>
</g>
</svg>
