<?xml version="1.0" encoding="UTF-8" standalone="no"?>
<!DOCTYPE svg PUBLIC "-//W3C//DTD SVG 1.1//EN"
 "http://www.w3.org/Graphics/SVG/1.1/DTD/svg11.dtd">
<!-- Generated by graphviz version 8.1.0 (20230707.0739)
 -->
<!-- Title: RcvBaseVideoView Pages: 1 -->
<svg width="385pt" height="332pt"
 viewBox="0.00 0.00 384.50 332.00" xmlns="http://www.w3.org/2000/svg" xmlns:xlink="http://www.w3.org/1999/xlink">

<svg id="main" version="1.1" xmlns="http://www.w3.org/2000/svg" xmlns:xlink="http://www.w3.org/1999/xlink" xml:space="preserve" onload="init(evt)">
<style type="text/css"><![CDATA[
.node, .edge {opacity: 0.7;}
.node.selected, .edge.selected {opacity: 1;}
.edge:hover path { stroke: red; }
.edge:hover polygon { stroke: red; fill: red; }
]]></style>
<script type="application/ecmascript" xlink:href="svg.min.js"/>
<svg id="graph" class="graph">
<g id="graph0" class="graph" transform="scale(1 1) rotate(0) translate(4 328)">
<title>RcvBaseVideoView</title>
<!-- Node1 -->
<g id="Node000001" class="node">
<title>Node1</title>
<g id="a_Node000001"><a xlink:title=" ">
<polygon fill="#999999" stroke="none" points="219.5,-239 122.5,-239 122.5,-85 219.5,-85 219.5,-239"/>
<text text-anchor="start" x="127.5" y="-225.5" font-family="Helvetica,sans-Serif" font-size="10.00">RcvBaseVideoView</text>
<text text-anchor="start" x="127" y="-210.5" font-family="Helvetica,sans-Serif" font-size="10.00">+</text>
<text text-anchor="start" x="137.5" y="-210.5" font-family="Helvetica,sans-Serif" font-size="10.00">delegate</text>
<text text-anchor="start" x="127" y="-195.5" font-family="Helvetica,sans-Serif" font-size="10.00">+</text>
<text text-anchor="start" x="137.5" y="-195.5" font-family="Helvetica,sans-Serif" font-size="10.00">renderMode</text>
<text text-anchor="start" x="127" y="-180.5" font-family="Helvetica,sans-Serif" font-size="10.00">+</text>
<text text-anchor="start" x="137.5" y="-180.5" font-family="Helvetica,sans-Serif" font-size="10.00">mirrorMode</text>
<text text-anchor="start" x="127" y="-165.5" font-family="Helvetica,sans-Serif" font-size="10.00">+</text>
<text text-anchor="start" x="137.5" y="-165.5" font-family="Helvetica,sans-Serif" font-size="10.00">getRenderer</text>
<text text-anchor="start" x="127" y="-150.5" font-family="Helvetica,sans-Serif" font-size="10.00">+</text>
<text text-anchor="start" x="137.5" y="-150.5" font-family="Helvetica,sans-Serif" font-size="10.00">showRenderer</text>
<text text-anchor="start" x="127" y="-135.5" font-family="Helvetica,sans-Serif" font-size="10.00">+</text>
<text text-anchor="start" x="137.5" y="-135.5" font-family="Helvetica,sans-Serif" font-size="10.00">hideRenderer</text>
<text text-anchor="start" x="127" y="-120.5" font-family="Helvetica,sans-Serif" font-size="10.00">+</text>
<text text-anchor="start" x="137.5" y="-120.5" font-family="Helvetica,sans-Serif" font-size="10.00">updateRenderer</text>
<text text-anchor="start" x="127" y="-105.5" font-family="Helvetica,sans-Serif" font-size="10.00">+</text>
<text text-anchor="start" x="137.5" y="-105.5" font-family="Helvetica,sans-Serif" font-size="10.00">getVideoSize</text>
<text text-anchor="start" x="127" y="-90.5" font-family="Helvetica,sans-Serif" font-size="10.00">+</text>
<text text-anchor="start" x="137.5" y="-90.5" font-family="Helvetica,sans-Serif" font-size="10.00">restoreVideoSize:</text>
<polygon fill="#666666" stroke="#666666" points="122.5,-222 122.5,-222 219.5,-222 219.5,-222 122.5,-222"/>
<polygon fill="#666666" stroke="#666666" points="122.5,-177 122.5,-177 135.5,-177 135.5,-177 122.5,-177"/>
<polygon fill="#666666" stroke="#666666" points="135.5,-177 135.5,-177 219.5,-177 219.5,-177 135.5,-177"/>
<polygon fill="none" stroke="#666666" points="122.5,-85 122.5,-239 219.5,-239 219.5,-85 122.5,-85"/>
</a>
</g>
</g>
<!-- Node4 -->
<g id="Node000004" class="node">
<title>Node4</title>
<g id="a_Node000004"><a xlink:href="interface_rcv_metal_video_view.html" target="_top" xlink:title=" ">
<polygon fill="white" stroke="none" points="98,-49 0,-49 0,0 98,0 98,-49"/>
<text text-anchor="start" x="4.75" y="-35.5" font-family="Helvetica,sans-Serif" font-size="10.00">RcvMetalVideoView</text>
<text text-anchor="start" x="47.5" y="-20.5" font-family="Helvetica,sans-Serif" font-size="10.00"> </text>
<text text-anchor="start" x="47.5" y="-5.5" font-family="Helvetica,sans-Serif" font-size="10.00"> </text>
<polygon fill="#666666" stroke="#666666" points="0,-32 0,-32 98,-32 98,-32 0,-32"/>
<polygon fill="#666666" stroke="#666666" points="0,-17 0,-17 98,-17 98,-17 0,-17"/>
<polygon fill="none" stroke="#666666" points="0,0 0,-49 98,-49 98,0 0,0"/>
</a>
</g>
</g>
<!-- Node1&#45;&gt;Node4 -->
<g id="edge3_Node000001_Node000004" class="edge">
<title>Node1&#45;&gt;Node4</title>
<g id="a_edge3_Node000001_Node000004"><a xlink:title=" ">
<path fill="none" stroke="#63b8ff" d="M115.83,-99.72C99.48,-81.57 82.58,-62.79 69.86,-48.67"/>
<polygon fill="none" stroke="#63b8ff" points="112.49,-101.36 121.78,-106.45 117.69,-96.67 112.49,-101.36"/>
</a>
</g>
</g>
<!-- Node5 -->
<g id="Node000005" class="node">
<title>Node5</title>
<g id="a_Node000005"><a xlink:href="interface_rcv_open_g_l_video_view.html" target="_top" xlink:title=" ">
<polygon fill="white" stroke="none" points="225.5,-49 116.5,-49 116.5,0 225.5,0 225.5,-49"/>
<text text-anchor="start" x="121.12" y="-35.5" font-family="Helvetica,sans-Serif" font-size="10.00">RcvOpenGLVideoView</text>
<text text-anchor="start" x="169.5" y="-20.5" font-family="Helvetica,sans-Serif" font-size="10.00"> </text>
<text text-anchor="start" x="169.5" y="-5.5" font-family="Helvetica,sans-Serif" font-size="10.00"> </text>
<polygon fill="#666666" stroke="#666666" points="116.5,-32 116.5,-32 225.5,-32 225.5,-32 116.5,-32"/>
<polygon fill="#666666" stroke="#666666" points="116.5,-17 116.5,-17 225.5,-17 225.5,-17 116.5,-17"/>
<polygon fill="none" stroke="#666666" points="116.5,0 116.5,-49 225.5,-49 225.5,0 116.5,0"/>
</a>
</g>
</g>
<!-- Node1&#45;&gt;Node5 -->
<g id="edge4_Node000001_Node000005" class="edge">
<title>Node1&#45;&gt;Node5</title>
<g id="a_edge4_Node000001_Node000005"><a xlink:title=" ">
<path fill="none" stroke="#63b8ff" d="M171,-74.62C171,-65.29 171,-56.47 171,-48.95"/>
<polygon fill="none" stroke="#63b8ff" points="167.5,-74.33 171,-84.33 174.5,-74.33 167.5,-74.33"/>
</a>
</g>
</g>
<!-- Node6 -->
<g id="Node000006" class="node">
<title>Node6</title>
<g id="a_Node000006"><a xlink:href="interface_rcv_sample_buffer_video_view.html" target="_top" xlink:title=" ">
<polygon fill="white" stroke="none" points="376.5,-49 243.5,-49 243.5,0 376.5,0 376.5,-49"/>
<text text-anchor="start" x="248.12" y="-35.5" font-family="Helvetica,sans-Serif" font-size="10.00">RcvSampleBufferVideoView</text>
<text text-anchor="start" x="308.5" y="-20.5" font-family="Helvetica,sans-Serif" font-size="10.00"> </text>
<text text-anchor="start" x="308.5" y="-5.5" font-family="Helvetica,sans-Serif" font-size="10.00"> </text>
<polygon fill="#666666" stroke="#666666" points="243.5,-32 243.5,-32 376.5,-32 376.5,-32 243.5,-32"/>
<polygon fill="#666666" stroke="#666666" points="243.5,-17 243.5,-17 376.5,-17 376.5,-17 243.5,-17"/>
<polygon fill="none" stroke="#666666" points="243.5,0 243.5,-49 376.5,-49 376.5,0 243.5,0"/>
</a>
</g>
</g>
<!-- Node1&#45;&gt;Node6 -->
<g id="edge5_Node000001_Node000006" class="edge">
<title>Node1&#45;&gt;Node6</title>
<g id="a_edge5_Node000001_Node000006"><a xlink:title=" ">
<path fill="none" stroke="#63b8ff" d="M227.01,-106.4C247.58,-86.35 269.78,-64.7 286.05,-48.85"/>
<polygon fill="none" stroke="#63b8ff" points="224.94,-103.5 220.23,-112.99 229.83,-108.51 224.94,-103.5"/>
</a>
</g>
</g>
<!-- Node2 -->
<g id="Node000002" class="node">
<title>Node2</title>
<g id="a_Node000002"><a xlink:title=" ">
<polygon fill="white" stroke="none" points="141,-324 99,-324 99,-275 141,-275 141,-324"/>
<text text-anchor="start" x="103.88" y="-310.5" font-family="Helvetica,sans-Serif" font-size="10.00">UIView</text>
<text text-anchor="start" x="118.5" y="-295.5" font-family="Helvetica,sans-Serif" font-size="10.00"> </text>
<text text-anchor="start" x="118.5" y="-280.5" font-family="Helvetica,sans-Serif" font-size="10.00"> </text>
<polygon fill="#666666" stroke="#666666" points="99,-307 99,-307 141,-307 141,-307 99,-307"/>
<polygon fill="#666666" stroke="#666666" points="99,-292 99,-292 141,-292 141,-292 99,-292"/>
<polygon fill="none" stroke="#666666" points="99,-275 99,-324 141,-324 141,-275 99,-275"/>
</a>
</g>
</g>
<!-- Node2&#45;&gt;Node1 -->
<g id="edge1_Node000001_Node000002" class="edge">
<title>Node2&#45;&gt;Node1</title>
<g id="a_edge1_Node000001_Node000002"><a xlink:title=" ">
<path fill="none" stroke="#63b8ff" d="M132.57,-265.1C135.63,-256.97 139.03,-247.95 142.5,-238.72"/>
<polygon fill="none" stroke="#63b8ff" points="129.01,-263.61 128.77,-274.21 135.57,-266.08 129.01,-263.61"/>
</a>
</g>
</g>
<!-- Node3 -->
<g id="Node000003" class="node">
<title>Node3</title>
<g id="a_Node000003"><a xlink:title=" ">
<polygon fill="white" stroke="none" points="287,-324 159,-324 159,-275 287,-275 287,-324"/>
<text text-anchor="start" x="163.75" y="-310.5" font-family="Helvetica,sans-Serif" font-size="10.00">&lt;RTCVideoViewDelegate&gt;</text>
<text text-anchor="start" x="221.5" y="-295.5" font-family="Helvetica,sans-Serif" font-size="10.00"> </text>
<text text-anchor="start" x="221.5" y="-280.5" font-family="Helvetica,sans-Serif" font-size="10.00"> </text>
<polygon fill="#666666" stroke="#666666" points="159,-307 159,-307 287,-307 287,-307 159,-307"/>
<polygon fill="#666666" stroke="#666666" points="159,-292 159,-292 287,-292 287,-292 159,-292"/>
<polygon fill="none" stroke="#666666" points="159,-275 159,-324 287,-324 287,-275 159,-275"/>
</a>
</g>
</g>
<!-- Node3&#45;&gt;Node1 -->
<g id="edge2_Node000001_Node000003" class="edge">
<title>Node3&#45;&gt;Node1</title>
<g id="a_edge2_Node000001_Node000003"><a xlink:title=" ">
<path fill="none" stroke="#63b8ff" d="M210.18,-265.1C207.06,-256.97 203.6,-247.95 200.06,-238.72"/>
<polygon fill="none" stroke="#63b8ff" points="207.21,-266.12 214.06,-274.21 213.75,-263.62 207.21,-266.12"/>
</a>
</g>
</g>
</g>
</svg>
</svg>

<style type='text/css'>
<![CDATA[
[data-mouse-over-selected='false'] { opacity: 0.7; }
[data-mouse-over-selected='true']  { opacity: 1.0; }
]]>
</style>
<script type="application/ecmascript"><![CDATA[
document.addEventListener('DOMContentLoaded', (event) => {
  highlightEdges();
  highlightAdjacentNodes();
});
]]></script>
</svg>
