<?xml version="1.0" encoding="UTF-8" standalone="no"?>
<!DOCTYPE svg PUBLIC "-//W3C//DTD SVG 1.1//EN"
 "http://www.w3.org/Graphics/SVG/1.1/DTD/svg11.dtd">
<!-- Generated by graphviz version 8.0.4 (20230421.1958)
 -->
<!-- Title: RcvMeetingUserController Pages: 1 -->
<svg width="140pt" height="297pt"
 viewBox="0.00 0.00 139.50 296.50" xmlns="http://www.w3.org/2000/svg" xmlns:xlink="http://www.w3.org/1999/xlink">
<g id="graph0" class="graph" transform="scale(1 1) rotate(0) translate(4 292.5)">
<title>RcvMeetingUserController</title>
<!-- Node1 -->
<g id="node1" class="node">
<title>Node1</title>
<g id="a_node1"><a xlink:title=" ">
<polygon fill="#999999" stroke="#666666" points="0,-0.5 0,-193.25 131.5,-193.25 131.5,-0.5 0,-0.5"/>
<text text-anchor="middle" x="65.75" y="-179.75" font-family="Helvetica,sans-Serif" font-size="10.00">RcvMeetingUserController</text>
<polyline fill="none" stroke="#666666" points="0,-174 131.5,-174"/>
<text text-anchor="middle" x="65.75" y="-160.5" font-family="Helvetica,sans-Serif" font-size="10.00"> </text>
<polyline fill="none" stroke="#666666" points="0,-154.75 131.5,-154.75"/>
<text text-anchor="start" x="8" y="-141.25" font-family="Helvetica,sans-Serif" font-size="10.00">+ registerEventHandler:</text>
<text text-anchor="start" x="8" y="-130" font-family="Helvetica,sans-Serif" font-size="10.00">+ unregisterEventHandler:</text>
<text text-anchor="start" x="8" y="-118.75" font-family="Helvetica,sans-Serif" font-size="10.00">+ assignModerators:</text>
<text text-anchor="start" x="8" y="-107.5" font-family="Helvetica,sans-Serif" font-size="10.00">+ revokeModerators:</text>
<text text-anchor="start" x="8" y="-96.25" font-family="Helvetica,sans-Serif" font-size="10.00">+ getMeetingUserList</text>
<text text-anchor="start" x="8" y="-85" font-family="Helvetica,sans-Serif" font-size="10.00">+ getMeetingUserById:</text>
<text text-anchor="start" x="8" y="-73.75" font-family="Helvetica,sans-Serif" font-size="10.00">+ getMyself</text>
<text text-anchor="start" x="8" y="-62.5" font-family="Helvetica,sans-Serif" font-size="10.00">+ getActiveVideoUser</text>
<text text-anchor="start" x="8" y="-51.25" font-family="Helvetica,sans-Serif" font-size="10.00">+ admitUser:</text>
<text text-anchor="start" x="8" y="-40" font-family="Helvetica,sans-Serif" font-size="10.00">+ admitAll</text>
<text text-anchor="start" x="8" y="-28.75" font-family="Helvetica,sans-Serif" font-size="10.00">+ denyUser:</text>
<text text-anchor="start" x="8" y="-17.5" font-family="Helvetica,sans-Serif" font-size="10.00">+ putInWaitingRoom:</text>
<text text-anchor="start" x="8" y="-6.25" font-family="Helvetica,sans-Serif" font-size="10.00">+ removeUser:</text>
</a>
</g>
</g>
<!-- Node2 -->
<g id="node2" class="node">
<title>Node2</title>
<g id="a_node2"><a xlink:title=" ">
<polygon fill="white" stroke="#666666" points="36.38,-230.25 36.38,-288 95.12,-288 95.12,-230.25 36.38,-230.25"/>
<text text-anchor="middle" x="65.75" y="-274.5" font-family="Helvetica,sans-Serif" font-size="10.00">NSObject</text>
<polyline fill="none" stroke="#666666" points="36.38,-268.75 95.12,-268.75"/>
<text text-anchor="middle" x="65.75" y="-255.25" font-family="Helvetica,sans-Serif" font-size="10.00"> </text>
<polyline fill="none" stroke="#666666" points="36.38,-249.5 95.12,-249.5"/>
<text text-anchor="middle" x="65.75" y="-236" font-family="Helvetica,sans-Serif" font-size="10.00"> </text>
</a>
</g>
</g>
<!-- Node2&#45;&gt;Node1 -->
<g id="edge1" class="edge">
<title>Node2&#45;&gt;Node1</title>
<path fill="none" stroke="#63b8ff" d="M65.75,-219.62C65.75,-211.45 65.75,-202.49 65.75,-193.24"/>
<polygon fill="none" stroke="#63b8ff" points="62.25,-219.58 65.75,-229.58 69.25,-219.58 62.25,-219.58"/>
</g>
</g>
</svg>
