<?xml version="1.0" encoding="UTF-8" standalone="no"?>
<!DOCTYPE svg PUBLIC "-//W3C//DTD SVG 1.1//EN"
 "http://www.w3.org/Graphics/SVG/1.1/DTD/svg11.dtd">
<!-- Generated by graphviz version 8.0.4 (20230421.1958)
 -->
<!-- Title: RcvClosedCaptionsData Pages: 1 -->
<svg width="133pt" height="184pt"
 viewBox="0.00 0.00 132.75 184.00" xmlns="http://www.w3.org/2000/svg" xmlns:xlink="http://www.w3.org/1999/xlink">
<g id="graph0" class="graph" transform="scale(1 1) rotate(0) translate(4 180)">
<title>RcvClosedCaptionsData</title>
<!-- Node1 -->
<g id="node1" class="node">
<title>Node1</title>
<g id="a_node1"><a xlink:title=" ">
<polygon fill="#999999" stroke="#666666" points="0,-0.5 0,-80.75 124.75,-80.75 124.75,-0.5 0,-0.5"/>
<text text-anchor="middle" x="62.38" y="-67.25" font-family="Helvetica,sans-Serif" font-size="10.00">RcvClosedCaptionsData</text>
<polyline fill="none" stroke="#666666" points="0,-61.5 124.75,-61.5"/>
<text text-anchor="middle" x="62.38" y="-48" font-family="Helvetica,sans-Serif" font-size="10.00"> </text>
<polyline fill="none" stroke="#666666" points="0,-42.25 124.75,-42.25"/>
<text text-anchor="start" x="8" y="-28.75" font-family="Helvetica,sans-Serif" font-size="10.00">+ getParticipant</text>
<text text-anchor="start" x="8" y="-17.5" font-family="Helvetica,sans-Serif" font-size="10.00">+ getTranscript</text>
<text text-anchor="start" x="8" y="-6.25" font-family="Helvetica,sans-Serif" font-size="10.00">+ getTimestamp</text>
</a>
</g>
</g>
<!-- Node2 -->
<g id="node2" class="node">
<title>Node2</title>
<g id="a_node2"><a xlink:title=" ">
<polygon fill="white" stroke="#666666" points="33,-117.75 33,-175.5 91.75,-175.5 91.75,-117.75 33,-117.75"/>
<text text-anchor="middle" x="62.38" y="-162" font-family="Helvetica,sans-Serif" font-size="10.00">NSObject</text>
<polyline fill="none" stroke="#666666" points="33,-156.25 91.75,-156.25"/>
<text text-anchor="middle" x="62.38" y="-142.75" font-family="Helvetica,sans-Serif" font-size="10.00"> </text>
<polyline fill="none" stroke="#666666" points="33,-137 91.75,-137"/>
<text text-anchor="middle" x="62.38" y="-123.5" font-family="Helvetica,sans-Serif" font-size="10.00"> </text>
</a>
</g>
</g>
<!-- Node2&#45;&gt;Node1 -->
<g id="edge1" class="edge">
<title>Node2&#45;&gt;Node1</title>
<path fill="none" stroke="#63b8ff" d="M62.38,-106.84C62.38,-98.24 62.38,-89.12 62.38,-80.52"/>
<polygon fill="none" stroke="#63b8ff" points="58.88,-106.75 62.38,-116.75 65.88,-106.75 58.88,-106.75"/>
</g>
</g>
</svg>
