<?xml version="1.0" encoding="UTF-8" standalone="no"?>
<!DOCTYPE svg PUBLIC "-//W3C//DTD SVG 1.1//EN"
 "http://www.w3.org/Graphics/SVG/1.1/DTD/svg11.dtd">
<!-- Generated by graphviz version 7.0.5 (20221223.1930)
 -->
<!-- Title: RCVideoCanvas Pages: 1 -->
<svg width="227pt" height="402pt"
 viewBox="0.00 0.00 227.00 402.00" xmlns="http://www.w3.org/2000/svg" xmlns:xlink="http://www.w3.org/1999/xlink">
<g id="graph0" class="graph" transform="scale(1 1) rotate(0) translate(4 398)">
<title>RCVideoCanvas</title>
<!-- Node1 -->
<g id="node1" class="node">
<title>Node1</title>
<g id="a_node1"><a xlink:title=" ">
<polygon fill="#999999" stroke="#666666" points="0,-0.5 0,-222.5 219,-222.5 219,-0.5 0,-0.5"/>
<text text-anchor="middle" x="109.5" y="-210.5" font-family="Helvetica,sans-Serif" font-size="10.00">RCVideoCanvas</text>
<polyline fill="none" stroke="#666666" points="0,-203.5 219,-203.5"/>
<text text-anchor="start" x="8" y="-191.5" font-family="Helvetica,sans-Serif" font-size="10.00">+ uid</text>
<text text-anchor="start" x="8" y="-180.5" font-family="Helvetica,sans-Serif" font-size="10.00">+ renderMode</text>
<text text-anchor="start" x="8" y="-169.5" font-family="Helvetica,sans-Serif" font-size="10.00">+ mirrorMode</text>
<polyline fill="none" stroke="#666666" points="0,-162.5 219,-162.5"/>
<text text-anchor="start" x="8" y="-150.5" font-family="Helvetica,sans-Serif" font-size="10.00">+ NS_UNAVAILABLE</text>
<text text-anchor="start" x="8" y="-139.5" font-family="Helvetica,sans-Serif" font-size="10.00">+ initWithView:</text>
<text text-anchor="start" x="8" y="-128.5" font-family="Helvetica,sans-Serif" font-size="10.00">+ initWithView:Uid:</text>
<text text-anchor="start" x="8" y="-117.5" font-family="Helvetica,sans-Serif" font-size="10.00">+ initWithView:Uid:RenderMode:</text>
<text text-anchor="start" x="8" y="-106.5" font-family="Helvetica,sans-Serif" font-size="10.00">+ initWithView:Uid:RenderMode:isMirrorMode:</text>
<text text-anchor="start" x="8" y="-95.5" font-family="Helvetica,sans-Serif" font-size="10.00">+ setUid:</text>
<text text-anchor="start" x="8" y="-84.5" font-family="Helvetica,sans-Serif" font-size="10.00">+ getUid</text>
<text text-anchor="start" x="8" y="-73.5" font-family="Helvetica,sans-Serif" font-size="10.00">+ setRenderMode:</text>
<text text-anchor="start" x="8" y="-62.5" font-family="Helvetica,sans-Serif" font-size="10.00">+ getRenderMode</text>
<text text-anchor="start" x="8" y="-51.5" font-family="Helvetica,sans-Serif" font-size="10.00">+ setMirrorMode:</text>
<text text-anchor="start" x="8" y="-40.5" font-family="Helvetica,sans-Serif" font-size="10.00">+ isMirrorMode</text>
<text text-anchor="start" x="8" y="-29.5" font-family="Helvetica,sans-Serif" font-size="10.00">+ attachView:</text>
<text text-anchor="start" x="8" y="-18.5" font-family="Helvetica,sans-Serif" font-size="10.00">+ detachView</text>
<text text-anchor="start" x="8" y="-7.5" font-family="Helvetica,sans-Serif" font-size="10.00">+ setDelegate:</text>
</a>
</g>
</g>
<!-- Node2 -->
<g id="node2" class="node">
<title>Node2</title>
<g id="a_node2"><a xlink:title=" ">
<polygon fill="white" stroke="#666666" points="30,-298 30,-355 89,-355 89,-298 30,-298"/>
<text text-anchor="middle" x="59.5" y="-343" font-family="Helvetica,sans-Serif" font-size="10.00">NSObject</text>
<polyline fill="none" stroke="#666666" points="30,-336 89,-336"/>
<text text-anchor="middle" x="59.5" y="-324" font-family="Helvetica,sans-Serif" font-size="10.00"> </text>
<polyline fill="none" stroke="#666666" points="30,-317 89,-317"/>
<text text-anchor="middle" x="59.5" y="-305" font-family="Helvetica,sans-Serif" font-size="10.00"> </text>
</a>
</g>
</g>
<!-- Node2&#45;&gt;Node1 -->
<g id="edge1" class="edge">
<title>Node2&#45;&gt;Node1</title>
<path fill="none" stroke="#63b8ff" d="M68.54,-287C72.85,-268.61 78.26,-245.56 83.72,-222.31"/>
<polygon fill="none" stroke="#63b8ff" points="65.16,-286.08 66.28,-296.62 71.97,-287.68 65.16,-286.08"/>
</g>
<!-- Node3 -->
<g id="node3" class="node">
<title>Node3</title>
<g id="a_node3"><a xlink:href="protocol_rcv_video_canvas-p.html" target="_top" xlink:title=" ">
<polygon fill="white" stroke="#666666" points="107,-259.5 107,-393.5 212,-393.5 212,-259.5 107,-259.5"/>
<text text-anchor="middle" x="159.5" y="-381.5" font-family="Helvetica,sans-Serif" font-size="10.00">&lt;RcvVideoCanvas&gt;</text>
<polyline fill="none" stroke="#666666" points="107,-374.5 212,-374.5"/>
<text text-anchor="middle" x="159.5" y="-362.5" font-family="Helvetica,sans-Serif" font-size="10.00"> </text>
<polyline fill="none" stroke="#666666" points="107,-355.5 212,-355.5"/>
<text text-anchor="start" x="115" y="-343.5" font-family="Helvetica,sans-Serif" font-size="10.00">+ setUid:</text>
<text text-anchor="start" x="115" y="-332.5" font-family="Helvetica,sans-Serif" font-size="10.00">+ getUid</text>
<text text-anchor="start" x="115" y="-321.5" font-family="Helvetica,sans-Serif" font-size="10.00">+ setRenderMode:</text>
<text text-anchor="start" x="115" y="-310.5" font-family="Helvetica,sans-Serif" font-size="10.00">+ getRenderMode</text>
<text text-anchor="start" x="115" y="-299.5" font-family="Helvetica,sans-Serif" font-size="10.00">+ setMirrorMode:</text>
<text text-anchor="start" x="115" y="-288.5" font-family="Helvetica,sans-Serif" font-size="10.00">+ isMirrorMode</text>
<text text-anchor="start" x="115" y="-277.5" font-family="Helvetica,sans-Serif" font-size="10.00">+ attachTrack:type:</text>
<text text-anchor="start" x="115" y="-266.5" font-family="Helvetica,sans-Serif" font-size="10.00">+ detachTrack:type:</text>
</a>
</g>
</g>
<!-- Node3&#45;&gt;Node1 -->
<g id="edge2" class="edge">
<title>Node3&#45;&gt;Node1</title>
<path fill="none" stroke="#63b8ff" d="M141.43,-248.53C139.43,-240 137.36,-231.2 135.29,-222.37"/>
<polygon fill="none" stroke="#63b8ff" points="137.98,-249.16 143.68,-258.09 144.8,-247.56 137.98,-249.16"/>
</g>
</g>
</svg>
