<?xml version="1.0" encoding="UTF-8" standalone="no"?>
<!DOCTYPE svg PUBLIC "-//W3C//DTD SVG 1.1//EN"
 "http://www.w3.org/Graphics/SVG/1.1/DTD/svg11.dtd">
<!-- Generated by graphviz version 8.0.5 (20230430.1635)
 -->
<!-- Title: RcvMeetingUserController Pages: 1 -->
<svg width="133pt" height="322pt"
 viewBox="0.00 0.00 133.00 322.00" xmlns="http://www.w3.org/2000/svg" xmlns:xlink="http://www.w3.org/1999/xlink">
<g id="graph0" class="graph" transform="scale(1 1) rotate(0) translate(4 318)">
<title>RcvMeetingUserController</title>
<!-- Node1 -->
<g id="Node000001" class="node">
<title>Node1</title>
<g id="a_Node000001"><a xlink:title=" ">
<polygon fill="#999999" stroke="none" points="125,-229 0,-229 0,0 125,0 125,-229"/>
<text text-anchor="start" x="4.75" y="-215.5" font-family="Helvetica,sans-Serif" font-size="10.00">RcvMeetingUserController</text>
<text text-anchor="start" x="61" y="-200.5" font-family="Helvetica,sans-Serif" font-size="10.00"> </text>
<text text-anchor="start" x="4.5" y="-185.5" font-family="Helvetica,sans-Serif" font-size="10.00">+</text>
<text text-anchor="start" x="15" y="-185.5" font-family="Helvetica,sans-Serif" font-size="10.00">registerEventHandler:</text>
<text text-anchor="start" x="4.5" y="-170.5" font-family="Helvetica,sans-Serif" font-size="10.00">+</text>
<text text-anchor="start" x="15" y="-170.5" font-family="Helvetica,sans-Serif" font-size="10.00">unregisterEventHandler:</text>
<text text-anchor="start" x="4.5" y="-155.5" font-family="Helvetica,sans-Serif" font-size="10.00">+</text>
<text text-anchor="start" x="15" y="-155.5" font-family="Helvetica,sans-Serif" font-size="10.00">assignModerators:</text>
<text text-anchor="start" x="4.5" y="-140.5" font-family="Helvetica,sans-Serif" font-size="10.00">+</text>
<text text-anchor="start" x="15" y="-140.5" font-family="Helvetica,sans-Serif" font-size="10.00">revokeModerators:</text>
<text text-anchor="start" x="4.5" y="-125.5" font-family="Helvetica,sans-Serif" font-size="10.00">+</text>
<text text-anchor="start" x="15" y="-125.5" font-family="Helvetica,sans-Serif" font-size="10.00">getMeetingUserList</text>
<text text-anchor="start" x="4.5" y="-110.5" font-family="Helvetica,sans-Serif" font-size="10.00">+</text>
<text text-anchor="start" x="15" y="-110.5" font-family="Helvetica,sans-Serif" font-size="10.00">getMeetingUserById:</text>
<text text-anchor="start" x="4.5" y="-95.5" font-family="Helvetica,sans-Serif" font-size="10.00">+</text>
<text text-anchor="start" x="15" y="-95.5" font-family="Helvetica,sans-Serif" font-size="10.00">getMyself</text>
<text text-anchor="start" x="4.5" y="-80.5" font-family="Helvetica,sans-Serif" font-size="10.00">+</text>
<text text-anchor="start" x="15" y="-80.5" font-family="Helvetica,sans-Serif" font-size="10.00">getActiveVideoUser</text>
<text text-anchor="start" x="4.5" y="-65.5" font-family="Helvetica,sans-Serif" font-size="10.00">+</text>
<text text-anchor="start" x="15" y="-65.5" font-family="Helvetica,sans-Serif" font-size="10.00">admitUser:</text>
<text text-anchor="start" x="4.5" y="-50.5" font-family="Helvetica,sans-Serif" font-size="10.00">+</text>
<text text-anchor="start" x="15" y="-50.5" font-family="Helvetica,sans-Serif" font-size="10.00">admitAll</text>
<text text-anchor="start" x="4.5" y="-35.5" font-family="Helvetica,sans-Serif" font-size="10.00">+</text>
<text text-anchor="start" x="15" y="-35.5" font-family="Helvetica,sans-Serif" font-size="10.00">denyUser:</text>
<text text-anchor="start" x="4.5" y="-20.5" font-family="Helvetica,sans-Serif" font-size="10.00">+</text>
<text text-anchor="start" x="15" y="-20.5" font-family="Helvetica,sans-Serif" font-size="10.00">putInWaitingRoom:</text>
<text text-anchor="start" x="4.5" y="-5.5" font-family="Helvetica,sans-Serif" font-size="10.00">+</text>
<text text-anchor="start" x="15" y="-5.5" font-family="Helvetica,sans-Serif" font-size="10.00">removeUser:</text>
<polygon fill="#666666" stroke="#666666" points="0,-212 0,-212 125,-212 125,-212 0,-212"/>
<polygon fill="#666666" stroke="#666666" points="0,-197 0,-197 125,-197 125,-197 0,-197"/>
<polygon fill="none" stroke="#666666" points="0,0 0,-229 125,-229 125,0 0,0"/>
</a>
</g>
</g>
<!-- Node2 -->
<g id="Node000002" class="node">
<title>Node2</title>
<g id="a_Node000002"><a xlink:title=" ">
<polygon fill="white" stroke="none" points="88.5,-314 36.5,-314 36.5,-265 88.5,-265 88.5,-314"/>
<text text-anchor="start" x="41.12" y="-300.5" font-family="Helvetica,sans-Serif" font-size="10.00">NSObject</text>
<text text-anchor="start" x="61" y="-285.5" font-family="Helvetica,sans-Serif" font-size="10.00"> </text>
<text text-anchor="start" x="61" y="-270.5" font-family="Helvetica,sans-Serif" font-size="10.00"> </text>
<polygon fill="#666666" stroke="#666666" points="36.5,-297 36.5,-297 88.5,-297 88.5,-297 36.5,-297"/>
<polygon fill="#666666" stroke="#666666" points="36.5,-282 36.5,-282 88.5,-282 88.5,-282 36.5,-282"/>
<polygon fill="none" stroke="#666666" points="36.5,-265 36.5,-314 88.5,-314 88.5,-265 36.5,-265"/>
</a>
</g>
</g>
<!-- Node2&#45;&gt;Node1 -->
<g id="edge1_Node000001_Node000002" class="edge">
<title>Node2&#45;&gt;Node1</title>
<g id="a_edge1_Node000001_Node000002"><a xlink:title=" ">
<path fill="none" stroke="#63b8ff" d="M62.5,-254.41C62.5,-246.59 62.5,-237.84 62.5,-228.65"/>
<polygon fill="none" stroke="#63b8ff" points="59,-254.17 62.5,-264.17 66,-254.17 59,-254.17"/>
</a>
</g>
</g>
</g>
</svg>
