<?xml version="1.0" encoding="UTF-8" standalone="no"?>
<!DOCTYPE svg PUBLIC "-//W3C//DTD SVG 1.1//EN"
 "http://www.w3.org/Graphics/SVG/1.1/DTD/svg11.dtd">
<!-- Generated by graphviz version 8.0.4 (20230421.1958)
 -->
<!-- Title: RCVideoView Pages: 1 -->
<svg width="137pt" height="308pt"
 viewBox="0.00 0.00 136.50 307.75" xmlns="http://www.w3.org/2000/svg" xmlns:xlink="http://www.w3.org/1999/xlink">
<g id="graph0" class="graph" transform="scale(1 1) rotate(0) translate(4 303.75)">
<title>RCVideoView</title>
<!-- Node1 -->
<g id="node1" class="node">
<title>Node1</title>
<g id="a_node1"><a xlink:title=" ">
<polygon fill="#999999" stroke="#666666" points="0,-0.5 0,-204.5 128.5,-204.5 128.5,-0.5 0,-0.5"/>
<text text-anchor="middle" x="64.25" y="-191" font-family="Helvetica,sans-Serif" font-size="10.00">RCVideoView</text>
<polyline fill="none" stroke="#666666" points="0,-185.25 128.5,-185.25"/>
<text text-anchor="start" x="8" y="-171.75" font-family="Helvetica,sans-Serif" font-size="10.00">+ scaleModel</text>
<text text-anchor="start" x="8" y="-160.5" font-family="Helvetica,sans-Serif" font-size="10.00">+ delegate</text>
<text text-anchor="start" x="8" y="-149.25" font-family="Helvetica,sans-Serif" font-size="10.00">+ useMetal</text>
<text text-anchor="start" x="8" y="-138" font-family="Helvetica,sans-Serif" font-size="10.00">+ mirrorLocalPreview</text>
<polyline fill="none" stroke="#666666" points="0,-132.25 128.5,-132.25"/>
<text text-anchor="start" x="8" y="-118.75" font-family="Helvetica,sans-Serif" font-size="10.00">+ renderParticipant:</text>
<text text-anchor="start" x="8" y="-107.5" font-family="Helvetica,sans-Serif" font-size="10.00">+ updateLayout</text>
<text text-anchor="start" x="8" y="-96.25" font-family="Helvetica,sans-Serif" font-size="10.00">+ getVideoSize</text>
<text text-anchor="start" x="8" y="-85" font-family="Helvetica,sans-Serif" font-size="10.00">+ getVideoFrame</text>
<text text-anchor="start" x="8" y="-73.75" font-family="Helvetica,sans-Serif" font-size="10.00">+ updateOrientation</text>
<text text-anchor="start" x="8" y="-62.5" font-family="Helvetica,sans-Serif" font-size="10.00">+ lastFrame</text>
<text text-anchor="start" x="8" y="-51.25" font-family="Helvetica,sans-Serif" font-size="10.00">+ startRender</text>
<text text-anchor="start" x="8" y="-40" font-family="Helvetica,sans-Serif" font-size="10.00">+ stopRender</text>
<text text-anchor="start" x="8" y="-28.75" font-family="Helvetica,sans-Serif" font-size="10.00">+ resetFirstFrame</text>
<text text-anchor="start" x="8" y="-17.5" font-family="Helvetica,sans-Serif" font-size="10.00">+ setRemoteViewHidden:</text>
<text text-anchor="start" x="8" y="-6.25" font-family="Helvetica,sans-Serif" font-size="10.00">+ clearCurrentFrame</text>
</a>
</g>
</g>
<!-- Node2 -->
<g id="node2" class="node">
<title>Node2</title>
<g id="a_node2"><a xlink:title=" ">
<polygon fill="white" stroke="#666666" points="40.12,-241.5 40.12,-299.25 88.38,-299.25 88.38,-241.5 40.12,-241.5"/>
<text text-anchor="middle" x="64.25" y="-285.75" font-family="Helvetica,sans-Serif" font-size="10.00">UIView</text>
<polyline fill="none" stroke="#666666" points="40.12,-280 88.38,-280"/>
<text text-anchor="middle" x="64.25" y="-266.5" font-family="Helvetica,sans-Serif" font-size="10.00"> </text>
<polyline fill="none" stroke="#666666" points="40.12,-260.75 88.38,-260.75"/>
<text text-anchor="middle" x="64.25" y="-247.25" font-family="Helvetica,sans-Serif" font-size="10.00"> </text>
</a>
</g>
</g>
<!-- Node2&#45;&gt;Node1 -->
<g id="edge1" class="edge">
<title>Node2&#45;&gt;Node1</title>
<path fill="none" stroke="#63b8ff" d="M64.25,-230.69C64.25,-222.55 64.25,-213.61 64.25,-204.36"/>
<polygon fill="none" stroke="#63b8ff" points="60.75,-230.61 64.25,-240.61 67.75,-230.61 60.75,-230.61"/>
</g>
</g>
</svg>
