<?xml version="1.0" encoding="UTF-8" standalone="no"?>
<!DOCTYPE svg PUBLIC "-//W3C//DTD SVG 1.1//EN"
 "http://www.w3.org/Graphics/SVG/1.1/DTD/svg11.dtd">
<!-- Generated by graphviz version 8.0.5 (20230430.1635)
 -->
<!-- Title: RcvOpenGLVideoView Pages: 1 -->
<svg width="196pt" height="332pt"
 viewBox="0.00 0.00 196.00 332.00" xmlns="http://www.w3.org/2000/svg" xmlns:xlink="http://www.w3.org/1999/xlink">
<g id="graph0" class="graph" transform="scale(1 1) rotate(0) translate(4 328)">
<title>RcvOpenGLVideoView</title>
<!-- Node1 -->
<g id="Node000001" class="node">
<title>Node1</title>
<g id="a_Node000001"><a xlink:title=" ">
<polygon fill="#999999" stroke="none" points="126.5,-49 17.5,-49 17.5,0 126.5,0 126.5,-49"/>
<text text-anchor="start" x="22.12" y="-35.5" font-family="Helvetica,sans-Serif" font-size="10.00">RcvOpenGLVideoView</text>
<text text-anchor="start" x="70.5" y="-20.5" font-family="Helvetica,sans-Serif" font-size="10.00"> </text>
<text text-anchor="start" x="70.5" y="-5.5" font-family="Helvetica,sans-Serif" font-size="10.00"> </text>
<polygon fill="#666666" stroke="#666666" points="17.5,-32 17.5,-32 126.5,-32 126.5,-32 17.5,-32"/>
<polygon fill="#666666" stroke="#666666" points="17.5,-17 17.5,-17 126.5,-17 126.5,-17 17.5,-17"/>
<polygon fill="none" stroke="#666666" points="17.5,0 17.5,-49 126.5,-49 126.5,0 17.5,0"/>
</a>
</g>
</g>
<!-- Node2 -->
<g id="Node000002" class="node">
<title>Node2</title>
<g id="a_Node000002"><a xlink:href="interface_rcv_base_video_view.html" target="_top" xlink:title=" ">
<polygon fill="white" stroke="none" points="120.5,-239 23.5,-239 23.5,-85 120.5,-85 120.5,-239"/>
<text text-anchor="start" x="28.5" y="-225.5" font-family="Helvetica,sans-Serif" font-size="10.00">RcvBaseVideoView</text>
<text text-anchor="start" x="28" y="-210.5" font-family="Helvetica,sans-Serif" font-size="10.00">+</text>
<text text-anchor="start" x="38.5" y="-210.5" font-family="Helvetica,sans-Serif" font-size="10.00">delegate</text>
<text text-anchor="start" x="28" y="-195.5" font-family="Helvetica,sans-Serif" font-size="10.00">+</text>
<text text-anchor="start" x="38.5" y="-195.5" font-family="Helvetica,sans-Serif" font-size="10.00">renderMode</text>
<text text-anchor="start" x="28" y="-180.5" font-family="Helvetica,sans-Serif" font-size="10.00">+</text>
<text text-anchor="start" x="38.5" y="-180.5" font-family="Helvetica,sans-Serif" font-size="10.00">mirrorMode</text>
<text text-anchor="start" x="28" y="-165.5" font-family="Helvetica,sans-Serif" font-size="10.00">+</text>
<text text-anchor="start" x="38.5" y="-165.5" font-family="Helvetica,sans-Serif" font-size="10.00">getRenderer</text>
<text text-anchor="start" x="28" y="-150.5" font-family="Helvetica,sans-Serif" font-size="10.00">+</text>
<text text-anchor="start" x="38.5" y="-150.5" font-family="Helvetica,sans-Serif" font-size="10.00">showRenderer</text>
<text text-anchor="start" x="28" y="-135.5" font-family="Helvetica,sans-Serif" font-size="10.00">+</text>
<text text-anchor="start" x="38.5" y="-135.5" font-family="Helvetica,sans-Serif" font-size="10.00">hideRenderer</text>
<text text-anchor="start" x="28" y="-120.5" font-family="Helvetica,sans-Serif" font-size="10.00">+</text>
<text text-anchor="start" x="38.5" y="-120.5" font-family="Helvetica,sans-Serif" font-size="10.00">updateRenderer</text>
<text text-anchor="start" x="28" y="-105.5" font-family="Helvetica,sans-Serif" font-size="10.00">+</text>
<text text-anchor="start" x="38.5" y="-105.5" font-family="Helvetica,sans-Serif" font-size="10.00">getVideoSize</text>
<text text-anchor="start" x="28" y="-90.5" font-family="Helvetica,sans-Serif" font-size="10.00">+</text>
<text text-anchor="start" x="38.5" y="-90.5" font-family="Helvetica,sans-Serif" font-size="10.00">restoreVideoSize:</text>
<polygon fill="#666666" stroke="#666666" points="23.5,-222 23.5,-222 120.5,-222 120.5,-222 23.5,-222"/>
<polygon fill="#666666" stroke="#666666" points="23.5,-177 23.5,-177 36.5,-177 36.5,-177 23.5,-177"/>
<polygon fill="#666666" stroke="#666666" points="36.5,-177 36.5,-177 120.5,-177 120.5,-177 36.5,-177"/>
<polygon fill="none" stroke="#666666" points="23.5,-85 23.5,-239 120.5,-239 120.5,-85 23.5,-85"/>
</a>
</g>
</g>
<!-- Node2&#45;&gt;Node1 -->
<g id="edge1_Node000001_Node000002" class="edge">
<title>Node2&#45;&gt;Node1</title>
<g id="a_edge1_Node000001_Node000002"><a xlink:title=" ">
<path fill="none" stroke="#63b8ff" d="M72,-74.62C72,-65.29 72,-56.47 72,-48.95"/>
<polygon fill="none" stroke="#63b8ff" points="68.5,-74.33 72,-84.33 75.5,-74.33 68.5,-74.33"/>
</a>
</g>
</g>
<!-- Node3 -->
<g id="Node000003" class="node">
<title>Node3</title>
<g id="a_Node000003"><a xlink:title=" ">
<polygon fill="white" stroke="none" points="42,-324 0,-324 0,-275 42,-275 42,-324"/>
<text text-anchor="start" x="4.88" y="-310.5" font-family="Helvetica,sans-Serif" font-size="10.00">UIView</text>
<text text-anchor="start" x="19.5" y="-295.5" font-family="Helvetica,sans-Serif" font-size="10.00"> </text>
<text text-anchor="start" x="19.5" y="-280.5" font-family="Helvetica,sans-Serif" font-size="10.00"> </text>
<polygon fill="#666666" stroke="#666666" points="0,-307 0,-307 42,-307 42,-307 0,-307"/>
<polygon fill="#666666" stroke="#666666" points="0,-292 0,-292 42,-292 42,-292 0,-292"/>
<polygon fill="none" stroke="#666666" points="0,-275 0,-324 42,-324 42,-275 0,-275"/>
</a>
</g>
</g>
<!-- Node3&#45;&gt;Node2 -->
<g id="edge2_Node000002_Node000003" class="edge">
<title>Node3&#45;&gt;Node2</title>
<g id="a_edge2_Node000002_Node000003"><a xlink:title=" ">
<path fill="none" stroke="#63b8ff" d="M33.57,-265.1C36.63,-256.97 40.03,-247.95 43.5,-238.72"/>
<polygon fill="none" stroke="#63b8ff" points="30.01,-263.61 29.77,-274.21 36.57,-266.08 30.01,-263.61"/>
</a>
</g>
</g>
<!-- Node4 -->
<g id="Node000004" class="node">
<title>Node4</title>
<g id="a_Node000004"><a xlink:title=" ">
<polygon fill="white" stroke="none" points="188,-324 60,-324 60,-275 188,-275 188,-324"/>
<text text-anchor="start" x="64.75" y="-310.5" font-family="Helvetica,sans-Serif" font-size="10.00">&lt;RTCVideoViewDelegate&gt;</text>
<text text-anchor="start" x="122.5" y="-295.5" font-family="Helvetica,sans-Serif" font-size="10.00"> </text>
<text text-anchor="start" x="122.5" y="-280.5" font-family="Helvetica,sans-Serif" font-size="10.00"> </text>
<polygon fill="#666666" stroke="#666666" points="60,-307 60,-307 188,-307 188,-307 60,-307"/>
<polygon fill="#666666" stroke="#666666" points="60,-292 60,-292 188,-292 188,-292 60,-292"/>
<polygon fill="none" stroke="#666666" points="60,-275 60,-324 188,-324 188,-275 60,-275"/>
</a>
</g>
</g>
<!-- Node4&#45;&gt;Node2 -->
<g id="edge3_Node000002_Node000004" class="edge">
<title>Node4&#45;&gt;Node2</title>
<g id="a_edge3_Node000002_Node000004"><a xlink:title=" ">
<path fill="none" stroke="#63b8ff" d="M111.18,-265.1C108.06,-256.97 104.6,-247.95 101.06,-238.72"/>
<polygon fill="none" stroke="#63b8ff" points="108.21,-266.12 115.06,-274.21 114.75,-263.62 108.21,-266.12"/>
</a>
</g>
</g>
</g>
</svg>
