<?xml version="1.0" encoding="UTF-8" standalone="no"?>
<!DOCTYPE svg PUBLIC "-//W3C//DTD SVG 1.1//EN"
 "http://www.w3.org/Graphics/SVG/1.1/DTD/svg11.dtd">
<!-- Generated by graphviz version 8.1.0 (20230707.0739)
 -->
<!-- Title: RcvBaseVideoView Pages: 1 -->
<svg width="196pt" height="247pt"
 viewBox="0.00 0.00 196.00 247.00" xmlns="http://www.w3.org/2000/svg" xmlns:xlink="http://www.w3.org/1999/xlink">

<svg id="main" version="1.1" xmlns="http://www.w3.org/2000/svg" xmlns:xlink="http://www.w3.org/1999/xlink" xml:space="preserve" onload="init(evt)">
<style type="text/css"><![CDATA[
.node, .edge {opacity: 0.7;}
.node.selected, .edge.selected {opacity: 1;}
.edge:hover path { stroke: red; }
.edge:hover polygon { stroke: red; fill: red; }
]]></style>
<script type="application/ecmascript" xlink:href="svg.min.js"/>
<svg id="graph" class="graph">
<g id="graph0" class="graph" transform="scale(1 1) rotate(0) translate(4 243)">
<title>RcvBaseVideoView</title>
<!-- Node1 -->
<g id="Node000001" class="node">
<title>Node1</title>
<g id="a_Node000001"><a xlink:title=" ">
<polygon fill="#999999" stroke="none" points="120.5,-154 23.5,-154 23.5,0 120.5,0 120.5,-154"/>
<text text-anchor="start" x="28.5" y="-140.5" font-family="Helvetica,sans-Serif" font-size="10.00">RcvBaseVideoView</text>
<text text-anchor="start" x="28" y="-125.5" font-family="Helvetica,sans-Serif" font-size="10.00">+</text>
<text text-anchor="start" x="38.5" y="-125.5" font-family="Helvetica,sans-Serif" font-size="10.00">delegate</text>
<text text-anchor="start" x="28" y="-110.5" font-family="Helvetica,sans-Serif" font-size="10.00">+</text>
<text text-anchor="start" x="38.5" y="-110.5" font-family="Helvetica,sans-Serif" font-size="10.00">renderMode</text>
<text text-anchor="start" x="28" y="-95.5" font-family="Helvetica,sans-Serif" font-size="10.00">+</text>
<text text-anchor="start" x="38.5" y="-95.5" font-family="Helvetica,sans-Serif" font-size="10.00">mirrorMode</text>
<text text-anchor="start" x="28" y="-80.5" font-family="Helvetica,sans-Serif" font-size="10.00">+</text>
<text text-anchor="start" x="38.5" y="-80.5" font-family="Helvetica,sans-Serif" font-size="10.00">getRenderer</text>
<text text-anchor="start" x="28" y="-65.5" font-family="Helvetica,sans-Serif" font-size="10.00">+</text>
<text text-anchor="start" x="38.5" y="-65.5" font-family="Helvetica,sans-Serif" font-size="10.00">showRenderer</text>
<text text-anchor="start" x="28" y="-50.5" font-family="Helvetica,sans-Serif" font-size="10.00">+</text>
<text text-anchor="start" x="38.5" y="-50.5" font-family="Helvetica,sans-Serif" font-size="10.00">hideRenderer</text>
<text text-anchor="start" x="28" y="-35.5" font-family="Helvetica,sans-Serif" font-size="10.00">+</text>
<text text-anchor="start" x="38.5" y="-35.5" font-family="Helvetica,sans-Serif" font-size="10.00">updateRenderer</text>
<text text-anchor="start" x="28" y="-20.5" font-family="Helvetica,sans-Serif" font-size="10.00">+</text>
<text text-anchor="start" x="38.5" y="-20.5" font-family="Helvetica,sans-Serif" font-size="10.00">getVideoSize</text>
<text text-anchor="start" x="28" y="-5.5" font-family="Helvetica,sans-Serif" font-size="10.00">+</text>
<text text-anchor="start" x="38.5" y="-5.5" font-family="Helvetica,sans-Serif" font-size="10.00">restoreVideoSize:</text>
<polygon fill="#666666" stroke="#666666" points="23.5,-137 23.5,-137 120.5,-137 120.5,-137 23.5,-137"/>
<polygon fill="#666666" stroke="#666666" points="23.5,-92 23.5,-92 36.5,-92 36.5,-92 23.5,-92"/>
<polygon fill="#666666" stroke="#666666" points="36.5,-92 36.5,-92 120.5,-92 120.5,-92 36.5,-92"/>
<polygon fill="none" stroke="#666666" points="23.5,0 23.5,-154 120.5,-154 120.5,0 23.5,0"/>
</a>
</g>
</g>
<!-- Node2 -->
<g id="Node000002" class="node">
<title>Node2</title>
<g id="a_Node000002"><a xlink:title=" ">
<polygon fill="white" stroke="none" points="42,-239 0,-239 0,-190 42,-190 42,-239"/>
<text text-anchor="start" x="4.88" y="-225.5" font-family="Helvetica,sans-Serif" font-size="10.00">UIView</text>
<text text-anchor="start" x="19.5" y="-210.5" font-family="Helvetica,sans-Serif" font-size="10.00"> </text>
<text text-anchor="start" x="19.5" y="-195.5" font-family="Helvetica,sans-Serif" font-size="10.00"> </text>
<polygon fill="#666666" stroke="#666666" points="0,-222 0,-222 42,-222 42,-222 0,-222"/>
<polygon fill="#666666" stroke="#666666" points="0,-207 0,-207 42,-207 42,-207 0,-207"/>
<polygon fill="none" stroke="#666666" points="0,-190 0,-239 42,-239 42,-190 0,-190"/>
</a>
</g>
</g>
<!-- Node2&#45;&gt;Node1 -->
<g id="edge1_Node000001_Node000002" class="edge">
<title>Node2&#45;&gt;Node1</title>
<g id="a_edge1_Node000001_Node000002"><a xlink:title=" ">
<path fill="none" stroke="#63b8ff" d="M33.57,-180.1C36.63,-171.97 40.03,-162.95 43.5,-153.72"/>
<polygon fill="none" stroke="#63b8ff" points="30.01,-178.61 29.77,-189.21 36.57,-181.08 30.01,-178.61"/>
</a>
</g>
</g>
<!-- Node3 -->
<g id="Node000003" class="node">
<title>Node3</title>
<g id="a_Node000003"><a xlink:title=" ">
<polygon fill="white" stroke="none" points="188,-239 60,-239 60,-190 188,-190 188,-239"/>
<text text-anchor="start" x="64.75" y="-225.5" font-family="Helvetica,sans-Serif" font-size="10.00">&lt;RTCVideoViewDelegate&gt;</text>
<text text-anchor="start" x="122.5" y="-210.5" font-family="Helvetica,sans-Serif" font-size="10.00"> </text>
<text text-anchor="start" x="122.5" y="-195.5" font-family="Helvetica,sans-Serif" font-size="10.00"> </text>
<polygon fill="#666666" stroke="#666666" points="60,-222 60,-222 188,-222 188,-222 60,-222"/>
<polygon fill="#666666" stroke="#666666" points="60,-207 60,-207 188,-207 188,-207 60,-207"/>
<polygon fill="none" stroke="#666666" points="60,-190 60,-239 188,-239 188,-190 60,-190"/>
</a>
</g>
</g>
<!-- Node3&#45;&gt;Node1 -->
<g id="edge2_Node000001_Node000003" class="edge">
<title>Node3&#45;&gt;Node1</title>
<g id="a_edge2_Node000001_Node000003"><a xlink:title=" ">
<path fill="none" stroke="#63b8ff" d="M111.18,-180.1C108.06,-171.97 104.6,-162.95 101.06,-153.72"/>
<polygon fill="none" stroke="#63b8ff" points="108.21,-181.12 115.06,-189.21 114.75,-178.62 108.21,-181.12"/>
</a>
</g>
</g>
</g>
</svg>
</svg>

<style type='text/css'>
<![CDATA[
[data-mouse-over-selected='false'] { opacity: 0.7; }
[data-mouse-over-selected='true']  { opacity: 1.0; }
]]>
</style>
<script type="application/ecmascript"><![CDATA[
document.addEventListener('DOMContentLoaded', (event) => {
  highlightEdges();
  highlightAdjacentNodes();
});
]]></script>
</svg>
