<?xml version="1.0" encoding="UTF-8" standalone="no"?>
<!DOCTYPE svg PUBLIC "-//W3C//DTD SVG 1.1//EN"
 "http://www.w3.org/Graphics/SVG/1.1/DTD/svg11.dtd">
<!-- Generated by graphviz version 8.0.4 (20230421.1958)
 -->
<!-- Title: RcvScreenShareService Pages: 1 -->
<svg width="187pt" height="240pt"
 viewBox="0.00 0.00 186.75 240.25" xmlns="http://www.w3.org/2000/svg" xmlns:xlink="http://www.w3.org/1999/xlink">
<g id="graph0" class="graph" transform="scale(1 1) rotate(0) translate(4 236.25)">
<title>RcvScreenShareService</title>
<!-- Node1 -->
<g id="node1" class="node">
<title>Node1</title>
<g id="a_node1"><a xlink:title=" ">
<polygon fill="#999999" stroke="#666666" points="0,-0.5 0,-137 178.75,-137 178.75,-0.5 0,-0.5"/>
<text text-anchor="middle" x="89.38" y="-123.5" font-family="Helvetica,sans-Serif" font-size="10.00">RcvScreenShareService</text>
<polyline fill="none" stroke="#666666" points="0,-117.75 178.75,-117.75"/>
<text text-anchor="start" x="8" y="-104.25" font-family="Helvetica,sans-Serif" font-size="10.00">+ appGroup</text>
<text text-anchor="start" x="8" y="-93" font-family="Helvetica,sans-Serif" font-size="10.00">+ delegate</text>
<text text-anchor="start" x="8" y="-81.75" font-family="Helvetica,sans-Serif" font-size="10.00">+ isActive</text>
<polyline fill="none" stroke="#666666" points="0,-76 178.75,-76"/>
<text text-anchor="start" x="8" y="-62.5" font-family="Helvetica,sans-Serif" font-size="10.00">+ broadcastStartedWithSetupInfo:</text>
<text text-anchor="start" x="8" y="-51.25" font-family="Helvetica,sans-Serif" font-size="10.00">+ broadcastPaused</text>
<text text-anchor="start" x="8" y="-40" font-family="Helvetica,sans-Serif" font-size="10.00">+ broadcastResumed</text>
<text text-anchor="start" x="8" y="-28.75" font-family="Helvetica,sans-Serif" font-size="10.00">+ broadcastFinished</text>
<text text-anchor="start" x="8" y="-17.5" font-family="Helvetica,sans-Serif" font-size="10.00">+ processSampleBuffer:withType:</text>
<text text-anchor="start" x="8" y="-6.25" font-family="Helvetica,sans-Serif" font-size="10.00">+ processPixelBuffer:withOrientation:</text>
</a>
</g>
</g>
<!-- Node2 -->
<g id="node2" class="node">
<title>Node2</title>
<g id="a_node2"><a xlink:title=" ">
<polygon fill="white" stroke="#666666" points="60,-174 60,-231.75 118.75,-231.75 118.75,-174 60,-174"/>
<text text-anchor="middle" x="89.38" y="-218.25" font-family="Helvetica,sans-Serif" font-size="10.00">NSObject</text>
<polyline fill="none" stroke="#666666" points="60,-212.5 118.75,-212.5"/>
<text text-anchor="middle" x="89.38" y="-199" font-family="Helvetica,sans-Serif" font-size="10.00"> </text>
<polyline fill="none" stroke="#666666" points="60,-193.25 118.75,-193.25"/>
<text text-anchor="middle" x="89.38" y="-179.75" font-family="Helvetica,sans-Serif" font-size="10.00"> </text>
</a>
</g>
</g>
<!-- Node2&#45;&gt;Node1 -->
<g id="edge1" class="edge">
<title>Node2&#45;&gt;Node1</title>
<path fill="none" stroke="#63b8ff" d="M89.38,-163.32C89.38,-154.99 89.38,-145.95 89.38,-136.88"/>
<polygon fill="none" stroke="#63b8ff" points="85.88,-163.18 89.38,-173.18 92.88,-163.18 85.88,-163.18"/>
</g>
</g>
</svg>
