<?xml version="1.0" encoding="UTF-8" standalone="no"?>
<!DOCTYPE svg PUBLIC "-//W3C//DTD SVG 1.1//EN"
 "http://www.w3.org/Graphics/SVG/1.1/DTD/svg11.dtd">
<!-- Generated by graphviz version 8.0.4 (20230421.1958)
 -->
<!-- Title: RcvOauthOptions Pages: 1 -->
<svg width="104pt" height="274pt"
 viewBox="0.00 0.00 104.25 274.00" xmlns="http://www.w3.org/2000/svg" xmlns:xlink="http://www.w3.org/1999/xlink">
<g id="graph0" class="graph" transform="scale(1 1) rotate(0) translate(4 270)">
<title>RcvOauthOptions</title>
<!-- Node1 -->
<g id="node1" class="node">
<title>Node1</title>
<g id="a_node1"><a xlink:title=" ">
<polygon fill="#999999" stroke="#666666" points="0,-0.5 0,-170.75 96.25,-170.75 96.25,-0.5 0,-0.5"/>
<text text-anchor="middle" x="48.12" y="-157.25" font-family="Helvetica,sans-Serif" font-size="10.00">RcvOauthOptions</text>
<polyline fill="none" stroke="#666666" points="0,-151.5 96.25,-151.5"/>
<text text-anchor="middle" x="48.12" y="-138" font-family="Helvetica,sans-Serif" font-size="10.00"> </text>
<polyline fill="none" stroke="#666666" points="0,-132.25 96.25,-132.25"/>
<text text-anchor="start" x="8" y="-118.75" font-family="Helvetica,sans-Serif" font-size="10.00">+ setGrantType:</text>
<text text-anchor="start" x="8" y="-107.5" font-family="Helvetica,sans-Serif" font-size="10.00">+ getGrantType</text>
<text text-anchor="start" x="8" y="-96.25" font-family="Helvetica,sans-Serif" font-size="10.00">+ setUserName:</text>
<text text-anchor="start" x="8" y="-85" font-family="Helvetica,sans-Serif" font-size="10.00">+ getUserName</text>
<text text-anchor="start" x="8" y="-73.75" font-family="Helvetica,sans-Serif" font-size="10.00">+ setPassword:</text>
<text text-anchor="start" x="8" y="-62.5" font-family="Helvetica,sans-Serif" font-size="10.00">+ getPassword</text>
<text text-anchor="start" x="8" y="-51.25" font-family="Helvetica,sans-Serif" font-size="10.00">+ setJwt:</text>
<text text-anchor="start" x="8" y="-40" font-family="Helvetica,sans-Serif" font-size="10.00">+ getJwt</text>
<text text-anchor="start" x="8" y="-28.75" font-family="Helvetica,sans-Serif" font-size="10.00">+ setAutoRefresh:</text>
<text text-anchor="start" x="8" y="-17.5" font-family="Helvetica,sans-Serif" font-size="10.00">+ getAutoRefresh</text>
<text text-anchor="start" x="8" y="-6.25" font-family="Helvetica,sans-Serif" font-size="10.00">+ create</text>
</a>
</g>
</g>
<!-- Node2 -->
<g id="node2" class="node">
<title>Node2</title>
<g id="a_node2"><a xlink:title=" ">
<polygon fill="white" stroke="#666666" points="18.75,-207.75 18.75,-265.5 77.5,-265.5 77.5,-207.75 18.75,-207.75"/>
<text text-anchor="middle" x="48.12" y="-252" font-family="Helvetica,sans-Serif" font-size="10.00">NSObject</text>
<polyline fill="none" stroke="#666666" points="18.75,-246.25 77.5,-246.25"/>
<text text-anchor="middle" x="48.12" y="-232.75" font-family="Helvetica,sans-Serif" font-size="10.00"> </text>
<polyline fill="none" stroke="#666666" points="18.75,-227 77.5,-227"/>
<text text-anchor="middle" x="48.12" y="-213.5" font-family="Helvetica,sans-Serif" font-size="10.00"> </text>
</a>
</g>
</g>
<!-- Node2&#45;&gt;Node1 -->
<g id="edge1" class="edge">
<title>Node2&#45;&gt;Node1</title>
<path fill="none" stroke="#63b8ff" d="M48.12,-197.17C48.12,-188.87 48.12,-179.78 48.12,-170.5"/>
<polygon fill="none" stroke="#63b8ff" points="44.63,-196.95 48.12,-206.95 51.63,-196.95 44.63,-196.95"/>
</g>
</g>
</svg>
