<?xml version="1.0" encoding="UTF-8" standalone="no"?>
<!DOCTYPE svg PUBLIC "-//W3C//DTD SVG 1.1//EN"
 "http://www.w3.org/Graphics/SVG/1.1/DTD/svg11.dtd">
<!-- Generated by graphviz version 8.0.4 (20230421.1958)
 -->
<!-- Title: RcvBaseVideoView Pages: 1 -->
<svg width="208pt" height="240pt"
 viewBox="0.00 0.00 208.38 240.25" xmlns="http://www.w3.org/2000/svg" xmlns:xlink="http://www.w3.org/1999/xlink">
<g id="graph0" class="graph" transform="scale(1 1) rotate(0) translate(4 236.25)">
<title>RcvBaseVideoView</title>
<!-- Node1 -->
<g id="node1" class="node">
<title>Node1</title>
<g id="a_node1"><a xlink:title=" ">
<polygon fill="#999999" stroke="#666666" points="26.62,-0.5 26.62,-137 129.62,-137 129.62,-0.5 26.62,-0.5"/>
<text text-anchor="middle" x="78.12" y="-123.5" font-family="Helvetica,sans-Serif" font-size="10.00">RcvBaseVideoView</text>
<polyline fill="none" stroke="#666666" points="26.62,-117.75 129.62,-117.75"/>
<text text-anchor="start" x="34.62" y="-104.25" font-family="Helvetica,sans-Serif" font-size="10.00">+ delegate</text>
<text text-anchor="start" x="34.62" y="-93" font-family="Helvetica,sans-Serif" font-size="10.00">+ renderMode</text>
<text text-anchor="start" x="34.62" y="-81.75" font-family="Helvetica,sans-Serif" font-size="10.00">+ mirrorMode</text>
<polyline fill="none" stroke="#666666" points="26.62,-76 129.62,-76"/>
<text text-anchor="start" x="34.62" y="-62.5" font-family="Helvetica,sans-Serif" font-size="10.00">+ getRenderer</text>
<text text-anchor="start" x="34.62" y="-51.25" font-family="Helvetica,sans-Serif" font-size="10.00">+ showRenderer</text>
<text text-anchor="start" x="34.62" y="-40" font-family="Helvetica,sans-Serif" font-size="10.00">+ hideRenderer</text>
<text text-anchor="start" x="34.62" y="-28.75" font-family="Helvetica,sans-Serif" font-size="10.00">+ updateRenderer</text>
<text text-anchor="start" x="34.62" y="-17.5" font-family="Helvetica,sans-Serif" font-size="10.00">+ getVideoSize</text>
<text text-anchor="start" x="34.62" y="-6.25" font-family="Helvetica,sans-Serif" font-size="10.00">+ restoreVideoSize:</text>
</a>
</g>
</g>
<!-- Node2 -->
<g id="node2" class="node">
<title>Node2</title>
<g id="a_node2"><a xlink:title=" ">
<polygon fill="white" stroke="#666666" points="0,-174 0,-231.75 48.25,-231.75 48.25,-174 0,-174"/>
<text text-anchor="middle" x="24.12" y="-218.25" font-family="Helvetica,sans-Serif" font-size="10.00">UIView</text>
<polyline fill="none" stroke="#666666" points="0,-212.5 48.25,-212.5"/>
<text text-anchor="middle" x="24.12" y="-199" font-family="Helvetica,sans-Serif" font-size="10.00"> </text>
<polyline fill="none" stroke="#666666" points="0,-193.25 48.25,-193.25"/>
<text text-anchor="middle" x="24.12" y="-179.75" font-family="Helvetica,sans-Serif" font-size="10.00"> </text>
</a>
</g>
</g>
<!-- Node2&#45;&gt;Node1 -->
<g id="edge1" class="edge">
<title>Node2&#45;&gt;Node1</title>
<path fill="none" stroke="#63b8ff" d="M39.53,-164.17C43.03,-155.61 46.86,-146.26 50.69,-136.88"/>
<polygon fill="none" stroke="#63b8ff" points="35.99,-162.6 35.45,-173.18 42.47,-165.24 35.99,-162.6"/>
</g>
<!-- Node3 -->
<g id="node3" class="node">
<title>Node3</title>
<g id="a_node3"><a xlink:title=" ">
<polygon fill="white" stroke="#666666" points="65.88,-174 65.88,-231.75 200.38,-231.75 200.38,-174 65.88,-174"/>
<text text-anchor="middle" x="133.12" y="-218.25" font-family="Helvetica,sans-Serif" font-size="10.00">&lt;RTCVideoViewDelegate&gt;</text>
<polyline fill="none" stroke="#666666" points="65.88,-212.5 200.38,-212.5"/>
<text text-anchor="middle" x="133.12" y="-199" font-family="Helvetica,sans-Serif" font-size="10.00"> </text>
<polyline fill="none" stroke="#666666" points="65.88,-193.25 200.38,-193.25"/>
<text text-anchor="middle" x="133.12" y="-179.75" font-family="Helvetica,sans-Serif" font-size="10.00"> </text>
</a>
</g>
</g>
<!-- Node3&#45;&gt;Node1 -->
<g id="edge2" class="edge">
<title>Node3&#45;&gt;Node1</title>
<path fill="none" stroke="#63b8ff" d="M117.43,-164.17C113.87,-155.61 109.97,-146.26 106.07,-136.88"/>
<polygon fill="none" stroke="#63b8ff" points="114.52,-165.29 121.6,-173.18 120.98,-162.6 114.52,-165.29"/>
</g>
</g>
</svg>
