<?xml version="1.0" encoding="UTF-8" standalone="no"?>
<!DOCTYPE svg PUBLIC "-//W3C//DTD SVG 1.1//EN"
 "http://www.w3.org/Graphics/SVG/1.1/DTD/svg11.dtd">
<!-- Generated by graphviz version 8.0.4 (20230421.1958)
 -->
<!-- Title: RCVideoCanvas Pages: 1 -->
<svg width="227pt" height="409pt"
 viewBox="0.00 0.00 226.50 409.00" xmlns="http://www.w3.org/2000/svg" xmlns:xlink="http://www.w3.org/1999/xlink">
<g id="graph0" class="graph" transform="scale(1 1) rotate(0) translate(4 405)">
<title>RCVideoCanvas</title>
<!-- Node1 -->
<g id="node1" class="node">
<title>Node1</title>
<g id="a_node1"><a xlink:title=" ">
<polygon fill="#999999" stroke="#666666" points="0,-0.5 0,-227 218.5,-227 218.5,-0.5 0,-0.5"/>
<text text-anchor="middle" x="109.25" y="-213.5" font-family="Helvetica,sans-Serif" font-size="10.00">RCVideoCanvas</text>
<polyline fill="none" stroke="#666666" points="0,-207.75 218.5,-207.75"/>
<text text-anchor="start" x="8" y="-194.25" font-family="Helvetica,sans-Serif" font-size="10.00">+ uid</text>
<text text-anchor="start" x="8" y="-183" font-family="Helvetica,sans-Serif" font-size="10.00">+ renderMode</text>
<text text-anchor="start" x="8" y="-171.75" font-family="Helvetica,sans-Serif" font-size="10.00">+ mirrorMode</text>
<polyline fill="none" stroke="#666666" points="0,-166 218.5,-166"/>
<text text-anchor="start" x="8" y="-152.5" font-family="Helvetica,sans-Serif" font-size="10.00">+ NS_UNAVAILABLE</text>
<text text-anchor="start" x="8" y="-141.25" font-family="Helvetica,sans-Serif" font-size="10.00">+ initWithView:</text>
<text text-anchor="start" x="8" y="-130" font-family="Helvetica,sans-Serif" font-size="10.00">+ initWithView:Uid:</text>
<text text-anchor="start" x="8" y="-118.75" font-family="Helvetica,sans-Serif" font-size="10.00">+ initWithView:Uid:RenderMode:</text>
<text text-anchor="start" x="8" y="-107.5" font-family="Helvetica,sans-Serif" font-size="10.00">+ initWithView:Uid:RenderMode:isMirrorMode:</text>
<text text-anchor="start" x="8" y="-96.25" font-family="Helvetica,sans-Serif" font-size="10.00">+ setUid:</text>
<text text-anchor="start" x="8" y="-85" font-family="Helvetica,sans-Serif" font-size="10.00">+ getUid</text>
<text text-anchor="start" x="8" y="-73.75" font-family="Helvetica,sans-Serif" font-size="10.00">+ setRenderMode:</text>
<text text-anchor="start" x="8" y="-62.5" font-family="Helvetica,sans-Serif" font-size="10.00">+ getRenderMode</text>
<text text-anchor="start" x="8" y="-51.25" font-family="Helvetica,sans-Serif" font-size="10.00">+ setMirrorMode:</text>
<text text-anchor="start" x="8" y="-40" font-family="Helvetica,sans-Serif" font-size="10.00">+ isMirrorMode</text>
<text text-anchor="start" x="8" y="-28.75" font-family="Helvetica,sans-Serif" font-size="10.00">+ attachView:</text>
<text text-anchor="start" x="8" y="-17.5" font-family="Helvetica,sans-Serif" font-size="10.00">+ detachView</text>
<text text-anchor="start" x="8" y="-6.25" font-family="Helvetica,sans-Serif" font-size="10.00">+ setDelegate:</text>
</a>
</g>
</g>
<!-- Node2 -->
<g id="node2" class="node">
<title>Node2</title>
<g id="a_node2"><a xlink:title=" ">
<polygon fill="white" stroke="#666666" points="29.88,-303.38 29.88,-361.12 88.62,-361.12 88.62,-303.38 29.88,-303.38"/>
<text text-anchor="middle" x="59.25" y="-347.62" font-family="Helvetica,sans-Serif" font-size="10.00">NSObject</text>
<polyline fill="none" stroke="#666666" points="29.88,-341.88 88.62,-341.88"/>
<text text-anchor="middle" x="59.25" y="-328.38" font-family="Helvetica,sans-Serif" font-size="10.00"> </text>
<polyline fill="none" stroke="#666666" points="29.88,-322.62 88.62,-322.62"/>
<text text-anchor="middle" x="59.25" y="-309.12" font-family="Helvetica,sans-Serif" font-size="10.00"> </text>
</a>
</g>
</g>
<!-- Node2&#45;&gt;Node1 -->
<g id="edge1" class="edge">
<title>Node2&#45;&gt;Node1</title>
<path fill="none" stroke="#63b8ff" d="M68.15,-292.71C72.46,-274.05 77.88,-250.58 83.36,-226.86"/>
<polygon fill="none" stroke="#63b8ff" points="64.52,-291.86 65.68,-302.39 71.34,-293.43 64.52,-291.86"/>
</g>
<!-- Node3 -->
<g id="node3" class="node">
<title>Node3</title>
<g id="a_node3"><a xlink:href="protocol_rcv_video_canvas-p.html" target="_top" xlink:title=" ">
<polygon fill="white" stroke="#666666" points="107,-264 107,-400.5 211.5,-400.5 211.5,-264 107,-264"/>
<text text-anchor="middle" x="159.25" y="-387" font-family="Helvetica,sans-Serif" font-size="10.00">&lt;RcvVideoCanvas&gt;</text>
<polyline fill="none" stroke="#666666" points="107,-381.25 211.5,-381.25"/>
<text text-anchor="middle" x="159.25" y="-367.75" font-family="Helvetica,sans-Serif" font-size="10.00"> </text>
<polyline fill="none" stroke="#666666" points="107,-362 211.5,-362"/>
<text text-anchor="start" x="115" y="-348.5" font-family="Helvetica,sans-Serif" font-size="10.00">+ setUid:</text>
<text text-anchor="start" x="115" y="-337.25" font-family="Helvetica,sans-Serif" font-size="10.00">+ getUid</text>
<text text-anchor="start" x="115" y="-326" font-family="Helvetica,sans-Serif" font-size="10.00">+ setRenderMode:</text>
<text text-anchor="start" x="115" y="-314.75" font-family="Helvetica,sans-Serif" font-size="10.00">+ getRenderMode</text>
<text text-anchor="start" x="115" y="-303.5" font-family="Helvetica,sans-Serif" font-size="10.00">+ setMirrorMode:</text>
<text text-anchor="start" x="115" y="-292.25" font-family="Helvetica,sans-Serif" font-size="10.00">+ isMirrorMode</text>
<text text-anchor="start" x="115" y="-281" font-family="Helvetica,sans-Serif" font-size="10.00">+ attachTrack:type:</text>
<text text-anchor="start" x="115" y="-269.75" font-family="Helvetica,sans-Serif" font-size="10.00">+ detachTrack:type:</text>
</a>
</g>
</g>
<!-- Node3&#45;&gt;Node1 -->
<g id="edge2" class="edge">
<title>Node3&#45;&gt;Node1</title>
<path fill="none" stroke="#63b8ff" d="M141.34,-253.71C139.32,-244.96 137.23,-235.91 135.13,-226.82"/>
<polygon fill="none" stroke="#63b8ff" points="138.11,-254.27 143.77,-263.23 144.93,-252.7 138.11,-254.27"/>
</g>
</g>
</svg>
