<?xml version="1.0" encoding="UTF-8" standalone="no"?>
<!DOCTYPE svg PUBLIC "-//W3C//DTD SVG 1.1//EN"
 "http://www.w3.org/Graphics/SVG/1.1/DTD/svg11.dtd">
<!-- Generated by graphviz version 7.1.0 (20230121.1956)
 -->
<!-- Title: RcvMeetingOptions Pages: 1 -->
<svg width="111pt" height="204pt"
 viewBox="0.00 0.00 111.00 204.00" xmlns="http://www.w3.org/2000/svg" xmlns:xlink="http://www.w3.org/1999/xlink">
<g id="graph0" class="graph" transform="scale(1 1) rotate(0) translate(4 200)">
<title>RcvMeetingOptions</title>
<!-- Node1 -->
<g id="node1" class="node">
<title>Node1</title>
<g id="a_node1"><a xlink:title=" ">
<polygon fill="#999999" stroke="#666666" points="0,-0.5 0,-101.5 103,-101.5 103,-0.5 0,-0.5"/>
<text text-anchor="middle" x="51.5" y="-89.5" font-family="Helvetica,sans-Serif" font-size="10.00">RcvMeetingOptions</text>
<polyline fill="none" stroke="#666666" points="0,-82.5 103,-82.5"/>
<text text-anchor="middle" x="51.5" y="-70.5" font-family="Helvetica,sans-Serif" font-size="10.00"> </text>
<polyline fill="none" stroke="#666666" points="0,-63.5 103,-63.5"/>
<text text-anchor="start" x="8" y="-51.5" font-family="Helvetica,sans-Serif" font-size="10.00">+ setUserName:</text>
<text text-anchor="start" x="8" y="-40.5" font-family="Helvetica,sans-Serif" font-size="10.00">+ getUserName</text>
<text text-anchor="start" x="8" y="-29.5" font-family="Helvetica,sans-Serif" font-size="10.00">+ setPassword:</text>
<text text-anchor="start" x="8" y="-18.5" font-family="Helvetica,sans-Serif" font-size="10.00">+ getPassword</text>
<text text-anchor="start" x="8" y="-7.5" font-family="Helvetica,sans-Serif" font-size="10.00">+ create</text>
</a>
</g>
</g>
<!-- Node2 -->
<g id="node2" class="node">
<title>Node2</title>
<g id="a_node2"><a xlink:title=" ">
<polygon fill="white" stroke="#666666" points="22,-138.5 22,-195.5 81,-195.5 81,-138.5 22,-138.5"/>
<text text-anchor="middle" x="51.5" y="-183.5" font-family="Helvetica,sans-Serif" font-size="10.00">NSObject</text>
<polyline fill="none" stroke="#666666" points="22,-176.5 81,-176.5"/>
<text text-anchor="middle" x="51.5" y="-164.5" font-family="Helvetica,sans-Serif" font-size="10.00"> </text>
<polyline fill="none" stroke="#666666" points="22,-157.5 81,-157.5"/>
<text text-anchor="middle" x="51.5" y="-145.5" font-family="Helvetica,sans-Serif" font-size="10.00"> </text>
</a>
</g>
</g>
<!-- Node2&#45;&gt;Node1 -->
<g id="edge1" class="edge">
<title>Node2&#45;&gt;Node1</title>
<path fill="none" stroke="#63b8ff" d="M51.5,-127.37C51.5,-119.02 51.5,-110.08 51.5,-101.38"/>
<polygon fill="none" stroke="#63b8ff" points="48,-127.18 51.5,-137.18 55,-127.18 48,-127.18"/>
</g>
</g>
</svg>
