<?xml version="1.0" encoding="UTF-8" standalone="no"?>
<!DOCTYPE svg PUBLIC "-//W3C//DTD SVG 1.1//EN"
 "http://www.w3.org/Graphics/SVG/1.1/DTD/svg11.dtd">
<!-- Generated by graphviz version 8.0.4 (20230421.1958)
 -->
<!-- Title: RcvMeetingContextController Pages: 1 -->
<svg width="174pt" height="184pt"
 viewBox="0.00 0.00 174.00 184.00" xmlns="http://www.w3.org/2000/svg" xmlns:xlink="http://www.w3.org/1999/xlink">
<g id="graph0" class="graph" transform="scale(1 1) rotate(0) translate(4 180)">
<title>RcvMeetingContextController</title>
<!-- Node1 -->
<g id="node1" class="node">
<title>Node1</title>
<g id="a_node1"><a xlink:title=" ">
<polygon fill="#999999" stroke="#666666" points="0,-0.5 0,-80.75 166,-80.75 166,-0.5 0,-0.5"/>
<text text-anchor="middle" x="83" y="-67.25" font-family="Helvetica,sans-Serif" font-size="10.00">RcvMeetingContextController</text>
<polyline fill="none" stroke="#666666" points="0,-61.5 166,-61.5"/>
<text text-anchor="middle" x="83" y="-48" font-family="Helvetica,sans-Serif" font-size="10.00"> </text>
<polyline fill="none" stroke="#666666" points="0,-42.25 166,-42.25"/>
<text text-anchor="start" x="8" y="-28.75" font-family="Helvetica,sans-Serif" font-size="10.00">+ updatePersonalMeetingSettings:</text>
<text text-anchor="start" x="8" y="-17.5" font-family="Helvetica,sans-Serif" font-size="10.00">+ loadPersonalMeetingSettings</text>
<text text-anchor="start" x="8" y="-6.25" font-family="Helvetica,sans-Serif" font-size="10.00">+ scheduleMeeting:</text>
</a>
</g>
</g>
<!-- Node2 -->
<g id="node2" class="node">
<title>Node2</title>
<g id="a_node2"><a xlink:title=" ">
<polygon fill="white" stroke="#666666" points="53.62,-117.75 53.62,-175.5 112.38,-175.5 112.38,-117.75 53.62,-117.75"/>
<text text-anchor="middle" x="83" y="-162" font-family="Helvetica,sans-Serif" font-size="10.00">NSObject</text>
<polyline fill="none" stroke="#666666" points="53.62,-156.25 112.38,-156.25"/>
<text text-anchor="middle" x="83" y="-142.75" font-family="Helvetica,sans-Serif" font-size="10.00"> </text>
<polyline fill="none" stroke="#666666" points="53.62,-137 112.38,-137"/>
<text text-anchor="middle" x="83" y="-123.5" font-family="Helvetica,sans-Serif" font-size="10.00"> </text>
</a>
</g>
</g>
<!-- Node2&#45;&gt;Node1 -->
<g id="edge1" class="edge">
<title>Node2&#45;&gt;Node1</title>
<path fill="none" stroke="#63b8ff" d="M83,-106.84C83,-98.24 83,-89.12 83,-80.52"/>
<polygon fill="none" stroke="#63b8ff" points="79.5,-106.75 83,-116.75 86.5,-106.75 79.5,-106.75"/>
</g>
</g>
</svg>
