<?xml version="1.0" encoding="UTF-8" standalone="no"?>
<!DOCTYPE svg PUBLIC "-//W3C//DTD SVG 1.1//EN"
 "http://www.w3.org/Graphics/SVG/1.1/DTD/svg11.dtd">
<!-- Generated by graphviz version 8.0.4 (20230421.1958)
 -->
<!-- Title: RcvRecordingController Pages: 1 -->
<svg width="128pt" height="207pt"
 viewBox="0.00 0.00 128.25 206.50" xmlns="http://www.w3.org/2000/svg" xmlns:xlink="http://www.w3.org/1999/xlink">
<g id="graph0" class="graph" transform="scale(1 1) rotate(0) translate(4 202.5)">
<title>RcvRecordingController</title>
<!-- Node1 -->
<g id="node1" class="node">
<title>Node1</title>
<g id="a_node1"><a xlink:title=" ">
<polygon fill="#999999" stroke="#666666" points="0,-0.5 0,-103.25 120.25,-103.25 120.25,-0.5 0,-0.5"/>
<text text-anchor="middle" x="60.12" y="-89.75" font-family="Helvetica,sans-Serif" font-size="10.00">RcvRecordingController</text>
<polyline fill="none" stroke="#666666" points="0,-84 120.25,-84"/>
<text text-anchor="middle" x="60.12" y="-70.5" font-family="Helvetica,sans-Serif" font-size="10.00"> </text>
<polyline fill="none" stroke="#666666" points="0,-64.75 120.25,-64.75"/>
<text text-anchor="start" x="8" y="-51.25" font-family="Helvetica,sans-Serif" font-size="10.00">+ isRecordingAllowed</text>
<text text-anchor="start" x="8" y="-40" font-family="Helvetica,sans-Serif" font-size="10.00">+ startRecording</text>
<text text-anchor="start" x="8" y="-28.75" font-family="Helvetica,sans-Serif" font-size="10.00">+ pauseRecording</text>
<text text-anchor="start" x="8" y="-17.5" font-family="Helvetica,sans-Serif" font-size="10.00">+ getRecordingState</text>
<text text-anchor="start" x="8" y="-6.25" font-family="Helvetica,sans-Serif" font-size="10.00">+ getRecordingDuration</text>
</a>
</g>
</g>
<!-- Node2 -->
<g id="node2" class="node">
<title>Node2</title>
<g id="a_node2"><a xlink:title=" ">
<polygon fill="white" stroke="#666666" points="30.75,-140.25 30.75,-198 89.5,-198 89.5,-140.25 30.75,-140.25"/>
<text text-anchor="middle" x="60.12" y="-184.5" font-family="Helvetica,sans-Serif" font-size="10.00">NSObject</text>
<polyline fill="none" stroke="#666666" points="30.75,-178.75 89.5,-178.75"/>
<text text-anchor="middle" x="60.12" y="-165.25" font-family="Helvetica,sans-Serif" font-size="10.00"> </text>
<polyline fill="none" stroke="#666666" points="30.75,-159.5 89.5,-159.5"/>
<text text-anchor="middle" x="60.12" y="-146" font-family="Helvetica,sans-Serif" font-size="10.00"> </text>
</a>
</g>
</g>
<!-- Node2&#45;&gt;Node1 -->
<g id="edge1" class="edge">
<title>Node2&#45;&gt;Node1</title>
<path fill="none" stroke="#63b8ff" d="M60.12,-129.65C60.12,-121.04 60.12,-111.79 60.12,-102.8"/>
<polygon fill="none" stroke="#63b8ff" points="56.63,-129.52 60.12,-139.52 63.63,-129.52 56.63,-129.52"/>
</g>
</g>
</svg>
