<?xml version="1.0" encoding="UTF-8" standalone="no"?>
<!DOCTYPE svg PUBLIC "-//W3C//DTD SVG 1.1//EN"
 "http://www.w3.org/Graphics/SVG/1.1/DTD/svg11.dtd">
<!-- Generated by graphviz version 8.0.4 (20230421.1958)
 -->
<!-- Title: RcvClosedCaptionsController Pages: 1 -->
<svg width="154pt" height="195pt"
 viewBox="0.00 0.00 153.75 195.25" xmlns="http://www.w3.org/2000/svg" xmlns:xlink="http://www.w3.org/1999/xlink">
<g id="graph0" class="graph" transform="scale(1 1) rotate(0) translate(4 191.25)">
<title>RcvClosedCaptionsController</title>
<!-- Node1 -->
<g id="node1" class="node">
<title>Node1</title>
<g id="a_node1"><a xlink:title=" ">
<polygon fill="#999999" stroke="#666666" points="0,-0.5 0,-92 145.75,-92 145.75,-0.5 0,-0.5"/>
<text text-anchor="middle" x="72.88" y="-78.5" font-family="Helvetica,sans-Serif" font-size="10.00">RcvClosedCaptionsController</text>
<polyline fill="none" stroke="#666666" points="0,-72.75 145.75,-72.75"/>
<text text-anchor="middle" x="72.88" y="-59.25" font-family="Helvetica,sans-Serif" font-size="10.00"> </text>
<polyline fill="none" stroke="#666666" points="0,-53.5 145.75,-53.5"/>
<text text-anchor="start" x="8" y="-40" font-family="Helvetica,sans-Serif" font-size="10.00">+ startClosedCaptions</text>
<text text-anchor="start" x="8" y="-28.75" font-family="Helvetica,sans-Serif" font-size="10.00">+ stopClosedCaptions</text>
<text text-anchor="start" x="8" y="-17.5" font-family="Helvetica,sans-Serif" font-size="10.00">+ isClosedCaptionsAllowed</text>
<text text-anchor="start" x="8" y="-6.25" font-family="Helvetica,sans-Serif" font-size="10.00">+ getClosedCaptionsState</text>
</a>
</g>
</g>
<!-- Node2 -->
<g id="node2" class="node">
<title>Node2</title>
<g id="a_node2"><a xlink:title=" ">
<polygon fill="white" stroke="#666666" points="43.5,-129 43.5,-186.75 102.25,-186.75 102.25,-129 43.5,-129"/>
<text text-anchor="middle" x="72.88" y="-173.25" font-family="Helvetica,sans-Serif" font-size="10.00">NSObject</text>
<polyline fill="none" stroke="#666666" points="43.5,-167.5 102.25,-167.5"/>
<text text-anchor="middle" x="72.88" y="-154" font-family="Helvetica,sans-Serif" font-size="10.00"> </text>
<polyline fill="none" stroke="#666666" points="43.5,-148.25 102.25,-148.25"/>
<text text-anchor="middle" x="72.88" y="-134.75" font-family="Helvetica,sans-Serif" font-size="10.00"> </text>
</a>
</g>
</g>
<!-- Node2&#45;&gt;Node1 -->
<g id="edge1" class="edge">
<title>Node2&#45;&gt;Node1</title>
<path fill="none" stroke="#63b8ff" d="M72.88,-118.4C72.88,-109.86 72.88,-100.73 72.88,-91.97"/>
<polygon fill="none" stroke="#63b8ff" points="69.38,-118.21 72.88,-128.21 76.38,-118.21 69.38,-118.21"/>
</g>
</g>
</svg>
