<?xml version="1.0" encoding="UTF-8" standalone="no"?>
<!DOCTYPE svg PUBLIC "-//W3C//DTD SVG 1.1//EN"
 "http://www.w3.org/Graphics/SVG/1.1/DTD/svg11.dtd">
<!-- Generated by graphviz version 8.0.5 (20230430.1635)
 -->
<!-- Title: RcvClosedCaptionsData Pages: 1 -->
<svg width="126pt" height="172pt"
 viewBox="0.00 0.00 126.00 172.00" xmlns="http://www.w3.org/2000/svg" xmlns:xlink="http://www.w3.org/1999/xlink">
<g id="graph0" class="graph" transform="scale(1 1) rotate(0) translate(4 168)">
<title>RcvClosedCaptionsData</title>
<!-- Node1 -->
<g id="Node000001" class="node">
<title>Node1</title>
<g id="a_Node000001"><a xlink:title=" ">
<polygon fill="#999999" stroke="none" points="118,-79 0,-79 0,0 118,0 118,-79"/>
<text text-anchor="start" x="4.62" y="-65.5" font-family="Helvetica,sans-Serif" font-size="10.00">RcvClosedCaptionsData</text>
<text text-anchor="start" x="57.5" y="-50.5" font-family="Helvetica,sans-Serif" font-size="10.00"> </text>
<text text-anchor="start" x="13.5" y="-35.5" font-family="Helvetica,sans-Serif" font-size="10.00">+</text>
<text text-anchor="start" x="33" y="-35.5" font-family="Helvetica,sans-Serif" font-size="10.00">getParticipant</text>
<text text-anchor="start" x="13.5" y="-20.5" font-family="Helvetica,sans-Serif" font-size="10.00">+</text>
<text text-anchor="start" x="33" y="-20.5" font-family="Helvetica,sans-Serif" font-size="10.00">getTranscript</text>
<text text-anchor="start" x="13.5" y="-5.5" font-family="Helvetica,sans-Serif" font-size="10.00">+</text>
<text text-anchor="start" x="33" y="-5.5" font-family="Helvetica,sans-Serif" font-size="10.00">getTimestamp</text>
<polygon fill="#666666" stroke="#666666" points="0,-62 0,-62 118,-62 118,-62 0,-62"/>
<polygon fill="#666666" stroke="#666666" points="0,-47 0,-47 118,-47 118,-47 0,-47"/>
<polygon fill="none" stroke="#666666" points="0,0 0,-79 118,-79 118,0 0,0"/>
</a>
</g>
</g>
<!-- Node2 -->
<g id="Node000002" class="node">
<title>Node2</title>
<g id="a_Node000002"><a xlink:title=" ">
<polygon fill="white" stroke="none" points="85,-164 33,-164 33,-115 85,-115 85,-164"/>
<text text-anchor="start" x="37.62" y="-150.5" font-family="Helvetica,sans-Serif" font-size="10.00">NSObject</text>
<text text-anchor="start" x="57.5" y="-135.5" font-family="Helvetica,sans-Serif" font-size="10.00"> </text>
<text text-anchor="start" x="57.5" y="-120.5" font-family="Helvetica,sans-Serif" font-size="10.00"> </text>
<polygon fill="#666666" stroke="#666666" points="33,-147 33,-147 85,-147 85,-147 33,-147"/>
<polygon fill="#666666" stroke="#666666" points="33,-132 33,-132 85,-132 85,-132 33,-132"/>
<polygon fill="none" stroke="#666666" points="33,-115 33,-164 85,-164 85,-115 33,-115"/>
</a>
</g>
</g>
<!-- Node2&#45;&gt;Node1 -->
<g id="edge1_Node000001_Node000002" class="edge">
<title>Node2&#45;&gt;Node1</title>
<g id="a_edge1_Node000001_Node000002"><a xlink:title=" ">
<path fill="none" stroke="#63b8ff" d="M59,-104.5C59,-96.23 59,-87.33 59,-78.88"/>
<polygon fill="none" stroke="#63b8ff" points="55.5,-104.28 59,-114.28 62.5,-104.28 55.5,-104.28"/>
</a>
</g>
</g>
</g>
</svg>
