<?xml version="1.0" encoding="UTF-8" standalone="no"?>
<!DOCTYPE svg PUBLIC "-//W3C//DTD SVG 1.1//EN"
 "http://www.w3.org/Graphics/SVG/1.1/DTD/svg11.dtd">
<!-- Generated by graphviz version 8.0.4 (20230421.1958)
 -->
<!-- Title: RcvMeetingChatController Pages: 1 -->
<svg width="150pt" height="195pt"
 viewBox="0.00 0.00 150.00 195.25" xmlns="http://www.w3.org/2000/svg" xmlns:xlink="http://www.w3.org/1999/xlink">
<g id="graph0" class="graph" transform="scale(1 1) rotate(0) translate(4 191.25)">
<title>RcvMeetingChatController</title>
<!-- Node1 -->
<g id="node1" class="node">
<title>Node1</title>
<g id="a_node1"><a xlink:title=" ">
<polygon fill="#999999" stroke="#666666" points="0,-0.5 0,-92 142,-92 142,-0.5 0,-0.5"/>
<text text-anchor="middle" x="71" y="-78.5" font-family="Helvetica,sans-Serif" font-size="10.00">RcvMeetingChatController</text>
<polyline fill="none" stroke="#666666" points="0,-72.75 142,-72.75"/>
<text text-anchor="middle" x="71" y="-59.25" font-family="Helvetica,sans-Serif" font-size="10.00"> </text>
<polyline fill="none" stroke="#666666" points="0,-53.5 142,-53.5"/>
<text text-anchor="start" x="8" y="-40" font-family="Helvetica,sans-Serif" font-size="10.00">+ sendMessageToUser:msg:</text>
<text text-anchor="start" x="8" y="-28.75" font-family="Helvetica,sans-Serif" font-size="10.00">+ sendMessageToAll:</text>
<text text-anchor="start" x="8" y="-17.5" font-family="Helvetica,sans-Serif" font-size="10.00">+ getCurrentChatPrivilege</text>
<text text-anchor="start" x="8" y="-6.25" font-family="Helvetica,sans-Serif" font-size="10.00">+ setChatPrivilege:</text>
</a>
</g>
</g>
<!-- Node2 -->
<g id="node2" class="node">
<title>Node2</title>
<g id="a_node2"><a xlink:title=" ">
<polygon fill="white" stroke="#666666" points="41.62,-129 41.62,-186.75 100.38,-186.75 100.38,-129 41.62,-129"/>
<text text-anchor="middle" x="71" y="-173.25" font-family="Helvetica,sans-Serif" font-size="10.00">NSObject</text>
<polyline fill="none" stroke="#666666" points="41.62,-167.5 100.38,-167.5"/>
<text text-anchor="middle" x="71" y="-154" font-family="Helvetica,sans-Serif" font-size="10.00"> </text>
<polyline fill="none" stroke="#666666" points="41.62,-148.25 100.38,-148.25"/>
<text text-anchor="middle" x="71" y="-134.75" font-family="Helvetica,sans-Serif" font-size="10.00"> </text>
</a>
</g>
</g>
<!-- Node2&#45;&gt;Node1 -->
<g id="edge1" class="edge">
<title>Node2&#45;&gt;Node1</title>
<path fill="none" stroke="#63b8ff" d="M71,-118.4C71,-109.86 71,-100.73 71,-91.97"/>
<polygon fill="none" stroke="#63b8ff" points="67.5,-118.21 71,-128.21 74.5,-118.21 67.5,-118.21"/>
</g>
</g>
</svg>
