<?xml version="1.0" encoding="UTF-8" standalone="no"?>
<!DOCTYPE svg PUBLIC "-//W3C//DTD SVG 1.1//EN"
 "http://www.w3.org/Graphics/SVG/1.1/DTD/svg11.dtd">
<!-- Generated by graphviz version 8.0.5 (20230430.1635)
 -->
<!-- Title: RCVideoCanvas Pages: 1 -->
<svg width="219pt" height="472pt"
 viewBox="0.00 0.00 219.00 472.00" xmlns="http://www.w3.org/2000/svg" xmlns:xlink="http://www.w3.org/1999/xlink">
<g id="graph0" class="graph" transform="scale(1 1) rotate(0) translate(4 468)">
<title>RCVideoCanvas</title>
<!-- Node1 -->
<g id="Node000001" class="node">
<title>Node1</title>
<g id="a_Node000001"><a xlink:title=" ">
<polygon fill="#999999" stroke="none" points="211,-274 0,-274 0,0 211,0 211,-274"/>
<text text-anchor="start" x="68.75" y="-260.5" font-family="Helvetica,sans-Serif" font-size="10.00">RCVideoCanvas</text>
<text text-anchor="start" x="4" y="-245.5" font-family="Helvetica,sans-Serif" font-size="10.00">+</text>
<text text-anchor="start" x="14" y="-245.5" font-family="Helvetica,sans-Serif" font-size="10.00">uid</text>
<text text-anchor="start" x="4" y="-230.5" font-family="Helvetica,sans-Serif" font-size="10.00">+</text>
<text text-anchor="start" x="14" y="-230.5" font-family="Helvetica,sans-Serif" font-size="10.00">renderMode</text>
<text text-anchor="start" x="4" y="-215.5" font-family="Helvetica,sans-Serif" font-size="10.00">+</text>
<text text-anchor="start" x="14" y="-215.5" font-family="Helvetica,sans-Serif" font-size="10.00">mirrorMode</text>
<text text-anchor="start" x="4" y="-200.5" font-family="Helvetica,sans-Serif" font-size="10.00">+</text>
<text text-anchor="start" x="14" y="-200.5" font-family="Helvetica,sans-Serif" font-size="10.00">NS_UNAVAILABLE</text>
<text text-anchor="start" x="4" y="-185.5" font-family="Helvetica,sans-Serif" font-size="10.00">+</text>
<text text-anchor="start" x="14" y="-185.5" font-family="Helvetica,sans-Serif" font-size="10.00">initWithView:</text>
<text text-anchor="start" x="4" y="-170.5" font-family="Helvetica,sans-Serif" font-size="10.00">+</text>
<text text-anchor="start" x="14" y="-170.5" font-family="Helvetica,sans-Serif" font-size="10.00">initWithView:Uid:</text>
<text text-anchor="start" x="4" y="-155.5" font-family="Helvetica,sans-Serif" font-size="10.00">+</text>
<text text-anchor="start" x="14" y="-155.5" font-family="Helvetica,sans-Serif" font-size="10.00">initWithView:Uid:RenderMode:</text>
<text text-anchor="start" x="4" y="-140.5" font-family="Helvetica,sans-Serif" font-size="10.00">+</text>
<text text-anchor="start" x="14" y="-140.5" font-family="Helvetica,sans-Serif" font-size="10.00">initWithView:Uid:RenderMode:isMirrorMode:</text>
<text text-anchor="start" x="4" y="-125.5" font-family="Helvetica,sans-Serif" font-size="10.00">+</text>
<text text-anchor="start" x="14" y="-125.5" font-family="Helvetica,sans-Serif" font-size="10.00">setUid:</text>
<text text-anchor="start" x="4" y="-110.5" font-family="Helvetica,sans-Serif" font-size="10.00">+</text>
<text text-anchor="start" x="14" y="-110.5" font-family="Helvetica,sans-Serif" font-size="10.00">getUid</text>
<text text-anchor="start" x="4" y="-95.5" font-family="Helvetica,sans-Serif" font-size="10.00">+</text>
<text text-anchor="start" x="14" y="-95.5" font-family="Helvetica,sans-Serif" font-size="10.00">setRenderMode:</text>
<text text-anchor="start" x="4" y="-80.5" font-family="Helvetica,sans-Serif" font-size="10.00">+</text>
<text text-anchor="start" x="14" y="-80.5" font-family="Helvetica,sans-Serif" font-size="10.00">getRenderMode</text>
<text text-anchor="start" x="4" y="-65.5" font-family="Helvetica,sans-Serif" font-size="10.00">+</text>
<text text-anchor="start" x="14" y="-65.5" font-family="Helvetica,sans-Serif" font-size="10.00">setMirrorMode:</text>
<text text-anchor="start" x="4" y="-50.5" font-family="Helvetica,sans-Serif" font-size="10.00">+</text>
<text text-anchor="start" x="14" y="-50.5" font-family="Helvetica,sans-Serif" font-size="10.00">isMirrorMode</text>
<text text-anchor="start" x="4" y="-35.5" font-family="Helvetica,sans-Serif" font-size="10.00">+</text>
<text text-anchor="start" x="14" y="-35.5" font-family="Helvetica,sans-Serif" font-size="10.00">attachView:</text>
<text text-anchor="start" x="4" y="-20.5" font-family="Helvetica,sans-Serif" font-size="10.00">+</text>
<text text-anchor="start" x="14" y="-20.5" font-family="Helvetica,sans-Serif" font-size="10.00">detachView</text>
<text text-anchor="start" x="4" y="-5.5" font-family="Helvetica,sans-Serif" font-size="10.00">+</text>
<text text-anchor="start" x="14" y="-5.5" font-family="Helvetica,sans-Serif" font-size="10.00">setDelegate:</text>
<polygon fill="#666666" stroke="#666666" points="0,-257 0,-257 211,-257 211,-257 0,-257"/>
<polygon fill="#666666" stroke="#666666" points="0,-212 0,-212 12,-212 12,-212 0,-212"/>
<polygon fill="#666666" stroke="#666666" points="12,-212 12,-212 211,-212 211,-212 12,-212"/>
<polygon fill="none" stroke="#666666" points="0,0 0,-274 211,-274 211,0 0,0"/>
</a>
</g>
</g>
<!-- Node2 -->
<g id="Node000002" class="node">
<title>Node2</title>
<g id="a_Node000002"><a xlink:title=" ">
<polygon fill="white" stroke="none" points="85.5,-411.5 33.5,-411.5 33.5,-362.5 85.5,-362.5 85.5,-411.5"/>
<text text-anchor="start" x="38.12" y="-398" font-family="Helvetica,sans-Serif" font-size="10.00">NSObject</text>
<text text-anchor="start" x="58" y="-383" font-family="Helvetica,sans-Serif" font-size="10.00"> </text>
<text text-anchor="start" x="58" y="-368" font-family="Helvetica,sans-Serif" font-size="10.00"> </text>
<polygon fill="#666666" stroke="#666666" points="33.5,-394.5 33.5,-394.5 85.5,-394.5 85.5,-394.5 33.5,-394.5"/>
<polygon fill="#666666" stroke="#666666" points="33.5,-379.5 33.5,-379.5 85.5,-379.5 85.5,-379.5 33.5,-379.5"/>
<polygon fill="none" stroke="#666666" points="33.5,-362.5 33.5,-411.5 85.5,-411.5 85.5,-362.5 33.5,-362.5"/>
</a>
</g>
</g>
<!-- Node2&#45;&gt;Node1 -->
<g id="edge1_Node000001_Node000002" class="edge">
<title>Node2&#45;&gt;Node1</title>
<g id="a_edge1_Node000001_Node000002"><a xlink:title=" ">
<path fill="none" stroke="#63b8ff" d="M65.83,-351.89C69.69,-331.05 74.92,-302.89 80.3,-273.86"/>
<polygon fill="none" stroke="#63b8ff" points="62.21,-351.2 63.83,-361.67 69.09,-352.47 62.21,-351.2"/>
</a>
</g>
</g>
<!-- Node3 -->
<g id="Node000003" class="node">
<title>Node3</title>
<g id="a_Node000003"><a xlink:href="protocol_rcv_video_canvas-p.html" target="_top" xlink:title=" ">
<polygon fill="white" stroke="none" points="201.5,-464 103.5,-464 103.5,-310 201.5,-310 201.5,-464"/>
<text text-anchor="start" x="108.25" y="-450.5" font-family="Helvetica,sans-Serif" font-size="10.00">&lt;RcvVideoCanvas&gt;</text>
<text text-anchor="start" x="151" y="-435.5" font-family="Helvetica,sans-Serif" font-size="10.00"> </text>
<text text-anchor="start" x="108" y="-420.5" font-family="Helvetica,sans-Serif" font-size="10.00">+</text>
<text text-anchor="start" x="118.5" y="-420.5" font-family="Helvetica,sans-Serif" font-size="10.00">setUid:</text>
<text text-anchor="start" x="108" y="-405.5" font-family="Helvetica,sans-Serif" font-size="10.00">+</text>
<text text-anchor="start" x="118.5" y="-405.5" font-family="Helvetica,sans-Serif" font-size="10.00">getUid</text>
<text text-anchor="start" x="108" y="-390.5" font-family="Helvetica,sans-Serif" font-size="10.00">+</text>
<text text-anchor="start" x="118.5" y="-390.5" font-family="Helvetica,sans-Serif" font-size="10.00">setRenderMode:</text>
<text text-anchor="start" x="108" y="-375.5" font-family="Helvetica,sans-Serif" font-size="10.00">+</text>
<text text-anchor="start" x="118.5" y="-375.5" font-family="Helvetica,sans-Serif" font-size="10.00">getRenderMode</text>
<text text-anchor="start" x="108" y="-360.5" font-family="Helvetica,sans-Serif" font-size="10.00">+</text>
<text text-anchor="start" x="118.5" y="-360.5" font-family="Helvetica,sans-Serif" font-size="10.00">setMirrorMode:</text>
<text text-anchor="start" x="108" y="-345.5" font-family="Helvetica,sans-Serif" font-size="10.00">+</text>
<text text-anchor="start" x="118.5" y="-345.5" font-family="Helvetica,sans-Serif" font-size="10.00">isMirrorMode</text>
<text text-anchor="start" x="108" y="-330.5" font-family="Helvetica,sans-Serif" font-size="10.00">+</text>
<text text-anchor="start" x="118.5" y="-330.5" font-family="Helvetica,sans-Serif" font-size="10.00">attachTrack:type:</text>
<text text-anchor="start" x="108" y="-315.5" font-family="Helvetica,sans-Serif" font-size="10.00">+</text>
<text text-anchor="start" x="118.5" y="-315.5" font-family="Helvetica,sans-Serif" font-size="10.00">detachTrack:type:</text>
<polygon fill="#666666" stroke="#666666" points="103.5,-447 103.5,-447 201.5,-447 201.5,-447 103.5,-447"/>
<polygon fill="#666666" stroke="#666666" points="103.5,-432 103.5,-432 201.5,-432 201.5,-432 103.5,-432"/>
<polygon fill="none" stroke="#666666" points="103.5,-310 103.5,-464 201.5,-464 201.5,-310 103.5,-310"/>
</a>
</g>
</g>
<!-- Node3&#45;&gt;Node1 -->
<g id="edge2_Node000001_Node000003" class="edge">
<title>Node3&#45;&gt;Node1</title>
<g id="a_edge2_Node000001_Node000003"><a xlink:title=" ">
<path fill="none" stroke="#63b8ff" d="M136.14,-299.68C134.54,-291.21 132.88,-282.49 131.22,-273.69"/>
<polygon fill="none" stroke="#63b8ff" points="132.84,-300.07 138.14,-309.24 139.72,-298.77 132.84,-300.07"/>
</a>
</g>
</g>
</g>
</svg>
