<?xml version="1.0" encoding="UTF-8" standalone="no"?>
<!DOCTYPE svg PUBLIC "-//W3C//DTD SVG 1.1//EN"
 "http://www.w3.org/Graphics/SVG/1.1/DTD/svg11.dtd">
<!-- Generated by graphviz version 7.1.0 (20230121.1956)
 -->
<!-- Title: RcvBaseVideoView Pages: 1 -->
<svg width="406pt" height="331pt"
 viewBox="0.00 0.00 405.50 331.00" xmlns="http://www.w3.org/2000/svg" xmlns:xlink="http://www.w3.org/1999/xlink">
<g id="graph0" class="graph" transform="scale(1 1) rotate(0) translate(4 327)">
<title>RcvBaseVideoView</title>
<!-- Node1 -->
<g id="node1" class="node">
<title>Node1</title>
<g id="a_node1"><a xlink:title=" ">
<polygon fill="#999999" stroke="#666666" points="129.5,-94.5 129.5,-228.5 233.5,-228.5 233.5,-94.5 129.5,-94.5"/>
<text text-anchor="middle" x="181.5" y="-216.5" font-family="Helvetica,sans-Serif" font-size="10.00">RcvBaseVideoView</text>
<polyline fill="none" stroke="#666666" points="129.5,-209.5 233.5,-209.5"/>
<text text-anchor="start" x="137.5" y="-197.5" font-family="Helvetica,sans-Serif" font-size="10.00">+ delegate</text>
<text text-anchor="start" x="137.5" y="-186.5" font-family="Helvetica,sans-Serif" font-size="10.00">+ renderMode</text>
<text text-anchor="start" x="137.5" y="-175.5" font-family="Helvetica,sans-Serif" font-size="10.00">+ mirrorMode</text>
<polyline fill="none" stroke="#666666" points="129.5,-168.5 233.5,-168.5"/>
<text text-anchor="start" x="137.5" y="-156.5" font-family="Helvetica,sans-Serif" font-size="10.00">+ getRenderer</text>
<text text-anchor="start" x="137.5" y="-145.5" font-family="Helvetica,sans-Serif" font-size="10.00">+ showRenderer</text>
<text text-anchor="start" x="137.5" y="-134.5" font-family="Helvetica,sans-Serif" font-size="10.00">+ hideRenderer</text>
<text text-anchor="start" x="137.5" y="-123.5" font-family="Helvetica,sans-Serif" font-size="10.00">+ updateRenderer</text>
<text text-anchor="start" x="137.5" y="-112.5" font-family="Helvetica,sans-Serif" font-size="10.00">+ getVideoSize</text>
<text text-anchor="start" x="137.5" y="-101.5" font-family="Helvetica,sans-Serif" font-size="10.00">+ restoreVideoSize:</text>
</a>
</g>
</g>
<!-- Node4 -->
<g id="node4" class="node">
<title>Node4</title>
<g id="a_node4"><a xlink:href="interface_rcv_metal_video_view.html" target="_top" xlink:title=" ">
<polygon fill="white" stroke="#666666" points="0,-0.5 0,-57.5 105,-57.5 105,-0.5 0,-0.5"/>
<text text-anchor="middle" x="52.5" y="-45.5" font-family="Helvetica,sans-Serif" font-size="10.00">RcvMetalVideoView</text>
<polyline fill="none" stroke="#666666" points="0,-38.5 105,-38.5"/>
<text text-anchor="middle" x="52.5" y="-26.5" font-family="Helvetica,sans-Serif" font-size="10.00"> </text>
<polyline fill="none" stroke="#666666" points="0,-19.5 105,-19.5"/>
<text text-anchor="middle" x="52.5" y="-7.5" font-family="Helvetica,sans-Serif" font-size="10.00"> </text>
</a>
</g>
</g>
<!-- Node1&#45;&gt;Node4 -->
<g id="edge3" class="edge">
<title>Node1&#45;&gt;Node4</title>
<path fill="none" stroke="#63b8ff" d="M122.03,-100.34C107.12,-85.26 91.85,-69.81 79.44,-57.25"/>
<polygon fill="none" stroke="#63b8ff" points="119.19,-102.44 128.71,-107.1 124.17,-97.52 119.19,-102.44"/>
</g>
<!-- Node5 -->
<g id="node5" class="node">
<title>Node5</title>
<g id="a_node5"><a xlink:href="interface_rcv_open_g_l_video_view.html" target="_top" xlink:title=" ">
<polygon fill="white" stroke="#666666" points="123.5,-0.5 123.5,-57.5 239.5,-57.5 239.5,-0.5 123.5,-0.5"/>
<text text-anchor="middle" x="181.5" y="-45.5" font-family="Helvetica,sans-Serif" font-size="10.00">RcvOpenGLVideoView</text>
<polyline fill="none" stroke="#666666" points="123.5,-38.5 239.5,-38.5"/>
<text text-anchor="middle" x="181.5" y="-26.5" font-family="Helvetica,sans-Serif" font-size="10.00"> </text>
<polyline fill="none" stroke="#666666" points="123.5,-19.5 239.5,-19.5"/>
<text text-anchor="middle" x="181.5" y="-7.5" font-family="Helvetica,sans-Serif" font-size="10.00"> </text>
</a>
</g>
</g>
<!-- Node1&#45;&gt;Node5 -->
<g id="edge4" class="edge">
<title>Node1&#45;&gt;Node5</title>
<path fill="none" stroke="#63b8ff" d="M181.5,-83.48C181.5,-74.23 181.5,-65.31 181.5,-57.49"/>
<polygon fill="none" stroke="#63b8ff" points="178,-83.35 181.5,-93.35 185,-83.35 178,-83.35"/>
</g>
<!-- Node6 -->
<g id="node6" class="node">
<title>Node6</title>
<g id="a_node6"><a xlink:href="interface_rcv_sample_buffer_video_view.html" target="_top" xlink:title=" ">
<polygon fill="white" stroke="#666666" points="257.5,-0.5 257.5,-57.5 397.5,-57.5 397.5,-0.5 257.5,-0.5"/>
<text text-anchor="middle" x="327.5" y="-45.5" font-family="Helvetica,sans-Serif" font-size="10.00">RcvSampleBufferVideoView</text>
<polyline fill="none" stroke="#666666" points="257.5,-38.5 397.5,-38.5"/>
<text text-anchor="middle" x="327.5" y="-26.5" font-family="Helvetica,sans-Serif" font-size="10.00"> </text>
<polyline fill="none" stroke="#666666" points="257.5,-19.5 397.5,-19.5"/>
<text text-anchor="middle" x="327.5" y="-7.5" font-family="Helvetica,sans-Serif" font-size="10.00"> </text>
</a>
</g>
</g>
<!-- Node1&#45;&gt;Node6 -->
<g id="edge5" class="edge">
<title>Node1&#45;&gt;Node6</title>
<path fill="none" stroke="#63b8ff" d="M241.74,-106.66C260.77,-89.64 281,-71.56 297.03,-57.23"/>
<polygon fill="none" stroke="#63b8ff" points="239.64,-103.84 234.51,-113.11 244.3,-109.06 239.64,-103.84"/>
</g>
<!-- Node2 -->
<g id="node2" class="node">
<title>Node2</title>
<g id="a_node2"><a xlink:title=" ">
<polygon fill="white" stroke="#666666" points="102,-265.5 102,-322.5 151,-322.5 151,-265.5 102,-265.5"/>
<text text-anchor="middle" x="126.5" y="-310.5" font-family="Helvetica,sans-Serif" font-size="10.00">UIView</text>
<polyline fill="none" stroke="#666666" points="102,-303.5 151,-303.5"/>
<text text-anchor="middle" x="126.5" y="-291.5" font-family="Helvetica,sans-Serif" font-size="10.00"> </text>
<polyline fill="none" stroke="#666666" points="102,-284.5 151,-284.5"/>
<text text-anchor="middle" x="126.5" y="-272.5" font-family="Helvetica,sans-Serif" font-size="10.00"> </text>
</a>
</g>
</g>
<!-- Node2&#45;&gt;Node1 -->
<g id="edge1" class="edge">
<title>Node2&#45;&gt;Node1</title>
<path fill="none" stroke="#63b8ff" d="M142.49,-255.05C146.05,-246.62 149.91,-237.45 153.78,-228.27"/>
<polygon fill="none" stroke="#63b8ff" points="139.28,-253.67 138.62,-264.25 145.73,-256.39 139.28,-253.67"/>
</g>
<!-- Node3 -->
<g id="node3" class="node">
<title>Node3</title>
<g id="a_node3"><a xlink:title=" ">
<polygon fill="white" stroke="#666666" points="169,-265.5 169,-322.5 304,-322.5 304,-265.5 169,-265.5"/>
<text text-anchor="middle" x="236.5" y="-310.5" font-family="Helvetica,sans-Serif" font-size="10.00">&lt;RTCVideoViewDelegate&gt;</text>
<polyline fill="none" stroke="#666666" points="169,-303.5 304,-303.5"/>
<text text-anchor="middle" x="236.5" y="-291.5" font-family="Helvetica,sans-Serif" font-size="10.00"> </text>
<polyline fill="none" stroke="#666666" points="169,-284.5 304,-284.5"/>
<text text-anchor="middle" x="236.5" y="-272.5" font-family="Helvetica,sans-Serif" font-size="10.00"> </text>
</a>
</g>
</g>
<!-- Node3&#45;&gt;Node1 -->
<g id="edge2" class="edge">
<title>Node3&#45;&gt;Node1</title>
<path fill="none" stroke="#63b8ff" d="M220.51,-255.05C216.95,-246.62 213.09,-237.45 209.22,-228.27"/>
<polygon fill="none" stroke="#63b8ff" points="217.27,-256.39 224.38,-264.25 223.72,-253.67 217.27,-256.39"/>
</g>
</g>
</svg>
