<?xml version="1.0" encoding="UTF-8" standalone="no"?>
<!DOCTYPE svg PUBLIC "-//W3C//DTD SVG 1.1//EN"
 "http://www.w3.org/Graphics/SVG/1.1/DTD/svg11.dtd">
<!-- Generated by graphviz version 8.1.0 (20230707.0739)
 -->
<!-- Title: RcvClosedCaptionsController Pages: 1 -->
<svg width="147pt" height="187pt"
 viewBox="0.00 0.00 147.00 187.00" xmlns="http://www.w3.org/2000/svg" xmlns:xlink="http://www.w3.org/1999/xlink">
<g id="graph0" class="graph" transform="scale(1 1) rotate(0) translate(4 183)">
<title>RcvClosedCaptionsController</title>
<!-- Node1 -->
<g id="Node000001" class="node">
<title>Node1</title>
<g id="a_Node000001"><a xlink:title=" ">
<polygon fill="#999999" stroke="none" points="139,-94 0,-94 0,0 139,0 139,-94"/>
<text text-anchor="start" x="4.62" y="-80.5" font-family="Helvetica,sans-Serif" font-size="10.00">RcvClosedCaptionsController</text>
<text text-anchor="start" x="68" y="-65.5" font-family="Helvetica,sans-Serif" font-size="10.00"> </text>
<text text-anchor="start" x="6.5" y="-50.5" font-family="Helvetica,sans-Serif" font-size="10.00">+</text>
<text text-anchor="start" x="19" y="-50.5" font-family="Helvetica,sans-Serif" font-size="10.00">startClosedCaptions</text>
<text text-anchor="start" x="6.5" y="-35.5" font-family="Helvetica,sans-Serif" font-size="10.00">+</text>
<text text-anchor="start" x="19" y="-35.5" font-family="Helvetica,sans-Serif" font-size="10.00">stopClosedCaptions</text>
<text text-anchor="start" x="6.5" y="-20.5" font-family="Helvetica,sans-Serif" font-size="10.00">+</text>
<text text-anchor="start" x="19" y="-20.5" font-family="Helvetica,sans-Serif" font-size="10.00">isClosedCaptionsAllowed</text>
<text text-anchor="start" x="6.5" y="-5.5" font-family="Helvetica,sans-Serif" font-size="10.00">+</text>
<text text-anchor="start" x="19" y="-5.5" font-family="Helvetica,sans-Serif" font-size="10.00">getClosedCaptionsState</text>
<polygon fill="#666666" stroke="#666666" points="0,-77 0,-77 139,-77 139,-77 0,-77"/>
<polygon fill="#666666" stroke="#666666" points="0,-62 0,-62 139,-62 139,-62 0,-62"/>
<polygon fill="none" stroke="#666666" points="0,0 0,-94 139,-94 139,0 0,0"/>
</a>
</g>
</g>
<!-- Node2 -->
<g id="Node000002" class="node">
<title>Node2</title>
<g id="a_Node000002"><a xlink:title=" ">
<polygon fill="white" stroke="none" points="95.5,-179 43.5,-179 43.5,-130 95.5,-130 95.5,-179"/>
<text text-anchor="start" x="48.12" y="-165.5" font-family="Helvetica,sans-Serif" font-size="10.00">NSObject</text>
<text text-anchor="start" x="68" y="-150.5" font-family="Helvetica,sans-Serif" font-size="10.00"> </text>
<text text-anchor="start" x="68" y="-135.5" font-family="Helvetica,sans-Serif" font-size="10.00"> </text>
<polygon fill="#666666" stroke="#666666" points="43.5,-162 43.5,-162 95.5,-162 95.5,-162 43.5,-162"/>
<polygon fill="#666666" stroke="#666666" points="43.5,-147 43.5,-147 95.5,-147 95.5,-147 43.5,-147"/>
<polygon fill="none" stroke="#666666" points="43.5,-130 43.5,-179 95.5,-179 95.5,-130 43.5,-130"/>
</a>
</g>
</g>
<!-- Node2&#45;&gt;Node1 -->
<g id="edge1_Node000001_Node000002" class="edge">
<title>Node2&#45;&gt;Node1</title>
<g id="a_edge1_Node000001_Node000002"><a xlink:title=" ">
<path fill="none" stroke="#63b8ff" d="M69.5,-119.19C69.5,-111.1 69.5,-102.36 69.5,-93.85"/>
<polygon fill="none" stroke="#63b8ff" points="66,-119.09 69.5,-129.09 73,-119.09 66,-119.09"/>
</a>
</g>
</g>
</g>
</svg>
