<?xml version="1.0" encoding="UTF-8" standalone="no"?>
<!DOCTYPE svg PUBLIC "-//W3C//DTD SVG 1.1//EN"
 "http://www.w3.org/Graphics/SVG/1.1/DTD/svg11.dtd">
<!-- Generated by graphviz version 8.0.5 (20230430.1635)
 -->
<!-- Title: RcvRecordingController Pages: 1 -->
<svg width="122pt" height="202pt"
 viewBox="0.00 0.00 122.00 202.00" xmlns="http://www.w3.org/2000/svg" xmlns:xlink="http://www.w3.org/1999/xlink">
<g id="graph0" class="graph" transform="scale(1 1) rotate(0) translate(4 198)">
<title>RcvRecordingController</title>
<!-- Node1 -->
<g id="Node000001" class="node">
<title>Node1</title>
<g id="a_Node000001"><a xlink:title=" ">
<polygon fill="#999999" stroke="none" points="114,-109 0,-109 0,0 114,0 114,-109"/>
<text text-anchor="start" x="4.88" y="-95.5" font-family="Helvetica,sans-Serif" font-size="10.00">RcvRecordingController</text>
<text text-anchor="start" x="55.5" y="-80.5" font-family="Helvetica,sans-Serif" font-size="10.00"> </text>
<text text-anchor="start" x="4.5" y="-65.5" font-family="Helvetica,sans-Serif" font-size="10.00">+</text>
<text text-anchor="start" x="15" y="-65.5" font-family="Helvetica,sans-Serif" font-size="10.00">isRecordingAllowed</text>
<text text-anchor="start" x="4.5" y="-50.5" font-family="Helvetica,sans-Serif" font-size="10.00">+</text>
<text text-anchor="start" x="15" y="-50.5" font-family="Helvetica,sans-Serif" font-size="10.00">startRecording</text>
<text text-anchor="start" x="4.5" y="-35.5" font-family="Helvetica,sans-Serif" font-size="10.00">+</text>
<text text-anchor="start" x="15" y="-35.5" font-family="Helvetica,sans-Serif" font-size="10.00">pauseRecording</text>
<text text-anchor="start" x="4.5" y="-20.5" font-family="Helvetica,sans-Serif" font-size="10.00">+</text>
<text text-anchor="start" x="15" y="-20.5" font-family="Helvetica,sans-Serif" font-size="10.00">getRecordingState</text>
<text text-anchor="start" x="4.5" y="-5.5" font-family="Helvetica,sans-Serif" font-size="10.00">+</text>
<text text-anchor="start" x="15" y="-5.5" font-family="Helvetica,sans-Serif" font-size="10.00">getRecordingDuration</text>
<polygon fill="#666666" stroke="#666666" points="0,-92 0,-92 114,-92 114,-92 0,-92"/>
<polygon fill="#666666" stroke="#666666" points="0,-77 0,-77 114,-77 114,-77 0,-77"/>
<polygon fill="none" stroke="#666666" points="0,0 0,-109 114,-109 114,0 0,0"/>
</a>
</g>
</g>
<!-- Node2 -->
<g id="Node000002" class="node">
<title>Node2</title>
<g id="a_Node000002"><a xlink:title=" ">
<polygon fill="white" stroke="none" points="83,-194 31,-194 31,-145 83,-145 83,-194"/>
<text text-anchor="start" x="35.62" y="-180.5" font-family="Helvetica,sans-Serif" font-size="10.00">NSObject</text>
<text text-anchor="start" x="55.5" y="-165.5" font-family="Helvetica,sans-Serif" font-size="10.00"> </text>
<text text-anchor="start" x="55.5" y="-150.5" font-family="Helvetica,sans-Serif" font-size="10.00"> </text>
<polygon fill="#666666" stroke="#666666" points="31,-177 31,-177 83,-177 83,-177 31,-177"/>
<polygon fill="#666666" stroke="#666666" points="31,-162 31,-162 83,-162 83,-162 31,-162"/>
<polygon fill="none" stroke="#666666" points="31,-145 31,-194 83,-194 83,-145 31,-145"/>
</a>
</g>
</g>
<!-- Node2&#45;&gt;Node1 -->
<g id="edge1_Node000001_Node000002" class="edge">
<title>Node2&#45;&gt;Node1</title>
<g id="a_edge1_Node000001_Node000002"><a xlink:title=" ">
<path fill="none" stroke="#63b8ff" d="M57,-134.25C57,-126.18 57,-117.39 57,-108.71"/>
<polygon fill="none" stroke="#63b8ff" points="53.5,-134.09 57,-144.09 60.5,-134.09 53.5,-134.09"/>
</a>
</g>
</g>
</g>
</svg>
