<?xml version="1.0" encoding="UTF-8" standalone="no"?>
<!DOCTYPE svg PUBLIC "-//W3C//DTD SVG 1.1//EN"
 "http://www.w3.org/Graphics/SVG/1.1/DTD/svg11.dtd">
<!-- Generated by graphviz version 8.0.5 (20230430.1635)
 -->
<!-- Title: RcvMeetingContextController Pages: 1 -->
<svg width="167pt" height="172pt"
 viewBox="0.00 0.00 167.00 172.00" xmlns="http://www.w3.org/2000/svg" xmlns:xlink="http://www.w3.org/1999/xlink">

<svg id="main" version="1.1" xmlns="http://www.w3.org/2000/svg" xmlns:xlink="http://www.w3.org/1999/xlink" xml:space="preserve" onload="init(evt)">
<style type="text/css"><![CDATA[
.node, .edge {opacity: 0.7;}
.node.selected, .edge.selected {opacity: 1;}
.edge:hover path { stroke: red; }
.edge:hover polygon { stroke: red; fill: red; }
]]></style>
<script type="application/ecmascript" xlink:href="svg.min.js"/>
<svg id="graph" class="graph">
<g id="graph0" class="graph" transform="scale(1 1) rotate(0) translate(4 168)">
<title>RcvMeetingContextController</title>
<!-- Node1 -->
<g id="Node000001" class="node">
<title>Node1</title>
<g id="a_Node000001"><a xlink:title=" ">
<polygon fill="#999999" stroke="none" points="159,-79 0,-79 0,0 159,0 159,-79"/>
<text text-anchor="start" x="15" y="-65.5" font-family="Helvetica,sans-Serif" font-size="10.00">RcvMeetingContextController</text>
<text text-anchor="start" x="78" y="-50.5" font-family="Helvetica,sans-Serif" font-size="10.00"> </text>
<text text-anchor="start" x="4" y="-35.5" font-family="Helvetica,sans-Serif" font-size="10.00">+</text>
<text text-anchor="start" x="14" y="-35.5" font-family="Helvetica,sans-Serif" font-size="10.00">updatePersonalMeetingSettings:</text>
<text text-anchor="start" x="4" y="-20.5" font-family="Helvetica,sans-Serif" font-size="10.00">+</text>
<text text-anchor="start" x="14" y="-20.5" font-family="Helvetica,sans-Serif" font-size="10.00">loadPersonalMeetingSettings</text>
<text text-anchor="start" x="4" y="-5.5" font-family="Helvetica,sans-Serif" font-size="10.00">+</text>
<text text-anchor="start" x="14" y="-5.5" font-family="Helvetica,sans-Serif" font-size="10.00">scheduleMeeting:</text>
<polygon fill="#666666" stroke="#666666" points="0,-62 0,-62 159,-62 159,-62 0,-62"/>
<polygon fill="#666666" stroke="#666666" points="0,-47 0,-47 159,-47 159,-47 0,-47"/>
<polygon fill="none" stroke="#666666" points="0,0 0,-79 159,-79 159,0 0,0"/>
</a>
</g>
</g>
<!-- Node2 -->
<g id="Node000002" class="node">
<title>Node2</title>
<g id="a_Node000002"><a xlink:title=" ">
<polygon fill="white" stroke="none" points="105.5,-164 53.5,-164 53.5,-115 105.5,-115 105.5,-164"/>
<text text-anchor="start" x="58.12" y="-150.5" font-family="Helvetica,sans-Serif" font-size="10.00">NSObject</text>
<text text-anchor="start" x="78" y="-135.5" font-family="Helvetica,sans-Serif" font-size="10.00"> </text>
<text text-anchor="start" x="78" y="-120.5" font-family="Helvetica,sans-Serif" font-size="10.00"> </text>
<polygon fill="#666666" stroke="#666666" points="53.5,-147 53.5,-147 105.5,-147 105.5,-147 53.5,-147"/>
<polygon fill="#666666" stroke="#666666" points="53.5,-132 53.5,-132 105.5,-132 105.5,-132 53.5,-132"/>
<polygon fill="none" stroke="#666666" points="53.5,-115 53.5,-164 105.5,-164 105.5,-115 53.5,-115"/>
</a>
</g>
</g>
<!-- Node2&#45;&gt;Node1 -->
<g id="edge1_Node000001_Node000002" class="edge">
<title>Node2&#45;&gt;Node1</title>
<g id="a_edge1_Node000001_Node000002"><a xlink:title=" ">
<path fill="none" stroke="#63b8ff" d="M79.5,-104.5C79.5,-96.23 79.5,-87.33 79.5,-78.88"/>
<polygon fill="none" stroke="#63b8ff" points="76,-104.28 79.5,-114.28 83,-104.28 76,-104.28"/>
</a>
</g>
</g>
</g>
</svg>
</svg>

<style type='text/css'>
<![CDATA[
[data-mouse-over-selected='false'] { opacity: 0.7; }
[data-mouse-over-selected='true']  { opacity: 1.0; }
]]>
</style>
<script type="application/ecmascript"><![CDATA[
document.addEventListener('DOMContentLoaded', (event) => {
  highlightEdges();
  highlightAdjacentNodes();
});
]]></script>
</svg>
