<?xml version="1.0" encoding="UTF-8" standalone="no"?>
<!DOCTYPE svg PUBLIC "-//W3C//DTD SVG 1.1//EN"
 "http://www.w3.org/Graphics/SVG/1.1/DTD/svg11.dtd">
<!-- Generated by graphviz version 8.0.4 (20230421.1958)
 -->
<!-- Title: RcvVideoDeviceManager Pages: 1 -->
<svg width="138pt" height="229pt"
 viewBox="0.00 0.00 138.00 229.00" xmlns="http://www.w3.org/2000/svg" xmlns:xlink="http://www.w3.org/1999/xlink">
<g id="graph0" class="graph" transform="scale(1 1) rotate(0) translate(4 225)">
<title>RcvVideoDeviceManager</title>
<!-- Node1 -->
<g id="node1" class="node">
<title>Node1</title>
<g id="a_node1"><a xlink:title=" ">
<polygon fill="#999999" stroke="#666666" points="0,-0.5 0,-125.75 130,-125.75 130,-0.5 0,-0.5"/>
<text text-anchor="middle" x="65" y="-112.25" font-family="Helvetica,sans-Serif" font-size="10.00">RcvVideoDeviceManager</text>
<polyline fill="none" stroke="#666666" points="0,-106.5 130,-106.5"/>
<text text-anchor="middle" x="65" y="-93" font-family="Helvetica,sans-Serif" font-size="10.00"> </text>
<polyline fill="none" stroke="#666666" points="0,-87.25 130,-87.25"/>
<text text-anchor="start" x="8" y="-73.75" font-family="Helvetica,sans-Serif" font-size="10.00">+ registerEventHandler:</text>
<text text-anchor="start" x="8" y="-62.5" font-family="Helvetica,sans-Serif" font-size="10.00">+ unregisterEventHandler:</text>
<text text-anchor="start" x="8" y="-51.25" font-family="Helvetica,sans-Serif" font-size="10.00">+ enumerateDevices</text>
<text text-anchor="start" x="8" y="-40" font-family="Helvetica,sans-Serif" font-size="10.00">+ setDevice:</text>
<text text-anchor="start" x="8" y="-28.75" font-family="Helvetica,sans-Serif" font-size="10.00">+ getDevice</text>
<text text-anchor="start" x="8" y="-17.5" font-family="Helvetica,sans-Serif" font-size="10.00">+ startDeviceTest:</text>
<text text-anchor="start" x="8" y="-6.25" font-family="Helvetica,sans-Serif" font-size="10.00">+ stopDeviceTest</text>
</a>
</g>
</g>
<!-- Node2 -->
<g id="node2" class="node">
<title>Node2</title>
<g id="a_node2"><a xlink:title=" ">
<polygon fill="white" stroke="#666666" points="35.62,-162.75 35.62,-220.5 94.38,-220.5 94.38,-162.75 35.62,-162.75"/>
<text text-anchor="middle" x="65" y="-207" font-family="Helvetica,sans-Serif" font-size="10.00">NSObject</text>
<polyline fill="none" stroke="#666666" points="35.62,-201.25 94.38,-201.25"/>
<text text-anchor="middle" x="65" y="-187.75" font-family="Helvetica,sans-Serif" font-size="10.00"> </text>
<polyline fill="none" stroke="#666666" points="35.62,-182 94.38,-182"/>
<text text-anchor="middle" x="65" y="-168.5" font-family="Helvetica,sans-Serif" font-size="10.00"> </text>
</a>
</g>
</g>
<!-- Node2&#45;&gt;Node1 -->
<g id="edge1" class="edge">
<title>Node2&#45;&gt;Node1</title>
<path fill="none" stroke="#63b8ff" d="M65,-151.94C65,-143.57 65,-134.53 65,-125.53"/>
<polygon fill="none" stroke="#63b8ff" points="61.5,-151.86 65,-161.86 68.5,-151.86 61.5,-151.86"/>
</g>
</g>
</svg>
