<?xml version="1.0" encoding="UTF-8" standalone="no"?>
<!DOCTYPE svg PUBLIC "-//W3C//DTD SVG 1.1//EN"
 "http://www.w3.org/Graphics/SVG/1.1/DTD/svg11.dtd">
<!-- Generated by graphviz version 8.0.4 (20230421.1958)
 -->
<!-- Title: RcvMetalVideoView Pages: 1 -->
<svg width="208pt" height="335pt"
 viewBox="0.00 0.00 208.38 335.00" xmlns="http://www.w3.org/2000/svg" xmlns:xlink="http://www.w3.org/1999/xlink">
<g id="graph0" class="graph" transform="scale(1 1) rotate(0) translate(4 331)">
<title>RcvMetalVideoView</title>
<!-- Node1 -->
<g id="node1" class="node">
<title>Node1</title>
<g id="a_node1"><a xlink:title=" ">
<polygon fill="#999999" stroke="#666666" points="25.88,-0.5 25.88,-58.25 130.38,-58.25 130.38,-0.5 25.88,-0.5"/>
<text text-anchor="middle" x="78.12" y="-44.75" font-family="Helvetica,sans-Serif" font-size="10.00">RcvMetalVideoView</text>
<polyline fill="none" stroke="#666666" points="25.88,-39 130.38,-39"/>
<text text-anchor="middle" x="78.12" y="-25.5" font-family="Helvetica,sans-Serif" font-size="10.00"> </text>
<polyline fill="none" stroke="#666666" points="25.88,-19.75 130.38,-19.75"/>
<text text-anchor="middle" x="78.12" y="-6.25" font-family="Helvetica,sans-Serif" font-size="10.00"> </text>
</a>
</g>
</g>
<!-- Node2 -->
<g id="node2" class="node">
<title>Node2</title>
<g id="a_node2"><a xlink:href="interface_rcv_base_video_view.html" target="_top" xlink:title=" ">
<polygon fill="white" stroke="#666666" points="26.62,-95.25 26.62,-231.75 129.62,-231.75 129.62,-95.25 26.62,-95.25"/>
<text text-anchor="middle" x="78.12" y="-218.25" font-family="Helvetica,sans-Serif" font-size="10.00">RcvBaseVideoView</text>
<polyline fill="none" stroke="#666666" points="26.62,-212.5 129.62,-212.5"/>
<text text-anchor="start" x="34.62" y="-199" font-family="Helvetica,sans-Serif" font-size="10.00">+ delegate</text>
<text text-anchor="start" x="34.62" y="-187.75" font-family="Helvetica,sans-Serif" font-size="10.00">+ renderMode</text>
<text text-anchor="start" x="34.62" y="-176.5" font-family="Helvetica,sans-Serif" font-size="10.00">+ mirrorMode</text>
<polyline fill="none" stroke="#666666" points="26.62,-170.75 129.62,-170.75"/>
<text text-anchor="start" x="34.62" y="-157.25" font-family="Helvetica,sans-Serif" font-size="10.00">+ getRenderer</text>
<text text-anchor="start" x="34.62" y="-146" font-family="Helvetica,sans-Serif" font-size="10.00">+ showRenderer</text>
<text text-anchor="start" x="34.62" y="-134.75" font-family="Helvetica,sans-Serif" font-size="10.00">+ hideRenderer</text>
<text text-anchor="start" x="34.62" y="-123.5" font-family="Helvetica,sans-Serif" font-size="10.00">+ updateRenderer</text>
<text text-anchor="start" x="34.62" y="-112.25" font-family="Helvetica,sans-Serif" font-size="10.00">+ getVideoSize</text>
<text text-anchor="start" x="34.62" y="-101" font-family="Helvetica,sans-Serif" font-size="10.00">+ restoreVideoSize:</text>
</a>
</g>
</g>
<!-- Node2&#45;&gt;Node1 -->
<g id="edge1" class="edge">
<title>Node2&#45;&gt;Node1</title>
<path fill="none" stroke="#63b8ff" d="M78.12,-84.56C78.12,-75.16 78.12,-66.08 78.12,-58.14"/>
<polygon fill="none" stroke="#63b8ff" points="74.63,-84.28 78.12,-94.28 81.63,-84.28 74.63,-84.28"/>
</g>
<!-- Node3 -->
<g id="node3" class="node">
<title>Node3</title>
<g id="a_node3"><a xlink:title=" ">
<polygon fill="white" stroke="#666666" points="0,-268.75 0,-326.5 48.25,-326.5 48.25,-268.75 0,-268.75"/>
<text text-anchor="middle" x="24.12" y="-313" font-family="Helvetica,sans-Serif" font-size="10.00">UIView</text>
<polyline fill="none" stroke="#666666" points="0,-307.25 48.25,-307.25"/>
<text text-anchor="middle" x="24.12" y="-293.75" font-family="Helvetica,sans-Serif" font-size="10.00"> </text>
<polyline fill="none" stroke="#666666" points="0,-288 48.25,-288"/>
<text text-anchor="middle" x="24.12" y="-274.5" font-family="Helvetica,sans-Serif" font-size="10.00"> </text>
</a>
</g>
</g>
<!-- Node3&#45;&gt;Node2 -->
<g id="edge2" class="edge">
<title>Node3&#45;&gt;Node2</title>
<path fill="none" stroke="#63b8ff" d="M39.53,-258.92C43.03,-250.36 46.86,-241.01 50.69,-231.63"/>
<polygon fill="none" stroke="#63b8ff" points="35.99,-257.35 35.45,-267.93 42.47,-259.99 35.99,-257.35"/>
</g>
<!-- Node4 -->
<g id="node4" class="node">
<title>Node4</title>
<g id="a_node4"><a xlink:title=" ">
<polygon fill="white" stroke="#666666" points="65.88,-268.75 65.88,-326.5 200.38,-326.5 200.38,-268.75 65.88,-268.75"/>
<text text-anchor="middle" x="133.12" y="-313" font-family="Helvetica,sans-Serif" font-size="10.00">&lt;RTCVideoViewDelegate&gt;</text>
<polyline fill="none" stroke="#666666" points="65.88,-307.25 200.38,-307.25"/>
<text text-anchor="middle" x="133.12" y="-293.75" font-family="Helvetica,sans-Serif" font-size="10.00"> </text>
<polyline fill="none" stroke="#666666" points="65.88,-288 200.38,-288"/>
<text text-anchor="middle" x="133.12" y="-274.5" font-family="Helvetica,sans-Serif" font-size="10.00"> </text>
</a>
</g>
</g>
<!-- Node4&#45;&gt;Node2 -->
<g id="edge3" class="edge">
<title>Node4&#45;&gt;Node2</title>
<path fill="none" stroke="#63b8ff" d="M117.43,-258.92C113.87,-250.36 109.97,-241.01 106.07,-231.63"/>
<polygon fill="none" stroke="#63b8ff" points="114.52,-260.04 121.6,-267.93 120.98,-257.35 114.52,-260.04"/>
</g>
</g>
</svg>
