<?xml version="1.0" encoding="UTF-8" standalone="no"?>
<!DOCTYPE svg PUBLIC "-//W3C//DTD SVG 1.1//EN"
 "http://www.w3.org/Graphics/SVG/1.1/DTD/svg11.dtd">
<!-- Generated by graphviz version 8.0.4 (20230421.1958)
 -->
<!-- Title: RcvBaseVideoView Pages: 1 -->
<svg width="404pt" height="335pt"
 viewBox="0.00 0.00 404.12 335.00" xmlns="http://www.w3.org/2000/svg" xmlns:xlink="http://www.w3.org/1999/xlink">
<g id="graph0" class="graph" transform="scale(1 1) rotate(0) translate(4 331)">
<title>RcvBaseVideoView</title>
<!-- Node1 -->
<g id="node1" class="node">
<title>Node1</title>
<g id="a_node1"><a xlink:title=" ">
<polygon fill="#999999" stroke="#666666" points="128.75,-95.25 128.75,-231.75 231.75,-231.75 231.75,-95.25 128.75,-95.25"/>
<text text-anchor="middle" x="180.25" y="-218.25" font-family="Helvetica,sans-Serif" font-size="10.00">RcvBaseVideoView</text>
<polyline fill="none" stroke="#666666" points="128.75,-212.5 231.75,-212.5"/>
<text text-anchor="start" x="136.75" y="-199" font-family="Helvetica,sans-Serif" font-size="10.00">+ delegate</text>
<text text-anchor="start" x="136.75" y="-187.75" font-family="Helvetica,sans-Serif" font-size="10.00">+ renderMode</text>
<text text-anchor="start" x="136.75" y="-176.5" font-family="Helvetica,sans-Serif" font-size="10.00">+ mirrorMode</text>
<polyline fill="none" stroke="#666666" points="128.75,-170.75 231.75,-170.75"/>
<text text-anchor="start" x="136.75" y="-157.25" font-family="Helvetica,sans-Serif" font-size="10.00">+ getRenderer</text>
<text text-anchor="start" x="136.75" y="-146" font-family="Helvetica,sans-Serif" font-size="10.00">+ showRenderer</text>
<text text-anchor="start" x="136.75" y="-134.75" font-family="Helvetica,sans-Serif" font-size="10.00">+ hideRenderer</text>
<text text-anchor="start" x="136.75" y="-123.5" font-family="Helvetica,sans-Serif" font-size="10.00">+ updateRenderer</text>
<text text-anchor="start" x="136.75" y="-112.25" font-family="Helvetica,sans-Serif" font-size="10.00">+ getVideoSize</text>
<text text-anchor="start" x="136.75" y="-101" font-family="Helvetica,sans-Serif" font-size="10.00">+ restoreVideoSize:</text>
</a>
</g>
</g>
<!-- Node4 -->
<g id="node4" class="node">
<title>Node4</title>
<g id="a_node4"><a xlink:href="interface_rcv_metal_video_view.html" target="_top" xlink:title=" ">
<polygon fill="white" stroke="#666666" points="0,-0.5 0,-58.25 104.5,-58.25 104.5,-0.5 0,-0.5"/>
<text text-anchor="middle" x="52.25" y="-44.75" font-family="Helvetica,sans-Serif" font-size="10.00">RcvMetalVideoView</text>
<polyline fill="none" stroke="#666666" points="0,-39 104.5,-39"/>
<text text-anchor="middle" x="52.25" y="-25.5" font-family="Helvetica,sans-Serif" font-size="10.00"> </text>
<polyline fill="none" stroke="#666666" points="0,-19.75 104.5,-19.75"/>
<text text-anchor="middle" x="52.25" y="-6.25" font-family="Helvetica,sans-Serif" font-size="10.00"> </text>
</a>
</g>
</g>
<!-- Node1&#45;&gt;Node4 -->
<g id="edge3" class="edge">
<title>Node1&#45;&gt;Node4</title>
<path fill="none" stroke="#63b8ff" d="M121.65,-102.01C106.73,-86.61 91.41,-70.8 78.98,-57.96"/>
<polygon fill="none" stroke="#63b8ff" points="118.45,-103.77 127.93,-108.52 123.48,-98.9 118.45,-103.77"/>
</g>
<!-- Node5 -->
<g id="node5" class="node">
<title>Node5</title>
<g id="a_node5"><a xlink:href="interface_rcv_open_g_l_video_view.html" target="_top" xlink:title=" ">
<polygon fill="white" stroke="#666666" points="122.38,-0.5 122.38,-58.25 238.12,-58.25 238.12,-0.5 122.38,-0.5"/>
<text text-anchor="middle" x="180.25" y="-44.75" font-family="Helvetica,sans-Serif" font-size="10.00">RcvOpenGLVideoView</text>
<polyline fill="none" stroke="#666666" points="122.38,-39 238.12,-39"/>
<text text-anchor="middle" x="180.25" y="-25.5" font-family="Helvetica,sans-Serif" font-size="10.00"> </text>
<polyline fill="none" stroke="#666666" points="122.38,-19.75 238.12,-19.75"/>
<text text-anchor="middle" x="180.25" y="-6.25" font-family="Helvetica,sans-Serif" font-size="10.00"> </text>
</a>
</g>
</g>
<!-- Node1&#45;&gt;Node5 -->
<g id="edge4" class="edge">
<title>Node1&#45;&gt;Node5</title>
<path fill="none" stroke="#63b8ff" d="M180.25,-84.56C180.25,-75.16 180.25,-66.08 180.25,-58.14"/>
<polygon fill="none" stroke="#63b8ff" points="176.75,-84.28 180.25,-94.28 183.75,-84.28 176.75,-84.28"/>
</g>
<!-- Node6 -->
<g id="node6" class="node">
<title>Node6</title>
<g id="a_node6"><a xlink:href="interface_rcv_sample_buffer_video_view.html" target="_top" xlink:title=" ">
<polygon fill="white" stroke="#666666" points="256.38,-0.5 256.38,-58.25 396.12,-58.25 396.12,-0.5 256.38,-0.5"/>
<text text-anchor="middle" x="326.25" y="-44.75" font-family="Helvetica,sans-Serif" font-size="10.00">RcvSampleBufferVideoView</text>
<polyline fill="none" stroke="#666666" points="256.38,-39 396.12,-39"/>
<text text-anchor="middle" x="326.25" y="-25.5" font-family="Helvetica,sans-Serif" font-size="10.00"> </text>
<polyline fill="none" stroke="#666666" points="256.38,-19.75 396.12,-19.75"/>
<text text-anchor="middle" x="326.25" y="-6.25" font-family="Helvetica,sans-Serif" font-size="10.00"> </text>
</a>
</g>
</g>
<!-- Node1&#45;&gt;Node6 -->
<g id="edge5" class="edge">
<title>Node1&#45;&gt;Node6</title>
<path fill="none" stroke="#63b8ff" d="M239.84,-108.57C258.99,-91.24 279.42,-72.75 295.61,-58.11"/>
<polygon fill="none" stroke="#63b8ff" points="237.79,-105.61 232.72,-114.92 242.49,-110.8 237.79,-105.61"/>
</g>
<!-- Node2 -->
<g id="node2" class="node">
<title>Node2</title>
<g id="a_node2"><a xlink:title=" ">
<polygon fill="white" stroke="#666666" points="102.12,-268.75 102.12,-326.5 150.38,-326.5 150.38,-268.75 102.12,-268.75"/>
<text text-anchor="middle" x="126.25" y="-313" font-family="Helvetica,sans-Serif" font-size="10.00">UIView</text>
<polyline fill="none" stroke="#666666" points="102.12,-307.25 150.38,-307.25"/>
<text text-anchor="middle" x="126.25" y="-293.75" font-family="Helvetica,sans-Serif" font-size="10.00"> </text>
<polyline fill="none" stroke="#666666" points="102.12,-288 150.38,-288"/>
<text text-anchor="middle" x="126.25" y="-274.5" font-family="Helvetica,sans-Serif" font-size="10.00"> </text>
</a>
</g>
</g>
<!-- Node2&#45;&gt;Node1 -->
<g id="edge1" class="edge">
<title>Node2&#45;&gt;Node1</title>
<path fill="none" stroke="#63b8ff" d="M141.66,-258.92C145.16,-250.36 148.98,-241.01 152.81,-231.63"/>
<polygon fill="none" stroke="#63b8ff" points="138.11,-257.35 137.57,-267.93 144.59,-259.99 138.11,-257.35"/>
</g>
<!-- Node3 -->
<g id="node3" class="node">
<title>Node3</title>
<g id="a_node3"><a xlink:title=" ">
<polygon fill="white" stroke="#666666" points="168,-268.75 168,-326.5 302.5,-326.5 302.5,-268.75 168,-268.75"/>
<text text-anchor="middle" x="235.25" y="-313" font-family="Helvetica,sans-Serif" font-size="10.00">&lt;RTCVideoViewDelegate&gt;</text>
<polyline fill="none" stroke="#666666" points="168,-307.25 302.5,-307.25"/>
<text text-anchor="middle" x="235.25" y="-293.75" font-family="Helvetica,sans-Serif" font-size="10.00"> </text>
<polyline fill="none" stroke="#666666" points="168,-288 302.5,-288"/>
<text text-anchor="middle" x="235.25" y="-274.5" font-family="Helvetica,sans-Serif" font-size="10.00"> </text>
</a>
</g>
</g>
<!-- Node3&#45;&gt;Node1 -->
<g id="edge2" class="edge">
<title>Node3&#45;&gt;Node1</title>
<path fill="none" stroke="#63b8ff" d="M219.56,-258.92C215.99,-250.36 212.1,-241.01 208.2,-231.63"/>
<polygon fill="none" stroke="#63b8ff" points="216.65,-260.04 223.72,-267.93 223.11,-257.35 216.65,-260.04"/>
</g>
</g>
</svg>
