<?xml version="1.0" encoding="UTF-8" standalone="no"?>
<!DOCTYPE svg PUBLIC "-//W3C//DTD SVG 1.1//EN"
 "http://www.w3.org/Graphics/SVG/1.1/DTD/svg11.dtd">
<!-- Generated by graphviz version 8.0.1 (20230327.1645)
 -->
<!-- Title: RcvSampleBufferVideoView Pages: 1 -->
<svg width="210pt" height="331pt"
 viewBox="0.00 0.00 210.00 331.00" xmlns="http://www.w3.org/2000/svg" xmlns:xlink="http://www.w3.org/1999/xlink">
<g id="graph0" class="graph" transform="scale(1 1) rotate(0) translate(4 327)">
<title>RcvSampleBufferVideoView</title>
<!-- Node1 -->
<g id="node1" class="node">
<title>Node1</title>
<g id="a_node1"><a xlink:title=" ">
<polygon fill="#999999" stroke="#666666" points="9.5,-0.5 9.5,-57.5 149.5,-57.5 149.5,-0.5 9.5,-0.5"/>
<text text-anchor="middle" x="79.5" y="-45.5" font-family="Helvetica,sans-Serif" font-size="10.00">RcvSampleBufferVideoView</text>
<polyline fill="none" stroke="#666666" points="9.5,-38.5 149.5,-38.5"/>
<text text-anchor="middle" x="79.5" y="-26.5" font-family="Helvetica,sans-Serif" font-size="10.00"> </text>
<polyline fill="none" stroke="#666666" points="9.5,-19.5 149.5,-19.5"/>
<text text-anchor="middle" x="79.5" y="-7.5" font-family="Helvetica,sans-Serif" font-size="10.00"> </text>
</a>
</g>
</g>
<!-- Node2 -->
<g id="node2" class="node">
<title>Node2</title>
<g id="a_node2"><a xlink:href="interface_rcv_base_video_view.html" target="_top" xlink:title=" ">
<polygon fill="white" stroke="#666666" points="27.5,-94.5 27.5,-228.5 131.5,-228.5 131.5,-94.5 27.5,-94.5"/>
<text text-anchor="middle" x="79.5" y="-216.5" font-family="Helvetica,sans-Serif" font-size="10.00">RcvBaseVideoView</text>
<polyline fill="none" stroke="#666666" points="27.5,-209.5 131.5,-209.5"/>
<text text-anchor="start" x="35.5" y="-197.5" font-family="Helvetica,sans-Serif" font-size="10.00">+ delegate</text>
<text text-anchor="start" x="35.5" y="-186.5" font-family="Helvetica,sans-Serif" font-size="10.00">+ renderMode</text>
<text text-anchor="start" x="35.5" y="-175.5" font-family="Helvetica,sans-Serif" font-size="10.00">+ mirrorMode</text>
<polyline fill="none" stroke="#666666" points="27.5,-168.5 131.5,-168.5"/>
<text text-anchor="start" x="35.5" y="-156.5" font-family="Helvetica,sans-Serif" font-size="10.00">+ getRenderer</text>
<text text-anchor="start" x="35.5" y="-145.5" font-family="Helvetica,sans-Serif" font-size="10.00">+ showRenderer</text>
<text text-anchor="start" x="35.5" y="-134.5" font-family="Helvetica,sans-Serif" font-size="10.00">+ hideRenderer</text>
<text text-anchor="start" x="35.5" y="-123.5" font-family="Helvetica,sans-Serif" font-size="10.00">+ updateRenderer</text>
<text text-anchor="start" x="35.5" y="-112.5" font-family="Helvetica,sans-Serif" font-size="10.00">+ getVideoSize</text>
<text text-anchor="start" x="35.5" y="-101.5" font-family="Helvetica,sans-Serif" font-size="10.00">+ restoreVideoSize:</text>
</a>
</g>
</g>
<!-- Node2&#45;&gt;Node1 -->
<g id="edge1" class="edge">
<title>Node2&#45;&gt;Node1</title>
<path fill="none" stroke="#63b8ff" d="M79.5,-84.09C79.5,-74.62 79.5,-65.48 79.5,-57.49"/>
<polygon fill="none" stroke="#63b8ff" points="76,-83.87 79.5,-93.87 83,-83.87 76,-83.87"/>
</g>
<!-- Node3 -->
<g id="node3" class="node">
<title>Node3</title>
<g id="a_node3"><a xlink:title=" ">
<polygon fill="white" stroke="#666666" points="0,-265.5 0,-322.5 49,-322.5 49,-265.5 0,-265.5"/>
<text text-anchor="middle" x="24.5" y="-310.5" font-family="Helvetica,sans-Serif" font-size="10.00">UIView</text>
<polyline fill="none" stroke="#666666" points="0,-303.5 49,-303.5"/>
<text text-anchor="middle" x="24.5" y="-291.5" font-family="Helvetica,sans-Serif" font-size="10.00"> </text>
<polyline fill="none" stroke="#666666" points="0,-284.5 49,-284.5"/>
<text text-anchor="middle" x="24.5" y="-272.5" font-family="Helvetica,sans-Serif" font-size="10.00"> </text>
</a>
</g>
</g>
<!-- Node3&#45;&gt;Node2 -->
<g id="edge2" class="edge">
<title>Node3&#45;&gt;Node2</title>
<path fill="none" stroke="#63b8ff" d="M40.25,-255.62C43.87,-247.03 47.82,-237.66 51.78,-228.27"/>
<polygon fill="none" stroke="#63b8ff" points="36.69,-254.07 36.03,-264.64 43.14,-256.79 36.69,-254.07"/>
</g>
<!-- Node4 -->
<g id="node4" class="node">
<title>Node4</title>
<g id="a_node4"><a xlink:title=" ">
<polygon fill="white" stroke="#666666" points="67,-265.5 67,-322.5 202,-322.5 202,-265.5 67,-265.5"/>
<text text-anchor="middle" x="134.5" y="-310.5" font-family="Helvetica,sans-Serif" font-size="10.00">&lt;RTCVideoViewDelegate&gt;</text>
<polyline fill="none" stroke="#666666" points="67,-303.5 202,-303.5"/>
<text text-anchor="middle" x="134.5" y="-291.5" font-family="Helvetica,sans-Serif" font-size="10.00"> </text>
<polyline fill="none" stroke="#666666" points="67,-284.5 202,-284.5"/>
<text text-anchor="middle" x="134.5" y="-272.5" font-family="Helvetica,sans-Serif" font-size="10.00"> </text>
</a>
</g>
</g>
<!-- Node4&#45;&gt;Node2 -->
<g id="edge3" class="edge">
<title>Node4&#45;&gt;Node2</title>
<path fill="none" stroke="#63b8ff" d="M118.75,-255.62C115.13,-247.03 111.18,-237.66 107.22,-228.27"/>
<polygon fill="none" stroke="#63b8ff" points="115.86,-256.79 122.97,-264.64 122.31,-254.07 115.86,-256.79"/>
</g>
</g>
</svg>
