<?xml version="1.0" encoding="UTF-8" standalone="no"?>
<!DOCTYPE svg PUBLIC "-//W3C//DTD SVG 1.1//EN"
 "http://www.w3.org/Graphics/SVG/1.1/DTD/svg11.dtd">
<!-- Generated by graphviz version 8.1.0 (20230707.0739)
 -->
<!-- Title: &lt;RcvMeetingDialCountryInfo&gt; Pages: 1 -->
<svg width="150pt" height="102pt"
 viewBox="0.00 0.00 150.00 102.00" xmlns="http://www.w3.org/2000/svg" xmlns:xlink="http://www.w3.org/1999/xlink">
<g id="graph0" class="graph" transform="scale(1 1) rotate(0) translate(4 98)">
<title>&lt;RcvMeetingDialCountryInfo&gt;</title>
<!-- Node1 -->
<g id="Node000001" class="node">
<title>Node1</title>
<g id="a_Node000001"><a xlink:title=" ">
<polygon fill="#999999" stroke="none" points="142,-94 0,-94 0,0 142,0 142,-94"/>
<text text-anchor="start" x="4.62" y="-80.5" font-family="Helvetica,sans-Serif" font-size="10.00">&lt;RcvMeetingDialCountryInfo&gt;</text>
<text text-anchor="start" x="69.5" y="-65.5" font-family="Helvetica,sans-Serif" font-size="10.00"> </text>
<text text-anchor="start" x="22" y="-50.5" font-family="Helvetica,sans-Serif" font-size="10.00">+</text>
<text text-anchor="start" x="50" y="-50.5" font-family="Helvetica,sans-Serif" font-size="10.00">id</text>
<text text-anchor="start" x="22" y="-35.5" font-family="Helvetica,sans-Serif" font-size="10.00">+</text>
<text text-anchor="start" x="50" y="-35.5" font-family="Helvetica,sans-Serif" font-size="10.00">name</text>
<text text-anchor="start" x="22" y="-20.5" font-family="Helvetica,sans-Serif" font-size="10.00">+</text>
<text text-anchor="start" x="50" y="-20.5" font-family="Helvetica,sans-Serif" font-size="10.00">isoCode</text>
<text text-anchor="start" x="22" y="-5.5" font-family="Helvetica,sans-Serif" font-size="10.00">+</text>
<text text-anchor="start" x="50" y="-5.5" font-family="Helvetica,sans-Serif" font-size="10.00">callingCode</text>
<polygon fill="#666666" stroke="#666666" points="0,-77 0,-77 142,-77 142,-77 0,-77"/>
<polygon fill="#666666" stroke="#666666" points="0,-62 0,-62 142,-62 142,-62 0,-62"/>
<polygon fill="none" stroke="#666666" points="0,0 0,-94 142,-94 142,0 0,0"/>
</a>
</g>
</g>
</g>
</svg>
