<?xml version="1.0" encoding="UTF-8" standalone="no"?>
<!DOCTYPE svg PUBLIC "-//W3C//DTD SVG 1.1//EN"
 "http://www.w3.org/Graphics/SVG/1.1/DTD/svg11.dtd">
<!-- Generated by graphviz version 7.1.0 (20230121.1956)
 -->
<!-- Title: &lt;RcvAnnotationViewDelegate&gt; Pages: 1 -->
<svg width="198pt" height="248pt"
 viewBox="0.00 0.00 198.00 248.00" xmlns="http://www.w3.org/2000/svg" xmlns:xlink="http://www.w3.org/1999/xlink">
<g id="graph0" class="graph" transform="scale(1 1) rotate(0) translate(4 244)">
<title>&lt;RcvAnnotationViewDelegate&gt;</title>
<!-- Node1 -->
<g id="node1" class="node">
<title>Node1</title>
<g id="a_node1"><a xlink:title=" ">
<polygon fill="#999999" stroke="#666666" points="0,-0.5 0,-145.5 190,-145.5 190,-0.5 0,-0.5"/>
<text text-anchor="middle" x="95" y="-133.5" font-family="Helvetica,sans-Serif" font-size="10.00">&lt;RcvAnnotationViewDelegate&gt;</text>
<polyline fill="none" stroke="#666666" points="0,-126.5 190,-126.5"/>
<text text-anchor="middle" x="95" y="-114.5" font-family="Helvetica,sans-Serif" font-size="10.00"> </text>
<polyline fill="none" stroke="#666666" points="0,-107.5 190,-107.5"/>
<text text-anchor="start" x="8" y="-95.5" font-family="Helvetica,sans-Serif" font-size="10.00">+ didSelectAnnotationObjAtRect:type:</text>
<text text-anchor="start" x="8" y="-84.5" font-family="Helvetica,sans-Serif" font-size="10.00">+ didCancelSelectAnnotationObject</text>
<text text-anchor="start" x="8" y="-73.5" font-family="Helvetica,sans-Serif" font-size="10.00">+ didUpdateEditingTextView:</text>
<text text-anchor="start" x="8" y="-62.5" font-family="Helvetica,sans-Serif" font-size="10.00">+ didCompleteInput</text>
<text text-anchor="start" x="8" y="-51.5" font-family="Helvetica,sans-Serif" font-size="10.00">+ didEndTextEdit</text>
<text text-anchor="start" x="8" y="-40.5" font-family="Helvetica,sans-Serif" font-size="10.00">+ didFinishAddTextToServerAtPoint:</text>
<text text-anchor="start" x="8" y="-29.5" font-family="Helvetica,sans-Serif" font-size="10.00">+ didBeginTextEdit</text>
<text text-anchor="start" x="8" y="-18.5" font-family="Helvetica,sans-Serif" font-size="10.00">+ didBeginLineDraw</text>
<text text-anchor="start" x="8" y="-7.5" font-family="Helvetica,sans-Serif" font-size="10.00">+ didExceedMaxmiumAnnotationCount:</text>
</a>
</g>
</g>
<!-- Node2 -->
<g id="node2" class="node">
<title>Node2</title>
<g id="a_node2"><a xlink:title=" ">
<polygon fill="white" stroke="#666666" points="59.5,-182.5 59.5,-239.5 130.5,-239.5 130.5,-182.5 59.5,-182.5"/>
<text text-anchor="middle" x="95" y="-227.5" font-family="Helvetica,sans-Serif" font-size="10.00">&lt;NSObject&gt;</text>
<polyline fill="none" stroke="#666666" points="59.5,-220.5 130.5,-220.5"/>
<text text-anchor="middle" x="95" y="-208.5" font-family="Helvetica,sans-Serif" font-size="10.00"> </text>
<polyline fill="none" stroke="#666666" points="59.5,-201.5 130.5,-201.5"/>
<text text-anchor="middle" x="95" y="-189.5" font-family="Helvetica,sans-Serif" font-size="10.00"> </text>
</a>
</g>
</g>
<!-- Node2&#45;&gt;Node1 -->
<g id="edge1" class="edge">
<title>Node2&#45;&gt;Node1</title>
<path fill="none" stroke="#63b8ff" d="M95,-171.4C95,-163.22 95,-154.34 95,-145.38"/>
<polygon fill="none" stroke="#63b8ff" points="91.5,-171.29 95,-181.29 98.5,-171.29 91.5,-171.29"/>
</g>
</g>
</svg>
