<?xml version="1.0" encoding="UTF-8" standalone="no"?>
<!DOCTYPE svg PUBLIC "-//W3C//DTD SVG 1.1//EN"
 "http://www.w3.org/Graphics/SVG/1.1/DTD/svg11.dtd">
<!-- Generated by graphviz version 8.0.5 (20230430.1635)
 -->
<!-- Title: &lt;RcvCustomVideoViewDelegate&gt; Pages: 1 -->
<svg width="216pt" height="142pt"
 viewBox="0.00 0.00 216.00 142.00" xmlns="http://www.w3.org/2000/svg" xmlns:xlink="http://www.w3.org/1999/xlink">
<g id="graph0" class="graph" transform="scale(1 1) rotate(0) translate(4 138)">
<title>&lt;RcvCustomVideoViewDelegate&gt;</title>
<!-- Node1 -->
<g id="Node000001" class="node">
<title>Node1</title>
<g id="a_Node000001"><a xlink:title=" ">
<polygon fill="#999999" stroke="none" points="208,-49 0,-49 0,0 208,0 208,-49"/>
<text text-anchor="start" x="29" y="-35.5" font-family="Helvetica,sans-Serif" font-size="10.00">&lt;RcvCustomVideoViewDelegate&gt;</text>
<text text-anchor="start" x="102.5" y="-20.5" font-family="Helvetica,sans-Serif" font-size="10.00"> </text>
<text text-anchor="start" x="4" y="-5.5" font-family="Helvetica,sans-Serif" font-size="10.00">+</text>
<text text-anchor="start" x="14" y="-5.5" font-family="Helvetica,sans-Serif" font-size="10.00">customVideoView:didChangeRendererSize:</text>
<polygon fill="#666666" stroke="#666666" points="0,-32 0,-32 208,-32 208,-32 0,-32"/>
<polygon fill="#666666" stroke="#666666" points="0,-17 0,-17 208,-17 208,-17 0,-17"/>
<polygon fill="none" stroke="#666666" points="0,0 0,-49 208,-49 208,0 0,0"/>
</a>
</g>
</g>
<!-- Node2 -->
<g id="Node000002" class="node">
<title>Node2</title>
<g id="a_Node000002"><a xlink:title=" ">
<polygon fill="white" stroke="none" points="136,-134 72,-134 72,-85 136,-85 136,-134"/>
<text text-anchor="start" x="76.62" y="-120.5" font-family="Helvetica,sans-Serif" font-size="10.00">&lt;NSObject&gt;</text>
<text text-anchor="start" x="102.5" y="-105.5" font-family="Helvetica,sans-Serif" font-size="10.00"> </text>
<text text-anchor="start" x="102.5" y="-90.5" font-family="Helvetica,sans-Serif" font-size="10.00"> </text>
<polygon fill="#666666" stroke="#666666" points="72,-117 72,-117 136,-117 136,-117 72,-117"/>
<polygon fill="#666666" stroke="#666666" points="72,-102 72,-102 136,-102 136,-102 72,-102"/>
<polygon fill="none" stroke="#666666" points="72,-85 72,-134 136,-134 136,-85 72,-85"/>
</a>
</g>
</g>
<!-- Node2&#45;&gt;Node1 -->
<g id="edge1_Node000001_Node000002" class="edge">
<title>Node2&#45;&gt;Node1</title>
<g id="a_edge1_Node000001_Node000002"><a xlink:title=" ">
<path fill="none" stroke="#63b8ff" d="M104,-74.43C104,-65.8 104,-56.74 104,-48.78"/>
<polygon fill="none" stroke="#63b8ff" points="100.5,-74.38 104,-84.38 107.5,-74.38 100.5,-74.38"/>
</a>
</g>
</g>
</g>
</svg>
