<?xml version="1.0" encoding="UTF-8" standalone="no"?>
<!DOCTYPE svg PUBLIC "-//W3C//DTD SVG 1.1//EN"
 "http://www.w3.org/Graphics/SVG/1.1/DTD/svg11.dtd">
<!-- Generated by graphviz version 8.0.4 (20230421.1958)
 -->
<!-- Title: &lt;RcvScreenShareServiceDelegate&gt; Pages: 1 -->
<svg width="251pt" height="162pt"
 viewBox="0.00 0.00 250.50 161.50" xmlns="http://www.w3.org/2000/svg" xmlns:xlink="http://www.w3.org/1999/xlink">
<g id="graph0" class="graph" transform="scale(1 1) rotate(0) translate(4 157.5)">
<title>&lt;RcvScreenShareServiceDelegate&gt;</title>
<!-- Node1 -->
<g id="node1" class="node">
<title>Node1</title>
<g id="a_node1"><a xlink:title=" ">
<polygon fill="#999999" stroke="#666666" points="0,-0.5 0,-58.25 242.5,-58.25 242.5,-0.5 0,-0.5"/>
<text text-anchor="middle" x="121.25" y="-44.75" font-family="Helvetica,sans-Serif" font-size="10.00">&lt;RcvScreenShareServiceDelegate&gt;</text>
<polyline fill="none" stroke="#666666" points="0,-39 242.5,-39"/>
<text text-anchor="middle" x="121.25" y="-25.5" font-family="Helvetica,sans-Serif" font-size="10.00"> </text>
<polyline fill="none" stroke="#666666" points="0,-19.75 242.5,-19.75"/>
<text text-anchor="start" x="8" y="-6.25" font-family="Helvetica,sans-Serif" font-size="10.00">+ rcvScreenShareServiceFinishBroadcastWithError:</text>
</a>
</g>
</g>
<!-- Node2 -->
<g id="node2" class="node">
<title>Node2</title>
<g id="a_node2"><a xlink:title=" ">
<polygon fill="white" stroke="#666666" points="85.88,-95.25 85.88,-153 156.62,-153 156.62,-95.25 85.88,-95.25"/>
<text text-anchor="middle" x="121.25" y="-139.5" font-family="Helvetica,sans-Serif" font-size="10.00">&lt;NSObject&gt;</text>
<polyline fill="none" stroke="#666666" points="85.88,-133.75 156.62,-133.75"/>
<text text-anchor="middle" x="121.25" y="-120.25" font-family="Helvetica,sans-Serif" font-size="10.00"> </text>
<polyline fill="none" stroke="#666666" points="85.88,-114.5 156.62,-114.5"/>
<text text-anchor="middle" x="121.25" y="-101" font-family="Helvetica,sans-Serif" font-size="10.00"> </text>
</a>
</g>
</g>
<!-- Node2&#45;&gt;Node1 -->
<g id="edge1" class="edge">
<title>Node2&#45;&gt;Node1</title>
<path fill="none" stroke="#63b8ff" d="M121.25,-84.44C121.25,-75.63 121.25,-66.44 121.25,-58.18"/>
<polygon fill="none" stroke="#63b8ff" points="117.75,-84.3 121.25,-94.3 124.75,-84.3 117.75,-84.3"/>
</g>
</g>
</svg>
