<?xml version="1.0" encoding="UTF-8" standalone="no"?>
<!DOCTYPE svg PUBLIC "-//W3C//DTD SVG 1.1//EN"
 "http://www.w3.org/Graphics/SVG/1.1/DTD/svg11.dtd">
<!-- Generated by graphviz version 8.1.0 (20230707.0739)
 -->
<!-- Title: &lt;RcvScreenShareServiceDelegate&gt; Pages: 1 -->
<svg width="243pt" height="142pt"
 viewBox="0.00 0.00 243.00 142.00" xmlns="http://www.w3.org/2000/svg" xmlns:xlink="http://www.w3.org/1999/xlink">
<g id="graph0" class="graph" transform="scale(1 1) rotate(0) translate(4 138)">
<title>&lt;RcvScreenShareServiceDelegate&gt;</title>
<!-- Node1 -->
<g id="Node000001" class="node">
<title>Node1</title>
<g id="a_Node000001"><a xlink:title=" ">
<polygon fill="#999999" stroke="none" points="235,-49 0,-49 0,0 235,0 235,-49"/>
<text text-anchor="start" x="38.38" y="-35.5" font-family="Helvetica,sans-Serif" font-size="10.00">&lt;RcvScreenShareServiceDelegate&gt;</text>
<text text-anchor="start" x="116" y="-20.5" font-family="Helvetica,sans-Serif" font-size="10.00"> </text>
<text text-anchor="start" x="4" y="-5.5" font-family="Helvetica,sans-Serif" font-size="10.00">+</text>
<text text-anchor="start" x="14" y="-5.5" font-family="Helvetica,sans-Serif" font-size="10.00">rcvScreenShareServiceFinishBroadcastWithError:</text>
<polygon fill="#666666" stroke="#666666" points="0,-32 0,-32 235,-32 235,-32 0,-32"/>
<polygon fill="#666666" stroke="#666666" points="0,-17 0,-17 235,-17 235,-17 0,-17"/>
<polygon fill="none" stroke="#666666" points="0,0 0,-49 235,-49 235,0 0,0"/>
</a>
</g>
</g>
<!-- Node2 -->
<g id="Node000002" class="node">
<title>Node2</title>
<g id="a_Node000002"><a xlink:title=" ">
<polygon fill="white" stroke="none" points="149.5,-134 85.5,-134 85.5,-85 149.5,-85 149.5,-134"/>
<text text-anchor="start" x="90.12" y="-120.5" font-family="Helvetica,sans-Serif" font-size="10.00">&lt;NSObject&gt;</text>
<text text-anchor="start" x="116" y="-105.5" font-family="Helvetica,sans-Serif" font-size="10.00"> </text>
<text text-anchor="start" x="116" y="-90.5" font-family="Helvetica,sans-Serif" font-size="10.00"> </text>
<polygon fill="#666666" stroke="#666666" points="85.5,-117 85.5,-117 149.5,-117 149.5,-117 85.5,-117"/>
<polygon fill="#666666" stroke="#666666" points="85.5,-102 85.5,-102 149.5,-102 149.5,-102 85.5,-102"/>
<polygon fill="none" stroke="#666666" points="85.5,-85 85.5,-134 149.5,-134 149.5,-85 85.5,-85"/>
</a>
</g>
</g>
<!-- Node2&#45;&gt;Node1 -->
<g id="edge1_Node000001_Node000002" class="edge">
<title>Node2&#45;&gt;Node1</title>
<g id="a_edge1_Node000001_Node000002"><a xlink:title=" ">
<path fill="none" stroke="#63b8ff" d="M117.5,-74.43C117.5,-65.8 117.5,-56.74 117.5,-48.78"/>
<polygon fill="none" stroke="#63b8ff" points="114,-74.38 117.5,-84.38 121,-74.38 114,-74.38"/>
</a>
</g>
</g>
</g>
</svg>
