<?xml version="1.0" encoding="UTF-8" standalone="no"?>
<!DOCTYPE svg PUBLIC "-//W3C//DTD SVG 1.1//EN"
 "http://www.w3.org/Graphics/SVG/1.1/DTD/svg11.dtd">
<!-- Generated by graphviz version 8.0.4 (20230421.1958)
 -->
<!-- Title: &lt;RcvAnnotationEditDelegate&gt; Pages: 1 -->
<svg width="157pt" height="173pt"
 viewBox="0.00 0.00 156.75 172.75" xmlns="http://www.w3.org/2000/svg" xmlns:xlink="http://www.w3.org/1999/xlink">
<g id="graph0" class="graph" transform="scale(1 1) rotate(0) translate(4 168.75)">
<title>&lt;RcvAnnotationEditDelegate&gt;</title>
<!-- Node1 -->
<g id="node1" class="node">
<title>Node1</title>
<g id="a_node1"><a xlink:title=" ">
<polygon fill="#999999" stroke="#666666" points="0,-0.5 0,-69.5 148.75,-69.5 148.75,-0.5 0,-0.5"/>
<text text-anchor="middle" x="74.38" y="-56" font-family="Helvetica,sans-Serif" font-size="10.00">&lt;RcvAnnotationEditDelegate&gt;</text>
<polyline fill="none" stroke="#666666" points="0,-50.25 148.75,-50.25"/>
<text text-anchor="middle" x="74.38" y="-36.75" font-family="Helvetica,sans-Serif" font-size="10.00"> </text>
<polyline fill="none" stroke="#666666" points="0,-31 148.75,-31"/>
<text text-anchor="start" x="8" y="-17.5" font-family="Helvetica,sans-Serif" font-size="10.00">+ actionMove:state:</text>
<text text-anchor="start" x="8" y="-6.25" font-family="Helvetica,sans-Serif" font-size="10.00">+ actionScale:</text>
</a>
</g>
</g>
<!-- Node2 -->
<g id="node2" class="node">
<title>Node2</title>
<g id="a_node2"><a xlink:title=" ">
<polygon fill="white" stroke="#666666" points="39,-106.5 39,-164.25 109.75,-164.25 109.75,-106.5 39,-106.5"/>
<text text-anchor="middle" x="74.38" y="-150.75" font-family="Helvetica,sans-Serif" font-size="10.00">&lt;NSObject&gt;</text>
<polyline fill="none" stroke="#666666" points="39,-145 109.75,-145"/>
<text text-anchor="middle" x="74.38" y="-131.5" font-family="Helvetica,sans-Serif" font-size="10.00"> </text>
<polyline fill="none" stroke="#666666" points="39,-125.75 109.75,-125.75"/>
<text text-anchor="middle" x="74.38" y="-112.25" font-family="Helvetica,sans-Serif" font-size="10.00"> </text>
</a>
</g>
</g>
<!-- Node2&#45;&gt;Node1 -->
<g id="edge1" class="edge">
<title>Node2&#45;&gt;Node1</title>
<path fill="none" stroke="#63b8ff" d="M74.38,-95.95C74.38,-87.18 74.38,-77.93 74.38,-69.39"/>
<polygon fill="none" stroke="#63b8ff" points="70.88,-95.71 74.38,-105.71 77.88,-95.71 70.88,-95.71"/>
</g>
</g>
</svg>
