<?xml version="1.0" encoding="UTF-8" standalone="no"?>
<!DOCTYPE svg PUBLIC "-//W3C//DTD SVG 1.1//EN"
 "http://www.w3.org/Graphics/SVG/1.1/DTD/svg11.dtd">
<!-- Generated by graphviz version 8.0.4 (20230421.1958)
 -->
<!-- Title: &lt;RcvAnnotationViewDelegate&gt; Pages: 1 -->
<svg width="197pt" height="252pt"
 viewBox="0.00 0.00 197.25 251.50" xmlns="http://www.w3.org/2000/svg" xmlns:xlink="http://www.w3.org/1999/xlink">
<g id="graph0" class="graph" transform="scale(1 1) rotate(0) translate(4 247.5)">
<title>&lt;RcvAnnotationViewDelegate&gt;</title>
<!-- Node1 -->
<g id="node1" class="node">
<title>Node1</title>
<g id="a_node1"><a xlink:title=" ">
<polygon fill="#999999" stroke="#666666" points="0,-0.5 0,-148.25 189.25,-148.25 189.25,-0.5 0,-0.5"/>
<text text-anchor="middle" x="94.62" y="-134.75" font-family="Helvetica,sans-Serif" font-size="10.00">&lt;RcvAnnotationViewDelegate&gt;</text>
<polyline fill="none" stroke="#666666" points="0,-129 189.25,-129"/>
<text text-anchor="middle" x="94.62" y="-115.5" font-family="Helvetica,sans-Serif" font-size="10.00"> </text>
<polyline fill="none" stroke="#666666" points="0,-109.75 189.25,-109.75"/>
<text text-anchor="start" x="8" y="-96.25" font-family="Helvetica,sans-Serif" font-size="10.00">+ didSelectAnnotationObjAtRect:type:</text>
<text text-anchor="start" x="8" y="-85" font-family="Helvetica,sans-Serif" font-size="10.00">+ didCancelSelectAnnotationObject</text>
<text text-anchor="start" x="8" y="-73.75" font-family="Helvetica,sans-Serif" font-size="10.00">+ didUpdateEditingTextView:</text>
<text text-anchor="start" x="8" y="-62.5" font-family="Helvetica,sans-Serif" font-size="10.00">+ didCompleteInput</text>
<text text-anchor="start" x="8" y="-51.25" font-family="Helvetica,sans-Serif" font-size="10.00">+ didEndTextEdit</text>
<text text-anchor="start" x="8" y="-40" font-family="Helvetica,sans-Serif" font-size="10.00">+ didFinishAddTextToServerAtPoint:</text>
<text text-anchor="start" x="8" y="-28.75" font-family="Helvetica,sans-Serif" font-size="10.00">+ didBeginTextEdit</text>
<text text-anchor="start" x="8" y="-17.5" font-family="Helvetica,sans-Serif" font-size="10.00">+ didBeginLineDraw</text>
<text text-anchor="start" x="8" y="-6.25" font-family="Helvetica,sans-Serif" font-size="10.00">+ didExceedMaxmiumAnnotationCount:</text>
</a>
</g>
</g>
<!-- Node2 -->
<g id="node2" class="node">
<title>Node2</title>
<g id="a_node2"><a xlink:title=" ">
<polygon fill="white" stroke="#666666" points="59.25,-185.25 59.25,-243 130,-243 130,-185.25 59.25,-185.25"/>
<text text-anchor="middle" x="94.62" y="-229.5" font-family="Helvetica,sans-Serif" font-size="10.00">&lt;NSObject&gt;</text>
<polyline fill="none" stroke="#666666" points="59.25,-223.75 130,-223.75"/>
<text text-anchor="middle" x="94.62" y="-210.25" font-family="Helvetica,sans-Serif" font-size="10.00"> </text>
<polyline fill="none" stroke="#666666" points="59.25,-204.5 130,-204.5"/>
<text text-anchor="middle" x="94.62" y="-191" font-family="Helvetica,sans-Serif" font-size="10.00"> </text>
</a>
</g>
</g>
<!-- Node2&#45;&gt;Node1 -->
<g id="edge1" class="edge">
<title>Node2&#45;&gt;Node1</title>
<path fill="none" stroke="#63b8ff" d="M94.62,-174.77C94.62,-166.45 94.62,-157.4 94.62,-148.25"/>
<polygon fill="none" stroke="#63b8ff" points="91.13,-174.58 94.62,-184.58 98.13,-174.58 91.13,-174.58"/>
</g>
</g>
</svg>
