<?xml version="1.0" encoding="UTF-8" standalone="no"?>
<!DOCTYPE svg PUBLIC "-//W3C//DTD SVG 1.1//EN"
 "http://www.w3.org/Graphics/SVG/1.1/DTD/svg11.dtd">
<!-- Generated by graphviz version 7.0.5 (20221223.1930)
 -->
<!-- Title: &lt;RcvScreenShareServiceDelegate&gt; Pages: 1 -->
<svg width="251pt" height="160pt"
 viewBox="0.00 0.00 251.00 160.00" xmlns="http://www.w3.org/2000/svg" xmlns:xlink="http://www.w3.org/1999/xlink">
<g id="graph0" class="graph" transform="scale(1 1) rotate(0) translate(4 156)">
<title>&lt;RcvScreenShareServiceDelegate&gt;</title>
<!-- Node1 -->
<g id="node1" class="node">
<title>Node1</title>
<g id="a_node1"><a xlink:title=" ">
<polygon fill="#999999" stroke="#666666" points="0,-0.5 0,-57.5 243,-57.5 243,-0.5 0,-0.5"/>
<text text-anchor="middle" x="121.5" y="-45.5" font-family="Helvetica,sans-Serif" font-size="10.00">&lt;RcvScreenShareServiceDelegate&gt;</text>
<polyline fill="none" stroke="#666666" points="0,-38.5 243,-38.5"/>
<text text-anchor="middle" x="121.5" y="-26.5" font-family="Helvetica,sans-Serif" font-size="10.00"> </text>
<polyline fill="none" stroke="#666666" points="0,-19.5 243,-19.5"/>
<text text-anchor="start" x="8" y="-7.5" font-family="Helvetica,sans-Serif" font-size="10.00">+ rcvScreenShareServiceFinishBroadcastWithError:</text>
</a>
</g>
</g>
<!-- Node2 -->
<g id="node2" class="node">
<title>Node2</title>
<g id="a_node2"><a xlink:title=" ">
<polygon fill="white" stroke="#666666" points="86,-94.5 86,-151.5 157,-151.5 157,-94.5 86,-94.5"/>
<text text-anchor="middle" x="121.5" y="-139.5" font-family="Helvetica,sans-Serif" font-size="10.00">&lt;NSObject&gt;</text>
<polyline fill="none" stroke="#666666" points="86,-132.5 157,-132.5"/>
<text text-anchor="middle" x="121.5" y="-120.5" font-family="Helvetica,sans-Serif" font-size="10.00"> </text>
<polyline fill="none" stroke="#666666" points="86,-113.5 157,-113.5"/>
<text text-anchor="middle" x="121.5" y="-101.5" font-family="Helvetica,sans-Serif" font-size="10.00"> </text>
</a>
</g>
</g>
<!-- Node2&#45;&gt;Node1 -->
<g id="edge1" class="edge">
<title>Node2&#45;&gt;Node1</title>
<path fill="none" stroke="#63b8ff" d="M121.5,-83.59C121.5,-74.74 121.5,-65.49 121.5,-57.23"/>
<polygon fill="none" stroke="#63b8ff" points="118,-83.38 121.5,-93.38 125,-83.38 118,-83.38"/>
</g>
</g>
</svg>
