<?xml version="1.0" encoding="UTF-8" standalone="no"?>
<!DOCTYPE svg PUBLIC "-//W3C//DTD SVG 1.1//EN"
 "http://www.w3.org/Graphics/SVG/1.1/DTD/svg11.dtd">
<!-- Generated by graphviz version 8.1.0 (20230707.0739)
 -->
<!-- Title: &lt;RcvLocalVideoStats&gt; Pages: 1 -->
<svg width="119pt" height="177pt"
 viewBox="0.00 0.00 119.00 177.00" xmlns="http://www.w3.org/2000/svg" xmlns:xlink="http://www.w3.org/1999/xlink">
<g id="graph0" class="graph" transform="scale(1 1) rotate(0) translate(4 173)">
<title>&lt;RcvLocalVideoStats&gt;</title>
<!-- Node1 -->
<g id="Node000001" class="node">
<title>Node1</title>
<g id="a_Node000001"><a xlink:title=" ">
<polygon fill="#999999" stroke="none" points="111,-169 0,-169 0,0 111,0 111,-169"/>
<text text-anchor="start" x="4.88" y="-155.5" font-family="Helvetica,sans-Serif" font-size="10.00">&lt;RcvLocalVideoStats&gt;</text>
<text text-anchor="start" x="54" y="-140.5" font-family="Helvetica,sans-Serif" font-size="10.00"> </text>
<text text-anchor="start" x="10" y="-125.5" font-family="Helvetica,sans-Serif" font-size="10.00">+</text>
<text text-anchor="start" x="26" y="-125.5" font-family="Helvetica,sans-Serif" font-size="10.00">getCodec</text>
<text text-anchor="start" x="10" y="-110.5" font-family="Helvetica,sans-Serif" font-size="10.00">+</text>
<text text-anchor="start" x="26" y="-110.5" font-family="Helvetica,sans-Serif" font-size="10.00">getClockRate</text>
<text text-anchor="start" x="10" y="-95.5" font-family="Helvetica,sans-Serif" font-size="10.00">+</text>
<text text-anchor="start" x="26" y="-95.5" font-family="Helvetica,sans-Serif" font-size="10.00">getFirCount</text>
<text text-anchor="start" x="10" y="-80.5" font-family="Helvetica,sans-Serif" font-size="10.00">+</text>
<text text-anchor="start" x="26" y="-80.5" font-family="Helvetica,sans-Serif" font-size="10.00">getPliCount</text>
<text text-anchor="start" x="10" y="-65.5" font-family="Helvetica,sans-Serif" font-size="10.00">+</text>
<text text-anchor="start" x="26" y="-65.5" font-family="Helvetica,sans-Serif" font-size="10.00">getPacketsSent</text>
<text text-anchor="start" x="10" y="-50.5" font-family="Helvetica,sans-Serif" font-size="10.00">+</text>
<text text-anchor="start" x="26" y="-50.5" font-family="Helvetica,sans-Serif" font-size="10.00">getBytesSent</text>
<text text-anchor="start" x="10" y="-35.5" font-family="Helvetica,sans-Serif" font-size="10.00">+</text>
<text text-anchor="start" x="26" y="-35.5" font-family="Helvetica,sans-Serif" font-size="10.00">getPacketsLost</text>
<text text-anchor="start" x="10" y="-20.5" font-family="Helvetica,sans-Serif" font-size="10.00">+</text>
<text text-anchor="start" x="26" y="-20.5" font-family="Helvetica,sans-Serif" font-size="10.00">getWidth</text>
<text text-anchor="start" x="10" y="-5.5" font-family="Helvetica,sans-Serif" font-size="10.00">+</text>
<text text-anchor="start" x="26" y="-5.5" font-family="Helvetica,sans-Serif" font-size="10.00">getHeight</text>
<polygon fill="#666666" stroke="#666666" points="0,-152 0,-152 111,-152 111,-152 0,-152"/>
<polygon fill="#666666" stroke="#666666" points="0,-137 0,-137 111,-137 111,-137 0,-137"/>
<polygon fill="none" stroke="#666666" points="0,0 0,-169 111,-169 111,0 0,0"/>
</a>
</g>
</g>
</g>
</svg>
